<svg version="1.1" xmlns="http://www.w3.org/2000/svg" width="1024" height="1024" viewBox="0 0 1080 1080" preserveAspectRatio="xMidYMid meet">
<path d="M0 0 C337.92 0 675.84 0 1024 0 C1024 337.92 1024 675.84 1024 1024 C686.08 1024 348.16 1024 0 1024 C0 686.08 0 348.16 0 0 Z " fill="#070808" transform="translate(0,0)"/>
<path d="M0 0 C7.721 6.302 12.42 14.195 13.625 24.125 C14.205 34.026 10.92 41.667 4.75 49.312 C-1.957 55.676 -9.713 59.227 -18.953 59.348 C-28.631 58.793 -37.295 55.165 -44.25 48.312 C-51 39.392 -52.96 31.607 -51.848 20.562 C-50.322 12.266 -45.965 5.397 -39.25 0.312 C-26.884 -7.138 -12.319 -8.595 0 0 Z " fill="#FD8272" transform="translate(165.25,121.6875)"/>
<path d="M0 0 C-1.825 6.693 -7.553 10.783 -12.625 15.125 C-16.565 18.521 -20.255 22.142 -23.938 25.812 C-24.518 26.388 -25.098 26.964 -25.696 27.557 C-28.717 30.498 -28.717 30.498 -31 34 C-31.66 34 -32.32 34 -33 34 C-33.33 34.99 -33.66 35.98 -34 37 C-35.425 38.402 -35.425 38.402 -37.312 39.936 C-42.621 44.446 -47.467 49.385 -52.354 54.34 C-54.049 56.058 -55.749 57.771 -57.45 59.484 C-62.28 64.347 -67.105 69.215 -71.921 74.092 C-74.88 77.089 -77.847 80.079 -80.819 83.064 C-81.946 84.199 -83.07 85.337 -84.191 86.478 C-85.754 88.067 -87.325 89.646 -88.899 91.224 C-90.236 92.575 -90.236 92.575 -91.599 93.953 C-93.97 95.974 -95.06 96.409 -98 97 C-93.3 91.355 -88.283 86.135 -83.089 80.944 C-82.213 80.065 -81.338 79.186 -80.436 78.28 C-78.054 75.891 -75.67 73.503 -73.284 71.117 C-71.793 69.625 -70.302 68.132 -68.812 66.639 C-63.612 61.43 -58.41 56.224 -53.205 51.02 C-48.353 46.168 -43.506 41.311 -38.662 36.451 C-34.497 32.273 -30.329 28.099 -26.157 23.928 C-23.668 21.439 -21.18 18.948 -18.696 16.454 C-15.934 13.68 -13.164 10.915 -10.394 8.151 C-9.569 7.32 -8.744 6.489 -7.894 5.634 C-7.142 4.887 -6.391 4.139 -5.617 3.37 C-4.963 2.715 -4.309 2.06 -3.635 1.386 C-2 0 -2 0 0 0 Z " fill="#FC9F88" transform="translate(210,669)"/>
<path d="M0 0 C-1.825 6.693 -7.553 10.783 -12.625 15.125 C-16.565 18.521 -20.255 22.142 -23.938 25.812 C-24.518 26.388 -25.098 26.964 -25.696 27.557 C-28.717 30.498 -28.717 30.498 -31 34 C-31.66 34 -32.32 34 -33 34 C-33.33 34.99 -33.66 35.98 -34 37 C-34.99 36.34 -35.98 35.68 -37 35 C-32.059 30.009 -27.11 25.025 -22.156 20.046 C-20.471 18.351 -18.787 16.653 -17.104 14.954 C-14.692 12.516 -12.272 10.086 -9.852 7.656 C-9.096 6.891 -8.341 6.125 -7.563 5.336 C-6.862 4.636 -6.162 3.935 -5.44 3.213 C-4.823 2.591 -4.205 1.969 -3.569 1.329 C-2 0 -2 0 0 0 Z " fill="#F59983" transform="translate(210,669)"/>
<path d="M0 0 C-1.453 5.327 -5.081 8.364 -9 12 C-9.738 10.266 -9.738 10.266 -10 8 C-8.418 5.859 -8.418 5.859 -6.188 3.75 C-5.095 2.69 -5.095 2.69 -3.98 1.609 C-2 0 -2 0 0 0 Z " fill="#DD8471" transform="translate(210,669)"/>
<path d="M0 0 C3.63 0.66 7.26 1.32 11 2 C11 2.33 11 2.66 11 3 C12.65 3.33 14.3 3.66 16 4 C16 4.33 16 4.66 16 5 C13.03 5 10.06 5 7 5 C7 4.34 7 3.68 7 3 C5.02 3 3.04 3 1 3 C0.67 2.01 0.34 1.02 0 0 Z " fill="#130B0B" transform="translate(133,178)"/>
<path d="M0 0 C2.438 0.812 2.438 0.812 4.438 3.812 C1.137 3.153 -2.162 2.493 -5.562 1.812 C-2.562 -0.188 -2.562 -0.188 0 0 Z " fill="#1A0D0C" transform="translate(156.5625,115.1875)"/>
<g transform="translate(540 480) rotate(-7)">
    <text class="largeText" x="0" y="0">COMING</text>
    <text class="largeText" x="0" y="180">SOON</text>
</g>
<g transform="translate(540 700) rotate(-10)">
    <text class="smallText" x="0" y="0">STAY TUNED</text>
</g>
</svg>