<svg version="1.1" xmlns="http://www.w3.org/2000/svg" width="1024" height="1024" viewBox="0 0 1080 1080" preserveAspectRatio="xMidYMid meet">
<path d="M0 0 C337.92 0 675.84 0 1024 0 C1024 337.92 1024 675.84 1024 1024 C686.08 1024 348.16 1024 0 1024 C0 686.08 0 348.16 0 0 Z " fill="#001652" transform="translate(0,0)"/>
<path d="M0 0 C2.503 2.196 4.848 4.475 7.172 6.859 C7.88 7.535 8.587 8.21 9.316 8.906 C19.289 19.051 24.592 33.375 24.484 47.484 C24.479 48.266 24.473 49.048 24.467 49.854 C24.076 68.863 16.651 83.788 3.172 96.984 C-10.341 108.47 -27.355 112.98 -44.828 111.859 C-59.69 110.523 -74.786 104.049 -85.074 92.992 C-91.67 84.971 -97.034 76.978 -99.828 66.859 C-100.181 65.618 -100.535 64.377 -100.898 63.098 C-104.608 47.92 -101.595 31.985 -94.078 18.484 C-83.861 2.95 -69.839 -7.822 -51.551 -11.637 C-33.084 -14.136 -15.14 -11.46 0 0 Z " fill="#011C5D" transform="translate(860.828125,466.140625)"/>
<path d="M0 0 C2.503 2.196 4.848 4.475 7.172 6.859 C7.88 7.535 8.587 8.21 9.316 8.906 C19.289 19.051 24.592 33.375 24.484 47.484 C24.479 48.266 24.473 49.048 24.467 49.854 C24.076 68.863 16.651 83.788 3.172 96.984 C-10.341 108.47 -27.355 112.98 -44.828 111.859 C-59.69 110.523 -74.786 104.049 -85.074 92.992 C-91.67 84.971 -97.034 76.978 -99.828 66.859 C-100.181 65.618 -100.535 64.377 -100.898 63.098 C-104.608 47.92 -101.595 31.985 -94.078 18.484 C-83.861 2.95 -69.839 -7.822 -51.551 -11.637 C-33.084 -14.136 -15.14 -11.46 0 0 Z M-83.828 12.859 C-94.353 26.244 -98.29 41.72 -96.555 58.504 C-94.257 71.922 -87.737 82.694 -77.828 91.859 C-77.352 92.329 -76.877 92.798 -76.387 93.281 C-65.201 103.739 -50.533 107.507 -35.562 107.141 C-19.512 105.932 -5.667 99.195 5.395 87.512 C10.258 81.776 13.489 75.861 16.172 68.859 C16.651 67.728 16.651 67.728 17.141 66.574 C19.206 60.999 19.448 55.617 19.484 49.734 C19.49 48.982 19.495 48.23 19.501 47.455 C19.325 33.693 13.702 22.389 5.172 11.859 C4.65 11.21 4.128 10.56 3.59 9.891 C-3.829 1.627 -15.15 -3.721 -25.828 -6.141 C-26.447 -6.31 -27.065 -6.48 -27.703 -6.655 C-48.697 -11.45 -69.627 -2.403 -83.828 12.859 Z " fill="#F13531" transform="translate(860.828125,466.140625)"/>
<path d="M0 0 C2.97 0 5.94 0 9 0 C9 3.63 9 7.26 9 11 C1.641 12.512 -5.424 13.298 -12.934 13.559 C-16.268 13.794 -19.273 14.59 -22.488 15.492 C-29.864 17.422 -37.166 17.561 -44.75 17.688 C-46.141 17.721 -47.531 17.755 -48.922 17.791 C-52.281 17.873 -55.64 17.942 -59 18 C-58.67 16.68 -58.34 15.36 -58 14 C-58.99 14 -59.98 14 -61 14 C-61 13.34 -61 12.68 -61 12 C-59.886 12.012 -58.773 12.023 -57.625 12.035 C-42.525 12.148 -28.394 12.242 -14 7 C-13.01 6.67 -12.02 6.34 -11 6 C-11 6.66 -11 7.32 -11 8 C-7.7 7.67 -4.4 7.34 -1 7 C-0.67 4.69 -0.34 2.38 0 0 Z " fill="#EE3432" transform="translate(841,511)"/>
<path d="M0 0 C3.916 -0.116 7.832 -0.187 11.75 -0.25 C13.417 -0.3 13.417 -0.3 15.117 -0.352 C16.187 -0.364 17.257 -0.377 18.359 -0.391 C19.344 -0.412 20.328 -0.433 21.343 -0.454 C24.696 0.119 25.859 1.433 28 4 C27.67 4.99 27.34 5.98 27 7 C26.67 6.01 26.34 5.02 26 4 C23.713 3.496 23.713 3.496 21 4 C19.838 5.549 18.677 7.1 17.535 8.664 C14.912 10.947 12.11 10.438 8.793 10.211 C8.201 10.141 7.61 10.072 7 10 C6.67 8.02 6.34 6.04 6 4 C4.02 3.34 2.04 2.68 0 2 C0 1.34 0 0.68 0 0 Z " fill="#752849" transform="translate(819,497)"/>
<path d="M0 0 C2.97 0 5.94 0 9 0 C9 3.63 9 7.26 9 11 C5.665 11.834 3.376 12.118 0.016 12.098 C-0.919 12.094 -1.854 12.091 -2.816 12.088 C-3.784 12.08 -4.753 12.071 -5.75 12.062 C-7.225 12.056 -7.225 12.056 -8.73 12.049 C-11.154 12.037 -13.577 12.021 -16 12 C-15.361 11.711 -14.721 11.423 -14.062 11.125 C-11.848 10.172 -11.848 10.172 -11 8 C-8.715 7.586 -8.715 7.586 -5.938 7.375 C-5.018 7.3 -4.099 7.225 -3.152 7.148 C-2.087 7.075 -2.087 7.075 -1 7 C-0.67 4.69 -0.34 2.38 0 0 Z " fill="#F8342F" transform="translate(841,511)"/>
<path d="M0 0 C2.97 0 5.94 0 9 0 C9 2.64 9 5.28 9 8 C5.7 8 2.4 8 -1 8 C-0.67 5.36 -0.34 2.72 0 0 Z " fill="#EC3332" transform="translate(841,511)"/>
<path d="M0 0 C0 1.32 0 2.64 0 4 C0.99 4.33 1.98 4.66 3 5 C1.02 5 -0.96 5 -3 5 C0.96 5.33 4.92 5.66 9 6 C9 6.33 9 6.66 9 7 C-0.405 7.495 -0.405 7.495 -10 8 C-8 3 -8 3 -5 1.188 C-2 0 -2 0 0 0 Z " fill="#C43138" transform="translate(830,517)"/>
<path d="M0 0 C0.66 0 1.32 0 2 0 C2 0.66 2 1.32 2 2 C2.99 2 3.98 2 5 2 C5 2.99 5 3.98 5 5 C5.66 5.33 6.32 5.66 7 6 C6.34 6 5.68 6 5 6 C5 6.99 5 7.98 5 9 C1.233 9 0.088 8.765 -3 7 C-3 3.48 -2.296 2.561 0 0 Z " fill="#5E2649" transform="translate(868,511)"/>
<path d="M0 0 C2.966 0.479 4.681 1.362 6.961 3.316 C8.836 6.316 8.836 6.316 9.961 9.316 C9.631 10.306 9.301 11.296 8.961 12.316 C8.425 11.203 7.888 10.089 7.336 8.941 C5.765 6.238 5.091 5.389 2.273 3.816 C-1.992 3.173 -5.805 3.62 -10.039 4.316 C-7.139 0.45 -4.828 -0.278 0 0 Z " fill="#E53335" transform="translate(799.0390625,489.68359375)"/>
<path d="M0 0 C3.312 -0.312 3.312 -0.312 7 0 C8.812 2.438 8.812 2.438 10 5 C10.66 5.33 11.32 5.66 12 6 C11.67 7.32 11.34 8.64 11 10 C9.68 10 8.36 10 7 10 C6.67 8.02 6.34 6.04 6 4 C4.02 3.34 2.04 2.68 0 2 C0 1.34 0 0.68 0 0 Z " fill="#BC2C3C" transform="translate(819,497)"/>
<path d="M0 0 C0.66 0.99 1.32 1.98 2 3 C1.67 3.99 1.34 4.98 1 6 C0.67 5.01 0.34 4.02 0 3 C-1.355 2.927 -1.355 2.927 -2.738 2.852 C-4.508 2.739 -4.508 2.739 -6.312 2.625 C-7.484 2.555 -8.656 2.486 -9.863 2.414 C-13 2 -13 2 -16 0 C-4.797 -1.439 -4.797 -1.439 0 0 Z " fill="#F13031" transform="translate(845,498)"/>
<path d="M0 0 C0.33 0.99 0.66 1.98 1 3 C1.99 3 2.98 3 4 3 C4 7.29 4 11.58 4 16 C3.67 16 3.34 16 3 16 C2.67 14.02 2.34 12.04 2 10 C1.01 10.495 1.01 10.495 0 11 C0 7.37 0 3.74 0 0 Z " fill="#FA382E" transform="translate(760,504)"/>
<path d="M0 0 C2.97 0.495 2.97 0.495 6 1 C5.01 2.65 4.02 4.3 3 6 C0.69 5.67 -1.62 5.34 -4 5 C-3.67 4.01 -3.34 3.02 -3 2 C-2.01 2 -1.02 2 0 2 C0 1.34 0 0.68 0 0 Z " fill="#E33334" transform="translate(835,455)"/>
<path d="M0 0 C0.66 0 1.32 0 2 0 C2 0.66 2 1.32 2 2 C3.65 2.33 5.3 2.66 7 3 C7 3.33 7 3.66 7 4 C4.729 4.027 2.458 4.046 0.188 4.062 C-1.709 4.08 -1.709 4.08 -3.645 4.098 C-7 4 -7 4 -10 3 C-10 2.34 -10 1.68 -10 1 C-9.362 1.012 -8.724 1.023 -8.066 1.035 C-7.24 1.044 -6.414 1.053 -5.562 1.062 C-4.327 1.08 -4.327 1.08 -3.066 1.098 C-1.008 1.233 -1.008 1.233 0 0 Z " fill="#0F1F64" transform="translate(791,520)"/>
<path d="M0 0 C0.66 0 1.32 0 2 0 C2 0.99 2 1.98 2 3 C2.66 2.67 3.32 2.34 4 2 C2.75 5.653 2.329 6.781 -1 9 C-2 6 -2 6 -2 3 C-1.34 2.01 -0.68 1.02 0 0 Z " fill="#FA372E" transform="translate(871,546)"/>
<path d="M0 0 C0 1.32 0 2.64 0 4 C-1.75 4.688 -1.75 4.688 -4 5 C-6.25 3.562 -6.25 3.562 -8 2 C-2.25 0 -2.25 0 0 0 Z " fill="#E63235" transform="translate(846,568)"/>
<path d="M0 0 C2.31 0 4.62 0 7 0 C7 0.66 7 1.32 7 2 C5.68 2 4.36 2 3 2 C3 2.66 3 3.32 3 4 C2.34 4 1.68 4 1 4 C1 5.32 1 6.64 1 8 C0.34 7.67 -0.32 7.34 -1 7 C-0.67 4.69 -0.34 2.38 0 0 Z " fill="#D13038" transform="translate(841,511)"/>
<path d="M0 0 C2.31 0 4.62 0 7 0 C7.33 0.99 7.66 1.98 8 3 C5.69 3 3.38 3 1 3 C0.67 2.01 0.34 1.02 0 0 Z " fill="#CE2F3A" transform="translate(819,497)"/>
<path d="M0 0 C0 0.66 0 1.32 0 2 C0.66 2 1.32 2 2 2 C2.33 2.99 2.66 3.98 3 5 C1.35 4.67 -0.3 4.34 -2 4 C-2 3.34 -2 2.68 -2 2 C-2.99 2.33 -3.98 2.66 -5 3 C-5.99 2.34 -6.98 1.68 -8 1 C-2.25 0 -2.25 0 0 0 Z " fill="#DD3135" transform="translate(837,571)"/>
<path d="M0 0 C2.64 0.99 5.28 1.98 8 3 C6.68 3.99 5.36 4.98 4 6 C2.624 4.71 1.292 3.373 0 2 C0 1.34 0 0.68 0 0 Z " fill="#F8332C" transform="translate(769,548)"/>
<path d="M0 0 C1.65 0.33 3.3 0.66 5 1 C5 1.66 5 2.32 5 3 C2.5 4.625 2.5 4.625 0 6 C-0.99 4.68 -1.98 3.36 -3 2 C-2.01 2 -1.02 2 0 2 C0 1.34 0 0.68 0 0 Z " fill="#0E1D55" transform="translate(869,518)"/>
<path d="M0 0 C2.875 0.312 2.875 0.312 6 1 C6.66 1.99 7.32 2.98 8 4 C7.67 4.99 7.34 5.98 7 7 C6.67 6.01 6.34 5.02 6 4 C3.985 3.267 3.985 3.267 2 3 C2 2.34 2 1.68 2 1 C1.34 0.67 0.68 0.34 0 0 Z " fill="#D53037" transform="translate(839,497)"/>
<path d="M0 0 C0.33 0.66 0.66 1.32 1 2 C0.67 2.99 0.34 3.98 0 5 C0.33 5.99 0.66 6.98 1 8 C-0.32 7.34 -1.64 6.68 -3 6 C-3 3 -3 3 -1.5 1.312 C-0.758 0.663 -0.758 0.663 0 0 Z " fill="#C62E3A" transform="translate(868,512)"/>
<path d="M0 0 C2.475 0.495 2.475 0.495 5 1 C5.33 2.65 5.66 4.3 6 6 C5.01 6 4.02 6 3 6 C2.01 4.02 1.02 2.04 0 0 Z " fill="#F8382D" transform="translate(797,568)"/>
<path d="M0 0 C1.072 0.248 2.145 0.495 3.25 0.75 C3.25 1.41 3.25 2.07 3.25 2.75 C-0.38 3.08 -4.01 3.41 -7.75 3.75 C-5.152 0.32 -4.431 -0.295 0 0 Z " fill="#B02E3F" transform="translate(796.75,490.25)"/>
<path d="M0 0 C2.97 0.495 2.97 0.495 6 1 C6 1.99 6 2.98 6 4 C5.01 4 4.02 4 3 4 C3 3.34 3 2.68 3 2 C2.01 2 1.02 2 0 2 C0 1.34 0 0.68 0 0 Z " fill="#DA3336" transform="translate(780,523)"/>
<path d="M0 0 C0.66 0 1.32 0 2 0 C2.66 2.31 3.32 4.62 4 7 C2.68 6.67 1.36 6.34 0 6 C0 4.02 0 2.04 0 0 Z " fill="#6B2849" transform="translate(848,504)"/>
<path d="M0 0 C2.475 0.99 2.475 0.99 5 2 C3.35 3.32 1.7 4.64 0 6 C-1.125 2.25 -1.125 2.25 0 0 Z " fill="#232359" transform="translate(817,498)"/>
 <style>
    .big { font-family: "Arial Black", Arial, sans-serif; font-weight: 900; fill: #ffffff; font-size: 160px; }
    .small { font-family: Arial, sans-serif; fill: #ffffff; font-size: 50px; }
  </style>
  <text x="50%" y="45%" text-anchor="middle" class="big" dominant-baseline="middle">COMING</text>
  <text x="50%" y="65%" text-anchor="middle" class="big" dominant-baseline="middle">SOON</text>
  <text x="50%" y="80%" text-anchor="middle" class="small" dominant-baseline="middle">Stay tuned</text>
</svg>