<?xml version="1.0" encoding="UTF-8"?>
<!-- Generator: visioncortex VTracer 0.6.4 -->
<svg version="1.1" xmlns="http://www.w3.org/2000/svg" width="1024" height="1024">
<path d="M0 0 C337.92 0 675.84 0 1024 0 C1024 337.92 1024 675.84 1024 1024 C686.08 1024 348.16 1024 0 1024 C0 686.08 0 348.16 0 0 Z " fill="#00193D" transform="translate(0,0)"/>
<path d="M0 0 C106.26 0 212.52 0 322 0 C322 57.75 322 115.5 322 175 C320 174 320 174 319.194 172.102 C318.937 171.284 318.679 170.467 318.414 169.625 C318.123 168.721 317.831 167.818 317.531 166.887 C317.232 165.934 316.933 164.981 316.625 164 C313.421 153.863 309.537 144.722 304.27 135.48 C303 133 303 133 302.547 130.867 C301.805 128.334 300.517 127.513 298.438 125.938 C296.496 124.465 296.496 124.465 295 123 C295 122.01 295 121.02 295 120 C294.381 119.773 293.763 119.546 293.125 119.312 C290.371 117.611 290.178 115.946 289 113 C287.15 111.742 287.15 111.742 285 111 C282.812 110.062 282.812 110.062 281 109 C280.67 108.01 280.34 107.02 280 106 C278.615 104.658 278.615 104.658 276.875 103.5 C276.316 103.098 275.756 102.696 275.18 102.281 C272.867 100.859 272.867 100.859 269.668 99.582 C266.051 98.022 262.814 96.209 259.438 94.188 C252.535 90.168 245.468 86.849 238 84 C237.335 83.745 236.671 83.49 235.986 83.227 C223.581 78.556 211.067 76.054 198 74 C196.064 73.677 196.064 73.677 194.09 73.348 C181.064 71.299 167.934 70.955 154.773 70.789 C153.688 70.775 152.603 70.76 151.485 70.746 C146.996 70.689 142.507 70.634 138.018 70.599 C126.116 70.498 114.362 70.166 102.547 68.641 C101.645 68.524 100.743 68.408 99.814 68.288 C89.934 66.883 80.46 64.115 71 61 C69.823 60.621 68.646 60.242 67.434 59.852 C53.857 55.06 40.738 47.583 30 38 C28.795 36.991 28.795 36.991 27.566 35.961 C15.959 26.001 7.259 14.406 0 1 C0 0.67 0 0.34 0 0 Z " fill="#3F2F3D" transform="translate(702,0)"/>
<path d="M0 0 C0.99 0.495 0.99 0.495 2 1 C1.504 1.485 1.007 1.969 0.496 2.469 C-2.817 5.737 -6.06 9.005 -9.062 12.562 C-13.237 17.431 -17.831 21.882 -22.406 26.369 C-25.409 29.331 -28.305 32.312 -31.031 35.531 C-37.568 43.113 -44.93 49.981 -52.039 57.019 C-61.473 66.305 -61.473 66.305 -70.344 76.121 C-74.818 81.197 -79.799 85.832 -84.617 90.578 C-88.313 94.241 -91.967 97.882 -95.344 101.844 C-100.89 108.312 -107.118 114.171 -113.175 120.155 C-118.672 125.59 -124.104 131.008 -129.122 136.895 C-133.56 141.87 -138.393 146.493 -143.125 151.188 C-144.207 152.265 -145.289 153.342 -146.371 154.42 C-148.359 156.4 -150.349 158.379 -152.34 160.356 C-154.125 162.13 -155.897 163.917 -157.656 165.716 C-160 168 -160 168 -163 170 C-163 163.848 -156.091 159.053 -151.976 154.913 C-149.536 152.474 -147.082 150.048 -144.625 147.625 C-142.635 145.662 -140.649 143.695 -138.664 141.727 C-137.356 140.436 -137.356 140.436 -136.022 139.12 C-133.961 137.167 -133.961 137.167 -133 135 C-132.34 135 -131.68 135 -131 135 C-130.773 134.447 -130.545 133.894 -130.311 133.325 C-128.614 130.315 -126.473 128.242 -124.019 125.808 C-123.513 125.303 -123.007 124.798 -122.486 124.278 C-120.814 122.613 -119.135 120.955 -117.457 119.297 C-116.288 118.134 -115.119 116.971 -113.951 115.807 C-110.872 112.741 -107.788 109.681 -104.702 106.623 C-99.78 101.744 -94.864 96.858 -89.952 91.969 C-88.245 90.272 -86.534 88.578 -84.822 86.884 C-79.938 82.038 -75.168 77.159 -70.697 71.923 C-67.254 68.022 -63.509 64.409 -59.812 60.75 C-58.951 59.892 -58.09 59.035 -57.202 58.151 C-53.55 54.515 -49.891 50.885 -46.233 47.254 C-43.549 44.588 -40.868 41.919 -38.188 39.25 C-37.371 38.441 -36.554 37.633 -35.712 36.8 C-31.494 32.599 -27.459 28.317 -23.577 23.804 C-21.322 21.224 -18.935 18.823 -16.504 16.406 C-16.025 15.929 -15.547 15.452 -15.054 14.961 C-13.559 13.471 -12.061 11.986 -10.562 10.5 C-9.534 9.477 -8.506 8.453 -7.479 7.43 C-4.988 4.95 -2.495 2.474 0 0 Z " fill="#002C57" transform="translate(421,86)"/>
<path d="M0 0 C0.99 0.495 0.99 0.495 2 1 C1.299 1.699 0.598 2.397 -0.124 3.117 C-6.747 9.72 -13.367 16.325 -19.985 22.933 C-23.387 26.33 -26.789 29.725 -30.194 33.119 C-33.484 36.398 -36.771 39.679 -40.056 42.961 C-41.307 44.21 -42.558 45.457 -43.809 46.704 C-45.571 48.458 -47.329 50.215 -49.086 51.973 C-49.598 52.481 -50.109 52.989 -50.636 53.512 C-53.813 56.698 -56.781 60.009 -59.675 63.454 C-61.659 65.769 -63.82 67.87 -66 70 C-67.506 71.504 -69.011 73.009 -70.515 74.515 C-83.343 87.343 -96.172 100.172 -109 113 C-109 107.659 -105.709 104.481 -102.076 100.816 C-101.563 100.309 -101.051 99.802 -100.522 99.279 C-99.975 98.731 -99.429 98.182 -98.865 97.617 C-97.065 95.812 -95.257 94.016 -93.449 92.219 C-92.19 90.96 -90.93 89.701 -89.671 88.442 C-87.034 85.807 -84.393 83.174 -81.75 80.544 C-78.373 77.184 -75.002 73.817 -71.633 70.447 C-69.033 67.847 -66.43 65.25 -63.827 62.654 C-62.584 61.414 -61.341 60.173 -60.099 58.932 C-58.357 57.192 -56.612 55.456 -54.866 53.721 C-54.359 53.214 -53.853 52.706 -53.33 52.184 C-50.029 48.912 -46.587 45.946 -43 43 C-40.355 40.484 -37.977 37.971 -35.688 35.125 C-33.832 32.859 -31.89 30.991 -29.645 29.113 C-23.451 23.755 -17.766 17.872 -12 12.062 C-10.832 10.89 -9.664 9.717 -8.496 8.545 C-5.661 5.699 -2.83 2.851 0 0 Z " fill="#002B56" transform="translate(274,703)"/>
<path d="M0 0 C0.33 0.66 0.66 1.32 1 2 C1.66 2 2.32 2 3 2 C3 2.66 3 3.32 3 4 C4.578 4.34 4.578 4.34 6.188 4.688 C10.194 5.808 12.144 7.993 15 11 C17.665 12.319 17.665 12.319 20 13 C20 13.66 20 14.32 20 15 C20.508 15.104 21.016 15.209 21.539 15.316 C24.925 16.257 28.129 17.605 31.375 18.938 C35.879 20.781 40.372 22.486 45 24 C46.315 24.514 47.628 25.034 48.938 25.562 C52.597 26.957 56.111 27.496 60 28 C60.935 28.317 61.869 28.634 62.832 28.961 C76.844 33.557 93.382 33.112 108 33 C108.99 33 109.98 33 111 33 C112.599 32.989 114.198 32.977 115.797 32.965 C148.756 32.784 148.756 32.784 163 36 C163 36.33 163 36.66 163 37 C161.726 36.939 160.453 36.879 159.141 36.816 C147.593 36.309 136.061 35.967 124.504 35.816 C122.235 35.784 119.965 35.751 117.696 35.719 C114.291 35.67 110.886 35.626 107.481 35.597 C95.768 35.496 84.21 35.139 72.582 33.641 C71.678 33.524 70.774 33.408 69.842 33.288 C59.952 31.886 50.47 29.119 41 26 C39.823 25.621 38.646 25.242 37.434 24.852 C24.728 20.367 9.273 13.088 0 3 C0 2.01 0 1.02 0 0 Z " fill="#993828" transform="translate(732,35)"/>
<path d="M0 0 C0 3 0 3 -1.405 4.698 C-2.373 5.613 -2.373 5.613 -3.359 6.547 C-4.415 7.568 -4.415 7.568 -5.492 8.609 C-6.981 10.021 -8.471 11.433 -9.961 12.844 C-10.67 13.53 -11.379 14.215 -12.109 14.922 C-12.759 15.536 -13.408 16.151 -14.077 16.784 C-16.073 19.084 -17.38 21.503 -18.841 24.16 C-20.941 27.494 -23.749 30.115 -26.559 32.852 C-27.185 33.473 -27.811 34.095 -28.456 34.736 C-30.443 36.706 -32.44 38.666 -34.438 40.625 C-35.775 41.947 -37.111 43.27 -38.447 44.594 C-41.447 47.564 -44.453 50.527 -47.467 53.483 C-48.902 54.903 -50.317 56.344 -51.731 57.787 C-54 60 -54 60 -57 62 C-57 55.848 -50.091 51.053 -45.976 46.913 C-43.536 44.474 -41.082 42.048 -38.625 39.625 C-36.635 37.662 -34.649 35.695 -32.664 33.727 C-31.792 32.866 -30.92 32.006 -30.022 31.12 C-27.961 29.167 -27.961 29.167 -27 27 C-26.34 27 -25.68 27 -25 27 C-24.778 26.452 -24.556 25.904 -24.327 25.339 C-22.593 22.282 -20.262 20.015 -17.773 17.578 C-17.266 17.073 -16.758 16.568 -16.235 16.048 C-14.62 14.444 -12.997 12.847 -11.375 11.25 C-10.276 10.161 -9.177 9.071 -8.078 7.98 C-5.391 5.315 -2.697 2.656 0 0 Z " fill="#00254D" transform="translate(315,194)"/>
<path d="M0 0 C7.605 2.852 15 6.415 21 12 C21 12.66 21 13.32 21 14 C22.072 14.536 23.145 15.073 24.25 15.625 C28.011 17.745 29.775 20.292 32 24 C32.66 24.33 33.32 24.66 34 25 C34.433 25.763 34.866 26.526 35.312 27.312 C36.88 30.144 36.88 30.144 39.625 32.062 C42.312 34.255 42.353 34.763 43 38 C43.66 39.224 44.351 40.431 45.062 41.625 C47 45 47 45 47 47 C47.99 47.495 47.99 47.495 49 48 C48.67 48.99 48.34 49.98 48 51 C47.455 50.117 46.909 49.234 46.348 48.324 C34.849 29.93 20.778 15.645 3.07 3.234 C2.057 2.497 1.044 1.76 0 1 C0 0.67 0 0.34 0 0 Z " fill="#022A4D" transform="translate(963,95)"/>
<path d="M0 0 C0.33 0.66 0.66 1.32 1 2 C1.66 2 2.32 2 3 2 C3 2.66 3 3.32 3 4 C4.578 4.34 4.578 4.34 6.188 4.688 C10.194 5.808 12.144 7.993 15 11 C17.665 12.319 17.665 12.319 20 13 C20 13.66 20 14.32 20 15 C20.508 15.104 21.016 15.209 21.539 15.316 C24.925 16.257 28.129 17.605 31.375 18.938 C35.879 20.781 40.372 22.486 45 24 C46.315 24.514 47.628 25.034 48.938 25.562 C52.594 26.958 56.116 27.487 60 28 C62.938 29.062 62.938 29.062 65 30 C65 30.33 65 30.66 65 31 C57.518 30.594 50.885 29.398 43.812 26.938 C42.909 26.629 42.006 26.32 41.075 26.002 C25.761 20.607 11.055 12.984 -1 2 C-0.67 1.34 -0.34 0.68 0 0 Z " fill="#A73C29" transform="translate(732,35)"/>
<path d="M0 0 C1.792 0.145 3.583 0.291 5.375 0.438 C6.872 0.559 6.872 0.559 8.398 0.684 C10.302 0.851 12.206 1.023 14.105 1.239 C20.857 1.99 27.562 2.212 34.352 2.316 C35.492 2.337 36.632 2.358 37.806 2.379 C41.412 2.444 45.019 2.503 48.625 2.562 C51.085 2.606 53.544 2.649 56.004 2.693 C62.003 2.8 68.001 2.902 74 3 C74 3.33 74 3.66 74 4 C66.745 4.026 59.49 4.043 52.235 4.055 C49.774 4.06 47.312 4.067 44.851 4.075 C6.965 4.206 6.965 4.206 0 1 C0 0.67 0 0.34 0 0 Z " fill="#242E43" transform="translate(795,67)"/>
<path d="M0 0 C7.605 2.852 15 6.415 21 12 C21 12.66 21 13.32 21 14 C22.134 14.578 23.269 15.155 24.438 15.75 C27.87 17.688 27.87 17.688 28.938 20.25 C28.958 20.828 28.979 21.405 29 22 C28.299 21.402 27.597 20.804 26.875 20.188 C24.134 17.941 24.134 17.941 21.188 16.688 C17.667 14.824 15.162 12.581 12.234 9.914 C8.979 7.125 5.461 4.771 1.906 2.383 C1.277 1.926 0.648 1.47 0 1 C0 0.67 0 0.34 0 0 Z " fill="#0D2847" transform="translate(963,95)"/>
<path d="M0 0 C0.99 0 1.98 0 3 0 C3.841 1.433 4.673 2.872 5.5 4.312 C6.196 5.513 6.196 5.513 6.906 6.738 C8 9 8 9 8 12 C8.639 12.227 9.279 12.454 9.938 12.688 C12 14 12 14 12.75 16.625 C12.832 17.409 12.915 18.192 13 19 C9.179 15.44 6.354 11.754 3.688 7.25 C3.328 6.661 2.969 6.072 2.6 5.465 C0 1.157 0 1.157 0 0 Z " fill="#A93D2A" transform="translate(702,0)"/>
<path d="M0 0 C3.867 1.467 5.01 3.472 7 7 C7.66 7.33 8.32 7.66 9 8 C9 8.66 9 9.32 9 10 C9.66 10 10.32 10 11 10 C12.714 11.959 14.384 13.959 16 16 C13 16 13 16 10.879 14.207 C0 2.961 0 2.961 0 0 Z " fill="#AE3C28" transform="translate(715,19)"/>
<path d="M0 0 C3.582 1.312 6.552 2.896 9.688 5.062 C12.755 7.182 12.755 7.182 16 9 C15.67 9.99 15.34 10.98 15 12 C14.34 12 13.68 12 13 12 C13 11.01 13 10.02 13 9 C12.438 8.896 11.876 8.791 11.297 8.684 C8.576 7.874 6.607 6.638 4.25 5.062 C3.451 4.538 2.652 4.013 1.828 3.473 C1.225 2.987 0.622 2.501 0 2 C0 1.34 0 0.68 0 0 Z " fill="#0B2849" transform="translate(735,41)"/>
<path d="M0 0 C4.021 1.34 5.163 3.917 7.25 7.375 C7.815 8.261 7.815 8.261 8.391 9.164 C9.347 10.726 10.183 12.361 11 14 C10.67 14.99 10.34 15.98 10 17 C5.981 11.528 2.362 6.39 0 0 Z " fill="#08294C" transform="translate(700,0)"/>
</svg>
