<?xml version="1.0" encoding="UTF-8"?>
<!-- Generator: visioncortex VTracer 0.6.4 -->
<svg version="1.1" xmlns="http://www.w3.org/2000/svg" width="1024" height="1024">
<path d="M0 0 C337.92 0 675.84 0 1024 0 C1024 337.92 1024 675.84 1024 1024 C686.08 1024 348.16 1024 0 1024 C0 686.08 0 348.16 0 0 Z " fill="#111111" transform="translate(0,0)"/>
<path d="M0 0 C1.027 0.824 2.055 1.647 3.113 2.496 C21.25 18.227 32.471 44.298 35 68 C36.565 95.447 30.019 123.133 12.117 144.664 C-6.762 165.494 -29.753 180.609 -58.654 182.141 C-79.656 182.85 -98.199 180.68 -117 171 C-118.056 170.465 -119.111 169.93 -120.199 169.379 C-141.949 157.523 -158.231 136.977 -167 114 C-167.257 113.331 -167.514 112.663 -167.778 111.974 C-175.33 91.253 -174.616 66.574 -167 46 C-166.732 45.254 -166.465 44.509 -166.189 43.741 C-161.067 29.708 -153.818 18.292 -144 7 C-143.483 6.386 -142.966 5.773 -142.434 5.141 C-104.541 -36.412 -40.992 -33.204 0 0 Z " fill="#111111" transform="translate(361,682)"/>
<path d="M0 0 C10.534 -0.46 19.02 3.302 26.922 10.152 C34.72 18.656 37.376 26.969 37.258 38.348 C36.345 48.683 31.78 57.416 23.922 64.152 C14.76 70.421 5.766 71.085 -5.078 70.152 C-14.328 68.3 -22.705 61.947 -28.07 54.32 C-31.868 47.389 -33.177 41.013 -33.078 33.152 C-33.077 32.36 -33.076 31.567 -33.074 30.75 C-32.575 21.595 -27.914 14.056 -21.32 7.91 C-14.717 2.733 -8.291 0.608 0 0 Z " fill="#111111" transform="translate(290.078125,724.84765625)"/>
<path d="M0 0 C1.027 0.824 2.055 1.647 3.113 2.496 C21.25 18.227 32.471 44.298 35 68 C36.565 95.447 30.019 123.133 12.117 144.664 C-6.762 165.494 -29.753 180.609 -58.654 182.141 C-79.656 182.85 -98.199 180.68 -117 171 C-118.056 170.465 -119.111 169.93 -120.199 169.379 C-141.949 157.523 -158.231 136.977 -167 114 C-167.257 113.331 -167.514 112.663 -167.778 111.974 C-175.33 91.253 -174.616 66.574 -167 46 C-166.732 45.254 -166.465 44.509 -166.189 43.741 C-161.067 29.708 -153.818 18.292 -144 7 C-143.483 6.386 -142.966 5.773 -142.434 5.141 C-104.541 -36.412 -40.992 -33.204 0 0 Z M-142.597 11.16 C-159.906 29.226 -168.429 55.111 -168.312 79.75 C-168.307 80.995 -168.301 82.24 -168.295 83.522 C-168.182 92.081 -167.737 99.832 -165 108 C-164.609 109.187 -164.219 110.374 -163.816 111.598 C-158.433 126.821 -149.428 139.721 -138 151 C-136.782 152.216 -136.782 152.216 -135.539 153.457 C-114.864 173.095 -89.423 179.081 -61.801 178.379 C-33.981 177.145 -11.579 164.657 7.281 144.57 C25.772 122.778 33.125 94.116 31 66 C29.381 54.938 25.922 44.025 21 34 C20.475 32.924 19.951 31.847 19.41 30.738 C7.492 7.469 -12.88 -8.767 -37.312 -17.375 C-76.023 -29.091 -114.408 -17.038 -142.597 11.16 Z " fill="#F3F4F4" transform="translate(361,682)"/>
<path d="M0 0 C8.133 7.778 12.95 17.581 13.277 28.879 C13.113 41.122 8.246 50.946 0.156 59.875 C-7.826 67.592 -18.773 71.275 -29.707 71.156 C-41.954 70.136 -51.978 63.715 -60.312 55.016 C-63.071 51.595 -64.645 48.021 -66.035 43.879 C-66.259 43.232 -66.484 42.585 -66.715 41.918 C-69.716 31.845 -68.672 20.61 -63.676 11.363 C-56.241 -0.21 -46.267 -7.291 -33.098 -10.934 C-20.587 -11.7 -9.642 -8.073 0 0 Z M-54.848 6.754 C-61.822 15.346 -63.715 23.462 -62.816 34.586 C-61.072 45.236 -56.529 52.486 -47.91 58.961 C-38.242 65.411 -27.87 66.534 -16.512 64.406 C-7.125 61.308 -0.168 54.017 4.223 45.414 C7.771 36.965 8.755 27.163 5.715 18.379 C1.137 9.224 -5.872 0.975 -15.457 -3.168 C-30.211 -8.025 -44.289 -4.659 -54.848 6.754 Z " fill="#F5F5F5" transform="translate(320.03515625,730.12109375)"/>
<path d="M0 0 C-2.778 6.401 -2.778 6.401 -5.953 7.957 C-7.488 8.416 -9.029 8.855 -10.574 9.277 C-23.821 13.224 -32.824 24.021 -39.473 35.555 C-45.587 47.569 -45.42 61.76 -46 75 C-46.054 76.07 -46.108 77.14 -46.164 78.242 C-46.324 83.599 -46.226 87.484 -43 92 C-37.657 97.492 -33.178 98.157 -25.832 98.283 C-24.939 98.293 -24.045 98.303 -23.125 98.312 C-22.239 98.342 -21.354 98.371 -20.441 98.4 C-14.828 98.455 -11.261 98.033 -7 94 C-2.726 87.429 -3.44 79.665 -3.312 72.062 C-3.279 70.697 -3.245 69.332 -3.209 67.967 C-3.127 64.645 -3.058 61.323 -3 58 C-2.01 58 -1.02 58 0 58 C0.1 62.126 0.172 66.251 0.22 70.378 C0.24 71.778 0.267 73.179 0.302 74.579 C0.496 82.608 0.618 89.14 -4 96 C-11.52 103.144 -18.976 102.584 -28.824 102.367 C-34.904 102.061 -39.265 100.907 -44 97 C-49.65 90.695 -50.883 85.227 -50.727 76.938 C-50.728 75.391 -50.728 75.391 -50.73 73.812 C-50.725 71.644 -50.706 69.476 -50.672 67.308 C-50.625 64.009 -50.631 60.713 -50.645 57.414 C-50.633 55.297 -50.619 53.18 -50.602 51.062 C-50.603 50.087 -50.605 49.112 -50.607 48.107 C-50.473 41.58 -49.097 36.737 -46 31 C-45.566 30.188 -45.131 29.376 -44.684 28.539 C-37.317 17.223 -15.561 -5.414 0 0 Z " fill="#F6F6F6" transform="translate(501,57)"/>
<path d="M0 0 C-0.761 2.881 -1.253 4.655 -3 7 C-5.356 8.024 -7.693 8.547 -10.188 9.156 C-21.259 12.478 -30.529 21.692 -36.109 31.574 C-41.395 41.593 -43.349 50.602 -44.125 61.812 C-44.211 62.937 -44.298 64.062 -44.387 65.221 C-46.048 79.571 -46.048 79.571 -42 93 C-35.67 98.143 -30.412 98.208 -22.625 98.25 C-21.679 98.271 -20.733 98.291 -19.758 98.312 C-12.877 98.368 -12.877 98.368 -7 95 C-3.308 89.857 -2.875 85.495 -2.684 79.266 C-2.621 77.322 -2.621 77.322 -2.557 75.34 C-2.517 73.977 -2.477 72.613 -2.438 71.25 C-2.394 69.871 -2.351 68.492 -2.307 67.113 C-2.201 63.742 -2.099 60.371 -2 57 C-1.01 57 -0.02 57 1 57 C1.1 61.268 1.172 65.536 1.22 69.805 C1.24 71.254 1.267 72.703 1.302 74.152 C1.654 89.19 1.654 89.19 -3 96 C-6.193 99.312 -9.29 101.785 -14.034 102.161 C-16.564 102.207 -19.094 102.235 -21.625 102.25 C-22.49 102.271 -23.355 102.291 -24.246 102.312 C-31.028 102.353 -37.617 101.629 -43.121 97.352 C-43.773 96.497 -43.773 96.497 -44.438 95.625 C-44.89 95.06 -45.342 94.496 -45.809 93.914 C-49.348 88.228 -49.321 83.077 -49.336 76.547 C-49.343 75.532 -49.349 74.517 -49.356 73.472 C-49.366 71.327 -49.371 69.182 -49.371 67.037 C-49.375 63.775 -49.411 60.515 -49.449 57.254 C-49.455 55.164 -49.459 53.074 -49.461 50.984 C-49.475 50.018 -49.49 49.053 -49.504 48.057 C-49.461 41.521 -48.113 36.737 -45 31 C-44.331 29.764 -44.331 29.764 -43.648 28.504 C-37.496 19.125 -13.427 -6.713 0 0 Z " fill="#F9F9F9" transform="translate(573,57)"/>
<path d="M0 0 C1.009 0.052 2.017 0.104 3.057 0.158 C5.517 0.286 7.978 0.421 10.438 0.562 C8.949 2.559 8.949 2.559 6.438 4.562 C3.583 4.781 1.081 4.791 -1.75 4.625 C-30.606 3.876 -56.398 16.08 -77.125 35.688 C-94.308 53.283 -103.368 78.371 -104.188 102.688 C-104.246 104.122 -104.246 104.122 -104.305 105.586 C-104.398 107.911 -104.484 110.237 -104.562 112.562 C-104.893 112.562 -105.222 112.562 -105.562 112.562 C-105.893 107.942 -106.222 103.322 -106.562 98.562 C-107.222 98.562 -107.882 98.562 -108.562 98.562 C-108.788 92.533 -108.09 87.432 -106.5 81.625 C-106.278 80.805 -106.056 79.984 -105.828 79.139 C-100.789 61.217 -92.81 46.648 -80.562 32.562 C-80.046 31.949 -79.529 31.335 -78.996 30.703 C-59.796 9.648 -27.906 -1.607 0 0 Z " fill="#F2F2F2" transform="translate(297.5625,656.4375)"/>
<path d="M0 0 C0.99 0 1.98 0 3 0 C3.1 4.268 3.172 8.536 3.22 12.805 C3.24 14.254 3.267 15.703 3.302 17.152 C3.654 32.19 3.654 32.19 -1 39 C-4.193 42.312 -7.29 44.785 -12.034 45.161 C-14.564 45.207 -17.094 45.235 -19.625 45.25 C-20.49 45.271 -21.355 45.291 -22.246 45.312 C-29.028 45.353 -35.617 44.629 -41.121 40.352 C-41.556 39.782 -41.99 39.212 -42.438 38.625 C-42.89 38.06 -43.342 37.496 -43.809 36.914 C-49.331 28.043 -47.093 16.916 -46 7 C-45.67 7 -45.34 7 -45 7 C-44.67 8.65 -44.34 10.3 -44 12 C-43.67 12 -43.34 12 -43 12 C-43.035 13.062 -43.07 14.124 -43.105 15.219 C-43.538 26.013 -43.538 26.013 -40 36 C-33.67 41.143 -28.412 41.208 -20.625 41.25 C-19.679 41.271 -18.733 41.291 -17.758 41.312 C-10.877 41.368 -10.877 41.368 -5 38 C-1.308 32.857 -0.875 28.495 -0.684 22.266 C-0.621 20.322 -0.621 20.322 -0.557 18.34 C-0.517 16.977 -0.477 15.613 -0.438 14.25 C-0.394 12.871 -0.351 11.492 -0.307 10.113 C-0.201 6.742 -0.099 3.371 0 0 Z " fill="#F4F4F4" transform="translate(571,114)"/>
<path d="M0 0 C1.009 0.052 2.017 0.104 3.057 0.158 C5.517 0.286 7.978 0.421 10.438 0.562 C8.969 2.555 8.969 2.555 6.438 4.562 C3.477 4.805 0.876 4.843 -2.062 4.688 C-8.617 4.497 -14.629 4.784 -21.082 6.125 C-23.626 6.574 -25.985 6.637 -28.562 6.562 C-28.892 5.903 -29.223 5.242 -29.562 4.562 C-29.233 3.903 -28.902 3.242 -28.562 2.562 C-19.028 -0.332 -9.895 -0.57 0 0 Z " fill="#EEEDED" transform="translate(297.5625,656.4375)"/>
<path d="M0 0 C1.177 0.277 2.354 0.554 3.566 0.84 C16.728 3.783 29.53 4.787 43 5 C42.67 5.99 42.34 6.98 42 8 C28.432 9.328 12.616 10.308 0 4 C0 2.68 0 1.36 0 0 Z " fill="#F2F2F2" transform="translate(258,855)"/>
<path d="M0 0 C0.99 0 1.98 0 3 0 C3.05 4.323 3.086 8.646 3.11 12.97 C3.12 14.439 3.134 15.909 3.151 17.378 C3.175 19.496 3.187 21.613 3.195 23.73 C3.206 25.003 3.216 26.276 3.227 27.587 C3.009 30.858 2.415 33.07 1 36 C0.01 35.67 -0.98 35.34 -2 35 C-1.762 33.729 -1.762 33.729 -1.52 32.433 C-0.992 28.949 -0.793 25.591 -0.684 22.07 C-0.642 20.781 -0.6 19.492 -0.557 18.164 C-0.517 16.818 -0.477 15.471 -0.438 14.125 C-0.394 12.755 -0.351 11.385 -0.307 10.016 C-0.201 6.677 -0.099 3.339 0 0 Z " fill="#EEEEEE" transform="translate(571,114)"/>
<path d="M0 0 C2 1 2 1 3.25 3.75 C6.127 9.093 10.262 12.143 16 14 C16 14.99 16 15.98 16 17 C8.877 14.952 3.638 12.986 -0.312 6.375 C-2 3 -2 3 -2 1 C-1.34 0.67 -0.68 0.34 0 0 Z " fill="#ECECEC" transform="translate(453,142)"/>
<path d="M0 0 C7.26 0.33 14.52 0.66 22 1 C18 5 18 5 14.398 5.461 C13.057 5.453 11.716 5.424 10.375 5.375 C9.354 5.373 9.354 5.373 8.312 5.371 C3.282 5.282 3.282 5.282 1 3 C1.33 2.34 1.66 1.68 2 1 C1.34 0.67 0.68 0.34 0 0 Z " fill="#DDDCDD" transform="translate(286,656)"/>
<path d="M0 0 C7.59 0 15.18 0 23 0 C22.67 0.99 22.34 1.98 22 3 C18.709 3.225 15.418 3.427 12.125 3.625 C10.719 3.722 10.719 3.722 9.285 3.82 C7.941 3.898 7.941 3.898 6.57 3.977 C5.743 4.029 4.915 4.081 4.063 4.135 C2 4 2 4 0 2 C0 1.34 0 0.68 0 0 Z " fill="#E0DFE0" transform="translate(278,860)"/>
<path d="M0 0 C-1.208 1.976 -1.208 1.976 -3 4 C-5.177 4.454 -5.177 4.454 -7.668 4.391 C-8.561 4.378 -9.453 4.365 -10.373 4.352 C-11.302 4.318 -12.231 4.285 -13.188 4.25 C-14.128 4.232 -15.068 4.214 -16.037 4.195 C-18.359 4.148 -20.679 4.082 -23 4 C-20.921 1.687 -20.293 1.052 -17.109 0.488 C-16.001 0.43 -14.892 0.372 -13.75 0.312 C-12.596 0.248 -11.443 0.184 -10.254 0.117 C-6.827 -0.006 -3.428 -0.08 0 0 Z " fill="#FCFCFC" transform="translate(308,860)"/>
<path d="M0 0 C0.143 7.429 0.143 7.429 -1 11 C-1.639 11.103 -2.279 11.206 -2.938 11.312 C-3.958 11.653 -3.958 11.653 -5 12 C-5.33 12.99 -5.66 13.98 -6 15 C-7.479 12.043 -6.52 10.105 -5.75 6.938 C-5.497 5.853 -5.245 4.769 -4.984 3.652 C-4.66 2.777 -4.335 1.902 -4 1 C-1 0 -1 0 0 0 Z " fill="#E8E8E8" transform="translate(394,776)"/>
<path d="M0 0 C4.833 -0.083 9.237 0.047 14 1 C13.01 1.495 13.01 1.495 12 2 C11.67 2.66 11.34 3.32 11 4 C6.642 5.658 3.335 4.228 -1 3 C-0.67 2.01 -0.34 1.02 0 0 Z " fill="#EDEDED" transform="translate(305,658)"/>
<path d="M0 0 C1.32 0.33 2.64 0.66 4 1 C4 7.93 4 14.86 4 22 C3.67 22 3.34 22 3 22 C2.67 17.38 2.34 12.76 2 8 C1.34 8 0.68 8 0 8 C0 5.36 0 2.72 0 0 Z " fill="#DFDFDF" transform="translate(189,747)"/>
<path d="M0 0 C0.66 0 1.32 0 2 0 C3.005 3.015 3.103 5.042 3.062 8.188 C3.053 9.089 3.044 9.99 3.035 10.918 C3.024 11.605 3.012 12.292 3 13 C2.01 13.33 1.02 13.66 0 14 C0 9.38 0 4.76 0 0 Z " fill="#FAFAFA" transform="translate(189,755)"/>
<path d="M0 0 C3.63 0 7.26 0 11 0 C10.34 1.32 9.68 2.64 9 4 C5.625 4.125 5.625 4.125 2 4 C1.34 3.34 0.68 2.68 0 2 C0 1.34 0 0.68 0 0 Z " fill="#E6E7E7" transform="translate(277,657)"/>
<path d="M0 0 C0.66 0 1.32 0 2 0 C2 2.64 2 5.28 2 8 C1.34 8 0.68 8 0 8 C-0.66 8.66 -1.32 9.32 -2 10 C-2.195 3.945 -2.195 3.945 -2 2 C-1.34 1.34 -0.68 0.68 0 0 Z " fill="#F2F2F1" transform="translate(393,769)"/>
<path d="M0 0 C0.33 0.66 0.66 1.32 1 2 C-0.616 4.041 -2.286 6.041 -4 8 C-4.66 8 -5.32 8 -6 8 C-6.33 8.99 -6.66 9.98 -7 11 C-7.66 10.34 -8.32 9.68 -9 9 C-6.03 6.03 -3.06 3.06 0 0 Z " fill="#20201F" transform="translate(369,830)"/>
<path d="M0 0 C2.095 3.45 2.095 3.45 1.688 5.812 C1.347 6.895 1.347 6.895 1 8 C0.65 10.331 0.314 12.664 0 15 C-0.33 15 -0.66 15 -1 15 C-2.517 4.442 -2.517 4.442 0 0 Z " fill="#1C1C1C" transform="translate(260,744)"/>
<path d="M0 0 C1.32 0.33 2.64 0.66 4 1 C3.67 2.98 3.34 4.96 3 7 C2.01 7 1.02 7 0 7 C-0.99 7.495 -0.99 7.495 -2 8 C-1.34 5.36 -0.68 2.72 0 0 Z " fill="#E7E7E7" transform="translate(195,725)"/>
<path d="M0 0 C1.32 0.66 2.64 1.32 4 2 C1.03 3.32 -1.94 4.64 -5 6 C-5.33 5.01 -5.66 4.02 -6 3 C-3.25 1.375 -3.25 1.375 0 0 Z " fill="#171717" transform="translate(558,58)"/>
<path d="M0 0 C1.98 0 3.96 0 6 0 C6 0.66 6 1.32 6 2 C6.99 2.33 7.98 2.66 9 3 C7.02 3.33 5.04 3.66 3 4 C2.01 2.68 1.02 1.36 0 0 Z " fill="#F8F8F8" transform="translate(272,859)"/>
</svg>
