<?xml version="1.0" encoding="UTF-8"?>
<!-- Generator: visioncortex VTracer 0.6.4 -->
<svg version="1.1" xmlns="http://www.w3.org/2000/svg" width="1024" height="1024">
<path d="M0 0 C337.92 0 675.84 0 1024 0 C1024 337.92 1024 675.84 1024 1024 C686.08 1024 348.16 1024 0 1024 C0 686.08 0 348.16 0 0 Z " fill="#F9F9F9" transform="translate(0,0)"/>
<path d="M0 0 C1.033 -0.006 2.066 -0.011 3.131 -0.017 C5.306 -0.027 7.482 -0.033 9.658 -0.037 C12.932 -0.047 16.205 -0.078 19.479 -0.109 C35.576 -0.192 50.342 1.372 65.777 6.141 C67.196 6.577 67.196 6.577 68.643 7.022 C120.474 23.686 159.443 56.274 184.995 104.206 C201.044 135.635 207.187 170.759 196.715 204.828 C192.149 217.681 185.439 228.593 176.902 239.203 C176.143 240.201 175.384 241.199 174.602 242.227 C165.816 253.413 155.168 260.902 143.152 268.328 C119.665 282.905 105.61 305.579 98.902 332.203 C97.99 336.522 97.19 340.859 96.402 345.203 C92.451 366.933 85.527 385.341 70.902 402.203 C70.449 402.8 69.995 403.397 69.527 404.012 C50.388 428.677 9.616 443.256 -19.966 447.091 C-44.74 449.932 -69.756 448.486 -94.098 443.203 C-95.06 442.997 -96.022 442.79 -97.013 442.578 C-137.145 433.885 -175.068 419.517 -209.098 396.203 C-210.476 395.276 -211.855 394.351 -213.234 393.426 C-225.528 385.134 -237.301 376.404 -248.098 366.203 C-248.783 365.559 -249.469 364.914 -250.176 364.25 C-254.74 359.829 -258.767 355.079 -262.742 350.125 C-265.171 347.112 -267.661 344.158 -270.16 341.203 C-274.742 335.713 -278.975 330.042 -283.098 324.203 C-283.693 323.382 -284.289 322.561 -284.902 321.715 C-292.543 311.069 -298.417 299.875 -303.535 287.828 C-303.815 287.175 -304.095 286.522 -304.383 285.849 C-315.365 260.18 -324.618 234.023 -328.098 206.203 C-328.282 204.91 -328.466 203.617 -328.656 202.285 C-332.903 167.74 -325.688 125.684 -304.145 97.711 C-283.963 72.985 -256.032 55.688 -224.098 51.203 C-218.83 50.981 -213.557 51.01 -208.285 51.016 C-207.166 51.015 -207.166 51.015 -206.025 51.013 C-197.923 51.014 -189.882 51.032 -181.848 52.203 C-149.606 56.8 -121.495 49.396 -94.848 31.328 C-81.397 22.214 -67.328 14.858 -52.098 9.203 C-51.457 8.962 -50.817 8.721 -50.157 8.473 C-33.903 2.439 -17.282 0.076 0 0 Z " fill="#67A8FE" transform="translate(574.09765625,258.796875)"/>
<path d="M0 0 C1.557 -0.004 3.113 -0.01 4.67 -0.015 C8.873 -0.029 13.075 -0.029 17.278 -0.027 C20.799 -0.026 24.32 -0.031 27.841 -0.036 C36.155 -0.047 44.469 -0.047 52.783 -0.041 C61.331 -0.035 69.879 -0.047 78.427 -0.069 C85.792 -0.086 93.157 -0.092 100.522 -0.089 C104.909 -0.087 109.296 -0.09 113.683 -0.104 C117.813 -0.116 121.942 -0.114 126.072 -0.101 C127.577 -0.099 129.083 -0.102 130.588 -0.11 C147.815 -0.198 162.728 2.9 175.384 15.275 C175.384 15.935 175.384 16.595 175.384 17.275 C176.044 17.275 176.704 17.275 177.384 17.275 C178.567 18.63 178.567 18.63 179.821 20.462 C180.232 21.054 180.643 21.646 181.067 22.255 C181.719 23.255 181.719 23.255 182.384 24.275 C182.861 24.991 183.339 25.708 183.831 26.446 C189.75 37.229 189.965 49.951 189.869 61.927 C189.872 63.522 189.875 65.118 189.881 66.713 C189.89 70.991 189.875 75.269 189.855 79.548 C189.837 84.048 189.841 88.549 189.842 93.05 C189.84 100.594 189.823 108.139 189.795 115.683 C189.764 124.39 189.753 133.097 189.755 141.804 C189.756 151.111 189.742 160.417 189.724 169.724 C189.719 172.393 189.718 175.062 189.717 177.731 C189.715 181.927 189.703 186.123 189.683 190.319 C189.677 191.854 189.675 193.389 189.676 194.924 C189.683 210.82 186.876 222.314 175.618 234.087 C166.965 242.559 155.389 246.351 143.384 247.275 C142.394 247.605 141.404 247.935 140.384 248.275 C138.371 248.368 136.356 248.401 134.342 248.402 C133.078 248.404 131.815 248.407 130.513 248.41 C129.111 248.408 127.708 248.406 126.305 248.404 C124.83 248.405 123.355 248.407 121.88 248.409 C117.872 248.414 113.864 248.412 109.856 248.409 C105.666 248.406 101.476 248.409 97.287 248.41 C90.251 248.412 83.216 248.41 76.18 248.405 C68.038 248.4 59.897 248.401 51.755 248.407 C44.772 248.411 37.788 248.412 30.805 248.409 C26.631 248.408 22.457 248.408 18.283 248.411 C14.36 248.414 10.438 248.412 6.515 248.406 C5.073 248.405 3.63 248.405 2.188 248.407 C0.225 248.41 -1.738 248.406 -3.702 248.402 C-4.802 248.401 -5.902 248.401 -7.036 248.4 C-9.616 248.275 -9.616 248.275 -11.616 247.275 C-13.407 247.17 -15.199 247.091 -16.991 247.025 C-23.917 246.494 -29.425 244.311 -35.616 241.275 C-36.444 240.88 -37.272 240.486 -38.124 240.079 C-48.346 234.847 -55.503 225.99 -59.616 215.275 C-62.39 205.369 -63.056 195.821 -63.021 185.587 C-63.026 184.071 -63.033 182.555 -63.041 181.038 C-63.059 176.964 -63.058 172.89 -63.052 168.815 C-63.049 165.396 -63.055 161.977 -63.061 158.558 C-63.075 150.484 -63.074 142.411 -63.062 134.337 C-63.051 126.045 -63.065 117.753 -63.092 109.46 C-63.114 102.304 -63.121 95.148 -63.115 87.992 C-63.111 83.734 -63.114 79.476 -63.131 75.218 C-63.147 71.212 -63.142 67.206 -63.124 63.201 C-63.12 61.742 -63.123 60.284 -63.134 58.826 C-63.247 41.892 -59.234 28.21 -47.741 15.65 C-43.37 11.445 -38.959 8.45 -33.554 5.712 C-32.918 5.39 -32.282 5.067 -31.627 4.735 C-21.503 -0.019 -10.975 -0.02 0 0 Z " fill="#498BFE" transform="translate(407.616455078125,363.725341796875)"/>
<path d="M0 0 C4.71 1.625 8.599 4.186 12.75 6.875 C18.346 10.446 23.8 13.564 30 16 C30 16.66 30 17.32 30 18 C30.804 18.247 31.609 18.495 32.438 18.75 C44.489 22.979 44.489 22.979 46 26 C42.31 25.404 39.395 24.374 36.078 22.664 C35.142 22.182 34.207 21.7 33.243 21.203 C32.255 20.682 31.268 20.161 30.25 19.625 C29.235 19.093 28.221 18.561 27.175 18.012 C20.661 14.545 14.322 10.882 8.125 6.875 C7.412 6.414 6.7 5.954 5.966 5.479 C1.137 2.275 1.137 2.275 0 0 Z " fill="#4482FE" transform="translate(364,653)"/>
<path d="M0 0 C0.66 0.33 1.32 0.66 2 1 C-3.902 5.51 -10.077 9.273 -16.625 12.75 C-17.681 13.314 -17.681 13.314 -18.758 13.89 C-23.399 16.315 -28.007 18.403 -33 20 C-33.99 19.67 -34.98 19.34 -36 19 C-33.03 18.01 -30.06 17.02 -27 16 C-27 15.34 -27 14.68 -27 14 C-26.299 13.897 -25.597 13.794 -24.875 13.688 C-21.612 12.907 -18.978 11.522 -16 10 C-15.34 10 -14.68 10 -14 10 C-14 9.34 -14 8.68 -14 8 C-12.987 7.511 -12.987 7.511 -11.953 7.012 C-11.061 6.575 -10.169 6.138 -9.25 5.688 C-7.927 5.044 -7.927 5.044 -6.578 4.387 C-4.184 3.099 -2.122 1.691 0 0 Z " fill="#468BFE" transform="translate(626,675)"/>
<path d="M0 0 C3.63 0.66 7.26 1.32 11 2 C11 2.66 11 3.32 11 4 C12.547 4.186 12.547 4.186 14.125 4.375 C17.621 4.939 20.684 5.787 24 7 C19.578 8.397 16.26 7.111 12 5.688 C10.933 5.348 10.933 5.348 9.844 5.002 C6.427 3.896 3.146 2.745 0 1 C0 0.67 0 0.34 0 0 Z " fill="#4684FE" transform="translate(431,687)"/>
<path d="M0 0 C2.354 -0.055 4.708 -0.094 7.062 -0.125 C9.029 -0.16 9.029 -0.16 11.035 -0.195 C15.118 0.006 18.15 0.728 22 2 C22 2.33 22 2.66 22 3 C14.316 3.214 7.437 3.017 0 1 C0 0.67 0 0.34 0 0 Z " fill="#4787FE" transform="translate(487,702)"/>
</svg>
