<?xml version="1.0" encoding="UTF-8"?>
<!-- Generator: visioncortex VTracer 0.6.4 -->
<svg version="1.1" xmlns="http://www.w3.org/2000/svg" width="1024" height="1024">
<path d="M0 0 C337.92 0 675.84 0 1024 0 C1024 337.92 1024 675.84 1024 1024 C686.08 1024 348.16 1024 0 1024 C0 686.08 0 348.16 0 0 Z " fill="#000000" transform="translate(0,0)"/>
<path d="M0 0 C3.458 -0.002 6.915 -0.02 10.372 -0.039 C27.157 -0.084 42.778 1.312 59.218 4.873 C61.021 5.263 61.021 5.263 62.86 5.66 C73.707 8.087 84.123 11.308 94.531 15.185 C95.773 15.645 95.773 15.645 97.04 16.113 C104.452 18.873 111.739 21.676 118.775 25.305 C120.975 26.408 123.228 27.322 125.531 28.185 C125.531 28.845 125.531 29.505 125.531 30.185 C126.395 30.444 127.26 30.704 128.152 30.97 C131.594 32.208 134.46 33.743 137.593 35.623 C139.095 36.518 139.095 36.518 140.628 37.431 C141.586 38.01 142.544 38.589 143.531 39.185 C144.478 39.713 145.425 40.24 146.402 40.783 C147.104 41.246 147.807 41.709 148.531 42.185 C148.531 42.845 148.531 43.505 148.531 44.185 C150.181 44.515 151.831 44.845 153.531 45.185 C153.531 45.845 153.531 46.505 153.531 47.185 C154.129 47.474 154.727 47.763 155.343 48.06 C157.531 49.185 157.531 49.185 160.531 51.185 C160.531 51.845 160.531 52.505 160.531 53.185 C161.252 53.247 161.974 53.309 162.718 53.373 C166.39 54.434 167.925 56.446 170.531 59.185 C171.856 59.868 173.189 60.536 174.531 61.185 C176.781 63.185 176.781 63.185 178.531 65.185 C178.531 65.845 178.531 66.505 178.531 67.185 C179.17 67.288 179.809 67.392 180.468 67.498 C181.489 67.838 181.489 67.838 182.531 68.185 C182.861 69.175 183.191 70.165 183.531 71.185 C184.863 71.853 186.197 72.52 187.531 73.185 C193.982 79.054 199.94 85.496 205.531 92.185 C206.331 93.131 207.132 94.078 207.956 95.052 C214.531 102.925 214.531 102.925 214.531 105.185 C215.191 105.185 215.851 105.185 216.531 105.185 C218.245 107.339 219.837 109.491 221.406 111.748 C221.84 112.357 222.274 112.966 222.722 113.594 C230.531 124.673 230.531 124.673 230.531 128.185 C231.521 128.515 232.511 128.845 233.531 129.185 C234.889 131.525 236.071 133.807 237.218 136.248 C237.921 137.7 238.624 139.152 239.327 140.603 C239.688 141.355 240.048 142.107 240.419 142.882 C242.227 146.629 244.1 150.343 245.968 154.06 C246.634 155.391 247.299 156.722 247.964 158.052 C248.739 159.603 248.739 159.603 249.531 161.185 C249.861 161.845 250.191 162.505 250.531 163.185 C251.521 162.855 252.511 162.525 253.531 162.185 C253.531 161.525 253.531 160.865 253.531 160.185 C254.149 160.123 254.768 160.062 255.406 159.998 C256.107 159.73 256.808 159.462 257.531 159.185 C257.778 158.484 258.026 157.783 258.281 157.06 C259.899 153.339 262.265 151.57 265.363 149.029 C267.894 146.876 270.208 144.556 272.531 142.185 C275.754 138.909 278.985 135.64 282.218 132.373 C283.085 131.489 283.952 130.605 284.845 129.695 C285.673 128.86 286.501 128.026 287.355 127.166 C288.108 126.402 288.862 125.637 289.639 124.85 C291.531 123.185 291.531 123.185 293.531 123.185 C293.531 122.525 293.531 121.865 293.531 121.185 C294.191 121.185 294.851 121.185 295.531 121.185 C295.757 120.278 295.984 119.37 296.218 118.435 C297.747 114.65 299.294 113.574 302.531 111.185 C303.191 110.319 303.851 109.453 304.531 108.56 C306.763 105.909 308.379 105.429 311.531 104.185 C312.581 102.336 312.581 102.336 313.531 100.185 C316.031 97.435 316.031 97.435 318.531 95.185 C319.191 95.185 319.851 95.185 320.531 95.185 C320.531 94.525 320.531 93.865 320.531 93.185 C321.191 93.185 321.851 93.185 322.531 93.185 C322.935 92.295 322.935 92.295 323.347 91.387 C325.261 87.826 328.121 85.267 330.968 82.435 C331.554 81.833 332.14 81.231 332.743 80.611 C333.311 80.043 333.879 79.474 334.464 78.888 C335.238 78.11 335.238 78.11 336.028 77.315 C337.531 76.185 337.531 76.185 340.531 76.185 C340.531 75.525 340.531 74.865 340.531 74.185 C341.521 74.185 342.511 74.185 343.531 74.185 C345.656 80.935 345.656 80.935 344.531 83.185 C345.191 83.185 345.851 83.185 346.531 83.185 C349.124 90.318 350.857 97.541 352.542 104.927 C353.619 109.636 354.849 114.301 356.113 118.963 C356.531 121.185 356.531 121.185 355.531 123.185 C356.191 123.185 356.851 123.185 357.531 123.185 C357.861 126.485 358.191 129.785 358.531 133.185 C359.191 133.185 359.851 133.185 360.531 133.185 C361.207 135.558 361.872 137.933 362.531 140.31 C362.817 141.308 362.817 141.308 363.109 142.326 C364.223 146.384 364.74 149.982 364.531 154.185 C365.191 154.185 365.851 154.185 366.531 154.185 C366.201 155.505 365.871 156.825 365.531 158.185 C366.191 158.185 366.851 158.185 367.531 158.185 C368.656 162.935 368.656 162.935 367.531 165.185 C368.191 165.185 368.851 165.185 369.531 165.185 C369.784 166.236 370.038 167.286 370.3 168.369 C372.105 175.759 374.015 182.999 376.531 190.185 C377.599 194.086 378.239 198.059 378.933 202.041 C379.13 202.748 379.327 203.456 379.531 204.185 C380.191 204.515 380.851 204.845 381.531 205.185 C381.438 206.423 381.438 206.423 381.343 207.685 C381.53 211.171 382.368 213.763 383.671 216.978 C386.918 225.317 388.995 234.21 391.37 242.826 C391.711 244.062 392.052 245.298 392.404 246.572 C392.666 247.526 392.666 247.526 392.935 248.499 C393.463 250.417 393.992 252.334 394.521 254.252 C399.192 271.195 399.192 271.195 400.531 276.185 C400.723 276.862 400.914 277.539 401.112 278.237 C401.531 280.185 401.531 280.185 401.531 284.185 C402.191 284.185 402.851 284.185 403.531 284.185 C405.656 291.81 405.656 291.81 404.531 295.185 C405.191 295.185 405.851 295.185 406.531 295.185 C406.904 297.028 406.904 297.028 407.284 298.908 C408.625 304.938 410.546 310.758 412.468 316.623 C413.829 320.808 415.186 324.995 416.531 329.185 C416.821 330.091 417.112 330.996 417.411 331.929 C418.959 336.896 420.06 341.649 420.718 346.81 C420.956 348.624 420.956 348.624 421.198 350.474 C421.308 351.369 421.418 352.264 421.531 353.185 C422.191 353.185 422.851 353.185 423.531 353.185 C424.678 357.079 425.817 360.975 426.948 364.874 C427.334 366.198 427.722 367.522 428.113 368.845 C428.675 370.752 429.228 372.662 429.781 374.572 C430.116 375.719 430.451 376.866 430.796 378.047 C431.465 380.904 431.683 383.27 431.531 386.185 C432.191 386.185 432.851 386.185 433.531 386.185 C433.735 387.173 433.94 388.16 434.152 389.177 C434.556 391.099 434.556 391.099 434.968 393.06 C435.368 394.975 435.368 394.975 435.777 396.927 C436.365 400.05 436.365 400.05 437.531 402.185 C437.201 402.845 436.871 403.505 436.531 404.185 C437.191 404.185 437.851 404.185 438.531 404.185 C440.499 410.008 441.933 415.019 441.531 421.185 C442.191 421.185 442.851 421.185 443.531 421.185 C443.861 424.485 444.191 427.785 444.531 431.185 C445.191 431.185 445.851 431.185 446.531 431.185 C447.591 435.159 448.198 439.177 448.835 443.236 C449.507 446.085 450.547 448.531 451.741 451.193 C453.29 455.104 454.136 459.223 455.093 463.31 C456.303 468.425 457.479 473.331 459.531 478.185 C459.675 479.175 459.819 480.165 459.968 481.185 C460.351 484.237 460.351 484.237 462.093 486.685 C463.841 489.725 463.607 491.738 463.531 495.185 C464.191 495.845 464.851 496.505 465.531 497.185 C466.128 499.314 466.128 499.314 466.593 501.748 C466.995 504.753 466.995 504.753 468.531 507.185 C468.514 507.936 468.497 508.686 468.48 509.459 C468.535 512.41 469.147 514.133 470.343 516.81 C472.911 522.906 475.531 529.504 475.531 536.185 C476.191 536.185 476.851 536.185 477.531 536.185 C477.685 537.608 477.685 537.608 477.843 539.06 C478.28 542.236 479.105 545.138 480.093 548.185 C481.42 552.399 481.817 555.791 481.531 560.185 C482.191 560.185 482.851 560.185 483.531 560.185 C483.861 563.155 484.191 566.125 484.531 569.185 C485.191 569.185 485.851 569.185 486.531 569.185 C486.861 572.485 487.191 575.785 487.531 579.185 C488.191 579.185 488.851 579.185 489.531 579.185 C490.035 581.289 490.534 583.393 491.031 585.498 C491.448 587.255 491.448 587.255 491.874 589.049 C492.531 592.185 492.531 592.185 492.531 595.185 C493.191 595.185 493.851 595.185 494.531 595.185 C494.64 595.898 494.75 596.611 494.863 597.345 C495.811 603.075 497.163 607.858 499.531 613.185 C499.895 614.657 500.227 616.137 500.531 617.623 C501.283 621.297 502.364 624.644 503.73 628.131 C504.625 630.427 505.467 632.734 506.281 635.06 C506.675 636.17 506.675 636.17 507.077 637.302 C507.531 639.185 507.531 639.185 506.531 641.185 C507.191 641.185 507.851 641.185 508.531 641.185 C508.861 645.145 509.191 649.105 509.531 653.185 C510.191 653.185 510.851 653.185 511.531 653.185 C521.931 681.198 521.931 681.198 521.531 693.185 C520.094 693.241 518.656 693.279 517.218 693.31 C516.418 693.334 515.617 693.357 514.792 693.381 C505.634 692.832 496.748 690.296 487.906 687.998 C477.12 685.245 466.301 682.777 455.406 680.498 C454.697 680.349 453.988 680.201 453.257 680.048 C450.501 679.472 447.745 678.897 444.988 678.323 C434.014 676.041 423.098 673.574 412.206 670.925 C411.117 670.66 410.028 670.396 408.906 670.123 C407.83 669.861 406.754 669.6 405.646 669.33 C399.775 667.917 393.914 666.613 387.968 665.56 C382.346 664.56 376.85 663.311 371.322 661.883 C364.402 660.114 357.438 658.552 350.468 656.998 C349.302 656.736 348.135 656.474 346.934 656.204 C340.146 654.687 340.146 654.687 333.284 653.572 C330.531 653.185 330.531 653.185 329.531 652.185 C327.202 651.818 324.869 651.483 322.531 651.185 C322.531 650.525 322.531 649.865 322.531 649.185 C321.985 649.372 321.439 649.56 320.877 649.752 C317.929 650.296 315.894 649.804 312.98 649.111 C311.897 648.858 310.814 648.604 309.698 648.343 C307.976 647.925 307.976 647.925 306.218 647.498 C305.035 647.218 303.853 646.939 302.634 646.65 C296.715 645.239 290.829 643.757 284.968 642.123 C275.218 639.439 265.259 637.673 255.34 635.736 C247.136 634.128 239.029 632.349 230.968 630.123 C226.491 628.904 222.125 627.888 217.531 627.248 C201.887 625.054 186.458 620.999 171.131 617.241 C166.576 616.129 162.028 615.062 157.425 614.166 C151.566 613.025 145.809 611.531 140.031 610.041 C135.013 608.763 129.992 607.657 124.91 606.668 C121.399 605.956 117.936 605.081 114.468 604.185 C106.599 602.165 98.687 600.426 90.738 598.748 C89.53 598.493 88.323 598.237 87.079 597.974 C84.577 597.446 82.075 596.92 79.572 596.396 C77.767 596.013 77.767 596.013 75.925 595.623 C74.299 595.281 74.299 595.281 72.639 594.931 C69.531 594.185 69.531 594.185 66.318 593.095 C63.544 592.03 63.544 592.03 60.531 592.185 C60.531 591.525 60.531 590.865 60.531 590.185 C59.541 590.515 58.551 590.845 57.531 591.185 C55.369 590.808 53.223 590.337 51.093 589.81 C49.96 589.534 48.827 589.259 47.659 588.974 C46.111 588.584 46.111 588.584 44.531 588.185 C43.851 588.016 43.172 587.848 42.472 587.674 C40.936 587.287 39.401 586.895 37.866 586.502 C31.452 584.868 25.036 583.409 18.531 582.185 C18.531 581.525 18.531 580.865 18.531 580.185 C17.624 580.136 16.718 580.087 15.784 580.037 C8.822 579.61 2.286 578.932 -4.469 577.185 C-4.469 576.525 -4.469 575.865 -4.469 575.185 C-5.459 575.515 -6.449 575.845 -7.469 576.185 C-9.694 575.861 -11.905 575.436 -14.102 574.963 C-14.763 574.822 -15.423 574.682 -16.103 574.537 C-18.269 574.073 -20.432 573.598 -22.594 573.123 C-24.098 572.798 -25.602 572.474 -27.106 572.151 C-35.969 570.232 -44.79 568.172 -53.594 565.998 C-63.19 563.633 -72.798 561.803 -82.544 560.185 C-89.12 559.091 -95.671 557.87 -102.219 556.623 C-103.278 556.425 -104.337 556.227 -105.428 556.023 C-110.521 555.047 -115.591 553.988 -120.63 552.763 C-121.52 552.55 -122.411 552.336 -123.329 552.116 C-125.469 551.185 -125.469 551.185 -126.596 549.45 C-127.157 547.498 -127.157 547.498 -127.469 544.185 C-121.184 538.757 -121.184 538.757 -117.469 537.185 C-117.469 536.525 -117.469 535.865 -117.469 535.185 C-116.809 535.185 -116.149 535.185 -115.469 535.185 C-115.201 534.381 -114.933 533.577 -114.657 532.748 C-114.265 531.902 -113.873 531.057 -113.469 530.185 C-112.479 529.855 -111.489 529.525 -110.469 529.185 C-110.139 528.525 -109.809 527.865 -109.469 527.185 C-108.809 527.185 -108.149 527.185 -107.469 527.185 C-107.139 525.865 -106.809 524.545 -106.469 523.185 C-105.809 523.185 -105.149 523.185 -104.469 523.185 C-103.809 521.865 -103.149 520.545 -102.469 519.185 C-101.809 519.185 -101.149 519.185 -100.469 519.185 C-100.469 517.865 -100.469 516.545 -100.469 515.185 C-98.814 514.167 -97.147 513.167 -95.469 512.185 C-94.777 510.144 -94.777 510.144 -94.469 508.185 C-95.413 507.75 -96.357 507.314 -97.329 506.865 C-116.495 497.989 -135.41 488.741 -152.469 476.185 C-153.112 475.718 -153.754 475.251 -154.415 474.77 C-173.323 460.999 -191.39 444.979 -205.469 426.185 C-206.011 425.476 -206.552 424.767 -207.11 424.037 C-210.469 419.515 -210.469 419.515 -210.469 417.185 C-211.129 417.185 -211.789 417.185 -212.469 417.185 C-213.703 415.6 -213.703 415.6 -215.079 413.381 C-215.583 412.575 -216.088 411.769 -216.607 410.938 C-217.139 410.071 -217.671 409.204 -218.219 408.31 C-218.764 407.432 -219.309 406.554 -219.871 405.649 C-220.942 403.919 -222.01 402.187 -223.075 400.453 C-224.144 398.715 -225.226 396.986 -226.313 395.26 C-233.963 382.956 -239.779 369.864 -244.469 356.185 C-244.784 355.287 -245.099 354.389 -245.423 353.463 C-254.996 325.936 -259.868 298.043 -259.73 268.927 C-259.72 266.253 -259.73 263.58 -259.743 260.906 C-259.752 249.214 -258.925 237.782 -257.469 226.185 C-257.314 224.891 -257.159 223.597 -256.999 222.264 C-254.438 201.587 -247.982 180.159 -239.469 161.185 C-238.74 159.331 -238.011 157.477 -237.282 155.623 C-231.791 142.488 -224.766 129.936 -216.799 118.153 C-215.216 115.81 -213.653 113.454 -212.087 111.099 C-210.903 109.336 -209.718 107.573 -208.532 105.81 C-207.964 104.958 -207.396 104.106 -206.81 103.228 C-206.276 102.443 -205.742 101.658 -205.192 100.849 C-204.477 99.789 -204.477 99.789 -203.747 98.707 C-203.325 98.205 -202.904 97.703 -202.469 97.185 C-201.809 97.185 -201.149 97.185 -200.469 97.185 C-200.16 96.567 -199.851 95.948 -199.532 95.31 C-198.844 93.935 -198.157 92.56 -197.469 91.185 C-196.809 91.185 -196.149 91.185 -195.469 91.185 C-195.196 90.595 -194.923 90.005 -194.641 89.396 C-187.816 76.519 -172.853 64.952 -161.469 56.185 C-160.682 55.565 -159.894 54.945 -159.083 54.306 C-153.757 50.185 -153.757 50.185 -151.469 50.185 C-151.469 49.525 -151.469 48.865 -151.469 48.185 C-149.463 46.616 -147.47 45.205 -145.344 43.81 C-144.359 43.159 -144.359 43.159 -143.353 42.495 C-126.129 31.354 -107.701 22.264 -88.469 15.185 C-87.37 14.774 -86.27 14.363 -85.137 13.939 C-58.82 4.284 -58.82 4.284 -47.469 5.185 C-47.469 4.525 -47.469 3.865 -47.469 3.185 C-31.97 -0.571 -15.84 -0.001 0 0 Z " fill="#E23788" transform="translate(411.469482421875,204.814697265625)"/>
<path d="M0 0 C3.458 -0.002 6.915 -0.02 10.372 -0.039 C27.157 -0.084 42.778 1.312 59.218 4.873 C61.021 5.263 61.021 5.263 62.86 5.66 C73.707 8.087 84.123 11.308 94.531 15.185 C95.773 15.645 95.773 15.645 97.04 16.113 C104.452 18.873 111.739 21.676 118.775 25.305 C120.975 26.408 123.228 27.322 125.531 28.185 C125.531 28.845 125.531 29.505 125.531 30.185 C126.395 30.444 127.26 30.704 128.152 30.97 C131.594 32.208 134.46 33.743 137.593 35.623 C139.095 36.518 139.095 36.518 140.628 37.431 C141.586 38.01 142.544 38.589 143.531 39.185 C144.478 39.713 145.425 40.24 146.402 40.783 C147.104 41.246 147.807 41.709 148.531 42.185 C148.531 42.845 148.531 43.505 148.531 44.185 C150.181 44.515 151.831 44.845 153.531 45.185 C153.531 45.845 153.531 46.505 153.531 47.185 C154.129 47.474 154.727 47.763 155.343 48.06 C157.531 49.185 157.531 49.185 160.531 51.185 C160.531 51.845 160.531 52.505 160.531 53.185 C161.252 53.247 161.974 53.309 162.718 53.373 C166.39 54.434 167.925 56.446 170.531 59.185 C171.856 59.868 173.189 60.536 174.531 61.185 C176.781 63.185 176.781 63.185 178.531 65.185 C178.531 65.845 178.531 66.505 178.531 67.185 C179.17 67.288 179.809 67.392 180.468 67.498 C181.489 67.838 181.489 67.838 182.531 68.185 C182.861 69.175 183.191 70.165 183.531 71.185 C184.863 71.853 186.197 72.52 187.531 73.185 C193.982 79.054 199.94 85.496 205.531 92.185 C206.331 93.131 207.132 94.078 207.956 95.052 C214.531 102.925 214.531 102.925 214.531 105.185 C215.191 105.185 215.851 105.185 216.531 105.185 C218.245 107.339 219.837 109.491 221.406 111.748 C221.84 112.357 222.274 112.966 222.722 113.594 C230.531 124.673 230.531 124.673 230.531 128.185 C231.521 128.515 232.511 128.845 233.531 129.185 C234.889 131.525 236.071 133.807 237.218 136.248 C237.921 137.7 238.624 139.152 239.327 140.603 C239.688 141.355 240.048 142.107 240.419 142.882 C242.227 146.629 244.1 150.343 245.968 154.06 C246.634 155.391 247.299 156.722 247.964 158.052 C248.739 159.603 248.739 159.603 249.531 161.185 C249.861 161.845 250.191 162.505 250.531 163.185 C251.191 163.515 251.851 163.845 252.531 164.185 C252.082 164.628 251.634 165.071 251.173 165.527 C249.102 167.577 247.035 169.631 244.968 171.685 C244.264 172.381 243.559 173.077 242.833 173.795 C242.134 174.491 241.435 175.187 240.714 175.904 C240.08 176.532 239.447 177.161 238.794 177.808 C236.911 179.786 235.129 181.798 233.349 183.867 C229.774 187.961 226.021 191.83 222.168 195.661 C221.461 196.369 220.753 197.077 220.024 197.806 C217.674 200.155 215.32 202.501 212.966 204.847 C211.272 206.54 209.578 208.232 207.884 209.925 C203.773 214.033 199.659 218.138 195.545 222.242 C190.747 227.03 185.952 231.82 181.157 236.611 C172.597 245.164 164.036 253.714 155.473 262.263 C154.706 263.029 154.706 263.029 153.923 263.811 C149.773 267.954 145.622 272.098 141.472 276.241 C137.844 279.863 134.216 283.485 130.588 287.108 C130.077 287.618 129.566 288.128 129.039 288.654 C120.507 297.172 111.976 305.693 103.447 314.215 C98.665 318.993 93.882 323.771 89.096 328.545 C84.596 333.034 80.098 337.526 75.602 342.019 C73.954 343.665 72.306 345.31 70.657 346.953 C68.4 349.203 66.146 351.456 63.893 353.709 C63.245 354.354 62.597 354.998 61.929 355.662 C58.192 359.408 54.664 363.278 51.204 367.281 C48.726 370.101 46.114 372.773 43.472 375.438 C42.905 376.014 42.338 376.589 41.753 377.183 C39.878 379.086 37.998 380.985 36.119 382.885 C34.763 384.259 33.407 385.633 32.051 387.007 C19.746 399.47 7.403 411.898 -4.948 424.316 C-14.072 433.49 -23.177 442.682 -32.26 451.897 C-38.658 458.385 -45.077 464.851 -51.512 471.303 C-55.352 475.155 -59.182 479.015 -62.99 482.899 C-66.566 486.546 -70.167 490.167 -73.79 493.768 C-75.115 495.094 -76.43 496.43 -77.736 497.776 C-79.519 499.611 -81.332 501.41 -83.157 503.203 C-83.667 503.744 -84.177 504.285 -84.702 504.843 C-86.211 506.283 -86.211 506.283 -89.469 508.185 C-95.399 507.948 -101.01 505.367 -106.344 502.935 C-107.037 502.625 -107.73 502.315 -108.444 501.996 C-114.287 499.344 -119.903 496.377 -125.469 493.185 C-126.568 492.579 -127.666 491.974 -128.798 491.349 C-137.043 486.778 -144.84 481.735 -152.469 476.185 C-153.441 475.481 -153.441 475.481 -154.433 474.761 C-173.333 460.992 -191.395 444.973 -205.469 426.185 C-206.011 425.476 -206.552 424.767 -207.11 424.037 C-210.469 419.515 -210.469 419.515 -210.469 417.185 C-211.129 417.185 -211.789 417.185 -212.469 417.185 C-213.703 415.6 -213.703 415.6 -215.079 413.381 C-215.583 412.575 -216.088 411.769 -216.607 410.938 C-217.139 410.071 -217.671 409.204 -218.219 408.31 C-218.764 407.432 -219.309 406.554 -219.871 405.649 C-220.942 403.919 -222.01 402.187 -223.075 400.453 C-224.144 398.715 -225.226 396.986 -226.313 395.26 C-233.963 382.956 -239.779 369.864 -244.469 356.185 C-244.784 355.287 -245.099 354.389 -245.423 353.463 C-254.996 325.936 -259.868 298.043 -259.73 268.927 C-259.72 266.253 -259.73 263.58 -259.743 260.906 C-259.752 249.214 -258.925 237.782 -257.469 226.185 C-257.314 224.891 -257.159 223.597 -256.999 222.264 C-254.438 201.587 -247.982 180.159 -239.469 161.185 C-238.74 159.331 -238.011 157.477 -237.282 155.623 C-231.791 142.488 -224.766 129.936 -216.799 118.153 C-215.216 115.81 -213.653 113.454 -212.087 111.099 C-210.903 109.336 -209.718 107.573 -208.532 105.81 C-207.964 104.958 -207.396 104.106 -206.81 103.228 C-206.276 102.443 -205.742 101.658 -205.192 100.849 C-204.477 99.789 -204.477 99.789 -203.747 98.707 C-203.325 98.205 -202.904 97.703 -202.469 97.185 C-201.809 97.185 -201.149 97.185 -200.469 97.185 C-200.16 96.567 -199.851 95.948 -199.532 95.31 C-198.844 93.935 -198.157 92.56 -197.469 91.185 C-196.809 91.185 -196.149 91.185 -195.469 91.185 C-195.196 90.595 -194.923 90.005 -194.641 89.396 C-187.816 76.519 -172.853 64.952 -161.469 56.185 C-160.682 55.565 -159.894 54.945 -159.083 54.306 C-153.757 50.185 -153.757 50.185 -151.469 50.185 C-151.469 49.525 -151.469 48.865 -151.469 48.185 C-149.463 46.616 -147.47 45.205 -145.344 43.81 C-144.359 43.159 -144.359 43.159 -143.353 42.495 C-126.129 31.354 -107.701 22.264 -88.469 15.185 C-87.37 14.774 -86.27 14.363 -85.137 13.939 C-58.82 4.284 -58.82 4.284 -47.469 5.185 C-47.469 4.525 -47.469 3.865 -47.469 3.185 C-31.97 -0.571 -15.84 -0.001 0 0 Z " fill="#12AFE9" transform="translate(411.469482421875,204.814697265625)"/>
<path d="M0 0 C3.22 2.146 3.494 2.596 4.648 6.051 C4.929 6.884 5.21 7.717 5.499 8.576 C5.933 9.93 5.933 9.93 6.375 11.312 C6.679 12.247 6.983 13.181 7.296 14.143 C11.953 28.79 15.556 43.678 17 59 C17.085 59.839 17.171 60.677 17.259 61.542 C18.252 72.469 18.243 83.41 18.25 94.375 C18.251 95.401 18.252 96.427 18.253 97.485 C18.243 112.236 17.803 126.48 15 141 C14.694 142.746 14.389 144.492 14.086 146.238 C12.18 156.786 9.411 166.851 6 177 C5.449 178.792 5.449 178.792 4.887 180.621 C-4.013 209.033 -19.447 234.879 -38 258 C-38.782 258.989 -39.565 259.977 -40.371 260.996 C-51.999 275.236 -65.247 288.989 -80 300 C-81.382 301.071 -82.763 302.143 -84.145 303.215 C-95.516 311.926 -107.369 319.262 -120 326 C-120.718 326.384 -121.436 326.768 -122.175 327.163 C-136.584 334.787 -152.002 341.904 -167.688 346.438 C-170.398 347.222 -173.082 348.028 -175.754 348.938 C-182.655 351.241 -189.539 352.807 -196.688 354.125 C-197.535 354.283 -198.382 354.442 -199.255 354.605 C-215.695 357.511 -231.814 358.324 -248.488 358.261 C-251.891 358.25 -255.293 358.261 -258.695 358.273 C-260.898 358.272 -263.102 358.27 -265.305 358.266 C-266.8 358.272 -266.8 358.272 -268.326 358.278 C-275.387 358.232 -282.072 357.327 -289 356 C-290.677 355.7 -290.677 355.7 -292.387 355.393 C-305.496 352.893 -318.283 350.049 -331 346 C-333.02 345.392 -335.04 344.787 -337.062 344.188 C-338.375 343.792 -339.688 343.397 -341 343 C-337.366 339.365 -333.73 335.732 -330.093 332.1 C-328.898 330.906 -327.703 329.712 -326.508 328.519 C-325.874 327.886 -325.241 327.253 -324.588 326.602 C-309.99 312.021 -295.394 297.437 -280.8 282.851 C-272.366 274.423 -263.932 265.996 -255.495 257.571 C-248.125 250.21 -240.756 242.848 -233.389 235.483 C-229.494 231.589 -225.598 227.696 -221.7 223.806 C-218.032 220.145 -214.367 216.481 -210.703 212.816 C-209.362 211.475 -208.02 210.135 -206.677 208.796 C-204.836 206.96 -202.998 205.121 -201.161 203.281 C-200.636 202.759 -200.111 202.237 -199.571 201.7 C-196.79 198.909 -194.143 196.046 -191.566 193.065 C-188.13 189.101 -184.508 185.373 -180.789 181.676 C-180.098 180.985 -179.407 180.293 -178.695 179.581 C-176.4 177.287 -174.101 174.996 -171.803 172.705 C-170.148 171.052 -168.493 169.399 -166.839 167.745 C-163.286 164.196 -159.731 160.648 -156.176 157.101 C-151.027 151.964 -145.881 146.825 -140.736 141.684 C-132.377 133.331 -124.015 124.981 -115.652 116.631 C-115.152 116.133 -114.653 115.634 -114.138 115.12 C-110.085 111.073 -106.031 107.027 -101.978 102.981 C-98.435 99.443 -94.891 95.906 -91.348 92.369 C-90.849 91.87 -90.35 91.372 -89.836 90.859 C-81.502 82.539 -73.171 74.217 -64.84 65.894 C-59.256 60.314 -53.669 54.737 -48.08 49.161 C-44.6 45.689 -41.122 42.215 -37.646 38.74 C-36.037 37.133 -34.427 35.527 -32.817 33.922 C-30.612 31.725 -28.411 29.525 -26.211 27.324 C-25.578 26.695 -24.946 26.066 -24.294 25.419 C-20.568 21.684 -17.036 17.83 -13.601 13.825 C-11.052 10.919 -8.317 8.21 -5.562 5.5 C-5.022 4.964 -4.481 4.428 -3.924 3.875 C-2.618 2.581 -1.309 1.29 0 0 Z " fill="#9D4194" transform="translate(661,371)"/>
<path d="M0 0 C0.99 0.33 1.98 0.66 3 1 C3.881 3.713 4.579 6.289 5.188 9.062 C5.365 9.821 5.542 10.58 5.725 11.361 C6.161 13.238 6.582 15.119 7 17 C6.34 17 5.68 17 5 17 C4.567 16.041 4.567 16.041 4.125 15.062 C3.172 12.848 3.172 12.848 1 12 C-0.6 7.621 -1.367 4.51 0 0 Z " fill="#CF2E7C" transform="translate(769,337)"/>
<path d="M0 0 C0.66 0.33 1.32 0.66 2 1 C-2.969 6.828 -8.096 12.116 -14 17 C-14 14 -14 14 -12.715 12.374 C-12.128 11.803 -11.542 11.233 -10.938 10.645 C-10.306 10.023 -9.674 9.401 -9.023 8.76 C-8.356 8.117 -7.688 7.475 -7 6.812 C-6.332 6.158 -5.665 5.504 -4.977 4.83 C-3.324 3.213 -1.665 1.604 0 0 Z " fill="#A5388C" transform="translate(521,512)"/>
<path d="M0 0 C0.66 0.33 1.32 0.66 2 1 C-1.878 5.929 -5.761 9.542 -11 13 C-9.464 9.319 -7.218 7.012 -4.375 4.25 C-3.558 3.451 -2.74 2.652 -1.898 1.828 C-0.959 0.923 -0.959 0.923 0 0 Z " fill="#A5398C" transform="translate(349,685)"/>
<path d="M0 0 C0.66 0 1.32 0 2 0 C2 0.66 2 1.32 2 2 C2.66 2 3.32 2 4 2 C4 3.98 4 5.96 4 8 C2.062 7.688 2.062 7.688 0 7 C-1.044 3.867 -0.934 3.01 0 0 Z " fill="#D22D7C" transform="translate(916,844)"/>
<path d="M0 0 C0.99 0.66 1.98 1.32 3 2 C1.901 2.985 0.795 3.963 -0.312 4.938 C-0.927 5.483 -1.542 6.028 -2.176 6.59 C-4 8 -4 8 -7 9 C-7 8.01 -7 7.02 -7 6 C-5.357 4.962 -3.688 3.964 -2 3 C-1.34 2.01 -0.68 1.02 0 0 Z " fill="#901C4A" transform="translate(318,714)"/>
<path d="M0 0 C1.814 3.628 2.569 6.039 3 10 C2.67 10.66 2.34 11.32 2 12 C2.66 12 3.32 12 4 12 C3.67 13.32 3.34 14.64 3 16 C3 15.01 3 14.02 3 13 C2.34 13 1.68 13 1 13 C1 12.34 1 11.68 1 11 C0.34 11 -0.32 11 -1 11 C-1 10.34 -1 9.68 -1 9 C-0.34 9 0.32 9 1 9 C0.67 6.03 0.34 3.06 0 0 Z " fill="#B52165" transform="translate(765,316)"/>
<path d="M0 0 C0 3.961 -1.349 4.829 -4 7.688 C-4.742 8.496 -5.485 9.304 -6.25 10.137 C-6.827 10.752 -7.405 11.366 -8 12 C-8.66 11.67 -9.32 11.34 -10 11 C-9.278 10.299 -8.556 9.598 -7.812 8.875 C-5.002 6.072 -2.505 3.077 0 0 Z " fill="#82153F" transform="translate(718,311)"/>
<path d="M0 0 C0.33 0 0.66 0 1 0 C1.66 3.3 2.32 6.6 3 10 C3.66 10 4.32 10 5 10 C4.34 11.32 3.68 12.64 3 14 C2.67 13.01 2.34 12.02 2 11 C1.34 10.67 0.68 10.34 0 10 C0 6.7 0 3.4 0 0 Z " fill="#C72970" transform="translate(884,731)"/>
<path d="M0 0 C1.32 0 2.64 0 4 0 C4.66 2.97 5.32 5.94 6 9 C5.34 9 4.68 9 4 9 C3.711 8.361 3.423 7.721 3.125 7.062 C2.172 4.848 2.172 4.848 0 4 C0 2.68 0 1.36 0 0 Z " fill="#C62A74" transform="translate(770,345)"/>
<path d="M0 0 C1.792 0.141 3.584 0.288 5.375 0.438 C6.872 0.559 6.872 0.559 8.398 0.684 C11 1 11 1 13 2 C13 2.66 13 3.32 13 4 C8.286 3.521 4.334 3.032 0 1 C0 0.67 0 0.34 0 0 Z " fill="#C7246E" transform="translate(707,848)"/>
<path d="M0 0 C0 0.99 0 1.98 0 3 C-0.66 3 -1.32 3 -2 3 C-2 3.66 -2 4.32 -2 5 C-2.99 5.33 -3.98 5.66 -5 6 C-5.66 6.66 -6.32 7.32 -7 8 C-7.33 7.01 -7.66 6.02 -8 5 C-2.25 0 -2.25 0 0 0 Z " fill="#B92466" transform="translate(292,744)"/>
<path d="M0 0 C1.208 3.623 0.543 4.641 -1 8 C-2.32 7.67 -3.64 7.34 -5 7 C-4.67 6.01 -4.34 5.02 -4 4 C-3.34 4 -2.68 4 -2 4 C-1.34 2.68 -0.68 1.36 0 0 Z " fill="#A92360" transform="translate(309,724)"/>
<path d="M0 0 C0.33 0.66 0.66 1.32 1 2 C0.01 3.32 -0.98 4.64 -2 6 C-3.65 5.67 -5.3 5.34 -7 5 C-2.25 1.125 -2.25 1.125 0 0 Z " fill="#0AA6DE" transform="translate(293,233)"/>
<path d="M0 0 C0.33 0.66 0.66 1.32 1 2 C1.99 2.33 2.98 2.66 4 3 C4.66 3.33 5.32 3.66 6 4 C6 4.66 6 5.32 6 6 C3.657 5.744 1.322 5.407 -1 5 C-1.33 4.34 -1.66 3.68 -2 3 C-1.34 3 -0.68 3 0 3 C0 2.01 0 1.02 0 0 Z " fill="#C1276D" transform="translate(368,768)"/>
<path d="M0 0 C0.99 0 1.98 0 3 0 C3.66 1.98 4.32 3.96 5 6 C4.34 6 3.68 6 3 6 C3 5.01 3 4.02 3 3 C1.02 3.99 1.02 3.99 -1 5 C-1.33 4.01 -1.66 3.02 -2 2 C-1.34 2 -0.68 2 0 2 C0 1.34 0 0.68 0 0 Z " fill="#DA307F" transform="translate(752,279)"/>
<path d="M0 0 C5.75 0.75 5.75 0.75 8 3 C4.234 4.255 2.628 3.371 -1 2 C-0.67 1.34 -0.34 0.68 0 0 Z " fill="#D12E78" transform="translate(649,834)"/>
<path d="M0 0 C2.475 0.495 2.475 0.495 5 1 C5.33 2.32 5.66 3.64 6 5 C5.34 5 4.68 5 4 5 C3.67 5.66 3.34 6.32 3 7 C2.01 6.67 1.02 6.34 0 6 C0.99 5.01 1.98 4.02 3 3 C2.01 2.01 1.02 1.02 0 0 Z " fill="#E9407A" transform="translate(317,713)"/>
<path d="M0 0 C2.094 3.402 2.179 6.053 2 10 C2.66 10 3.32 10 4 10 C3.67 10.66 3.34 11.32 3 12 C2.34 11.67 1.68 11.34 1 11 C0.5 8.5 0.5 8.5 0 6 C-0.66 5.67 -1.32 5.34 -2 5 C-1.34 3.35 -0.68 1.7 0 0 Z " fill="#BB2168" transform="translate(854,626)"/>
<path d="M0 0 C0.66 0.33 1.32 0.66 2 1 C2 2.32 2 3.64 2 5 C0.02 5 -1.96 5 -4 5 C-2.68 3.35 -1.36 1.7 0 0 Z " fill="#8A4797" transform="translate(661,371)"/>
<path d="M0 0 C0.33 1.32 0.66 2.64 1 4 C-1.31 3.67 -3.62 3.34 -6 3 C-3.375 0 -3.375 0 0 0 Z " fill="#A8388B" transform="translate(326,711)"/>
<path d="M0 0 C0.33 0 0.66 0 1 0 C1.33 2.31 1.66 4.62 2 7 C1.34 7 0.68 7 0 7 C-0.33 7.99 -0.66 8.98 -1 10 C-2.312 6.063 -1.243 3.875 0 0 Z " fill="#0AA2D9" transform="translate(164,387)"/>
<path d="M0 0 C0.66 0 1.32 0 2 0 C1.25 2.438 1.25 2.438 0 5 C-2.125 5.812 -2.125 5.812 -4 6 C-2.848 3.532 -1.952 1.952 0 0 Z " fill="#0FAADF" transform="translate(237,272)"/>
</svg>
