<?xml version="1.0" encoding="UTF-8"?>
<!-- Generator: visioncortex VTracer 0.6.4 -->
<svg version="1.1" xmlns="http://www.w3.org/2000/svg" width="1024" height="1024">
<path d="M0 0 C337.92 0 675.84 0 1024 0 C1024 337.92 1024 675.84 1024 1024 C686.08 1024 348.16 1024 0 1024 C0 686.08 0 348.16 0 0 Z " fill="#000000" transform="translate(0,0)"/>
<path d="M0 0 C3.938 0.562 3.938 0.562 5.582 2.71 C7.019 5.734 7.811 8.501 8.57 11.762 C11.507 23.547 15.793 34.927 19.812 46.375 C22.515 54.105 25.211 61.837 27.896 69.573 C28.572 71.514 29.252 73.454 29.936 75.392 C30.823 77.908 31.698 80.428 32.57 82.949 C32.83 83.674 33.089 84.398 33.357 85.144 C35.408 91.149 35.408 91.149 33.938 94.562 C33.607 95.222 33.278 95.882 32.938 96.562 C25.829 96.058 19.195 94.813 12.312 93 C10.189 92.455 8.065 91.911 5.941 91.367 C4.812 91.076 3.683 90.784 2.52 90.483 C-3.222 89.007 -8.973 87.569 -14.724 86.132 C-16.751 85.625 -18.777 85.116 -20.802 84.606 C-27.649 82.889 -34.502 81.211 -41.375 79.602 C-42.713 79.286 -44.05 78.971 -45.388 78.656 C-47.903 78.066 -50.42 77.483 -52.938 76.908 C-54.066 76.643 -55.194 76.378 -56.355 76.105 C-57.341 75.879 -58.326 75.652 -59.341 75.419 C-62.299 74.488 -64.558 73.392 -67.062 71.562 C-67.875 68.375 -67.875 68.375 -68.062 65.562 C-66.316 64.099 -64.566 62.642 -62.812 61.188 C-61.351 59.969 -61.351 59.969 -59.859 58.727 C-57.062 56.562 -57.062 56.562 -54.766 55.461 C-52.698 54.621 -52.698 54.621 -52.062 51.562 C-51.403 51.562 -50.742 51.562 -50.062 51.562 C-49.669 50.685 -49.669 50.685 -49.267 49.79 C-48.003 47.452 -46.633 45.833 -44.797 43.918 C-44.154 43.241 -43.51 42.563 -42.848 41.865 C-42.176 41.167 -41.504 40.469 -40.812 39.75 C-39.493 38.37 -38.176 36.988 -36.859 35.605 C-35.901 34.601 -35.901 34.601 -34.924 33.576 C-33.114 31.618 -31.404 29.604 -29.703 27.551 C-28.396 26.072 -28.396 26.072 -27.062 24.562 C-26.403 24.562 -25.742 24.562 -25.062 24.562 C-24.823 23.994 -24.583 23.426 -24.336 22.84 C-22.804 20.1 -20.952 18.295 -18.688 16.125 C-16.141 13.648 -13.841 11.284 -11.625 8.5 C-11.109 7.861 -10.594 7.221 -10.062 6.562 C-9.403 6.562 -8.742 6.562 -8.062 6.562 C-8.062 5.903 -8.062 5.242 -8.062 4.562 C-5.757 1.296 -3.902 0.237 0 0 Z " fill="#E79C41" transform="translate(897.0625,53.4375)"/>
<path d="M0 0 C0 4.95 0 9.9 0 15 C-4 13 -4 13 -5.965 11.965 C-6.616 11.626 -7.267 11.287 -7.938 10.938 C-8.586 10.596 -9.234 10.254 -9.902 9.902 C-17.213 6.758 -28.116 6.663 -35.754 8.754 C-39.614 10.567 -41.207 12.29 -43 16 C-44.646 17.358 -46.313 18.693 -48 20 C-48.99 21.485 -48.99 21.485 -50 23 C-50.66 23 -51.32 23 -52 23 C-52.13 23.791 -52.13 23.791 -52.262 24.598 C-53.263 27.856 -55.047 30.552 -56.812 33.438 C-65.666 48.444 -68.113 66.047 -70.062 83.125 C-73.204 110.178 -79.132 134.918 -101.48 153.008 C-103.938 154.768 -106.434 156.404 -109 158 C-109.695 158.461 -110.39 158.923 -111.105 159.398 C-123.086 166.816 -136.402 167.615 -150.08 167.412 C-152.629 167.375 -155.177 167.371 -157.727 167.371 C-165.896 167.335 -173.653 166.885 -181.715 165.467 C-187.754 164.608 -193.812 164.552 -199.903 164.52 C-202.131 164.5 -204.355 164.438 -206.582 164.375 C-215.751 164.24 -222.352 165.603 -230 171 C-231.033 171.666 -232.065 172.333 -233.129 173.02 C-249.285 184.923 -258.271 196.008 -262 216 C-262.482 220.329 -262.796 224.649 -263 229 C-265 225.25 -265 225.25 -265 223 C-267.97 223 -270.94 223 -274 223 C-272.752 206.739 -270.703 192.303 -259 180 C-258.27 179.181 -257.541 178.363 -256.789 177.52 C-244.216 164.049 -227.367 153.469 -208.699 152.816 C-199.732 152.637 -190.921 153.129 -182 154 C-172.177 154.932 -162.397 155.249 -152.535 155.3 C-150.946 155.308 -149.357 155.322 -147.769 155.341 C-130.11 155.529 -115.512 151.173 -102.355 138.66 C-86.045 120.24 -82.805 97.131 -80.697 73.488 C-80.62 72.66 -80.544 71.833 -80.465 70.98 C-80.399 70.237 -80.333 69.493 -80.265 68.727 C-80 67 -80 67 -79 66 C-78.696 64.088 -78.433 62.17 -78.188 60.25 C-76.459 48.717 -72.943 38.999 -67 29 C-66.341 27.77 -66.341 27.77 -65.668 26.516 C-61.522 19.012 -55.944 13.082 -50 7 C-49.364 6.282 -48.729 5.564 -48.074 4.824 C-36.83 -6.819 -13.617 -6.808 0 0 Z " fill="#3F4E5C" transform="translate(1024,744)"/>
<path d="M0 0 C3.938 0.562 3.938 0.562 5.582 2.71 C7.019 5.734 7.811 8.501 8.57 11.762 C11.507 23.547 15.793 34.927 19.812 46.375 C22.515 54.105 25.211 61.837 27.896 69.573 C28.572 71.514 29.252 73.454 29.936 75.392 C30.823 77.908 31.698 80.428 32.57 82.949 C32.83 83.674 33.089 84.398 33.357 85.144 C35.408 91.149 35.408 91.149 33.938 94.562 C33.607 95.222 33.278 95.882 32.938 96.562 C25.829 96.058 19.195 94.813 12.312 93 C10.199 92.458 8.086 91.916 5.973 91.375 C4.845 91.084 3.717 90.792 2.555 90.492 C-3.351 88.974 -9.267 87.496 -15.183 86.017 C-17.241 85.502 -19.299 84.984 -21.356 84.466 C-27.469 82.929 -33.584 81.425 -39.734 80.047 C-40.72 79.824 -41.706 79.601 -42.722 79.371 C-44.524 78.968 -46.328 78.576 -48.135 78.197 C-50.135 77.749 -52.105 77.169 -54.062 76.562 C-54.393 75.572 -54.722 74.582 -55.062 73.562 C-56.053 73.233 -57.043 72.903 -58.062 72.562 C-58.062 72.233 -58.062 71.903 -58.062 71.562 C-51.727 72.208 -45.751 73.52 -39.59 75.109 C-38.59 75.362 -37.591 75.616 -36.561 75.876 C-33.373 76.684 -30.186 77.497 -27 78.312 C-14.515 81.502 -2.032 84.644 10.559 87.391 C11.501 87.597 12.442 87.803 13.413 88.015 C18.242 89.05 23.038 89.937 27.938 90.562 C27.681 89.854 27.424 89.145 27.16 88.414 C25.003 82.414 22.878 76.404 20.812 70.371 C17.252 59.975 13.663 49.657 9.484 39.492 C7.367 34.222 5.504 28.859 3.625 23.5 C3.275 22.511 2.925 21.522 2.564 20.503 C0.956 15.872 -0.493 11.46 -1.062 6.562 C-1.722 6.562 -2.383 6.562 -3.062 6.562 C-3.062 7.222 -3.062 7.883 -3.062 8.562 C-4.689 10.291 -6.344 11.928 -8.062 13.562 C-13.333 18.604 -18.012 23.882 -22.574 29.57 C-25.316 32.867 -28.192 35.999 -31.125 39.125 C-35.455 43.743 -39.488 48.494 -43.395 53.48 C-47.11 58.119 -51.477 61.83 -56.062 65.562 C-56.393 64.243 -56.722 62.922 -57.062 61.562 C-58.383 61.233 -59.702 60.903 -61.062 60.562 C-60.11 59.557 -59.151 58.558 -58.188 57.562 C-57.654 57.006 -57.12 56.449 -56.57 55.875 C-55.062 54.562 -55.062 54.562 -53.062 54.562 C-52.732 53.572 -52.403 52.583 -52.062 51.562 C-51.403 51.562 -50.742 51.562 -50.062 51.562 C-49.8 50.978 -49.537 50.393 -49.267 49.79 C-48.003 47.452 -46.633 45.833 -44.797 43.918 C-44.154 43.241 -43.51 42.563 -42.848 41.865 C-42.176 41.167 -41.504 40.469 -40.812 39.75 C-39.493 38.37 -38.176 36.988 -36.859 35.605 C-36.221 34.936 -35.582 34.266 -34.924 33.576 C-33.114 31.618 -31.404 29.604 -29.703 27.551 C-28.396 26.072 -28.396 26.072 -27.062 24.562 C-26.403 24.562 -25.742 24.562 -25.062 24.562 C-24.823 23.994 -24.583 23.426 -24.336 22.84 C-22.804 20.1 -20.952 18.295 -18.688 16.125 C-16.141 13.648 -13.841 11.284 -11.625 8.5 C-11.109 7.861 -10.594 7.221 -10.062 6.562 C-9.403 6.562 -8.742 6.562 -8.062 6.562 C-8.062 5.903 -8.062 5.242 -8.062 4.562 C-5.757 1.296 -3.902 0.237 0 0 Z " fill="#F7E17D" transform="translate(897.0625,53.4375)"/>
<path d="M0 0 C0.495 1.485 0.495 1.485 1 3 C0.34 3.66 -0.32 4.32 -1 5 C-1.459 5.461 -1.918 5.923 -2.391 6.398 C-3.516 7.518 -4.652 8.627 -5.797 9.727 C-10.42 14.22 -14.481 18.981 -18.512 24.008 C-21.254 27.305 -24.13 30.436 -27.062 33.562 C-31.393 38.18 -35.425 42.932 -39.332 47.918 C-43.048 52.556 -47.415 56.268 -52 60 C-51.408 56.465 -50.084 54.627 -47.688 52 C-47.058 51.308 -46.429 50.616 -45.781 49.902 C-40.479 44.239 -40.479 44.239 -38 43 C-36.994 41.337 -35.994 39.67 -35 38 C-33.438 36.188 -33.438 36.188 -32 35 C-31.34 35 -30.68 35 -30 35 C-29.741 34.421 -29.482 33.842 -29.215 33.246 C-27.909 30.832 -26.419 29.079 -24.562 27.062 C-21.975 24.185 -19.935 21.361 -18 18 C-17.34 17.67 -16.68 17.34 -16 17 C-15.505 15.515 -15.505 15.515 -15 14 C-14.34 14 -13.68 14 -13 14 C-12.67 12.68 -12.34 11.36 -12 10 C-10.68 9.67 -9.36 9.34 -8 9 C-8 8.01 -8 7.02 -8 6 C-6.25 4.395 -6.25 4.395 -4 2.812 C-3.258 2.283 -2.515 1.753 -1.75 1.207 C-1.173 0.809 -0.595 0.41 0 0 Z " fill="#F7EAA3" transform="translate(893,59)"/>
<path d="M0 0 C0 3 0 3 -1 5 C-1.66 5 -2.32 5 -3 5 C-3.385 5.862 -3.385 5.862 -3.777 6.742 C-5.116 9.215 -6.672 11.048 -8.562 13.125 C-11.077 15.86 -11.077 15.86 -13 19 C-12.34 19.33 -11.68 19.66 -11 20 C-11.99 20.33 -12.98 20.66 -14 21 C-13.34 21.33 -12.68 21.66 -12 22 C-12 22.66 -12 23.32 -12 24 C-16.679 23.541 -20.355 23.109 -24 20 C-25.188 17.125 -25.188 17.125 -25 14 C-21.848 10.297 -21.848 10.297 -19 9 C-15.125 9.188 -15.125 9.188 -12 10 C-12 10.99 -12 11.98 -12 13 C-11.446 12.35 -10.891 11.701 -10.32 11.031 C-9.596 10.196 -8.871 9.361 -8.125 8.5 C-7.406 7.665 -6.686 6.829 -5.945 5.969 C-5.303 5.319 -4.661 4.669 -4 4 C-3.34 4 -2.68 4 -2 4 C-1.34 2.68 -0.68 1.36 0 0 Z " fill="#BFA76D" transform="translate(854,105)"/>
<path d="M0 0 C7.64 0.392 13.565 5.214 18.688 10.562 C25.224 18.596 28.982 27.373 28.465 37.789 C27.376 45.309 24.681 52.375 21 59 C20.34 58.67 19.68 58.34 19 58 C19.65 56.494 19.65 56.494 20.312 54.957 C23.886 46.318 26.503 38.523 25 29 C24.34 28.01 23.68 27.02 23 26 C22.711 25.092 22.423 24.185 22.125 23.25 C18.393 12.469 11.579 7.672 1.941 2.199 C1.301 1.803 0.66 1.408 0 1 C0 0.67 0 0.34 0 0 Z " fill="#414E5D" transform="translate(122,888)"/>
<path d="M0 0 C10.4 -0.207 20.641 -0.059 31 0.938 C47.288 2.493 63.65 2.664 80 3 C80 3.33 80 3.66 80 4 C59.155 5.086 38.529 5.132 17.732 3.191 C14.992 2.999 12.307 2.995 9.562 3.062 C5.932 3.115 3.27 2.744 0 1 C0 0.67 0 0.34 0 0 Z " fill="#2D3843" transform="translate(811,897)"/>
<path d="M0 0 C0.33 2.31 0.66 4.62 1 7 C1.66 7 2.32 7 3 7 C3 8.65 3 10.3 3 12 C2.01 12.495 2.01 12.495 1 13 C1.193 13.641 1.387 14.281 1.586 14.941 C3.094 19.951 4.577 24.965 6 30 C5.01 29.67 4.02 29.34 3 29 C1.941 26.87 1.941 26.87 0.992 24.082 C0.645 23.075 0.299 22.067 -0.059 21.029 C-0.411 19.968 -0.762 18.906 -1.125 17.812 C-1.485 16.77 -1.844 15.728 -2.215 14.654 C-3.875 9.764 -5.244 5.122 -6 0 C-3 -1 -3 -1 0 0 Z " fill="#FDEB96" transform="translate(902,60)"/>
<path d="M0 0 C3.938 0.562 3.938 0.562 5.875 2.562 C7.195 6.29 7.604 9.623 7.938 13.562 C7.278 13.562 6.617 13.562 5.938 13.562 C5.649 12.428 5.36 11.294 5.062 10.125 C4.691 8.949 4.32 7.774 3.938 6.562 C3.278 6.233 2.617 5.903 1.938 5.562 C1.607 6.883 1.278 8.203 0.938 9.562 C0.938 8.572 0.938 7.582 0.938 6.562 C-1.726 6.171 -3.455 6.157 -5.73 7.676 C-7.214 8.926 -8.642 10.241 -10.062 11.562 C-11.053 10.903 -12.043 10.242 -13.062 9.562 C-11.688 8.062 -11.688 8.062 -10.062 6.562 C-9.403 6.562 -8.742 6.562 -8.062 6.562 C-8.062 5.903 -8.062 5.242 -8.062 4.562 C-5.757 1.296 -3.902 0.237 0 0 Z " fill="#F2DF87" transform="translate(897.0625,53.4375)"/>
<path d="M0 0 C1.938 0.625 1.938 0.625 4 2 C4.875 4.938 4.875 4.938 5 8 C4.01 9.485 4.01 9.485 3 11 C-4.591 10.513 -11.671 9.002 -19 7 C-17 5 -17 5 -14.25 4.75 C-10.87 5.01 -8.158 5.797 -5 7 C-5.33 6.34 -5.66 5.68 -6 5 C-4.02 4.67 -2.04 4.34 0 4 C0 2.68 0 1.36 0 0 Z " fill="#F6E17D" transform="translate(927,139)"/>
<path d="M0 0 C0.33 0.66 0.66 1.32 1 2 C1.66 2 2.32 2 3 2 C3 2.99 3 3.98 3 5 C3.66 5 4.32 5 5 5 C8.077 10.415 8.077 10.415 7.688 13.375 C7.461 13.911 7.234 14.448 7 15 C7.66 15 8.32 15 9 15 C9.99 18.96 10.98 22.92 12 27 C11.01 27 10.02 27 9 27 C7.678 23.629 6.369 20.252 5.062 16.875 C4.689 15.924 4.316 14.972 3.932 13.992 C2.139 9.34 0.53 4.998 0 0 Z " fill="#FBE693" transform="translate(907,91)"/>
<path d="M0 0 C9.275 -0.361 17.567 -0.217 26 4 C26 5.65 26 7.3 26 9 C25.478 8.734 24.956 8.469 24.418 8.195 C18.388 5.302 12.605 3.938 6 3 C6 2.34 6 1.68 6 1 C4.02 1 2.04 1 0 1 C0 0.67 0 0.34 0 0 Z " fill="#21262F" transform="translate(998,740)"/>
<path d="M0 0 C9.222 0.338 17.23 2.211 26 5 C24.25 6.125 24.25 6.125 22 7 C20.649 6.371 19.317 5.698 18 5 C14.971 4.867 12.002 5.002 8.973 5.125 C5.819 4.992 3.768 4.506 1 3 C0.67 2.01 0.34 1.02 0 0 Z " fill="#F7E486" transform="translate(898,140)"/>
<path d="M0 0 C0.99 0.495 0.99 0.495 2 1 C2 1.99 2 2.98 2 4 C2.66 4 3.32 4 4 4 C4.144 4.743 4.289 5.485 4.438 6.25 C4.763 7.84 5.106 9.426 5.5 11 C6.08 13.32 6.544 15.653 7 18 C7.66 18 8.32 18 9 18 C9 19.98 9 21.96 9 24 C8.34 24 7.68 24 7 24 C0.296 8.44 0.296 8.44 0 0 Z " fill="#FDE993" transform="translate(918,119)"/>
<path d="M0 0 C17.702 1.702 17.702 1.702 22 6 C16.06 5.67 10.12 5.34 4 5 C3.67 4.01 3.34 3.02 3 2 C2.01 1.67 1.02 1.34 0 1 C0 0.67 0 0.34 0 0 Z " fill="#F4DF91" transform="translate(839,125)"/>
<path d="M0 0 C2.063 1.239 4.036 2.428 5.898 3.953 C5.898 4.613 5.898 5.273 5.898 5.953 C6.476 6.139 7.053 6.324 7.648 6.516 C11.089 8.714 12.154 11.27 13.898 14.953 C13.568 15.943 13.238 16.933 12.898 17.953 C12.535 17.361 12.171 16.77 11.797 16.16 C8.023 10.228 3.888 4.283 -3.102 1.953 C-5.434 1.875 -7.77 1.863 -10.102 1.953 C-10.102 1.293 -10.102 0.633 -10.102 -0.047 C-6.22 -1.341 -3.782 -1.884 0 0 Z " fill="#36414E" transform="translate(126.1015625,896.046875)"/>
<path d="M0 0 C1.875 0.562 1.875 0.562 4 2 C5.25 5.625 5.25 5.625 6 9 C4.02 9.66 2.04 10.32 0 11 C-1.562 9.312 -1.562 9.312 -3 7 C-2.759 3.63 -2.412 2.412 0 0 Z " fill="#8F815C" transform="translate(832,116)"/>
<path d="M0 0 C2.219 3.329 3.463 6.688 4.75 10.438 C4.996 11.106 5.242 11.774 5.496 12.463 C7.199 17.428 7.199 17.428 6.141 20.473 C5.764 20.977 5.388 21.481 5 22 C4.67 20.68 4.34 19.36 4 18 C3.34 18 2.68 18 2 18 C1.856 16.927 1.711 15.855 1.562 14.75 C1.12 11.266 1.12 11.266 0.438 9 C-0.218 6.002 -0.059 3.056 0 0 Z " fill="#F3E179" transform="translate(912,88)"/>
<path d="M0 0 C0.66 0 1.32 0 2 0 C2.75 2.25 2.75 2.25 3 5 C1.5 7.312 1.5 7.312 -1 9 C-4.75 9.25 -4.75 9.25 -8 9 C-7.049 7.827 -6.089 6.662 -5.125 5.5 C-4.324 4.525 -4.324 4.525 -3.508 3.531 C-2.761 2.773 -2.761 2.773 -2 2 C-1.34 2 -0.68 2 0 2 C0 1.34 0 0.68 0 0 Z " fill="#F1DB81" transform="translate(844,106)"/>
<path d="M0 0 C2.312 -0.312 2.312 -0.312 5 0 C8.409 3.896 8.579 8.035 9 13 C8.34 13 7.68 13 7 13 C6.629 11.329 6.629 11.329 6.25 9.625 C5.425 5.944 5.425 5.944 2.938 4.812 C2.298 4.544 1.659 4.276 1 4 C0.25 1.875 0.25 1.875 0 0 Z " fill="#CFBC6A" transform="translate(896,54)"/>
<path d="M0 0 C2.49 4.125 1.87 6.641 0.848 11.184 C-0.606 16.012 -2.756 20.495 -5 25 C-5.66 24.67 -6.32 24.34 -7 24 C-6.578 22.938 -6.157 21.876 -5.723 20.781 C-5.169 19.354 -4.615 17.927 -4.062 16.5 C-3.646 15.456 -3.646 15.456 -3.221 14.391 C-1.364 9.558 -0.459 5.159 0 0 Z " fill="#2B3440" transform="translate(148,922)"/>
<path d="M0 0 C2.208 -0.054 4.417 -0.093 6.625 -0.125 C7.855 -0.148 9.085 -0.171 10.352 -0.195 C13.943 -0.003 16.667 0.697 20 2 C16.845 2.936 14.034 3.106 10.75 3.062 C9.858 3.053 8.966 3.044 8.047 3.035 C7.371 3.024 6.696 3.012 6 3 C6 2.34 6 1.68 6 1 C4.02 1 2.04 1 0 1 C0 0.67 0 0.34 0 0 Z " fill="#2C343F" transform="translate(998,740)"/>
<path d="M0 0 C6.166 -0.402 11.177 1.032 17 3 C15.25 4.125 15.25 4.125 13 5 C11.047 4.133 11.047 4.133 9 3 C6.638 2.76 6.638 2.76 4.25 2.875 C3.051 2.902 3.051 2.902 1.828 2.93 C0.923 2.964 0.923 2.964 0 3 C0 2.01 0 1.02 0 0 Z " fill="#FDEC91" transform="translate(907,142)"/>
<path d="M0 0 C0.33 0.66 0.66 1.32 1 2 C-0.078 3.275 -1.163 4.545 -2.25 5.812 C-2.853 6.52 -3.457 7.228 -4.078 7.957 C-5.938 9.934 -7.731 11.514 -10 13 C-10.66 13 -11.32 13 -12 13 C-10.485 8.758 -7.636 7.424 -4 5 C-2.748 2.917 -2.748 2.917 -2 1 C-1.34 0.67 -0.68 0.34 0 0 Z " fill="#4A5A69" transform="translate(932,884)"/>
<path d="M0 0 C0.99 0 1.98 0 3 0 C5.592 4.861 5.187 9.653 5 15 C2.507 10.244 1.249 5.203 0 0 Z " fill="#384351" transform="translate(145,911)"/>
<path d="M0 0 C0.66 0 1.32 0 2 0 C2.532 1.601 3.05 3.206 3.562 4.812 C3.853 5.706 4.143 6.599 4.441 7.52 C5 10 5 10 4 13 C1.875 9.812 1.498 7.735 1 4 C0.34 4 -0.32 4 -1 4 C-1.33 4.66 -1.66 5.32 -2 6 C-2.66 5.67 -3.32 5.34 -4 5 C-3.34 4.01 -2.68 3.02 -2 2 C-1.34 2 -0.68 2 0 2 C0 1.34 0 0.68 0 0 Z " fill="#C79445" transform="translate(894,60)"/>
<path d="M0 0 C0 3 0 3 -1 5 C-1.66 5 -2.32 5 -3 5 C-3.255 5.593 -3.51 6.186 -3.773 6.797 C-5.118 9.212 -6.492 10.512 -8.625 12.25 C-9.257 12.771 -9.888 13.292 -10.539 13.828 C-11.021 14.215 -11.503 14.602 -12 15 C-10.648 12.061 -9.101 9.708 -7 7.25 C-6.227 6.33 -6.227 6.33 -5.438 5.391 C-4 4 -4 4 -2 4 C-1.34 2.68 -0.68 1.36 0 0 Z " fill="#BC9E58" transform="translate(854,105)"/>
<path d="M0 0 C2.475 0.99 2.475 0.99 5 2 C4.34 3.65 3.68 5.3 3 7 C1.68 7 0.36 7 -1 7 C-1.625 4.625 -1.625 4.625 -2 2 C-1.34 1.34 -0.68 0.68 0 0 Z " fill="#AB9A6D" transform="translate(835,114)"/>
<path d="M0 0 C2.873 2.422 3.708 4.597 4.688 8.188 C4.939 9.089 5.19 9.99 5.449 10.918 C5.631 11.605 5.813 12.292 6 13 C3 12 3 12 2.051 10.293 C1.807 9.598 1.564 8.903 1.312 8.188 C1.061 7.5 0.81 6.813 0.551 6.105 C0 4 0 4 0 0 Z " fill="#FDEE9F" transform="translate(902,77)"/>
<path d="M0 0 C-3.54 2.916 -7.163 5.501 -11 8 C-10.609 5.535 -10.268 4.267 -8.477 2.48 C-7.56 1.84 -7.56 1.84 -6.625 1.188 C-6.019 0.748 -5.413 0.308 -4.789 -0.145 C-3 -1 -3 -1 0 0 Z " fill="#222831" transform="translate(115,898)"/>
<path d="M0 0 C3.312 2 3.312 2 6 4 C5.67 4.66 5.34 5.32 5 6 C4.154 5.505 3.309 5.01 2.438 4.5 C-1.338 2.853 -3.928 2.756 -8 3 C-8 2.34 -8 1.68 -8 1 C-4.91 -0.03 -3.214 -0.374 0 0 Z " fill="#303A46" transform="translate(124,895)"/>
<path d="M0 0 C0.33 0.66 0.66 1.32 1 2 C-0.093 3.342 -1.2 4.673 -2.312 6 C-3.235 7.114 -3.235 7.114 -4.176 8.25 C-6 10 -6 10 -9 10 C-6.03 6.7 -3.06 3.4 0 0 Z " fill="#354554" transform="translate(972,753)"/>
<path d="M0 0 C3.389 0.339 4.664 1.041 7.125 3.312 C2.604 4.769 -0.391 3.583 -4.875 2.312 C-2.875 0.312 -2.875 0.312 0 0 Z " fill="#EBD872" transform="translate(912.875,143.6875)"/>
<path d="M0 0 C3.413 0.231 5.642 0.773 8.688 2.25 C8.688 2.58 8.688 2.91 8.688 3.25 C1.758 2.755 1.758 2.755 -5.312 2.25 C-3.312 0.25 -3.312 0.25 0 0 Z " fill="#FBED97" transform="translate(852.3125,127.75)"/>
<path d="M0 0 C0.99 0.33 1.98 0.66 3 1 C1.951 3.622 1.351 4.794 -1.125 6.25 C-1.744 6.498 -2.362 6.745 -3 7 C-3.66 6.34 -4.32 5.68 -5 5 C-3.625 3.5 -3.625 3.5 -2 2 C-1.34 2 -0.68 2 0 2 C0 1.34 0 0.68 0 0 Z " fill="#F0DC71" transform="translate(889,58)"/>
<path d="M0 0 C0.66 0 1.32 0 2 0 C2.66 2.97 3.32 5.94 4 9 C3.01 8.67 2.02 8.34 1 8 C-0.354 5.291 -0.065 2.991 0 0 Z " fill="#FCDD7C" transform="translate(900,61)"/>
<path d="M0 0 C0.33 0.99 0.66 1.98 1 3 C-1.578 5.648 -3.916 7.944 -7 10 C-7 9.01 -7 8.02 -7 7 C-6.34 7 -5.68 7 -5 7 C-5 6.01 -5 5.02 -5 4 C-2.5 1.812 -2.5 1.812 0 0 Z " fill="#F3E9AB" transform="translate(893,59)"/>
<path d="M0 0 C4.219 0.479 6.797 1.166 10 4 C9.34 4.66 8.68 5.32 8 6 C6.664 5.192 5.331 4.378 4 3.562 C3.257 3.11 2.515 2.658 1.75 2.191 C1.172 1.798 0.595 1.405 0 1 C0 0.67 0 0.34 0 0 Z " fill="#394451" transform="translate(122,888)"/>
<path d="M0 0 C0.33 0.66 0.66 1.32 1 2 C0.34 2 -0.32 2 -1 2 C-1.33 3.65 -1.66 5.3 -2 7 C-3.65 7.33 -5.3 7.66 -7 8 C-6.34 6.68 -5.68 5.36 -5 4 C-4.01 4 -3.02 4 -2 4 C-2 3.01 -2 2.02 -2 1 C-1.34 0.67 -0.68 0.34 0 0 Z " fill="#FAE491" transform="translate(887,64)"/>
<path d="M0 0 C0.66 0.33 1.32 0.66 2 1 C0.891 4.487 -0.263 7.775 -2 11 C-2.66 10.67 -3.32 10.34 -4 10 C-2.68 6.7 -1.36 3.4 0 0 Z " fill="#1D222B" transform="translate(145,936)"/>
<path d="M0 0 C0.99 0 1.98 0 3 0 C3.66 2.31 4.32 4.62 5 7 C4.01 7.33 3.02 7.66 2 8 C0.235 4.912 0 3.767 0 0 Z " fill="#796C57" transform="translate(833,118)"/>
<path d="M0 0 C3.3 0 6.6 0 10 0 C10 0.99 10 1.98 10 3 C8.68 3 7.36 3 6 3 C6 2.34 6 1.68 6 1 C4.02 1 2.04 1 0 1 C0 0.67 0 0.34 0 0 Z " fill="#303B46" transform="translate(998,740)"/>
<path d="M0 0 C0.99 0.33 1.98 0.66 3 1 C2.67 1.99 2.34 2.98 2 4 C-0.64 3.67 -3.28 3.34 -6 3 C-4 2 -2 1 0 0 Z " fill="#EBD577" transform="translate(897,139)"/>
<path d="M0 0 C1.967 2.951 2.654 4.536 3 8 C2.34 8.99 1.68 9.98 1 11 C-0.176 7.326 -0.074 3.831 0 0 Z " fill="#EBD874" transform="translate(912,88)"/>
<path d="M0 0 C0.33 0.66 0.66 1.32 1 2 C1.66 2 2.32 2 3 2 C3 2.99 3 3.98 3 5 C3.66 5 4.32 5 5 5 C4.67 5.99 4.34 6.98 4 8 C2 6.25 2 6.25 0 4 C0 2.68 0 1.36 0 0 Z " fill="#FBEA9B" transform="translate(907,91)"/>
<path d="M0 0 C-4.431 3.077 -4.431 3.077 -7.312 2.688 C-8.148 2.347 -8.148 2.347 -9 2 C-3.375 -1.125 -3.375 -1.125 0 0 Z " fill="#4C5C6C" transform="translate(996,749)"/>
<path d="M0 0 C1.98 0.99 1.98 0.99 4 2 C3.625 4.438 3.625 4.438 3 7 C2.01 7.495 2.01 7.495 1 8 C1.021 7.237 1.041 6.474 1.062 5.688 C1.129 2.898 1.129 2.898 0 0 Z " fill="#D1BC84" transform="translate(838,114)"/>
<path d="M0 0 C1.65 0 3.3 0 5 0 C2.375 4.875 2.375 4.875 -1 6 C-0.67 4.02 -0.34 2.04 0 0 Z " fill="#FDE387" transform="translate(861,89)"/>
</svg>
