<?xml version="1.0" encoding="UTF-8"?>
<!-- Generator: visioncortex VTracer 0.6.4 -->
<svg version="1.1" xmlns="http://www.w3.org/2000/svg" width="1024" height="1024">
<path d="M0 0 C337.92 0 675.84 0 1024 0 C1024 337.92 1024 675.84 1024 1024 C686.08 1024 348.16 1024 0 1024 C0 686.08 0 348.16 0 0 Z " fill="#0C0B0A" transform="translate(0,0)"/>
<path d="M0 0 C1.092 0.009 2.185 0.018 3.31 0.027 C23.645 0.458 42.065 7.193 56.91 21.383 C78.463 43.891 84.049 79.255 90.816 108.441 C93.834 121.443 97.215 134.3 100.957 147.112 C108.755 173.952 108.755 173.952 102.414 187.645 C97.939 195.765 91.97 200.137 83.875 204.438 C84.879 204.789 85.883 205.141 86.918 205.504 C107.224 212.767 124.872 222.692 135.188 242.438 C141.827 256.514 141.827 256.514 139.875 262.438 C138.02 262.367 138.02 262.367 135.875 261.438 C134.91 259.107 134.211 256.981 133.562 254.562 C128.162 236.568 116.044 225.11 99.855 216.383 C83.602 208.129 64.621 205.734 46.875 202.438 C46.915 203.568 46.955 204.699 46.996 205.863 C46.987 210.649 46.085 214.995 44.938 219.625 C44.724 220.506 44.51 221.388 44.29 222.296 C41.063 235.165 37.005 247.834 32.875 260.438 C32.611 261.294 32.347 262.15 32.075 263.033 C31.352 265.23 31.352 265.23 29.875 268.438 C27.783 269.138 27.783 269.138 25.875 269.438 C24.696 266.014 25.055 264.116 26.281 260.746 C26.774 259.349 26.774 259.349 27.277 257.923 C27.82 256.414 27.82 256.414 28.375 254.875 C34.459 237.314 40.191 219.031 41.875 200.438 C41.581 200.936 41.287 201.435 40.984 201.949 C37.829 207 34.267 211.32 30.188 215.625 C24.43 221.73 19.061 228.029 14.088 234.792 C12.971 236.307 11.821 237.797 10.668 239.285 C4.434 248.312 4.802 257.84 4.875 268.438 C2.937 269 2.937 269 0.875 269.438 C-1.071 267.492 -0.195 264.541 -0.21 261.949 C-0.517 241.042 -11.887 228.402 -26.188 214.438 C-26.748 213.91 -27.308 213.382 -27.885 212.838 C-30.927 209.915 -32.919 207.512 -34.125 203.438 C-34.785 203.438 -35.445 203.438 -36.125 203.438 C-33.607 223.338 -28.868 242.937 -21.094 261.461 C-20.132 264.417 -19.956 265.613 -21.125 268.438 C-22.445 268.438 -23.765 268.438 -25.125 268.438 C-40.356 224.361 -40.356 224.361 -40.188 201.5 C-40.183 200.339 -40.178 199.178 -40.174 197.982 C-40.162 195.134 -40.146 192.286 -40.125 189.438 C-38.805 189.107 -37.485 188.778 -36.125 188.438 C-32.41 171.612 -38.188 157.08 -47.088 142.979 C-50.661 137.658 -54.818 133.867 -59.695 129.715 C-65.531 124.245 -67.389 118.436 -67.75 110.562 C-67.789 107.32 -67.789 107.32 -67.125 104.438 C-64.463 101.771 -63.094 100.524 -59.312 100.188 C-58.591 100.27 -57.869 100.352 -57.125 100.438 C-57.043 99.571 -56.96 98.705 -56.875 97.812 C-55.701 92.527 -53.627 89.471 -49.16 86.398 C-44.446 83.81 -39.429 83.124 -34.188 82.188 C-17.922 78.95 -2.278 72.363 7.688 58.438 C8.768 56.783 9.832 55.116 10.875 53.438 C11.383 52.641 11.891 51.844 12.414 51.023 C13.585 49.172 14.733 47.307 15.875 45.438 C19.574 46.67 19.915 47.718 22 50.938 C30.036 62.322 40.665 72.265 51.723 80.676 C57.005 84.999 61.723 89.874 63.875 96.438 C64 99.25 64 99.25 63.875 101.438 C65.205 101.035 65.205 101.035 66.562 100.625 C69.875 100.438 69.875 100.438 72.688 102.75 C75.541 106.256 76.053 107.594 75.688 112 C74.418 122.892 68.795 130.557 60.375 137.312 C52.106 144.228 48.258 153.448 44.875 163.438 C44.442 164.572 44.009 165.706 43.562 166.875 C42.304 173.398 41.756 181.079 43.875 187.438 C44.556 187.829 45.236 188.221 45.938 188.625 C47.875 190.438 47.875 190.438 48.137 192.406 C48.126 194.419 48.007 196.43 47.875 198.438 C48.983 198.511 48.983 198.511 50.113 198.586 C55.394 198.975 60.549 199.491 65.75 200.5 C72.296 201.741 76.179 202.235 81.875 198.438 C83.165 197.872 84.457 197.309 85.75 196.75 C91.684 193.8 96.052 188.823 98.812 182.812 C102.147 171.432 99.271 160.695 95.802 149.826 C94.495 145.716 93.259 141.584 92.031 137.449 C91.771 136.573 91.511 135.697 91.242 134.795 C87.505 122.003 84.665 108.98 81.757 95.981 C79.685 86.781 77.483 77.665 74.789 68.625 C74.555 67.836 74.321 67.047 74.08 66.233 C67.587 45.039 57.375 24.896 37.414 13.711 C21.784 5.872 0.481 2.018 -16.441 7.398 C-36.844 15.298 -49.22 28.846 -58.125 48.438 C-65.303 64.749 -69.431 82.294 -74.125 99.438 C-79.467 118.837 -85.291 138.105 -92.955 156.731 C-96.286 164.939 -97.593 172.992 -94.562 181.438 C-90.227 191.395 -82.73 196.864 -73.125 201.438 C-73.125 202.097 -73.125 202.757 -73.125 203.438 C-71.744 203.13 -71.744 203.13 -70.336 202.816 C-61.557 200.948 -53.111 199.839 -44.125 199.438 C-44.125 200.757 -44.125 202.077 -44.125 203.438 C-49.766 205.619 -55.494 206.354 -61.438 207.25 C-82.481 210.639 -104.415 216.341 -118.219 234.137 C-124.097 243.066 -127.575 252.102 -130.125 262.438 C-131.775 262.438 -133.425 262.438 -135.125 262.438 C-132.89 245.49 -125.176 231.507 -112.125 220.438 C-103.169 213.698 -90.712 205.438 -79.125 205.438 C-79.125 204.778 -79.125 204.118 -79.125 203.438 C-79.95 203.252 -80.775 203.066 -81.625 202.875 C-90.723 199.139 -96.688 191.086 -100.5 182.25 C-102.317 171.169 -100.997 161.856 -97.125 151.438 C-92.001 137.611 -87.186 123.782 -83.062 109.625 C-82.853 108.905 -82.643 108.185 -82.427 107.443 C-80.23 99.877 -78.082 92.298 -75.961 84.711 C-66.921 52.416 -57.565 22.921 -26.91 5.164 C-18.296 0.91 -9.495 -0.095 0 0 Z " fill="#F3F3F3" transform="translate(509.125,670.5625)"/>
<path d="M0 0 C0.66 0 1.32 0 2 0 C3.161 1.349 4.252 2.759 5.312 4.188 C13.09 14.11 22.025 22.75 32.243 30.135 C37.489 34.022 41.242 38.11 42.926 44.527 C43.053 45.653 43.181 46.778 43.312 47.938 C43.453 49.081 43.594 50.224 43.738 51.402 C43.825 52.26 43.911 53.117 44 54 C44.605 53.848 45.209 53.696 45.832 53.539 C48.217 52.946 50.574 52.393 53 52 C54.612 53.612 54.209 55.338 54.25 57.562 C54.14 64.595 52.711 69.53 47.75 74.625 C46.024 76.244 44.268 77.788 42.412 79.256 C37.699 83.07 34.465 87.219 31.125 92.25 C21.161 106.723 10.274 118.459 -7.527 122.586 C-18.651 124.449 -28.041 121.37 -37.277 115.121 C-46.217 108.156 -52.036 99.294 -57.773 89.699 C-61.207 83.985 -64.407 79.391 -69.562 75.062 C-76.236 69.109 -78.037 64.721 -79.082 55.918 C-79 54 -79 54 -77 52 C-74.271 52.033 -71.703 52.564 -69 53 C-68.974 52.42 -68.948 51.84 -68.922 51.242 C-68.527 45.799 -67.727 42.231 -64 38 C-58.697 34.714 -53.155 33.933 -47.125 32.812 C-28.079 28.919 -13.474 20.649 -1.988 4.656 C-0.832 2.852 -0.832 2.852 0 0 Z " fill="#0C0C0B" transform="translate(525,724)"/>
<path d="M0 0 C0.495 0.99 0.495 0.99 1 2 C0.67 2.99 0.34 3.98 0 5 C-0.121 7.456 -0.175 9.916 -0.188 12.375 C-0.202 13.682 -0.216 14.989 -0.23 16.336 C-0.014 19.774 0.567 21.919 2 25 C2.975 30.24 1.026 33.656 -1.707 37.973 C-5.212 42.601 -9.226 46.706 -13.244 50.888 C-21.388 59.402 -28.775 68.357 -34 79 C-34.66 79 -35.32 79 -36 79 C-36.402 78.091 -36.402 78.091 -36.812 77.164 C-41.741 66.626 -48.964 58.931 -57.197 50.909 C-62.14 46.023 -66.151 40.799 -70 35 C-70.66 34.01 -71.32 33.02 -72 32 C-71.749 29.051 -71.392 26.717 -69.965 24.106 C-68.835 21.639 -68.77 19.938 -68.805 17.234 C-68.814 15.9 -68.814 15.9 -68.824 14.539 C-68.841 13.619 -68.858 12.698 -68.875 11.75 C-68.884 10.814 -68.893 9.878 -68.902 8.914 C-68.926 6.609 -68.959 4.305 -69 2 C-68.501 2.395 -68.002 2.789 -67.487 3.196 C-63.247 6.474 -59.177 9.126 -54.25 11.312 C-53.162 11.804 -52.074 12.295 -50.953 12.801 C-40.885 16.889 -29.331 15.902 -19.219 12.41 C-12.378 9.413 -5.047 5.586 0 0 Z " fill="#0D0C0B" transform="translate(547,835)"/>
<path d="M0 0 C3.651 1.501 5.633 3.589 8.188 6.562 C15.243 14.557 22.424 21.643 31.04 27.931 C36.344 31.912 40.213 36.002 41.926 42.527 C42.053 43.653 42.181 44.778 42.312 45.938 C42.453 47.081 42.594 48.224 42.738 49.402 C42.825 50.26 42.911 51.117 43 52 C45.97 51.505 45.97 51.505 49 51 C48.188 52.938 48.188 52.938 47 55 C46.01 55.33 45.02 55.66 44 56 C41.852 54.871 41.852 54.871 40 53 C39.461 50.66 39.461 50.66 39.375 48.062 C39.234 44.465 38.807 42.128 37 39 C36.484 38.072 35.969 37.144 35.438 36.188 C33.077 32.711 29.971 30.535 26.629 28.047 C21.467 24.028 16.756 19.485 12 15 C11.207 14.261 10.414 13.523 9.598 12.762 C5.476 8.809 2.558 5.115 0 0 Z " fill="#0C0B0B" transform="translate(526,726)"/>
<path d="M0 0 C9.24 0 18.48 0 28 0 C28 1.32 28 2.64 28 4 C22.838 6.091 18.348 6.304 12.875 6.25 C12.077 6.258 11.279 6.265 10.457 6.273 C3.303 6.25 3.303 6.25 0 4 C0 2.68 0 1.36 0 0 Z " fill="#F7F7F6" transform="translate(499,812)"/>
<path d="M0 0 C1.167 0.003 2.333 0.006 3.535 0.01 C5.37 0.022 5.37 0.022 7.242 0.035 C8.473 0.04 9.704 0.044 10.973 0.049 C14.021 0.061 17.069 0.077 20.117 0.098 C20.447 0.758 20.777 1.418 21.117 2.098 C7.752 2.593 7.752 2.593 -5.883 3.098 C-6.213 4.418 -6.543 5.738 -6.883 7.098 C-3.928 7.931 -1.182 8.277 1.883 8.414 C2.772 8.456 3.662 8.498 4.578 8.541 C5.499 8.58 6.419 8.62 7.367 8.66 C8.303 8.703 9.239 8.747 10.203 8.791 C12.508 8.897 14.812 8.999 17.117 9.098 C17.117 9.758 17.117 10.418 17.117 11.098 C13.722 11.185 10.326 11.238 6.93 11.285 C5.49 11.323 5.49 11.323 4.021 11.361 C-4.771 11.453 -4.771 11.453 -8.883 8.098 C-8.627 5.755 -8.29 3.419 -7.883 1.098 C-5.169 -0.259 -3.034 -0.015 0 0 Z " fill="#030302" transform="translate(505.8828125,808.90234375)"/>
<path d="M0 0 C3 1 3 1 4.645 3.91 C6.499 8.644 6.561 13.407 6.688 18.438 C6.722 19.36 6.756 20.282 6.791 21.232 C6.873 23.488 6.942 25.744 7 28 C8.32 27.67 9.64 27.34 11 27 C11.495 18.09 11.495 18.09 12 9 C12.66 8.67 13.32 8.34 14 8 C13.89 11.459 13.76 14.917 13.625 18.375 C13.594 19.36 13.563 20.345 13.531 21.359 C13.473 22.771 13.473 22.771 13.414 24.211 C13.383 25.08 13.351 25.95 13.319 26.845 C13 29 13 29 11 31 C5.432 30.432 5.432 30.432 4 29 C3.879 27.618 3.82 26.231 3.789 24.844 C3.761 23.985 3.732 23.127 3.703 22.242 C3.652 20.445 3.607 18.649 3.57 16.852 C3.354 10.769 2.244 5.659 0 0 Z " fill="#020202" transform="translate(503,911)"/>
<path d="M0 0 C0.66 0 1.32 0 2 0 C3.274 1.77 4.548 3.541 5.82 5.312 C9.212 9.495 13.092 13.174 16.974 16.899 C20.546 20.37 23.401 23.745 26 28 C21.739 27.527 19.816 25.039 17 22 C16.34 21.34 15.68 20.68 15 20 C14.037 18.858 13.079 17.712 12.125 16.562 C9.944 13.996 7.84 11.857 5 10 C4.01 10.495 4.01 10.495 3 11 C2.34 9.68 1.68 8.36 1 7 C0.67 7 0.34 7 0 7 C0 4.69 0 2.38 0 0 Z " fill="#141313" transform="translate(473,874)"/>
<path d="M0 0 C2.867 1.285 4.976 2.571 7 5 C7 5.66 7 6.32 7 7 C7.959 7.433 7.959 7.433 8.938 7.875 C11 9 11 9 12 11 C12.99 11.66 13.98 12.32 15 13 C16.077 14.112 17.118 15.261 18.125 16.438 C18.902 17.333 18.902 17.333 19.695 18.246 C21 20 21 20 22 23 C19.175 21.714 17.124 20.373 14.941 18.172 C14.39 17.619 13.839 17.066 13.271 16.496 C12.708 15.92 12.144 15.344 11.562 14.75 C11.002 14.189 10.442 13.629 9.865 13.051 C0 3.082 0 3.082 0 0 Z " fill="#181817" transform="translate(480,873)"/>
<path d="M0 0 C2.294 4.308 3.399 8.736 4.625 13.438 C4.854 14.284 5.084 15.13 5.32 16.002 C6.391 20.071 7.331 23.752 7 28 C6.34 28 5.68 28 5 28 C3.961 24.276 2.947 20.545 1.938 16.812 C1.496 15.23 1.496 15.23 1.045 13.615 C0.771 12.594 0.497 11.572 0.215 10.52 C-0.17 9.113 -0.17 9.113 -0.563 7.679 C-1.032 4.804 -0.747 2.796 0 0 Z " fill="#050505" transform="translate(591,738)"/>
<path d="M0 0 C3 1 3 1 4 3 C5.392 3.402 5.392 3.402 6.812 3.812 C10.666 5.248 11.896 6.493 14 10 C14.875 13.688 14.875 13.688 15 17 C14.34 17.66 13.68 18.32 13 19 C12.753 17.763 12.505 16.525 12.25 15.25 C11.288 11.484 10.346 9.231 7 7 C3.832 6.666 3.832 6.666 1 7 C0.67 4.69 0.34 2.38 0 0 Z " fill="#050505" transform="translate(572,765)"/>
<path d="M0 0 C3.141 1.833 6.226 3.637 9 6 C9 6.66 9 7.32 9 8 C9.66 8 10.32 8 11 8 C12.289 9.645 12.289 9.645 13.625 11.812 C14.071 12.52 14.517 13.228 14.977 13.957 C16 16 16 16 16 19 C15.34 19 14.68 19 14 19 C13.227 17.484 13.227 17.484 12.438 15.938 C9.382 10.568 5.117 6.411 0 3 C0 2.01 0 1.02 0 0 Z " fill="#121211" transform="translate(557,746)"/>
<path d="M0 0 C1.103 3.31 1.135 5.681 0 9 C-1.938 10.188 -1.938 10.188 -4 11 C-4.66 11.66 -5.32 12.32 -6 13 C-7.653 14.023 -9.318 15.026 -11 16 C-9.535 12.783 -7.703 10.196 -5.5 7.438 C-3.556 4.995 -1.733 2.6 0 0 Z " fill="#141414" transform="translate(551,870)"/>
<path d="M0 0 C0.66 0.33 1.32 0.66 2 1 C-2.75 5.875 -2.75 5.875 -5 7 C-3.707 4.116 -2.341 2.128 0 0 Z M-6 7 C-6 10 -6 10 -7 13 C-7.66 13 -8.32 13 -9 13 C-8.67 13.99 -8.34 14.98 -8 16 C-8.99 16 -9.98 16 -11 16 C-10.67 17.32 -10.34 18.64 -10 20 C-11.32 20.33 -12.64 20.66 -14 21 C-12.58 15.321 -9.606 11.468 -6 7 Z " fill="#111110" transform="translate(570,806)"/>
<path d="M0 0 C0.99 0.33 1.98 0.66 3 1 C3.33 4.3 3.66 7.6 4 11 C5.98 10.67 7.96 10.34 10 10 C9.188 11.938 9.188 11.938 8 14 C5 15 5 15 2.859 13.949 C0.32 11.287 0.406 9.442 0.25 5.812 C0.193 4.726 0.137 3.639 0.078 2.52 C0.052 1.688 0.027 0.857 0 0 Z " fill="#040404" transform="translate(565,767)"/>
<path d="M0 0 C6.313 1.343 10.796 4.248 16 8 C15.67 8.66 15.34 9.32 15 10 C9.39 7.36 3.78 4.72 -2 2 C-1.34 1.34 -0.68 0.68 0 0 Z " fill="#121211" transform="translate(604,877)"/>
<path d="M0 0 C0.606 0.121 1.212 0.242 1.836 0.367 C3.093 0.619 3.093 0.619 4.375 0.875 C7.214 1.443 10.052 2.01 12.891 2.578 C14.244 2.849 14.244 2.849 15.625 3.125 C17.812 3.562 17.812 3.562 20 4 C19.67 4.66 19.34 5.32 19 6 C16.582 5.717 14.166 5.424 11.75 5.125 C11.068 5.046 10.386 4.968 9.684 4.887 C6.093 4.434 3.107 3.906 0 2 C0 1.34 0 0.68 0 0 Z " fill="#060606" transform="translate(493,848)"/>
<path d="M0 0 C1.108 3.325 0.845 5.622 0 9 C2.962 8.387 4.381 7.746 7 6 C7 6.99 7 7.98 7 9 C4.5 11.188 4.5 11.188 2 13 C0.062 12.312 0.062 12.312 -2 11 C-2.938 8.75 -2.938 8.75 -3 6 C-1.562 2.688 -1.562 2.688 0 0 Z " fill="#050505" transform="translate(535,930)"/>
<path d="M0 0 C8.961 -0.218 17.222 -0.044 26 2 C26 2.66 26 3.32 26 4 C21.839 4.082 18.053 3.982 14 3 C14 2.34 14 1.68 14 1 C9.38 1 4.76 1 0 1 C0 0.67 0 0.34 0 0 Z " fill="#1D1C1C" transform="translate(501,675)"/>
<path d="M0 0 C0.66 0.33 1.32 0.66 2 1 C0.725 3.55 -0.185 3.66 -2.812 4.625 C-3.5 4.885 -4.187 5.146 -4.895 5.414 C-7 6 -7 6 -11 6 C-11 6.66 -11 7.32 -11 8 C-12.32 8.33 -13.64 8.66 -15 9 C-14 6 -14 6 -11.602 4.648 C-10.619 4.228 -9.637 3.808 -8.625 3.375 C-7.648 2.95 -6.671 2.524 -5.664 2.086 C-3.801 1.326 -1.909 0.636 0 0 Z " fill="#131313" transform="translate(424,882)"/>
<path d="M0 0 C0.66 0 1.32 0 2 0 C2 0.66 2 1.32 2 2 C2.701 2.082 3.403 2.165 4.125 2.25 C7.653 3.17 10.061 4.881 13 7 C12.67 7.66 12.34 8.32 12 9 C10.228 8.212 8.457 7.419 6.688 6.625 C5.701 6.184 4.715 5.743 3.699 5.289 C1 4 1 4 -2 2 C-1.34 2 -0.68 2 0 2 C0 1.34 0 0.68 0 0 Z " fill="#131312" transform="translate(538,672)"/>
<path d="M0 0 C1.45 2.901 0.454 4.56 -0.438 7.625 C-0.725 8.628 -1.012 9.631 -1.309 10.664 C-1.651 11.82 -1.651 11.82 -2 13 C-2.33 13 -2.66 13 -3 13 C-3.33 11.02 -3.66 9.04 -4 7 C-5.98 7.99 -5.98 7.99 -8 9 C-6.417 4.726 -3.494 2.735 0 0 Z " fill="#060505" transform="translate(547,835)"/>
<path d="M0 0 C1.8 2.7 2.934 5.067 4.125 8.062 C4.478 8.94 4.831 9.818 5.195 10.723 C6 13 6 13 6 15 C5.34 15 4.68 15 4 15 C4 14.34 4 13.68 4 13 C3.01 12.67 2.02 12.34 1 12 C0.856 11.092 0.711 10.185 0.562 9.25 C0.081 6.146 0.081 6.146 -0.625 3.75 C-1 2 -1 2 0 0 Z " fill="#131212" transform="translate(577,720)"/>
<path d="M0 0 C-0.33 0.99 -0.66 1.98 -1 3 C-8.92 2.67 -16.84 2.34 -25 2 C-25 1.67 -25 1.34 -25 1 C-22.333 0.83 -19.667 0.664 -17 0.5 C-16.256 0.452 -15.512 0.405 -14.746 0.355 C-9.82 0.056 -4.935 -0.045 0 0 Z " fill="#2F2F2E" transform="translate(525,669)"/>
<path d="M0 0 C4.29 0.66 8.58 1.32 13 2 C9 5 9 5 6.641 4.855 C5.852 4.635 5.063 4.415 4.25 4.188 C3.451 3.975 2.652 3.762 1.828 3.543 C0.923 3.274 0.923 3.274 0 3 C0 2.01 0 1.02 0 0 Z " fill="#161616" transform="translate(568,875)"/>
<path d="M0 0 C0.66 0.33 1.32 0.66 2 1 C0.515 2.485 0.515 2.485 -1 4 C-0.34 4.33 0.32 4.66 1 5 C1 5.99 1 6.98 1 8 C-1.97 7.01 -4.94 6.02 -8 5 C-2.6 1.4 -2.6 1.4 0 0 Z " fill="#111110" transform="translate(600,870)"/>
<path d="M0 0 C0.33 0 0.66 0 1 0 C1.125 2.875 1.125 2.875 1 6 C-1 8 -1 8 -3.5 8.25 C-6 8 -6 8 -8 6 C-8 5.01 -8 4.02 -8 3 C-7.34 3 -6.68 3 -6 3 C-5.67 3.66 -5.34 4.32 -5 5 C-4.01 5 -3.02 5 -2 5 C-1.34 3.35 -0.68 1.7 0 0 Z " fill="#050504" transform="translate(651,927)"/>
<path d="M0 0 C0.33 0 0.66 0 1 0 C1 2.64 1 5.28 1 8 C3.64 8.33 6.28 8.66 9 9 C9 9.33 9 9.66 9 10 C5.7 10 2.4 10 -1 10 C-1.125 2.25 -1.125 2.25 0 0 Z " fill="#050505" transform="translate(558,859)"/>
<path d="M0 0 C1.39 2.78 0.614 4.12 -0.25 7.062 C-0.503 7.961 -0.755 8.859 -1.016 9.785 C-1.34 10.516 -1.665 11.247 -2 12 C-2.99 12.33 -3.98 12.66 -5 13 C-4.69 11.562 -4.377 10.125 -4.062 8.688 C-3.888 7.887 -3.714 7.086 -3.535 6.262 C-3 4 -3 4 -2 1 C-1.34 0.67 -0.68 0.34 0 0 Z " fill="#141313" transform="translate(432,784)"/>
<path d="M0 0 C0.799 0.111 1.598 0.222 2.422 0.336 C3.327 0.479 3.327 0.479 4.25 0.625 C4.58 1.615 4.91 2.605 5.25 3.625 C0.63 2.965 -3.99 2.305 -8.75 1.625 C-4.77 -0.365 -4.073 -0.599 0 0 Z " fill="#171616" transform="translate(571.75,868.375)"/>
<path d="M0 0 C0.66 0.66 1.32 1.32 2 2 C0.879 2.839 -0.247 3.671 -1.375 4.5 C-2.315 5.196 -2.315 5.196 -3.273 5.906 C-5 7 -5 7 -7 7 C-6.312 4.625 -6.312 4.625 -5 2 C-2.375 0.688 -2.375 0.688 0 0 Z " fill="#111110" transform="translate(473,679)"/>
<path d="M0 0 C0.33 0.66 0.66 1.32 1 2 C-0.093 3.342 -1.2 4.673 -2.312 6 C-3.235 7.114 -3.235 7.114 -4.176 8.25 C-6 10 -6 10 -9 10 C-7.88 8.517 -6.754 7.039 -5.625 5.562 C-4.999 4.739 -4.372 3.915 -3.727 3.066 C-2 1 -2 1 0 0 Z " fill="#040303" transform="translate(581,796)"/>
<path d="M0 0 C0.66 0 1.32 0 2 0 C1 3 1 3 -1 6 C-1.633 8.113 -1.633 8.113 -2 10 C-2.99 10 -3.98 10 -5 10 C-5 6.656 -4.525 5.932 -2.625 3.312 C-2.184 2.69 -1.743 2.067 -1.289 1.426 C-0.864 0.955 -0.438 0.485 0 0 Z " fill="#131313" transform="translate(525,902)"/>
<path d="M0 0 C0 3 0 3 -1.75 5.043 C-2.492 5.751 -3.235 6.458 -4 7.188 C-4.742 7.903 -5.485 8.618 -6.25 9.355 C-7.116 10.17 -7.116 10.17 -8 11 C-8.66 10.67 -9.32 10.34 -10 10 C-8.9 8.705 -7.795 7.414 -6.688 6.125 C-6.073 5.406 -5.458 4.686 -4.824 3.945 C-3 2 -3 2 0 0 Z " fill="#060505" transform="translate(610,862)"/>
<path d="M0 0 C0.99 0 1.98 0 3 0 C3.027 1.625 3.046 3.25 3.062 4.875 C3.074 5.78 3.086 6.685 3.098 7.617 C3 10 3 10 2 12 C1.34 11.67 0.68 11.34 0 11 C0 7.37 0 3.74 0 0 Z " fill="#020202" transform="translate(576,777)"/>
<path d="M0 0 C0.33 0 0.66 0 1 0 C0.67 2.64 0.34 5.28 0 8 C1.32 8.33 2.64 8.66 4 9 C2.35 9.33 0.7 9.66 -1 10 C-2.231 4.585 -2.231 4.585 -1.062 1.625 C-0.537 0.821 -0.537 0.821 0 0 Z " fill="#111110" transform="translate(374,925)"/>
<path d="M0 0 C0.66 0.33 1.32 0.66 2 1 C1.49 5.389 0.478 8.337 -2 12 C-3.409 9.182 -2.509 7.827 -1.562 4.875 C-1.275 3.965 -0.988 3.055 -0.691 2.117 C-0.463 1.419 -0.235 0.72 0 0 Z " fill="#151414" transform="translate(545,918)"/>
<path d="M0 0 C-2 3 -2 3 -4.164 3.73 C-5.382 3.957 -5.382 3.957 -6.625 4.188 C-7.851 4.425 -7.851 4.425 -9.102 4.668 C-10.041 4.832 -10.041 4.832 -11 5 C-7.179 1.052 -5.523 -0.145 0 0 Z " fill="#070606" transform="translate(538,845)"/>
<path d="M0 0 C2.12 3.534 2.532 6.944 3 11 C2.01 10.67 1.02 10.34 0 10 C-1.125 2.25 -1.125 2.25 0 0 Z " fill="#1D1C1C" transform="translate(588,754)"/>
<path d="M0 0 C1.5 1.312 1.5 1.312 3 3 C3 3.99 3 4.98 3 6 C3.66 6 4.32 6 5 6 C4.34 7.32 3.68 8.64 3 10 C0.704 6.555 0.46 4.062 0 0 Z " fill="#121111" transform="translate(484,921)"/>
<path d="M0 0 C0.99 0.33 1.98 0.66 3 1 C2.34 3.97 1.68 6.94 1 10 C0.34 10 -0.32 10 -1 10 C-0.67 6.7 -0.34 3.4 0 0 Z " fill="#050504" transform="translate(556,876)"/>
<path d="M0 0 C4.219 -0.196 7.17 0.198 11 2 C11 2.33 11 2.66 11 3 C9.542 3.027 8.083 3.046 6.625 3.062 C5.813 3.074 5.001 3.086 4.164 3.098 C2 3 2 3 0 2 C0 1.34 0 0.68 0 0 Z " fill="#252423" transform="translate(504,844)"/>
<path d="M0 0 C1.467 3.815 0.433 6.29 -1 10 C-1.66 10 -2.32 10 -3 10 C-2.692 8.52 -2.378 7.041 -2.062 5.562 C-1.801 4.327 -1.801 4.327 -1.535 3.066 C-1 1 -1 1 0 0 Z " fill="#040404" transform="translate(553,895)"/>
<path d="M0 0 C2.585 4.38 1.815 7.111 1 12 C-0.551 10.793 -0.551 10.793 -2 9 C-1.855 6.738 -1.855 6.738 -1.188 4.312 C-0.975 3.504 -0.762 2.696 -0.543 1.863 C-0.364 1.248 -0.185 0.634 0 0 Z " fill="#171615" transform="translate(554,830)"/>
<path d="M0 0 C0.33 0 0.66 0 1 0 C1 2.64 1 5.28 1 8 C-0.98 8.99 -0.98 8.99 -3 10 C-2.692 8.52 -2.378 7.041 -2.062 5.562 C-1.801 4.327 -1.801 4.327 -1.535 3.066 C-1 1 -1 1 0 0 Z " fill="#030403" transform="translate(458,770)"/>
<path d="M0 0 C0 0.66 0 1.32 0 2 C-3.3 2.33 -6.6 2.66 -10 3 C-9 1 -9 1 -7.25 0.375 C-4.795 -0.034 -2.484 -0.069 0 0 Z " fill="#020202" transform="translate(449,870)"/>
<path d="M0 0 C0.66 0 1.32 0 2 0 C0.631 2.95 -0.878 5.525 -3 8 C-3.66 8 -4.32 8 -5 8 C-3.631 5.05 -2.122 2.475 0 0 Z " fill="#020201" transform="translate(457,756)"/>
<path d="M0 0 C0 3 0 3 -2.312 5.688 C-5 8 -5 8 -8 8 C-5.36 5.36 -2.72 2.72 0 0 Z " fill="#131312" transform="translate(515,729)"/>
<path d="M0 0 C1.648 2.967 2.443 5.656 3 9 C2.01 8.67 1.02 8.34 0 8 C-1.125 2.25 -1.125 2.25 0 0 Z " fill="#1D1D1C" transform="translate(474,908)"/>
<path d="M0 0 C0 3.258 -0.552 5.104 -2 8 C-2.99 8.33 -3.98 8.66 -5 9 C-3.909 5.225 -3.092 2.53 0 0 Z " fill="#050504" transform="translate(388,910)"/>
<path d="M0 0 C2.97 0.33 5.94 0.66 9 1 C5.565 3.29 4.015 3.178 0 3 C0 2.01 0 1.02 0 0 Z " fill="#20201F" transform="translate(556,873)"/>
<path d="M0 0 C0.33 0.99 0.66 1.98 1 3 C-0.32 4.32 -1.64 5.64 -3 7 C-3.33 5.68 -3.66 4.36 -4 3 C-2.68 2.01 -1.36 1.02 0 0 Z M-6 6 C-5.01 6.495 -5.01 6.495 -4 7 C-4.99 7.495 -4.99 7.495 -6 8 C-6 7.34 -6 6.68 -6 6 Z " fill="#131312" transform="translate(555,814)"/>
<path d="M0 0 C-1.188 1.5 -1.188 1.5 -3 3 C-5.688 3.188 -5.688 3.188 -8 3 C-8.33 2.34 -8.66 1.68 -9 1 C-5.927 0.089 -3.199 -0.089 0 0 Z " fill="#171717" transform="translate(444,878)"/>
<path d="M0 0 C1.945 2.918 2.453 4.625 3 8 C0 7 0 7 -1.188 4.938 C-1.59 3.978 -1.59 3.978 -2 3 C-1.34 2.01 -0.68 1.02 0 0 Z " fill="#151514" transform="translate(471,832)"/>
<path d="M0 0 C1.648 2.967 2.443 5.656 3 9 C2.01 8.67 1.02 8.34 0 8 C-1.125 2.25 -1.125 2.25 0 0 Z " fill="#191919" transform="translate(603,814)"/>
<path d="M0 0 C0.66 0.66 1.32 1.32 2 2 C-0.97 4.475 -0.97 4.475 -4 7 C-4 6.01 -4 5.02 -4 4 C-3.01 3.67 -2.02 3.34 -1 3 C-0.67 2.01 -0.34 1.02 0 0 Z " fill="#060504" transform="translate(465,685)"/>
<path d="M0 0 C0 0.66 0 1.32 0 2 C-2.812 3.562 -2.812 3.562 -6 5 C-6.99 4.67 -7.98 4.34 -9 4 C-2.25 0 -2.25 0 0 0 Z " fill="#030303" transform="translate(488,672)"/>
<path d="M0 0 C-1 3 -1 3 -2.875 4.25 C-5 5 -5 5 -8 4 C-2.25 0 -2.25 0 0 0 Z " fill="#040303" transform="translate(499,743)"/>
<path d="M0 0 C2.125 3.188 2.502 5.265 3 9 C0.938 7.312 0.938 7.312 -1 5 C-0.75 2.25 -0.75 2.25 0 0 Z " fill="#1D1C1C" transform="translate(583,736)"/>
</svg>
