<?xml version="1.0" encoding="UTF-8"?>
<!-- Generator: visioncortex VTracer 0.6.4 -->
<svg version="1.1" xmlns="http://www.w3.org/2000/svg" width="1024" height="1024">
<path d="M0 0 C337.92 0 675.84 0 1024 0 C1024 337.92 1024 675.84 1024 1024 C686.08 1024 348.16 1024 0 1024 C0 686.08 0 348.16 0 0 Z " fill="#0D0D0C" transform="translate(0,0)"/>
<path d="M0 0 C0.869 -0.004 1.738 -0.008 2.634 -0.012 C4.059 -0.01 4.059 -0.01 5.514 -0.009 C7.033 -0.013 7.033 -0.013 8.584 -0.018 C11.989 -0.027 15.395 -0.028 18.8 -0.03 C21.237 -0.034 23.675 -0.039 26.112 -0.045 C32.743 -0.058 39.373 -0.064 46.004 -0.069 C50.146 -0.072 54.288 -0.076 58.43 -0.08 C69.905 -0.092 81.38 -0.103 92.854 -0.106 C93.588 -0.106 94.323 -0.107 95.079 -0.107 C95.815 -0.107 96.551 -0.107 97.31 -0.107 C98.801 -0.108 100.292 -0.108 101.784 -0.109 C102.524 -0.109 103.263 -0.109 104.025 -0.109 C116.004 -0.113 127.983 -0.131 139.962 -0.154 C152.268 -0.178 164.574 -0.19 176.88 -0.192 C183.786 -0.192 190.692 -0.198 197.598 -0.216 C204.097 -0.233 210.596 -0.235 217.095 -0.226 C219.478 -0.225 221.86 -0.23 224.242 -0.24 C227.501 -0.252 230.76 -0.246 234.018 -0.236 C234.955 -0.244 235.892 -0.252 236.858 -0.26 C245.576 -0.196 253.695 1.282 260.178 7.46 C266.255 14.377 266.802 21.621 266.815 30.53 C266.818 31.324 266.822 32.117 266.825 32.935 C266.83 34.608 266.832 36.28 266.832 37.953 C266.835 40.492 266.853 43.03 266.872 45.569 C266.875 47.202 266.877 48.835 266.877 50.467 C266.885 51.217 266.892 51.966 266.899 52.738 C266.86 62.036 264.363 68.402 258.585 75.756 C251.443 81.531 242.936 82.725 234.008 82.626 C232.996 82.631 231.984 82.636 230.942 82.641 C227.583 82.652 224.226 82.635 220.867 82.617 C218.447 82.619 216.026 82.623 213.606 82.629 C207.733 82.637 201.861 82.628 195.989 82.609 C189.141 82.588 182.294 82.588 175.446 82.589 C163.225 82.59 151.003 82.572 138.782 82.543 C126.938 82.515 115.095 82.501 103.252 82.502 C102.157 82.502 102.157 82.502 101.04 82.502 C100.311 82.502 99.583 82.502 98.832 82.503 C85.324 82.504 71.815 82.492 58.306 82.474 C53.539 82.468 48.773 82.466 44.006 82.465 C37.585 82.464 31.165 82.451 24.745 82.431 C22.391 82.425 20.037 82.423 17.684 82.424 C14.466 82.425 11.249 82.413 8.032 82.399 C6.641 82.403 6.641 82.403 5.222 82.408 C-3.066 82.347 -10.819 81.649 -17.353 76.131 C-24.248 68.691 -25.661 61.031 -25.689 51.17 C-25.696 50.34 -25.702 49.509 -25.709 48.653 C-25.719 46.907 -25.724 45.161 -25.724 43.415 C-25.728 40.77 -25.764 38.127 -25.802 35.483 C-25.871 25.11 -25.412 16.439 -19.103 7.756 C-13.736 2.633 -7.42 0.012 0 0 Z " fill="#F8FDFE" transform="translate(391.35298347473145,822.8685722351074)"/>
<path d="M0 0 C0.99 0.722 1.98 1.444 3 2.188 C9.919 8.089 14.55 17.105 16 26 C16.853 39.132 15.466 50.578 7 61 C4.5 63.75 4.5 63.75 2 66 C1.154 66.825 0.309 67.65 -0.562 68.5 C-8.633 75.006 -18.813 77.407 -29 77 C-41.395 75.361 -51.123 69.998 -59.125 60.453 C-65.627 51.946 -67.36 44.136 -67.375 33.625 C-67.399 32.73 -67.424 31.836 -67.449 30.914 C-67.478 24.41 -66.1 19.695 -63 14 C-62.542 13.153 -62.085 12.306 -61.613 11.434 C-55.943 2.733 -48.929 -3.679 -39 -7 C-38.316 -7.236 -37.631 -7.472 -36.926 -7.715 C-24.014 -11.366 -10.529 -7.897 0 0 Z " fill="#0D0D0C" transform="translate(538,682)"/>
<path d="M0 0 C0.99 0.722 1.98 1.444 3 2.188 C9.919 8.089 14.55 17.105 16 26 C16.853 39.132 15.466 50.578 7 61 C4.5 63.75 4.5 63.75 2 66 C1.154 66.825 0.309 67.65 -0.562 68.5 C-8.633 75.006 -18.813 77.407 -29 77 C-41.395 75.361 -51.123 69.998 -59.125 60.453 C-65.627 51.946 -67.36 44.136 -67.375 33.625 C-67.399 32.73 -67.424 31.836 -67.449 30.914 C-67.478 24.41 -66.1 19.695 -63 14 C-62.542 13.153 -62.085 12.306 -61.613 11.434 C-55.943 2.733 -48.929 -3.679 -39 -7 C-38.316 -7.236 -37.631 -7.472 -36.926 -7.715 C-24.014 -11.366 -10.529 -7.897 0 0 Z M-58.242 8.426 C-65.078 18.437 -67.033 29.109 -66 41 C-63.265 53.038 -57.703 62.166 -47.375 69 C-38.164 74.618 -27.457 76.124 -16.812 74.438 C-6.363 71.846 2.518 65.631 8.531 56.734 C14.782 46.05 15.753 33.776 13.348 21.734 C9.746 10.913 3.127 2.332 -7 -3 C-25.623 -10.884 -45.036 -7.32 -58.242 8.426 Z " fill="#E6E7E7" transform="translate(538,682)"/>
<path d="M0 0 C0.892 0.009 1.784 0.018 2.703 0.027 C3.379 0.039 4.054 0.051 4.75 0.062 C4.75 0.393 4.75 0.722 4.75 1.062 C3.806 1.198 2.863 1.333 1.891 1.473 C-9.787 3.431 -20.112 7.16 -27.785 16.746 C-34.222 26.924 -36.293 37.185 -35.25 49.062 C-32.509 60.75 -27.671 69.431 -17.562 76 C-14.516 77.822 -11.444 79.514 -8.25 81.062 C-11.25 82.062 -11.25 82.062 -13.633 81.199 C-24.171 75.63 -32.329 67.38 -36.324 56.004 C-37.625 51.272 -37.618 46.566 -37.625 41.688 C-37.649 40.793 -37.674 39.898 -37.699 38.977 C-37.728 32.472 -36.35 27.757 -33.25 22.062 C-32.792 21.216 -32.335 20.369 -31.863 19.496 C-25.716 10.062 -18.107 3.782 -7.316 0.469 C-4.837 -0.019 -2.525 -0.033 0 0 Z " fill="#F1F1F1" transform="translate(508.25,673.9375)"/>
<path d="M0 0 C0.66 1.32 1.32 2.64 2 4 C1.01 4.495 1.01 4.495 0 5 C0.33 5.66 0.66 6.32 1 7 C2.32 6.67 3.64 6.34 5 6 C5.33 4.35 5.66 2.7 6 1 C6.33 1 6.66 1 7 1 C7.25 6.625 7.25 6.625 5 10 C2.375 10.188 2.375 10.188 0 10 C0 9.34 0 8.68 0 8 C-2.475 9.485 -2.475 9.485 -5 11 C-2.509 11.687 -0.621 12 2 12 C1.814 12.722 1.629 13.444 1.438 14.188 C0.98 17.128 1.265 19.141 2 22 C-1.3 22 -4.6 22 -8 22 C-7.67 21.34 -7.34 20.68 -7 20 C-6.75 16.5 -6.75 16.5 -7 13 C-7.66 12.34 -8.32 11.68 -9 11 C-9 10.34 -9 9.68 -9 9 C-8.01 8.34 -7.02 7.68 -6 7 C-5.27 4.437 -5.27 4.437 -5 2 C-3.333 2 -1.667 2 0 2 C0 1.34 0 0.68 0 0 Z " fill="#070707" transform="translate(515,703)"/>
<path d="M0 0 C0.99 0 1.98 0 3 0 C3.042 2.333 3.041 4.667 3 7 C2.67 7.33 2.34 7.66 2 8 C4.97 8.33 7.94 8.66 11 9 C10.34 10.65 9.68 12.3 9 14 C6.312 14.438 6.312 14.438 3 14 C-0.043 11.217 -1.805 8.254 -2.438 4.188 C-2 2 -2 2 0 0 Z " fill="#ECEDED" transform="translate(506,716)"/>
<path d="M0 0 C15.068 0.434 24.62 4.245 36 14 C35.34 14.66 34.68 15.32 34 16 C33.505 14.515 33.505 14.515 33 13 C31.234 11.991 31.234 11.991 29 11 C28.196 10.381 27.391 9.763 26.562 9.125 C19.055 4.031 8.804 2.51 0 1 C0 0.67 0 0.34 0 0 Z " fill="#E6E7E6" transform="translate(508,673)"/>
<path d="M0 0 C0.66 0 1.32 0 2 0 C3.619 2.572 4.044 3.677 3.625 6.75 C3.419 7.492 3.212 8.235 3 9 C1.68 9 0.36 9 -1 9 C-1.625 6.188 -1.625 6.188 -2 3 C-1.34 2.01 -0.68 1.02 0 0 Z " fill="#F0F2F2" transform="translate(517,714)"/>
<path d="M0 0 C3 2 3 2 3.688 5.125 C3.791 6.074 3.894 7.023 4 8 C3.01 8.66 2.02 9.32 1 10 C-0.562 8.812 -0.562 8.812 -2 7 C-1.739 4.325 -1.2 2.399 0 0 Z " fill="#EFF0F0" transform="translate(506,702)"/>
<path d="M0 0 C0.99 0 1.98 0 3 0 C3 2.31 3 4.62 3 7 C1.062 7.562 1.062 7.562 -1 8 C-2 7 -2 7 -2.188 4.562 C-2 2 -2 2 0 0 Z " fill="#F9FAF9" transform="translate(506,716)"/>
<path d="M0 0 C0.66 0 1.32 0 2 0 C4 3 4 3 3.625 5.188 C3.419 5.786 3.212 6.384 3 7 C1.68 7.33 0.36 7.66 -1 8 C-1.625 5.688 -1.625 5.688 -2 3 C-1.34 2.01 -0.68 1.02 0 0 Z " fill="#8D9081" transform="translate(517,703)"/>
<path d="M0 0 C1.812 1.562 1.812 1.562 3 3 C2.67 3.99 2.34 4.98 2 6 C1.505 5.299 1.01 4.597 0.5 3.875 C-1.755 1.749 -1.755 1.749 -4.047 2.18 C-6.056 2.7 -8.031 3.344 -10 4 C-9 1 -9 1 -7.25 -0.25 C-4.383 -1.206 -2.852 -0.951 0 0 Z " fill="#515636" transform="translate(517,699)"/>
<path d="M0 0 C0.66 0.33 1.32 0.66 2 1 C1.67 3.97 1.34 6.94 1 10 C0.01 10 -0.98 10 -2 10 C-1.86 8.52 -1.712 7.041 -1.562 5.562 C-1.481 4.739 -1.4 3.915 -1.316 3.066 C-1 1 -1 1 0 0 Z " fill="#161616" transform="translate(474,704)"/>
<path d="M0 0 C0 0.66 0 1.32 0 2 C0.66 2.33 1.32 2.66 2 3 C-1 5 -1 5 -3.125 4.75 C-5 4 -5 4 -6 2 C-3 0 -3 0 0 0 Z " fill="#EDEFEE" transform="translate(515,711)"/>
<path d="M0 0 C0.66 0.33 1.32 0.66 2 1 C-0.97 4.96 -0.97 4.96 -4 9 C-4.99 8.67 -5.98 8.34 -7 8 C-4.69 5.36 -2.38 2.72 0 0 Z " fill="#151515" transform="translate(487,683)"/>
<path d="M0 0 C2.479 2.201 3.612 4.064 4.688 7.188 C5.065 8.261 5.065 8.261 5.449 9.355 C5.631 9.898 5.813 10.441 6 11 C4.078 10.289 4.078 10.289 2 9 C1.172 6.836 1.172 6.836 0.75 4.375 C0.6 3.558 0.451 2.74 0.297 1.898 C0.15 0.959 0.15 0.959 0 0 Z " fill="#D9D9D9" transform="translate(471,724)"/>
<path d="M0 0 C3.817 1.555 6.192 4.036 9 7 C8.01 7 7.02 7 6 7 C6 6.34 6 5.68 6 5 C5.381 4.732 4.763 4.464 4.125 4.188 C2 3 2 3 0 0 Z " fill="#D7D7D8" transform="translate(535,681)"/>
<path d="M0 0 C0 0.66 0 1.32 0 2 C-4.153 5.115 -4.153 5.115 -7.312 4.688 C-7.869 4.461 -8.426 4.234 -9 4 C-2.25 0 -2.25 0 0 0 Z " fill="#DCDDDC" transform="translate(496,677)"/>
</svg>
