<?xml version="1.0" encoding="UTF-8"?>
<!-- Generator: visioncortex VTracer 0.6.4 -->
<svg version="1.1" xmlns="http://www.w3.org/2000/svg" width="1024" height="1024">
<path d="M0 0 C337.92 0 675.84 0 1024 0 C1024 337.92 1024 675.84 1024 1024 C686.08 1024 348.16 1024 0 1024 C0 686.08 0 348.16 0 0 Z " fill="#0C0C0A" transform="translate(0,0)"/>
<path d="M0 0 C0.66 0 1.32 0 2 0 C2.056 1.597 2.056 1.597 2.113 3.227 C2.983 24.738 2.983 24.738 14.312 42.312 C20.966 47.659 28.947 49.024 37.25 49.562 C38.513 49.646 39.777 49.73 41.078 49.816 C42.524 49.907 42.524 49.907 44 50 C43.505 50.99 43.505 50.99 43 52 C40.391 52.492 37.815 52.89 35.188 53.25 C25.676 54.756 15.266 57.516 9.242 65.66 C3.149 77.138 2.163 89.235 2 102 C1.34 102 0.68 102 0 102 C-0.056 100.494 -0.056 100.494 -0.113 98.957 C-0.943 78.565 -0.943 78.565 -11.25 61.75 C-17.702 56.32 -24.794 54.321 -33 53.25 C-34.305 53.062 -34.305 53.062 -35.637 52.871 C-37.756 52.568 -39.878 52.282 -42 52 C-42 51.34 -42 50.68 -42 50 C-40.658 49.944 -40.658 49.944 -39.289 49.887 C-28.94 49.324 -20.453 48.185 -12 42 C-10.515 41.505 -10.515 41.505 -9 41 C-7.873 39.173 -7.873 39.173 -7 37 C-6.67 36.337 -6.34 35.675 -6 34.992 C-0.689 23.747 -0.506 12.223 0 0 Z " fill="#DCD6B8" transform="translate(851,102)"/>
<path d="M0 0 C0.33 0 0.66 0 1 0 C1.04 0.584 1.079 1.168 1.12 1.769 C1.768 19.829 1.768 19.829 10.562 34.875 C18.016 40.738 26.699 42.596 36 43 C32.779 44.862 30.052 45.342 26.375 45.75 C18.954 46.945 12.968 49.373 8.117 55.301 C1.919 64.928 1.605 74.808 1 86 C-1.925 81.504 -1.68 76.099 -2.035 70.906 C-2.693 63.509 -4.946 57.116 -10.75 52.188 C-18.606 45.856 -27.176 45.173 -37 44 C-37 43.67 -37 43.34 -37 43 C-35.892 42.961 -35.892 42.961 -34.762 42.922 C-25.075 42.38 -15.714 40.652 -8.434 33.773 C-2.003 25.819 -1.819 16.167 -1.281 6.398 C-1 3 -1 3 0 0 Z " fill="#DDD8BA" transform="translate(102,711)"/>
<path d="M0 0 C1.494 0.054 2.986 0.181 4.473 0.34 C5.372 0.433 6.271 0.527 7.197 0.623 C8.143 0.727 9.088 0.831 10.062 0.938 C11.012 1.037 11.961 1.137 12.939 1.24 C15.294 1.489 17.647 1.742 20 2 C19.67 2.66 19.34 3.32 19 4 C12.996 5.092 7.088 5.112 1 5 C0.34 3.68 -0.32 2.36 -1 1 C-0.67 0.67 -0.34 0.34 0 0 Z " fill="#D0CBB0" transform="translate(875,150)"/>
<path d="M0 0 C0.33 0 0.66 0 1 0 C1.223 2.875 1.429 5.749 1.625 8.625 C1.689 9.433 1.754 10.241 1.82 11.074 C2.133 15.878 1.92 19.471 0 24 C-2.093 20.861 -2.236 20.388 -2.012 16.875 C-1.965 16.086 -1.918 15.297 -1.869 14.484 C-1.779 13.255 -1.779 13.255 -1.688 12 C-1.639 11.18 -1.591 10.36 -1.541 9.516 C-1.321 6.099 -1.09 3.269 0 0 Z " fill="#D0CCB6" transform="translate(102,711)"/>
<path d="M0 0 C0.66 0 1.32 0 2 0 C2.054 3.063 2.094 6.125 2.125 9.188 C2.15 10.484 2.15 10.484 2.176 11.807 C2.21 16.322 2.156 19.901 0 24 C-0.33 24 -0.66 24 -1 24 C-0.67 16.08 -0.34 8.16 0 0 Z " fill="#CECBB8" transform="translate(851,102)"/>
<path d="M0 0 C0.33 0 0.66 0 1 0 C0.94 1.459 0.851 2.918 0.75 4.375 C0.704 5.187 0.657 5.999 0.609 6.836 C0 9 0 9 -2.047 10.289 C-3.014 10.641 -3.014 10.641 -4 11 C-4 8.69 -4 6.38 -4 4 C-3.67 4.66 -3.34 5.32 -3 6 C-2.34 6 -1.68 6 -1 6 C-0.67 4.02 -0.34 2.04 0 0 Z " fill="#E5E0C8" transform="translate(854,177)"/>
<path d="M0 0 C0 0.66 0 1.32 0 2 C-4.95 1.67 -9.9 1.34 -15 1 C-15 0.67 -15 0.34 -15 0 C-13.063 -0.195 -11.126 -0.381 -9.188 -0.562 C-8.109 -0.667 -7.03 -0.771 -5.918 -0.879 C-3 -1 -3 -1 0 0 Z " fill="#E5E4D0" transform="translate(80,754)"/>
</svg>
