<?xml version="1.0" encoding="UTF-8"?>
<!-- Generator: visioncortex VTracer 0.6.4 -->
<svg version="1.1" xmlns="http://www.w3.org/2000/svg" width="1024" height="1024">
<path d="M0 0 C337.92 0 675.84 0 1024 0 C1024 337.92 1024 675.84 1024 1024 C686.08 1024 348.16 1024 0 1024 C0 686.08 0 348.16 0 0 Z " fill="#F7F8FA" transform="translate(0,0)"/>
<path d="M0 0 C68.64 0 137.28 0 208 0 C208 29.37 208 58.74 208 89 C139.36 89 70.72 89 0 89 C0 59.63 0 30.26 0 0 Z " fill="#010101" transform="translate(408,834)"/>
<path d="M0 0 C6.597 3.113 10.853 6.902 13.586 13.84 C15.185 20.316 15.503 27.601 12.07 33.492 C7.928 39.027 3.065 43.668 -3.867 45.055 C-11.228 46.092 -16.725 44.142 -22.867 40.055 C-27.548 35.988 -30.432 30.599 -31.188 24.445 C-31.449 18.129 -30.742 13.157 -26.867 8.055 C-19.092 -0.007 -11.252 -3.71 0 0 Z " fill="#F8F8F8" transform="translate(491.8671875,856.9453125)"/>
<path d="M0 0 C5.71 4.138 8.676 8.955 10.41 15.77 C11.553 22.936 9.906 29.345 5.816 35.316 C0.577 40.675 -4.757 42.874 -12.059 43.816 C-17.91 43.562 -23.488 40.711 -27.824 36.859 C-29.121 35.379 -29.121 35.379 -31.184 32.316 C-32.081 31.017 -32.081 31.017 -32.996 29.691 C-35.063 23.818 -35.339 17.691 -33.305 11.75 C-30.103 5.505 -25.671 1.022 -19.371 -2.059 C-12.448 -3.416 -6.242 -3.619 0 0 Z " fill="#F8F8F8" transform="translate(589.18359375,858.68359375)"/>
<path d="M0 0 C2.52 2.053 4.457 4.129 6 7 C5.942 9.666 5.907 11.093 4 13 C1.812 13.375 1.812 13.375 -1 13 C-2.426 11.736 -3.851 10.471 -5.266 9.195 C-8.545 6.935 -12.1 6.637 -16 7 C-19.216 8.579 -21.172 9.947 -23.375 12.75 C-24.782 17.817 -24.345 21.893 -22.812 26.812 C-20.793 30.365 -19.8 31.564 -16 33 C-12.425 33.442 -9.112 33.322 -5.625 32.312 C-3.42 30.532 -2.84 28.662 -2 26 C-4.018 26.098 -6.036 26.195 -8.055 26.293 C-8.697 26.196 -9.339 26.1 -10 26 C-12 23 -12 23 -11.688 20.375 C-11 18 -11 18 -10 17 C-7.526 16.847 -5.1 16.768 -2.625 16.75 C-1.596 16.719 -1.596 16.719 -0.547 16.688 C2.372 16.665 4.472 16.653 6.953 18.281 C8.812 21.332 8.447 24.59 8 28 C5.937 35.039 1.801 38.8 -4.375 42.375 C-11.231 44.007 -17.79 43.424 -24 40 C-26.812 37.562 -26.812 37.562 -29 35 C-29.557 34.381 -30.114 33.763 -30.688 33.125 C-34.461 27.015 -34.796 19.996 -34 13 C-32.226 6.818 -28.37 2.437 -23 -1 C-15.193 -4.067 -7.464 -3.847 0 0 Z " fill="#F6F5F5" transform="translate(543,859)"/>
<path d="M0 0 C2.562 0.25 2.562 0.25 5.562 2.25 C5.758 4.882 5.77 7.262 5.637 9.883 C5.61 10.635 5.584 11.386 5.557 12.161 C5.469 14.567 5.36 16.97 5.25 19.375 C5.187 21.004 5.125 22.633 5.064 24.262 C4.913 28.259 4.743 32.254 4.562 36.25 C5.755 36.215 6.947 36.18 8.176 36.145 C9.742 36.116 11.309 36.089 12.875 36.062 C14.054 36.025 14.054 36.025 15.256 35.986 C16.013 35.977 16.771 35.967 17.551 35.957 C18.596 35.933 18.596 35.933 19.661 35.909 C22.173 36.359 23.064 37.213 24.562 39.25 C24.128 44.685 24.128 44.685 22.562 46.25 C18.423 46.503 14.271 46.435 10.125 46.438 C8.954 46.45 7.783 46.462 6.576 46.475 C5.459 46.477 4.342 46.478 3.191 46.48 C2.161 46.485 1.13 46.489 0.069 46.493 C-2.438 46.25 -2.438 46.25 -4.438 44.25 C-4.691 42.428 -4.691 42.428 -4.696 40.199 C-4.703 39.365 -4.709 38.531 -4.715 37.671 C-4.711 36.769 -4.707 35.867 -4.703 34.938 C-4.705 34.013 -4.707 33.088 -4.709 32.135 C-4.71 30.179 -4.707 28.222 -4.698 26.265 C-4.688 23.262 -4.698 20.26 -4.711 17.258 C-4.71 15.359 -4.707 13.461 -4.703 11.562 C-4.707 10.66 -4.711 9.758 -4.715 8.829 C-4.709 7.995 -4.703 7.16 -4.696 6.301 C-4.695 5.565 -4.693 4.829 -4.691 4.072 C-4.262 0.99 -2.965 0.304 0 0 Z " fill="#F7F7F7" transform="translate(434.4375,855.75)"/>
<path d="M0 0 C3.118 1.693 5.39 3.779 7 7 C7.529 13.228 7.705 18.707 4 24 C2.099 26.194 0.768 26.87 -2.082 27.352 C-6.478 27.629 -8.384 27.485 -11.938 24.688 C-15.386 20.195 -17.084 16.716 -17 11 C-14.04 1.653 -9.758 -1.829 0 0 Z " fill="#050505" transform="translate(582,866)"/>
<path d="M0 0 C3.029 1.74 4.495 3.219 6.375 6.125 C7.596 11.741 7.188 17.1 4.125 22 C0.46 25.449 -1.931 26.451 -7 26.32 C-10.189 25.81 -11.825 24.303 -14 22 C-16.72 17.524 -16.537 13.094 -16 8 C-12.82 0.527 -7.708 -1.239 0 0 Z " fill="#050505" transform="translate(489,866)"/>
</svg>
