<?xml version="1.0" encoding="UTF-8"?>
<!-- Generator: visioncortex VTracer 0.6.4 -->
<svg version="1.1" xmlns="http://www.w3.org/2000/svg" width="1024" height="1024">
<path d="M0 0 C337.92 0 675.84 0 1024 0 C1024 337.92 1024 675.84 1024 1024 C686.08 1024 348.16 1024 0 1024 C0 686.08 0 348.16 0 0 Z " fill="#060606" transform="translate(0,0)"/>
<path d="M0 0 C8.741 7.367 12.448 15.792 15.188 26.75 C15.188 34.34 15.188 41.93 15.188 49.75 C71.947 49.75 128.707 49.75 187.188 49.75 C187.188 41.83 187.188 33.91 187.188 25.75 C189.232 18.934 190.925 13.826 194.188 7.75 C194.848 7.75 195.507 7.75 196.188 7.75 C196.458 7.151 196.729 6.551 197.008 5.934 C200.503 -0.536 207.328 -3.775 213.938 -6.336 C223.673 -9.074 233.679 -7.626 242.582 -3.008 C246.459 -0.713 246.459 -0.713 248.188 0.75 C248.188 1.41 248.188 2.07 248.188 2.75 C248.784 2.987 249.381 3.224 249.996 3.469 C252.693 5.045 253.662 6.573 255.25 9.25 C255.736 10.044 256.222 10.838 256.723 11.656 C260.852 20.378 261.592 28.297 261.375 37.875 C261.361 39.022 261.348 40.17 261.334 41.352 C261.299 44.152 261.25 46.951 261.188 49.75 C262.113 49.743 262.113 49.743 263.056 49.737 C269.513 49.692 275.971 49.662 282.428 49.64 C284.833 49.63 287.238 49.617 289.644 49.599 C293.114 49.575 296.584 49.563 300.055 49.555 C301.119 49.544 302.183 49.534 303.279 49.523 C315.451 49.522 327.327 51.621 336.637 60.145 C354.375 78.508 361.525 101.418 361.448 126.658 C361.451 128.023 361.455 129.388 361.46 130.753 C361.47 134.471 361.468 138.189 361.464 141.907 C361.461 145.929 361.47 149.952 361.478 153.974 C361.49 161.843 361.492 169.711 361.49 177.579 C361.488 183.978 361.49 190.377 361.494 196.777 C361.495 197.689 361.495 198.602 361.496 199.542 C361.497 201.397 361.498 203.251 361.5 205.106 C361.51 222.476 361.508 239.847 361.502 257.217 C361.497 273.085 361.508 288.952 361.527 304.82 C361.547 321.139 361.555 337.458 361.551 353.777 C361.549 362.928 361.552 372.08 361.566 381.231 C361.578 389.022 361.579 396.813 361.567 404.604 C361.561 408.573 361.56 412.543 361.572 416.512 C361.583 420.156 361.58 423.8 361.566 427.444 C361.562 429.364 361.573 431.285 361.584 433.206 C361.512 444.884 359.519 456.317 355.5 467.312 C355.244 468.017 354.987 468.722 354.723 469.448 C345.546 493.695 327.378 511.407 303.992 522.137 C289.133 528.603 273.576 531.215 257.476 531.131 C256.061 531.134 254.645 531.139 253.23 531.145 C249.385 531.158 245.542 531.152 241.697 531.142 C237.534 531.135 233.37 531.146 229.206 531.154 C221.067 531.167 212.928 531.165 204.789 531.156 C198.169 531.149 191.548 531.148 184.928 531.151 C183.983 531.152 183.038 531.152 182.064 531.153 C180.144 531.154 178.224 531.155 176.303 531.156 C158.327 531.164 140.351 531.155 122.375 531.138 C106.981 531.125 91.586 531.127 76.191 531.141 C58.279 531.157 40.367 531.163 22.455 531.154 C20.542 531.153 18.628 531.152 16.715 531.151 C15.773 531.151 14.832 531.151 13.862 531.15 C7.258 531.147 0.653 531.152 -5.951 531.159 C-14.012 531.167 -22.072 531.165 -30.132 531.149 C-34.237 531.141 -38.343 531.138 -42.448 531.148 C-76.792 531.225 -106.522 527.069 -132.062 501.875 C-157.284 476.272 -160.3 443.368 -160.19 409.081 C-160.181 405.234 -160.19 401.387 -160.196 397.541 C-160.205 390.03 -160.199 382.52 -160.187 375.01 C-160.173 366.245 -160.175 357.481 -160.177 348.717 C-160.18 333.071 -160.168 317.425 -160.149 301.779 C-160.13 286.629 -160.123 271.48 -160.128 256.33 C-160.134 239.791 -160.134 223.252 -160.123 206.713 C-160.121 204.946 -160.12 203.18 -160.119 201.414 C-160.118 200.545 -160.118 199.676 -160.117 198.781 C-160.113 192.685 -160.114 186.589 -160.116 180.493 C-160.118 173.057 -160.112 165.621 -160.098 158.185 C-160.091 154.398 -160.087 150.611 -160.091 146.824 C-160.096 142.705 -160.085 138.586 -160.073 134.467 C-160.077 133.29 -160.081 132.112 -160.085 130.899 C-159.976 109.926 -156.244 85.99 -141.812 69.75 C-141.133 68.93 -140.454 68.11 -139.754 67.266 C-131.977 58.155 -122.975 51.239 -110.812 49.75 C-106.898 49.617 -102.987 49.634 -99.07 49.652 C-97.947 49.654 -96.823 49.655 -95.666 49.657 C-92.09 49.662 -88.514 49.675 -84.938 49.688 C-82.508 49.693 -80.078 49.697 -77.648 49.701 C-71.703 49.712 -65.758 49.729 -59.812 49.75 C-59.823 49.136 -59.833 48.522 -59.844 47.889 C-59.886 45.051 -59.912 42.213 -59.938 39.375 C-59.954 38.409 -59.971 37.444 -59.988 36.449 C-60.075 23.56 -57.639 12.557 -48.625 2.938 C-34.965 -9.947 -15.178 -11.073 0 0 Z " fill="#FE5840" transform="translate(410.8125,106.25)"/>
<path d="M0 0 C8.741 7.367 12.448 15.792 15.188 26.75 C15.188 34.34 15.188 41.93 15.188 49.75 C71.947 49.75 128.707 49.75 187.188 49.75 C187.188 41.83 187.188 33.91 187.188 25.75 C189.232 18.934 190.925 13.826 194.188 7.75 C194.848 7.75 195.507 7.75 196.188 7.75 C196.458 7.151 196.729 6.551 197.008 5.934 C200.503 -0.536 207.328 -3.775 213.938 -6.336 C223.673 -9.074 233.679 -7.626 242.582 -3.008 C246.459 -0.713 246.459 -0.713 248.188 0.75 C248.188 1.41 248.188 2.07 248.188 2.75 C248.784 2.987 249.381 3.224 249.996 3.469 C252.693 5.045 253.662 6.573 255.25 9.25 C255.736 10.044 256.222 10.838 256.723 11.656 C260.852 20.378 261.592 28.297 261.375 37.875 C261.361 39.022 261.348 40.17 261.334 41.352 C261.299 44.152 261.25 46.951 261.188 49.75 C262.113 49.743 262.113 49.743 263.056 49.737 C269.513 49.692 275.971 49.662 282.428 49.64 C284.833 49.63 287.238 49.617 289.644 49.599 C293.114 49.575 296.584 49.563 300.055 49.555 C301.119 49.544 302.183 49.534 303.279 49.523 C315.451 49.522 327.327 51.621 336.637 60.145 C354.375 78.508 361.525 101.418 361.448 126.658 C361.451 128.023 361.455 129.388 361.46 130.753 C361.47 134.471 361.468 138.189 361.464 141.907 C361.461 145.929 361.47 149.952 361.478 153.974 C361.49 161.843 361.492 169.711 361.49 177.579 C361.488 183.978 361.49 190.377 361.494 196.777 C361.495 197.689 361.495 198.602 361.496 199.542 C361.497 201.397 361.498 203.251 361.5 205.106 C361.51 222.476 361.508 239.847 361.502 257.217 C361.497 273.085 361.508 288.952 361.527 304.82 C361.547 321.139 361.555 337.458 361.551 353.777 C361.549 362.928 361.552 372.08 361.566 381.231 C361.578 389.022 361.579 396.813 361.567 404.604 C361.561 408.573 361.56 412.543 361.572 416.512 C361.583 420.156 361.58 423.8 361.566 427.444 C361.562 429.364 361.573 431.285 361.584 433.206 C361.512 444.884 359.519 456.317 355.5 467.312 C355.244 468.017 354.987 468.722 354.723 469.448 C345.546 493.695 327.378 511.407 303.992 522.137 C289.133 528.603 273.576 531.215 257.476 531.131 C256.061 531.134 254.645 531.139 253.23 531.145 C249.385 531.158 245.542 531.152 241.697 531.142 C237.534 531.135 233.37 531.146 229.206 531.154 C221.067 531.167 212.928 531.165 204.789 531.156 C198.169 531.149 191.548 531.148 184.928 531.151 C183.983 531.152 183.038 531.152 182.064 531.153 C180.144 531.154 178.224 531.155 176.303 531.156 C158.327 531.164 140.351 531.155 122.375 531.138 C106.981 531.125 91.586 531.127 76.191 531.141 C58.279 531.157 40.367 531.163 22.455 531.154 C20.542 531.153 18.628 531.152 16.715 531.151 C15.773 531.151 14.832 531.151 13.862 531.15 C7.258 531.147 0.653 531.152 -5.951 531.159 C-14.012 531.167 -22.072 531.165 -30.132 531.149 C-34.237 531.141 -38.343 531.138 -42.448 531.148 C-76.792 531.225 -106.522 527.069 -132.062 501.875 C-157.284 476.272 -160.3 443.368 -160.19 409.081 C-160.181 405.234 -160.19 401.387 -160.196 397.541 C-160.205 390.03 -160.199 382.52 -160.187 375.01 C-160.173 366.245 -160.175 357.481 -160.177 348.717 C-160.18 333.071 -160.168 317.425 -160.149 301.779 C-160.13 286.629 -160.123 271.48 -160.128 256.33 C-160.134 239.791 -160.134 223.252 -160.123 206.713 C-160.121 204.946 -160.12 203.18 -160.119 201.414 C-160.118 200.545 -160.118 199.676 -160.117 198.781 C-160.113 192.685 -160.114 186.589 -160.116 180.493 C-160.118 173.057 -160.112 165.621 -160.098 158.185 C-160.091 154.398 -160.087 150.611 -160.091 146.824 C-160.096 142.705 -160.085 138.586 -160.073 134.467 C-160.077 133.29 -160.081 132.112 -160.085 130.899 C-159.976 109.926 -156.244 85.99 -141.812 69.75 C-141.133 68.93 -140.454 68.11 -139.754 67.266 C-131.977 58.155 -122.975 51.239 -110.812 49.75 C-106.898 49.617 -102.987 49.634 -99.07 49.652 C-97.947 49.654 -96.823 49.655 -95.666 49.657 C-92.09 49.662 -88.514 49.675 -84.938 49.688 C-82.508 49.693 -80.078 49.697 -77.648 49.701 C-71.703 49.712 -65.758 49.729 -59.812 49.75 C-59.823 49.136 -59.833 48.522 -59.844 47.889 C-59.886 45.051 -59.912 42.213 -59.938 39.375 C-59.954 38.409 -59.971 37.444 -59.988 36.449 C-60.075 23.56 -57.639 12.557 -48.625 2.938 C-34.965 -9.947 -15.178 -11.073 0 0 Z M-131.812 191.75 C-131.874 232.876 -131.936 274.002 -132 316.375 C-132.027 329.352 -132.055 342.328 -132.083 355.698 C-132.093 367.349 -132.093 367.349 -132.099 379.001 C-132.102 384.183 -132.113 389.365 -132.129 394.546 C-132.15 401.166 -132.156 407.785 -132.152 414.405 C-132.153 416.828 -132.159 419.252 -132.17 421.675 C-132.279 445.515 -129.437 466.704 -112.605 484.984 C-100.456 496.949 -83.726 503.861 -66.713 503.881 C-65.505 503.885 -64.297 503.889 -63.052 503.893 C-61.733 503.892 -60.415 503.891 -59.056 503.89 C-57.635 503.893 -56.213 503.896 -54.791 503.899 C-50.889 503.907 -46.987 503.909 -43.084 503.91 C-38.873 503.912 -34.662 503.919 -30.452 503.926 C-21.245 503.94 -12.038 503.946 -2.831 503.95 C2.922 503.953 8.675 503.957 14.428 503.962 C30.366 503.974 46.304 503.984 62.241 503.988 C63.771 503.988 63.771 503.988 65.332 503.988 C66.354 503.988 67.376 503.989 68.429 503.989 C70.501 503.989 72.572 503.99 74.643 503.99 C76.184 503.991 76.184 503.991 77.757 503.991 C94.391 503.995 111.025 504.012 127.66 504.036 C144.751 504.059 161.843 504.072 178.935 504.073 C188.526 504.074 198.116 504.08 207.707 504.098 C215.877 504.113 224.047 504.118 232.217 504.11 C236.381 504.106 240.544 504.107 244.708 504.121 C248.53 504.134 252.352 504.133 256.173 504.12 C258.19 504.118 260.207 504.129 262.223 504.142 C274.165 504.078 286.157 502.685 296.75 496.812 C297.395 496.478 298.04 496.143 298.705 495.799 C302.705 493.691 306.548 491.436 310.188 488.75 C310.188 488.09 310.188 487.43 310.188 486.75 C310.78 486.487 311.373 486.224 311.984 485.953 C318.089 482.619 321.885 476.002 325.375 470.188 C326.008 469.134 326.641 468.081 327.293 466.996 C334.198 452.724 333.739 438.036 333.642 422.547 C333.64 419.982 333.641 417.417 333.643 414.852 C333.644 408.711 333.627 402.569 333.601 396.428 C333.572 389.312 333.569 382.197 333.566 375.081 C333.545 356.325 333.489 337.569 333.438 318.812 C333.355 276.882 333.273 234.951 333.188 191.75 C179.737 191.75 26.287 191.75 -131.812 191.75 Z " fill="#1E6DFC" transform="translate(410.8125,106.25)"/>
<path d="M0 0 C0.941 0 1.881 0 2.851 0 C3.863 0.005 4.876 0.011 5.919 0.016 C6.958 0.017 7.997 0.019 9.068 0.02 C12.389 0.026 15.711 0.038 19.032 0.051 C21.283 0.056 23.534 0.061 25.784 0.065 C31.305 0.076 36.825 0.092 42.345 0.114 C42.36 0.758 42.374 1.402 42.389 2.066 C42.465 5.041 42.561 8.014 42.657 10.989 C42.68 12.002 42.703 13.015 42.726 14.059 C43.138 25.75 45.963 37.124 54.759 45.379 C63.235 51.974 72.692 56.001 83.56 55.485 C93.982 54.096 101.43 50.063 108.345 42.114 C116.843 29.39 114.793 15.558 115.345 0.114 C172.765 0.114 230.185 0.114 289.345 0.114 C289.675 9.354 290.005 18.594 290.345 28.114 C295.365 40.664 299.406 47.094 311.345 53.114 C320.054 56.358 330.613 56.213 339.345 53.114 C349.465 48.381 355.78 41.89 359.618 31.41 C360.927 27.275 361.506 23.609 361.661 19.254 C361.703 18.139 361.745 17.024 361.788 15.875 C361.847 14.137 361.847 14.137 361.907 12.364 C361.951 11.189 361.994 10.015 362.038 8.805 C362.144 5.908 362.246 3.011 362.345 0.114 C368.589 0.039 374.832 -0.015 381.077 -0.051 C383.198 -0.066 385.319 -0.087 387.44 -0.113 C390.501 -0.149 393.561 -0.166 396.622 -0.179 C398.029 -0.203 398.029 -0.203 399.464 -0.226 C408.853 -0.229 416.11 2.11 423.345 8.114 C423.345 8.774 423.345 9.434 423.345 10.114 C424.005 10.114 424.665 10.114 425.345 10.114 C427.001 12.492 427.001 12.492 428.845 15.676 C429.453 16.709 430.062 17.741 430.689 18.805 C440.778 38.959 434.345 66.849 434.345 86.114 C280.895 86.114 127.445 86.114 -30.655 86.114 C-30.655 23.746 -30.655 23.746 -20.405 9.739 C-14.745 4.336 -7.97 -0.021 0 0 Z " fill="#FD603F" transform="translate(309.655029296875,184.886474609375)"/>
<path d="M0 0 C1.769 -0.007 1.769 -0.007 3.575 -0.014 C6.066 -0.018 8.558 -0.009 11.049 0.012 C14.862 0.039 18.672 0.012 22.484 -0.02 C24.906 -0.016 27.328 -0.01 29.75 0 C31.46 -0.015 31.46 -0.015 33.204 -0.031 C37.867 0.038 40.995 0.166 45.096 2.487 C47.798 7.312 47.552 11.725 47.469 17.168 C47.469 18.283 47.469 19.399 47.469 20.548 C47.464 22.902 47.446 25.257 47.417 27.611 C47.375 31.217 47.376 34.821 47.383 38.428 C47.372 40.716 47.359 43.005 47.344 45.293 C47.343 46.912 47.343 46.912 47.343 48.563 C47.327 49.568 47.311 50.573 47.295 51.608 C47.287 52.49 47.278 53.372 47.269 54.281 C46.79 57.178 45.888 58.548 43.875 60.664 C40.911 61.652 38.934 61.802 35.84 61.825 C34.816 61.835 33.791 61.844 32.735 61.854 C31.629 61.859 30.523 61.863 29.383 61.867 C27.676 61.876 27.676 61.876 25.934 61.884 C23.525 61.894 21.116 61.9 18.707 61.904 C15.022 61.914 11.337 61.945 7.652 61.977 C5.313 61.983 2.973 61.988 0.633 61.992 C-0.469 62.005 -1.572 62.017 -2.707 62.03 C-3.738 62.027 -4.769 62.024 -5.832 62.021 C-6.735 62.024 -7.639 62.028 -8.57 62.032 C-11.691 61.583 -13.578 60.493 -16.125 58.664 C-17.349 56.216 -17.278 54.572 -17.318 51.835 C-17.334 50.83 -17.35 49.825 -17.367 48.79 C-17.411 44.193 -17.452 39.596 -17.475 34.998 C-17.492 32.572 -17.519 30.147 -17.557 27.721 C-17.612 24.226 -17.634 20.733 -17.648 17.238 C-17.671 16.155 -17.694 15.071 -17.717 13.955 C-17.704 9.43 -17.578 6.477 -15.35 2.482 C-10.355 -0.334 -5.643 -0.05 0 0 Z " fill="#FEFEFE" transform="translate(540.125,333.3359375)"/>
<path d="M0 0 C1.045 -0.016 2.089 -0.032 3.166 -0.048 C4.85 -0.056 4.85 -0.056 6.569 -0.065 C7.727 -0.074 8.886 -0.083 10.08 -0.092 C12.531 -0.107 14.981 -0.115 17.431 -0.119 C21.18 -0.131 24.927 -0.18 28.676 -0.231 C31.057 -0.24 33.438 -0.247 35.819 -0.252 C36.94 -0.272 38.061 -0.291 39.215 -0.311 C43.855 -0.284 46.894 -0.188 50.967 2.138 C53.657 6.892 53.457 11.179 53.389 16.556 C53.391 17.647 53.394 18.738 53.396 19.862 C53.395 22.165 53.382 24.468 53.357 26.771 C53.323 30.294 53.336 33.815 53.356 37.338 C53.349 39.577 53.339 41.817 53.326 44.056 C53.334 45.635 53.334 45.635 53.341 47.245 C53.224 54.544 53.224 54.544 50.85 58.447 C47.71 61.241 45.955 61.439 41.839 61.483 C40.302 61.503 40.302 61.503 38.733 61.522 C37.066 61.533 37.066 61.533 35.365 61.545 C34.226 61.553 33.086 61.561 31.912 61.569 C29.497 61.583 27.082 61.594 24.667 61.602 C20.973 61.619 17.28 61.663 13.586 61.707 C11.242 61.717 8.897 61.725 6.553 61.732 C4.895 61.758 4.895 61.758 3.203 61.785 C-4.477 61.764 -4.477 61.764 -8.415 59.405 C-11.098 56.32 -11.367 54.646 -11.385 50.645 C-11.392 49.677 -11.398 48.709 -11.405 47.712 C-11.406 46.138 -11.406 46.138 -11.408 44.533 C-11.411 43.458 -11.415 42.382 -11.418 41.275 C-11.423 38.996 -11.425 36.718 -11.425 34.44 C-11.427 30.953 -11.446 27.466 -11.465 23.978 C-11.468 21.767 -11.47 19.556 -11.47 17.345 C-11.481 15.778 -11.481 15.778 -11.492 14.179 C-11.489 13.205 -11.486 12.231 -11.483 11.227 C-11.484 10.371 -11.486 9.516 -11.487 8.634 C-11.209 6.018 -10.719 4.483 -9.24 2.306 C-6.207 0.23 -3.621 0.042 0 0 Z " fill="#FEFDFE" transform="translate(534.239990234375,420.693603515625)"/>
<path d="M0 0 C1.805 -0.007 1.805 -0.007 3.646 -0.014 C6.191 -0.018 8.735 -0.009 11.28 0.012 C15.174 0.039 19.065 0.012 22.959 -0.02 C25.431 -0.016 27.903 -0.01 30.375 0 C31.54 -0.01 32.704 -0.02 33.904 -0.031 C38.633 0.038 41.834 0.141 45.988 2.502 C48.643 7.256 48.45 11.553 48.383 16.914 C48.385 18.005 48.388 19.096 48.39 20.22 C48.389 22.523 48.376 24.826 48.351 27.129 C48.317 30.652 48.33 34.172 48.35 37.695 C48.343 39.935 48.333 42.174 48.32 44.414 C48.328 45.992 48.328 45.992 48.335 47.603 C48.269 51.747 48.035 54.97 46.47 58.83 C41.913 61.907 37.091 61.335 31.727 61.258 C30.545 61.258 29.364 61.258 28.148 61.258 C25.65 61.253 23.153 61.235 20.656 61.206 C16.834 61.164 13.015 61.165 9.193 61.172 C6.767 61.161 4.34 61.148 1.914 61.133 C0.771 61.133 -0.372 61.132 -1.549 61.132 C-2.617 61.116 -3.685 61.1 -4.785 61.084 C-5.721 61.076 -6.657 61.067 -7.622 61.058 C-10.769 60.585 -12.676 59.514 -15.246 57.664 C-16.461 55.235 -16.392 53.641 -16.423 50.927 C-16.436 49.942 -16.449 48.957 -16.462 47.942 C-16.469 46.875 -16.477 45.807 -16.484 44.707 C-16.492 43.612 -16.501 42.517 -16.509 41.389 C-16.523 39.068 -16.533 36.747 -16.541 34.426 C-16.558 30.876 -16.602 27.328 -16.646 23.779 C-16.657 21.526 -16.665 19.273 -16.672 17.02 C-16.689 15.958 -16.707 14.896 -16.725 13.803 C-16.713 9.631 -16.536 6.392 -14.985 2.496 C-10.362 -0.596 -5.429 -0.047 0 0 Z " fill="#FEFEFE" transform="translate(539.24609375,507.3359375)"/>
<path d="M0 0 C1.567 -0.024 1.567 -0.024 3.166 -0.049 C7.946 -0.093 12.727 -0.134 17.507 -0.157 C20.03 -0.174 22.553 -0.201 25.076 -0.239 C28.709 -0.294 32.342 -0.316 35.975 -0.331 C37.103 -0.353 38.23 -0.376 39.391 -0.399 C44.049 -0.387 47.106 -0.309 51.198 2.022 C53.881 6.778 53.684 11.067 53.616 16.443 C53.618 17.534 53.621 18.625 53.623 19.749 C53.622 22.052 53.609 24.355 53.584 26.658 C53.55 30.181 53.563 33.701 53.583 37.224 C53.576 39.464 53.566 41.703 53.553 43.943 C53.558 44.995 53.563 46.047 53.568 47.131 C53.451 54.43 53.451 54.43 51.077 58.333 C47.961 61.106 46.24 61.323 42.158 61.354 C40.651 61.368 40.651 61.368 39.113 61.383 C38.023 61.387 36.934 61.392 35.811 61.396 C34.694 61.402 33.577 61.407 32.425 61.413 C30.057 61.423 27.689 61.429 25.321 61.433 C21.7 61.443 18.079 61.474 14.458 61.505 C12.159 61.512 9.86 61.517 7.561 61.521 C6.478 61.533 5.394 61.546 4.278 61.558 C-5.187 61.53 -5.187 61.53 -9.013 58.193 C-10.229 55.761 -10.153 54.174 -10.174 51.455 C-10.184 50.471 -10.193 49.486 -10.203 48.471 C-10.21 46.87 -10.21 46.87 -10.216 45.236 C-10.222 44.141 -10.227 43.046 -10.233 41.917 C-10.243 39.596 -10.249 37.275 -10.253 34.954 C-10.263 31.405 -10.294 27.857 -10.325 24.308 C-10.332 22.055 -10.337 19.802 -10.341 17.548 C-10.353 16.487 -10.366 15.425 -10.378 14.331 C-10.35 5.047 -10.35 5.047 -7.013 1.193 C-4.52 -0.054 -2.79 0.039 0 0 Z " fill="#FEFDFD" transform="translate(621.012939453125,333.80712890625)"/>
<path d="M0 0 C0.944 -0.013 1.889 -0.026 2.862 -0.039 C3.871 -0.046 4.879 -0.054 5.918 -0.061 C6.964 -0.069 8.011 -0.077 9.089 -0.086 C11.298 -0.1 13.507 -0.11 15.716 -0.118 C17.976 -0.13 20.235 -0.15 22.495 -0.18 C25.761 -0.222 29.027 -0.239 32.293 -0.249 C33.301 -0.266 34.31 -0.284 35.349 -0.302 C39.79 -0.288 42.364 -0.276 46.219 2.079 C48.988 5.159 49.238 6.864 49.298 10.915 C49.314 11.899 49.33 12.884 49.347 13.899 C49.391 18.404 49.433 22.91 49.456 27.416 C49.472 29.793 49.499 32.17 49.538 34.547 C49.592 37.972 49.614 41.396 49.629 44.822 C49.652 45.883 49.674 46.945 49.698 48.039 C49.685 52.514 49.542 55.397 47.333 59.345 C42.331 62.184 37.604 61.891 31.945 61.841 C30.763 61.846 29.581 61.851 28.363 61.856 C25.868 61.859 23.372 61.85 20.877 61.829 C17.053 61.802 13.232 61.829 9.408 61.861 C6.983 61.857 4.558 61.851 2.133 61.841 C0.988 61.851 -0.157 61.861 -1.336 61.872 C-9.036 61.758 -9.036 61.758 -12.613 59.339 C-14.555 54.546 -14.465 50.053 -14.426 44.927 C-14.43 43.836 -14.433 42.745 -14.437 41.621 C-14.44 39.318 -14.433 37.015 -14.416 34.712 C-14.395 31.189 -14.416 27.669 -14.441 24.146 C-14.439 21.906 -14.434 19.667 -14.426 17.427 C-14.434 16.375 -14.442 15.323 -14.45 14.239 C-14.394 9.833 -14.316 6.946 -12.174 3.036 C-8.522 0.058 -4.587 0.055 0 0 Z " fill="#FEFDFD" transform="translate(624.89453125,506.822998046875)"/>
<path d="M0 0 C1.74 -0.004 1.74 -0.004 3.515 -0.007 C5.963 -0.006 8.412 0.007 10.86 0.032 C14.611 0.066 18.36 0.053 22.111 0.033 C24.491 0.04 26.87 0.05 29.25 0.062 C30.934 0.055 30.934 0.055 32.653 0.047 C34.22 0.071 34.22 0.071 35.819 0.095 C37.195 0.105 37.195 0.105 38.599 0.114 C41.892 0.803 43.068 1.946 45.059 4.629 C45.56 7.102 45.56 7.102 45.56 9.901 C45.57 10.952 45.579 12.003 45.589 13.086 C45.577 14.215 45.566 15.344 45.555 16.508 C45.556 17.671 45.558 18.835 45.559 20.034 C45.557 22.493 45.546 24.951 45.525 27.41 C45.496 31.181 45.505 34.95 45.518 38.721 C45.511 41.108 45.503 43.495 45.492 45.883 C45.495 47.014 45.498 48.145 45.501 49.311 C45.488 50.359 45.476 51.407 45.463 52.487 C45.457 53.409 45.452 54.332 45.446 55.283 C44.983 58.089 44.313 58.945 42.059 60.629 C39.135 61.604 37.237 61.761 34.192 61.774 C32.71 61.784 32.71 61.784 31.198 61.794 C29.6 61.795 29.6 61.795 27.969 61.797 C26.873 61.8 25.777 61.804 24.647 61.807 C22.328 61.812 20.009 61.814 17.69 61.814 C14.139 61.816 10.588 61.835 7.037 61.854 C4.785 61.856 2.533 61.858 0.281 61.859 C-0.782 61.867 -1.846 61.874 -2.942 61.881 C-3.933 61.878 -4.924 61.875 -5.945 61.872 C-7.251 61.874 -7.251 61.874 -8.582 61.876 C-11.187 61.603 -12.748 61.048 -14.941 59.629 C-17.103 56.387 -17.203 55.437 -17.248 51.686 C-17.264 50.681 -17.28 49.677 -17.296 48.642 C-17.302 47.557 -17.307 46.473 -17.312 45.355 C-17.322 44.24 -17.331 43.124 -17.34 41.974 C-17.354 39.612 -17.363 37.25 -17.367 34.888 C-17.379 31.275 -17.428 27.663 -17.479 24.051 C-17.488 21.757 -17.495 19.462 -17.5 17.168 C-17.529 15.547 -17.529 15.547 -17.559 13.894 C-17.532 9.372 -17.393 6.432 -15.153 2.447 C-10.209 -0.352 -5.59 -0.066 0 0 Z " fill="#FEFEFE" transform="translate(627.94140625,420.37109375)"/>
<path d="M0 0 C1.572 -0.014 1.572 -0.014 3.175 -0.028 C4.302 -0.017 5.428 -0.006 6.588 0.006 C7.749 0.004 8.91 0.003 10.107 0.001 C12.561 0.003 15.016 0.014 17.47 0.035 C21.23 0.064 24.988 0.056 28.748 0.043 C31.132 0.049 33.516 0.057 35.9 0.068 C37.027 0.065 38.153 0.062 39.313 0.059 C40.361 0.072 41.409 0.085 42.488 0.098 C43.409 0.103 44.329 0.108 45.278 0.114 C48.234 0.579 49.596 1.443 51.744 3.502 C52.717 6.419 52.881 8.329 52.905 11.369 C52.915 12.357 52.924 13.344 52.934 14.362 C52.939 15.428 52.943 16.494 52.947 17.592 C52.953 18.688 52.959 19.784 52.965 20.913 C52.974 23.232 52.981 25.551 52.984 27.871 C52.994 31.422 53.025 34.972 53.057 38.523 C53.063 40.775 53.068 43.027 53.072 45.279 C53.085 46.343 53.097 47.406 53.11 48.502 C53.107 49.493 53.104 50.484 53.101 51.505 C53.106 52.811 53.106 52.811 53.112 54.143 C52.66 57.039 51.753 58.39 49.744 60.502 C46.812 61.479 44.859 61.645 41.801 61.679 C40.294 61.698 40.294 61.698 38.757 61.718 C37.672 61.725 36.588 61.732 35.471 61.74 C34.355 61.748 33.239 61.756 32.089 61.764 C29.727 61.778 27.365 61.789 25.003 61.797 C21.39 61.814 17.778 61.858 14.166 61.902 C11.872 61.912 9.577 61.921 7.283 61.927 C6.203 61.945 5.123 61.963 4.009 61.981 C-0.219 61.968 -3.496 61.809 -7.438 60.215 C-10.467 55.695 -9.947 50.971 -9.885 45.658 C-9.887 44.497 -9.89 43.335 -9.892 42.139 C-9.891 39.685 -9.878 37.23 -9.853 34.776 C-9.818 31.016 -9.832 27.258 -9.852 23.498 C-9.845 21.114 -9.835 18.73 -9.822 16.345 C-9.83 14.656 -9.83 14.656 -9.837 12.933 C-9.821 11.885 -9.806 10.837 -9.789 9.758 C-9.783 8.837 -9.777 7.916 -9.771 6.968 C-8.632 1.513 -5.21 0.001 0 0 Z " fill="#FEFEFE" transform="translate(359.255859375,333.498291015625)"/>
<path d="M0 0 C1.135 -0.005 2.271 -0.01 3.44 -0.014 C5.837 -0.018 8.235 -0.009 10.632 0.012 C14.3 0.039 17.965 0.012 21.633 -0.02 C23.964 -0.016 26.294 -0.01 28.625 0 C29.721 -0.01 30.817 -0.02 31.946 -0.031 C36.511 0.04 39.498 0.199 43.506 2.487 C46.247 7.307 45.989 11.712 45.906 17.168 C45.906 18.283 45.906 19.399 45.906 20.548 C45.901 22.902 45.883 25.257 45.854 27.611 C45.813 31.217 45.813 34.821 45.82 38.428 C45.81 40.716 45.797 43.005 45.781 45.293 C45.781 46.372 45.781 47.451 45.781 48.563 C45.765 49.568 45.749 50.573 45.732 51.608 C45.724 52.49 45.716 53.372 45.707 54.281 C45.227 57.178 44.326 58.548 42.312 60.664 C39.386 61.639 37.421 61.813 34.37 61.857 C33.365 61.873 32.36 61.889 31.325 61.906 C26.741 61.95 22.156 61.991 17.571 62.014 C15.152 62.031 12.733 62.058 10.314 62.096 C6.827 62.151 3.34 62.173 -0.148 62.188 C-1.229 62.21 -2.309 62.233 -3.422 62.256 C-7.966 62.243 -10.876 62.127 -14.867 59.848 C-17.617 55.038 -17.403 50.648 -17.352 45.195 C-17.356 44.082 -17.361 42.969 -17.366 41.822 C-17.369 39.472 -17.36 37.122 -17.339 34.772 C-17.313 31.176 -17.339 27.584 -17.371 23.988 C-17.368 21.703 -17.361 19.418 -17.352 17.133 C-17.362 16.059 -17.372 14.985 -17.382 13.878 C-17.312 9.371 -17.134 6.447 -14.876 2.489 C-10.012 -0.294 -5.515 -0.051 0 0 Z " fill="#FEFEFE" transform="translate(453.6875,333.3359375)"/>
<path d="M0 0 C1.775 -0.007 1.775 -0.007 3.586 -0.014 C6.088 -0.018 8.589 -0.009 11.091 0.012 C14.924 0.039 18.753 0.012 22.586 -0.02 C25.016 -0.016 27.445 -0.01 29.875 0 C31.597 -0.015 31.597 -0.015 33.354 -0.031 C41.07 0.083 41.07 0.083 44.658 2.487 C46.619 7.357 46.508 11.963 46.469 17.168 C46.473 18.283 46.476 19.399 46.48 20.548 C46.483 22.902 46.476 25.257 46.459 27.611 C46.438 31.217 46.459 34.822 46.484 38.428 C46.482 40.716 46.477 43.005 46.469 45.293 C46.477 46.372 46.485 47.451 46.493 48.563 C46.481 49.568 46.468 50.573 46.455 51.608 C46.45 52.931 46.45 52.931 46.445 54.281 C45.769 57.455 44.428 58.646 41.938 60.664 C39.026 61.634 37.104 61.807 34.071 61.841 C32.589 61.86 32.589 61.86 31.077 61.88 C30.011 61.887 28.946 61.895 27.848 61.902 C26.752 61.91 25.656 61.918 24.526 61.927 C22.207 61.941 19.888 61.951 17.569 61.959 C14.017 61.976 10.467 62.02 6.916 62.064 C4.664 62.075 2.412 62.083 0.16 62.09 C-0.903 62.107 -1.967 62.125 -3.063 62.143 C-10.428 62.121 -10.428 62.121 -13.701 59.762 C-15.788 56.546 -16.196 54.739 -16.24 50.927 C-16.252 49.942 -16.265 48.957 -16.278 47.942 C-16.286 46.875 -16.293 45.807 -16.301 44.707 C-16.309 43.612 -16.317 42.517 -16.325 41.389 C-16.339 39.068 -16.35 36.747 -16.358 34.426 C-16.375 30.876 -16.419 27.328 -16.463 23.779 C-16.473 21.526 -16.482 19.273 -16.488 17.02 C-16.506 15.958 -16.523 14.896 -16.541 13.803 C-16.529 9.624 -16.356 6.394 -14.79 2.496 C-10.216 -0.576 -5.379 -0.047 0 0 Z " fill="#FEFEFE" transform="translate(453.0625,420.3359375)"/>
<path d="M0 0 C1.071 -0.009 2.142 -0.019 3.246 -0.028 C4.973 -0.012 4.973 -0.012 6.734 0.006 C8.513 0.003 8.513 0.003 10.327 0.001 C12.833 0.003 15.339 0.014 17.845 0.035 C21.688 0.064 25.53 0.056 29.373 0.043 C31.806 0.049 34.239 0.057 36.672 0.068 C37.825 0.065 38.978 0.062 40.166 0.059 C41.234 0.072 42.302 0.085 43.402 0.098 C44.813 0.106 44.813 0.106 46.253 0.114 C49.085 0.575 49.943 1.223 51.636 3.502 C52.597 6.383 52.779 8.263 52.813 11.261 C52.833 12.708 52.833 12.708 52.852 14.184 C52.86 15.225 52.867 16.265 52.875 17.338 C52.883 18.409 52.891 19.481 52.899 20.585 C52.913 22.853 52.924 25.12 52.932 27.388 C52.949 30.856 52.993 34.323 53.037 37.791 C53.047 39.994 53.056 42.197 53.062 44.4 C53.08 45.437 53.097 46.473 53.115 47.541 C53.102 51.964 53.072 54.734 50.86 58.633 C47.414 61.529 44.253 61.627 39.855 61.663 C38.911 61.672 37.966 61.682 36.993 61.692 C35.98 61.696 34.966 61.7 33.922 61.705 C32.35 61.713 32.35 61.713 30.746 61.722 C28.531 61.732 26.316 61.738 24.102 61.742 C20.715 61.752 17.329 61.783 13.943 61.814 C11.79 61.821 9.637 61.826 7.484 61.83 C6.473 61.842 5.461 61.855 4.419 61.867 C-4.444 61.839 -4.444 61.839 -8.364 58.502 C-9.602 56.024 -9.51 54.336 -9.541 51.565 C-9.553 50.537 -9.566 49.509 -9.579 48.449 C-9.587 47.335 -9.594 46.22 -9.602 45.072 C-9.61 43.93 -9.618 42.788 -9.626 41.612 C-9.64 39.192 -9.651 36.773 -9.659 34.354 C-9.676 30.649 -9.72 26.945 -9.764 23.24 C-9.774 20.892 -9.783 18.545 -9.789 16.197 C-9.807 15.087 -9.824 13.976 -9.842 12.832 C-9.839 11.797 -9.837 10.763 -9.833 9.698 C-9.839 8.789 -9.845 7.88 -9.851 6.943 C-8.749 1.426 -5.219 0.001 0 0 Z " fill="#FEFDFD" transform="translate(359.363525390625,420.498291015625)"/>
<path d="M0 0 C1.071 -0.009 2.142 -0.019 3.246 -0.028 C4.973 -0.012 4.973 -0.012 6.734 0.006 C8.513 0.003 8.513 0.003 10.327 0.001 C12.833 0.003 15.339 0.014 17.845 0.035 C21.688 0.064 25.53 0.056 29.373 0.043 C31.806 0.049 34.239 0.057 36.672 0.068 C37.825 0.065 38.978 0.062 40.166 0.059 C41.234 0.072 42.302 0.085 43.402 0.098 C44.813 0.106 44.813 0.106 46.253 0.114 C49.085 0.575 49.943 1.223 51.636 3.502 C52.607 6.413 52.779 8.336 52.813 11.369 C52.833 12.851 52.833 12.851 52.852 14.362 C52.86 15.428 52.867 16.494 52.875 17.592 C52.883 18.688 52.891 19.784 52.899 20.913 C52.913 23.232 52.924 25.551 52.932 27.871 C52.949 31.422 52.993 34.972 53.037 38.523 C53.047 40.775 53.056 43.027 53.062 45.279 C53.08 46.343 53.097 47.406 53.115 48.502 C53.112 49.493 53.109 50.484 53.106 51.505 C53.112 52.376 53.118 53.246 53.124 54.143 C52.455 57.379 51.265 58.541 48.636 60.502 C46.132 61.003 46.132 61.003 43.289 61.003 C41.687 61.017 41.687 61.017 40.053 61.032 C38.905 61.021 37.757 61.009 36.574 60.998 C35.391 60.999 34.207 61.001 32.988 61.002 C30.486 61.001 27.985 60.989 25.483 60.968 C21.651 60.939 17.82 60.948 13.988 60.961 C11.558 60.954 9.129 60.946 6.699 60.935 C5.551 60.938 4.403 60.941 3.22 60.944 C2.152 60.932 1.084 60.919 -0.016 60.906 C-0.954 60.9 -1.893 60.895 -2.859 60.889 C-5.898 60.419 -7.251 59.736 -9.364 57.502 C-9.871 55.156 -9.871 55.156 -9.881 52.359 C-9.894 51.311 -9.906 50.263 -9.919 49.184 C-9.911 48.052 -9.903 46.921 -9.895 45.756 C-9.899 44.593 -9.902 43.43 -9.906 42.232 C-9.909 39.772 -9.902 37.311 -9.885 34.851 C-9.864 31.082 -9.885 27.315 -9.91 23.547 C-9.908 21.158 -9.903 18.769 -9.895 16.381 C-9.903 15.251 -9.911 14.122 -9.919 12.959 C-9.907 11.908 -9.894 10.856 -9.881 9.773 C-9.878 8.85 -9.875 7.926 -9.871 6.975 C-8.736 1.446 -5.254 0.001 0 0 Z " fill="#FEFEFE" transform="translate(359.363525390625,507.498291015625)"/>
<path d="M0 0 C1.775 -0.007 1.775 -0.007 3.586 -0.014 C6.088 -0.018 8.589 -0.009 11.091 0.012 C14.924 0.039 18.753 0.012 22.586 -0.02 C25.016 -0.016 27.445 -0.01 29.875 0 C31.597 -0.015 31.597 -0.015 33.354 -0.031 C41.078 0.083 41.078 0.083 44.658 2.502 C46.597 7.295 46.508 11.789 46.469 16.914 C46.473 18.005 46.476 19.096 46.48 20.22 C46.483 22.523 46.476 24.826 46.459 27.129 C46.438 30.652 46.459 34.173 46.484 37.695 C46.482 39.935 46.477 42.174 46.469 44.414 C46.477 45.466 46.485 46.518 46.493 47.603 C46.44 51.747 46.221 54.964 44.658 58.826 C40.093 61.91 35.253 61.376 29.875 61.328 C28.1 61.335 28.1 61.335 26.289 61.343 C23.787 61.346 21.286 61.337 18.784 61.316 C14.951 61.289 11.122 61.316 7.289 61.348 C4.859 61.344 2.43 61.338 0 61.328 C-1.722 61.343 -1.722 61.343 -3.479 61.359 C-11.203 61.245 -11.203 61.245 -14.783 58.826 C-16.722 54.033 -16.633 49.539 -16.594 44.414 C-16.598 43.323 -16.601 42.232 -16.605 41.108 C-16.608 38.805 -16.601 36.502 -16.584 34.199 C-16.563 30.676 -16.584 27.156 -16.609 23.633 C-16.607 21.393 -16.602 19.154 -16.594 16.914 C-16.602 15.862 -16.61 14.81 -16.618 13.726 C-16.565 9.581 -16.346 6.364 -14.783 2.502 C-10.218 -0.582 -5.378 -0.047 0 0 Z " fill="#FEFEFE" transform="translate(453.0625,507.3359375)"/>
<path d="M0 0 C3.522 1.525 7.254 3.254 10 6 C10.141 8.681 10.218 11.338 10.253 14.021 C10.268 14.861 10.282 15.702 10.298 16.568 C10.345 19.363 10.384 22.158 10.422 24.953 C10.443 26.382 10.443 26.382 10.464 27.84 C10.537 32.884 10.605 37.927 10.667 42.971 C10.733 48.185 10.818 53.398 10.907 58.611 C10.972 62.615 11.024 66.62 11.071 70.625 C11.097 72.547 11.127 74.468 11.163 76.39 C11.211 79.081 11.24 81.771 11.265 84.462 C11.292 85.653 11.292 85.653 11.321 86.868 C11.339 91.445 10.833 94.357 8 98 C2.909 101.789 -4.983 100.654 -11 100 C-13.998 98.665 -14.915 97.637 -17 95 C-18.259 91.222 -18.151 87.688 -18.149 83.752 C-18.152 82.911 -18.155 82.071 -18.159 81.204 C-18.183 72.429 -18.138 63.653 -18.088 54.878 C-18.066 50.713 -18.066 46.548 -18.086 42.383 C-18.109 37.354 -18.093 32.326 -18.05 27.297 C-18.04 25.381 -18.044 23.465 -18.062 21.549 C-18.084 18.866 -18.056 16.189 -18.016 13.506 C-18.034 12.716 -18.052 11.925 -18.07 11.11 C-17.974 7.723 -17.825 5.786 -15.307 3.386 C-10.33 0.108 -5.925 -1.289 0 0 Z " fill="#C4D3EF" transform="translate(392,118)"/>
<path d="M0 0 C3.686 1.613 4.754 2.63 7 6 C7.278 8.801 7.278 8.801 7.319 12.25 C7.339 13.543 7.359 14.836 7.379 16.169 C7.391 17.589 7.403 19.009 7.414 20.43 C7.433 21.9 7.452 23.37 7.473 24.84 C7.524 28.728 7.564 32.616 7.601 36.504 C7.64 40.379 7.692 44.254 7.742 48.129 C7.828 54.772 7.886 61.414 7.934 68.058 C7.97 72.287 8.064 76.512 8.198 80.739 C8.222 81.721 8.245 82.702 8.269 83.713 C8.312 85.466 8.374 87.219 8.459 88.97 C8.532 92.87 8.386 94.58 5.697 97.504 C-0.189 100.769 -8.325 99.875 -14.723 98.352 C-19.342 96.658 -19.342 96.658 -21 95 C-21.092 92.353 -21.118 89.734 -21.101 87.087 C-21.099 86.258 -21.098 85.429 -21.096 84.574 C-21.089 81.816 -21.073 79.059 -21.055 76.301 C-21.049 75.36 -21.043 74.42 -21.037 73.451 C-21.006 68.471 -20.967 63.491 -20.923 58.511 C-20.879 53.367 -20.863 48.224 -20.854 43.08 C-20.841 39.126 -20.806 35.172 -20.766 31.218 C-20.75 29.322 -20.743 27.426 -20.744 25.531 C-20.745 22.873 -20.714 20.217 -20.675 17.56 C-20.682 16.779 -20.689 15.998 -20.697 15.193 C-20.566 9.479 -19.049 7.03 -15 3 C-10.543 -0.82 -5.604 -0.691 0 0 Z " fill="#C3D3EF" transform="translate(642,119)"/>
<path d="M0 0 C144.21 0 288.42 0 437 0 C437 83.49 437 166.98 437 253 C436.67 253 436.34 253 436 253 C436 169.84 436 86.68 436 1 C433.03 1.33 430.06 1.66 427 2 C424.314 2.207 421.626 2.396 418.938 2.562 C417.627 2.646 416.316 2.73 414.965 2.816 C410.955 3.002 407.013 3.101 403 3 C402.67 2.67 402.34 2.34 402 2 C400.401 1.901 398.797 1.869 397.195 1.867 C396.219 1.866 395.244 1.865 394.238 1.863 C392.697 1.869 392.697 1.869 391.125 1.875 C390.105 1.871 389.086 1.867 388.035 1.863 C387.057 1.865 386.078 1.866 385.07 1.867 C384.171 1.868 383.271 1.869 382.344 1.871 C379.845 1.905 379.845 1.905 377 3 C375.493 3.092 373.982 3.131 372.473 3.133 C371.598 3.134 370.723 3.135 369.822 3.137 C368.912 3.133 368.001 3.129 367.062 3.125 C366.156 3.129 365.249 3.133 364.314 3.137 C363.001 3.135 363.001 3.135 361.66 3.133 C360.862 3.132 360.064 3.131 359.242 3.129 C357 3 357 3 355.318 2.5 C352.105 1.807 348.938 1.862 345.668 1.873 C344.927 1.871 344.187 1.87 343.424 1.868 C340.942 1.864 338.46 1.867 335.978 1.871 C334.199 1.869 332.42 1.867 330.641 1.865 C325.809 1.861 320.977 1.863 316.144 1.866 C311.091 1.868 306.038 1.866 300.986 1.864 C292.501 1.862 284.016 1.865 275.531 1.87 C265.715 1.875 255.898 1.873 246.081 1.868 C237.659 1.863 229.237 1.863 220.815 1.865 C215.781 1.867 210.748 1.867 205.715 1.864 C200.985 1.861 196.255 1.863 191.525 1.869 C189.786 1.87 188.047 1.87 186.309 1.867 C183.941 1.865 181.573 1.868 179.205 1.873 C178.513 1.871 177.82 1.869 177.106 1.866 C174.116 1.879 171.863 2.046 169 3 C166.083 3.098 163.19 3.14 160.273 3.133 C158.98 3.134 158.98 3.134 157.661 3.136 C155.833 3.136 154.006 3.135 152.178 3.13 C149.407 3.125 146.635 3.13 143.863 3.137 C142.083 3.136 140.303 3.135 138.523 3.133 C137.704 3.135 136.885 3.137 136.041 3.139 C131.3 3.12 126.694 2.802 121.988 2.227 C119.612 1.956 117.27 1.871 114.879 1.867 C114.006 1.866 113.132 1.865 112.232 1.863 C111.351 1.867 110.47 1.871 109.562 1.875 C108.685 1.871 107.808 1.867 106.904 1.863 C102.505 1.87 98.209 2.043 93.836 2.539 C89.448 3.023 85.459 2.899 81.062 2.5 C75.941 1.968 75.941 1.968 71 3 C70.381 2.814 69.762 2.629 69.125 2.438 C66.881 1.768 66.881 1.768 64.438 3.062 C63.633 3.372 62.829 3.681 62 4 C61.01 3.34 60.02 2.68 59 2 C56.388 1.739 56.388 1.739 53.418 1.84 C51.698 1.857 51.698 1.857 49.944 1.875 C48.704 1.896 47.465 1.916 46.188 1.938 C35.171 2.038 24.197 1.903 13.188 1.5 C11.871 1.452 10.554 1.404 9.198 1.355 C6.132 1.241 3.066 1.123 0 1 C0 0.67 0 0.34 0 0 Z " fill="#FE6126" transform="translate(307,298)"/>
<path d="M0 0 C8.91 0 17.82 0 27 0 C26.67 0.66 26.34 1.32 26 2 C24.824 1.969 24.824 1.969 23.625 1.938 C21.019 1.813 21.019 1.813 19 3 C16.488 3.098 14.011 3.139 11.5 3.125 C10.81 3.129 10.121 3.133 9.41 3.137 C4.253 3.127 4.253 3.127 2 2 C2 74.6 2 147.2 2 222 C1.34 222.33 0.68 222.66 0 223 C0 149.41 0 75.82 0 0 Z " fill="#FD6135" transform="translate(279,298)"/>
<path d="M0 0 C1.98 0 3.96 0 6 0 C6 25.08 6 50.16 6 76 C4.02 76 2.04 76 0 76 C0 50.92 0 25.84 0 0 Z " fill="#F5F5ED" transform="translate(632,130)"/>
<path d="M0 0 C1.65 0 3.3 0 5 0 C5 24.75 5 49.5 5 75 C3.02 75 1.04 75 -1 75 C-1.023 65.369 -1.041 55.738 -1.052 46.107 C-1.057 41.635 -1.064 37.163 -1.075 32.692 C-1.086 28.38 -1.092 24.068 -1.095 19.756 C-1.097 18.108 -1.1 16.459 -1.106 14.81 C-1.113 12.509 -1.114 10.208 -1.114 7.906 C-1.116 6.594 -1.118 5.282 -1.12 3.93 C-1 1 -1 1 0 0 Z " fill="#F6F6EC" transform="translate(386,130)"/>
<path d="M0 0 C0 0.33 0 0.66 0 1 C-0.664 1.098 -1.328 1.196 -2.012 1.297 C-7.353 2.201 -11.096 2.974 -15 7 C-17.442 10.663 -17.272 12.488 -17.319 16.858 C-17.329 17.551 -17.339 18.244 -17.349 18.958 C-17.38 21.247 -17.397 23.535 -17.414 25.824 C-17.433 27.412 -17.452 28.999 -17.473 30.587 C-17.524 34.764 -17.564 38.941 -17.601 43.119 C-17.641 47.382 -17.692 51.645 -17.742 55.908 C-17.839 64.272 -17.923 72.636 -18 81 C-18.33 81 -18.66 81 -19 81 C-19.116 71.438 -19.205 61.876 -19.259 52.314 C-19.285 47.873 -19.321 43.434 -19.377 38.993 C-19.432 34.708 -19.461 30.422 -19.474 26.136 C-19.484 24.502 -19.502 22.867 -19.529 21.233 C-19.565 18.942 -19.57 16.652 -19.568 14.361 C-19.579 13.057 -19.59 11.754 -19.601 10.411 C-18.846 6.129 -17.322 4.706 -14 2 C-9.556 -0.592 -4.991 -0.196 0 0 Z " fill="#568EF9" transform="translate(640,118)"/>
<path d="M0 0 C0.66 0.66 1.32 1.32 2 2 C1.758 4.82 1.758 4.82 1.125 8.125 C0.819 9.769 0.819 9.769 0.508 11.445 C0.34 12.288 0.173 13.131 0 14 C-0.66 14 -1.32 14 -2 14 C-2.33 14.66 -2.66 15.32 -3 16 C-3.99 16 -4.98 16 -6 16 C-5.477 13.237 -4.891 10.674 -4 8 C-3.34 8 -2.68 8 -2 8 C-1.34 5.36 -0.68 2.72 0 0 Z " fill="#F6623D" transform="translate(742,549)"/>
<path d="M0 0 C0 0.33 0 0.66 0 1 C-0.664 1.098 -1.328 1.196 -2.012 1.297 C-7.39 2.208 -11.021 3.021 -15 7 C-15.897 7.866 -15.897 7.866 -16.812 8.75 C-17.4 9.369 -17.4 9.369 -18 10 C-18.33 9.01 -18.66 8.02 -19 7 C-12.939 0.42 -8.602 -0.337 0 0 Z " fill="#7FA5F4" transform="translate(640,118)"/>
<path d="M0 0 C-3.755 3.059 -7.081 5 -12 5 C-12.495 2.525 -12.495 2.525 -13 0 C-8.345 -0.838 -4.629 -1.016 0 0 Z " fill="#FB6138" transform="translate(710,601)"/>
<path d="M0 0 C0 0.66 0 1.32 0 2 C0.66 2.33 1.32 2.66 2 3 C1.01 3.66 0.02 4.32 -1 5 C-0.331 8.113 -0.331 8.113 2.062 9.188 C2.702 9.456 3.341 9.724 4 10 C3.01 11.485 3.01 11.485 2 13 C0.828 11.379 -0.338 9.753 -1.5 8.125 C-2.15 7.22 -2.799 6.315 -3.469 5.383 C-5 3 -5 3 -5 1 C-3 0 -3 0 0 0 Z " fill="#F96235" transform="translate(294,576)"/>
<path d="M0 0 C0.99 0.33 1.98 0.66 3 1 C1.951 3.622 1.351 4.794 -1.125 6.25 C-1.744 6.497 -2.362 6.745 -3 7 C-3 7.66 -3 8.32 -3 9 C-4.65 9.66 -6.3 10.32 -8 11 C-8 10.34 -8 9.68 -8 9 C-4.538 6 -4.538 6 -2 6 C-2 5.01 -2 4.02 -2 3 C-1.34 3 -0.68 3 0 3 C0 2.01 0 1.02 0 0 Z " fill="#F55F37" transform="translate(724,586)"/>
<path d="M0 0 C1.98 0.495 1.98 0.495 4 1 C4 2.98 4 4.96 4 7 C1.525 6.01 1.525 6.01 -1 5 C-0.67 3.35 -0.34 1.7 0 0 Z " fill="#F8623D" transform="translate(300,587)"/>
<path d="M0 0 C-1.394 4.435 -3.606 6.874 -7 10 C-7 9.01 -7 8.02 -7 7 C-6.34 7 -5.68 7 -5 7 C-5 5.02 -5 3.04 -5 1 C-3 0 -3 0 0 0 Z " fill="#FA6233" transform="translate(735,576)"/>
<path d="M0 0 C0.99 0 1.98 0 3 0 C3 0.66 3 1.32 3 2 C3.66 2.33 4.32 2.66 5 3 C4.67 4.65 4.34 6.3 4 8 C1.846 5.378 0.599 3.356 0 0 Z " fill="#1A67F1" transform="translate(354,214)"/>
<path d="M0 0 C2.97 0.99 5.94 1.98 9 3 C9 3.66 9 4.32 9 5 C5.7 4.01 2.4 3.02 -1 2 C-0.67 1.34 -0.34 0.68 0 0 Z " fill="#E96042" transform="translate(320,603)"/>
<path d="M0 0 C1.32 0.33 2.64 0.66 4 1 C3.67 1.99 3.34 2.98 3 4 C0.438 5.188 0.438 5.188 -2 6 C-2.33 5.34 -2.66 4.68 -3 4 C-2.01 4 -1.02 4 0 4 C0 2.68 0 1.36 0 0 Z " fill="#1269FA" transform="translate(652,232)"/>
<path d="M0 0 C-0.33 0.66 -0.66 1.32 -1 2 C-2.98 2 -4.96 2 -7 2 C-7.33 2.66 -7.66 3.32 -8 4 C-8.66 3.34 -9.32 2.68 -10 2 C-3.375 -1.125 -3.375 -1.125 0 0 Z " fill="#216EEA" transform="translate(380,101)"/>
<path d="M0 0 C2.31 0.33 4.62 0.66 7 1 C6.34 1.66 5.68 2.32 5 3 C4.34 2.67 3.68 2.34 3 2 C3 2.99 3 3.98 3 5 C2.01 4.67 1.02 4.34 0 4 C0 2.68 0 1.36 0 0 Z " fill="#1767F8" transform="translate(312,603)"/>
<path d="M0 0 C0.33 0 0.66 0 1 0 C0.67 2.64 0.34 5.28 0 8 C-0.99 7.34 -1.98 6.68 -3 6 C-2.01 4.02 -1.02 2.04 0 0 Z " fill="#2073EF" transform="translate(356,118)"/>
</svg>
