<?xml version="1.0" encoding="UTF-8"?>
<!-- Generator: visioncortex VTracer 0.6.4 -->
<svg version="1.1" xmlns="http://www.w3.org/2000/svg" width="1024" height="1024">
<path d="M0 0 C337.92 0 675.84 0 1024 0 C1024 337.92 1024 675.84 1024 1024 C686.08 1024 348.16 1024 0 1024 C0 686.08 0 348.16 0 0 Z " fill="#000000" transform="translate(0,0)"/>
<path d="M0 0 C0.009 0.947 0.019 1.895 0.028 2.871 C0.073 6.431 0.134 9.99 0.208 13.55 C0.236 15.082 0.257 16.614 0.271 18.146 C0.271 31.119 0.271 31.119 5 43 C12.885 50.654 20.6 51.373 31.182 51.371 C33.296 51.375 35.408 51.411 37.521 51.449 C45.01 51.512 50.678 51.258 57 47 C69.585 34.415 66.4 16.806 67 0 C105.28 0 143.56 0 183 0 C183.33 8.58 183.66 17.16 184 26 C186.065 37.31 186.065 37.31 192.312 46.312 C199.906 51.08 206.449 51.53 215.223 51.501 C217.298 51.5 219.369 51.542 221.443 51.586 C229.588 51.661 236.295 50.948 243 46 C245.308 43.683 245.308 43.683 246.562 41.062 C247.018 40.249 247.473 39.436 247.941 38.598 C250.012 33.517 250.154 28.284 250.316 22.852 C250.348 21.865 250.348 21.865 250.379 20.859 C250.444 18.781 250.503 16.703 250.562 14.625 C250.606 13.207 250.649 11.789 250.693 10.371 C250.8 6.914 250.901 3.457 251 0 C254.645 -0.147 258.29 -0.235 261.938 -0.312 C262.959 -0.354 263.981 -0.396 265.033 -0.439 C274.825 -0.596 280.67 2.758 288 9 C297.032 19.574 294.818 34.718 294.729 47.663 C294.729 50.381 294.738 53.099 294.746 55.817 C294.761 62.411 294.744 69.005 294.716 75.6 C294.685 83.287 294.686 90.974 294.687 98.661 C294.688 112.379 294.661 126.096 294.617 139.813 C294.575 153.112 294.554 166.41 294.556 179.708 C294.556 180.528 294.556 181.348 294.556 182.193 C294.556 183.011 294.557 183.829 294.557 184.672 C294.559 199.835 294.541 214.997 294.514 230.16 C294.505 235.514 294.502 240.868 294.501 246.222 C294.499 252.746 294.485 259.271 294.458 265.795 C294.444 269.122 294.436 272.448 294.438 275.775 C294.44 279.384 294.423 282.993 294.401 286.603 C294.406 287.649 294.41 288.695 294.415 289.773 C294.326 298.776 292.336 305.484 286.078 312.176 C276.578 320.516 264.376 321.303 252.293 321.267 C251.154 321.272 250.016 321.276 248.842 321.281 C245.048 321.294 241.254 321.292 237.46 321.291 C234.731 321.295 232.001 321.303 229.272 321.311 C222.641 321.327 216.01 321.333 209.379 321.334 C203.986 321.335 198.592 321.339 193.199 321.346 C177.884 321.363 162.57 321.372 147.256 321.371 C146.432 321.371 145.607 321.371 144.758 321.371 C143.933 321.371 143.107 321.37 142.257 321.37 C128.884 321.37 115.511 321.389 102.138 321.417 C88.384 321.446 74.63 321.459 60.877 321.458 C53.164 321.457 45.451 321.462 37.739 321.484 C31.172 321.502 24.606 321.507 18.039 321.493 C14.693 321.487 11.348 321.488 8.003 321.504 C-24.455 321.642 -24.455 321.642 -34.348 311.938 C-38.906 306.592 -42.117 301.47 -42.137 294.317 C-42.142 293.349 -42.147 292.381 -42.152 291.383 C-42.153 290.317 -42.153 289.251 -42.154 288.153 C-42.158 287.022 -42.163 285.891 -42.167 284.726 C-42.181 280.917 -42.187 277.108 -42.193 273.299 C-42.2 270.575 -42.209 267.852 -42.218 265.129 C-42.242 256.942 -42.257 248.755 -42.27 240.568 C-42.273 238.255 -42.277 235.942 -42.281 233.629 C-42.307 219.263 -42.329 204.897 -42.341 190.532 C-42.344 187.204 -42.347 183.876 -42.35 180.549 C-42.351 179.722 -42.352 178.894 -42.352 178.042 C-42.365 164.651 -42.398 151.259 -42.44 137.867 C-42.482 124.115 -42.506 110.362 -42.511 96.61 C-42.515 88.89 -42.526 81.17 -42.559 73.45 C-42.587 66.874 -42.598 60.298 -42.587 53.721 C-42.582 50.368 -42.587 47.015 -42.609 43.662 C-42.632 40.02 -42.624 36.379 -42.608 32.736 C-42.622 31.686 -42.636 30.635 -42.65 29.553 C-42.554 20.633 -39.682 13.884 -33.875 7.125 C-24.213 -1.571 -12.15 -0.453 0 0 Z " fill="#000000" transform="translate(386,259)"/>
<path d="M0 0 C0.009 0.947 0.019 1.895 0.028 2.871 C0.073 6.431 0.134 9.99 0.208 13.55 C0.236 15.082 0.257 16.614 0.271 18.146 C0.271 31.119 0.271 31.119 5 43 C12.885 50.654 20.6 51.373 31.182 51.371 C33.296 51.375 35.408 51.411 37.521 51.449 C45.01 51.512 50.678 51.258 57 47 C69.585 34.415 66.4 16.806 67 0 C105.28 0 143.56 0 183 0 C183.33 8.58 183.66 17.16 184 26 C186.065 37.31 186.065 37.31 192.312 46.312 C199.906 51.08 206.449 51.53 215.223 51.501 C217.298 51.5 219.369 51.542 221.443 51.586 C229.588 51.661 236.295 50.948 243 46 C245.308 43.683 245.308 43.683 246.562 41.062 C247.018 40.249 247.473 39.436 247.941 38.598 C250.012 33.517 250.154 28.284 250.316 22.852 C250.348 21.865 250.348 21.865 250.379 20.859 C250.444 18.781 250.503 16.703 250.562 14.625 C250.606 13.207 250.649 11.789 250.693 10.371 C250.8 6.914 250.901 3.457 251 0 C254.645 -0.147 258.29 -0.235 261.938 -0.312 C262.959 -0.354 263.981 -0.396 265.033 -0.439 C274.825 -0.596 280.67 2.758 288 9 C297.032 19.574 294.818 34.718 294.729 47.663 C294.729 50.381 294.738 53.099 294.746 55.817 C294.761 62.411 294.744 69.005 294.716 75.6 C294.685 83.287 294.686 90.974 294.687 98.661 C294.688 112.379 294.661 126.096 294.617 139.813 C294.575 153.112 294.554 166.41 294.556 179.708 C294.556 180.528 294.556 181.348 294.556 182.193 C294.556 183.011 294.557 183.829 294.557 184.672 C294.559 199.835 294.541 214.997 294.514 230.16 C294.505 235.514 294.502 240.868 294.501 246.222 C294.499 252.746 294.485 259.271 294.458 265.795 C294.444 269.122 294.436 272.448 294.438 275.775 C294.44 279.384 294.423 282.993 294.401 286.603 C294.406 287.649 294.41 288.695 294.415 289.773 C294.326 298.776 292.336 305.484 286.078 312.176 C276.578 320.516 264.376 321.303 252.293 321.267 C251.154 321.272 250.016 321.276 248.842 321.281 C245.048 321.294 241.254 321.292 237.46 321.291 C234.731 321.295 232.001 321.303 229.272 321.311 C222.641 321.327 216.01 321.333 209.379 321.334 C203.986 321.335 198.592 321.339 193.199 321.346 C177.884 321.363 162.57 321.372 147.256 321.371 C146.432 321.371 145.607 321.371 144.758 321.371 C143.933 321.371 143.107 321.37 142.257 321.37 C128.884 321.37 115.511 321.389 102.138 321.417 C88.384 321.446 74.63 321.459 60.877 321.458 C53.164 321.457 45.451 321.462 37.739 321.484 C31.172 321.502 24.606 321.507 18.039 321.493 C14.693 321.487 11.348 321.488 8.003 321.504 C-24.455 321.642 -24.455 321.642 -34.348 311.938 C-38.906 306.592 -42.117 301.47 -42.137 294.317 C-42.142 293.349 -42.147 292.381 -42.152 291.383 C-42.153 290.317 -42.153 289.251 -42.154 288.153 C-42.158 287.022 -42.163 285.891 -42.167 284.726 C-42.181 280.917 -42.187 277.108 -42.193 273.299 C-42.2 270.575 -42.209 267.852 -42.218 265.129 C-42.242 256.942 -42.257 248.755 -42.27 240.568 C-42.273 238.255 -42.277 235.942 -42.281 233.629 C-42.307 219.263 -42.329 204.897 -42.341 190.532 C-42.344 187.204 -42.347 183.876 -42.35 180.549 C-42.351 179.722 -42.352 178.894 -42.352 178.042 C-42.365 164.651 -42.398 151.259 -42.44 137.867 C-42.482 124.115 -42.506 110.362 -42.511 96.61 C-42.515 88.89 -42.526 81.17 -42.559 73.45 C-42.587 66.874 -42.598 60.298 -42.587 53.721 C-42.582 50.368 -42.587 47.015 -42.609 43.662 C-42.632 40.02 -42.624 36.379 -42.608 32.736 C-42.622 31.686 -42.636 30.635 -42.65 29.553 C-42.554 20.633 -39.682 13.884 -33.875 7.125 C-24.213 -1.571 -12.15 -0.453 0 0 Z M-11.844 96.121 C-14.726 100.805 -15.253 104.71 -15.267 110.184 C-15.272 110.897 -15.276 111.609 -15.281 112.344 C-15.294 114.726 -15.292 117.107 -15.291 119.489 C-15.297 121.2 -15.303 122.91 -15.311 124.62 C-15.329 129.263 -15.333 133.905 -15.335 138.548 C-15.336 141.451 -15.34 144.353 -15.346 147.256 C-15.364 157.387 -15.372 167.519 -15.371 177.651 C-15.369 187.085 -15.39 196.52 -15.422 205.954 C-15.448 214.061 -15.459 222.169 -15.458 230.276 C-15.457 235.115 -15.463 239.953 -15.484 244.792 C-15.503 249.346 -15.504 253.899 -15.489 258.453 C-15.487 260.12 -15.492 261.787 -15.504 263.454 C-15.747 277.17 -15.747 277.17 -9.279 288.861 C-2.986 294.858 3.675 295.294 12 295.261 C13.003 295.265 14.007 295.268 15.04 295.272 C18.4 295.283 21.76 295.279 25.12 295.275 C27.53 295.279 29.94 295.284 32.35 295.29 C38.216 295.302 44.081 295.305 49.947 295.302 C54.717 295.301 59.486 295.302 64.256 295.307 C64.935 295.307 65.614 295.308 66.314 295.308 C67.694 295.31 69.074 295.311 70.455 295.312 C83.394 295.323 96.333 295.321 109.273 295.315 C121.1 295.309 132.927 295.321 144.755 295.34 C156.908 295.359 169.062 295.367 181.215 295.364 C188.035 295.362 194.854 295.364 201.674 295.378 C208.088 295.392 214.503 295.389 220.917 295.376 C223.269 295.374 225.621 295.376 227.974 295.385 C231.189 295.395 234.404 295.387 237.619 295.374 C238.546 295.382 239.473 295.389 240.428 295.397 C247.869 295.335 254.058 293.943 260.312 289.812 C268.2 281.558 267.585 272.79 267.549 262.094 C267.558 260.375 267.568 258.656 267.58 256.937 C267.607 252.284 267.608 247.632 267.603 242.979 C267.601 239.087 267.611 235.196 267.62 231.304 C267.643 222.12 267.643 212.935 267.631 203.75 C267.619 194.291 267.644 184.833 267.686 175.374 C267.722 167.238 267.734 159.102 267.727 150.965 C267.724 146.112 267.729 141.26 267.757 136.407 C267.782 131.842 267.778 127.277 267.752 122.711 C267.747 121.042 267.752 119.372 267.769 117.702 C267.855 108.334 267.604 100.363 261 93 C255.904 88.907 251.261 86.882 244.694 86.866 C243.406 86.859 243.406 86.859 242.092 86.852 C241.153 86.852 240.214 86.853 239.247 86.853 C238.246 86.849 237.245 86.845 236.214 86.842 C232.85 86.831 229.486 86.827 226.123 86.823 C223.715 86.817 221.307 86.81 218.899 86.803 C211.665 86.784 204.432 86.773 197.199 86.764 C193.79 86.76 190.382 86.755 186.973 86.749 C175.638 86.732 164.302 86.718 152.966 86.711 C150.026 86.709 147.085 86.707 144.145 86.705 C143.414 86.704 142.683 86.704 141.93 86.703 C130.097 86.695 118.264 86.67 106.431 86.637 C94.274 86.604 82.117 86.586 69.96 86.583 C63.138 86.581 56.316 86.572 49.493 86.547 C43.073 86.522 36.653 86.519 30.233 86.529 C27.879 86.53 25.526 86.523 23.173 86.51 C19.953 86.492 16.734 86.499 13.515 86.512 C12.589 86.501 11.664 86.49 10.711 86.479 C1.671 86.568 -6.077 88.896 -11.844 96.121 Z " fill="#FDAB4F" transform="translate(386,259)"/>
<path d="M0 0 C0.009 0.947 0.019 1.895 0.028 2.871 C0.073 6.431 0.134 9.99 0.208 13.55 C0.236 15.082 0.257 16.614 0.271 18.146 C0.271 31.119 0.271 31.119 5 43 C12.885 50.654 20.6 51.373 31.182 51.371 C33.296 51.375 35.408 51.411 37.521 51.449 C45.01 51.512 50.678 51.258 57 47 C69.585 34.415 66.4 16.806 67 0 C105.28 0 143.56 0 183 0 C183.33 8.58 183.66 17.16 184 26 C186.065 37.31 186.065 37.31 192.312 46.312 C199.906 51.08 206.449 51.53 215.223 51.501 C217.298 51.5 219.369 51.542 221.443 51.586 C229.588 51.661 236.295 50.948 243 46 C245.308 43.683 245.308 43.683 246.562 41.062 C247.018 40.249 247.473 39.436 247.941 38.598 C250.012 33.517 250.154 28.284 250.316 22.852 C250.348 21.865 250.348 21.865 250.379 20.859 C250.444 18.781 250.503 16.703 250.562 14.625 C250.606 13.207 250.649 11.789 250.693 10.371 C250.8 6.914 250.901 3.457 251 0 C254.645 -0.147 258.29 -0.235 261.938 -0.312 C262.959 -0.354 263.981 -0.396 265.033 -0.439 C274.825 -0.596 280.67 2.758 288 9 C297.032 19.574 294.818 34.718 294.729 47.663 C294.729 50.381 294.738 53.099 294.746 55.817 C294.761 62.411 294.744 69.005 294.716 75.6 C294.685 83.287 294.686 90.974 294.687 98.661 C294.688 112.379 294.661 126.096 294.617 139.813 C294.575 153.112 294.554 166.41 294.556 179.708 C294.556 180.528 294.556 181.348 294.556 182.193 C294.556 183.011 294.557 183.829 294.557 184.672 C294.559 199.835 294.541 214.997 294.514 230.16 C294.505 235.514 294.502 240.868 294.501 246.222 C294.499 252.746 294.485 259.271 294.458 265.795 C294.444 269.122 294.436 272.448 294.438 275.775 C294.44 279.384 294.423 282.993 294.401 286.603 C294.406 287.649 294.41 288.695 294.415 289.773 C294.326 298.776 292.336 305.484 286.078 312.176 C276.578 320.516 264.376 321.303 252.293 321.267 C251.154 321.272 250.016 321.276 248.842 321.281 C245.048 321.294 241.254 321.292 237.46 321.291 C234.731 321.295 232.001 321.303 229.272 321.311 C222.641 321.327 216.01 321.333 209.379 321.334 C203.986 321.335 198.592 321.339 193.199 321.346 C177.884 321.363 162.57 321.372 147.256 321.371 C146.432 321.371 145.607 321.371 144.758 321.371 C143.933 321.371 143.107 321.37 142.257 321.37 C128.884 321.37 115.511 321.389 102.138 321.417 C88.384 321.446 74.63 321.459 60.877 321.458 C53.164 321.457 45.451 321.462 37.739 321.484 C31.172 321.502 24.606 321.507 18.039 321.493 C14.693 321.487 11.348 321.488 8.003 321.504 C-24.455 321.642 -24.455 321.642 -34.348 311.938 C-38.906 306.592 -42.117 301.47 -42.137 294.317 C-42.142 293.349 -42.147 292.381 -42.152 291.383 C-42.153 290.317 -42.153 289.251 -42.154 288.153 C-42.158 287.022 -42.163 285.891 -42.167 284.726 C-42.181 280.917 -42.187 277.108 -42.193 273.299 C-42.2 270.575 -42.209 267.852 -42.218 265.129 C-42.242 256.942 -42.257 248.755 -42.27 240.568 C-42.273 238.255 -42.277 235.942 -42.281 233.629 C-42.307 219.263 -42.329 204.897 -42.341 190.532 C-42.344 187.204 -42.347 183.876 -42.35 180.549 C-42.351 179.722 -42.352 178.894 -42.352 178.042 C-42.365 164.651 -42.398 151.259 -42.44 137.867 C-42.482 124.115 -42.506 110.362 -42.511 96.61 C-42.515 88.89 -42.526 81.17 -42.559 73.45 C-42.587 66.874 -42.598 60.298 -42.587 53.721 C-42.582 50.368 -42.587 47.015 -42.609 43.662 C-42.632 40.02 -42.624 36.379 -42.608 32.736 C-42.622 31.686 -42.636 30.635 -42.65 29.553 C-42.554 20.633 -39.682 13.884 -33.875 7.125 C-24.213 -1.571 -12.15 -0.453 0 0 Z M-31.875 10.688 C-38.159 18.061 -39.59 25.885 -39.508 35.303 C-39.514 36.41 -39.52 37.518 -39.527 38.659 C-39.543 42.353 -39.53 46.046 -39.518 49.74 C-39.523 52.395 -39.53 55.05 -39.539 57.705 C-39.557 64.158 -39.553 70.611 -39.541 77.064 C-39.532 82.312 -39.531 87.559 -39.535 92.806 C-39.536 93.554 -39.536 94.302 -39.537 95.073 C-39.538 96.592 -39.54 98.112 -39.541 99.632 C-39.552 113.87 -39.539 128.108 -39.518 142.346 C-39.5 154.549 -39.503 166.753 -39.521 178.956 C-39.543 193.143 -39.551 207.33 -39.539 221.517 C-39.538 223.032 -39.537 224.546 -39.535 226.06 C-39.535 226.805 -39.534 227.55 -39.533 228.318 C-39.53 233.555 -39.536 238.792 -39.545 244.03 C-39.556 250.417 -39.553 256.805 -39.532 263.193 C-39.522 266.449 -39.52 269.704 -39.531 272.96 C-39.542 276.497 -39.528 280.033 -39.508 283.57 C-39.517 284.589 -39.526 285.608 -39.535 286.658 C-39.431 296.22 -36.665 304.254 -30.066 311.309 C-24.352 315.986 -16.512 318.121 -9.215 318.131 C-7.767 318.137 -7.767 318.137 -6.29 318.143 C-5.232 318.142 -4.174 318.141 -3.084 318.14 C-1.958 318.143 -0.832 318.146 0.329 318.149 C4.116 318.158 7.904 318.16 11.691 318.161 C14.402 318.165 17.112 318.171 19.822 318.176 C27.196 318.19 34.57 318.196 41.945 318.2 C46.552 318.203 51.159 318.207 55.767 318.212 C68.53 318.224 81.293 318.234 94.056 318.238 C95.281 318.238 95.281 318.238 96.531 318.238 C97.35 318.238 98.169 318.239 99.012 318.239 C100.671 318.239 102.331 318.24 103.99 318.24 C104.813 318.24 105.636 318.241 106.484 318.241 C119.806 318.245 133.128 318.262 146.451 318.286 C160.138 318.309 173.825 318.322 187.511 318.323 C195.192 318.324 202.873 318.33 210.554 318.348 C217.098 318.363 223.641 318.368 230.185 318.36 C233.52 318.356 236.855 318.359 240.19 318.371 C243.816 318.384 247.442 318.378 251.068 318.367 C252.108 318.376 253.148 318.384 254.22 318.392 C265.181 318.319 275.563 316.4 284 309 C290.546 301.877 291.295 294.514 291.254 285.165 C291.257 284.072 291.26 282.978 291.263 281.852 C291.271 278.188 291.265 274.524 291.259 270.86 C291.261 268.233 291.265 265.607 291.269 262.98 C291.278 256.585 291.276 250.19 291.271 243.795 C291.266 238.595 291.265 233.396 291.268 228.196 C291.268 227.086 291.268 227.086 291.269 225.953 C291.269 224.449 291.27 222.944 291.271 221.44 C291.276 207.336 291.27 193.232 291.259 179.128 C291.25 167.036 291.252 154.944 291.261 142.851 C291.271 128.802 291.276 114.753 291.27 100.704 C291.269 99.204 291.268 97.705 291.268 96.205 C291.267 95.467 291.267 94.73 291.267 93.969 C291.265 88.78 291.268 83.59 291.273 78.401 C291.278 72.071 291.277 65.741 291.266 59.411 C291.261 56.183 291.26 52.956 291.265 49.729 C291.271 46.224 291.264 42.72 291.254 39.216 C291.258 38.204 291.263 37.191 291.267 36.148 C291.206 24.917 289.291 16.291 281.188 8.188 C272.703 2.364 264.881 2.653 255 3 C254.98 3.705 254.96 4.41 254.94 5.136 C254.844 8.383 254.734 11.629 254.625 14.875 C254.594 15.984 254.563 17.092 254.531 18.234 C254.153 28.942 253.624 40.786 245.293 48.602 C239.511 52.91 234.304 54.31 227.102 54.301 C226.348 54.305 225.595 54.309 224.819 54.314 C223.231 54.319 221.642 54.32 220.054 54.316 C217.64 54.313 215.227 54.336 212.812 54.361 C211.263 54.364 209.714 54.364 208.164 54.363 C207.45 54.372 206.737 54.382 206.001 54.391 C198.621 54.324 193.013 51.71 187.574 46.809 C177.645 35.401 180.455 15.753 180 3 C143.7 3 107.4 3 70 3 C69.67 12.9 69.34 22.8 69 33 C62.35 48.961 62.35 48.961 51.968 53.343 C48.766 54.412 45.569 54.468 42.23 54.469 C41.509 54.476 40.788 54.484 40.045 54.492 C38.529 54.503 37.012 54.506 35.495 54.501 C33.203 54.5 30.914 54.542 28.623 54.586 C19.248 54.663 11.325 53.85 4.104 47.273 C-3.908 39.032 -3.518 28.738 -3.688 18 C-3.721 16.543 -3.755 15.086 -3.791 13.629 C-3.875 10.086 -3.942 6.543 -4 3 C-6.22 2.959 -8.44 2.93 -10.66 2.906 C-11.896 2.889 -13.133 2.871 -14.406 2.854 C-21.601 3.147 -26.934 5.454 -31.875 10.688 Z " fill="#0BADE0" transform="translate(386,259)"/>
<path d="M0 0 C1.006 -0.005 2.013 -0.009 3.05 -0.014 C6.408 -0.026 9.767 -0.017 13.125 -0.007 C15.539 -0.011 17.952 -0.017 20.365 -0.023 C26.232 -0.035 32.097 -0.034 37.964 -0.025 C42.732 -0.018 47.501 -0.017 52.269 -0.02 C52.949 -0.021 53.628 -0.021 54.329 -0.022 C55.709 -0.023 57.09 -0.024 58.471 -0.025 C71.407 -0.033 84.342 -0.024 97.278 -0.007 C108.37 0.006 119.462 0.004 130.555 -0.01 C143.447 -0.026 156.339 -0.033 169.231 -0.023 C170.606 -0.022 171.981 -0.021 173.357 -0.02 C174.371 -0.02 174.371 -0.02 175.407 -0.019 C180.169 -0.017 184.93 -0.021 189.692 -0.028 C196.103 -0.037 202.515 -0.031 208.926 -0.013 C211.279 -0.009 213.632 -0.01 215.985 -0.017 C219.196 -0.025 222.407 -0.015 225.619 0 C226.55 -0.007 227.482 -0.013 228.441 -0.02 C236.378 0.051 242.521 2.239 248.746 7.381 C255.187 15.008 254.448 24.045 254.377 33.432 C254.382 35.154 254.389 36.877 254.399 38.599 C254.417 43.256 254.404 47.913 254.385 52.57 C254.368 57.453 254.377 62.337 254.382 67.22 C254.387 75.419 254.371 83.617 254.343 91.816 C254.311 101.283 254.311 110.751 254.328 120.218 C254.344 129.342 254.337 138.465 254.32 147.588 C254.313 151.464 254.314 155.34 254.322 159.216 C254.329 163.782 254.317 168.348 254.29 172.914 C254.283 174.586 254.283 176.258 254.29 177.93 C254.357 195.555 254.357 195.555 247.058 203.193 C239.876 207.937 232.829 208.823 224.372 208.762 C222.861 208.769 222.861 208.769 221.319 208.776 C217.964 208.788 214.609 208.779 211.253 208.769 C208.84 208.773 206.426 208.779 204.013 208.785 C198.15 208.797 192.287 208.796 186.425 208.787 C181.659 208.78 176.894 208.779 172.128 208.782 C171.448 208.783 170.769 208.783 170.069 208.784 C168.688 208.785 167.308 208.786 165.927 208.787 C152.998 208.795 140.069 208.785 127.141 208.769 C116.054 208.756 104.968 208.758 93.882 208.772 C80.995 208.788 68.108 208.794 55.221 208.785 C53.846 208.784 52.471 208.783 51.096 208.782 C50.42 208.782 49.744 208.781 49.047 208.781 C44.288 208.778 39.528 208.783 34.769 208.79 C28.362 208.799 21.955 208.792 15.548 208.775 C13.196 208.771 10.845 208.772 8.494 208.779 C5.284 208.787 2.076 208.777 -1.134 208.762 C-2.064 208.769 -2.995 208.775 -3.954 208.782 C-10.971 208.719 -16.474 207.289 -22.004 202.693 C-22.556 202.256 -23.107 201.819 -23.676 201.369 C-29.794 193.661 -28.686 183.813 -28.658 174.535 C-28.664 172.823 -28.671 171.111 -28.679 169.398 C-28.697 164.764 -28.696 160.13 -28.69 155.496 C-28.687 151.621 -28.693 147.747 -28.699 143.873 C-28.713 134.731 -28.711 125.59 -28.7 116.449 C-28.689 107.028 -28.703 97.608 -28.729 88.188 C-28.752 80.088 -28.758 71.989 -28.752 63.889 C-28.749 59.056 -28.751 54.224 -28.769 49.392 C-28.784 44.847 -28.78 40.304 -28.761 35.76 C-28.758 34.096 -28.761 32.432 -28.771 30.768 C-28.874 13.106 -28.874 13.106 -21.504 5.568 C-14.424 0.803 -8.317 -0.06 0 0 Z M-21.067 11.318 C-21.65 11.987 -22.234 12.656 -22.836 13.346 C-25.657 17.395 -25.386 21.502 -25.408 26.331 C-25.412 27.031 -25.417 27.73 -25.421 28.451 C-25.435 30.794 -25.441 33.138 -25.447 35.481 C-25.455 37.162 -25.463 38.842 -25.472 40.523 C-25.498 46.042 -25.513 51.561 -25.527 57.08 C-25.533 58.982 -25.538 60.884 -25.544 62.785 C-25.565 70.697 -25.584 78.609 -25.595 86.521 C-25.611 97.851 -25.645 109.18 -25.702 120.509 C-25.74 128.481 -25.76 136.452 -25.765 144.423 C-25.769 149.182 -25.781 153.94 -25.813 158.698 C-25.843 163.177 -25.85 167.656 -25.838 172.135 C-25.838 173.775 -25.846 175.414 -25.864 177.053 C-26.06 189.564 -26.06 189.564 -20.254 200.381 C-13.326 206.238 -4.126 206.679 4.531 206.635 C5.487 206.638 6.443 206.641 7.428 206.644 C10.616 206.652 13.804 206.646 16.992 206.64 C19.284 206.642 21.576 206.646 23.868 206.65 C30.083 206.659 36.297 206.656 42.512 206.65 C49.021 206.645 55.53 206.649 62.038 206.652 C73.669 206.656 85.3 206.65 96.93 206.64 C107.464 206.631 117.997 206.632 128.531 206.642 C140.778 206.652 153.024 206.656 165.271 206.65 C171.748 206.647 178.226 206.647 184.703 206.654 C190.794 206.659 196.885 206.655 202.976 206.644 C205.209 206.641 207.442 206.642 209.675 206.646 C212.728 206.652 215.781 206.645 218.834 206.635 C219.713 206.639 220.592 206.644 221.497 206.648 C229.466 206.598 239.271 205.904 245.187 199.924 C249.272 195.141 249.873 192.728 249.9 186.513 C249.904 185.798 249.909 185.083 249.913 184.347 C249.927 181.939 249.933 179.532 249.939 177.125 C249.947 175.403 249.955 173.682 249.964 171.961 C249.99 166.296 250.005 160.632 250.019 154.967 C250.025 153.017 250.03 151.068 250.036 149.119 C250.057 141.009 250.076 132.899 250.087 124.789 C250.103 113.165 250.137 101.541 250.194 89.917 C250.232 81.745 250.252 73.574 250.257 65.402 C250.261 60.521 250.273 55.641 250.305 50.76 C250.335 46.165 250.342 41.571 250.33 36.976 C250.33 35.292 250.338 33.609 250.355 31.926 C250.684 19.693 250.684 19.693 244.746 9.381 C241.015 5.998 238.64 4.258 233.628 4.25 C232.326 4.244 232.326 4.244 230.999 4.238 C230.04 4.239 229.081 4.24 228.093 4.241 C226.571 4.236 226.571 4.236 225.019 4.232 C221.598 4.223 218.178 4.221 214.757 4.22 C212.313 4.215 209.869 4.21 207.426 4.205 C200.77 4.192 194.115 4.185 187.46 4.181 C183.306 4.178 179.151 4.174 174.997 4.169 C163.496 4.157 151.996 4.147 140.496 4.143 C139.76 4.143 139.023 4.143 138.264 4.143 C137.526 4.142 136.788 4.142 136.028 4.142 C134.532 4.142 133.036 4.141 131.54 4.141 C130.427 4.14 130.427 4.14 129.292 4.14 C117.272 4.136 105.251 4.119 93.231 4.095 C80.893 4.072 68.556 4.059 56.218 4.058 C49.29 4.057 42.361 4.051 35.433 4.033 C28.916 4.016 22.399 4.015 15.882 4.023 C13.488 4.024 11.094 4.02 8.701 4.01 C5.436 3.997 2.172 4.003 -1.093 4.013 C-2.043 4.005 -2.993 3.997 -3.972 3.989 C-11.263 4.044 -16.204 5.6 -21.067 11.318 Z " fill="#0998D4" transform="translate(399.25404357910156,345.6190490722656)"/>
<path d="M0 0 C3.352 2.21 5.694 4.082 7 8 C7.108 9.762 7.159 11.529 7.177 13.294 C7.196 14.917 7.196 14.917 7.216 16.572 C7.223 17.74 7.231 18.909 7.238 20.113 C7.246 21.316 7.254 22.518 7.263 23.757 C7.277 26.303 7.287 28.849 7.295 31.395 C7.312 35.287 7.356 39.177 7.4 43.068 C7.411 45.542 7.419 48.015 7.426 50.488 C7.443 51.651 7.461 52.814 7.479 54.012 C7.462 60.297 7.335 64.28 3 69 C-1.749 72.23 -5.892 72.463 -11.438 72.375 C-12.163 72.387 -12.888 72.398 -13.635 72.41 C-18.791 72.382 -22.426 71.406 -27 69 C-31.844 63.026 -31.18 55.237 -31.238 47.922 C-31.246 46.955 -31.254 45.989 -31.263 44.993 C-31.277 42.952 -31.287 40.911 -31.295 38.871 C-31.307 36.797 -31.327 34.724 -31.357 32.651 C-31.4 29.637 -31.416 26.624 -31.426 23.609 C-31.443 22.695 -31.461 21.782 -31.479 20.84 C-31.457 14.377 -30.337 8.623 -27 3 C-19.646 -3.478 -8.743 -3.464 0 0 Z " fill="#FCAA4F" transform="translate(615,226)"/>
<path d="M0 0 C3.89 3.79 4.824 7.047 5.14 12.363 C5.151 13.585 5.151 13.585 5.161 14.831 C5.171 15.763 5.18 16.694 5.19 17.654 C5.194 18.65 5.199 19.646 5.203 20.672 C5.209 21.709 5.215 22.746 5.22 23.814 C5.23 26.006 5.236 28.199 5.24 30.391 C5.25 33.724 5.281 37.057 5.312 40.391 C5.319 42.526 5.324 44.661 5.328 46.797 C5.34 47.785 5.353 48.772 5.366 49.79 C5.344 56.524 5.005 63.995 0 69 C-4.25 71.125 -8.106 71.183 -12.75 71.188 C-13.441 71.2 -14.132 71.212 -14.844 71.225 C-19.531 71.238 -23.621 70.846 -28 69 C-33.179 63.518 -32.581 57.602 -32.531 50.375 C-32.537 48.545 -32.537 48.545 -32.543 46.677 C-32.546 44.102 -32.538 41.526 -32.521 38.951 C-32.5 35.014 -32.521 31.078 -32.547 27.141 C-32.544 24.635 -32.539 22.13 -32.531 19.625 C-32.539 18.45 -32.547 17.275 -32.556 16.064 C-32.484 9.765 -32.318 5.745 -28 1 C-20.371 -4.822 -8.222 -4.669 0 0 Z " fill="#FDAA4E" transform="translate(433,227)"/>
<path d="M0 0 C16.5 0 33 0 50 0 C50 16.83 50 33.66 50 51 C33.5 51 17 51 0 51 C0 34.17 0 17.34 0 0 Z " fill="#FEAA4E" transform="translate(564,464)"/>
<path d="M0 0 C16.5 0 33 0 50 0 C50 16.5 50 33 50 50 C33.5 50 17 50 0 50 C0 33.5 0 17 0 0 Z " fill="#FDAA4E" transform="translate(487,465)"/>
<path d="M0 0 C16.17 0 32.34 0 49 0 C49 16.83 49 33.66 49 51 C32.83 51 16.66 51 0 51 C0 34.17 0 17.34 0 0 Z " fill="#FEAA4D" transform="translate(411,465)"/>
<path d="M0 0 C16.5 0 33 0 50 0 C50 16.17 50 32.34 50 49 C33.5 49 17 49 0 49 C0 32.83 0 16.66 0 0 Z " fill="#F9AA50" transform="translate(564,388)"/>
<path d="M0 0 C16.5 0 33 0 50 0 C50 16.17 50 32.34 50 49 C33.5 49 17 49 0 49 C0 32.83 0 16.66 0 0 Z " fill="#FAAA50" transform="translate(487,388)"/>
<path d="M0 0 C-0.125 1.812 -0.125 1.812 -1 4 C-1.887 4.433 -2.774 4.866 -3.688 5.312 C-7.995 7.507 -11.969 10.943 -13.566 15.678 C-14.149 18.798 -14.136 21.789 -14.147 24.964 C-14.151 25.665 -14.155 26.365 -14.158 27.087 C-14.169 29.436 -14.173 31.784 -14.177 34.132 C-14.183 35.816 -14.19 37.5 -14.197 39.183 C-14.218 44.712 -14.228 50.241 -14.238 55.77 C-14.242 57.674 -14.246 59.578 -14.251 61.482 C-14.27 70.427 -14.284 79.372 -14.292 88.317 C-14.302 98.64 -14.328 108.963 -14.369 119.286 C-14.399 127.268 -14.414 135.249 -14.417 143.23 C-14.419 147.997 -14.428 152.762 -14.453 157.528 C-14.477 162.013 -14.481 166.496 -14.471 170.98 C-14.47 172.624 -14.477 174.267 -14.49 175.911 C-14.508 178.159 -14.501 180.407 -14.488 182.655 C-14.49 183.912 -14.493 185.169 -14.495 186.464 C-13.879 190.861 -12.331 193.252 -10 197 C-10 197.66 -10 198.32 -10 199 C-1.818 203.243 5.428 204.148 14.529 204.158 C15.482 204.163 16.434 204.168 17.416 204.173 C20.603 204.189 23.791 204.197 26.978 204.205 C29.265 204.215 31.551 204.225 33.838 204.235 C40.044 204.262 46.25 204.283 52.456 204.303 C58.942 204.325 65.428 204.353 71.915 204.379 C82.801 204.424 93.687 204.464 104.574 204.503 C115.785 204.542 126.997 204.583 138.208 204.628 C139.246 204.632 139.246 204.632 140.304 204.636 C143.772 204.65 147.241 204.663 150.71 204.677 C179.473 204.791 208.237 204.898 237 205 C237 205.33 237 205.66 237 206 C206.307 206.137 175.614 206.243 144.92 206.306 C141.296 206.314 137.671 206.322 134.046 206.33 C133.324 206.331 132.603 206.333 131.859 206.334 C120.179 206.36 108.5 206.408 96.82 206.463 C84.833 206.519 72.846 206.552 60.859 206.565 C54.127 206.572 47.395 206.59 40.663 206.634 C34.327 206.675 27.991 206.688 21.654 206.679 C19.329 206.68 17.004 206.692 14.678 206.715 C11.501 206.745 8.326 206.738 5.149 206.722 C4.231 206.739 3.313 206.756 2.367 206.774 C-4.286 206.682 -8.284 204.692 -13 200 C-17.4 194.594 -18.249 189.582 -18.267 182.689 C-18.272 181.975 -18.276 181.26 -18.281 180.525 C-18.294 178.144 -18.292 175.763 -18.291 173.381 C-18.297 171.669 -18.303 169.957 -18.311 168.245 C-18.329 163.603 -18.333 158.96 -18.335 154.317 C-18.336 151.415 -18.34 148.513 -18.346 145.61 C-18.364 135.48 -18.372 125.349 -18.371 115.219 C-18.369 105.784 -18.391 96.349 -18.422 86.914 C-18.448 78.806 -18.459 70.698 -18.458 62.589 C-18.457 57.75 -18.463 52.911 -18.484 48.072 C-18.503 43.519 -18.504 38.968 -18.489 34.415 C-18.487 32.748 -18.492 31.081 -18.504 29.414 C-18.623 11.911 -18.623 11.911 -12.588 5.5 C-8.772 2.061 -5.149 0 0 0 Z " fill="#0AB7EC" transform="translate(389,347)"/>
<path d="M0 0 C3.89 3.79 4.824 7.047 5.14 12.363 C5.151 13.585 5.151 13.585 5.161 14.831 C5.171 15.763 5.18 16.694 5.19 17.654 C5.194 18.65 5.199 19.646 5.203 20.672 C5.209 21.709 5.215 22.746 5.22 23.814 C5.23 26.006 5.236 28.199 5.24 30.391 C5.25 33.724 5.281 37.057 5.312 40.391 C5.319 42.526 5.324 44.661 5.328 46.797 C5.34 47.785 5.353 48.772 5.366 49.79 C5.344 56.524 5.005 63.995 0 69 C-4.25 71.125 -8.106 71.183 -12.75 71.188 C-13.441 71.2 -14.132 71.212 -14.844 71.225 C-19.531 71.238 -23.621 70.846 -28 69 C-33.179 63.518 -32.581 57.602 -32.531 50.375 C-32.537 48.545 -32.537 48.545 -32.543 46.677 C-32.546 44.102 -32.538 41.526 -32.521 38.951 C-32.5 35.014 -32.521 31.078 -32.547 27.141 C-32.544 24.635 -32.539 22.13 -32.531 19.625 C-32.539 18.45 -32.547 17.275 -32.556 16.064 C-32.484 9.765 -32.318 5.745 -28 1 C-20.371 -4.822 -8.222 -4.669 0 0 Z M-25 6 C-28.015 11.737 -28.443 16.421 -28.398 22.844 C-28.401 23.772 -28.404 24.7 -28.407 25.656 C-28.409 27.609 -28.404 29.562 -28.391 31.515 C-28.375 34.491 -28.391 37.466 -28.41 40.441 C-28.408 42.346 -28.404 44.251 -28.398 46.156 C-28.405 47.039 -28.411 47.921 -28.417 48.83 C-28.347 55.007 -27.473 59.909 -23.5 64.875 C-19.363 67.978 -13.904 67.432 -9 67 C-4.828 65.277 -2.53 62.705 0 59 C0.857 56.271 1.136 53.776 1.177 50.925 C1.19 50.134 1.203 49.342 1.216 48.527 C1.223 47.679 1.231 46.831 1.238 45.957 C1.246 45.074 1.254 44.191 1.263 43.281 C1.277 41.413 1.287 39.544 1.295 37.676 C1.307 35.776 1.327 33.876 1.357 31.976 C1.4 29.22 1.416 26.464 1.426 23.707 C1.443 22.869 1.461 22.031 1.479 21.168 C1.457 15.11 0.126 10.228 -3 5 C-7.37 1.255 -11.651 1.493 -17.184 1.656 C-20.974 2.119 -22.62 3.006 -25 6 Z " fill="#0DA9D9" transform="translate(433,227)"/>
<path d="M0 0 C3.352 2.21 5.694 4.082 7 8 C7.108 9.762 7.159 11.529 7.177 13.294 C7.196 14.917 7.196 14.917 7.216 16.572 C7.223 17.74 7.231 18.909 7.238 20.113 C7.246 21.316 7.254 22.518 7.263 23.757 C7.277 26.303 7.287 28.849 7.295 31.395 C7.312 35.287 7.356 39.177 7.4 43.068 C7.411 45.542 7.419 48.015 7.426 50.488 C7.443 51.651 7.461 52.814 7.479 54.012 C7.462 60.297 7.335 64.28 3 69 C-1.749 72.23 -5.892 72.463 -11.438 72.375 C-12.163 72.387 -12.888 72.398 -13.635 72.41 C-18.791 72.382 -22.426 71.406 -27 69 C-31.844 63.026 -31.18 55.237 -31.238 47.922 C-31.246 46.955 -31.254 45.989 -31.263 44.993 C-31.277 42.952 -31.287 40.911 -31.295 38.871 C-31.307 36.797 -31.327 34.724 -31.357 32.651 C-31.4 29.637 -31.416 26.624 -31.426 23.609 C-31.443 22.695 -31.461 21.782 -31.479 20.84 C-31.457 14.377 -30.337 8.623 -27 3 C-19.646 -3.478 -8.743 -3.464 0 0 Z M-23.688 8 C-27.464 16.633 -27.346 26.256 -27.316 35.525 C-27.312 37.564 -27.336 39.6 -27.361 41.639 C-27.573 53.928 -27.573 53.928 -22.511 64.758 C-19.167 67.783 -15.867 68.364 -11.438 68.562 C-6.582 68.316 -3.614 67.433 0 64 C3.694 57.886 4.165 52.595 4.203 45.578 C4.212 44.35 4.212 44.35 4.22 43.097 C4.23 41.365 4.236 39.634 4.24 37.902 C4.25 35.273 4.281 32.645 4.312 30.016 C4.319 28.328 4.324 26.641 4.328 24.953 C4.34 24.176 4.353 23.398 4.366 22.597 C4.343 17.1 3.285 13.019 1 8 C-3.026 4.074 -6.328 2.851 -11.875 2.75 C-17.251 2.82 -20.16 3.819 -23.688 8 Z " fill="#09A0D2" transform="translate(615,226)"/>
<path d="M0 0 C81.18 0 162.36 0 246 0 C246 0.66 246 1.32 246 2 C246.99 2.99 246.99 2.99 248 4 C165.17 4 82.34 4 -3 4 C-2.01 3.67 -1.02 3.34 0 3 C0 2.01 0 1.02 0 0 Z " fill="#31A3BA" transform="translate(389,346)"/>
<path d="M0 0 C16.5 0 33 0 50 0 C50 16.83 50 33.66 50 51 C33.5 51 17 51 0 51 C0 34.17 0 17.34 0 0 Z M4 3 C4 18.18 4 33.36 4 49 C18.52 49 33.04 49 48 49 C48 33.82 48 18.64 48 3 C33.48 3 18.96 3 4 3 Z " fill="#0DB2E6" transform="translate(564,464)"/>
<path d="M0 0 C38.28 0 76.56 0 116 0 C116.33 8.58 116.66 17.16 117 26 C119.065 37.31 119.065 37.31 125.312 46.312 C132.906 51.08 139.449 51.53 148.223 51.501 C150.298 51.5 152.369 51.542 154.443 51.586 C164.431 51.675 170.794 49.471 179 44 C179.33 45.32 179.66 46.64 180 48 C173.294 52.997 168.643 55.312 160.102 55.301 C159.348 55.305 158.595 55.309 157.819 55.314 C156.231 55.319 154.642 55.32 153.054 55.316 C150.64 55.313 148.227 55.336 145.812 55.361 C144.263 55.364 142.714 55.364 141.164 55.363 C140.45 55.372 139.737 55.382 139.001 55.391 C131.097 55.319 125.544 52.288 119.797 47.031 C114.194 40.697 112.863 32.81 112.902 24.605 C112.907 22.802 112.907 22.802 112.912 20.963 C112.925 19.094 112.925 19.094 112.938 17.188 C112.942 15.922 112.947 14.657 112.951 13.354 C112.963 10.236 112.979 7.118 113 4 C113.66 4 114.32 4 115 4 C115 3.01 115 2.02 115 1 C77.38 1 39.76 1 1 1 C1 10.57 1 20.14 1 30 C0.67 30 0.34 30 0 30 C0 20.1 0 10.2 0 0 Z " fill="#0BBFEB" transform="translate(453,259)"/>
<path d="M0 0 C16.5 0 33 0 50 0 C50 16.5 50 33 50 50 C33.5 50 17 50 0 50 C0 33.5 0 17 0 0 Z M3 2 C3 17.18 3 32.36 3 48 C17.52 48 32.04 48 47 48 C47 32.82 47 17.64 47 2 C32.48 2 17.96 2 3 2 Z " fill="#16ACDB" transform="translate(487,465)"/>
<path d="M0 0 C16.17 0 32.34 0 49 0 C49 16.83 49 33.66 49 51 C32.83 51 16.66 51 0 51 C0 34.17 0 17.34 0 0 Z M2 2 C2 17.18 2 32.36 2 48 C16.52 48 31.04 48 46 48 C46 32.82 46 17.64 46 2 C31.48 2 16.96 2 2 2 Z " fill="#15A8D9" transform="translate(411,465)"/>
<path d="M0 0 C16.5 0 33 0 50 0 C50 16.17 50 32.34 50 49 C33.5 49 17 49 0 49 C0 32.83 0 16.66 0 0 Z M3 3 C2.907 4.412 2.883 5.829 2.886 7.244 C2.887 8.158 2.887 9.071 2.887 10.013 C2.892 10.979 2.897 11.946 2.902 12.941 C2.903 13.825 2.904 14.709 2.905 15.619 C2.911 18.934 2.925 22.248 2.938 25.562 C2.958 32.967 2.979 40.371 3 48 C17.85 48 32.7 48 48 48 C48 32.82 48 17.64 48 2 C40.761 1.979 33.521 1.959 26.062 1.938 C23.774 1.928 21.486 1.919 19.129 1.91 C17.327 1.907 15.525 1.904 13.723 1.902 C12.778 1.897 11.833 1.892 10.859 1.887 C9.966 1.887 9.073 1.887 8.153 1.886 C7.373 1.884 6.594 1.882 5.791 1.88 C3.976 1.804 3.976 1.804 3 3 Z " fill="#0AABE8" transform="translate(564,388)"/>
<path d="M0 0 C16.5 0 33 0 50 0 C50 16.17 50 32.34 50 49 C33.5 49 17 49 0 49 C0 32.83 0 16.66 0 0 Z M3 2 C3 17.18 3 32.36 3 48 C17.85 48 32.7 48 48 48 C48 32.82 48 17.64 48 2 C33.15 2 18.3 2 3 2 Z " fill="#08ABE7" transform="translate(487,388)"/>
<path d="M0 0 C37.62 0 75.24 0 114 0 C114 0.99 114 1.98 114 3 C77.04 2.67 40.08 2.34 2 2 C2 11.9 2 21.8 2 32 C-0.475 37.94 -0.475 37.94 -3 44 C-3.66 43.67 -4.32 43.34 -5 43 C-4.01 37.72 -3.02 32.44 -2 27 C-1.67 27 -1.34 27 -1 27 C-0.67 18.09 -0.34 9.18 0 0 Z " fill="#129AD0" transform="translate(454,260)"/>
<path d="M0 0 C3.517 0.32 5.534 0.622 8.312 2.875 C11.009 6.271 11.134 9.101 11.177 13.294 C11.196 14.917 11.196 14.917 11.216 16.572 C11.223 17.74 11.231 18.909 11.238 20.113 C11.246 21.316 11.254 22.518 11.263 23.757 C11.277 26.303 11.287 28.849 11.295 31.395 C11.312 35.287 11.356 39.177 11.4 43.068 C11.411 45.542 11.419 48.015 11.426 50.488 C11.443 51.651 11.461 52.814 11.479 54.012 C11.462 60.298 11.335 64.279 7 69 C2.21 72.274 -1.968 72.435 -7.562 72.312 C-8.304 72.316 -9.046 72.319 -9.811 72.322 C-13.979 72.281 -17.194 71.892 -21 70 C-17.4 68.2 -12.835 69.053 -8.854 69.215 C-4.74 69.38 -4.74 69.38 -1.156 67.633 C-0.775 67.094 -0.393 66.555 0 66 C0.846 65.257 1.691 64.515 2.562 63.75 C7.27 58.439 7.309 52.119 7.301 45.355 C7.305 44.546 7.309 43.736 7.314 42.901 C7.319 41.196 7.32 39.491 7.316 37.786 C7.313 35.205 7.336 32.626 7.361 30.045 C7.431 18.709 7.431 18.709 4.548 7.806 C4 6 4 6 5 3 C3.35 2.34 1.7 1.68 0 1 C0 0.67 0 0.34 0 0 Z " fill="#07ADE2" transform="translate(611,226)"/>
<path d="M0 0 C0.33 0 0.66 0 1 0 C1.07 22.357 1.123 44.714 1.155 67.071 C1.171 77.451 1.192 87.832 1.226 98.212 C1.256 107.258 1.276 116.304 1.282 125.35 C1.286 130.141 1.295 134.932 1.317 139.723 C1.338 144.231 1.344 148.739 1.339 153.247 C1.34 154.903 1.346 156.559 1.358 158.215 C1.373 160.473 1.369 162.731 1.361 164.989 C1.364 166.254 1.366 167.519 1.369 168.822 C0.977 172.195 0.302 173.566 -2 176 C-2.33 175.34 -2.66 174.68 -3 174 C-2.696 173.442 -2.393 172.884 -2.08 172.308 C-0.602 169.148 -0.737 166.55 -0.722 163.065 C-0.716 162.368 -0.71 161.67 -0.704 160.951 C-0.687 158.614 -0.684 156.277 -0.681 153.94 C-0.672 152.265 -0.662 150.59 -0.651 148.914 C-0.623 144.365 -0.608 139.816 -0.595 135.266 C-0.58 130.513 -0.553 125.759 -0.527 121.005 C-0.48 112.002 -0.444 103 -0.411 93.997 C-0.372 83.748 -0.323 73.499 -0.273 63.25 C-0.169 42.167 -0.08 21.083 0 0 Z " fill="#09A0CB" transform="translate(678,384)"/>
<path d="M0 0 C0.66 0.33 1.32 0.66 2 1 C4.718 1.072 7.409 1.093 10.125 1.062 C11.256 1.056 11.256 1.056 12.41 1.049 C14.273 1.037 16.137 1.019 18 1 C18 1.33 18 1.66 18 2 C13.38 2.33 8.76 2.66 4 3 C4.023 4.689 4.046 6.377 4.07 8.117 C4.089 10.37 4.107 12.622 4.125 14.875 C4.142 15.984 4.159 17.092 4.176 18.234 C4.227 26.915 4.032 35.527 -0.625 43.125 C-1.294 44.243 -1.294 44.243 -1.977 45.383 C-2.314 45.916 -2.652 46.45 -3 47 C-3.99 46.01 -4.98 45.02 -6 44 C-5.723 43.492 -5.446 42.984 -5.16 42.461 C-4.798 41.773 -4.436 41.084 -4.062 40.375 C-3.703 39.702 -3.343 39.029 -2.973 38.336 C-0.913 33.388 -0.842 28.149 -0.684 22.852 C-0.663 22.194 -0.642 21.537 -0.621 20.859 C-0.556 18.781 -0.497 16.703 -0.438 14.625 C-0.394 13.207 -0.351 11.789 -0.307 10.371 C-0.2 6.914 -0.099 3.457 0 0 Z " fill="#0C91BF" transform="translate(637,259)"/>
<path d="M0 0 C2.949 0.062 5.899 0.124 8.938 0.188 C8.608 9.757 8.278 19.327 7.938 29.188 C7.608 29.188 7.278 29.188 6.938 29.188 C6.938 19.947 6.938 10.707 6.938 1.188 C-0.983 1.683 -0.983 1.683 -9.062 2.188 C-9.062 2.848 -9.062 3.507 -9.062 4.188 C-9.715 4.395 -10.367 4.603 -11.039 4.816 C-19.083 7.652 -22.891 11.207 -26.938 18.625 C-27.309 19.471 -27.68 20.316 -28.062 21.188 C-29.053 21.188 -30.043 21.188 -31.062 21.188 C-31.392 21.848 -31.723 22.507 -32.062 23.188 C-31.384 14.708 -27.536 10.376 -21.551 4.801 C-14.782 0.412 -7.889 -0.237 0 0 Z " fill="#0EB6E5" transform="translate(377.0625,258.8125)"/>
<path d="M0 0 C-0.66 0 -1.32 0 -2 0 C-2 0.66 -2 1.32 -2 2 C-16.52 2 -31.04 2 -46 2 C-46 17.18 -46 32.36 -46 48 C-46.33 48 -46.66 48 -47 48 C-47.33 32.16 -47.66 16.32 -48 0 C-40.637 -0.186 -33.274 -0.371 -25.688 -0.562 C-22.204 -0.654 -22.204 -0.654 -18.651 -0.748 C-16.813 -0.792 -14.975 -0.836 -13.137 -0.879 C-11.702 -0.919 -11.702 -0.919 -10.239 -0.96 C-9.326 -0.98 -8.412 -1.001 -7.471 -1.022 C-6.282 -1.052 -6.282 -1.052 -5.069 -1.082 C-3 -1 -3 -1 0 0 Z " fill="#3BA0B4" transform="translate(614,465)"/>
<path d="M0 0 C0.66 0.33 1.32 0.66 2 1 C0.465 7.823 -3.625 12.705 -9.332 16.586 C-15.119 19.739 -20.442 20.847 -27 21 C-23.893 18.929 -20.781 17.371 -17.414 15.773 C-11.651 12.884 -7.744 10.281 -4.219 4.832 C-2.981 2.971 -1.625 1.526 0 0 Z " fill="#0CB1E2" transform="translate(677,558)"/>
<path d="M0 0 C2.124 3.186 2.252 3.984 2.259 7.636 C2.265 8.574 2.271 9.512 2.278 10.479 C2.274 11.491 2.27 12.504 2.266 13.547 C2.268 14.591 2.269 15.636 2.271 16.712 C2.273 18.925 2.269 21.137 2.261 23.35 C2.25 26.723 2.261 30.096 2.273 33.469 C2.272 35.62 2.27 37.771 2.266 39.922 C2.27 40.926 2.274 41.931 2.278 42.966 C2.242 48.371 1.79 52.889 0 58 C-1.491 53.527 -1.491 49.473 0 45 C0.087 43.512 0.118 42.02 0.114 40.529 C0.113 39.628 0.113 38.727 0.113 37.799 C0.108 36.83 0.103 35.861 0.098 34.863 C0.096 33.371 0.096 33.371 0.093 31.849 C0.088 28.67 0.075 25.491 0.062 22.312 C0.057 20.158 0.053 18.004 0.049 15.85 C0.038 10.566 0.021 5.283 0 0 Z " fill="#0CB5E2" transform="translate(436,234)"/>
<path d="M0 0 C-0.125 1.812 -0.125 1.812 -1 4 C-3 5 -5 6 -7 7 C-8.465 8.503 -8.465 8.503 -9.75 10.188 C-10.493 11.116 -11.235 12.044 -12 13 C-12.66 13 -13.32 13 -14 13 C-14.834 15.955 -15.179 18.701 -15.316 21.766 C-15.358 22.655 -15.4 23.545 -15.443 24.461 C-15.502 25.842 -15.502 25.842 -15.562 27.25 C-15.606 28.186 -15.649 29.122 -15.693 30.086 C-15.799 32.39 -15.901 34.695 -16 37 C-16.33 37 -16.66 37 -17 37 C-17.287 33.502 -17.523 30.002 -17.75 26.5 C-17.831 25.518 -17.912 24.535 -17.996 23.523 C-18.384 17.055 -17.848 12.346 -14 7 C-10.109 2.816 -5.803 0 0 0 Z " fill="#0FA0D3" transform="translate(389,347)"/>
<path d="M0 0 C5.167 -0.155 5.167 -0.155 10.438 -0.312 C11.504 -0.358 12.571 -0.404 13.67 -0.45 C20.533 -0.549 25.501 0.766 31 5 C31.33 5.66 31.66 6.32 32 7 C30.229 6.69 28.458 6.377 26.688 6.062 C25.701 5.888 24.715 5.714 23.699 5.535 C21 5 21 5 18 4 C16.108 3.778 14.211 3.594 12.312 3.438 C11.319 3.354 10.325 3.27 9.301 3.184 C8.162 3.093 8.162 3.093 7 3 C7 2.67 7 2.34 7 2 C4.03 1.505 4.03 1.505 1 1 C1 10.24 1 19.48 1 29 C0.67 29 0.34 29 0 29 C0 19.43 0 9.86 0 0 Z " fill="#0DC2EC" transform="translate(638,259)"/>
<path d="M0 0 C0.33 0.99 0.66 1.98 1 3 C1.598 3.082 2.196 3.165 2.812 3.25 C5.901 4.309 6.423 6.379 7.863 9.152 C10.296 13.106 14.191 15.461 18 18 C18 18.66 18 19.32 18 20 C19.32 20.66 20.64 21.32 22 22 C13.301 21.304 9.009 17.335 3.516 11 C0.685 7.264 -0.261 4.706 0 0 Z " fill="#10AADB" transform="translate(345,556)"/>
<path d="M0 0 C1.302 3.906 0.708 5.287 -1 9 C-5.416 13.224 -8.606 15.914 -14.759 16.135 C-16.261 16.093 -17.764 16.04 -19.266 15.977 C-20.059 15.952 -20.852 15.927 -21.67 15.901 C-24.197 15.819 -26.723 15.722 -29.25 15.625 C-30.966 15.567 -32.682 15.509 -34.398 15.453 C-38.599 15.313 -42.8 15.16 -47 15 C-47 14.67 -47 14.34 -47 14 C-46.073 13.991 -45.145 13.981 -44.189 13.972 C-40.715 13.927 -37.242 13.866 -33.768 13.792 C-32.27 13.764 -30.773 13.743 -29.275 13.729 C-16.362 13.856 -16.362 13.856 -5.499 7.518 C-3.445 5.155 -1.735 2.603 0 0 Z " fill="#07BBE7" transform="translate(450,297)"/>
<path d="M0 0 C5.496 0.402 9.124 2.187 13 6 C16.478 10.745 18.773 14.968 18 21 C17.34 21.33 16.68 21.66 16 22 C15.67 20.02 15.34 18.04 15 16 C14.34 16 13.68 16 13 16 C11.922 14.391 11.922 14.391 10.75 12.25 C8.335 8.169 6.007 6.423 2 4 C2 3.34 2 2.68 2 2 C1.34 2 0.68 2 0 2 C0 1.34 0 0.68 0 0 Z " fill="#0DA9DD" transform="translate(635,347)"/>
<path d="M0 0 C0.66 0 1.32 0 2 0 C2.268 0.639 2.536 1.279 2.812 1.938 C3.887 4.331 3.887 4.331 7 5 C7 4.01 7 3.02 7 2 C9.521 2.312 12.042 2.624 14.562 2.938 C15.267 3.025 15.971 3.112 16.697 3.201 C21.139 3.754 25.571 4.354 30 5 C29.67 5.66 29.34 6.32 29 7 C25.372 8.209 22.027 8.184 18.25 8.188 C17.559 8.2 16.868 8.212 16.156 8.225 C11.462 8.238 7.468 7.602 3 6 C0 2.903 0 2.903 0 0 Z " fill="#05A8E0" transform="translate(402,290)"/>
<path d="M0 0 C0.99 0 1.98 0 3 0 C5 3 5 3 6.625 5.875 C9.247 9.324 11.601 10.776 15.391 12.727 C15.922 13.147 16.453 13.567 17 14 C17 15.32 17 16.64 17 18 C10.736 17.236 7.213 13.432 3 9 C0.88 5.595 0 3.972 0 0 Z " fill="#0EA6D7" transform="translate(568,295)"/>
<path d="M0 0 C0.66 0.33 1.32 0.66 2 1 C2 13.54 2 26.08 2 39 C1.01 39.495 1.01 39.495 0 40 C-0.168 34.786 -0.328 29.571 -0.482 24.357 C-0.536 22.583 -0.591 20.808 -0.648 19.034 C-0.73 16.485 -0.805 13.936 -0.879 11.387 C-0.906 10.593 -0.933 9.799 -0.961 8.981 C-1.05 5.694 -1.049 3.147 0 0 Z " fill="#D8AC55" transform="translate(617,241)"/>
<path d="M0 0 C0.66 1.32 1.32 2.64 2 4 C-1.267 8.324 -3.691 11.294 -9 13 C-13.346 13.233 -17.653 13.174 -22 13 C-19.722 10.722 -18.833 10.613 -15.75 10.062 C-8.393 8.518 -4.474 5.921 0 0 Z " fill="#0AB1E2" transform="translate(648,540)"/>
<path d="M0 0 C11.88 0.33 23.76 0.66 36 1 C36 1.33 36 1.66 36 2 C32.37 2.33 28.74 2.66 25 3 C25 3.33 25 3.66 25 4 C17.41 4 9.82 4 2 4 C1.34 2.68 0.68 1.36 0 0 Z " fill="#04B9EB" transform="translate(584,310)"/>
<path d="M0 0 C5.28 0 10.56 0 16 0 C16 0.33 16 0.66 16 1 C11.38 1.33 6.76 1.66 2 2 C2.012 3.747 2.023 5.493 2.035 7.293 C2.045 9.591 2.054 11.889 2.062 14.188 C2.071 15.338 2.079 16.488 2.088 17.674 C2.091 18.786 2.094 19.897 2.098 21.043 C2.103 22.064 2.108 23.085 2.114 24.137 C2.005 26.869 1.617 29.342 1 32 C0.67 32 0.34 32 0 32 C0 21.44 0 10.88 0 0 Z " fill="#289CC4" transform="translate(639,260)"/>
<path d="M0 0 C0.66 0 1.32 0 2 0 C6 6.75 6 6.75 6 9 C10.952 11.568 15.447 13.225 21 14 C17.541 16.129 15.025 16.619 11 16 C6.251 13.305 2.208 10.107 0 5 C0 3.333 0 1.667 0 0 Z " fill="#11AAD8" transform="translate(373,537)"/>
<path d="M0 0 C1.265 2.53 0.926 3.78 0.598 6.582 C-0.184 14.27 -0.351 21.968 -0.562 29.688 C-0.606 31.179 -0.649 32.671 -0.693 34.162 C-0.799 37.775 -0.901 41.387 -1 45 C-1.33 45 -1.66 45 -2 45 C-2.025 43.941 -2.05 42.882 -2.076 41.791 C-2.17 37.843 -2.271 33.896 -2.372 29.949 C-2.415 28.244 -2.457 26.539 -2.497 24.833 C-2.555 22.376 -2.619 19.918 -2.684 17.461 C-2.7 16.704 -2.717 15.948 -2.734 15.169 C-2.849 11.027 -3.21 7.067 -4 3 C-3.01 3 -2.02 3 -1 3 C-0.67 2.01 -0.34 1.02 0 0 Z " fill="#33A1BF" transform="translate(436,232)"/>
<path d="M0 0 C4.565 0.199 8.074 0.452 12.062 2.812 C14 5 14 5 14 9 C11.525 8.505 11.525 8.505 9 8 C9 7.34 9 6.68 9 6 C4.445 3.796 -0.029 3.412 -5 3 C-5 2.67 -5 2.34 -5 2 C-3.35 1.67 -1.7 1.34 0 1 C0 0.67 0 0.34 0 0 Z " fill="#08A0D5" transform="translate(421,226)"/>
<path d="M0 0 C0.66 0.33 1.32 0.66 2 1 C0.744 5.5 -0.727 8.633 -4 12 C-6.75 13.312 -6.75 13.312 -9 14 C-9.66 13.34 -10.32 12.68 -11 12 C-10.258 11.484 -9.515 10.969 -8.75 10.438 C-6.339 8.3 -5.298 7.037 -3.812 4.312 C-2 1 -2 1 0 0 Z " fill="#0E9ED8" transform="translate(677,558)"/>
<path d="M0 0 C2.488 3.732 2.126 5.234 1.559 9.504 C0.641 13.606 -1.103 17.267 -3 21 C-3.66 20.67 -4.32 20.34 -5 20 C-4.549 17.415 -4.09 14.832 -3.625 12.25 C-3.499 11.52 -3.372 10.791 -3.242 10.039 C-2.582 6.406 -1.926 3.181 0 0 Z " fill="#18A7D4" transform="translate(454,283)"/>
<path d="M0 0 C0.33 0 0.66 0 1 0 C1.194 4.838 1.372 9.675 1.537 14.514 C1.595 16.157 1.657 17.8 1.724 19.443 C1.819 21.816 1.899 24.189 1.977 26.562 C2.009 27.287 2.041 28.011 2.074 28.757 C2.221 33.851 1.413 38.101 0 43 C-0.66 43 -1.32 43 -2 43 C-1.934 42.4 -1.869 41.799 -1.801 41.18 C-0.933 32.569 -0.674 23.958 -0.438 15.312 C-0.394 13.821 -0.351 12.329 -0.307 10.838 C-0.201 7.225 -0.099 3.613 0 0 Z " fill="#029DE1" transform="translate(435,245)"/>
<path d="M0 0 C4.252 0.25 6.476 0.569 9.812 3.312 C13.129 7.387 13.129 7.387 14 10 C13.67 10.99 13.34 11.98 13 13 C12.67 11.68 12.34 10.36 12 9 C11.01 9.33 10.02 9.66 9 10 C8.518 9.446 8.036 8.891 7.539 8.32 C6.907 7.596 6.276 6.871 5.625 6.125 C4.999 5.406 4.372 4.686 3.727 3.945 C2.526 2.592 1.279 1.279 0 0 Z " fill="#0AABDE" transform="translate(664,265)"/>
<path d="M0 0 C3.407 0.31 5.56 0.688 8.375 2.688 C10.439 5.624 10.319 7.486 10 11 C9.34 11 8.68 11 8 11 C8 12.65 8 14.3 8 16 C6.26 12.769 4.979 9.539 4 6 C4.33 5.01 4.66 4.02 5 3 C2.525 2.01 2.525 2.01 0 1 C0 0.67 0 0.34 0 0 Z " fill="#03AAE3" transform="translate(611,226)"/>
<path d="M0 0 C3.232 0.961 4.759 1.694 6.875 4.375 C8 7 8 7 7.688 9.312 C7.461 9.869 7.234 10.426 7 11 C4.5 9.688 4.5 9.688 2 8 C2 7.01 2 6.02 2 5 C1.01 4.67 0.02 4.34 -1 4 C-0.67 2.68 -0.34 1.36 0 0 Z " fill="#04A0D5" transform="translate(402,285)"/>
<path d="M0 0 C-0.33 0.66 -0.66 1.32 -1 2 C-4.763 3.254 -8.272 3.107 -12.188 3.062 C-12.937 3.058 -13.687 3.053 -14.459 3.049 C-16.306 3.037 -18.153 3.019 -20 3 C-20 2.67 -20 2.34 -20 2 C-13.217 0.58 -6.933 -0.227 0 0 Z " fill="#04B8E7" transform="translate(432,295)"/>
<path d="M0 0 C2.83 0.283 3.82 0.801 5.75 2.938 C7 5 7 5 7 7 C6.01 7.33 5.02 7.66 4 8 C3.622 7.355 3.245 6.711 2.855 6.047 C1.139 3.76 1.139 3.76 -1.699 3.391 C-3.178 3.321 -3.178 3.321 -4.688 3.25 C-5.681 3.193 -6.675 3.137 -7.699 3.078 C-8.838 3.039 -8.838 3.039 -10 3 C-10 2.67 -10 2.34 -10 2 C-9.043 1.909 -9.043 1.909 -8.066 1.816 C-6.827 1.691 -6.827 1.691 -5.562 1.562 C-4.739 1.481 -3.915 1.4 -3.066 1.316 C-1.013 1.211 -1.013 1.211 0 0 Z " fill="#039ED7" transform="translate(610,225)"/>
<path d="M0 0 C2.938 0.812 2.938 0.812 6 2 C6.33 2.99 6.66 3.98 7 5 C9 6.209 9 6.209 11 7 C6.224 6.532 2.955 5.757 -1 3 C-0.67 2.01 -0.34 1.02 0 0 Z " fill="#0BB0E2" transform="translate(356,571)"/>
<path d="M0 0 C0.66 0 1.32 0 2 0 C2.33 3.96 2.66 7.92 3 12 C1.68 11.34 0.36 10.68 -1 10 C-0.67 6.7 -0.34 3.4 0 0 Z " fill="#03B0E9" transform="translate(568,285)"/>
<path d="M0 0 C0.66 1.32 1.32 2.64 2 4 C-0.31 5.65 -2.62 7.3 -5 9 C-5.33 8.01 -5.66 7.02 -6 6 C-4 4 -2 2 0 0 Z " fill="#16A7D9" transform="translate(631,303)"/>
<path d="M0 0 C0.433 0.959 0.433 0.959 0.875 1.938 C1.828 4.152 1.828 4.152 4 5 C3.01 6.485 3.01 6.485 2 8 C1.01 8 0.02 8 -1 8 C-1.33 8.66 -1.66 9.32 -2 10 C-2.688 8.375 -2.688 8.375 -3 6 C-1.562 2.75 -1.562 2.75 0 0 Z " fill="#06AADD" transform="translate(588,230)"/>
<path d="M0 0 C5.75 -0.125 5.75 -0.125 8 1 C7.67 2.32 7.34 3.64 7 5 C1.06 4.01 1.06 4.01 -5 3 C-5 2.67 -5 2.34 -5 2 C-3.35 1.67 -1.7 1.34 0 1 C0 0.67 0 0.34 0 0 Z " fill="#1EA1CA" transform="translate(421,226)"/>
<path d="M0 0 C0 0.33 0 0.66 0 1 C-3.076 1.293 -3.076 1.293 -6.152 1.586 C-6.762 1.723 -7.372 1.859 -8 2 C-8.33 2.66 -8.66 3.32 -9 4 C-12.3 3.67 -15.6 3.34 -19 3 C-19 2.67 -19 2.34 -19 2 C-16.397 1.47 -13.793 0.951 -11.188 0.438 C-10.081 0.21 -10.081 0.21 -8.951 -0.021 C-3.34 -1.113 -3.34 -1.113 0 0 Z " fill="#0DA4D9" transform="translate(658,576)"/>
<path d="M0 0 C0.99 0.33 1.98 0.66 3 1 C2.258 1.681 1.515 2.361 0.75 3.062 C-2.244 6.031 -4.034 9.287 -6 13 C-6.33 12.34 -6.66 11.68 -7 11 C-5.356 6.328 -3.815 3.289 0 0 Z " fill="#F3AC44" transform="translate(596,230)"/>
<path d="M0 0 C1.772 0.114 3.542 0.242 5.312 0.375 C6.792 0.479 6.792 0.479 8.301 0.586 C11 1 11 1 14 3 C12.585 3.197 11.168 3.382 9.75 3.562 C8.961 3.667 8.172 3.771 7.359 3.879 C4.995 4 3.249 3.696 1 3 C0.67 3.66 0.34 4.32 0 5 C0 3.35 0 1.7 0 0 Z " fill="#019DD8" transform="translate(410,225)"/>
<path d="M0 0 C1.65 0 3.3 0 5 0 C4.67 1.32 4.34 2.64 4 4 C-2.93 3.505 -2.93 3.505 -10 3 C-10 2.67 -10 2.34 -10 2 C-6.7 2 -3.4 2 0 2 C0 1.34 0 0.68 0 0 Z " fill="#0F9FD1" transform="translate(655,259)"/>
<path d="M0 0 C-0.33 0.66 -0.66 1.32 -1 2 C-4.96 2 -8.92 2 -13 2 C-9.552 -1.448 -4.506 -1.622 0 0 Z " fill="#04B7F0" transform="translate(639,551)"/>
<path d="M0 0 C0.99 0.33 1.98 0.66 3 1 C1.25 6.75 1.25 6.75 -1 9 C-2.188 7.312 -2.188 7.312 -3 5 C-1.625 2.25 -1.625 2.25 0 0 Z " fill="#09A3D1" transform="translate(634,297)"/>
<path d="M0 0 C0.99 0 1.98 0 3 0 C4.354 2.709 4.065 5.009 4 8 C3.01 8.495 3.01 8.495 2 9 C1.876 8.031 1.753 7.061 1.625 6.062 C1.419 5.052 1.212 4.041 1 3 C0.34 2.67 -0.32 2.34 -1 2 C-0.67 1.34 -0.34 0.68 0 0 Z " fill="#149FD0" transform="translate(649,360)"/>
<path d="M0 0 C2.516 0.974 3.739 1.462 4.938 3.938 C5 6 5 6 3.562 7.75 C2.789 8.369 2.789 8.369 2 9 C-0.29 5.565 -0.178 4.015 0 0 Z " fill="#0E9FD0" transform="translate(384,293)"/>
<path d="M0 0 C-0.33 2.31 -0.66 4.62 -1 7 C-2.65 7.33 -4.3 7.66 -6 8 C-3.189 0 -3.189 0 0 0 Z " fill="#0BB1E2" transform="translate(353,267)"/>
<path d="M0 0 C0.66 0.33 1.32 0.66 2 1 C0.723 5.993 -1.173 8.576 -5 12 C-3.982 9.964 -2.965 7.936 -1.875 5.938 C-0.794 3.899 -0.794 3.899 -1 1 C-0.67 0.67 -0.34 0.34 0 0 Z " fill="#06AFE1" transform="translate(677,558)"/>
<path d="M0 0 C0.99 0.33 1.98 0.66 3 1 C0.36 2.65 -2.28 4.3 -5 6 C-5.66 5.34 -6.32 4.68 -7 4 C-7 3.34 -7 2.68 -7 2 C-3.99 1.066 -3.133 0.956 0 2 C0 1.34 0 0.68 0 0 Z " fill="#1098D0" transform="translate(644,547)"/>
<path d="M0 0 C4.875 4.75 4.875 4.75 6 7 C3.03 6.505 3.03 6.505 0 6 C-1.125 2.25 -1.125 2.25 0 0 Z " fill="#0DB2E1" transform="translate(388,299)"/>
<path d="M0 0 C0.99 0 1.98 0 3 0 C2.67 3.3 2.34 6.6 2 10 C1.01 9.01 0.02 8.02 -1 7 C-0.688 3.312 -0.688 3.312 0 0 Z " fill="#1E9FCE" transform="translate(587,238)"/>
<path d="M0 0 C1.481 0.281 2.96 0.575 4.438 0.875 C5.673 1.119 5.673 1.119 6.934 1.367 C7.616 1.576 8.297 1.785 9 2 C9.33 2.66 9.66 3.32 10 4 C6.688 4.688 6.688 4.688 3 5 C1.062 3.688 1.062 3.688 0 2 C0 1.34 0 0.68 0 0 Z " fill="#18A0CE" transform="translate(363,574)"/>
<path d="M0 0 C0.66 0 1.32 0 2 0 C1.502 3.735 1.125 5.812 -1 9 C-1.66 7.68 -2.32 6.36 -3 5 C-2.34 5 -1.68 5 -1 5 C-0.67 3.35 -0.34 1.7 0 0 Z " fill="#19A1CF" transform="translate(651,534)"/>
<path d="M0 0 C1.578 0.402 1.578 0.402 3.188 0.812 C0.206 2.8 -1.375 3.226 -4.812 3.812 C-6.148 4.137 -7.482 4.468 -8.812 4.812 C-4.751 -0.234 -4.751 -0.234 0 0 Z " fill="#E8AD4C" transform="translate(416.8125,229.1875)"/>
<path d="M0 0 C2.301 3.452 2.138 4.235 1.625 8.188 C1.514 9.089 1.403 9.99 1.289 10.918 C1.194 11.605 1.098 12.292 1 13 C-0.908 9.825 -1.161 7.894 -0.625 4.25 C-0.514 3.451 -0.403 2.652 -0.289 1.828 C-0.194 1.225 -0.098 0.622 0 0 Z " fill="#F6AF4A" transform="translate(369,362)"/>
<path d="M0 0 C1 2 1 2 0.438 4 C-1.573 6.797 -3.744 7.151 -7 8 C-6.021 6.854 -5.042 5.708 -4.062 4.562 C-3.517 3.924 -2.972 3.286 -2.41 2.629 C-1.632 1.73 -0.841 0.841 0 0 Z " fill="#FAA941" transform="translate(451,303)"/>
<path d="M0 0 C-0.99 2.97 -1.98 5.94 -3 9 C-3.66 8.67 -4.32 8.34 -5 8 C-4.744 5.657 -4.407 3.322 -4 1 C-2 0 -2 0 0 0 Z " fill="#1297CD" transform="translate(454,295)"/>
<path d="M0 0 C-1 2 -1 2 -2.848 2.633 C-3.579 2.795 -4.309 2.958 -5.062 3.125 C-6.163 3.376 -6.163 3.376 -7.285 3.633 C-7.851 3.754 -8.417 3.875 -9 4 C-9.33 3.34 -9.66 2.68 -10 2 C-6.492 0.396 -3.856 -0.22 0 0 Z " fill="#FAAA40" transform="translate(662,572)"/>
<path d="M0 0 C0.66 0.33 1.32 0.66 2 1 C2.625 3.562 2.625 3.562 3 6 C1.35 5.67 -0.3 5.34 -2 5 C-2 4.01 -2 3.02 -2 2 C-1.34 2 -0.68 2 0 2 C0 1.34 0 0.68 0 0 Z " fill="#1B98C5" transform="translate(346,553)"/>
<path d="M0 0 C2.97 0.495 2.97 0.495 6 1 C6 1.99 6 2.98 6 4 C4.68 4 3.36 4 2 4 C2 3.34 2 2.68 2 2 C1.34 2 0.68 2 0 2 C0 1.34 0 0.68 0 0 Z " fill="#1AA2D3" transform="translate(635,347)"/>
<path d="M0 0 C-1.75 3.875 -1.75 3.875 -4 5 C-4.66 3.68 -5.32 2.36 -6 1 C-4 0 -4 0 0 0 Z " fill="#03AEDE" transform="translate(596,226)"/>
</svg>
