<?xml version="1.0" encoding="UTF-8"?>
<!-- Generator: visioncortex VTracer 0.6.4 -->
<svg version="1.1" xmlns="http://www.w3.org/2000/svg" width="1024" height="1024">
<path d="M0 0 C337.92 0 675.84 0 1024 0 C1024 337.92 1024 675.84 1024 1024 C686.08 1024 348.16 1024 0 1024 C0 686.08 0 348.16 0 0 Z " fill="#060606" transform="translate(0,0)"/>
<path d="M0 0 C1.706 1.533 3.488 2.981 5.301 4.387 C9.852 8.454 13.449 13.244 17.238 18.012 C17.9 18.795 18.561 19.579 19.242 20.387 C37.338 42.029 48.83 69.253 53.238 97.012 C53.405 97.959 53.572 98.907 53.744 99.883 C55.052 107.64 55.589 115.15 55.551 123.012 C55.547 124.177 55.544 125.343 55.54 126.544 C55.408 137.226 54.181 147.522 52.238 158.012 C51.913 159.897 51.913 159.897 51.582 161.82 C47.36 183.959 37.296 205.727 24.238 224.012 C23.658 224.831 23.658 224.831 23.066 225.667 C-2.876 261.832 -42.837 286.728 -86.637 294.387 C-95.334 295.808 -103.946 296.766 -112.762 297.012 C-114.336 297.089 -114.336 297.089 -115.941 297.168 C-133.219 297.665 -151.192 294.863 -167.762 290.012 C-168.518 289.791 -169.274 289.57 -170.054 289.342 C-212.847 276.425 -248.559 246.67 -270.281 207.766 C-292.199 166.744 -297.133 118.029 -283.949 73.387 C-274.37 43.041 -255.774 14.012 -230.762 -5.988 C-229.821 -6.755 -228.88 -7.522 -227.91 -8.312 C-160.589 -62.259 -63.252 -57.94 0 0 Z M-235.512 18.949 C-236.946 20.622 -238.362 22.31 -239.762 24.012 C-240.548 24.95 -241.334 25.889 -242.145 26.855 C-268.723 59.849 -278.982 100.742 -275.074 142.574 C-270.656 182.128 -251.037 220.883 -219.762 246.012 C-184.485 274.022 -142.972 286.041 -98.07 281.391 C-77.353 278.819 -57.939 272.239 -39.762 262.012 C-38.091 261.074 -38.091 261.074 -36.387 260.117 C-16.027 248.102 1.155 231.667 14.238 212.012 C14.954 210.957 15.669 209.903 16.406 208.816 C28.616 189.97 36.377 168.081 38.926 145.824 C39.051 144.731 39.176 143.638 39.305 142.512 C43.519 103.569 33.687 64.598 10.238 33.012 C9.556 32.087 8.874 31.163 8.172 30.211 C-18.058 -3.386 -56.49 -25.235 -98.711 -30.743 C-104.057 -31.382 -109.384 -31.776 -114.762 -31.988 C-115.745 -32.041 -116.729 -32.094 -117.742 -32.148 C-161.521 -33.451 -206.019 -13.031 -235.512 18.949 Z " fill="#6CA88A" transform="translate(629.76171875,386.98828125)"/>
<path d="M0 0 C0.33 0.66 0.66 1.32 1 2 C-2.395 0.383 -5.562 -1.509 -8.75 -3.5 C-9.735 -4.108 -10.72 -4.717 -11.734 -5.344 C-12.482 -5.89 -13.23 -6.437 -14 -7 C-14 -7.66 -14 -8.32 -14 -9 C-15.65 -9.33 -17.3 -9.66 -19 -10 C-19 -10.66 -19 -11.32 -19 -12 C-19.99 -12 -20.98 -12 -22 -12 C-22 -12.66 -22 -13.32 -22 -14 C-23.65 -14.33 -25.3 -14.66 -27 -15 C-27 -15.66 -27 -16.32 -27 -17 C-28.052 -17.155 -28.052 -17.155 -29.125 -17.312 C-32.404 -18.097 -35.001 -19.47 -38 -21 C-38.949 -21.309 -39.898 -21.619 -40.875 -21.938 C-43.45 -22.813 -45.456 -23.765 -47.812 -25.062 C-51.533 -26.997 -54.649 -27.37 -58.785 -27.66 C-61.201 -28.031 -62.803 -28.765 -64.938 -29.938 C-71.446 -33.502 -78.796 -34.105 -86.09 -34.754 C-88 -35 -88 -35 -91 -36 C-92.374 -36.044 -93.751 -36.039 -95.125 -36 C-98.226 -35.96 -101.176 -36.092 -104.25 -36.5 C-110.131 -37.23 -116.084 -37.299 -122 -37 C-122.33 -36.67 -122.66 -36.34 -123 -36 C-124.057 -36.036 -125.114 -36.072 -126.203 -36.109 C-132.538 -36.183 -138.596 -34.609 -144.75 -33.25 C-146.548 -32.871 -146.548 -32.871 -148.383 -32.484 C-158.929 -30.197 -168.964 -27.207 -178.688 -22.5 C-182.677 -20.581 -186.66 -18.697 -190.75 -17 C-198.16 -13.744 -204.714 -9.037 -211 -4 C-212.406 -3.066 -213.822 -2.149 -215.25 -1.25 C-223.792 4.253 -223.792 4.253 -230 12 C-230.66 12 -231.32 12 -232 12 C-232 12.66 -232 13.32 -232 14 C-233.158 15.192 -234.323 16.378 -235.52 17.531 C-238.201 20.192 -240.588 23.096 -243 26 C-243.69 26.824 -244.379 27.647 -245.09 28.496 C-245.803 29.364 -246.516 30.231 -247.25 31.125 C-247.915 31.932 -248.58 32.739 -249.266 33.57 C-250.989 35.985 -252.027 38.209 -253 41 C-253.99 41 -254.98 41 -256 41 C-256.103 41.743 -256.206 42.485 -256.312 43.25 C-257.072 46.288 -258.135 47.513 -260 50 C-261.442 52.952 -262.702 55.982 -264 59 C-264.849 60.898 -265.703 62.794 -266.562 64.688 C-266.983 65.617 -267.403 66.546 -267.836 67.504 C-268.724 69.408 -269.689 71.276 -270.688 73.125 C-272.15 76.328 -272.845 79.359 -273.539 82.797 C-274 85 -274 85 -274.938 88.188 C-275.961 91.86 -276.848 95.531 -277.688 99.25 C-277.959 100.451 -278.231 101.653 -278.512 102.891 C-279.248 106.023 -279.248 106.023 -278 109 C-278.46 110.12 -278.46 110.12 -278.93 111.262 C-280.236 114.603 -280.197 117.238 -280.125 120.812 C-280.107 121.974 -280.089 123.135 -280.07 124.332 C-280.047 125.212 -280.024 126.093 -280 127 C-280.66 127 -281.32 127 -282 127 C-281.67 134.26 -281.34 141.52 -281 149 C-281.33 149 -281.66 149 -282 149 C-290.029 111.141 -275.802 68.926 -255.533 37.311 C-246.671 23.953 -235.525 11.016 -223 1 C-222.059 0.233 -221.118 -0.534 -220.148 -1.324 C-158.905 -50.401 -59.761 -55.289 0 0 Z " fill="#DECA6C" transform="translate(622,380)"/>
<path d="M0 0 C0.33 0 0.66 0 1 0 C1.227 4.187 1.428 8.374 1.625 12.562 C1.689 13.744 1.754 14.925 1.82 16.143 C2.096 22.285 2.058 27.204 0 33 C0.021 34.114 0.041 35.227 0.062 36.375 C-0.005 40.29 -0.891 42.984 -2.215 46.617 C-3.018 49.054 -3.498 51.411 -3.938 53.938 C-4.939 59.284 -6.823 64.033 -9 69 C-9.321 69.752 -9.642 70.503 -9.973 71.277 C-15.417 83.819 -21.834 95.044 -30 106 C-30.565 106.762 -31.129 107.524 -31.711 108.309 C-33.13 110.214 -34.564 112.107 -36 114 C-36.928 115.268 -36.928 115.268 -37.875 116.562 C-40.322 119.369 -42.985 121.714 -45.816 124.125 C-47.242 125.349 -48.647 126.599 -50.027 127.875 C-61.358 138.341 -74.81 147.978 -89 154 C-91.318 155.197 -93.631 156.406 -95.938 157.625 C-103.199 161.366 -103.199 161.366 -107.25 161.688 C-110.772 161.981 -112.6 162.589 -115.75 164 C-121.442 166.429 -126.883 166.68 -133 167 C-136.155 167.401 -139.234 167.828 -142.336 168.523 C-145.172 169.031 -147.809 169.133 -150.688 169.125 C-152.116 169.129 -152.116 169.129 -153.574 169.133 C-156 169 -156 169 -158 168 C-158.33 168.66 -158.66 169.32 -159 170 C-160.98 169.01 -160.98 169.01 -163 168 C-163.33 168.66 -163.66 169.32 -164 170 C-167.169 170 -170.277 169.796 -173.438 169.562 C-175.137 169.441 -175.137 169.441 -176.871 169.316 C-179.391 169.062 -181.581 168.693 -184 168 C-186.984 167.23 -189.975 166.59 -193 166 C-196.025 165.41 -199.016 164.771 -202 164 C-202.743 163.814 -203.485 163.629 -204.25 163.438 C-204.827 163.293 -205.405 163.149 -206 163 C-206 162.34 -206 161.68 -206 161 C-206.722 161.037 -207.444 161.075 -208.188 161.113 C-214.629 160.854 -220.617 157.325 -226 154 C-226.66 153.835 -227.32 153.67 -228 153.5 C-230.677 152.831 -232.668 151.457 -235 150 C-236.326 149.318 -237.658 148.648 -239 148 C-239.66 147.67 -240.32 147.34 -241 147 C-241 146.34 -241 145.68 -241 145 C-242.65 145.33 -244.3 145.66 -246 146 C-246 145.34 -246 144.68 -246 144 C-248.309 141.372 -249.64 140.12 -253 139 C-253.66 138.01 -254.32 137.02 -255 136 C-256.769 135.035 -258.538 134.071 -260.312 133.117 C-262.707 131.532 -263.791 129.56 -265 127 C-261.254 128.636 -258.363 131.01 -255.188 133.562 C-243.755 142.521 -231.302 149.25 -218 155 C-216.416 155.694 -216.416 155.694 -214.801 156.402 C-205.784 160.124 -196.55 162.192 -187 164 C-185.833 164.228 -184.667 164.456 -183.465 164.691 C-147.952 170.522 -111.222 163.567 -80 146 C-78.886 145.375 -77.773 144.75 -76.625 144.105 C-56.591 132.282 -39.911 116.307 -27 97 C-26.283 95.944 -25.567 94.889 -24.828 93.801 C-12.636 74.969 -4.857 53.121 -2.375 30.875 C-2.25 29.801 -2.125 28.728 -1.997 27.621 C-0.966 18.428 -0.342 9.242 0 0 Z " fill="#0FAAB4" transform="translate(670,502)"/>
<path d="M0 0 C0.99 0.99 0.99 0.99 2 2 C-26.699 27.601 -65.878 40.939 -104 42 C-105.049 42.052 -106.099 42.103 -107.18 42.156 C-124.458 42.653 -142.43 39.852 -159 35 C-159.756 34.779 -160.513 34.558 -161.292 34.33 C-171.836 31.148 -181.654 26.927 -191.438 21.875 C-192.415 21.372 -193.392 20.87 -194.399 20.352 C-199.337 17.719 -203.333 15.251 -207 11 C-201.03 12.148 -196.649 15.255 -192 19 C-191.34 19 -190.68 19 -190 19 C-190 19.66 -190 20.32 -190 21 C-189.394 21.17 -188.788 21.34 -188.164 21.516 C-180.646 23.69 -173.47 26.385 -166.375 29.688 C-162.468 31.207 -159.162 31.635 -155 32 C-155 32.66 -155 33.32 -155 34 C-152.36 34 -149.72 34 -147 34 C-146.67 34.99 -146.34 35.98 -146 37 C-144.67 36.722 -144.67 36.722 -143.312 36.438 C-140.017 36.002 -138.197 36.297 -135 37 C-132.835 37.367 -130.669 37.72 -128.5 38.062 C-127.397 38.239 -126.293 38.416 -125.156 38.598 C-119.93 39.365 -119.93 39.365 -115 38 C-113.515 38.495 -113.515 38.495 -112 39 C-110.079 38.862 -108.162 38.668 -106.25 38.438 C-101.204 37.948 -97.707 38.181 -93 40 C-93 39.34 -93 38.68 -93 38 C-91.928 38.062 -90.855 38.124 -89.75 38.188 C-84.834 38.223 -80.427 36.926 -75.734 35.559 C-73.007 35.001 -71.583 35.071 -69 36 C-69 35.34 -69 34.68 -69 34 C-67.35 34.33 -65.7 34.66 -64 35 C-63.67 34.34 -63.34 33.68 -63 33 C-62.34 33.33 -61.68 33.66 -61 34 C-61 33.34 -61 32.68 -61 32 C-60.464 31.876 -59.928 31.753 -59.375 31.625 C-56.534 30.877 -53.781 29.946 -51 29 C-49.969 28.67 -48.938 28.34 -47.875 28 C-45.07 27.106 -45.07 27.106 -42.875 25.875 C-41 25 -41 25 -37 25 C-37 24.34 -37 23.68 -37 23 C-34.556 21.729 -32.108 20.627 -29.562 19.562 C-25.559 17.807 -22.043 15.671 -18.375 13.312 C-16 12 -16 12 -13 12 C-13 11.34 -13 10.68 -13 10 C-12.01 10 -11.02 10 -10 10 C-10 9.34 -10 8.68 -10 8 C-8.349 6.974 -6.68 5.977 -5 5 C-3.333 3.5 -3.333 3.5 -2 2 C-1.34 1.34 -0.68 0.68 0 0 Z " fill="#0BA9B3" transform="translate(621,642)"/>
<path d="M0 0 C1.556 -0.001 1.556 -0.001 3.143 -0.002 C10.616 0.054 10.616 0.054 11.75 1.188 C13.126 1.181 14.501 1.131 15.875 1.062 C31.255 0.885 46.549 6.801 60.75 12.188 C61.74 12.517 62.73 12.848 63.75 13.188 C63.75 13.848 63.75 14.507 63.75 15.188 C64.465 15.3 65.181 15.412 65.918 15.527 C68.941 16.232 71.313 17.32 74.062 18.75 C74.946 19.205 75.829 19.66 76.738 20.129 C77.402 20.478 78.066 20.828 78.75 21.188 C78.75 21.848 78.75 22.507 78.75 23.188 C80.4 23.517 82.05 23.848 83.75 24.188 C84.08 25.178 84.41 26.168 84.75 27.188 C81.294 25.913 78.147 24.338 74.945 22.523 C52.66 9.999 28.094 4.584 2.75 3.188 C1.018 3.079 1.018 3.079 -0.75 2.969 C-37.676 1.815 -76.579 16.812 -104 41.312 C-104.593 41.872 -105.186 42.431 -105.797 43.008 C-107.25 44.188 -107.25 44.188 -109.25 44.188 C-109.25 43.197 -109.25 42.207 -109.25 41.188 C-108.26 41.188 -107.27 41.188 -106.25 41.188 C-106.25 40.528 -106.25 39.868 -106.25 39.188 C-102.126 34.938 -97.367 31.162 -92.25 28.188 C-91.26 28.188 -90.27 28.188 -89.25 28.188 C-88.92 27.197 -88.59 26.207 -88.25 25.188 C-85.648 23.539 -84.388 23.188 -81.25 23.188 C-80.92 22.527 -80.59 21.868 -80.25 21.188 C-77.688 20.562 -77.688 20.562 -75.25 20.188 C-75.25 19.527 -75.25 18.868 -75.25 18.188 C-73.6 17.858 -71.95 17.527 -70.25 17.188 C-70.25 16.527 -70.25 15.868 -70.25 15.188 C-68.376 14.393 -66.501 13.602 -64.625 12.812 C-63.581 12.372 -62.537 11.931 -61.461 11.477 C-55.369 9.031 -49.844 7.004 -43.25 7.188 C-43.25 6.527 -43.25 5.868 -43.25 5.188 C-42.136 5.064 -41.022 4.94 -39.875 4.812 C-36.735 4.422 -33.661 3.894 -30.562 3.25 C-28.792 2.895 -27.021 2.541 -25.25 2.188 C-23.904 1.903 -23.904 1.903 -22.531 1.613 C-14.993 0.215 -7.655 0.006 0 0 Z " fill="#DDC96F" transform="translate(512.25,352.8125)"/>
<path d="M0 0 C0.33 0 0.66 0 1 0 C1.362 16.311 0.974 31.942 -2 48 C-2.217 49.257 -2.433 50.514 -2.656 51.809 C-6.878 73.948 -16.942 95.715 -30 114 C-30.58 114.819 -30.58 114.819 -31.172 115.655 C-36.957 123.72 -43.57 130.84 -50.562 137.875 C-51.361 138.679 -52.159 139.483 -52.982 140.312 C-58.743 146 -58.743 146 -61 146 C-61 144 -61 144 -59.625 142.375 C-58 141 -58 141 -56 141 C-56 140.34 -56 139.68 -56 139 C-54 137.333 -52 135.667 -50 134 C-50 133.34 -50 132.68 -50 132 C-47.801 130.163 -45.488 128.526 -43.164 126.852 C-40.961 124.967 -40.246 123.547 -39 121 C-37.515 120.505 -37.515 120.505 -36 120 C-35.267 117.985 -35.267 117.985 -35 116 C-34.34 116 -33.68 116 -33 116 C-32.876 115.402 -32.753 114.804 -32.625 114.188 C-32 112 -32 112 -30 109 C-29.34 109 -28.68 109 -28 109 C-27.897 108.092 -27.794 107.185 -27.688 106.25 C-26.962 102.821 -26.171 101.653 -24 99 C-21.302 94.562 -19.06 90.083 -17.004 85.316 C-16.344 83.795 -15.665 82.281 -14.965 80.777 C-12.428 75.309 -10.642 69.793 -9 64 C-8.67 63.01 -8.34 62.02 -8 61 C-7.672 59.399 -7.361 57.794 -7.062 56.188 C-6.49 53.227 -5.848 50.552 -4.875 47.688 C-3.874 45.085 -3.874 45.085 -4 42.562 C-4 40 -4 40 -3 36.875 C-2.054 33.816 -1.924 31.186 -2 27.988 C-2.055 22.044 -1.589 16.223 -1 10.312 C-0.905 9.313 -0.809 8.313 -0.711 7.283 C-0.479 4.855 -0.242 2.427 0 0 Z " fill="#1FACB1" transform="translate(684,497)"/>
<path d="M0 0 C0.66 0.33 1.32 0.66 2 1 C2 3 2 3 -0.125 5.188 C-0.585 5.631 -1.045 6.074 -1.52 6.531 C-4.201 9.192 -6.588 12.096 -9 15 C-9.69 15.824 -10.379 16.647 -11.09 17.496 C-11.803 18.364 -12.516 19.231 -13.25 20.125 C-13.915 20.932 -14.58 21.739 -15.266 22.57 C-16.989 24.985 -18.027 27.209 -19 30 C-19.99 30 -20.98 30 -22 30 C-22.103 30.743 -22.206 31.485 -22.312 32.25 C-23.072 35.288 -24.135 36.513 -26 39 C-27.442 41.952 -28.702 44.982 -30 48 C-30.849 49.898 -31.703 51.794 -32.562 53.688 C-32.983 54.617 -33.403 55.546 -33.836 56.504 C-34.724 58.408 -35.689 60.276 -36.688 62.125 C-38.15 65.328 -38.845 68.359 -39.539 71.797 C-40 74 -40 74 -40.938 77.188 C-41.961 80.86 -42.848 84.531 -43.688 88.25 C-43.959 89.451 -44.231 90.653 -44.512 91.891 C-45.248 95.023 -45.248 95.023 -44 98 C-44.46 99.12 -44.46 99.12 -44.93 100.262 C-46.236 103.603 -46.197 106.238 -46.125 109.812 C-46.107 110.974 -46.089 112.135 -46.07 113.332 C-46.047 114.212 -46.024 115.093 -46 116 C-46.66 116 -47.32 116 -48 116 C-47.67 123.26 -47.34 130.52 -47 138 C-47.33 138 -47.66 138 -48 138 C-56.027 100.15 -41.806 57.936 -21.546 26.324 C-15.247 16.856 -7.747 8.302 0 0 Z " fill="#D5C776" transform="translate(388,391)"/>
<path d="M0 0 C0.33 0 0.66 0 1 0 C1.227 4.187 1.428 8.374 1.625 12.562 C1.689 13.744 1.754 14.925 1.82 16.143 C2.096 22.285 2.058 27.204 0 33 C0.021 34.114 0.041 35.227 0.062 36.375 C-0.005 40.29 -0.891 42.984 -2.215 46.617 C-3.018 49.054 -3.498 51.411 -3.938 53.938 C-4.939 59.284 -6.823 64.033 -9 69 C-9.481 70.127 -9.481 70.127 -9.973 71.277 C-15.417 83.819 -21.834 95.044 -30 106 C-30.565 106.762 -31.129 107.524 -31.711 108.309 C-33.13 110.214 -34.563 112.108 -36 114 C-36.66 114.887 -37.32 115.774 -38 116.688 C-40.462 119.534 -43.002 121.719 -46 124 C-46.66 124 -47.32 124 -48 124 C-46.626 120.861 -45.092 118.975 -42.562 116.688 C-20.047 94.703 -5.826 61.803 -2.375 30.875 C-2.25 29.801 -2.125 28.728 -1.997 27.621 C-0.966 18.428 -0.342 9.242 0 0 Z " fill="#1AA9AE" transform="translate(670,502)"/>
<path d="M0 0 C0.99 0.33 1.98 0.66 3 1 C2.117 1.897 1.234 2.794 0.324 3.719 C-34.231 39.406 -45.092 81.486 -46 130 C-46.33 130 -46.66 130 -47 130 C-47.025 124.322 -47.043 118.643 -47.055 112.965 C-47.06 111.032 -47.067 109.099 -47.075 107.165 C-47.088 104.393 -47.093 101.62 -47.098 98.848 C-47.103 97.978 -47.108 97.108 -47.113 96.212 C-47.113 94.141 -47.062 92.07 -47 90 C-46.505 89.505 -46.505 89.505 -46 89 C-45.603 86.653 -45.256 84.297 -44.938 81.938 C-44.761 80.647 -44.584 79.357 -44.402 78.027 C-44.27 77.028 -44.137 76.029 -44 75 C-43.34 75 -42.68 75 -42 75 C-41.67 71.37 -41.34 67.74 -41 64 C-40.34 64 -39.68 64 -39 64 C-38.856 62.721 -38.711 61.442 -38.562 60.125 C-38.294 57.743 -38.078 56.155 -37 54 C-36.34 54 -35.68 54 -35 54 C-34.907 52.546 -34.907 52.546 -34.812 51.062 C-34.233 46.872 -32.395 43.712 -30.254 40.113 C-29.068 38.115 -28.014 36.09 -27 34 C-26.34 34 -25.68 34 -25 34 C-24.67 31.69 -24.34 29.38 -24 27 C-23.01 27.33 -22.02 27.66 -21 28 C-20.907 26.948 -20.907 26.948 -20.812 25.875 C-19.692 21.911 -17.839 19.978 -15 17 C-14.34 17 -13.68 17 -13 17 C-12.67 15.35 -12.34 13.7 -12 12 C-11.01 11.67 -10.02 11.34 -9 11 C-8.67 10.01 -8.34 9.02 -8 8 C-7.34 8 -6.68 8 -6 8 C-5.752 7.423 -5.505 6.845 -5.25 6.25 C-3.833 3.7 -2.124 1.982 0 0 Z " fill="#BAC98E" transform="translate(400,397)"/>
<path d="M0 0 C3.746 1.636 6.637 4.01 9.812 6.562 C21.245 15.521 33.698 22.25 47 28 C48.584 28.694 48.584 28.694 50.199 29.402 C63.843 35.034 78.406 37.364 93 39 C93 39.66 93 40.32 93 41 C95.31 41 97.62 41 100 41 C98 43 98 43 95.102 43.012 C93.954 42.905 92.807 42.798 91.625 42.688 C89.912 42.539 89.912 42.539 88.164 42.387 C85.662 42.081 83.414 41.683 81 41 C78.016 40.23 75.025 39.59 72 39 C68.975 38.41 65.984 37.771 63 37 C61.886 36.722 61.886 36.722 60.75 36.438 C60.173 36.293 59.595 36.149 59 36 C59 35.34 59 34.68 59 34 C58.278 34.037 57.556 34.075 56.812 34.113 C50.371 33.854 44.383 30.325 39 27 C38.01 26.753 38.01 26.753 37 26.5 C34.323 25.831 32.332 24.457 30 23 C28.674 22.318 27.342 21.648 26 21 C25.34 20.67 24.68 20.34 24 20 C24 19.34 24 18.68 24 18 C21.525 18.495 21.525 18.495 19 19 C19 18.34 19 17.68 19 17 C16.691 14.372 15.36 13.12 12 12 C11.34 11.01 10.68 10.02 10 9 C8.231 8.035 6.462 7.071 4.688 6.117 C2.293 4.532 1.209 2.56 0 0 Z " fill="#1EADB3" transform="translate(405,629)"/>
<path d="M0 0 C6.152 -0.098 6.152 -0.098 8 0 C8.33 0.33 8.66 0.66 9 1 C10.376 0.994 11.751 0.943 13.125 0.875 C28.505 0.698 43.799 6.614 58 12 C58.99 12.33 59.98 12.66 61 13 C61 13.66 61 14.32 61 15 C61.715 15.112 62.431 15.224 63.168 15.34 C66.191 16.045 68.563 17.133 71.312 18.562 C72.637 19.245 72.637 19.245 73.988 19.941 C74.984 20.465 74.984 20.465 76 21 C76 21.66 76 22.32 76 23 C77.65 23.33 79.3 23.66 81 24 C81.495 25.485 81.495 25.485 82 27 C78.544 25.725 75.397 24.15 72.195 22.335 C49.832 9.768 25.399 4.57 0 3 C0 2.01 0 1.02 0 0 Z " fill="#D1C77D" transform="translate(515,353)"/>
<path d="M0 0 C2.539 0.319 4.84 0.761 7.312 1.375 C8.436 1.65 8.436 1.65 9.583 1.931 C30.289 7.283 64.979 18.785 77 38 C73.605 36.383 70.438 34.491 67.25 32.5 C66.265 31.892 65.28 31.283 64.266 30.656 C63.518 30.11 62.77 29.563 62 29 C62 28.34 62 27.68 62 27 C60.35 26.67 58.7 26.34 57 26 C57 25.34 57 24.68 57 24 C56.01 24 55.02 24 54 24 C54 23.34 54 22.68 54 22 C52.35 21.67 50.7 21.34 49 21 C49 20.34 49 19.68 49 19 C48.299 18.897 47.597 18.794 46.875 18.688 C43.596 17.903 40.999 16.53 38 15 C37.051 14.691 36.102 14.381 35.125 14.062 C32.55 13.187 30.544 12.235 28.188 10.938 C24.469 9.004 21.353 8.63 17.219 8.34 C14.11 7.864 11.787 6.499 9.062 4.988 C5.553 3.307 1.812 2.671 -2 2 C-1.34 1.34 -0.68 0.68 0 0 Z " fill="#D8C97B" transform="translate(546,344)"/>
<path d="M0 0 C2.131 3.404 2.071 5.368 1.25 9.25 C1.053 10.214 0.856 11.178 0.652 12.172 C0.085 14.63 -0.533 17.064 -1.188 19.5 C-2.309 22.945 -2.309 22.945 -1 26 C-1.307 26.746 -1.614 27.493 -1.93 28.262 C-3.236 31.603 -3.197 34.238 -3.125 37.812 C-3.107 38.974 -3.089 40.135 -3.07 41.332 C-3.047 42.212 -3.024 43.093 -3 44 C-3.66 44 -4.32 44 -5 44 C-4.67 51.26 -4.34 58.52 -4 66 C-4.33 66 -4.66 66 -5 66 C-9.484 44.856 -5.486 20.61 0 0 Z " fill="#A8BE8C" transform="translate(345,463)"/>
<path d="M0 0 C-5.566 5.566 -14.598 5.484 -22 6 C-25.152 6.407 -28.24 6.83 -31.34 7.523 C-34.174 8.031 -36.81 8.133 -39.688 8.125 C-41.116 8.129 -41.116 8.129 -42.574 8.133 C-45 8 -45 8 -47 7 C-47.33 7.66 -47.66 8.32 -48 9 C-49.32 8.34 -50.64 7.68 -52 7 C-52.33 7.66 -52.66 8.32 -53 9 C-53 8.34 -53 7.68 -53 7 C-55.64 7 -58.28 7 -61 7 C-61 6.67 -61 6.34 -61 6 C-60.318 5.991 -59.636 5.981 -58.934 5.972 C-39.373 5.639 -19.062 -0.515 0 0 Z " fill="#0FB0BA" transform="translate(559,663)"/>
<path d="M0 0 C0.33 0 0.66 0 1 0 C1.345 15.559 1.065 30.541 -1.636 45.889 C-2.158 48.917 -2.581 51.956 -3 55 C-3.99 54.67 -4.98 54.34 -6 54 C-5.125 47.25 -5.125 47.25 -4 45 C-4.031 43.917 -4.031 43.917 -4.062 42.812 C-4 40 -4 40 -3 36.875 C-2.054 33.816 -1.924 31.186 -2 27.988 C-2.055 22.044 -1.589 16.223 -1 10.312 C-0.905 9.313 -0.809 8.313 -0.711 7.283 C-0.479 4.855 -0.242 2.427 0 0 Z " fill="#36A2A0" transform="translate(684,497)"/>
<path d="M0 0 C0.33 0 0.66 0 1 0 C1.227 4.187 1.428 8.374 1.625 12.562 C1.689 13.744 1.754 14.925 1.82 16.143 C2.096 22.285 2.058 27.204 0 33 C0.021 34.114 0.041 35.227 0.062 36.375 C-0.005 40.313 -0.874 43.124 -2.207 46.785 C-2.936 48.823 -3.519 50.845 -4.062 52.938 C-5 56 -5 56 -7 58 C-6.89 57.415 -6.781 56.83 -6.668 56.227 C-6.318 54.329 -5.975 52.431 -5.637 50.531 C-5.2 48.111 -4.744 45.694 -4.27 43.281 C-1.567 28.973 -0.831 14.514 0 0 Z " fill="#2CACAC" transform="translate(670,502)"/>
<path d="M0 0 C2.493 3.017 4.201 6.213 5.954 9.684 C13.643 24.883 23.689 37.341 35 50 C34.01 50.495 34.01 50.495 33 51 C29.33 48.322 27.22 45.936 25 42 C24.443 41.443 23.886 40.886 23.312 40.312 C22.879 39.879 22.446 39.446 22 39 C22 38.34 22 37.68 22 37 C21.34 37 20.68 37 20 37 C18.273 34.883 18.273 34.883 16.375 32.125 C15.428 30.768 15.428 30.768 14.461 29.383 C13 27 13 27 13 25 C12.34 25 11.68 25 11 25 C9.554 22.109 8.109 19.217 6.668 16.324 C5.621 14.237 4.562 12.155 3.488 10.082 C3.038 9.209 2.589 8.337 2.125 7.438 C1.715 6.652 1.305 5.867 0.883 5.059 C0 3 0 3 0 0 Z " fill="#5CB8A7" transform="translate(366,574)"/>
<path d="M0 0 C0.99 0.33 1.98 0.66 3 1 C1.675 2.346 1.675 2.346 0.324 3.719 C-7.302 11.603 -13.883 19.654 -19.891 28.832 C-22 32 -22 32 -24 34 C-25 31 -25 31 -24.062 28.812 C-23.537 27.915 -23.537 27.915 -23 27 C-22.34 27.33 -21.68 27.66 -21 28 C-20.938 27.299 -20.876 26.598 -20.812 25.875 C-19.692 21.911 -17.839 19.978 -15 17 C-14.34 17 -13.68 17 -13 17 C-12.67 15.35 -12.34 13.7 -12 12 C-11.01 11.67 -10.02 11.34 -9 11 C-8.67 10.01 -8.34 9.02 -8 8 C-7.34 8 -6.68 8 -6 8 C-5.752 7.423 -5.505 6.845 -5.25 6.25 C-3.833 3.7 -2.124 1.982 0 0 Z " fill="#CEC175" transform="translate(400,397)"/>
<path d="M0 0 C5.97 1.148 10.351 4.255 15 8 C15.66 8 16.32 8 17 8 C17 8.66 17 9.32 17 10 C17.606 10.17 18.212 10.34 18.836 10.516 C27.996 13.165 36.538 16.612 45 21 C41.097 22.301 38.798 21.161 35.125 19.75 C34.438 19.488 33.75 19.227 33.042 18.957 C26.784 16.479 20.789 13.526 14.812 10.438 C13.916 9.979 13.02 9.52 12.096 9.048 C7.312 6.515 3.57 4.087 0 0 Z " fill="#1BAEB4" transform="translate(414,653)"/>
<path d="M0 0 C0.66 0 1.32 0 2 0 C2.248 0.598 2.495 1.196 2.75 1.812 C4.164 4.288 5.729 5.334 8 7 C8 7.66 8 8.32 8 9 C8.99 9.33 9.98 9.66 11 10 C12.014 11.658 13.011 13.327 14 15 C17.444 18.836 17.444 18.836 22 21 C22 21.66 22 22.32 22 23 C22.99 23.33 23.98 23.66 25 24 C26.094 25.094 27.176 26.204 28.188 27.375 C29.949 28.954 31.551 29.889 33.625 31 C37 33 37 33 38 36 C31.593 33.803 27.071 29.353 22 25 C21.147 24.272 20.293 23.543 19.414 22.793 C2.701 8.163 2.701 8.163 0 0 Z " fill="#34A4A2" transform="translate(376,617)"/>
<path d="M0 0 C0 0.99 0 1.98 0 3 C-1.088 2.947 -2.176 2.894 -3.297 2.84 C-8.814 2.839 -13.928 4.221 -19.25 5.562 C-21.191 6.051 -23.133 6.532 -25.078 7.004 C-25.928 7.219 -26.778 7.433 -27.653 7.655 C-30.111 8.016 -31.662 7.777 -34 7 C-33.67 6.34 -33.34 5.68 -33 5 C-30.182 4.208 -27.422 3.537 -24.562 2.938 C-23.744 2.761 -22.925 2.585 -22.081 2.403 C-14.698 0.855 -7.548 -0.053 0 0 Z " fill="#D9C367" transform="translate(499,341)"/>
<path d="M0 0 C0.66 0 1.32 0 2 0 C-1.475 10.445 -11.964 19.15 -19.562 26.812 C-20.265 27.524 -20.968 28.236 -21.692 28.97 C-22.352 29.626 -23.012 30.281 -23.691 30.957 C-24.281 31.545 -24.871 32.132 -25.479 32.738 C-27 34 -27 34 -29 34 C-29 32 -29 32 -27.625 30.375 C-26 29 -26 29 -24 29 C-24 28.34 -24 27.68 -24 27 C-22 25.333 -20 23.667 -18 22 C-18 21.34 -18 20.68 -18 20 C-15.801 18.163 -13.488 16.526 -11.164 14.852 C-8.961 12.967 -8.246 11.547 -7 9 C-6.01 8.67 -5.02 8.34 -4 8 C-3.267 5.985 -3.267 5.985 -3 4 C-2.34 4 -1.68 4 -1 4 C-0.67 2.68 -0.34 1.36 0 0 Z " fill="#13AFB8" transform="translate(652,609)"/>
<path d="M0 0 C1 3 1 3 -0.328 6.145 C-0.959 7.372 -1.6 8.595 -2.25 9.812 C-2.72 10.718 -2.72 10.718 -3.199 11.643 C-4.673 14.483 -6.166 17.314 -7.66 20.145 C-8.891 22.768 -9.63 25.044 -10.188 27.875 C-10.346 28.656 -10.505 29.437 -10.668 30.242 C-10.778 30.822 -10.887 31.402 -11 32 C-11.66 32 -12.32 32 -13 32 C-12.483 25.367 -10.697 19.889 -8.188 13.75 C-7.844 12.866 -7.5 11.981 -7.146 11.07 C-5.351 6.61 -3.856 3.085 0 0 Z " fill="#C6C27C" transform="translate(359,433)"/>
<path d="M0 0 C3.795 1.655 6.85 4.128 10.062 6.688 C15.118 10.67 20.286 14.184 25.855 17.43 C28.156 19.114 28.982 20.371 30 23 C28 22 26 21 24 20 C24 19.34 24 18.68 24 18 C21.525 18.495 21.525 18.495 19 19 C19 18.34 19 17.68 19 17 C16.691 14.372 15.36 13.12 12 12 C11.34 11.01 10.68 10.02 10 9 C8.231 8.035 6.462 7.071 4.688 6.117 C2.293 4.532 1.209 2.56 0 0 Z " fill="#32AFAD" transform="translate(405,629)"/>
<path d="M0 0 C0 0.33 0 0.66 0 1 C-1.087 1.083 -1.087 1.083 -2.196 1.168 C-5.548 1.424 -8.899 1.681 -12.25 1.938 C-13.39 2.025 -14.529 2.112 -15.703 2.201 C-23.138 2.771 -30.57 3.371 -38 4 C-34.378 1.049 -32.136 0.578 -27.438 0.375 C-3.457 -0.768 -3.457 -0.768 0 0 Z " fill="#E5D072" transform="translate(518,354)"/>
<path d="M0 0 C6.125 0.341 9.904 3.317 14.688 6.812 C15.446 7.347 16.205 7.881 16.986 8.432 C20.612 11.033 23.429 13.307 26 17 C22.605 15.383 19.438 13.491 16.25 11.5 C15.265 10.892 14.28 10.283 13.266 9.656 C12.518 9.11 11.77 8.563 11 8 C11 7.34 11 6.68 11 6 C9.35 5.67 7.7 5.34 6 5 C6 4.34 6 3.68 6 3 C5.01 3 4.02 3 3 3 C3 2.34 3 1.68 3 1 C2.01 0.67 1.02 0.34 0 0 Z " fill="#C0BE7E" transform="translate(597,365)"/>
<path d="M0 0 C6.152 -0.098 6.152 -0.098 8 0 C8.33 0.33 8.66 0.66 9 1 C10.562 1.047 12.125 1.037 13.688 1 C17.582 0.955 21.173 1.194 25 2 C25 2.33 25 2.66 25 3 C16.534 4.123 8.488 3.805 0 3 C0 2.01 0 1.02 0 0 Z " fill="#C9B76A" transform="translate(515,353)"/>
<path d="M0 0 C4.95 0.33 9.9 0.66 15 1 C15 1.66 15 2.32 15 3 C17.31 3 19.62 3 22 3 C20 5 20 5 17.102 5.012 C15.954 4.905 14.807 4.798 13.625 4.688 C12.483 4.588 11.341 4.489 10.164 4.387 C6.55 3.945 3.446 3.149 0 2 C0 1.34 0 0.68 0 0 Z " fill="#12A6AE" transform="translate(483,667)"/>
<path d="M0 0 C2.942 0.436 5.686 0.981 8.562 1.688 C9.753 1.95 9.753 1.95 10.967 2.217 C13.007 2.703 15.009 3.342 17 4 C17.33 4.99 17.66 5.98 18 7 C15 8 15 8 13.273 7.293 C12.334 6.746 12.334 6.746 11.375 6.188 C7.053 3.866 2.807 2.846 -2 2 C-1.34 1.34 -0.68 0.68 0 0 Z " fill="#D0BE6F" transform="translate(546,344)"/>
<path d="M0 0 C0.33 0 0.66 0 1 0 C1.254 4.27 1.474 8.541 1.688 12.812 C1.76 14.027 1.833 15.242 1.908 16.494 C1.963 17.658 2.018 18.821 2.074 20.02 C2.132 21.093 2.189 22.167 2.249 23.273 C2 26 2 26 0.495 27.874 C0.002 28.245 -0.492 28.617 -1 29 C-1.192 19.305 -0.596 9.671 0 0 Z " fill="#40BAB5" transform="translate(670,502)"/>
<path d="M0 0 C0.99 0 1.98 0 3 0 C2.577 2.94 2.138 5.876 1.688 8.812 C1.57 9.646 1.452 10.479 1.33 11.338 C1.204 12.14 1.079 12.943 0.949 13.77 C0.784 14.877 0.784 14.877 0.616 16.007 C-0.112 18.363 -1.149 19.412 -3 21 C-3.043 19 -3.041 17 -3 15 C-2.67 14.67 -2.34 14.34 -2 14 C-1.603 11.653 -1.256 9.297 -0.938 6.938 C-0.761 5.647 -0.584 4.357 -0.402 3.027 C-0.27 2.028 -0.137 1.029 0 0 Z " fill="#A9B580" transform="translate(356,472)"/>
<path d="M0 0 C0.802 2.301 1.187 3.52 0.287 5.831 C-0.095 6.439 -0.477 7.046 -0.871 7.672 C-1.28 8.336 -1.69 9 -2.111 9.684 C-2.549 10.366 -2.987 11.047 -3.438 11.75 C-3.871 12.447 -4.305 13.145 -4.752 13.863 C-5.824 15.582 -6.91 17.292 -8 19 C-8.66 18.01 -9.32 17.02 -10 16 C-9.01 15.67 -8.02 15.34 -7 15 C-6.897 14.092 -6.794 13.185 -6.688 12.25 C-5.972 8.869 -5.173 7.591 -3 5 C-1.983 3.343 -0.979 1.679 0 0 Z " fill="#16A5AD" transform="translate(663,591)"/>
<path d="M0 0 C2.64 0.33 5.28 0.66 8 1 C8 1.66 8 2.32 8 3 C10.64 3 13.28 3 16 3 C16.33 4.32 16.66 5.64 17 7 C14.35 6.411 11.706 5.805 9.062 5.188 C8.308 5.022 7.553 4.856 6.775 4.686 C4.824 4.222 2.907 3.619 1 3 C0.67 2.01 0.34 1.02 0 0 Z " fill="#13A3AB" transform="translate(458,673)"/>
<path d="M0 0 C3.584 1.32 5.676 2.467 8.188 5.375 C9.949 6.954 11.551 7.889 13.625 9 C17 11 17 11 18 14 C13.731 12.561 10.766 10.432 7.312 7.562 C6.36 6.78 5.407 5.998 4.426 5.191 C2 3 2 3 0 0 Z " fill="#2DAFB0" transform="translate(396,639)"/>
<path d="M0 0 C8.155 -0.433 15.177 0.706 23 3 C20 5 20 5 17.823 4.86 C17.001 4.682 16.179 4.504 15.332 4.32 C14.439 4.133 13.547 3.946 12.627 3.754 C11.234 3.443 11.234 3.443 9.812 3.125 C8.872 2.925 7.932 2.725 6.963 2.52 C4.639 2.024 2.319 1.517 0 1 C0 0.67 0 0.34 0 0 Z " fill="#D5C575" transform="translate(533,356)"/>
<path d="M0 0 C0.66 0.33 1.32 0.66 2 1 C2 1.66 2 2.32 2 3 C-5.92 6.96 -5.92 6.96 -14 11 C-13.67 9.68 -13.34 8.36 -13 7 C-11.309 6.187 -9.608 5.384 -7.852 4.723 C-5.008 3.613 -2.174 2.174 0 0 Z " fill="#0BA4AE" transform="translate(601,656)"/>
<path d="M0 0 C3 1 3 1 3 1 Z M-1.609 0.883 C-0.813 1.436 -0.813 1.436 0 2 C-4.328 3.991 -8.182 5.671 -13 6 C-13.99 5.34 -14.98 4.68 -16 4 C-14.09 3.273 -12.172 2.569 -10.25 1.875 C-9.183 1.481 -8.115 1.086 -7.016 0.68 C-4 0 -4 0 -1.609 0.883 Z " fill="#0CA0AA" transform="translate(573,658)"/>
<path d="M0 0 C3.557 3.506 6.963 7.106 10.312 10.812 C11.196 11.788 12.079 12.764 12.988 13.77 C13.652 14.506 14.316 15.242 15 16 C14.34 16.33 13.68 16.66 13 17 C9.33 14.322 7.22 11.936 5 8 C4.443 7.443 3.886 6.886 3.312 6.312 C2.879 5.879 2.446 5.446 2 5 C2 4.34 2 3.68 2 3 C1.34 3 0.68 3 0 3 C0 2.01 0 1.02 0 0 Z " fill="#42AFA9" transform="translate(386,608)"/>
<path d="M0 0 C2.729 0.31 5.459 0.623 8.188 0.938 C8.956 1.025 9.725 1.112 10.518 1.201 C14.388 1.65 18.192 2.153 22 3 C17.768 5.822 14.847 4.931 10 4 C6.628 3.11 3.31 2.099 0 1 C0 0.67 0 0.34 0 0 Z " fill="#E8D575" transform="translate(524,341)"/>
<path d="M0 0 C0.33 0.99 0.66 1.98 1 3 C-0.293 5.41 -0.293 5.41 -2.188 8.062 C-2.8 8.94 -3.412 9.818 -4.043 10.723 C-5.955 12.947 -7.303 13.941 -10 15 C-8.378 11.415 -6.207 8.41 -3.875 5.25 C-3.151 4.265 -2.426 3.28 -1.68 2.266 C-1.125 1.518 -0.571 0.77 0 0 Z " fill="#18AEB5" transform="translate(644,598)"/>
<path d="M0 0 C3.083 1.199 6.063 2.477 9 4 C9 4.66 9 5.32 9 6 C10.65 6.33 12.3 6.66 14 7 C14.33 7.99 14.66 8.98 15 10 C11.6 8.793 8.433 7.248 5.25 5.562 C4.082 4.946 4.082 4.946 2.891 4.316 C1 3 1 3 0 0 Z " fill="#C5C280" transform="translate(582,370)"/>
<path d="M0 0 C0.33 0.66 0.66 1.32 1 2 C-0.077 4.283 -1.195 6.436 -2.438 8.625 C-2.776 9.236 -3.114 9.847 -3.463 10.477 C-4.301 11.988 -5.15 13.495 -6 15 C-6.33 15 -6.66 15 -7 15 C-6.535 9.302 -5.16 5.787 -2 1 C-1.34 0.67 -0.68 0.34 0 0 Z " fill="#CEC87F" transform="translate(375,430)"/>
<path d="M0 0 C-2.865 2.865 -6.097 4.017 -10 5 C-13.5 4.688 -13.5 4.688 -16 4 C-11.174 0.782 -5.802 -0.363 0 0 Z " fill="#0DAFB9" transform="translate(559,663)"/>
<path d="M0 0 C5.034 0.968 9.632 3.07 13 7 C12.67 7.66 12.34 8.32 12 9 C10.184 7.881 8.372 6.755 6.562 5.625 C5.048 4.685 5.048 4.685 3.504 3.727 C1 2 1 2 0 0 Z " fill="#22A9AC" transform="translate(414,653)"/>
<path d="M0 0 C4.355 0.256 6.496 0.573 9.875 3.438 C12 6 12 6 13 8 C11 7 9 6 7 5 C7 4.34 7 3.68 7 3 C5.35 3.33 3.7 3.66 2 4 C2 3.34 2 2.68 2 2 C1.34 1.34 0.68 0.68 0 0 Z " fill="#28A5A6" transform="translate(422,644)"/>
<path d="M0 0 C2.275 3.539 1.991 5.709 1.125 9.75 C0.921 10.735 0.718 11.72 0.508 12.734 C0.34 13.482 0.173 14.23 0 15 C-2.275 11.461 -1.991 9.291 -1.125 5.25 C-0.921 4.265 -0.718 3.28 -0.508 2.266 C-0.34 1.518 -0.173 0.77 0 0 Z " fill="#AEB178" transform="translate(345,463)"/>
<path d="M0 0 C0.33 0.99 0.66 1.98 1 3 C-0.53 4.237 -2.06 5.474 -3.59 6.711 C-5.133 7.967 -5.133 7.967 -6 10 C-6.99 10 -7.98 10 -9 10 C-7.618 6.79 -6.076 4.951 -3.375 2.75 C-2.743 2.229 -2.112 1.708 -1.461 1.172 C-0.738 0.592 -0.738 0.592 0 0 Z " fill="#E0CE74" transform="translate(398,382)"/>
<path d="M0 0 C0.66 0 1.32 0 2 0 C2.227 0.557 2.454 1.114 2.688 1.688 C4.359 4.632 6.553 6.682 9 9 C8.67 9.66 8.34 10.32 8 11 C6.661 9.547 5.329 8.088 4 6.625 C3.257 5.813 2.515 5.001 1.75 4.164 C0 2 0 2 0 0 Z " fill="#43B5AE" transform="translate(376,617)"/>
<path d="M0 0 C0.33 0 0.66 0 1 0 C1.33 4.95 1.66 9.9 2 15 C-1 12 -1 12 -1.074 9.082 C-0.947 8.003 -0.819 6.924 -0.688 5.812 C-0.568 4.726 -0.448 3.639 -0.324 2.52 C-0.217 1.688 -0.11 0.857 0 0 Z " fill="#7FA585" transform="translate(341,522)"/>
<path d="M0 0 C1.136 3.409 0.867 4.003 -0.438 7.188 C-0.725 7.903 -1.012 8.618 -1.309 9.355 C-1.537 9.898 -1.765 10.441 -2 11 C-3.125 9.375 -3.125 9.375 -4 7 C-3.25 3.812 -3.25 3.812 -2 1 C-1.34 0.67 -0.68 0.34 0 0 Z " fill="#21A2A5" transform="translate(664,558)"/>
<path d="M0 0 C-7.286 3.429 -7.286 3.429 -12 3 C-11 1 -11 1 -7.688 -0.188 C-4.424 -0.906 -3.007 -1.203 0 0 Z " fill="#E5D06F" transform="translate(467,348)"/>
<path d="M0 0 C-1.453 3.829 -3.429 5.121 -7 7 C-7.66 6.34 -8.32 5.68 -9 5 C-7.879 4.161 -6.753 3.329 -5.625 2.5 C-4.999 2.036 -4.372 1.572 -3.727 1.094 C-2 0 -2 0 0 0 Z " fill="#D4C16C" transform="translate(422,381)"/>
<path d="M0 0 C0.66 0 1.32 0 2 0 C1.67 2.97 1.34 5.94 1 9 C0.01 8.67 -0.98 8.34 -2 8 C-1.125 1.125 -1.125 1.125 0 0 Z " fill="#259EA0" transform="translate(680,543)"/>
<path d="M0 0 C0.66 0 1.32 0 2 0 C2.33 0.99 2.66 1.98 3 3 C3.99 3.33 4.98 3.66 6 4 C7.188 6.062 7.188 6.062 8 8 C4.183 6.445 1.808 3.964 -1 1 C-0.67 0.67 -0.34 0.34 0 0 Z " fill="#C0C58A" transform="translate(607,385)"/>
<path d="M0 0 C2.475 0.495 2.475 0.495 5 1 C5 1.66 5 2.32 5 3 C6.65 3.33 8.3 3.66 10 4 C9.67 4.66 9.34 5.32 9 6 C5.063 4.688 2.773 3.081 0 0 Z " fill="#C2C385" transform="translate(597,380)"/>
<path d="M0 0 C2.64 0.33 5.28 0.66 8 1 C6 3 6 3 3.375 3.125 C2.591 3.084 1.808 3.043 1 3 C0.67 2.01 0.34 1.02 0 0 Z " fill="#070E0F" transform="translate(487,682)"/>
<path d="M0 0 C1.32 0.33 2.64 0.66 4 1 C2.35 2.98 0.7 4.96 -1 7 C-1.66 6.34 -2.32 5.68 -3 5 C-2.01 3.35 -1.02 1.7 0 0 Z " fill="#18A1A7" transform="translate(647,592)"/>
<path d="M0 0 C0.33 0 0.66 0 1 0 C0.67 2.97 0.34 5.94 0 9 C-0.66 8.67 -1.32 8.34 -2 8 C-2 6.35 -2 4.7 -2 3 C-1.34 3 -0.68 3 0 3 C0 2.01 0 1.02 0 0 Z " fill="#2DB2B2" transform="translate(682,534)"/>
<path d="M0 0 C0.66 0.33 1.32 0.66 2 1 C1.67 3.31 1.34 5.62 1 8 C0.34 8 -0.32 8 -1 8 C-0.67 5.36 -0.34 2.72 0 0 Z " fill="#BABB7D" transform="translate(347,457)"/>
<path d="M0 0 C3.829 1.453 5.121 3.429 7 7 C6.01 7 5.02 7 4 7 C3.567 6.041 3.567 6.041 3.125 5.062 C2.172 2.848 2.172 2.848 0 2 C0 1.34 0 0.68 0 0 Z " fill="#AAB684" transform="translate(632,390)"/>
<path d="M0 0 C3.937 1.312 6.227 2.919 9 6 C6.831 5.494 5 5 3 4 C3 3.34 3 2.68 3 2 C2.01 1.67 1.02 1.34 0 1 C0 0.67 0 0.34 0 0 Z " fill="#CDC984" transform="translate(605,369)"/>
</svg>
