<?xml version="1.0" encoding="UTF-8"?>
<!-- Generator: visioncortex VTracer 0.6.4 -->
<svg version="1.1" xmlns="http://www.w3.org/2000/svg" width="1024" height="1024">
<path d="M0 0 C337.92 0 675.84 0 1024 0 C1024 337.92 1024 675.84 1024 1024 C686.08 1024 348.16 1024 0 1024 C0 686.08 0 348.16 0 0 Z " fill="#070707" transform="translate(0,0)"/>
<path d="M0 0 C7.05 0.475 13.011 3.276 19.438 6.062 C20.6 6.561 21.762 7.06 22.959 7.574 C31.142 11.118 39.178 14.843 47.067 18.998 C49.111 20.058 51.174 21.071 53.242 22.082 C73.787 32.29 93.018 45.807 111 60 C112.477 61.16 112.477 61.16 113.984 62.344 C119.91 67.097 125.527 72.142 131.09 77.309 C133.741 79.76 136.424 82.166 139.125 84.562 C146.932 91.58 154.2 99.01 161 107 C161.915 108.051 162.83 109.102 163.746 110.152 C170.469 117.884 176.885 125.779 183 134 C183.491 134.654 183.982 135.308 184.487 135.982 C199.559 156.134 211.86 177.45 223 200 C223.438 200.885 223.877 201.77 224.328 202.682 C239.08 232.875 248.173 265.842 253 299 C253.215 300.384 253.43 301.769 253.648 303.152 C255.484 315.187 256.158 327.167 256.203 339.332 C256.209 340.566 256.215 341.801 256.22 343.072 C256.23 345.671 256.236 348.271 256.24 350.87 C256.25 354.764 256.281 358.658 256.312 362.553 C256.375 377.444 255.595 391.865 253.363 406.592 C252.892 409.715 252.487 412.845 252.078 415.977 C248.467 441.267 242.422 465.888 234 490 C233.695 490.884 233.39 491.768 233.076 492.678 C217.106 538.442 189.641 581.62 156.695 617.086 C154.223 619.759 151.794 622.465 149.375 625.188 C142.683 632.631 135.606 639.503 128 646 C126.982 646.892 125.965 647.786 124.949 648.68 C107.05 664.342 87.61 678.139 67 690 C66.328 690.39 65.656 690.78 64.964 691.182 C46.421 701.904 27.266 710.873 7.14 718.19 C5.228 718.914 3.349 719.725 1.477 720.547 C-2.657 722.275 -6.817 723.537 -11.125 724.75 C-12.012 725.002 -12.898 725.253 -13.812 725.513 C-26.446 729.036 -39.222 732.047 -52 735 C-53.043 735.244 -53.043 735.244 -54.106 735.494 C-95.287 744.949 -141.344 745.461 -183 739 C-184.187 738.818 -185.373 738.636 -186.596 738.448 C-200.463 736.258 -214.131 733.562 -227.627 729.681 C-230.263 728.925 -232.904 728.19 -235.547 727.457 C-237.427 726.931 -239.308 726.403 -241.188 725.875 C-242.049 725.633 -242.911 725.392 -243.799 725.143 C-248.972 723.664 -253.993 721.967 -259 720 C-260.051 719.598 -261.101 719.196 -262.184 718.781 C-297.796 704.759 -330.391 687.032 -361 664 C-361.634 663.525 -362.267 663.049 -362.92 662.56 C-370.721 656.673 -378.016 650.394 -385.125 643.691 C-387.334 641.623 -389.563 639.636 -391.875 637.688 C-401.249 629.572 -410.024 620.483 -418 611 C-418.865 610.024 -419.73 609.048 -420.621 608.043 C-442.53 583.228 -460.045 554.401 -475.188 525.062 C-475.759 523.96 -476.33 522.858 -476.918 521.723 C-478 519 -478 519 -477 516 C-473.653 517.673 -472.838 521.455 -471.375 524.75 C-467.794 532.595 -463.654 539.734 -459 547 C-458.078 548.559 -457.161 550.122 -456.25 551.688 C-443.019 573.788 -427.302 594.423 -409.648 613.164 C-407.447 615.521 -405.333 617.915 -403.25 620.375 C-400.52 623.522 -397.588 626.215 -394.41 628.902 C-391.928 631.062 -389.545 633.303 -387.157 635.566 C-379.78 642.538 -372.086 648.874 -364 655 C-362.65 656.035 -361.299 657.07 -359.949 658.105 C-352.509 663.781 -345.007 669.142 -337 674 C-335.628 674.849 -334.257 675.7 -332.887 676.551 C-309.975 690.734 -286.474 703.584 -260.899 712.343 C-258.415 713.202 -255.959 714.134 -253.5 715.062 C-245.423 717.979 -237.223 720.528 -229 723 C-227.863 723.343 -227.863 723.343 -226.703 723.693 C-213.764 727.524 -200.693 729.757 -187.33 731.546 C-184.23 731.969 -181.14 732.439 -178.047 732.914 C-124.63 740.445 -66.336 735.846 -15 719 C-13.522 718.525 -13.522 718.525 -12.015 718.041 C31.613 703.92 72.135 682.605 108 654 C108.883 653.31 109.766 652.621 110.676 651.91 C128.575 637.67 145.948 621.049 160 603 C160.902 601.896 161.807 600.795 162.715 599.695 C177.788 581.354 190.256 561.578 202 541 C202.463 540.195 202.926 539.389 203.402 538.56 C223.853 502.672 235.35 461.438 242.375 420.938 C242.497 420.247 242.618 419.556 242.743 418.844 C246.176 399.097 247.337 379.415 247.261 359.387 C247.25 356.068 247.261 352.75 247.273 349.432 C247.287 330.613 246.317 311.899 242.812 293.375 C242.598 292.22 242.384 291.064 242.163 289.874 C228.898 220.258 197.804 157.393 149.328 105.516 C147.398 103.431 145.558 101.314 143.75 99.125 C141.298 96.214 138.574 93.818 135.648 91.391 C132.666 88.874 129.998 86.042 127.301 83.227 C121.889 77.672 116.054 72.837 110 68 C108.875 67.074 107.751 66.147 106.629 65.219 C90.194 51.712 72.441 40.548 54 30 C53.154 29.513 52.308 29.026 51.436 28.524 C43.138 23.761 35.014 19.268 26 16 C22.988 14.885 19.992 13.73 17 12.562 C16.245 12.286 15.489 12.009 14.711 11.724 C9.336 9.61 9.336 9.61 7.5 6.277 C7.335 5.526 7.17 4.774 7 4 C5.35 4 3.7 4 2 4 C1.34 2.68 0.68 1.36 0 0 Z " fill="#C1A092" transform="translate(643,153)"/>
<path d="M0 0 C3 1 3 1 4.762 4.359 C5.411 5.82 6.053 7.283 6.688 8.75 C10.232 16.616 14.343 23.73 19 31 C19.922 32.559 20.839 34.122 21.75 35.688 C34.981 57.788 50.698 78.423 68.352 97.164 C70.553 99.521 72.667 101.915 74.75 104.375 C77.48 107.522 80.412 110.215 83.59 112.902 C86.072 115.062 88.455 117.303 90.843 119.566 C98.22 126.538 105.914 132.874 114 139 C115.35 140.035 116.701 141.07 118.051 142.105 C125.491 147.781 132.993 153.142 141 158 C142.372 158.849 143.743 159.7 145.113 160.551 C168.025 174.734 191.526 187.584 217.101 196.343 C219.585 197.202 222.041 198.134 224.5 199.062 C232.577 201.979 240.777 204.528 249 207 C249.758 207.229 250.516 207.457 251.297 207.693 C264.236 211.524 277.307 213.757 290.67 215.546 C293.77 215.969 296.86 216.439 299.953 216.914 C316.575 219.255 333.179 219.292 349.938 219.312 C351.116 219.316 352.295 219.32 353.509 219.323 C366.963 219.345 380.203 218.946 393.576 217.427 C397.741 216.971 401.812 216.925 406 217 C402.565 219.29 400.874 220.121 396.844 220.297 C395.97 220.336 395.096 220.375 394.195 220.415 C393.232 220.452 392.269 220.489 391.277 220.527 C390.265 220.569 389.252 220.61 388.208 220.653 C374.665 221.171 361.114 221.356 347.562 221.562 C344.873 221.605 342.184 221.649 339.494 221.693 C332.996 221.799 326.498 221.901 320 222 C325.216 227.216 348.989 224.382 356.5 224.562 C358.21 224.606 359.919 224.649 361.629 224.693 C365.753 224.799 369.876 224.9 374 225 C374 225.33 374 225.66 374 226 C318.576 226.657 318.576 226.657 295 223 C293.813 222.818 292.627 222.636 291.404 222.448 C277.537 220.258 263.869 217.562 250.373 213.681 C247.737 212.925 245.096 212.19 242.453 211.457 C240.573 210.931 238.692 210.403 236.812 209.875 C235.951 209.633 235.089 209.392 234.201 209.143 C229.028 207.664 224.007 205.967 219 204 C217.949 203.598 216.899 203.196 215.816 202.781 C180.204 188.759 147.609 171.032 117 148 C116.366 147.525 115.733 147.049 115.08 146.56 C107.279 140.673 99.984 134.394 92.875 127.691 C90.666 125.623 88.437 123.636 86.125 121.688 C76.751 113.572 67.976 104.483 60 95 C59.135 94.024 58.27 93.048 57.379 92.043 C0 27.052 0 27.052 0 0 Z " fill="#2F72A3" transform="translate(165,669)"/>
<path d="M0 0 C0.625 1.813 0.625 1.813 1 4 C0.34 4.99 -0.32 5.98 -1 7 C-1.66 7 -2.32 7 -3 7 C-3.66 9.31 -4.32 11.62 -5 14 C-5.99 14 -6.98 14 -8 14 C-8.371 15.361 -8.371 15.361 -8.75 16.75 C-10.098 20.255 -11.068 21.702 -14 24 C-15.196 24.474 -16.392 24.949 -17.625 25.438 C-21.167 26.651 -21.167 26.651 -22.312 29.625 C-22.653 30.801 -22.653 30.801 -23 32 C-23.66 32.33 -24.32 32.66 -25 33 C-24.805 34.044 -24.805 34.044 -24.605 35.109 C-25.213 39.557 -28.028 41.396 -31.312 44.25 C-31.954 44.824 -32.596 45.399 -33.257 45.99 C-35.156 47.679 -37.073 49.344 -39 51 C-39.918 51.789 -40.836 52.578 -41.781 53.391 C-44.485 55.644 -47.229 57.83 -50 60 C-50.617 60.484 -51.234 60.969 -51.87 61.468 C-66.619 73.007 -81.764 83.656 -98 93 C-98.672 93.39 -99.344 93.78 -100.036 94.182 C-118.579 104.904 -137.734 113.873 -157.86 121.19 C-159.772 121.914 -161.651 122.725 -163.523 123.547 C-167.657 125.275 -171.817 126.537 -176.125 127.75 C-177.012 128.002 -177.898 128.253 -178.812 128.513 C-191.448 132.036 -204.227 135.02 -217 138 C-217.786 138.189 -218.571 138.377 -219.381 138.572 C-240.341 143.475 -261.566 144.38 -283 144.312 C-284.024 144.31 -285.048 144.307 -286.103 144.305 C-292.737 144.276 -299.368 144.178 -306 144 C-306.825 143.978 -307.651 143.956 -308.501 143.934 C-310.752 143.865 -313.001 143.773 -315.25 143.668 C-316.493 143.613 -317.735 143.558 -319.016 143.501 C-322.283 142.952 -322.883 142.367 -325 140 C-324.299 139.99 -323.599 139.979 -322.877 139.969 C-316.159 139.869 -309.441 139.767 -302.723 139.661 C-299.272 139.606 -295.821 139.553 -292.37 139.503 C-278.858 139.305 -265.35 139.087 -251.848 138.527 C-250.914 138.49 -249.98 138.453 -249.017 138.415 C-244.919 138.229 -241.001 137.992 -237 137 C-237 136.34 -237 135.68 -237 135 C-235.529 134.729 -235.529 134.729 -234.029 134.453 C-206.723 129.435 -206.723 129.435 -180 122 C-179.015 121.683 -178.03 121.367 -177.015 121.041 C-133.387 106.92 -92.865 85.605 -57 57 C-56.117 56.31 -55.234 55.621 -54.324 54.91 C-36.424 40.669 -19.033 24.082 -5 6 C-3.985 4.766 -2.965 3.536 -1.938 2.312 C-1.298 1.549 -0.659 0.786 0 0 Z " fill="#AB9195" transform="translate(808,750)"/>
<path d="M0 0 C1.088 0.001 2.176 0.001 3.297 0.002 C33.318 0.064 33.318 0.064 39.875 2.25 C41.753 2.402 43.634 2.519 45.516 2.617 C53.694 3.203 61.61 4.734 69.625 6.375 C70.387 6.529 71.149 6.683 71.935 6.842 C85.781 9.649 99.368 13.094 112.875 17.25 C113.83 17.544 114.786 17.837 115.77 18.14 C121.152 19.803 126.519 21.507 131.875 23.25 C130.885 23.58 129.895 23.91 128.875 24.25 C130.531 26.154 131.426 27.155 133.938 27.688 C135.875 28.25 135.875 28.25 136.996 30.285 C137.286 30.934 137.576 31.582 137.875 32.25 C132.22 30.784 126.68 29.261 121.23 27.137 C113.451 24.208 105.521 21.4 97.359 19.773 C93.943 19.054 90.57 18.175 87.188 17.312 C56.31 9.528 25.811 6.029 -6 6 C-6.982 5.998 -7.965 5.997 -8.977 5.995 C-27.208 5.993 -45.267 6.639 -63.097 10.799 C-67.029 11.673 -71.024 12.142 -75.012 12.688 C-78.191 13.262 -81.066 14.225 -84.125 15.25 C-86.398 15.559 -86.398 15.559 -88.5 15.688 C-92.377 16.051 -95.501 17.021 -99.086 18.492 C-102.002 19.576 -104.977 20.154 -108.02 20.777 C-110.353 21.262 -110.353 21.262 -113.438 22.375 C-116.125 23.25 -116.125 23.25 -120.125 23.25 C-120.125 23.91 -120.125 24.57 -120.125 25.25 C-120.728 25.36 -121.332 25.469 -121.953 25.582 C-122.752 25.741 -123.552 25.899 -124.375 26.062 C-125.558 26.289 -125.558 26.289 -126.766 26.52 C-129.186 27.111 -129.186 27.111 -131 28.75 C-133.88 30.783 -136.402 30.986 -139.875 31.438 C-141.045 31.596 -142.216 31.755 -143.422 31.918 C-144.314 32.028 -145.206 32.137 -146.125 32.25 C-146.455 33.24 -146.785 34.23 -147.125 35.25 C-149.114 35.913 -151.108 36.562 -153.117 37.16 C-157.742 38.836 -162.028 41.156 -166.364 43.469 C-170.3 45.521 -173.637 46.789 -178.125 47.25 C-178.125 47.91 -178.125 48.57 -178.125 49.25 C-179.915 50.088 -181.707 50.92 -183.5 51.75 C-184.498 52.214 -185.495 52.678 -186.523 53.156 C-189.125 54.25 -189.125 54.25 -191.125 54.25 C-191.455 55.24 -191.785 56.23 -192.125 57.25 C-193.72 57.963 -195.321 58.663 -196.949 59.297 C-202.312 61.646 -207.263 65.009 -212.125 68.25 C-213.115 67.92 -214.105 67.59 -215.125 67.25 C-210.571 62.067 -205.012 58.751 -199.125 55.25 C-198.025 54.594 -198.025 54.594 -196.903 53.924 C-184.701 46.686 -172.281 40.212 -159.389 34.296 C-157.42 33.386 -155.465 32.456 -153.516 31.508 C-145.624 27.719 -137.548 24.811 -129.275 21.996 C-127.23 21.287 -125.202 20.544 -123.176 19.785 C-83.459 5.013 -42.126 -0.026 0 0 Z " fill="#3A597F" transform="translate(514.125,128.75)"/>
<path d="M0 0 C7.05 0.475 13.011 3.276 19.438 6.062 C20.6 6.561 21.762 7.06 22.959 7.574 C31.142 11.118 39.178 14.843 47.067 18.998 C49.111 20.058 51.174 21.071 53.242 22.082 C73.787 32.29 93.018 45.807 111 60 C111.985 60.773 112.97 61.547 113.984 62.344 C119.91 67.097 125.527 72.142 131.09 77.309 C133.741 79.76 136.424 82.166 139.125 84.562 C146.932 91.58 154.2 99.01 161 107 C161.915 108.051 162.83 109.102 163.746 110.152 C175.341 123.487 185.808 137.572 196 152 C196.415 152.582 196.831 153.163 197.259 153.762 C201.226 159.358 203.679 162.935 203 170 C204.031 174.598 205.561 178.009 208 182 C208 182.99 208 183.98 208 185 C208.66 185 209.32 185 210 185 C210.838 186.622 211.67 188.248 212.5 189.875 C212.964 190.78 213.428 191.685 213.906 192.617 C215 195 215 195 215 197 C215.66 197 216.32 197 217 197 C217.33 199.31 217.66 201.62 218 204 C217.34 204.33 216.68 204.66 216 205 C215.308 203.598 215.308 203.598 214.602 202.168 C212.421 197.768 210.215 193.382 208 189 C207.422 187.853 207.422 187.853 206.833 186.684 C191.733 156.862 172.135 129.923 149.328 105.516 C147.398 103.431 145.558 101.314 143.75 99.125 C141.298 96.214 138.574 93.818 135.648 91.391 C132.666 88.874 129.998 86.042 127.301 83.227 C121.889 77.672 116.054 72.837 110 68 C108.875 67.074 107.751 66.147 106.629 65.219 C90.194 51.712 72.441 40.548 54 30 C53.154 29.513 52.308 29.026 51.436 28.524 C43.138 23.761 35.014 19.268 26 16 C22.988 14.885 19.992 13.73 17 12.562 C15.867 12.147 15.867 12.147 14.711 11.724 C9.336 9.61 9.336 9.61 7.5 6.277 C7.253 5.15 7.253 5.15 7 4 C5.35 4 3.7 4 2 4 C1.34 2.68 0.68 1.36 0 0 Z " fill="#B098A0" transform="translate(643,153)"/>
<path d="M0 0 C3.914 3.441 6.116 7.355 8.562 11.875 C8.993 12.665 9.424 13.454 9.867 14.268 C11.258 16.838 12.631 19.418 14 22 C14.454 22.85 14.907 23.7 15.375 24.575 C23.16 39.27 29.348 54.371 35 70 C35.265 70.722 35.53 71.444 35.803 72.188 C43.223 92.534 47.886 113.612 51 135 C51.215 136.384 51.43 137.769 51.648 139.152 C53.484 151.187 54.158 163.167 54.203 175.332 C54.209 176.566 54.215 177.801 54.22 179.072 C54.23 181.671 54.236 184.271 54.24 186.87 C54.25 190.764 54.281 194.658 54.312 198.553 C54.484 239.079 54.484 239.079 49 249 C48 248 48 248 47.867 245.969 C47.87 245.154 47.872 244.339 47.875 243.5 C47.871 242.278 47.871 242.278 47.867 241.031 C48 239 48 239 49 238 C49.105 236.022 49.139 234.041 49.145 232.06 C49.152 230.782 49.158 229.504 49.165 228.187 C49.166 226.769 49.167 225.352 49.168 223.934 C49.171 222.465 49.175 220.996 49.178 219.527 C49.184 216.419 49.186 213.311 49.185 210.202 C49.185 207.081 49.192 203.96 49.206 200.839 C49.278 184.347 49.129 167.91 48.109 151.445 C48.031 150.157 47.953 148.868 47.872 147.541 C47.093 136.129 46.081 123.981 41.414 113.406 C39.914 109.793 39.513 106.952 39.312 103.062 C39.247 101.919 39.181 100.776 39.113 99.598 C39.057 98.312 39.057 98.312 39 97 C38.34 97 37.68 97 37 97 C36.746 95.998 36.492 94.997 36.23 93.965 C35.883 92.622 35.535 91.28 35.188 89.938 C35.022 89.281 34.856 88.624 34.686 87.947 C33.504 83.423 31.909 79.282 30 75 C29.134 72.796 28.28 70.588 27.438 68.375 C25.712 63.839 25.712 63.839 23.875 59.348 C22.846 56.587 22.655 53.905 22.336 50.992 C21.819 47.925 20.644 45.618 19 43 C18.278 42.526 17.556 42.051 16.812 41.562 C15.915 40.789 15.915 40.789 15 40 C14.75 36.312 14.75 36.312 15 33 C14.34 33 13.68 33 13 33 C12.162 31.378 11.33 29.752 10.5 28.125 C10.036 27.22 9.572 26.315 9.094 25.383 C8 23 8 23 8 21 C7.34 21 6.68 21 6 21 C5.284 19.275 4.568 17.549 3.852 15.824 C2.932 13.735 2.932 13.735 1 11 C0.586 8.301 0.586 8.301 0.375 5.312 C0.3 4.319 0.225 3.325 0.148 2.301 C0.099 1.542 0.05 0.782 0 0 Z " fill="#D4B19B" transform="translate(845,317)"/>
<path d="M0 0 C3.292 0.89 4.722 1.599 6.688 4.438 C7.813 7.492 8.379 10.004 8.875 13.188 C9.715 18.396 11.475 22.582 13.77 27.305 C15.311 30.68 16.32 34.092 17.312 37.66 C17.966 39.883 18.755 41.979 19.625 44.125 C21.161 48.064 21.625 51.798 22 56 C22.66 56 23.32 56 24 56 C24.182 57.146 24.364 58.292 24.551 59.473 C24.804 61.003 25.058 62.533 25.312 64.062 C25.43 64.815 25.548 65.567 25.67 66.342 C26.504 71.282 27.947 75.399 30 80 C32.834 89.861 33.434 100.13 34.078 110.32 C34.122 111.006 34.165 111.692 34.21 112.399 C35.233 128.971 35.27 145.527 35.196 162.125 C35.185 165.279 35.185 168.433 35.186 171.586 C35.185 174.641 35.18 177.696 35.173 180.751 C35.17 182.198 35.168 183.646 35.167 185.094 C35.165 187.083 35.155 189.071 35.145 191.06 C35.14 192.751 35.14 192.751 35.134 194.476 C35 197 35 197 34 198 C33.901 199.414 33.87 200.833 33.875 202.25 C33.872 203.018 33.87 203.787 33.867 204.578 C33.926 207.001 33.926 207.001 34.56 209.298 C35.06 212.367 34.754 214.605 34.18 217.656 C33.977 218.75 33.774 219.844 33.565 220.971 C33.337 222.136 33.11 223.3 32.875 224.5 C32.643 225.71 32.41 226.919 32.171 228.166 C27.592 251.643 21.179 274.223 12.75 296.625 C12.433 297.471 12.116 298.318 11.79 299.189 C9.903 304.08 7.717 308.516 5 313 C3.466 309.931 4.45 307.299 5 304 C5.99 304 6.98 304 8 304 C8.33 301.36 8.66 298.72 9 296 C9.66 296 10.32 296 11 296 C11.273 294.498 11.273 294.498 11.551 292.965 C11.804 291.622 12.058 290.28 12.312 288.938 C12.43 288.281 12.548 287.624 12.67 286.947 C13.326 283.533 14.141 280.47 15.57 277.293 C16.827 274.398 17.388 272.468 17.562 269.375 C17.712 266.873 17.962 265.089 18.941 262.766 C20.37 259.032 20.822 255.32 21.375 251.375 C22.406 244.453 23.614 237.597 25.062 230.75 C25.225 229.977 25.387 229.204 25.554 228.408 C26.263 225.112 27.027 221.913 28.02 218.688 C35.785 189.483 32.297 155.979 32 126 C31.34 125.67 30.68 125.34 30 125 C29.669 123.219 29.669 123.219 29.543 120.855 C29.457 119.521 29.457 119.521 29.368 118.16 C29.309 117.179 29.249 116.198 29.188 115.188 C26.442 78.704 17.583 40.83 2.031 7.628 C0.739 4.859 0 3.105 0 0 Z " fill="#B89785" transform="translate(860,358)"/>
<path d="M0 0 C0.99 0.495 0.99 0.495 2 1 C0.688 2.5 0.688 2.5 -1 4 C-1.99 4 -2.98 4 -4 4 C-4 4.66 -4 5.32 -4 6 C-6.97 6.99 -9.94 7.98 -13 9 C-12.67 9.99 -12.34 10.98 -12 12 C-32.186 20.464 -53.752 25.042 -75 30 C-75.786 30.189 -76.571 30.377 -77.381 30.572 C-98.341 35.475 -119.566 36.38 -141 36.312 C-142.024 36.31 -143.048 36.307 -144.103 36.305 C-150.737 36.276 -157.368 36.178 -164 36 C-164.825 35.978 -165.651 35.956 -166.501 35.934 C-168.752 35.865 -171.001 35.773 -173.25 35.668 C-174.493 35.613 -175.735 35.558 -177.016 35.501 C-180.283 34.952 -180.883 34.367 -183 32 C-182.299 31.99 -181.599 31.979 -180.877 31.969 C-174.159 31.869 -167.441 31.767 -160.723 31.661 C-157.272 31.606 -153.821 31.553 -150.37 31.503 C-136.858 31.305 -123.35 31.087 -109.848 30.527 C-108.914 30.49 -107.98 30.453 -107.017 30.415 C-102.919 30.229 -99.001 29.992 -95 29 C-95 28.34 -95 27.68 -95 27 C-94.019 26.819 -93.039 26.639 -92.029 26.453 C-64.717 21.457 -64.717 21.457 -38 14 C-36.419 13.477 -36.419 13.477 -34.805 12.944 C-23.825 9.281 -12.964 5.551 -2.383 0.84 C-1.597 0.563 -0.81 0.286 0 0 Z " fill="#666A82" transform="translate(666,858)"/>
<path d="M0 0 C4.355 1.444 8.707 2.893 13.043 4.395 C21.396 7.266 29.791 9.863 38.312 12.188 C39.182 12.425 40.052 12.663 40.948 12.907 C52.403 15.979 63.81 18.443 75.562 20.062 C77.226 20.303 77.226 20.303 78.924 20.549 C82.612 21.068 86.304 21.542 90 22 C90.708 22.091 91.416 22.181 92.145 22.275 C106.051 24.019 119.849 24.311 133.854 24.261 C137.429 24.25 141.004 24.261 144.58 24.273 C157.017 24.28 169.234 23.843 181.594 22.429 C185.753 21.97 189.818 21.925 194 22 C190.565 24.29 188.874 25.121 184.844 25.297 C183.97 25.336 183.096 25.375 182.195 25.415 C181.232 25.452 180.269 25.489 179.277 25.527 C178.265 25.569 177.252 25.61 176.208 25.653 C162.665 26.171 149.114 26.356 135.562 26.562 C132.873 26.605 130.184 26.649 127.494 26.693 C120.996 26.799 114.498 26.901 108 27 C113.216 32.216 136.989 29.382 144.5 29.562 C146.21 29.606 147.919 29.649 149.629 29.693 C153.753 29.799 157.876 29.9 162 30 C162 30.33 162 30.66 162 31 C106.576 31.657 106.576 31.657 83 28 C81.813 27.818 80.627 27.636 79.404 27.448 C65.537 25.258 51.869 22.562 38.373 18.681 C35.737 17.925 33.096 17.19 30.453 16.457 C28.573 15.931 26.692 15.403 24.812 14.875 C23.951 14.633 23.089 14.392 22.201 14.143 C17.028 12.664 12.002 10.979 7 9 C6.331 8.736 5.661 8.473 4.972 8.201 C2.979 7.411 0.989 6.613 -1 5.812 C-2.019 5.404 -2.019 5.404 -3.059 4.986 C-4.706 4.325 -6.353 3.663 -8 3 C-5.333 2.333 -2.667 1.667 0 1 C0 0.67 0 0.34 0 0 Z " fill="#316D9A" transform="translate(377,864)"/>
<path d="M0 0 C0 0.33 0 0.66 0 1 C-1.901 1.182 -1.901 1.182 -3.84 1.367 C-5.539 1.536 -7.238 1.705 -8.938 1.875 C-9.768 1.954 -10.599 2.032 -11.455 2.113 C-16.382 2.612 -21.112 3.394 -25.93 4.532 C-29.873 5.424 -33.885 5.89 -37.887 6.438 C-41.066 7.012 -43.941 7.975 -47 9 C-49.273 9.309 -49.273 9.309 -51.375 9.438 C-55.252 9.801 -58.376 10.771 -61.961 12.242 C-64.877 13.326 -67.852 13.904 -70.895 14.527 C-73.228 15.012 -73.228 15.012 -76.312 16.125 C-79 17 -79 17 -83 17 C-83 17.66 -83 18.32 -83 19 C-83.603 19.11 -84.207 19.219 -84.828 19.332 C-85.627 19.491 -86.427 19.649 -87.25 19.812 C-88.433 20.039 -88.433 20.039 -89.641 20.27 C-92.061 20.861 -92.061 20.861 -93.875 22.5 C-96.755 24.533 -99.277 24.736 -102.75 25.188 C-103.92 25.346 -105.091 25.505 -106.297 25.668 C-107.189 25.778 -108.081 25.887 -109 26 C-109.495 27.485 -109.495 27.485 -110 29 C-111.989 29.663 -113.983 30.312 -115.992 30.91 C-120.617 32.586 -124.903 34.906 -129.239 37.219 C-133.175 39.271 -136.512 40.539 -141 41 C-141 41.66 -141 42.32 -141 43 C-142.79 43.838 -144.582 44.67 -146.375 45.5 C-147.373 45.964 -148.37 46.428 -149.398 46.906 C-152 48 -152 48 -154 48 C-154.33 48.99 -154.66 49.98 -155 51 C-156.595 51.713 -158.196 52.413 -159.824 53.047 C-165.187 55.396 -170.138 58.759 -175 62 C-175.99 61.67 -176.98 61.34 -178 61 C-173.446 55.817 -167.887 52.501 -162 49 C-160.9 48.344 -160.9 48.344 -159.778 47.674 C-147.576 40.436 -135.156 33.962 -122.264 28.046 C-120.295 27.136 -118.34 26.206 -116.391 25.258 C-108.499 21.469 -100.423 18.561 -92.15 15.746 C-90.105 15.037 -88.077 14.294 -86.051 13.535 C-77.342 10.298 -68.524 7.639 -59.562 5.188 C-58.473 4.885 -57.383 4.583 -56.26 4.272 C-49.84 2.555 -43.637 1.406 -37 1 C-37.33 1.66 -37.66 2.32 -38 3 C-27.863 2.569 -27.863 2.569 -17.875 0.938 C-11.956 -0.412 -6.037 -0.17 0 0 Z " fill="#24426A" transform="translate(477,135)"/>
<path d="M0 0 C10.921 8.829 19.053 19.808 27.444 30.952 C28.833 32.78 30.241 34.588 31.668 36.387 C36.404 42.388 40.866 48.527 45.125 54.875 C45.611 55.577 46.097 56.279 46.598 57.002 C49.578 61.543 50.439 64.429 50 70 C51.031 74.598 52.561 78.009 55 82 C55 82.99 55 83.98 55 85 C55.66 85 56.32 85 57 85 C57.838 86.622 58.67 88.248 59.5 89.875 C59.964 90.78 60.428 91.685 60.906 92.617 C62 95 62 95 62 97 C62.66 97 63.32 97 64 97 C64.495 100.465 64.495 100.465 65 104 C64.01 104.495 64.01 104.495 63 105 C62.539 104.065 62.077 103.131 61.602 102.168 C59.421 97.768 57.215 93.382 55 89 C54.615 88.236 54.23 87.471 53.833 86.684 C42.161 63.633 28.123 41.858 10.891 22.543 C8.389 19.178 7.262 15.885 6.688 11.75 C6.461 11.173 6.234 10.595 6 10 C5.196 9.711 4.391 9.423 3.562 9.125 C1 8 1 8 -0.375 5 C-1 2 -1 2 0 0 Z " fill="#BDA29F" transform="translate(796,253)"/>
<path d="M0 0 C1 3 1 3 0.187 5.166 C-0.251 6 -0.689 6.833 -1.141 7.691 C-1.873 9.095 -1.873 9.095 -2.62 10.527 C-3.427 12.03 -3.427 12.03 -4.25 13.562 C-5.071 15.109 -5.071 15.109 -5.908 16.688 C-10.912 26.024 -16.28 35.087 -22 44 C-22.404 44.633 -22.808 45.266 -23.224 45.917 C-35.09 64.403 -48.339 81.969 -63.285 98.066 C-66.575 101.621 -69.804 105.229 -73.027 108.844 C-74.969 110.966 -76.881 113.054 -79 115 C-79.66 115 -80.32 115 -81 115 C-80.67 113.35 -80.34 111.7 -80 110 C-79.34 110 -78.68 110 -78 110 C-77.753 108.639 -77.753 108.639 -77.5 107.25 C-75.634 103.208 -73.951 102.585 -69.973 100.957 C-65.847 98.955 -64.485 96.227 -63 92 C-62.01 92 -61.02 92 -60 92 C-59.783 90.824 -59.783 90.824 -59.562 89.625 C-59 87 -59 87 -58 85 C-57.34 85 -56.68 85 -56 85 C-55.849 84.143 -55.849 84.143 -55.695 83.27 C-53.953 75.763 -50.208 70.841 -45.434 65.008 C-43.503 62.622 -41.825 60.272 -40.188 57.688 C-38 55 -38 55 -35.188 54.562 C-34.466 54.707 -33.744 54.851 -33 55 C-32.67 54.01 -32.34 53.02 -32 52 C-31.34 52 -30.68 52 -30 52 C-27.056 48.137 -25.467 44.585 -24 40 C-22.736 37.297 -21.383 34.644 -20 32 C-19.34 32 -18.68 32 -18 32 C-17.918 31.299 -17.835 30.597 -17.75 29.875 C-17 27 -17 27 -15.125 24.25 C-13.293 21.448 -12.406 19.499 -11.438 16.375 C-10.412 13.081 -9.493 10.493 -7 8 C-6.01 7.67 -5.02 7.34 -4 7 C-3.897 6.216 -3.794 5.433 -3.688 4.625 C-3 2 -3 2 0 0 Z " fill="#BA9B95" transform="translate(863,672)"/>
<path d="M0 0 C4.603 0.492 7.152 1.494 10.75 4.375 C17.719 9.658 25.12 14.114 32.629 18.585 C34.904 19.943 37.169 21.317 39.434 22.691 C48.705 28.254 58.212 33.214 67.938 37.938 C69.051 38.481 70.164 39.025 71.31 39.585 C77.677 42.627 83.949 45.102 90.737 47.045 C91.857 47.518 91.857 47.518 93 48 C93.33 48.99 93.66 49.98 94 51 C85.34 53.794 76.24 48.606 68.562 45 C66.978 44.262 66.978 44.262 65.362 43.509 C44.907 33.864 25.573 22.034 7.188 8.875 C6.565 8.438 5.943 8.001 5.302 7.551 C2.882 5.774 1.209 4.542 0.113 1.695 C0.076 1.136 0.039 0.576 0 0 Z " fill="#327CAB" transform="translate(284,815)"/>
<path d="M0 0 C7.05 0.475 13.011 3.276 19.438 6.062 C20.6 6.561 21.762 7.06 22.959 7.574 C31.119 11.108 39.141 14.818 47.01 18.958 C49.232 20.121 51.465 21.26 53.699 22.398 C61.35 26.324 68.901 30.365 76.188 34.938 C76.782 35.303 77.376 35.668 77.989 36.045 C79.605 37.09 79.605 37.09 82 39 C82 39.99 82 40.98 82 42 C83.939 44.674 83.939 44.674 86 47 C81.21 47 78.896 45.295 75.062 42.75 C68.507 38.522 61.846 34.54 55.062 30.688 C54.2 30.197 53.337 29.706 52.448 29.2 C49.968 27.795 47.485 26.396 45 25 C44.185 24.538 43.369 24.076 42.529 23.6 C41.745 23.158 40.96 22.717 40.152 22.262 C39.46 21.871 38.768 21.48 38.054 21.077 C33.538 18.71 28.699 17.009 23.93 15.226 C21.613 14.355 19.307 13.46 17 12.562 C16.245 12.286 15.491 12.01 14.713 11.725 C9.336 9.609 9.336 9.609 7.5 6.277 C7.253 5.15 7.253 5.15 7 4 C5.35 4 3.7 4 2 4 C1.34 2.68 0.68 1.36 0 0 Z " fill="#7C7992" transform="translate(643,153)"/>
<path d="M0 0 C30.104 0.069 59.593 9.75 88 19 C86.515 19.495 86.515 19.495 85 20 C86.656 21.904 87.551 22.905 90.062 23.438 C92 24 92 24 93.121 26.035 C93.411 26.684 93.701 27.332 94 28 C88.345 26.534 82.805 25.011 77.355 22.887 C69.469 19.918 61.457 17.135 53.191 15.457 C50.503 14.896 47.848 14.246 45.188 13.562 C44.294 13.337 43.401 13.111 42.48 12.879 C40 12 40 12 38.016 10.438 C35.447 8.606 33.689 8.572 30.562 8.438 C27.62 8.302 25.36 8.146 22.621 7.035 C19.264 5.709 16.083 5.401 12.5 5 C7.982 4.494 4.142 3.912 0 2 C0 1.34 0 0.68 0 0 Z " fill="#56698B" transform="translate(558,133)"/>
<path d="M0 0 C2.279 2.279 2.365 3.023 2.816 6.113 C2.941 6.951 3.065 7.788 3.193 8.65 C3.315 9.529 3.437 10.407 3.562 11.312 C3.751 12.566 3.751 12.566 3.943 13.846 C5.6 25.307 6.16 36.761 6.203 48.332 C6.209 49.566 6.215 50.801 6.22 52.072 C6.23 54.671 6.236 57.271 6.24 59.87 C6.25 63.764 6.281 67.658 6.312 71.553 C6.484 112.079 6.484 112.079 1 122 C0 121 0 121 -0.133 118.969 C-0.13 118.154 -0.128 117.339 -0.125 116.5 C-0.128 115.685 -0.13 114.871 -0.133 114.031 C0 112 0 112 1 111 C1.105 109.022 1.139 107.041 1.145 105.06 C1.152 103.782 1.158 102.504 1.165 101.187 C1.166 99.769 1.167 98.352 1.168 96.934 C1.171 95.465 1.175 93.996 1.178 92.527 C1.184 89.419 1.186 86.311 1.185 83.202 C1.185 80.081 1.192 76.96 1.206 73.839 C1.29 54.686 0.824 35.703 -0.569 16.598 C-0.937 11.376 -1.177 6.233 -1 1 C-0.67 0.67 -0.34 0.34 0 0 Z " fill="#DAB79F" transform="translate(893,444)"/>
<path d="M0 0 C0.66 0.33 1.32 0.66 2 1 C2.78 79.748 2.78 79.748 -5 105 C-6.137 110.094 -6.899 115.242 -7.609 120.41 C-9.034 130.492 -10.993 139.57 -15 149 C-15.298 149.744 -15.596 150.488 -15.902 151.254 C-17.277 153.441 -18.692 153.935 -21 155 C-19.535 148.921 -17.998 142.881 -16.203 136.891 C-11.955 122.57 -8.703 108.273 -6.125 93.562 C-5.98 92.75 -5.835 91.938 -5.686 91.1 C-1.776 68.994 -0.675 47.045 -0.375 24.625 C-0.337 22.22 -0.298 19.815 -0.258 17.41 C-0.163 11.607 -0.078 5.804 0 0 Z " fill="#B39283" transform="translate(891,483)"/>
<path d="M0 0 C0.99 0.495 0.99 0.495 2 1 C0.688 2.5 0.688 2.5 -1 4 C-1.99 4 -2.98 4 -4 4 C-4 4.66 -4 5.32 -4 6 C-6.97 6.99 -9.94 7.98 -13 9 C-12.505 10.485 -12.505 10.485 -12 12 C-26.663 18.148 -42.018 22.115 -57.438 25.875 C-58.307 26.09 -59.176 26.306 -60.072 26.527 C-68.62 28.555 -68.62 28.555 -73 28 C-73.66 27.01 -74.32 26.02 -75 25 C-71.326 23.824 -67.831 23.926 -64 24 C-63.67 23.01 -63.34 22.02 -63 21 C-61.327 20.267 -61.327 20.267 -59.109 19.746 C-58.269 19.537 -57.428 19.327 -56.562 19.111 C-55.634 18.889 -54.706 18.667 -53.75 18.438 C-44.303 16.022 -35.081 13.131 -25.875 9.938 C-24.68 9.526 -23.484 9.115 -22.253 8.691 C-15.483 6.327 -8.881 3.747 -2.333 0.823 C-1.178 0.415 -1.178 0.415 0 0 Z " fill="#7F7587" transform="translate(666,858)"/>
<path d="M0 0 C0.66 0.33 1.32 0.66 2 1 C2.429 9.152 1.152 16.611 -0.562 24.562 C-0.831 25.828 -1.099 27.094 -1.375 28.398 C-4.055 40.751 -7.317 52.909 -11 65 C-11.379 66.246 -11.379 66.246 -11.765 67.517 C-14.484 76.331 -17.662 84.915 -21.188 93.438 C-21.687 94.655 -21.687 94.655 -22.197 95.898 C-22.517 96.652 -22.838 97.406 -23.168 98.184 C-23.449 98.849 -23.73 99.515 -24.02 100.201 C-25 102 -25 102 -28 105 C-27.67 102.03 -27.34 99.06 -27 96 C-26.01 96 -25.02 96 -24 96 C-23.67 93.36 -23.34 90.72 -23 88 C-22.34 88 -21.68 88 -21 88 C-20.818 86.998 -20.636 85.997 -20.449 84.965 C-20.196 83.622 -19.942 82.28 -19.688 80.938 C-19.57 80.281 -19.452 79.624 -19.33 78.947 C-18.674 75.533 -17.859 72.47 -16.43 69.293 C-15.173 66.398 -14.612 64.468 -14.438 61.375 C-14.29 58.897 -14.053 57.123 -13.07 54.828 C-11.536 50.774 -11.05 46.653 -10.438 42.375 C-10.189 40.674 -9.937 38.974 -9.684 37.273 C-9.576 36.525 -9.468 35.777 -9.357 35.005 C-9 33 -9 33 -8 30 C-7.34 30 -6.68 30 -6 30 C-5.34 25.38 -4.68 20.76 -4 16 C-3.34 16 -2.68 16 -2 16 C-1.909 14.393 -1.909 14.393 -1.816 12.754 C-1.732 11.357 -1.647 9.96 -1.562 8.562 C-1.523 7.855 -1.484 7.148 -1.443 6.42 C-1.113 1.113 -1.113 1.113 0 0 Z " fill="#D2AF99" transform="translate(892,566)"/>
<path d="M0 0 C0.99 0.495 0.99 0.495 2 1 C1.34 1.99 0.68 2.98 0 4 C-0.66 4 -1.32 4 -2 4 C-2 4.66 -2 5.32 -2 6 C-2.66 6.33 -3.32 6.66 -4 7 C-3.34 7.66 -2.68 8.32 -2 9 C-50.73 38 -50.73 38 -64 38 C-64 37.34 -64 36.68 -64 36 C-60.633 33.568 -59.266 33 -55 33 C-55 32.34 -55 31.68 -55 31 C-53.349 29.974 -51.68 28.977 -50 28 C-49.319 27.282 -49.319 27.282 -48.625 26.549 C-46.667 24.682 -44.768 23.778 -42.309 22.652 C-40.904 21.999 -40.904 21.999 -39.47 21.332 C-38.47 20.872 -37.469 20.412 -36.438 19.938 C-28.809 16.362 -21.293 12.674 -13.938 8.562 C-13.219 8.162 -12.501 7.762 -11.761 7.349 C-7.718 5.062 -3.833 2.625 0 0 Z " fill="#94828E" transform="translate(717,831)"/>
<path d="M0 0 C3.364 5.767 4.184 12.767 5.344 19.257 C7.153 29.37 9.545 39.17 12.44 49.022 C13.003 51.011 13.509 53.007 14 55.016 C14.988 59.035 16.147 62.986 17.375 66.938 C17.571 67.589 17.767 68.241 17.969 68.912 C19.335 73.318 21.03 77.477 22.943 81.673 C24.747 85.645 26.43 89.668 28.125 93.688 C28.472 94.503 28.819 95.318 29.176 96.158 C30.963 100.393 32.624 104.608 34 109 C33.01 109 32.02 109 31 109 C27.538 103.254 24.95 97.542 22.797 91.188 C22.194 89.053 22.194 89.053 21 88 C20.959 86.334 20.957 84.666 21 83 C20.34 83 19.68 83 19 83 C18.759 82.17 18.759 82.17 18.513 81.323 C14.717 68.141 14.717 68.141 9.87 55.323 C9.002 53.005 8.492 50.834 8.047 48.402 C7.186 43.892 6.193 39.428 5.147 34.958 C-0.434 11.07 -0.434 11.07 0 0 Z " fill="#1F3B67" transform="translate(133,561)"/>
<path d="M0 0 C-3.435 2.29 -5.126 3.121 -9.156 3.297 C-10.467 3.355 -10.467 3.355 -11.805 3.415 C-13.249 3.471 -13.249 3.471 -14.723 3.527 C-16.242 3.589 -16.242 3.589 -17.792 3.653 C-31.335 4.171 -44.886 4.356 -58.438 4.562 C-61.127 4.605 -63.816 4.649 -66.506 4.693 C-73.004 4.799 -79.502 4.901 -86 5 C-80.784 10.216 -57.011 7.382 -49.5 7.562 C-47.79 7.606 -46.081 7.649 -44.371 7.693 C-40.247 7.799 -36.124 7.9 -32 8 C-32 8.33 -32 8.66 -32 9 C-63.164 9.369 -93.167 8.856 -124 4 C-124 3.67 -124 3.34 -124 3 C-122.458 2.973 -120.917 2.953 -119.375 2.938 C-118.516 2.926 -117.658 2.914 -116.773 2.902 C-114 3 -114 3 -111.156 3.5 C-107.46 4.085 -103.854 4.109 -100.125 4.062 C-99.437 4.058 -98.748 4.053 -98.039 4.049 C-96.359 4.037 -94.68 4.019 -93 4 C-96.3 3.34 -99.6 2.68 -103 2 C-103 1.67 -103 1.34 -103 1 C-101.946 1.07 -100.892 1.14 -99.806 1.212 C-86.611 2.028 -73.44 2.186 -60.222 2.185 C-56.637 2.187 -53.053 2.206 -49.469 2.225 C-37.01 2.254 -24.784 1.853 -12.404 0.431 C-8.245 -0.031 -4.182 -0.076 0 0 Z " fill="#3D4D66" transform="translate(571,886)"/>
<path d="M0 0 C1.827 0.014 1.827 0.014 3.691 0.027 C4.598 0.039 5.504 0.051 6.438 0.062 C5.778 0.722 5.118 1.382 4.438 2.062 C21.597 2.062 38.757 2.062 56.438 2.062 C56.438 2.722 56.438 3.382 56.438 4.062 C58.747 4.062 61.058 4.062 63.438 4.062 C63.438 4.393 63.438 4.722 63.438 5.062 C62.732 5.06 62.027 5.058 61.301 5.056 C54.553 5.035 47.805 5.02 41.056 5.011 C37.59 5.006 34.123 4.999 30.656 4.987 C11.12 4.914 11.12 4.914 -8.406 5.469 C-9.605 5.52 -9.605 5.52 -10.827 5.573 C-17.846 5.944 -24.693 7.089 -31.582 8.441 C-35.615 9.17 -39.47 9.168 -43.562 9.062 C-42.897 7.139 -42.897 7.139 -41.562 5.062 C-39.183 4.257 -39.183 4.257 -36.215 3.832 C-35.134 3.669 -34.053 3.506 -32.939 3.338 C-31.804 3.185 -30.669 3.032 -29.5 2.875 C-28.392 2.711 -27.284 2.546 -26.143 2.377 C-22.952 1.911 -19.76 1.478 -16.562 1.062 C-15.721 0.953 -14.879 0.843 -14.012 0.73 C-9.321 0.161 -4.734 -0.046 0 0 Z " fill="#315075" transform="translate(481.5625,129.9375)"/>
<path d="M0 0 C3.292 0.89 4.722 1.599 6.688 4.438 C7.813 7.492 8.379 10.004 8.875 13.188 C9.715 18.396 11.475 22.582 13.77 27.305 C15.311 30.68 16.32 34.092 17.312 37.66 C17.966 39.883 18.755 41.979 19.625 44.125 C21.161 48.064 21.625 51.798 22 56 C22.66 56 23.32 56 24 56 C26.151 68.598 26.151 68.598 26 73.5 C25.772 76.916 25.772 76.916 27.062 79.5 C28.459 83.224 27.66 86.107 27 90 C26.67 90 26.34 90 26 90 C25.88 89.363 25.76 88.726 25.636 88.07 C20.401 60.532 13.981 33.304 2.082 7.781 C0.782 4.973 0 3.142 0 0 Z " fill="#B09386" transform="translate(860,358)"/>
<path d="M0 0 C5.341 1.537 9.883 3.968 14.688 6.688 C15.478 7.132 16.268 7.577 17.082 8.035 C31.932 16.452 31.932 16.452 35 19 C35 19.99 35 20.98 35 22 C36.939 24.674 36.939 24.674 39 27 C34.149 27 31.707 25.198 27.812 22.625 C23.359 19.739 18.908 16.908 14.273 14.32 C13.507 13.889 12.74 13.458 11.95 13.013 C10.473 12.188 8.989 11.376 7.497 10.577 C3.007 8.045 0.889 6.008 -1 1 C-0.67 0.67 -0.34 0.34 0 0 Z " fill="#847E93" transform="translate(690,173)"/>
<path d="M0 0 C3 1 3 1 4.762 4.359 C5.411 5.82 6.053 7.283 6.688 8.75 C10.232 16.616 14.343 23.73 19 31 C19.922 32.559 20.839 34.122 21.75 35.688 C28.587 47.132 36.258 58.151 44 69 C43.01 69.495 43.01 69.495 42 70 C41.67 69.34 41.34 68.68 41 68 C40.01 68.495 40.01 68.495 39 69 C0 11.034 0 11.034 0 0 Z " fill="#2A6092" transform="translate(165,669)"/>
<path d="M0 0 C0 1 0 2 0 3 C0.66 3.33 1.32 3.66 2 4 C-0.245 5.177 -2.495 6.341 -4.75 7.5 C-5.384 7.834 -6.018 8.168 -6.672 8.512 C-10.12 10.272 -12.048 11 -16 11 C-16 11.66 -16 12.32 -16 13 C-17.79 13.838 -19.582 14.67 -21.375 15.5 C-22.373 15.964 -23.37 16.428 -24.398 16.906 C-27 18 -27 18 -29 18 C-29.33 18.99 -29.66 19.98 -30 21 C-31.595 21.713 -33.196 22.413 -34.824 23.047 C-40.187 25.396 -45.138 28.759 -50 32 C-50.99 31.67 -51.98 31.34 -53 31 C-43.766 20.492 -14.244 0 0 0 Z " fill="#1C2F55" transform="translate(352,165)"/>
<path d="M0 0 C0.33 0 0.66 0 1 0 C0.74 6.572 0.039 10.614 -4 16 C-4.68 17.995 -5.345 19.996 -6 22 C-7.594 25.371 -9.286 28.689 -11 32 C-11.66 32 -12.32 32 -13 32 C-13.289 32.928 -13.577 33.856 -13.875 34.812 C-15 38 -15 38 -17 41 C-17.289 41.928 -17.577 42.856 -17.875 43.812 C-19.123 47.349 -20.731 50.022 -23 53 C-23.66 53 -24.32 53 -25 53 C-25.33 53.66 -25.66 54.32 -26 55 C-27.32 55 -28.64 55 -30 55 C-28.743 51.648 -27.315 48.703 -25.383 45.691 C-24.864 44.872 -24.345 44.053 -23.81 43.209 C-23.254 42.336 -22.698 41.462 -22.125 40.562 C-17.298 32.876 -12.716 25.096 -8.375 17.125 C-7.879 16.217 -7.383 15.309 -6.872 14.373 C-4.331 9.663 -2.013 4.959 0 0 Z " fill="#A48982" transform="translate(856,672)"/>
<path d="M0 0 C1 3 1 3 0.187 5.166 C-0.251 6 -0.689 6.833 -1.141 7.691 C-1.629 8.627 -2.117 9.563 -2.62 10.527 C-3.158 11.529 -3.696 12.531 -4.25 13.562 C-4.797 14.594 -5.344 15.625 -5.908 16.688 C-10.912 26.023 -16.28 35.088 -22 44 C-22.452 44.707 -22.904 45.414 -23.369 46.143 C-24.694 48.207 -26.031 50.262 -27.375 52.312 C-27.768 52.917 -28.16 53.522 -28.565 54.145 C-31.064 57.893 -33.74 60.93 -37 64 C-36.691 63.237 -36.381 62.474 -36.062 61.688 C-35.321 59.812 -34.638 57.913 -34 56 C-33.34 56 -32.68 56 -32 56 C-31.918 55.443 -31.835 54.886 -31.75 54.312 C-31 52 -31 52 -29.117 49.738 C-26.891 46.859 -25.689 44.257 -24.375 40.875 C-23.094 37.602 -21.956 34.934 -20 32 C-19.34 32 -18.68 32 -18 32 C-17.918 31.299 -17.835 30.597 -17.75 29.875 C-17 27 -17 27 -15.125 24.25 C-13.293 21.448 -12.406 19.499 -11.438 16.375 C-10.412 13.081 -9.493 10.493 -7 8 C-6.01 7.67 -5.02 7.34 -4 7 C-3.897 6.216 -3.794 5.433 -3.688 4.625 C-3 2 -3 2 0 0 Z " fill="#CAA99D" transform="translate(863,672)"/>
<path d="M0 0 C0 0.66 0 1.32 0 2 C1.65 2 3.3 2 5 2 C5 1.34 5 0.68 5 0 C11.915 -0.183 18.485 0.295 25.312 1.375 C26.179 1.501 27.046 1.628 27.939 1.758 C32.242 2.417 35.993 3.239 40 5 C42.326 5.381 44.659 5.725 47 6 C46.67 6.66 46.34 7.32 46 8 C27.038 8.858 7.064 6.961 -11 1 C-11 0.67 -11 0.34 -11 0 C-6.982 -0.841 -3.982 -1.054 0 0 Z " fill="#32587A" transform="translate(432,883)"/>
<path d="M0 0 C0.99 0.495 0.99 0.495 2 1 C2 1.66 2 2.32 2 3 C2.903 3.15 2.903 3.15 3.824 3.304 C6.421 4.135 7.168 5 8.812 7.141 C9.581 8.119 9.581 8.119 10.365 9.117 C11.174 10.173 11.174 10.173 12 11.25 C17.183 17.829 22.599 24.048 28.332 30.148 C31.164 33.175 33.899 36.269 36.598 39.414 C38.007 41.008 39.48 42.511 41 44 C40.01 44.495 40.01 44.495 39 45 C38.505 45.99 38.505 45.99 38 47 C31.754 40.856 25.675 34.682 20 28 C19.064 26.926 18.126 25.853 17.188 24.781 C0 5.069 0 5.069 0 0 Z " fill="#2E6EA0" transform="translate(205,736)"/>
<path d="M0 0 C2.279 2.279 2.365 3.023 2.816 6.113 C2.941 6.951 3.065 7.788 3.193 8.65 C3.315 9.529 3.437 10.407 3.562 11.312 C3.751 12.566 3.751 12.566 3.943 13.846 C6.136 29.011 6.123 44.022 6.062 59.312 C6.057 61.518 6.053 63.723 6.049 65.928 C6.038 71.285 6.021 76.643 6 82 C5.67 82 5.34 82 5 82 C4.986 80.971 4.986 80.971 4.972 79.922 C4.711 64.448 3.596 49.531 1.453 34.218 C0.351 26.187 -0.462 18.225 -0.812 10.125 C-0.853 9.203 -0.894 8.282 -0.936 7.333 C-1.006 5.223 -1.011 3.111 -1 1 C-0.67 0.67 -0.34 0.34 0 0 Z " fill="#E8C8AD" transform="translate(893,444)"/>
<path d="M0 0 C0.33 0 0.66 0 1 0 C1.023 8.979 1.041 17.958 1.052 26.938 C1.057 31.107 1.064 35.276 1.075 39.445 C1.086 43.465 1.092 47.485 1.095 51.505 C1.097 53.042 1.1 54.579 1.106 56.116 C1.113 58.261 1.114 60.407 1.114 62.552 C1.116 63.776 1.118 65 1.12 66.26 C1 69 1 69 0 70 C-0.332 74.732 -0.189 79.393 1 84 C0.01 83.01 -0.98 82.02 -2 81 C-2.061 81.915 -2.121 82.83 -2.184 83.773 C-2.267 84.962 -2.351 86.15 -2.438 87.375 C-2.519 88.558 -2.6 89.742 -2.684 90.961 C-3 94 -3 94 -4 96 C-4.66 96 -5.32 96 -6 96 C-6.049 96.759 -6.098 97.519 -6.148 98.301 C-6.223 99.295 -6.298 100.289 -6.375 101.312 C-6.445 102.299 -6.514 103.285 -6.586 104.301 C-7 107 -7 107 -9 110 C-9.424 104.801 -8.734 100.855 -7.188 95.875 C-0.029 71.793 -0.994 43.952 -0.438 18.938 C-0.394 17.088 -0.351 15.238 -0.307 13.389 C-0.201 8.926 -0.1 4.463 0 0 Z " fill="#CDAA95" transform="translate(894,486)"/>
<path d="M0 0 C17.82 0 35.64 0 54 0 C54 0.33 54 0.66 54 1 C52.02 1 50.04 1 48 1 C48 1.66 48 2.32 48 3 C54.27 3 60.54 3 67 3 C67 3.33 67 3.66 67 4 C60.457 4.026 53.914 4.043 47.371 4.055 C45.152 4.06 42.934 4.067 40.715 4.075 C19.458 4.157 19.458 4.157 9.625 3.684 C8.4 3.626 7.176 3.569 5.914 3.51 C3 3 3 3 0 0 Z " fill="#546B8C" transform="translate(483,890)"/>
<path d="M0 0 C5.453 0.388 9.124 3.628 13.375 6.75 C14.469 7.539 14.469 7.539 15.586 8.344 C17.03 9.385 18.471 10.43 19.909 11.479 C22.925 13.673 25.962 15.836 29 18 C28.34 18.33 27.68 18.66 27 19 C27.495 19.392 27.99 19.784 28.5 20.188 C30.456 22.551 30.242 24.014 30 27 C25.084 23.802 20.469 20.327 15.855 16.711 C15.315 16.291 14.775 15.87 14.219 15.438 C13.69 15.026 13.162 14.615 12.617 14.191 C10.99 12.992 9.313 11.937 7.594 10.875 C6.31 9.947 6.31 9.947 5 9 C5 8.01 5 7.02 5 6 C3.374 4.293 1.709 2.623 0 1 C0 0.67 0 0.34 0 0 Z " fill="#938696" transform="translate(723,193)"/>
<path d="M0 0 C0.625 1.812 0.625 1.812 1 4 C0.34 4.99 -0.32 5.98 -1 7 C-1.66 7 -2.32 7 -3 7 C-3.66 9.31 -4.32 11.62 -5 14 C-5.99 14 -6.98 14 -8 14 C-8.247 14.908 -8.495 15.815 -8.75 16.75 C-10.098 20.255 -11.068 21.702 -14 24 C-15.196 24.474 -16.393 24.949 -17.625 25.438 C-21.167 26.651 -21.167 26.651 -22.312 29.625 C-22.539 30.409 -22.766 31.192 -23 32 C-23.99 32.495 -23.99 32.495 -25 33 C-25 34.65 -25 36.3 -25 38 C-27 39 -27 39 -29.438 39.438 C-32.223 39.886 -32.223 39.886 -35 42 C-35.99 41.67 -36.98 41.34 -38 41 C-37.32 40.331 -36.64 39.661 -35.94 38.971 C-33.368 36.436 -30.803 33.894 -28.24 31.35 C-27.14 30.26 -26.037 29.171 -24.933 28.084 C-17.79 21.052 -11.206 13.885 -5 6 C-3.984 4.767 -2.964 3.537 -1.938 2.312 C-0.978 1.168 -0.978 1.168 0 0 Z " fill="#998285" transform="translate(808,750)"/>
<path d="M0 0 C3.261 3.009 5.498 6.121 7.75 9.938 C8.364 10.957 8.977 11.977 9.609 13.027 C11.048 16.102 11.076 17.692 11 21 C11.979 23.1 11.979 23.1 13.375 25 C17.298 30.957 18.241 34.905 18 42 C17.01 41.34 16.02 40.68 15 40 C14.812 36.375 14.812 36.375 15 33 C14.34 33 13.68 33 13 33 C12.162 31.378 11.33 29.752 10.5 28.125 C10.036 27.22 9.572 26.315 9.094 25.383 C8 23 8 23 8 21 C7.34 21 6.68 21 6 21 C5.284 19.275 4.568 17.549 3.852 15.824 C2.932 13.735 2.932 13.735 1 11 C0.586 8.301 0.586 8.301 0.375 5.312 C0.3 4.319 0.225 3.325 0.148 2.301 C0.099 1.542 0.05 0.782 0 0 Z " fill="#D1B1A3" transform="translate(845,317)"/>
<path d="M0 0 C0.66 0.33 1.32 0.66 2 1 C1.412 7.404 -0.074 13.144 -2.062 19.25 C-2.368 20.199 -2.674 21.149 -2.989 22.127 C-5.199 28.857 -7.629 35.482 -10.25 42.062 C-10.579 42.888 -10.908 43.714 -11.246 44.565 C-12.889 48.592 -14.615 52.341 -17 56 C-18.534 52.931 -17.55 50.299 -17 47 C-16.01 47 -15.02 47 -14 47 C-13.67 44.36 -13.34 41.72 -13 39 C-12.34 39 -11.68 39 -11 39 C-10.818 37.998 -10.636 36.997 -10.449 35.965 C-10.196 34.622 -9.942 33.28 -9.688 31.938 C-9.57 31.281 -9.452 30.624 -9.33 29.947 C-8.673 26.527 -7.856 23.463 -6.422 20.281 C-5.172 17.397 -4.661 15.63 -4.562 12.562 C-4.174 7.652 -2.405 4.267 0 0 Z " fill="#E1BEA7" transform="translate(882,615)"/>
<path d="M0 0 C0.99 0.495 0.99 0.495 2 1 C2 2.32 2 3.64 2 5 C2.66 5 3.32 5 4 5 C4.182 5.699 4.364 6.397 4.551 7.117 C4.928 8.482 4.928 8.482 5.312 9.875 C5.556 10.78 5.8 11.685 6.051 12.617 C6.867 15.321 6.867 15.321 10 17 C10.66 16.67 11.32 16.34 12 16 C18.149 31.957 18.149 31.957 16 41 C16.66 41 17.32 41 18 41 C18 43.64 18 46.28 18 49 C16 46 16 46 16 43 C15.34 43 14.68 43 14 43 C13.746 41.998 13.492 40.997 13.23 39.965 C12.883 38.622 12.535 37.28 12.188 35.938 C12.022 35.281 11.856 34.624 11.686 33.947 C10.504 29.423 8.909 25.282 7 21 C6.134 18.796 5.28 16.588 4.438 14.375 C2.7 9.809 2.7 9.809 0.848 5.289 C0 3 0 3 0 0 Z " fill="#CCAC98" transform="translate(868,371)"/>
<path d="M0 0 C0.66 0.33 1.32 0.66 2 1 C1.01 1.66 0.02 2.32 -1 3 C1.475 3.495 1.475 3.495 4 4 C3.67 4.66 3.34 5.32 3 6 C0.059 6.633 0.059 6.633 -3.562 7.125 C-4.76 7.293 -5.958 7.46 -7.191 7.633 C-8.582 7.815 -8.582 7.815 -10 8 C-10.33 8.99 -10.66 9.98 -11 11 C-12.855 11.879 -12.855 11.879 -15.188 12.562 C-16.406 12.928 -16.406 12.928 -17.648 13.301 C-18.424 13.532 -19.2 13.762 -20 14 C-21.64 14.619 -21.64 14.619 -23.312 15.25 C-26.075 16.021 -27.359 16.016 -30 15 C-28.68 14.67 -27.36 14.34 -26 14 C-26 13.01 -26 12.02 -26 11 C-22.23 9.352 -18.459 7.707 -14.688 6.062 C-13.08 5.36 -13.08 5.36 -11.439 4.643 C-10.411 4.195 -9.383 3.747 -8.324 3.285 C-6.902 2.665 -6.902 2.665 -5.452 2.031 C-3 1 -3 1 0 0 Z " fill="#1C3052" transform="translate(378,153)"/>
<path d="M0 0 C0 8.269 -11.14 16.617 -16.625 22.511 C-19.465 25.586 -22.241 28.719 -25.027 31.844 C-26.969 33.966 -28.881 36.054 -31 38 C-31.66 38 -32.32 38 -33 38 C-32.67 36.35 -32.34 34.7 -32 33 C-31.34 33 -30.68 33 -30 33 C-29.753 31.639 -29.753 31.639 -29.5 30.25 C-27.634 26.208 -25.951 25.585 -21.973 23.957 C-17.847 21.955 -16.485 19.227 -15 15 C-14.01 15 -13.02 15 -12 15 C-11.67 13.35 -11.34 11.7 -11 10 C-10.01 10 -9.02 10 -8 10 C-6.03 7.872 -5.013 6.036 -4 3.312 C-3.67 2.549 -3.34 1.786 -3 1 C-2.01 0.67 -1.02 0.34 0 0 Z " fill="#C7A7A2" transform="translate(815,749)"/>
<path d="M0 0 C4.801 0.537 8.768 1.513 13.195 3.434 C14.323 3.918 15.451 4.402 16.613 4.9 C17.772 5.408 18.931 5.915 20.125 6.438 C22.44 7.436 24.755 8.435 27.07 9.434 C28.089 9.878 29.107 10.322 30.157 10.779 C32.756 11.895 35.368 12.962 38 14 C37.67 14.99 37.34 15.98 37 17 C35.989 16.526 34.979 16.051 33.938 15.562 C30.328 14.002 26.903 13.506 23 13 C20.125 12.062 20.125 12.062 18 11 C17.67 10.34 17.34 9.68 17 9 C14.96 8.806 12.919 8.611 10.879 8.418 C9 8 9 8 7.5 5.938 C7.335 5.298 7.17 4.659 7 4 C5.35 4 3.7 4 2 4 C1.34 2.68 0.68 1.36 0 0 Z " fill="#6E7390" transform="translate(643,153)"/>
<path d="M0 0 C3.777 6.475 4.513 14.595 5.812 21.875 C7.26 29.855 9.112 37.593 11.601 45.314 C13.181 50.479 13.181 50.479 12.133 53.496 C11.759 53.992 11.385 54.489 11 55 C8.677 52.677 8.58 51.717 8.031 48.551 C7.36 44.899 6.63 41.283 5.781 37.668 C-0.435 11.094 -0.435 11.094 0 0 Z " fill="#151C39" transform="translate(133,561)"/>
<path d="M0 0 C0.66 0.33 1.32 0.66 2 1 C2.023 8.52 2.041 16.04 2.052 23.56 C2.057 27.053 2.064 30.545 2.075 34.038 C2.089 38.064 2.093 42.091 2.098 46.117 C2.103 47.356 2.108 48.595 2.113 49.872 C2.115 68.721 2.115 68.721 -0.543 71.77 C-1.264 72.379 -1.264 72.379 -2 73 C-1.934 71.801 -1.869 70.602 -1.801 69.366 C-1.021 54.477 -0.691 39.594 -0.438 24.688 C-0.394 22.278 -0.351 19.868 -0.307 17.459 C-0.201 11.639 -0.099 5.82 0 0 Z " fill="#A18478" transform="translate(891,483)"/>
<path d="M0 0 C0.66 0.33 1.32 0.66 2 1 C2 1.99 2 2.98 2 4 C-0.02 5.543 -0.02 5.543 -2.812 7.188 C-11.975 12.784 -20.342 19.135 -28.492 26.117 C-30.943 27.958 -33.112 29.017 -36 30 C-32.339 23.855 -27.721 20.267 -21.938 16.113 C-19.995 14.716 -18.096 13.254 -16.25 11.73 C-14 10 -14 10 -12 10 C-12 9.34 -12 8.68 -12 8 C-10.236 6.742 -8.412 5.566 -6.562 4.438 C-3.096 2.465 -3.096 2.465 0 0 Z " fill="#151C39" transform="translate(298,195)"/>
<path d="M0 0 C0.66 0.66 1.32 1.32 2 2 C-0.722 11.347 -0.722 11.347 -2.062 14.5 C-3.321 17.857 -3.896 21.271 -4.535 24.793 C-5 27 -5 27 -6 29 C-6.66 29 -7.32 29 -8 29 C-8.33 31.64 -8.66 34.28 -9 37 C-9.66 37 -10.32 37 -11 37 C-10.832 36.47 -10.665 35.94 -10.492 35.395 C-9.882 32.424 -10.018 29.717 -10.125 26.688 C-10.162 21.237 -9.888 17.642 -7 13 C-4.875 11.812 -4.875 11.812 -3 11 C-2.287 9.242 -2.287 9.242 -2 7 C-1.338 4.665 -0.673 2.332 0 0 Z " fill="#C7A593" transform="translate(877,625)"/>
<path d="M0 0 C3.487 1.109 6.775 2.263 10 4 C10 5.32 10 6.64 10 8 C10.619 8.083 11.237 8.165 11.875 8.25 C14 9 14 9 15.25 11.062 C15.497 11.702 15.745 12.341 16 13 C16.99 13 17.98 13 19 13 C20.188 14.12 21.366 15.253 22.48 16.445 C24.228 18.233 26.093 19.821 28 21.438 C31.419 24.422 34.418 27.252 37 31 C36.812 33.375 36.812 33.375 36 35 C34.979 33.701 34.979 33.701 33.938 32.375 C31.44 29.369 28.681 26.921 25.684 24.426 C22.693 21.893 20.01 19.054 17.301 16.227 C12.538 11.338 7.475 7.023 2.125 2.785 C1.424 2.196 0.722 1.607 0 1 C0 0.67 0 0.34 0 0 Z " fill="#7D747F" transform="translate(753,220)"/>
<path d="M0 0 C3 1 3 1 4.762 4.359 C5.411 5.82 6.053 7.283 6.688 8.75 C10.678 17.62 15.462 25.604 20.793 33.734 C21.191 34.482 21.59 35.23 22 36 C21 38 21 38 19 39 C16.955 35.252 14.915 31.501 12.875 27.75 C12.305 26.706 11.735 25.662 11.148 24.586 C8.232 19.217 5.358 13.828 2.57 8.391 C2.075 7.427 1.581 6.463 1.071 5.47 C0 3 0 3 0 0 Z " fill="#275385" transform="translate(165,669)"/>
<path d="M0 0 C0 0.33 0 0.66 0 1 C-1.267 1.121 -2.534 1.242 -3.84 1.367 C-5.539 1.536 -7.238 1.705 -8.938 1.875 C-9.768 1.954 -10.599 2.032 -11.455 2.113 C-15.535 2.526 -19.481 3.054 -23.473 4.004 C-28.445 5.178 -33.417 5.631 -38.5 6.062 C-40.282 6.216 -42.063 6.373 -43.844 6.535 C-44.619 6.601 -45.394 6.667 -46.193 6.735 C-48.018 6.819 -48.018 6.819 -49 8 C-51.671 8.141 -54.324 8.042 -57 8 C-55 6 -55 6 -52.938 5.5 C-52.298 5.335 -51.659 5.17 -51 5 C-50.67 4.34 -50.34 3.68 -50 3 C-48.074 2.332 -48.074 2.332 -45.688 1.812 C-44.908 1.633 -44.128 1.454 -43.324 1.27 C-40.908 0.989 -39.298 1.259 -37 2 C-37.33 2.33 -37.66 2.66 -38 3 C-27.863 2.569 -27.863 2.569 -17.875 0.938 C-11.956 -0.412 -6.037 -0.17 0 0 Z " fill="#274367" transform="translate(477,135)"/>
<path d="M0 0 C-1.65 0.66 -3.3 1.32 -5 2 C-3 2.043 -1 2.041 1 2 C1.33 1.67 1.66 1.34 2 1 C4.333 0.959 6.667 0.958 9 1 C6.348 3.652 4.568 3.488 0.875 3.938 C-3.176 4.493 -6.784 5.116 -10.562 6.688 C-14 8 -14 8 -18 7 C-15.36 6.01 -12.72 5.02 -10 4 C-15.366 4.596 -20.29 5.886 -25.449 7.477 C-28.126 8.026 -29.431 7.744 -32 7 C-28.272 5.85 -24.542 4.706 -20.812 3.562 C-19.757 3.237 -18.702 2.912 -17.615 2.576 C-16.594 2.264 -15.572 1.951 -14.52 1.629 C-13.113 1.197 -13.113 1.197 -11.679 0.756 C-4.126 -1.375 -4.126 -1.375 0 0 Z " fill="#233C61" transform="translate(427,140)"/>
<path d="M0 0 C-1 2 -1 2 -2.946 2.686 C-4.201 2.985 -4.201 2.985 -5.48 3.289 C-6.398 3.508 -7.315 3.727 -8.26 3.953 C-9.226 4.175 -10.192 4.397 -11.188 4.625 C-12.134 4.854 -13.081 5.084 -14.057 5.32 C-23.723 7.587 -23.723 7.587 -28 7 C-28.66 6.01 -29.32 5.02 -30 4 C-26.326 2.824 -22.831 2.926 -19 3 C-19 2.34 -19 1.68 -19 1 C-12.618 0.176 -6.433 -0.121 0 0 Z " fill="#81798C" transform="translate(621,879)"/>
<path d="M0 0 C1.32 0.33 2.64 0.66 4 1 C6.151 13.598 6.151 13.598 6 18.5 C5.772 21.916 5.772 21.916 7.062 24.5 C8.459 28.224 7.66 31.107 7 35 C6.67 35 6.34 35 6 35 C5.179 31.043 4.37 27.084 3.562 23.125 C3.217 21.462 3.217 21.462 2.865 19.766 C1.53 13.187 0.499 6.697 0 0 Z " fill="#C19F8C" transform="translate(880,413)"/>
<path d="M0 0 C0.66 0 1.32 0 2 0 C2.368 12.403 1.611 23.862 -1 36 C-1.66 35.67 -2.32 35.34 -3 35 C-3.027 33.521 -3.046 32.042 -3.062 30.562 C-3.074 29.739 -3.086 28.915 -3.098 28.066 C-3 26 -3 26 -2 25 C-1.855 23.402 -1.773 21.799 -1.719 20.195 C-1.681 19.219 -1.644 18.244 -1.605 17.238 C-1.571 16.211 -1.536 15.184 -1.5 14.125 C-1.431 12.107 -1.358 10.088 -1.281 8.07 C-1.251 7.171 -1.221 6.271 -1.189 5.344 C-1 3 -1 3 0 0 Z " fill="#E4C3A7" transform="translate(896,530)"/>
<path d="M0 0 C3.858 3.386 4.194 6.995 5.125 11.875 C5.297 12.747 5.469 13.618 5.646 14.517 C7.439 24.29 7.801 34.085 8 44 C7.67 44 7.34 44 7 44 C6.829 42.971 6.657 41.942 6.481 40.882 C5.841 37.046 5.195 33.211 4.546 29.376 C4.267 27.72 3.99 26.063 3.714 24.406 C3.317 22.017 2.913 19.63 2.508 17.242 C2.387 16.508 2.266 15.773 2.141 15.016 C1.587 11.782 0.922 8.776 -0.157 5.672 C-1 3 -1 3 0 0 Z " fill="#CBA994" transform="translate(886,431)"/>
<path d="M0 0 C1.06 0.007 1.06 0.007 2.141 0.014 C3.885 0.025 5.63 0.043 7.375 0.062 C7.375 0.722 7.375 1.382 7.375 2.062 C5.726 2.244 5.726 2.244 4.043 2.43 C-5.862 3.535 -5.862 3.535 -15.688 5.188 C-20.092 6.05 -24.143 6.232 -28.625 6.062 C-27.965 5.072 -27.305 4.083 -26.625 3.062 C-23.747 2.542 -21.027 2.181 -18.125 1.938 C-11.87 1.352 -6.278 -0.075 0 0 Z " fill="#32608D" transform="translate(466.625,132.9375)"/>
<path d="M0 0 C3.642 1.214 3.917 2.09 5.688 5.375 C6.343 6.562 6.343 6.562 7.012 7.773 C8 10 8 10 8 13 C8.66 13 9.32 13 10 13 C10.838 14.622 11.67 16.248 12.5 17.875 C12.964 18.78 13.428 19.685 13.906 20.617 C15 23 15 23 15 25 C15.66 25 16.32 25 17 25 C17.33 27.31 17.66 29.62 18 32 C17.01 32.495 17.01 32.495 16 33 C15.515 32.019 15.031 31.038 14.531 30.027 C10.635 22.175 6.668 14.379 2.439 6.699 C0 2.213 0 2.213 0 0 Z " fill="#9E8680" transform="translate(843,325)"/>
<path d="M0 0 C2.532 2.532 2.44 3.863 2.852 7.383 C2.98 8.468 3.109 9.554 3.242 10.672 C3.369 11.811 3.495 12.951 3.625 14.125 C3.759 15.241 3.893 16.358 4.031 17.508 C5.996 34.506 5.996 34.506 3 39 C0.324 26.165 0.36 13.057 0 0 Z " fill="#101224" transform="translate(129,526)"/>
<path d="M0 0 C2 1 2 1 3 2 C3.66 2.33 4.32 2.66 5 3 C4.238 3.364 3.476 3.727 2.691 4.102 C-3.284 7.011 -8.82 10.028 -14.16 13.996 C-15.071 14.493 -15.071 14.493 -16 15 C-16.99 14.67 -17.98 14.34 -19 14 C-14.449 8.821 -8.834 5.585 -3 2 C-2.01 1.34 -1.02 0.68 0 0 Z " fill="#182345" transform="translate(318,182)"/>
<path d="M0 0 C0.625 1.875 0.625 1.875 1 4 C0.34 4.66 -0.32 5.32 -1 6 C-1.289 7.134 -1.577 8.269 -1.875 9.438 C-3.045 13.144 -3.642 14.216 -7 16 C-7.66 16 -8.32 16 -9 16 C-9.33 17.32 -9.66 18.64 -10 20 C-10.66 20 -11.32 20 -12 20 C-12.33 20.99 -12.66 21.98 -13 23 C-13.99 22.67 -14.98 22.34 -16 22 C-13.896 19.083 -11.792 16.166 -9.688 13.25 C-9.093 12.425 -8.498 11.6 -7.885 10.75 C-7.308 9.951 -6.731 9.152 -6.137 8.328 C-5.608 7.595 -5.079 6.862 -4.534 6.106 C-3.041 4.057 -1.527 2.025 0 0 Z " fill="#927E7E" transform="translate(825,727)"/>
<path d="M0 0 C0.33 0.99 0.66 1.98 1 3 C0.01 4.485 0.01 4.485 -1 6 C-1.433 7.392 -1.433 7.392 -1.875 8.812 C-3.123 12.349 -4.731 15.022 -7 18 C-7.66 18 -8.32 18 -9 18 C-9.33 18.66 -9.66 19.32 -10 20 C-11.32 20 -12.64 20 -14 20 C-12.546 15.881 -10.635 12.488 -8 9 C-7.34 8.691 -6.68 8.381 -6 8.062 C-2.712 6.315 -1.686 3.252 0 0 Z " fill="#B89A92" transform="translate(840,707)"/>
<path d="M0 0 C0.33 0 0.66 0 1 0 C1.841 6.821 2.156 13.633 2.25 20.5 C2.271 21.289 2.293 22.079 2.314 22.892 C2.349 28.601 2.349 28.601 0.479 30.74 C-0.009 31.156 -0.497 31.572 -1 32 C-1.025 27.603 -1.043 23.207 -1.055 18.81 C-1.06 17.314 -1.067 15.817 -1.075 14.32 C-1.088 12.173 -1.093 10.026 -1.098 7.879 C-1.103 6.585 -1.108 5.292 -1.114 3.959 C-1 1 -1 1 0 0 Z " fill="#0B0C15" transform="translate(129,499)"/>
<path d="M0 0 C2.783 2.451 4.21 5.059 5.848 8.367 C6.37 9.418 6.893 10.468 7.432 11.551 C7.97 12.648 8.508 13.745 9.062 14.875 C9.876 16.509 9.876 16.509 10.705 18.176 C17.136 31.164 17.136 31.164 16.625 34.312 C16.419 34.869 16.212 35.426 16 36 C13.448 31.776 11.553 27.808 9.85 23.154 C8.156 18.86 5.928 14.819 3.785 10.736 C1.949 7.163 0.518 4.041 0 0 Z " fill="#E4C0AD" transform="translate(855,334)"/>
<path d="M0 0 C0.99 0.33 1.98 0.66 3 1 C3 1.66 3 2.32 3 3 C3.99 3.33 4.98 3.66 6 4 C7.395 5.969 7.395 5.969 8.812 8.5 C11.301 12.836 13.958 16.979 16.801 21.09 C18 23 18 23 19 26 C18.34 26.66 17.68 27.32 17 28 C16.698 27.497 16.396 26.993 16.085 26.475 C14.686 24.147 13.281 21.824 11.875 19.5 C11.401 18.709 10.926 17.917 10.438 17.102 C7.573 12.379 4.545 7.936 1.106 3.611 C0 2 0 2 0 0 Z " fill="#A18B8A" transform="translate(825,297)"/>
<path d="M0 0 C0 0.66 0 1.32 0 2 C-1.134 2.124 -2.269 2.247 -3.438 2.375 C-5.201 2.684 -5.201 2.684 -7 3 C-7.33 3.66 -7.66 4.32 -8 5 C-7.34 5.66 -6.68 6.32 -6 7 C-10.961 8.323 -15.911 8.089 -21 8 C-20.046 5.614 -19.388 4.257 -17.219 2.82 C-14.656 1.873 -12.192 1.341 -9.5 0.875 C-8.562 0.707 -7.623 0.54 -6.656 0.367 C-4 0 -4 0 0 0 Z " fill="#68687D" transform="translate(602,880)"/>
<path d="M0 0 C6.257 1.284 10.835 5.325 15 10 C15 10.99 15 11.98 15 13 C8.743 11.716 4.165 7.675 0 3 C0 2.01 0 1.02 0 0 Z " fill="#327BAD" transform="translate(256,792)"/>
<path d="M0 0 C1.32 0.33 2.64 0.66 4 1 C4.33 2.32 4.66 3.64 5 5 C5.66 5 6.32 5 7 5 C8.508 6.426 8.508 6.426 10.125 8.312 C10.664 8.927 11.203 9.542 11.758 10.176 C13 12 13 12 13 15 C13.66 15 14.32 15 15 15 C15.33 16.65 15.66 18.3 16 20 C16.66 20 17.32 20 18 20 C18.124 20.639 18.247 21.279 18.375 21.938 C18.581 22.618 18.788 23.299 19 24 C19.66 24.33 20.32 24.66 21 25 C20.01 25 19.02 25 18 25 C16.055 22.762 16.055 22.762 13.875 19.688 C13.084 18.588 12.291 17.491 11.496 16.395 C11.089 15.832 10.681 15.27 10.261 14.69 C7.551 11.058 4.582 7.635 1.652 4.18 C0 2 0 2 0 0 Z " fill="#99868A" transform="translate(805,271)"/>
<path d="M0 0 C8.131 0.491 16.019 1.353 24 3 C23.67 3.66 23.34 4.32 23 5 C20.646 5.055 18.292 5.094 15.938 5.125 C14.627 5.148 13.316 5.171 11.965 5.195 C7.806 4.99 4.864 4.487 1 3 C0.67 2.01 0.34 1.02 0 0 Z " fill="#416C94" transform="translate(455,886)"/>
<path d="M0 0 C6.886 -0.156 13.435 0.415 20.25 1.375 C21.217 1.501 22.184 1.628 23.18 1.758 C24.583 1.951 24.583 1.951 26.016 2.148 C26.854 2.264 27.692 2.379 28.556 2.498 C31.203 3.042 33.504 3.979 36 5 C38.83 5.313 41.633 5.438 44.477 5.559 C47.329 6.058 48.228 6.771 50 9 C45.808 8.534 41.694 7.975 37.562 7.125 C25.112 4.566 12.612 2.56 0 1 C0 0.67 0 0.34 0 0 Z " fill="#3E5778" transform="translate(547,135)"/>
<path d="M0 0 C4.765 7.147 6.303 16.656 8 25 C7.01 25.66 6.02 26.32 5 27 C3.986 23.003 2.988 19.003 2 15 C1.787 14.145 1.575 13.291 1.355 12.41 C0.351 8.181 -0.225 4.383 0 0 Z " fill="#18264A" transform="translate(138,589)"/>
<path d="M0 0 C0.763 0.206 1.526 0.413 2.312 0.625 C-1.188 4.799 -4.667 8.94 -8.688 12.625 C-9.347 12.625 -10.008 12.625 -10.688 12.625 C-10.357 10.975 -10.028 9.325 -9.688 7.625 C-9.028 7.625 -8.367 7.625 -7.688 7.625 C-7.419 6.676 -7.151 5.727 -6.875 4.75 C-5.408 0.89 -4.265 -0.595 0 0 Z " fill="#B49695" transform="translate(792.6875,774.375)"/>
<path d="M0 0 C2.667 -0.027 5.333 -0.047 8 -0.062 C8.744 -0.071 9.488 -0.079 10.254 -0.088 C15.261 -0.11 20.043 0.285 25 1 C25 1.33 25 1.66 25 2 C21.37 2 17.74 2 14 2 C14 2.66 14 3.32 14 4 C3.442 4.369 3.442 4.369 -1 2 C-0.67 1.34 -0.34 0.68 0 0 Z " fill="#37638B" transform="translate(442,885)"/>
<path d="M0 0 C2.64 0 5.28 0 8 0 C8.33 0.99 8.66 1.98 9 3 C11.866 3.608 14.643 4.068 17.562 4.375 C20.99 4.998 22.606 5.51 25 8 C25 8.99 25 9.98 25 11 C19.555 9.304 14.365 7.108 9.125 4.875 C8.246 4.502 7.367 4.13 6.461 3.746 C4.306 2.833 2.153 1.917 0 1 C0 0.67 0 0.34 0 0 Z " fill="#4B5B74" transform="translate(652,161)"/>
<path d="M0 0 C0.66 0.33 1.32 0.66 2 1 C1.01 2.485 1.01 2.485 0 4 C-0.66 4 -1.32 4 -2 4 C-2 4.66 -2 5.32 -2 6 C-2.99 6.495 -2.99 6.495 -4 7 C-3.34 7.66 -2.68 8.32 -2 9 C-5 10 -5 10 -8 9 C-8.969 9.495 -9.939 9.99 -10.938 10.5 C-14.245 12.12 -14.72 12.077 -18 11 C-15.05 9.133 -12.089 7.284 -9.125 5.438 C-8.283 4.904 -7.441 4.371 -6.574 3.822 C-5.769 3.323 -4.963 2.823 -4.133 2.309 C-3.017 1.609 -3.017 1.609 -1.879 0.896 C-1.259 0.6 -0.639 0.305 0 0 Z " fill="#887884" transform="translate(717,831)"/>
<path d="M0 0 C-1.244 3.732 -2.434 4.201 -5.75 6.188 C-6.611 6.717 -7.472 7.247 -8.359 7.793 C-11.165 9.076 -12.956 9.246 -16 9 C-15.67 8.34 -15.34 7.68 -15 7 C-14.34 7 -13.68 7 -13 7 C-13 6.34 -13 5.68 -13 5 C-9.408 0.743 -5.581 -2.067 0 0 Z " fill="#AE9398" transform="translate(728,830)"/>
<path d="M0 0 C0.33 0 0.66 0 1 0 C1.922 5.038 1.904 9.144 1.062 14.188 C0.454 17.905 0 21.225 0 25 C-0.66 25 -1.32 25 -2 25 C-2.33 27.97 -2.66 30.94 -3 34 C-3.66 34 -4.32 34 -5 34 C-3.404 22.656 -1.709 11.327 0 0 Z " fill="#190E0B" transform="translate(895,562)"/>
<path d="M0 0 C0.66 0.33 1.32 0.66 2 1 C2.277 8.098 2.017 15.14 0 22 C-0.66 22.33 -1.32 22.66 -2 23 C-3.125 16.25 -3.125 16.25 -2 14 C-1.684 10.627 -1.489 7.253 -1.281 3.871 C-1 1 -1 1 0 0 Z " fill="#E6C4AA" transform="translate(892,566)"/>
<path d="M0 0 C3.254 2.834 4.521 4.686 5 9 C5.66 9 6.32 9 7 9 C7.33 9.99 7.66 10.98 8 12 C8.99 12.33 9.98 12.66 11 13 C13.457 17.268 13.162 21.221 13 26 C12.01 25.34 11.02 24.68 10 24 C9.812 20.375 9.812 20.375 10 17 C9.34 17 8.68 17 8 17 C7.162 15.378 6.33 13.752 5.5 12.125 C5.036 11.22 4.572 10.315 4.094 9.383 C3 7 3 7 3 5 C2.34 5 1.68 5 1 5 C0.505 2.525 0.505 2.525 0 0 Z " fill="#C5A698" transform="translate(850,333)"/>
<path d="M0 0 C1.32 0 2.64 0 4 0 C2.564 3.388 0.795 5.319 -2 7.688 C-2.701 8.289 -3.403 8.891 -4.125 9.512 C-6 11 -6 11 -8 12 C-8.66 11.67 -9.32 11.34 -10 11 C-7.724 5.234 -6.709 3.736 -1 1 C-0.67 0.67 -0.34 0.34 0 0 Z " fill="#B09496" transform="translate(777,788)"/>
<path d="M0 0 C-1.204 2.494 -2.454 4.681 -4 7 C-4.99 7 -5.98 7 -7 7 C-7.33 7.99 -7.66 8.98 -8 10 C-11.803 11.69 -14.053 12.199 -18 11 C-15.38 9.159 -12.753 7.329 -10.125 5.5 C-9.379 4.975 -8.632 4.451 -7.863 3.91 C-7.148 3.414 -6.432 2.918 -5.695 2.406 C-5.035 1.945 -4.376 1.485 -3.696 1.01 C-2 0 -2 0 0 0 Z " fill="#8C7A83" transform="translate(737,819)"/>
<path d="M0 0 C0.66 0.33 1.32 0.66 2 1 C0.255 2.631 -1.496 4.255 -3.25 5.875 C-3.741 6.335 -4.232 6.795 -4.738 7.27 C-7.339 9.662 -9.721 11.641 -13 13 C-13 9 -13 9 -12 6 C-9.348 4.359 -9.348 4.359 -6.062 2.75 C-4.981 2.209 -3.899 1.667 -2.785 1.109 C-1.407 0.56 -1.407 0.56 0 0 Z " fill="#AF9497" transform="translate(766,800)"/>
<path d="M0 0 C4.204 4.204 4.805 12.09 5.191 17.859 C5.188 19.907 5.104 21.955 5 24 C2.903 20.854 2.48 18.985 1.875 15.312 C1.707 14.319 1.54 13.325 1.367 12.301 C1.246 11.542 1.125 10.782 1 10 C0.01 10.495 0.01 10.495 -1 11 C-1.027 9.542 -1.046 8.083 -1.062 6.625 C-1.074 5.813 -1.086 5.001 -1.098 4.164 C-1 2 -1 2 0 0 Z " fill="#E7C5AC" transform="translate(888,419)"/>
<path d="M0 0 C-7.763 4.712 -15.201 4.417 -24 4 C-24 3.34 -24 2.68 -24 2 C-19.878 0.626 -15.754 0.616 -11.449 0.395 C-0.667 -0.222 -0.667 -0.222 0 0 Z " fill="#73738A" transform="translate(575,888)"/>
<path d="M0 0 C-1.003 2.712 -1.546 3.785 -4.207 5.047 C-5.067 5.279 -5.927 5.511 -6.812 5.75 C-8.091 6.114 -8.091 6.114 -9.395 6.484 C-12.002 7 -14.35 7.095 -17 7 C-16.67 6.01 -16.34 5.02 -16 4 C-10.571 1.286 -6.031 0 0 0 Z " fill="#918190" transform="translate(646,870)"/>
<path d="M0 0 C1.65 0.33 3.3 0.66 5 1 C4.01 1.33 3.02 1.66 2 2 C3.656 3.904 4.551 4.905 7.062 5.438 C9 6 9 6 10.121 8.035 C10.411 8.684 10.701 9.332 11 10 C-5.361 5.759 -5.361 5.759 -11 2 C-9.541 2.141 -8.083 2.288 -6.625 2.438 C-5.407 2.559 -5.407 2.559 -4.164 2.684 C-2 3 -2 3 0 4 C0 2.68 0 1.36 0 0 Z " fill="#4A5872" transform="translate(641,151)"/>
<path d="M0 0 C0.33 0 0.66 0 1 0 C0.886 2.584 0.759 5.167 0.625 7.75 C0.579 8.844 0.579 8.844 0.531 9.961 C0.139 17.158 0.139 17.158 -2 20 C-4.125 21.25 -4.125 21.25 -6 22 C-4.206 14.597 -2.269 7.272 0 0 Z " fill="#9E8278" transform="translate(876,616)"/>
<path d="M0 0 C5.967 1.57 10.829 4.75 16 8 C13.695 9.433 12.48 10.061 9.746 9.715 C3.489 7.608 3.489 7.608 0.938 4.438 C0 2 0 2 0 0 Z " fill="#8D8396" transform="translate(703,180)"/>
<path d="M0 0 C1.32 0.66 2.64 1.32 4 2 C1.922 3.177 -0.162 4.342 -2.25 5.5 C-3.13 6.001 -3.13 6.001 -4.027 6.512 C-7.386 8.361 -9.066 9 -13 9 C-13 8.34 -13 7.68 -13 7 C-12.01 7 -11.02 7 -10 7 C-10 5.68 -10 4.36 -10 3 C-7.03 3 -4.06 3 -1 3 C-0.67 2.01 -0.34 1.02 0 0 Z " fill="#A08992" transform="translate(693,848)"/>
<path d="M0 0 C0.66 0.33 1.32 0.66 2 1 C0.494 4.752 -1.665 6.643 -4.812 9.125 C-5.665 9.808 -6.517 10.491 -7.395 11.195 C-9.882 12.919 -12.153 14.008 -15 15 C-11.001 8.601 -6.015 4.497 0 0 Z " fill="#0F0F1F" transform="translate(277,210)"/>
<path d="M0 0 C0.99 0.33 1.98 0.66 3 1 C2.34 1 1.68 1 1 1 C1.33 1.99 1.66 2.98 2 4 C4.291 4.927 4.291 4.927 7.062 5.5 C11.887 6.69 16.383 8.171 21 10 C18.471 11.265 17.719 10.843 15.035 10.109 C14.24 9.896 13.444 9.682 12.624 9.462 C11.779 9.227 10.934 8.992 10.062 8.75 C9.207 8.518 8.352 8.287 7.471 8.048 C4.979 7.372 2.49 6.686 0 6 C-2.229 5.396 -4.458 4.791 -6.688 4.188 C-8.125 3.793 -9.563 3.397 -11 3 C-7.584 2.057 -4.549 1.919 -1 2 C-0.67 1.34 -0.34 0.68 0 0 Z " fill="#3F516C" transform="translate(609,142)"/>
<path d="M0 0 C0 0.66 0 1.32 0 2 C-1.764 3.033 -3.536 4.051 -5.312 5.062 C-6.792 5.915 -6.792 5.915 -8.301 6.785 C-11 8 -11 8 -14 7 C-13.805 5.145 -13.805 5.145 -13 3 C-10.82 1.699 -10.82 1.699 -8.125 0.688 C-7.241 0.341 -6.356 -0.006 -5.445 -0.363 C-3 -1 -3 -1 0 0 Z " fill="#A68D95" transform="translate(712,840)"/>
<path d="M0 0 C0.99 0 1.98 0 3 0 C6.444 9.41 6.444 9.41 6 14 C5.01 14 4.02 14 3 14 C0.566 9.03 -0.346 5.654 0 0 Z " fill="#E0BCA6" transform="translate(878,390)"/>
<path d="M0 0 C0.33 0 0.66 0 1 0 C1.286 8.571 1.286 8.571 -1 12 C-1.66 12 -2.32 12 -3 12 C-3.33 14.64 -3.66 17.28 -4 20 C-4.66 20 -5.32 20 -6 20 C-5.754 19.172 -5.754 19.172 -5.504 18.328 C-4.942 15.734 -4.903 13.402 -4.938 10.75 C-4.947 9.858 -4.956 8.966 -4.965 8.047 C-4.976 7.371 -4.988 6.696 -5 6 C-3.68 5.67 -2.36 5.34 -1 5 C-0.67 3.35 -0.34 1.7 0 0 Z " fill="#C4A393" transform="translate(872,642)"/>
<path d="M0 0 C21.234 -0.383 21.234 -0.383 28 3 C23.71 2.67 19.42 2.34 15 2 C15.66 2.33 16.32 2.66 17 3 C17 3.66 17 4.32 17 5 C10.375 4.25 10.375 4.25 7 2 C4.676 1.606 2.342 1.265 0 1 C0 0.67 0 0.34 0 0 Z " fill="#475C7E" transform="translate(543,131)"/>
<path d="M0 0 C0.66 0.33 1.32 0.66 2 1 C1.67 1.99 1.34 2.98 1 4 C0.01 4 -0.98 4 -2 4 C-2 4.66 -2 5.32 -2 6 C-7.195 11.773 -7.195 11.773 -11 13 C-12.343 12.708 -13.679 12.379 -15 12 C-14.001 11.218 -13.002 10.435 -11.973 9.629 C-10.669 8.607 -9.366 7.585 -8.062 6.562 C-7.403 6.046 -6.744 5.53 -6.064 4.998 C-5.436 4.505 -4.808 4.012 -4.16 3.504 C-3.579 3.048 -2.998 2.593 -2.399 2.123 C-1.028 1.064 -1.028 1.064 0 0 Z " fill="#87767F" transform="translate(752,806)"/>
<path d="M0 0 C1.32 0 2.64 0 4 0 C4 0.66 4 1.32 4 2 C4.562 2.112 5.124 2.224 5.703 2.34 C8.315 3.091 10.395 4.212 12.75 5.562 C13.949 6.245 13.949 6.245 15.172 6.941 C16.077 7.465 16.077 7.465 17 8 C17 9.65 17 11.3 17 13 C12.961 10.38 9.034 7.622 5.125 4.812 C4.158 4.118 3.191 3.423 2.195 2.707 C1.471 2.144 0.746 1.58 0 1 C0 0.67 0 0.34 0 0 Z " fill="#827B88" transform="translate(736,207)"/>
<path d="M0 0 C4.065 0.52 7.563 1.956 11.312 3.562 C12.381 4.018 13.45 4.473 14.551 4.941 C15.763 5.465 15.763 5.465 17 6 C16.67 6.99 16.34 7.98 16 9 C14.969 8.546 13.938 8.093 12.875 7.625 C10.523 6.608 8.267 5.77 5.812 5 C3.049 4.017 1.225 2.883 -1 1 C-0.67 0.67 -0.34 0.34 0 0 Z " fill="#797893" transform="translate(664,161)"/>
<path d="M0 0 C-6.192 4.128 -11.61 5.396 -19 5 C-19 4.34 -19 3.68 -19 3 C-16.775 2.299 -14.545 1.614 -12.312 0.938 C-11.071 0.555 -9.83 0.172 -8.551 -0.223 C-5.147 -0.968 -3.284 -0.999 0 0 Z " fill="#2B5481" transform="translate(418,144)"/>
<path d="M0 0 C0 1.32 0 2.64 0 4 C-0.99 4 -1.98 4 -3 4 C-3 4.66 -3 5.32 -3 6 C-2.34 6.33 -1.68 6.66 -1 7 C-2.32 7.33 -3.64 7.66 -5 8 C-5 7.34 -5 6.68 -5 6 C-8.3 6.33 -11.6 6.66 -15 7 C-12.663 4.663 -10.509 3.729 -7.5 2.375 C-6.03 1.706 -6.03 1.706 -4.531 1.023 C-2 0 -2 0 0 0 Z " fill="#7F7380" transform="translate(683,851)"/>
<path d="M0 0 C3.785 1.262 5.283 3.089 8 6 C8.727 6.754 8.727 6.754 9.469 7.523 C10.875 9.062 10.875 9.062 13 12 C12.812 14.375 12.812 14.375 12 16 C11.278 15.113 10.556 14.226 9.812 13.312 C8.058 11.189 6.319 9.351 4.312 7.438 C1.999 4.999 0.998 3.175 0 0 Z " fill="#91818A" transform="translate(777,239)"/>
<path d="M0 0 C4.972 1.492 9.418 3.605 14 6 C14 6.66 14 7.32 14 8 C12.35 8 10.7 8 9 8 C9 7.34 9 6.68 9 6 C7.35 6 5.7 6 4 6 C4 5.34 4 4.68 4 4 C2.68 4 1.36 4 0 4 C0 2.68 0 1.36 0 0 Z " fill="#3383B6" transform="translate(350,853)"/>
<path d="M0 0 C3 1 3 1 4.641 3.871 C5.172 5.048 5.703 6.225 6.25 7.438 C6.791 8.612 7.333 9.786 7.891 10.996 C8.257 11.987 8.623 12.979 9 14 C8.67 14.66 8.34 15.32 8 16 C7.34 16 6.68 16 6 16 C2.712 10.65 0.403 6.316 0 0 Z " fill="#21416C" transform="translate(158,654)"/>
<path d="M0 0 C0.99 0 1.98 0 3 0 C3 0.66 3 1.32 3 2 C3.99 2 4.98 2 6 2 C6.062 2.619 6.124 3.238 6.188 3.875 C6.456 4.576 6.724 5.277 7 6 C8.176 6.464 8.176 6.464 9.375 6.938 C12.735 8.298 13.563 9.727 15 13 C14.67 13.99 14.34 14.98 14 16 C11.663 13.525 9.331 11.044 7 8.562 C6.332 7.855 5.665 7.148 4.977 6.42 C4.345 5.746 3.713 5.073 3.062 4.379 C2.476 3.756 1.889 3.133 1.285 2.49 C0 1 0 1 0 0 Z " fill="#948389" transform="translate(790,255)"/>
<path d="M0 0 C1.461 0.451 2.918 0.911 4.375 1.375 C5.187 1.63 5.999 1.885 6.836 2.148 C9 3 9 3 11 5 C8.69 5 6.38 5 4 5 C4 4.34 4 3.68 4 3 C2.68 3 1.36 3 0 3 C0 3.66 0 4.32 0 5 C1.32 5.33 2.64 5.66 4 6 C2 7 2 7 -0.383 6.223 C-1.288 5.84 -2.193 5.457 -3.125 5.062 C-4.035 4.682 -4.945 4.302 -5.883 3.91 C-6.581 3.61 -7.28 3.309 -8 3 C-5.333 2.333 -2.667 1.667 0 1 C0 0.67 0 0.34 0 0 Z " fill="#2F658F" transform="translate(377,864)"/>
<path d="M0 0 C2.64 1.32 5.28 2.64 8 4 C7.01 4.66 6.02 5.32 5 6 C5.99 6.33 6.98 6.66 8 7 C8 7.99 8 8.98 8 10 C4.406 8.665 1.245 7.04 -2 5 C-1.34 4.67 -0.68 4.34 0 4 C0 2.68 0 1.36 0 0 Z " fill="#3179A7" transform="translate(323,838)"/>
<path d="M0 0 C0.33 0 0.66 0 1 0 C1.264 7.595 0.609 14.574 -1 22 C-1.66 21.67 -2.32 21.34 -3 21 C-3.235 15.231 -2.814 10.549 -1 5 C-0.646 3.338 -0.304 1.672 0 0 Z " fill="#EFCDB3" transform="translate(896,544)"/>
<path d="M0 0 C6.158 -0.195 12.135 -0.121 18 2 C18.33 2.66 18.66 3.32 19 4 C4.622 4.252 4.622 4.252 0 0 Z " fill="#47678E" transform="translate(534,131)"/>
<path d="M0 0 C0.33 0 0.66 0 1 0 C1.33 1.98 1.66 3.96 2 6 C-1 7 -1 7 -4 6 C-3.67 5.34 -3.34 4.68 -3 4 C-2.34 4 -1.68 4 -1 4 C-0.67 2.68 -0.34 1.36 0 0 Z M-7 7 C-6.01 7.33 -5.02 7.66 -4 8 C-5.312 11.937 -6.919 14.227 -10 17 C-10.33 16.01 -10.66 15.02 -11 14 C-10.34 14 -9.68 14 -9 14 C-8.34 11.69 -7.68 9.38 -7 7 Z " fill="#B79995" transform="translate(816,743)"/>
<path d="M0 0 C3.377 0.537 6.697 1.111 10 2 C10 1.34 10 0.68 10 0 C10.66 0.33 11.32 0.66 12 1 C12.731 3.314 13.401 5.648 14 8 C9.028 6.236 4.566 3.606 0 1 C0 0.67 0 0.34 0 0 Z " fill="#6A6E83" transform="translate(692,179)"/>
<path d="M0 0 C-1.019 2.72 -1.691 3.821 -4.242 5.301 C-5.545 5.802 -5.545 5.802 -6.875 6.312 C-7.739 6.659 -8.602 7.006 -9.492 7.363 C-12.142 8.036 -13.462 7.915 -16 7 C-14.68 6.67 -13.36 6.34 -12 6 C-12 5.34 -12 4.68 -12 4 C-10.377 3.329 -8.751 2.663 -7.125 2 C-6.22 1.629 -5.315 1.257 -4.383 0.875 C-2 0 -2 0 0 0 Z " fill="#23416C" transform="translate(364,161)"/>
<path d="M0 0 C0.33 0.66 0.66 1.32 1 2 C3.385 2.395 3.385 2.395 6.188 2.5 C10.427 2.804 14.027 3.389 18 5 C11.14 7.287 5.481 5.469 -1 3 C-0.67 2.01 -0.34 1.02 0 0 Z " fill="#3877A3" transform="translate(412,877)"/>
<path d="M0 0 C0.66 0.33 1.32 0.66 2 1 C0.102 3.846 -0.606 4.578 -3.438 6.125 C-4.034 6.458 -4.631 6.79 -5.246 7.133 C-7 8 -7 8 -10 9 C-10.268 9.639 -10.536 10.279 -10.812 10.938 C-12 13 -12 13 -15.125 14.25 C-16.074 14.497 -17.023 14.745 -18 15 C-16.873 11.619 -16.289 11.235 -13.438 9.336 C-12.723 8.854 -12.009 8.372 -11.273 7.875 C-10.523 7.38 -9.773 6.885 -9 6.375 C-7.52 5.383 -6.041 4.391 -4.562 3.398 C-3.574 2.744 -3.574 2.744 -2.566 2.076 C-1.03 1.091 -1.03 1.091 0 0 Z " fill="#120E0F" transform="translate(746,818)"/>
<path d="M0 0 C0.33 0 0.66 0 1 0 C1.24 5.633 0.385 10.545 -1 16 C-1.99 16 -2.98 16 -4 16 C-3.608 10.045 -2.629 5.372 0 0 Z " fill="#E2C1A7" transform="translate(889,590)"/>
<path d="M0 0 C0.66 0 1.32 0 2 0 C1.959 1.217 1.918 2.434 1.875 3.688 C1.861 6.441 1.969 7.927 3.062 10.5 C4.459 14.224 3.66 17.107 3 21 C2.67 21 2.34 21 2 21 C1.467 18.439 0.949 15.877 0.438 13.312 C0.286 12.591 0.135 11.87 -0.021 11.127 C-0.81 7.111 -1.196 4.017 0 0 Z " fill="#A78A7D" transform="translate(884,427)"/>
<path d="M0 0 C4.75 1.875 4.75 1.875 7 3 C7.681 4.661 8.347 6.328 9 8 C9.66 8.66 10.32 9.32 11 10 C11 11.32 11 12.64 11 14 C10.34 14 9.68 14 9 14 C7.974 12.349 6.977 10.68 6 9 C5.443 8.443 4.886 7.886 4.312 7.312 C3.879 6.879 3.446 6.446 3 6 C3 5.34 3 4.68 3 4 C2.34 4 1.68 4 1 4 C0.67 2.68 0.34 1.36 0 0 Z " fill="#B89D9D" transform="translate(809,272)"/>
<path d="M0 0 C2.188 -0.312 2.188 -0.312 5 0 C7.812 2.5 7.812 2.5 10 5 C9.01 5 8.02 5 7 5 C7.33 5.99 7.66 6.98 8 8 C5.05 6.63 2.435 5.174 0 3 C0 2.01 0 1.02 0 0 Z " fill="#2F73A2" transform="translate(277,810)"/>
<path d="M0 0 C0.33 0 0.66 0 1 0 C1.054 2.584 1.094 5.166 1.125 7.75 C1.142 8.48 1.159 9.209 1.176 9.961 C1.211 13.804 1.175 16.746 -1 20 C-1.66 20 -2.32 20 -3 20 C-2.867 19.143 -2.734 18.286 -2.598 17.402 C-1.702 11.605 -0.811 5.809 0 0 Z " fill="#A18579" transform="translate(884,580)"/>
<path d="M0 0 C4.017 2.94 6.928 6.238 9.812 10.25 C10.219 10.804 10.626 11.359 11.045 11.93 C12.036 13.282 13.019 14.64 14 16 C13.34 16.66 12.68 17.32 12 18 C11.662 17.495 11.325 16.989 10.977 16.469 C10.531 15.819 10.085 15.169 9.625 14.5 C9.184 13.85 8.743 13.201 8.289 12.531 C7.864 12.026 7.438 11.521 7 11 C6.34 11 5.68 11 5 11 C4.732 10.257 4.464 9.515 4.188 8.75 C3.056 6.13 1.712 4.257 0 2 C0 1.34 0 0.68 0 0 Z " fill="#CFAEAC" transform="translate(815,275)"/>
<path d="M0 0 C0.66 0.33 1.32 0.66 2 1 C0.68 1.99 -0.64 2.98 -2 4 C-1.34 4.66 -0.68 5.32 0 6 C-1.65 6.33 -3.3 6.66 -5 7 C-4.67 6.01 -4.34 5.02 -4 4 C-4.531 4.3 -5.062 4.601 -5.609 4.91 C-6.316 5.29 -7.022 5.671 -7.75 6.062 C-8.794 6.637 -8.794 6.637 -9.859 7.223 C-12.394 8.143 -13.472 7.743 -16 7 C-13.379 5.803 -10.754 4.617 -8.125 3.438 C-7.005 2.924 -7.005 2.924 -5.863 2.4 C-3.935 1.54 -1.969 0.764 0 0 Z " fill="#1C2E4F" transform="translate(368,157)"/>
<path d="M0 0 C5.673 -0.293 8.991 -0.006 14 3 C14 3.33 14 3.66 14 4 C4.59 4.369 4.59 4.369 0 2 C0 1.34 0 0.68 0 0 Z " fill="#506B91" transform="translate(558,133)"/>
<path d="M0 0 C1 3 1 3 -0.215 5.918 C-0.783 6.997 -1.352 8.076 -1.938 9.188 C-2.503 10.274 -3.069 11.361 -3.652 12.48 C-4.097 13.312 -4.542 14.143 -5 15 C-5.66 15 -6.32 15 -7 15 C-6.744 12.657 -6.407 10.322 -6 8 C-5.34 7.67 -4.68 7.34 -4 7 C-3.856 6.196 -3.711 5.391 -3.562 4.562 C-3 2 -3 2 0 0 Z " fill="#D8B5A4" transform="translate(863,672)"/>
<path d="M0 0 C5.915 0.452 11.352 1.158 17 3 C17 3.66 17 4.32 17 5 C17.66 5.33 18.32 5.66 19 6 C14.549 5.357 10.411 4.293 6.125 2.938 C4.973 2.575 3.82 2.213 2.633 1.84 C1.764 1.563 0.895 1.286 0 1 C0 0.67 0 0.34 0 0 Z " fill="#091124" transform="translate(395,870)"/>
<path d="M0 0 C0.99 0.495 0.99 0.495 2 1 C2 1.66 2 2.32 2 3 C2.598 3.062 3.196 3.124 3.812 3.188 C6 4 6 4 7.812 6.375 C9 9 9 9 8 12 C1.295 5.926 1.295 5.926 0.062 2.062 C0.042 1.382 0.021 0.701 0 0 Z " fill="#3073A5" transform="translate(224,759)"/>
<path d="M0 0 C0.928 0.278 0.928 0.278 1.875 0.562 C4.042 1.237 4.042 1.237 6 0 C6.961 2.882 7.106 4.699 7.062 7.688 C7.053 8.496 7.044 9.304 7.035 10.137 C7.024 10.752 7.012 11.366 7 12 C6.01 11.67 5.02 11.34 4 11 C3.897 10.257 3.794 9.515 3.688 8.75 C2.953 5.814 1.855 4.339 0 2 C0 1.34 0 0.68 0 0 Z " fill="#C0A29A" transform="translate(839,314)"/>
<path d="M0 0 C0 0.66 0 1.32 0 2 C-2.051 2.228 -4.102 2.456 -6.152 2.684 C-8.011 2.819 -8.011 2.819 -9 4 C-11.671 4.141 -14.324 4.042 -17 4 C-12.141 -0.859 -6.439 -0.225 0 0 Z " fill="#2E5A87" transform="translate(437,139)"/>
<path d="M0 0 C-0.66 0 -1.32 0 -2 0 C-2 0.66 -2 1.32 -2 2 C0.64 2.99 3.28 3.98 6 5 C1.401 6.15 -0.326 5.522 -4.75 4.062 C-5.92 3.682 -7.091 3.302 -8.297 2.91 C-9.189 2.61 -10.081 2.309 -11 2 C-11 1.67 -11 1.34 -11 1 C-3.571 -1.429 -3.571 -1.429 0 0 Z " fill="#316286" transform="translate(414,877)"/>
<path d="M0 0 C0.66 0 1.32 0 2 0 C2.66 1.98 3.32 3.96 4 6 C4.66 6 5.32 6 6 6 C6.33 8.31 6.66 10.62 7 13 C6.01 13.495 6.01 13.495 5 14 C4.16 12.232 3.328 10.461 2.5 8.688 C2.036 7.701 1.572 6.715 1.094 5.699 C0 3 0 3 0 0 Z " fill="#AB9087" transform="translate(854,344)"/>
<path d="M0 0 C1.32 0 2.64 0 4 0 C4 0.66 4 1.32 4 2 C6.64 1.34 9.28 0.68 12 0 C11.67 0.99 11.34 1.98 11 3 C11.875 5.167 11.875 5.167 13 7 C8.173 5.587 4.284 3.57 0 1 C0 0.67 0 0.34 0 0 Z " fill="#656D85" transform="translate(679,172)"/>
<path d="M0 0 C3.12 1.56 3.451 4.128 4.688 7.312 C5.145 8.464 5.603 9.615 6.074 10.801 C6.96 13.863 7.177 15.112 6 18 C5.662 17.18 5.325 16.36 4.977 15.516 C4.531 14.438 4.085 13.36 3.625 12.25 C3.184 11.183 2.743 10.115 2.289 9.016 C1.091 6.086 1.091 6.086 -0.227 3.734 C-0.482 3.162 -0.737 2.59 -1 2 C-0.67 1.34 -0.34 0.68 0 0 Z " fill="#CFB09F" transform="translate(863,354)"/>
<path d="M0 0 C0.66 0 1.32 0 2 0 C2.33 1.32 2.66 2.64 3 4 C1 5 1 5 -1.438 5.438 C-4.223 5.886 -4.223 5.886 -7 8 C-7.99 7.67 -8.98 7.34 -10 7 C-6.677 3.062 -6.677 3.062 -3.25 2.75 C-2.508 2.832 -1.765 2.915 -1 3 C-0.67 2.01 -0.34 1.02 0 0 Z " fill="#A1898C" transform="translate(780,784)"/>
<path d="M0 0 C0.33 1.32 0.66 2.64 1 4 C0.01 5.485 0.01 5.485 -1 7 C-1.66 7 -2.32 7 -3 7 C-3 7.66 -3 8.32 -3 9 C-4.32 9.33 -5.64 9.66 -7 10 C-7 10.66 -7 11.32 -7 12 C-7.66 11.67 -8.32 11.34 -9 11 C-6.03 7.37 -3.06 3.74 0 0 Z " fill="#887477" transform="translate(808,750)"/>
<path d="M0 0 C3.008 1.504 3.307 3.86 4.402 6.922 C5.101 9.351 5.236 11.486 5 14 C4.01 13.67 3.02 13.34 2 13 C0.595 8.562 -0.292 4.679 0 0 Z " fill="#E2C0AA" transform="translate(874,375)"/>
<path d="M0 0 C0.33 0.66 0.66 1.32 1 2 C-0.142 3.503 -1.289 5.002 -2.438 6.5 C-3.395 7.753 -3.395 7.753 -4.371 9.031 C-4.909 9.681 -5.446 10.331 -6 11 C-6.33 11 -6.66 11 -7 11 C-7.366 6.483 -7.366 6.483 -5.625 4.188 C-4 3 -4 3 -2 3 C-2 2.34 -2 1.68 -2 1 C-1.34 0.67 -0.68 0.34 0 0 Z " fill="#CBA9A2" transform="translate(824,737)"/>
<path d="M0 0 C0.625 1.875 0.625 1.875 1 4 C0.34 4.66 -0.32 5.32 -1 6 C-1.309 7.176 -1.619 8.351 -1.938 9.562 C-2.288 10.697 -2.639 11.831 -3 13 C-3.99 13.33 -4.98 13.66 -6 14 C-5.059 8.32 -4.138 4.276 0 0 Z " fill="#9F8785" transform="translate(825,727)"/>
<path d="M0 0 C0.66 0 1.32 0 2 0 C2 0.66 2 1.32 2 2 C8.27 2 14.54 2 21 2 C21 2.33 21 2.66 21 3 C12.42 3 3.84 3 -5 3 C-3.68 2.34 -2.36 1.68 -1 1 C-0.67 0.67 -0.34 0.34 0 0 Z " fill="#565F76" transform="translate(529,891)"/>
<path d="M0 0 C1.606 3.212 0.058 5.709 -1 9 C-1.33 9.66 -1.66 10.32 -2 11 C-3.32 11 -4.64 11 -6 11 C-4.55 6.89 -2.489 3.567 0 0 Z " fill="#97807E" transform="translate(832,716)"/>
<path d="M0 0 C0.33 0 0.66 0 1 0 C1.499 6.118 0.249 9.025 -3 14 C-3.66 14 -4.32 14 -5 14 C-3.457 9.279 -1.922 4.583 0 0 Z " fill="#967D76" transform="translate(862,658)"/>
<path d="M0 0 C3.558 0.962 4.78 1.659 6.812 4.812 C7.942 7.845 8.281 9.811 8 13 C6 10 6 10 5.062 7.875 C4.081 5.655 4.081 5.655 1 5 C0.505 2.525 0.505 2.525 0 0 Z " fill="#B79A8D" transform="translate(860,358)"/>
<path d="M0 0 C4.139 3.3 7.587 6.173 10 11 C8.68 11 7.36 11 6 11 C3.743 8.743 3.127 6.959 2 4 C1.343 2.662 0.678 1.328 0 0 Z " fill="#C9AAAB" transform="translate(805,263)"/>
<path d="M0 0 C-4.613 4.931 -9.634 4.777 -16 5 C-13.139 3.093 -10.647 1.996 -7.438 0.812 C-6.467 0.448 -5.496 0.083 -4.496 -0.293 C-2 -1 -2 -1 0 0 Z " fill="#696475" transform="translate(656,864)"/>
<path d="M0 0 C4.389 0.665 7.981 2.188 12 4 C12 4.99 12 5.98 12 7 C7.766 5.689 3.926 4.056 0 2 C0 1.34 0 0.68 0 0 Z " fill="#081326" transform="translate(346,849)"/>
<path d="M0 0 C3.737 0.415 6.737 1.118 10 3 C10 3.66 10 4.32 10 5 C6.99 5.934 6.133 6.044 3 5 C3 4.01 3 3.02 3 2 C1.68 1.67 0.36 1.34 -1 1 C-0.67 0.67 -0.34 0.34 0 0 Z " fill="#3287BD" transform="translate(328,843)"/>
<path d="M0 0 C0.33 0 0.66 0 1 0 C1.383 9.764 1.383 9.764 -1 14 C-1.99 14.495 -1.99 14.495 -3 15 C-2.449 9.761 -1.571 5.026 0 0 Z " fill="#977D74" transform="translate(880,601)"/>
<path d="M0 0 C1.296 0.931 2.587 1.87 3.875 2.812 C4.594 3.335 5.314 3.857 6.055 4.395 C8 6 8 6 10 9 C6.331 8.294 3.295 6.723 0 5 C0 3.35 0 1.7 0 0 Z " fill="#9D8C98" transform="translate(753,215)"/>
<path d="M0 0 C0.33 1.98 0.66 3.96 1 6 C-2 7 -2 7 -4.188 6.062 C-4.786 5.712 -5.384 5.361 -6 5 C-6 4.01 -6 3.02 -6 2 C-2.25 0 -2.25 0 0 0 Z " fill="#8E7C87" transform="translate(699,843)"/>
<path d="M0 0 C0.99 0.33 1.98 0.66 3 1 C1.478 3.629 0.156 5.844 -2 8 C-4.625 8.125 -4.625 8.125 -7 8 C-6.67 7.34 -6.34 6.68 -6 6 C-5.34 6 -4.68 6 -4 6 C-4 5.34 -4 4.68 -4 4 C-2.708 2.627 -1.376 1.29 0 0 Z " fill="#A68D93" transform="translate(719,831)"/>
<path d="M0 0 C5.875 4.625 5.875 4.625 7 8 C6.34 8 5.68 8 5 8 C4.67 7.67 4.34 7.34 4 7 C3.67 7.66 3.34 8.32 3 9 C1.35 6.69 -0.3 4.38 -2 2 C-1.34 2 -0.68 2 0 2 C0 1.34 0 0.68 0 0 Z " fill="#2A6292" transform="translate(221,754)"/>
<path d="M0 0 C1.65 0 3.3 0 5 0 C5.33 0.99 5.66 1.98 6 3 C6.99 3.33 7.98 3.66 9 4 C6.188 4.625 6.188 4.625 3 5 C2.01 4.34 1.02 3.68 0 3 C0 2.01 0 1.02 0 0 Z " fill="#5C6E8F" transform="translate(610,143)"/>
<path d="M0 0 C0.901 0.009 1.802 0.018 2.73 0.027 C3.418 0.039 4.105 0.051 4.812 0.062 C4.482 0.722 4.153 1.383 3.812 2.062 C1.598 2.547 1.598 2.547 -1.125 2.812 C-2.021 2.91 -2.917 3.008 -3.84 3.109 C-6.188 3.062 -6.188 3.062 -8.188 1.062 C-5.173 0.058 -3.146 -0.041 0 0 Z " fill="#8B7F8F" transform="translate(616.1875,878.9375)"/>
<path d="M0 0 C0.33 0.66 0.66 1.32 1 2 C-1.853 4.932 -4.651 7.643 -8 10 C-8.66 9.67 -9.32 9.34 -10 9 C-8.711 7.684 -7.419 6.373 -6.125 5.062 C-5.406 4.332 -4.686 3.601 -3.945 2.848 C-2 1 -2 1 0 0 Z " fill="#86757E" transform="translate(769,792)"/>
<path d="M0 0 C1.32 0 2.64 0 4 0 C2.509 3.795 0.243 5.61 -3 8 C-3.66 7.67 -4.32 7.34 -5 7 C-1.125 1.125 -1.125 1.125 0 0 Z " fill="#BA9B9C" transform="translate(777,788)"/>
<path d="M0 0 C2.969 3.273 3.344 5.381 3.188 9.75 C3.147 11.227 3.147 11.227 3.105 12.734 C3.053 13.856 3.053 13.856 3 15 C2.67 15 2.34 15 2 15 C2 12.36 2 9.72 2 7 C1.34 7 0.68 7 0 7 C-0.381 5.009 -0.713 3.007 -1 1 C-0.67 0.67 -0.34 0.34 0 0 Z " fill="#E7C4A9" transform="translate(884,405)"/>
<path d="M0 0 C3.375 0.547 5.082 1.055 8 3 C8 3.99 8 4.98 8 6 C2.25 4.125 2.25 4.125 0 3 C0 2.01 0 1.02 0 0 Z " fill="#5A647E" transform="translate(669,166)"/>
<path d="M0 0 C0.66 0 1.32 0 2 0 C2.838 1.622 3.67 3.248 4.5 4.875 C4.964 5.78 5.428 6.685 5.906 7.617 C7 10 7 10 7 12 C4 11 4 11 2.812 9.188 C2 7 2 7 2 3 C1.34 3 0.68 3 0 3 C0 2.01 0 1.02 0 0 Z " fill="#08101C" transform="translate(167,678)"/>
<path d="M0 0 C2.952 2.952 3.087 5.955 4 10 C2.68 9.67 1.36 9.34 0 9 C-0.66 6.69 -1.32 4.38 -2 2 C-1.34 1.34 -0.68 0.68 0 0 Z " fill="#1A3760" transform="translate(156,645)"/>
<path d="M0 0 C0.66 0.33 1.32 0.66 2 1 C1.521 5.714 1.032 9.666 -1 14 C-2.137 10.596 -1.84 8.225 -1.062 4.75 C-0.868 3.858 -0.673 2.966 -0.473 2.047 C-0.317 1.371 -0.161 0.696 0 0 Z " fill="#EBC9AE" transform="translate(882,615)"/>
<path d="M0 0 C1.32 0.66 2.64 1.32 4 2 C0.433 4.489 -2.89 6.55 -7 8 C-5.509 4.205 -3.243 2.39 0 0 Z " fill="#12152D" transform="translate(284,205)"/>
<path d="M0 0 C0 0.66 0 1.32 0 2 C-0.99 2.33 -1.98 2.66 -3 3 C-2.01 3.66 -1.02 4.32 0 5 C-1.98 5.66 -3.96 6.32 -6 7 C-6.99 6.01 -7.98 5.02 -9 4 C-2.25 0 -2.25 0 0 0 Z " fill="#1A2849" transform="translate(336,173)"/>
<path d="M0 0 C1 3 1 3 -0.215 5.48 C-0.783 6.374 -1.352 7.267 -1.938 8.188 C-2.503 9.089 -3.069 9.99 -3.652 10.918 C-4.097 11.605 -4.542 12.292 -5 13 C-6 11 -6 11 -5.441 8.836 C-5.151 8.024 -4.861 7.212 -4.562 6.375 C-4.131 5.149 -4.131 5.149 -3.691 3.898 C-3.463 3.272 -3.235 2.645 -3 2 C-2.01 2 -1.02 2 0 2 C0 1.34 0 0.68 0 0 Z " fill="#DBB7A9" transform="translate(854,689)"/>
<path d="M0 0 C0.33 0 0.66 0 1 0 C1 4.29 1 8.58 1 13 C0.01 13.33 -0.98 13.66 -2 14 C-2.369 4.59 -2.369 4.59 0 0 Z " fill="#D5B29C" transform="translate(880,618)"/>
<path d="M0 0 C3.259 3.083 6.066 5.916 8 10 C7.67 10.99 7.34 11.98 7 13 C6.67 12.01 6.34 11.02 6 10 C5.34 10 4.68 10 4 10 C3.328 8.711 2.663 7.419 2 6.125 C1.629 5.406 1.258 4.686 0.875 3.945 C0 2 0 2 0 0 Z " fill="#D9B7AE" transform="translate(836,303)"/>
<path d="M0 0 C5.75 1.75 5.75 1.75 8 4 C7.01 4 6.02 4 5 4 C5 4.66 5 5.32 5 6 C5.66 6.33 6.32 6.66 7 7 C5.68 7 4.36 7 3 7 C0 2.929 0 2.929 0 0 Z " fill="#847D93" transform="translate(703,180)"/>
<path d="M0 0 C2.439 0.087 4.875 0.194 7.312 0.312 C8.003 0.335 8.693 0.358 9.404 0.381 C14.557 0.655 14.557 0.655 16.98 2.543 C17.317 3.024 17.653 3.505 18 4 C11.918 3.324 5.987 2.264 0 1 C0 0.67 0 0.34 0 0 Z " fill="#344B66" transform="translate(579,140)"/>
<path d="M0 0 C0 0.66 0 1.32 0 2 C-2.709 3.354 -5.009 3.065 -8 3 C-8 2.34 -8 1.68 -8 1 C-8.66 0.67 -9.32 0.34 -10 0 C-6.717 -1.642 -3.575 -0.519 0 0 Z " fill="#3577A7" transform="translate(410,875)"/>
<path d="M0 0 C5.75 0.75 5.75 0.75 8 3 C8 3.99 8 4.98 8 6 C6.02 5.34 4.04 4.68 2 4 C2 3.01 2 2.02 2 1 C1.34 0.67 0.68 0.34 0 0 Z " fill="#3281B4" transform="translate(263,799)"/>
<path d="M0 0 C0.66 0 1.32 0 2 0 C3.806 4.462 4.117 7.31 3 12 C0.609 8.175 0.44 4.403 0 0 Z " fill="#A28679" transform="translate(880,415)"/>
<path d="M0 0 C6.4 0.492 6.4 0.492 9.438 3.062 C10.211 4.022 10.211 4.022 11 5 C10.67 5.66 10.34 6.32 10 7 C8.331 6.025 6.665 5.045 5 4.062 C4.072 3.517 3.144 2.972 2.188 2.41 C1.466 1.945 0.744 1.479 0 1 C0 0.67 0 0.34 0 0 Z " fill="#63697D" transform="translate(706,187)"/>
<path d="M0 0 C1.65 0 3.3 0 5 0 C5 0.66 5 1.32 5 2 C7.31 2 9.62 2 12 2 C12 2.33 12 2.66 12 3 C7.71 3 3.42 3 -1 3 C-0.67 2.01 -0.34 1.02 0 0 Z " fill="#656980" transform="translate(546,890)"/>
<path d="M0 0 C-4.909 3.927 -7.739 4.432 -14 4 C-11.374 2.249 -9.382 1.307 -6.438 0.312 C-5.652 0.041 -4.867 -0.231 -4.059 -0.512 C-2 -1 -2 -1 0 0 Z " fill="#5A596C" transform="translate(639,870)"/>
<path d="M0 0 C0.33 0.66 0.66 1.32 1 2 C-2.695 2.95 -5.305 2.95 -9 2 C-9 1.34 -9 0.68 -9 0 C-5.882 -1.559 -3.329 -0.666 0 0 Z " fill="#3183B4" transform="translate(377,864)"/>
<path d="M0 0 C0.66 0.33 1.32 0.66 2 1 C1.67 2.98 1.34 4.96 1 7 C0.34 7 -0.32 7 -1 7 C-1 8.65 -1 10.3 -1 12 C-2.188 10.5 -2.188 10.5 -3 8 C-2.271 5.212 -1.184 2.623 0 0 Z " fill="#9A8077" transform="translate(866,648)"/>
<path d="M0 0 C1.5 1.188 1.5 1.188 3 3 C3.188 5.688 3.188 5.688 3 8 C1.68 7.34 0.36 6.68 -1 6 C-1.043 4.334 -1.041 2.666 -1 1 C-0.67 0.67 -0.34 0.34 0 0 Z " fill="#D7B7A8" transform="translate(851,327)"/>
<path d="M0 0 C0.722 0.268 1.444 0.536 2.188 0.812 C1.858 1.472 1.527 2.132 1.188 2.812 C-0.879 3.445 -0.879 3.445 -3.375 3.938 C-4.201 4.105 -5.028 4.273 -5.879 4.445 C-6.517 4.566 -7.155 4.688 -7.812 4.812 C-3.505 -0.234 -3.505 -0.234 0 0 Z " fill="#254776" transform="translate(372.8125,157.1875)"/>
<path d="M0 0 C2.31 0 4.62 0 7 0 C7.33 0.66 7.66 1.32 8 2 C7.67 2.66 7.34 3.32 7 4 C4.69 3.67 2.38 3.34 0 3 C0 2.01 0 1.02 0 0 Z " fill="#687394" transform="translate(634,151)"/>
<path d="M0 0 C0.33 0 0.66 0 1 0 C1.403 3.523 1.134 4.799 -0.875 7.812 C-1.576 8.534 -2.278 9.256 -3 10 C-3.66 10 -4.32 10 -5 10 C-3.667 6.41 -2.106 3.204 0 0 Z " fill="#907A79" transform="translate(838,706)"/>
<path d="M0 0 C0.33 0 0.66 0 1 0 C1.199 3.578 1.041 5.992 -1 9 C-1.99 9.33 -2.98 9.66 -4 10 C-4.201 6.284 -4.152 5.228 -2 2 C-1.34 2 -0.68 2 0 2 C0 1.34 0 0.68 0 0 Z " fill="#B9998B" transform="translate(867,653)"/>
<path d="M0 0 C0.33 0 0.66 0 1 0 C1 3.3 1 6.6 1 10 C0.34 10 -0.32 10 -1 10 C-2.25 3.375 -2.25 3.375 0 0 Z " fill="#B79381" transform="translate(890,554)"/>
<path d="M0 0 C-1.692 2.042 -2.637 2.918 -5.262 3.512 C-6.062 3.57 -6.863 3.628 -7.688 3.688 C-8.496 3.753 -9.304 3.819 -10.137 3.887 C-11.059 3.943 -11.059 3.943 -12 4 C-9.946 1.946 -8.67 1.319 -6 0.312 C-5.299 0.041 -4.597 -0.231 -3.875 -0.512 C-2 -1 -2 -1 0 0 Z " fill="#696272" transform="translate(668,859)"/>
<path d="M0 0 C0.33 0 0.66 0 1 0 C1.195 6.055 1.195 6.055 1 8 C0.34 8.66 -0.32 9.32 -1 10 C-1.66 10 -2.32 10 -3 10 C-2.01 6.7 -1.02 3.4 0 0 Z " fill="#CDAA97" transform="translate(872,642)"/>
<path d="M0 0 C1.875 0.125 1.875 0.125 4 1 C5.25 4.062 5.25 4.062 6 7 C5.34 7.66 4.68 8.32 4 9 C4 7.68 4 6.36 4 5 C3.01 5 2.02 5 1 5 C0.505 2.525 0.505 2.525 0 0 Z " fill="#DBB7A3" transform="translate(869,368)"/>
<path d="M0 0 C1.875 0.25 1.875 0.25 4 1 C5.25 3.062 5.25 3.062 6 5 C6.99 5 7.98 5 9 5 C8.67 5.99 8.34 6.98 8 8 C6.851 7.046 5.706 6.086 4.562 5.125 C3.924 4.591 3.286 4.058 2.629 3.508 C1 2 1 2 0 0 Z " fill="#867A85" transform="translate(763,228)"/>
<path d="M0 0 C4 0 4 0 6.75 2.375 C9 5 9 5 9 7 C8.01 7 7.02 7 6 7 C4.98 5.682 3.98 4.348 3 3 C2.01 2.67 1.02 2.34 0 2 C0 1.34 0 0.68 0 0 Z " fill="#A18E99" transform="translate(763,226)"/>
<path d="M0 0 C4.314 0.479 6.166 1.746 9 5 C6.297 5 4.495 4.966 2 4 C0.75 1.938 0.75 1.938 0 0 Z " fill="#998A9C" transform="translate(723,193)"/>
<path d="M0 0 C5.94 1.485 5.94 1.485 12 3 C12 3.33 12 3.66 12 4 C3.429 4.286 3.429 4.286 0 2 C0 1.34 0 0.68 0 0 Z " fill="#5C617D" transform="translate(628,147)"/>
<path d="M0 0 C0 0.66 0 1.32 0 2 C-1.458 2.054 -2.916 2.093 -4.375 2.125 C-5.187 2.148 -5.999 2.171 -6.836 2.195 C-9 2 -9 2 -11 0 C-6.982 -0.841 -3.982 -1.054 0 0 Z " fill="#326285" transform="translate(432,883)"/>
<path d="M0 0 C3.375 0.25 3.375 0.25 7 1 C8.438 3.062 8.438 3.062 9 5 C5.225 3.909 2.53 3.092 0 0 Z " fill="#0A162B" transform="translate(331,842)"/>
<path d="M0 0 C0.75 1.625 0.75 1.625 1 4 C-0.812 7.25 -0.812 7.25 -3 10 C-3.66 10 -4.32 10 -5 10 C-3.665 6.406 -2.04 3.245 0 0 Z " fill="#917C7A" transform="translate(844,696)"/>
<path d="M0 0 C0.33 0 0.66 0 1 0 C0.67 3.3 0.34 6.6 0 10 C-2 8 -2 8 -2.25 5 C-2 2 -2 2 0 0 Z " fill="#DBB8A0" transform="translate(885,608)"/>
<path d="M0 0 C0.33 0 0.66 0 1 0 C1.081 1.437 1.139 2.874 1.188 4.312 C1.24 5.513 1.24 5.513 1.293 6.738 C0.938 9.479 0.106 10.292 -2 12 C-1.858 10.562 -1.711 9.125 -1.562 7.688 C-1.481 6.887 -1.4 6.086 -1.316 5.262 C-1 3 -1 3 0 0 Z " fill="#C8A492" transform="translate(884,596)"/>
<path d="M0 0 C3.436 1.527 6.119 3.599 9 6 C8.67 6.66 8.34 7.32 8 8 C6.661 7.05 5.329 6.089 4 5.125 C3.258 4.591 2.515 4.058 1.75 3.508 C1.173 3.01 0.595 2.513 0 2 C0 1.34 0 0.68 0 0 Z " fill="#0F0B0D" transform="translate(749,208)"/>
<path d="M0 0 C2.938 1.25 2.938 1.25 6 3 C6.875 5.188 6.875 5.188 7 7 C5.68 6.67 4.36 6.34 3 6 C3 5.01 3 4.02 3 3 C2.01 2.67 1.02 2.34 0 2 C0 1.34 0 0.68 0 0 Z " fill="#78778A" transform="translate(714,189)"/>
<path d="M0 0 C2.64 0 5.28 0 8 0 C7.67 0.99 7.34 1.98 7 3 C4.69 2.67 2.38 2.34 0 2 C0 1.34 0 0.68 0 0 Z " fill="#347DA7" transform="translate(359,861)"/>
<path d="M0 0 C0.66 0.33 1.32 0.66 2 1 C0.714 3.572 -0.334 4.01 -3 5 C-5.25 4.625 -5.25 4.625 -7 4 C-4.614 2.108 -2.928 0.976 0 0 Z " fill="#917E86" transform="translate(744,814)"/>
<path d="M0 0 C0.66 0.33 1.32 0.66 2 1 C-1.96 4.465 -1.96 4.465 -6 8 C-6.66 7.67 -7.32 7.34 -8 7 C-6.68 6.34 -5.36 5.68 -4 5 C-4 4.01 -4 3.02 -4 2 C-2.125 0.938 -2.125 0.938 0 0 Z " fill="#BDA0A3" transform="translate(766,800)"/>
<path d="M0 0 C1.938 0.625 1.938 0.625 4 2 C4.75 5.125 4.75 5.125 5 8 C4.34 8 3.68 8 3 8 C0.958 5.095 0 3.599 0 0 Z " fill="#2D6699" transform="translate(194,720)"/>
<path d="M0 0 C4.392 1.464 4.879 3.978 7 8 C5.188 7.812 5.188 7.812 3 7 C0 2.821 0 2.821 0 0 Z " fill="#A38B87" transform="translate(843,325)"/>
<path d="M0 0 C0.99 0.33 1.98 0.66 3 1 C2.34 2.65 1.68 4.3 1 6 C0.34 6 -0.32 6 -1 6 C-1 5.34 -1 4.68 -1 4 C-1.99 4 -2.98 4 -4 4 C-3.67 3.01 -3.34 2.02 -3 1 C-1.515 1.99 -1.515 1.99 0 3 C0 2.01 0 1.02 0 0 Z " fill="#AC9397" transform="translate(794,251)"/>
<path d="M0 0 C3.465 2.97 3.465 2.97 7 6 C6.67 6.99 6.34 7.98 6 9 C4.994 7.88 3.995 6.754 3 5.625 C2.443 4.999 1.886 4.372 1.312 3.727 C0 2 0 2 0 0 Z " fill="#181113" transform="translate(796,250)"/>
<path d="M0 0 C2.64 0.33 5.28 0.66 8 1 C8.33 2.32 8.66 3.64 9 5 C5.541 3.751 2.853 2.325 0 0 Z " fill="#5E667A" transform="translate(697,182)"/>
<path d="M0 0 C-3.228 2.152 -4.284 2.201 -8 2 C-8 1.01 -8 0.02 -8 -1 C-4.597 -2.215 -3.067 -1.862 0 0 Z " fill="#71728D" transform="translate(685,170)"/>
<path d="M0 0 C0 0.66 0 1.32 0 2 C0.99 2.33 1.98 2.66 3 3 C1.742 3.041 0.484 3.083 -0.812 3.125 C-1.52 3.148 -2.228 3.171 -2.957 3.195 C-5 3 -5 3 -8 1 C-5.108 0.174 -3.113 0 0 0 Z " fill="#0F131C" transform="translate(559,129)"/>
<path d="M0 0 C2.875 -0.125 2.875 -0.125 6 0 C6.66 0.66 7.32 1.32 8 2 C3.545 2.495 3.545 2.495 -1 3 C-0.67 2.01 -0.34 1.02 0 0 Z " fill="#817B90" transform="translate(582,885)"/>
<path d="M0 0 C2 4 2 4 1.125 6.75 C0.754 7.492 0.383 8.235 0 9 C-0.66 9 -1.32 9 -2 9 C-1.34 6.03 -0.68 3.06 0 0 Z " fill="#947B74" transform="translate(869,639)"/>
<path d="M0 0 C1.129 0.933 2.253 1.871 3.375 2.812 C4.001 3.335 4.628 3.857 5.273 4.395 C7 6 7 6 9 9 C6 9 6 9 4.395 7.539 C3.611 6.592 3.611 6.592 2.812 5.625 C2.283 4.999 1.753 4.372 1.207 3.727 C0 2 0 2 0 0 Z " fill="#CCADAE" transform="translate(796,253)"/>
<path d="M0 0 C1.32 0 2.64 0 4 0 C4 0.66 4 1.32 4 2 C5.32 2.33 6.64 2.66 8 3 C8.33 4.32 8.66 5.64 9 7 C7.497 6.025 5.998 5.045 4.5 4.062 C3.665 3.517 2.829 2.972 1.969 2.41 C1.319 1.945 0.669 1.479 0 1 C0 0.67 0 0.34 0 0 Z " fill="#71707F" transform="translate(736,207)"/>
<path d="M0 0 C2.938 0.375 2.938 0.375 6 1 C6.33 1.66 6.66 2.32 7 3 C6.01 3 5.02 3 4 3 C3.67 3.66 3.34 4.32 3 5 C2.01 4.34 1.02 3.68 0 3 C0 2.01 0 1.02 0 0 Z " fill="#3073A5" transform="translate(261,797)"/>
<path d="M0 0 C1.32 0 2.64 0 4 0 C3.188 1.938 3.188 1.938 2 4 C1.01 4.33 0.02 4.66 -1 5 C-0.67 3.35 -0.34 1.7 0 0 Z " fill="#BB9B9B" transform="translate(783,782)"/>
<path d="M0 0 C1.65 1.65 3.3 3.3 5 5 C4.67 5.66 4.34 6.32 4 7 C3.34 6.34 2.68 5.68 2 5 C1.01 5 0.02 5 -1 5 C-1.33 4.01 -1.66 3.02 -2 2 C-1.34 2 -0.68 2 0 2 C0 1.34 0 0.68 0 0 Z " fill="#275C8D" transform="translate(211,741)"/>
<path d="M0 0 C0.99 0.33 1.98 0.66 3 1 C4.188 4.062 4.188 4.062 5 7 C4.01 7 3.02 7 2 7 C0.539 4.353 0 3.106 0 0 Z " fill="#234776" transform="translate(162,663)"/>
<path d="M0 0 C1.417 4.251 0.193 6.719 -1 11 C-1.826 7.893 -2.255 5.231 -2 2 C-1.34 1.34 -0.68 0.68 0 0 Z " fill="#B79588" transform="translate(872,636)"/>
<path d="M0 0 C0.33 0 0.66 0 1 0 C1.293 6.055 1.293 6.055 1 8 C0.01 8.66 -0.98 9.32 -2 10 C-1.542 6.531 -1.109 3.326 0 0 Z " fill="#88726A" transform="translate(874,623)"/>
<path d="M0 0 C1.619 2.572 2.044 3.677 1.625 6.75 C1.419 7.492 1.212 8.235 1 9 C0.34 8.34 -0.32 7.68 -1 7 C-0.625 3.375 -0.625 3.375 0 0 Z " fill="#E0BCA1" transform="translate(890,580)"/>
<path d="M0 0 C0.66 0.99 1.32 1.98 2 3 C1.125 5.688 1.125 5.688 0 8 C-1.32 6.68 -2.64 5.36 -4 4 C-3.67 3.34 -3.34 2.68 -3 2 C-2.34 2.33 -1.68 2.66 -1 3 C-0.67 2.01 -0.34 1.02 0 0 Z " fill="#C2A398" transform="translate(850,324)"/>
<path d="M0 0 C4 1 4 1 5.812 2.875 C6.204 3.576 6.596 4.277 7 5 C6.67 5.99 6.34 6.98 6 8 C4.02 5.36 2.04 2.72 0 0 Z " fill="#170E0F" transform="translate(823,284)"/>
<path d="M0 0 C3.465 1.485 3.465 1.485 7 3 C7 3.66 7 4.32 7 5 C4.03 4.01 1.06 3.02 -2 2 C-1.34 1.34 -0.68 0.68 0 0 Z " fill="#13121A" transform="translate(657,155)"/>
<path d="M0 0 C0 0.66 0 1.32 0 2 C-0.99 2 -1.98 2 -3 2 C-3 2.66 -3 3.32 -3 4 C-4.65 4 -6.3 4 -8 4 C-4.5 0 -4.5 0 0 0 Z " fill="#274D7C" transform="translate(384,153)"/>
<path d="M0 0 C6.75 0.75 6.75 0.75 9 3 C6.69 3 4.38 3 2 3 C2 2.34 2 1.68 2 1 C1.34 0.67 0.68 0.34 0 0 Z " fill="#3071A1" transform="translate(379,866)"/>
<path d="M0 0 C0.66 0.33 1.32 0.66 2 1 C0.25 3.062 0.25 3.062 -2 5 C-4.25 4.75 -4.25 4.75 -6 4 C-4.02 2.68 -2.04 1.36 0 0 Z " fill="#7D707C" transform="translate(717,831)"/>
<path d="M0 0 C3.375 1.186 5.647 2.276 8 5 C6.35 5.33 4.7 5.66 3 6 C3.33 5.01 3.66 4.02 4 3 C2.68 2.67 1.36 2.34 0 2 C0 1.34 0 0.68 0 0 Z " fill="#050B14" transform="translate(294,826)"/>
<path d="M0 0 C1.32 0 2.64 0 4 0 C4.33 1.32 4.66 2.64 5 4 C3.35 3.67 1.7 3.34 0 3 C0 2.01 0 1.02 0 0 Z " fill="#3181B3" transform="translate(277,810)"/>
<path d="M0 0 C1.98 1.65 3.96 3.3 6 5 C5.01 5.495 5.01 5.495 4 6 C3.34 5.67 2.68 5.34 2 5 C1.67 5.66 1.34 6.32 1 7 C0 2.25 0 2.25 0 0 Z " fill="#285B8B" transform="translate(232,766)"/>
<path d="M0 0 C2.5 2.312 2.5 2.312 5 5 C5 5.99 5 6.98 5 8 C4.34 7.34 3.68 6.68 3 6 C2.01 6.495 2.01 6.495 1 7 C0.67 4.69 0.34 2.38 0 0 Z " fill="#265383" transform="translate(198,724)"/>
<path d="M0 0 C0.66 0 1.32 0 2 0 C3.283 3.85 3.066 6.947 3 11 C2.67 11 2.34 11 2 11 C0.807 7.123 0 4.084 0 0 Z " fill="#1F1613" transform="translate(886,457)"/>
<path d="M0 0 C2.724 2.353 3.814 4.625 5 8 C4.01 8.495 4.01 8.495 3 9 C0.706 5.559 0 4.277 0 0 Z " fill="#E1BFAF" transform="translate(855,334)"/>
<path d="M0 0 C1.875 0.25 1.875 0.25 4 1 C5.25 3.062 5.25 3.062 6 5 C4.02 4.34 2.04 3.68 0 3 C0 2.01 0 1.02 0 0 Z " fill="#54637F" transform="translate(646,156)"/>
<path d="M0 0 C-3.006 3.006 -5.824 2.596 -10 3 C-7.295 -0.818 -4.379 -0.248 0 0 Z " fill="#203759" transform="translate(436,141)"/>
</svg>
