<?xml version="1.0" encoding="UTF-8"?>
<!-- Generator: visioncortex VTracer 0.6.4 -->
<svg version="1.1" xmlns="http://www.w3.org/2000/svg" width="1024" height="1024">
<path d="M0 0 C337.92 0 675.84 0 1024 0 C1024 337.92 1024 675.84 1024 1024 C686.08 1024 348.16 1024 0 1024 C0 686.08 0 348.16 0 0 Z " fill="#000000" transform="translate(0,0)"/>
<path d="M0 0 C0.99 0 1.98 0 3 0 C3.02 1.107 3.04 2.214 3.06 3.354 C3.911 49.253 7.337 86.936 37 124 C37.7 124.876 37.7 124.876 38.415 125.77 C48.454 138.21 59.427 149.121 72.244 158.688 C73.388 159.543 74.528 160.404 75.662 161.272 C93.691 175.069 113.86 184.005 135 192 C135.854 192.324 136.707 192.647 137.587 192.981 C158.43 200.743 181.078 205.372 203.312 205.312 C204.503 205.329 205.693 205.345 206.92 205.361 C222.611 205.37 236.749 201.477 251.5 196.562 C252.295 196.301 253.09 196.039 253.909 195.77 C277.036 188.155 299.7 179.535 322.106 170.014 C332.229 165.715 342.41 161.576 352.625 157.5 C353.355 157.208 354.084 156.917 354.836 156.617 C363.076 153.326 371.329 150.086 379.634 146.963 C381.917 146.212 381.917 146.212 383 145 C381.977 144.602 381.977 144.602 380.934 144.197 C367.732 139.027 354.759 133.631 342.062 127.312 C341.029 126.803 339.996 126.294 338.932 125.769 C313.01 112.64 288.578 93.251 279.176 64.891 C273.095 45.281 269.804 20.309 274 0 C274.99 0 275.98 0 277 0 C276.99 0.85 276.979 1.7 276.968 2.576 C276.545 25.379 276.545 25.379 279 48 C279.177 49.021 279.177 49.021 279.358 50.063 C282.3 66.402 288.53 80.819 300 93 C300.759 93.838 301.519 94.676 302.301 95.539 C313.073 106.928 326.265 114.71 340 122 C340.594 122.321 341.188 122.643 341.799 122.974 C351.312 128.101 361.218 132.293 371.188 136.438 C371.833 136.707 372.478 136.976 373.143 137.254 C375.003 138.028 376.867 138.793 378.73 139.559 C379.817 140.005 380.904 140.452 382.024 140.912 C388.101 143.134 390.847 143.041 396.961 140.57 C397.629 140.302 398.296 140.033 398.984 139.756 C400.4 139.182 401.814 138.602 403.225 138.016 C405.327 137.145 407.437 136.302 409.551 135.461 C416.483 132.651 422.93 129.582 429.25 125.574 C437.335 120.485 445.946 117.126 454.852 113.742 C458.659 112.294 462.454 110.815 466.251 109.339 C468.156 108.598 470.062 107.859 471.969 107.121 C509.654 92.962 509.654 92.962 545 74 C545 75.32 545 76.64 545 78 C518.958 93.871 489.693 104.493 461.226 115.173 C449.289 119.656 437.972 124.174 427.128 130.922 C417.094 137.026 405.969 140.909 395 145 C397.65 146.767 399.809 147.796 402.755 148.917 C404.215 149.475 404.215 149.475 405.704 150.045 C406.765 150.447 407.825 150.848 408.918 151.262 C410.026 151.684 411.133 152.107 412.274 152.542 C415.284 153.689 418.296 154.832 421.308 155.974 C423.825 156.93 426.342 157.887 428.859 158.845 C447.696 166.014 466.56 173.109 485.438 180.168 C495.14 183.798 504.835 187.449 514.527 191.105 C516.529 191.86 518.531 192.615 520.534 193.369 C523.316 194.416 526.098 195.466 528.879 196.516 C530.11 196.979 530.11 196.979 531.367 197.451 C535.965 199.19 540.496 201.029 545 203 C545 203.99 545 204.98 545 206 C537.832 203.958 530.87 201.547 523.906 198.895 C522.859 198.499 521.811 198.103 520.732 197.695 C517.32 196.404 513.91 195.108 510.5 193.812 C508.104 192.905 505.708 191.997 503.311 191.09 C496.206 188.399 489.102 185.7 482 183 C481.015 182.625 480.029 182.251 479.014 181.865 C473.775 179.873 468.536 177.879 463.298 175.884 C460.814 174.938 458.328 173.993 455.843 173.048 C447.205 169.762 438.577 166.453 429.961 163.107 C425.339 161.315 420.712 159.532 416.085 157.75 C413.835 156.881 411.586 156.007 409.339 155.128 C406.214 153.906 403.082 152.699 399.949 151.496 C399.015 151.126 398.08 150.756 397.118 150.375 C396.251 150.046 395.384 149.716 394.491 149.377 C393.741 149.085 392.99 148.794 392.217 148.493 C387.458 147.434 382.999 149.641 378.586 151.309 C377.956 151.547 377.326 151.784 376.677 152.03 C374.574 152.827 372.474 153.632 370.375 154.438 C369.64 154.718 368.905 154.999 368.148 155.288 C356.094 159.9 344.181 164.811 332.297 169.842 C306.408 180.802 280.269 190.661 253.625 199.625 C252.878 199.878 252.13 200.131 251.36 200.391 C199.91 217.729 149.718 204.849 102 182 C86.259 174.171 72.121 163.609 59 152 C58.14 151.263 57.28 150.525 56.395 149.766 C25.409 122.77 5.863 88.779 1 48 C0.901 47.281 0.801 46.561 0.699 45.82 C-0.427 36.723 -0.107 27.524 -0.062 18.375 C-0.057 16.59 -0.053 14.805 -0.049 13.02 C-0.038 8.68 -0.021 4.34 0 0 Z " fill="#F0F0F0" transform="translate(479,0)"/>
<path d="M0 0 C1.518 0.766 1.518 0.766 3.066 1.547 C13.396 6.644 23.924 10.986 34.688 15.062 C79.719 32.166 79.719 32.166 91 54 C92.614 58.272 93.907 62.568 95 67 C95.193 67.781 95.387 68.562 95.586 69.367 C99.515 94.347 89.869 119.701 82.535 143.121 C82.226 144.108 81.918 145.095 81.6 146.112 C80.04 151.09 78.471 156.065 76.887 161.036 C73.745 170.955 70.847 180.744 69 191 C68.87 191.722 68.74 192.445 68.606 193.189 C65.908 211.002 69.031 229.366 79.52 244.141 C93.656 260.031 120.538 265.339 139.879 272.25 C144.19 273.791 148.502 275.332 152.812 276.875 C153.895 277.262 154.978 277.65 156.094 278.049 C205.67 295.816 205.67 295.816 226 307 C227.075 307.58 228.15 308.16 229.258 308.758 C254.109 322.647 271.438 344.889 279.934 372.031 C288.164 401.452 284.351 431.266 269.445 457.863 C263.357 468.349 256.039 477.403 247.688 486.16 C245.617 488.349 243.658 490.548 241.75 492.875 C238.598 496.586 235.163 500.438 231 503 C228.758 502.688 228.758 502.688 227 502 C227.799 501.285 228.598 500.569 229.422 499.832 C254.8 476.905 277.422 448.639 280.222 413.194 C281.457 382.767 273.933 354.085 253.113 331.246 C223.568 299.965 174.487 288.332 135.142 274.347 C79.344 254.508 79.344 254.508 69.688 234.688 C69.086 233.14 68.525 231.575 68 230 C67.702 229.127 67.404 228.255 67.098 227.355 C65.062 220.199 64.663 213.221 64.562 205.812 C64.54 204.918 64.518 204.023 64.495 203.101 C64.554 184.492 71.876 166.186 77.438 148.688 C94.035 101.177 94.035 101.177 87 53 C81.271 42.709 73.256 36.452 63 31 C61.84 30.383 60.68 29.765 59.484 29.129 C52.512 25.611 45.303 22.696 38.035 19.855 C37.319 19.575 36.603 19.295 35.865 19.007 C32.254 17.598 28.639 16.204 25.014 14.831 C16.274 11.488 8.122 7.664 0 3 C0 2.01 0 1.02 0 0 Z " fill="#EEEEEE" transform="translate(2,521)"/>
<path d="M0 0 C0.33 0 0.66 0 1 0 C1.386 5.032 0.421 7.681 -2.227 11.938 C-2.566 12.491 -2.905 13.044 -3.254 13.614 C-4.365 15.417 -5.495 17.209 -6.625 19 C-7.406 20.259 -8.187 21.519 -8.966 22.78 C-11.292 26.532 -13.644 30.267 -16 34 C-16.645 35.024 -17.289 36.049 -17.954 37.104 C-21.38 42.541 -24.838 47.957 -28.312 53.364 C-30.01 56.016 -31.698 58.675 -33.383 61.336 C-40.385 72.394 -47.498 83.374 -54.676 94.318 C-62.108 105.663 -69.382 117.105 -76.624 128.571 C-84.223 140.6 -91.942 152.544 -99.75 164.438 C-100.186 165.102 -100.622 165.766 -101.071 166.451 C-109.839 179.802 -118.621 193.142 -127.75 206.25 C-128.428 207.223 -129.105 208.196 -129.803 209.199 C-138.768 222.02 -148.054 234.601 -157.645 246.961 C-159.257 249.042 -160.86 251.128 -162.449 253.227 C-167.18 259.459 -172.066 265.508 -177.154 271.452 C-183.171 278.308 -183.171 278.308 -188 286 C-187.389 286.177 -186.778 286.353 -186.149 286.535 C-158.973 294.523 -134.029 307.004 -110.374 322.473 C-109.591 322.977 -108.807 323.481 -108 324 C-107.147 324.561 -106.294 325.121 -105.415 325.699 C-101.891 327.597 -99.798 327.049 -96 326 C-86.891 319.405 -80.15 309.043 -73.545 300.092 C-72.15 298.204 -70.742 296.327 -69.328 294.453 C-46.647 264.206 -26.25 231.895 -7.312 199.193 C-4.79 194.87 -2.297 190.795 1 187 C1.3 191.668 0.696 194.244 -1.754 198.211 C-2.353 199.195 -2.952 200.18 -3.569 201.194 C-4.227 202.244 -4.885 203.293 -5.562 204.375 C-6.243 205.482 -6.923 206.589 -7.624 207.73 C-9.043 210.038 -10.471 212.34 -11.905 214.638 C-13.829 217.725 -15.734 220.823 -17.633 223.926 C-77.04 320.52 -77.04 320.52 -98 331 C-102.603 331.388 -104.983 330.816 -108.75 328.188 C-109.704 327.548 -110.658 326.909 -111.641 326.25 C-112.171 325.892 -112.702 325.533 -113.248 325.164 C-134.244 311.213 -156.08 300.822 -179.758 292.281 C-180.462 292.019 -181.166 291.757 -181.892 291.487 C-183.732 290.803 -185.58 290.143 -187.43 289.484 C-190 288 -190 288 -191.172 285.691 C-190.926 281.836 -188.901 279.89 -186.375 277.188 C-185.347 276.03 -184.321 274.871 -183.297 273.711 C-182.755 273.105 -182.213 272.499 -181.654 271.874 C-178.898 268.752 -176.255 265.541 -173.625 262.312 C-173.084 261.649 -172.544 260.986 -171.987 260.302 C-167.328 254.524 -162.974 248.547 -158.667 242.503 C-155.509 238.074 -152.285 233.726 -148.938 229.438 C-145.345 224.811 -141.887 220.111 -138.512 215.324 C-137.995 214.591 -137.478 213.858 -136.945 213.103 C-130.766 204.298 -124.82 195.339 -118.875 186.375 C-117.762 184.7 -116.649 183.026 -115.535 181.352 C-113.37 178.095 -111.206 174.837 -109.043 171.579 C-107.102 168.657 -105.158 165.737 -103.207 162.822 C-98.473 155.744 -93.798 148.636 -89.25 141.438 C-88.051 139.547 -86.852 137.656 -85.652 135.766 C-85.05 134.815 -84.448 133.864 -83.828 132.885 C-73.971 117.326 -64.047 101.814 -53.992 86.383 C-38.051 61.91 -22.453 37.25 -7.25 12.312 C-6.641 11.313 -6.032 10.314 -5.404 9.285 C-4.562 7.9 -4.562 7.9 -3.703 6.488 C-3.205 5.669 -2.706 4.849 -2.192 4.005 C-0.983 2.027 -0.983 2.027 0 0 Z " fill="#F1F1F1" transform="translate(1023,355)"/>
<path d="M0 0 C2.911 1.304 4.844 2.636 6.977 5 C7.552 5.627 8.128 6.254 8.721 6.901 C9.349 7.593 9.978 8.286 10.625 9 C19.141 18.235 28.019 27.082 36.95 35.912 C41.945 40.863 46.844 45.831 51.41 51.187 C54.275 54.453 57.398 57.462 60.5 60.5 C64.294 64.216 68.001 67.943 71.469 71.969 C75.111 76.192 79.02 80.097 83 84 C86.948 87.873 90.831 91.741 94.438 95.938 C98.393 100.53 102.681 104.753 107 109 C115.566 117.422 115.566 117.422 119.438 121.938 C123.693 126.889 128.351 131.421 133 136 C138.27 141.192 143.411 146.391 148.226 152.008 C152.375 156.667 156.946 160.942 161.416 165.289 C166.097 169.903 170.242 174.604 174 180 C169.751 179.501 167.752 177.111 164.824 174.152 C164.336 173.662 163.848 173.172 163.345 172.667 C162.312 171.627 161.282 170.584 160.256 169.537 C158.71 167.961 157.154 166.394 155.596 164.83 C150.832 160.028 146.207 155.155 141.804 150.018 C137.904 145.655 133.666 141.607 129.5 137.5 C124.028 132.105 118.657 126.718 113.658 120.881 C110.764 117.598 107.626 114.561 104.5 111.5 C100.737 107.815 97.057 104.123 93.625 100.125 C89.495 95.335 85.005 90.934 80.5 86.5 C75.318 81.4 70.274 76.278 65.537 70.76 C63.468 68.39 61.253 66.194 59 64 C56.148 61.224 53.455 58.39 50.871 55.367 C45.776 49.486 40.149 44.119 34.588 38.684 C33.17 37.296 31.759 35.902 30.348 34.508 C29.512 33.689 28.677 32.871 27.817 32.028 C26 30 26 30 26 28 C25.34 28 24.68 28 24 28 C22.588 26.56 22.588 26.56 20.934 24.551 C16.203 18.984 10.962 13.977 5.701 8.916 C4.966 8.195 4.23 7.474 3.473 6.73 C2.805 6.085 2.137 5.439 1.449 4.774 C0 3 0 3 0 0 Z " fill="#EFEFEF" transform="translate(43,844)"/>
<path d="M0 0 C0.33 0 0.66 0 1 0 C1.792 25.073 -5.024 47.358 -12.465 71.121 C-12.774 72.108 -13.082 73.095 -13.4 74.112 C-14.96 79.09 -16.529 84.065 -18.113 89.036 C-22.073 101.537 -25.69 113.896 -27 127 C-28.485 127.495 -28.485 127.495 -30 128 C-29.845 120.942 -28.745 114.333 -26.918 107.543 C-26.701 106.727 -26.483 105.911 -26.26 105.07 C-23.06 93.283 -19.248 81.674 -15.511 70.048 C-6.778 43.111 -6.778 43.111 -2.688 15.188 C-2.615 14.185 -2.542 13.183 -2.467 12.15 C-2.296 9.768 -2.14 7.385 -2 5 C-1.67 5 -1.34 5 -1 5 C-0.67 3.35 -0.34 1.7 0 0 Z " fill="#E8E7E8" transform="translate(97,593)"/>
<path d="M0 0 C0.33 0 0.66 0 1 0 C1.605 19.144 -0.29 41.58 -9 59 C-9.66 59 -10.32 59 -11 59 C-10.061 54.042 -9.069 49.119 -7.781 44.238 C-4.365 31.205 -2.788 18.44 -2 5 C-1.67 5 -1.34 5 -1 5 C-0.67 3.35 -0.34 1.7 0 0 Z " fill="#E9E9E9" transform="translate(97,593)"/>
<path d="M0 0 C0.99 0 1.98 0 3 0 C3 14.85 3 29.7 3 45 C2.34 44.67 1.68 44.34 1 44 C-1.026 34.957 -1.18 25.602 -1.188 16.375 C-1.188 15.44 -1.189 14.504 -1.19 13.54 C-1.152 8.92 -0.943 4.544 0 0 Z " fill="#E5E5E5" transform="translate(753,0)"/>
<path d="M0 0 C0.99 0 1.98 0 3 0 C3.049 3.951 3.086 7.902 3.11 11.853 C3.125 13.859 3.15 15.865 3.176 17.871 C3.182 19.128 3.189 20.385 3.195 21.68 C3.206 22.842 3.216 24.005 3.227 25.203 C3 28 3 28 1 30 C-0.04 26.589 -0.115 23.477 -0.098 19.922 C-0.094 18.762 -0.091 17.602 -0.088 16.406 C-0.08 15.2 -0.071 13.993 -0.062 12.75 C-0.058 11.528 -0.053 10.306 -0.049 9.047 C-0.037 6.031 -0.021 3.016 0 0 Z " fill="#F3F2F3" transform="translate(479,0)"/>
<path d="M0 0 C0.33 0.66 0.66 1.32 1 2 C-0.233 4.829 -1.986 7.389 -3.625 10 C-4.065 10.737 -4.504 11.475 -4.957 12.234 C-8.321 17.641 -8.321 17.641 -11.836 19.5 C-12.907 19.747 -12.907 19.747 -14 20 C-12.533 15.901 -10.531 12.498 -8.125 8.875 C-7.447 7.841 -6.769 6.807 -6.07 5.742 C-4.195 3.258 -2.587 1.682 0 0 Z " fill="#EAEAEA" transform="translate(913,531)"/>
<path d="M0 0 C0.33 0 0.66 0 1 0 C1.027 2.833 1.047 5.667 1.062 8.5 C1.071 9.291 1.079 10.083 1.088 10.898 C1.109 16.028 0.739 20.923 0 26 C-0.99 25.67 -1.98 25.34 -3 25 C-2.67 18.4 -2.34 11.8 -2 5 C-1.67 5 -1.34 5 -1 5 C-0.67 3.35 -0.34 1.7 0 0 Z " fill="#CECDCD" transform="translate(97,593)"/>
<path d="M0 0 C3 2 3 2 3.432 3.879 C3.459 4.623 3.485 5.367 3.512 6.133 C3.547 6.938 3.583 7.744 3.619 8.574 C3.642 9.416 3.664 10.258 3.688 11.125 C3.722 11.974 3.756 12.824 3.791 13.699 C3.874 15.799 3.938 17.899 4 20 C3.34 20 2.68 20 2 20 C1.67 20.66 1.34 21.32 1 22 C0.088 14.642 -0.115 7.41 0 0 Z " fill="#E3E4E4" transform="translate(479,26)"/>
<path d="M0 0 C0.33 1.32 0.66 2.64 1 4 C-4.94 7.465 -4.94 7.465 -11 11 C-11 10.01 -11 9.02 -11 8 C-7.626 4.923 -3.818 2.486 0 0 Z " fill="#EAEBEA" transform="translate(1023,74)"/>
<path d="M0 0 C1.434 3.788 0.51 6.065 -0.938 9.75 C-1.318 10.735 -1.698 11.72 -2.09 12.734 C-2.39 13.482 -2.691 14.23 -3 15 C-3.66 15 -4.32 15 -5 15 C-3.971 9.554 -2.754 4.882 0 0 Z " fill="#F0F0F0" transform="translate(79,675)"/>
<path d="M0 0 C0.99 0.33 1.98 0.66 3 1 C2.67 4.3 2.34 7.6 2 11 C1.01 11.33 0.02 11.66 -1 12 C-0.67 8.04 -0.34 4.08 0 0 Z " fill="#DDDDDD" transform="translate(68,709)"/>
<path d="M0 0 C1.188 3.429 0.802 5.378 -0.438 8.75 C-0.869 9.949 -0.869 9.949 -1.309 11.172 C-1.537 11.775 -1.765 12.378 -2 13 C-2.66 13 -3.32 13 -4 13 C-3.717 11.394 -3.423 9.79 -3.125 8.188 C-2.963 7.294 -2.8 6.401 -2.633 5.48 C-2 3 -2 3 0 0 Z " fill="#F0F1F1" transform="translate(90,639)"/>
<path d="M0 0 C0.33 0 0.66 0 1 0 C0.67 4.29 0.34 8.58 0 13 C-0.99 12.67 -1.98 12.34 -3 12 C-2.143 3.429 -2.143 3.429 0 0 Z " fill="#D3D3D4" transform="translate(97,606)"/>
<path d="M0 0 C0.33 0.66 0.66 1.32 1 2 C-0.281 3.707 -1.618 5.374 -3 7 C-3.66 7 -4.32 7 -5 7 C-3.75 3.347 -3.329 2.219 0 0 Z " fill="#F6F6F5" transform="translate(267,982)"/>
<path d="M0 0 C0.33 0 0.66 0 1 0 C0.67 2.97 0.34 5.94 0 9 C-0.66 9 -1.32 9 -2 9 C-2.25 3.375 -2.25 3.375 0 0 Z " fill="#F2F2F2" transform="translate(71,701)"/>
</svg>
