<svg xmlns="http://www.w3.org/2000/svg" width="1024" height="1024" viewBox="0 0 1080 1080"><style type="text/css"><![CDATA[
.main-text { font-family: 'Montserrat', sans-serif; font-weight: 900; font-size: 150px; fill: #d27477; stroke: #a0494c; stroke-width: 1; filter: drop-shadow(0 0 10px #d27477); text-anchor: middle; } .sub-text { font-family: 'Montserrat', sans-serif; font-weight: 700; font-size: 40px; fill: #bec9de; text-anchor: middle; letter-spacing: 0.07em; }
]]></style><g id="background-layer" opacity="0.9"><path d="M0 0 C337.92 0 675.84 0 1024 0 C1024 337.92 1024 675.84 1024 1024 C686.08 1024 348.16 1024 0 1024 C0 686.08 0 348.16 0 0 Z " fill="#000000" transform="translate(0,0)"/><path d="M0 0 C0.99 0 1.98 0 3 0 C3.02 1.11 3.04 2.21 3.06 3.35 C3.91 49.25 7.34 86.94 37 124 C37.7 124.88 37.7 124.88 38.41 125.77 C48.45 138.21 59.43 149.12 72.24 158.69 C73.39 159.54 74.53 160.40 75.66 161.27 C93.69 175.07 113.86 184.00 135 192 C135.85 192.32 136.71 192.65 137.59 192.98 C158.43 200.74 181.08 205.37 203.31 205.31 C204.50 205.33 205.69 205.34 206.92 205.36 C222.61 205.37 236.75 201.48 251.5 196.56 C252.29 196.30 253.09 196.04 253.91 195.77 C277.04 188.16 299.7 179.53 322.11 170.01 C332.23 165.72 342.41 161.58 352.62 157.5 C353.36 157.21 354.08 156.92 354.84 156.62 C363.08 153.33 371.33 150.09 379.63 146.96 C381.92 146.21 381.92 146.21 383 145 C381.98 144.60 381.98 144.60 380.93 144.20 C367.73 139.03 354.76 133.63 342.06 127.31 C341.03 126.80 340.00 126.29 338.93 125.77 C313.01 112.64 288.58 93.25 279.18 64.89 C273.10 45.28 269.80 20.31 274 0 C274.99 0 275.98 0 277 0 C276.99 0.85 276.98 1.7 276.97 2.58 C276.55 25.38 276.55 25.38 279 48 C279.18 49.02 279.18 49.02 279.36 50.06 C282.3 66.40 288.53 80.82 300 93 C300.76 93.84 301.52 94.68 302.30 95.54 C313.07 106.93 326.26 114.71 340 122 C340.59 122.32 341.19 122.64 341.80 122.97 C351.31 128.10 361.22 132.29 371.19 136.44 C371.83 136.71 372.48 136.98 373.14 137.25 C375.00 138.03 376.87 138.79 378.73 139.56 C379.82 140.00 380.90 140.45 382.02 140.91 C388.10 143.13 390.85 143.04 396.96 140.57 C397.63 140.30 398.30 140.03 398.98 139.76 C400.4 139.18 401.81 138.60 403.23 138.02 C405.33 137.15 407.44 136.30 409.55 135.46 C416.48 132.65 422.93 129.58 429.25 125.57 C437.33 120.48 445.95 117.13 454.85 113.74 C458.66 112.29 462.45 110.81 466.25 109.34 C468.16 108.60 470.06 107.86 471.97 107.12 C509.65 92.96 509.65 92.96 545 74 C545 75.32 545 76.64 545 78 C518.96 93.87 489.69 104.49 461.23 115.17 C449.29 119.66 437.97 124.17 427.13 130.92 C417.09 137.03 405.97 140.91 395 145 C397.65 146.77 399.81 147.80 402.75 148.92 C404.21 149.47 404.21 149.47 405.70 150.04 C406.76 150.45 407.82 150.85 408.92 151.26 C410.03 151.68 411.13 152.11 412.27 152.54 C415.28 153.69 418.30 154.83 421.31 155.97 C423.82 156.93 426.34 157.89 428.86 158.84 C447.70 166.01 466.56 173.11 485.44 180.17 C495.14 183.80 504.83 187.45 514.53 191.10 C516.53 191.86 518.53 192.62 520.53 193.37 C523.32 194.42 526.10 195.47 528.88 196.52 C530.11 196.98 530.11 196.98 531.37 197.45 C535.97 199.19 540.50 201.03 545 203 C545 203.99 545 204.98 545 206 C537.83 203.96 530.87 201.55 523.91 198.90 C522.86 198.50 521.81 198.10 520.73 197.69 C517.32 196.40 513.91 195.11 510.5 193.81 C508.10 192.91 505.71 192.00 503.31 191.09 C496.21 188.40 489.10 185.7 482 183 C481.01 182.62 480.03 182.25 479.01 181.87 C473.77 179.87 468.54 177.88 463.30 175.88 C460.81 174.94 458.33 173.99 455.84 173.05 C447.20 169.76 438.58 166.45 429.96 163.11 C425.34 161.31 420.71 159.53 416.08 157.75 C413.83 156.88 411.59 156.01 409.34 155.13 C406.21 153.91 403.08 152.70 399.95 151.50 C399.01 151.13 398.08 150.76 397.12 150.38 C396.25 150.05 395.38 149.72 394.49 149.38 C393.74 149.09 392.99 148.79 392.22 148.49 C387.46 147.43 383.00 149.64 378.59 151.31 C377.96 151.55 377.33 151.78 376.68 152.03 C374.57 152.83 372.47 153.63 370.38 154.44 C369.64 154.72 368.90 155.00 368.15 155.29 C356.09 159.9 344.18 164.81 332.30 169.84 C306.41 180.80 280.27 190.66 253.62 199.62 C252.88 199.88 252.13 200.13 251.36 200.39 C199.91 217.73 149.72 204.85 102 182 C86.26 174.17 72.12 163.61 59 152 C58.14 151.26 57.28 150.53 56.40 149.77 C25.41 122.77 5.86 88.78 1 48 C0.90 47.28 0.80 46.56 0.70 45.82 C-0.43 36.72 -0.11 27.52 -0.06 18.38 C-0.06 16.59 -0.05 14.80 -0.05 13.02 C-0.04 8.68 -0.02 4.34 0 0 Z " fill="#F0F0F0" transform="translate(479,0)"/><path d="M0 0 C1.52 0.77 1.52 0.77 3.07 1.55 C13.40 6.64 23.92 10.99 34.69 15.06 C79.72 32.17 79.72 32.17 91 54 C92.61 58.27 93.91 62.57 95 67 C95.19 67.78 95.39 68.56 95.59 69.37 C99.52 94.35 89.87 119.70 82.53 143.12 C82.23 144.11 81.92 145.09 81.6 146.11 C80.04 151.09 78.47 156.06 76.89 161.04 C73.75 170.96 70.85 180.74 69 191 C68.87 191.72 68.74 192.44 68.61 193.19 C65.91 211.00 69.03 229.37 79.52 244.14 C93.66 260.03 120.54 265.34 139.88 272.25 C144.19 273.79 148.50 275.33 152.81 276.88 C153.90 277.26 154.98 277.65 156.09 278.05 C205.67 295.82 205.67 295.82 226 307 C227.07 307.58 228.15 308.16 229.26 308.76 C254.11 322.65 271.44 344.89 279.93 372.03 C288.16 401.45 284.35 431.27 269.44 457.86 C263.36 468.35 256.04 477.40 247.69 486.16 C245.62 488.35 243.66 490.55 241.75 492.88 C238.60 496.59 235.16 500.44 231 503 C228.76 502.69 228.76 502.69 227 502 C227.80 501.29 228.60 500.57 229.42 499.83 C254.8 476.90 277.42 448.64 280.22 413.19 C281.46 382.77 273.93 354.08 253.11 331.25 C223.57 299.96 174.49 288.33 135.14 274.35 C79.34 254.51 79.34 254.51 69.69 234.69 C69.09 233.14 68.53 231.57 68 230 C67.70 229.13 67.40 228.25 67.10 227.35 C65.06 220.20 64.66 213.22 64.56 205.81 C64.54 204.92 64.52 204.02 64.50 203.10 C64.55 184.49 71.88 166.19 77.44 148.69 C94.03 101.18 94.03 101.18 87 53 C81.27 42.71 73.26 36.45 63 31 C61.84 30.38 60.68 29.77 59.48 29.13 C52.51 25.61 45.30 22.70 38.03 19.86 C37.32 19.57 36.60 19.30 35.87 19.01 C32.25 17.60 28.64 16.20 25.01 14.83 C16.27 11.49 8.12 7.66 0 3 C0 2.01 0 1.02 0 0 Z " fill="#EEEEEE" transform="translate(2,521)"/><path d="M0 0 C0.33 0 0.66 0 1 0 C1.39 5.03 0.42 7.68 -2.23 11.94 C-2.57 12.49 -2.90 13.04 -3.25 13.61 C-4.37 15.42 -5.50 17.21 -6.62 19 C-7.41 20.26 -8.19 21.52 -8.97 22.78 C-11.29 26.53 -13.64 30.27 -16 34 C-16.64 35.02 -17.29 36.05 -17.95 37.10 C-21.38 42.54 -24.84 47.96 -28.31 53.36 C-30.01 56.02 -31.70 58.67 -33.38 61.34 C-40.38 72.39 -47.50 83.37 -54.68 94.32 C-62.11 105.66 -69.38 117.11 -76.62 128.57 C-84.22 140.6 -91.94 152.54 -99.75 164.44 C-100.19 165.10 -100.62 165.77 -101.07 166.45 C-109.84 179.80 -118.62 193.14 -127.75 206.25 C-128.43 207.22 -129.10 208.20 -129.80 209.20 C-138.77 222.02 -148.05 234.60 -157.65 246.96 C-159.26 249.04 -160.86 251.13 -162.45 253.23 C-167.18 259.46 -172.07 265.51 -177.15 271.45 C-183.17 278.31 -183.17 278.31 -188 286 C-187.39 286.18 -186.78 286.35 -186.15 286.54 C-158.97 294.52 -134.03 307.00 -110.37 322.47 C-109.59 322.98 -108.81 323.48 -108 324 C-107.15 324.56 -106.29 325.12 -105.42 325.70 C-101.89 327.60 -99.80 327.05 -96 326 C-86.89 319.40 -80.15 309.04 -73.55 300.09 C-72.15 298.20 -70.74 296.33 -69.33 294.45 C-46.65 264.21 -26.25 231.90 -7.31 199.19 C-4.79 194.87 -2.30 190.79 1 187 C1.3 191.67 0.70 194.24 -1.75 198.21 C-2.35 199.19 -2.95 200.18 -3.57 201.19 C-4.23 202.24 -4.88 203.29 -5.56 204.38 C-6.24 205.48 -6.92 206.59 -7.62 207.73 C-9.04 210.04 -10.47 212.34 -11.90 214.64 C-13.83 217.72 -15.73 220.82 -17.63 223.93 C-77.04 320.52 -77.04 320.52 -98 331 C-102.60 331.39 -104.98 330.82 -108.75 328.19 C-109.70 327.55 -110.66 326.91 -111.64 326.25 C-112.17 325.89 -112.70 325.53 -113.25 325.16 C-134.24 311.21 -156.08 300.82 -179.76 292.28 C-180.46 292.02 -181.17 291.76 -181.89 291.49 C-183.73 290.80 -185.58 290.14 -187.43 289.48 C-190 288 -190 288 -191.17 285.69 C-190.93 281.84 -188.90 279.89 -186.38 277.19 C-185.35 276.03 -184.32 274.87 -183.30 273.71 C-182.75 273.11 -182.21 272.50 -181.65 271.87 C-178.90 268.75 -176.25 265.54 -173.62 262.31 C-173.08 261.65 -172.54 260.99 -171.99 260.30 C-167.33 254.52 -162.97 248.55 -158.67 242.50 C-155.51 238.07 -152.28 233.73 -148.94 229.44 C-145.34 224.81 -141.89 220.11 -138.51 215.32 C-138.00 214.59 -137.48 213.86 -136.94 213.10 C-130.77 204.30 -124.82 195.34 -118.88 186.38 C-117.76 184.7 -116.65 183.03 -115.53 181.35 C-113.37 178.09 -111.21 174.84 -109.04 171.58 C-107.10 168.66 -105.16 165.74 -103.21 162.82 C-98.47 155.74 -93.80 148.64 -89.25 141.44 C-88.05 139.55 -86.85 137.66 -85.65 135.77 C-85.05 134.81 -84.45 133.86 -83.83 132.88 C-73.97 117.33 -64.05 101.81 -53.99 86.38 C-38.05 61.91 -22.45 37.25 -7.25 12.31 C-6.64 11.31 -6.03 10.31 -5.40 9.29 C-4.56 7.9 -4.56 7.9 -3.70 6.49 C-3.21 5.67 -2.71 4.85 -2.19 4.00 C-0.98 2.03 -0.98 2.03 0 0 Z " fill="#F1F1F1" transform="translate(1023,355)"/><path d="M0 0 C2.91 1.30 4.84 2.64 6.98 5 C7.55 5.63 8.13 6.25 8.72 6.90 C9.35 7.59 9.98 8.29 10.62 9 C19.14 18.23 28.02 27.08 36.95 35.91 C41.95 40.86 46.84 45.83 51.41 51.19 C54.27 54.45 57.40 57.46 60.5 60.5 C64.29 64.22 68.00 67.94 71.47 71.97 C75.11 76.19 79.02 80.10 83 84 C86.95 87.87 90.83 91.74 94.44 95.94 C98.39 100.53 102.68 104.75 107 109 C115.57 117.42 115.57 117.42 119.44 121.94 C123.69 126.89 128.35 131.42 133 136 C138.27 141.19 143.41 146.39 148.23 152.01 C152.38 156.67 156.95 160.94 161.42 165.29 C166.10 169.90 170.24 174.60 174 180 C169.75 179.50 167.75 177.11 164.82 174.15 C164.34 173.66 163.85 173.17 163.34 172.67 C162.31 171.63 161.28 170.58 160.26 169.54 C158.71 167.96 157.15 166.39 155.60 164.83 C150.83 160.03 146.21 155.16 141.80 150.02 C137.90 145.66 133.67 141.61 129.5 137.5 C124.03 132.10 118.66 126.72 113.66 120.88 C110.76 117.60 107.63 114.56 104.5 111.5 C100.74 107.81 97.06 104.12 93.62 100.12 C89.50 95.33 85.00 90.93 80.5 86.5 C75.32 81.4 70.27 76.28 65.54 70.76 C63.47 68.39 61.25 66.19 59 64 C56.15 61.22 53.45 58.39 50.87 55.37 C45.78 49.49 40.15 44.12 34.59 38.68 C33.17 37.30 31.76 35.90 30.35 34.51 C29.51 33.69 28.68 32.87 27.82 32.03 C26 30 26 30 26 28 C25.34 28 24.68 28 24 28 C22.59 26.56 22.59 26.56 20.93 24.55 C16.20 18.98 10.96 13.98 5.70 8.92 C4.97 8.20 4.23 7.47 3.47 6.73 C2.81 6.08 2.14 5.44 1.45 4.77 C0 3 0 3 0 0 Z " fill="#EFEFEF" transform="translate(43,844)"/><path d="M0 0 C0.33 0 0.66 0 1 0 C1.79 25.07 -5.02 47.36 -12.46 71.12 C-12.77 72.11 -13.08 73.09 -13.4 74.11 C-14.96 79.09 -16.53 84.06 -18.11 89.04 C-22.07 101.54 -25.69 113.90 -27 127 C-28.48 127.50 -28.48 127.50 -30 128 C-29.84 120.94 -28.75 114.33 -26.92 107.54 C-26.70 106.73 -26.48 105.91 -26.26 105.07 C-23.06 93.28 -19.25 81.67 -15.51 70.05 C-6.78 43.11 -6.78 43.11 -2.69 15.19 C-2.62 14.19 -2.54 13.18 -2.47 12.15 C-2.30 9.77 -2.14 7.38 -2 5 C-1.67 5 -1.34 5 -1 5 C-0.67 3.35 -0.34 1.7 0 0 Z " fill="#E8E7E8" transform="translate(97,593)"/><path d="M0 0 C0.33 0 0.66 0 1 0 C1.60 19.14 -0.29 41.58 -9 59 C-9.66 59 -10.32 59 -11 59 C-10.06 54.04 -9.07 49.12 -7.78 44.24 C-4.37 31.20 -2.79 18.44 -2 5 C-1.67 5 -1.34 5 -1 5 C-0.67 3.35 -0.34 1.7 0 0 Z " fill="#E9E9E9" transform="translate(97,593)"/><path d="M0 0 C0.99 0 1.98 0 3 0 C3 14.85 3 29.7 3 45 C2.34 44.67 1.68 44.34 1 44 C-1.03 34.96 -1.18 25.60 -1.19 16.38 C-1.19 15.44 -1.19 14.50 -1.19 13.54 C-1.15 8.92 -0.94 4.54 0 0 Z " fill="#E5E5E5" transform="translate(753,0)"/><path d="M0 0 C0.99 0 1.98 0 3 0 C3.05 3.95 3.09 7.90 3.11 11.85 C3.12 13.86 3.15 15.87 3.18 17.87 C3.18 19.13 3.19 20.39 3.19 21.68 C3.21 22.84 3.22 24.00 3.23 25.20 C3 28 3 28 1 30 C-0.04 26.59 -0.12 23.48 -0.10 19.92 C-0.09 18.76 -0.09 17.60 -0.09 16.41 C-0.08 15.2 -0.07 13.99 -0.06 12.75 C-0.06 11.53 -0.05 10.31 -0.05 9.05 C-0.04 6.03 -0.02 3.02 0 0 Z " fill="#F3F2F3" transform="translate(479,0)"/><path d="M0 0 C0.33 0.66 0.66 1.32 1 2 C-0.23 4.83 -1.99 7.39 -3.62 10 C-4.07 10.74 -4.50 11.47 -4.96 12.23 C-8.32 17.64 -8.32 17.64 -11.84 19.5 C-12.91 19.75 -12.91 19.75 -14 20 C-12.53 15.90 -10.53 12.50 -8.12 8.88 C-7.45 7.84 -6.77 6.81 -6.07 5.74 C-4.20 3.26 -2.59 1.68 0 0 Z " fill="#EAEAEA" transform="translate(913,531)"/><path d="M0 0 C0.33 0 0.66 0 1 0 C1.03 2.83 1.05 5.67 1.06 8.5 C1.07 9.29 1.08 10.08 1.09 10.90 C1.11 16.03 0.74 20.92 0 26 C-0.99 25.67 -1.98 25.34 -3 25 C-2.67 18.4 -2.34 11.8 -2 5 C-1.67 5 -1.34 5 -1 5 C-0.67 3.35 -0.34 1.7 0 0 Z " fill="#CECDCD" transform="translate(97,593)"/><path d="M0 0 C3 2 3 2 3.43 3.88 C3.46 4.62 3.48 5.37 3.51 6.13 C3.55 6.94 3.58 7.74 3.62 8.57 C3.64 9.42 3.66 10.26 3.69 11.12 C3.72 11.97 3.76 12.82 3.79 13.70 C3.87 15.80 3.94 17.90 4 20 C3.34 20 2.68 20 2 20 C1.67 20.66 1.34 21.32 1 22 C0.09 14.64 -0.12 7.41 0 0 Z " fill="#E3E4E4" transform="translate(479,26)"/><path d="M0 0 C0.33 1.32 0.66 2.64 1 4 C-4.94 7.46 -4.94 7.46 -11 11 C-11 10.01 -11 9.02 -11 8 C-7.63 4.92 -3.82 2.49 0 0 Z " fill="#EAEBEA" transform="translate(1023,74)"/><path d="M0 0 C1.43 3.79 0.51 6.07 -0.94 9.75 C-1.32 10.73 -1.70 11.72 -2.09 12.73 C-2.39 13.48 -2.69 14.23 -3 15 C-3.66 15 -4.32 15 -5 15 C-3.97 9.55 -2.75 4.88 0 0 Z " fill="#F0F0F0" transform="translate(79,675)"/><path d="M0 0 C0.99 0.33 1.98 0.66 3 1 C2.67 4.3 2.34 7.6 2 11 C1.01 11.33 0.02 11.66 -1 12 C-0.67 8.04 -0.34 4.08 0 0 Z " fill="#DDDDDD" transform="translate(68,709)"/><path d="M0 0 C1.19 3.43 0.80 5.38 -0.44 8.75 C-0.87 9.95 -0.87 9.95 -1.31 11.17 C-1.54 11.78 -1.76 12.38 -2 13 C-2.66 13 -3.32 13 -4 13 C-3.72 11.39 -3.42 9.79 -3.12 8.19 C-2.96 7.29 -2.8 6.40 -2.63 5.48 C-2 3 -2 3 0 0 Z " fill="#F0F1F1" transform="translate(90,639)"/><path d="M0 0 C0.33 0 0.66 0 1 0 C0.67 4.29 0.34 8.58 0 13 C-0.99 12.67 -1.98 12.34 -3 12 C-2.14 3.43 -2.14 3.43 0 0 Z " fill="#D3D3D4" transform="translate(97,606)"/><path d="M0 0 C0.33 0.66 0.66 1.32 1 2 C-0.28 3.71 -1.62 5.37 -3 7 C-3.66 7 -4.32 7 -5 7 C-3.75 3.35 -3.33 2.22 0 0 Z " fill="#F6F6F5" transform="translate(267,982)"/><path d="M0 0 C0.33 0 0.66 0 1 0 C0.67 2.97 0.34 5.94 0 9 C-0.66 9 -1.32 9 -2 9 C-2.25 3.38 -2.25 3.38 0 0 Z " fill="#F2F2F2" transform="translate(71,701)"/></g><g id="text-layer"><text class="main-text" x="540" y="480">COMING</text><text class="main-text" x="540" y="650">SOON</text><text class="sub-text" x="540" y="790">BIAY TLACS YOT</text><text class="sub-text" x="540" y="840">MATH LINLAING</text></g></svg>