<?xml version="1.0" encoding="UTF-8"?>
<!-- Generator: visioncortex VTracer 0.6.4 -->
<svg version="1.1" xmlns="http://www.w3.org/2000/svg" width="1024" height="1024">
<path d="M0 0 C337.92 0 675.84 0 1024 0 C1024 337.92 1024 675.84 1024 1024 C686.08 1024 348.16 1024 0 1024 C0 686.08 0 348.16 0 0 Z " fill="#0A0A0A" transform="translate(0,0)"/>
<path d="M0 0 C0.994 -0.005 1.988 -0.01 3.013 -0.015 C4.108 -0.016 5.203 -0.016 6.332 -0.017 C7.493 -0.021 8.654 -0.026 9.851 -0.03 C13.08 -0.041 16.309 -0.048 19.538 -0.052 C23.018 -0.058 26.499 -0.07 29.98 -0.081 C38.391 -0.105 46.802 -0.12 55.214 -0.133 C57.59 -0.136 59.967 -0.14 62.344 -0.144 C77.11 -0.17 91.876 -0.192 106.643 -0.204 C110.064 -0.207 113.484 -0.21 116.905 -0.213 C118.181 -0.214 118.181 -0.214 119.482 -0.215 C133.24 -0.228 146.998 -0.261 160.756 -0.303 C174.89 -0.345 189.023 -0.369 203.156 -0.374 C211.088 -0.378 219.02 -0.389 226.952 -0.422 C233.711 -0.45 240.469 -0.461 247.228 -0.45 C250.673 -0.445 254.117 -0.448 257.562 -0.472 C287.737 -0.656 287.737 -0.656 300.201 9.137 C301.022 9.729 301.022 9.729 301.861 10.332 C311.419 17.685 316.954 29.466 319.201 41.137 C320.919 56.073 318.02 71.661 308.951 83.887 C302.492 91.587 295.536 97.308 286.201 101.137 C285.396 101.482 284.591 101.828 283.761 102.183 C278.742 103.528 273.946 103.419 268.771 103.404 C267.614 103.409 266.457 103.414 265.265 103.418 C262.062 103.429 258.859 103.43 255.655 103.428 C252.197 103.427 248.739 103.438 245.281 103.448 C238.508 103.464 231.735 103.47 224.962 103.471 C219.455 103.472 213.947 103.476 208.44 103.483 C192.815 103.5 177.191 103.509 161.566 103.508 C160.724 103.508 159.882 103.508 159.014 103.508 C157.75 103.507 157.75 103.507 156.46 103.507 C142.804 103.507 129.148 103.526 115.492 103.554 C101.46 103.583 87.429 103.596 73.397 103.595 C65.523 103.594 57.65 103.6 49.776 103.621 C43.07 103.639 36.365 103.644 29.66 103.63 C26.242 103.624 22.824 103.623 19.406 103.641 C15.692 103.656 11.979 103.647 8.265 103.631 C6.661 103.647 6.661 103.647 5.026 103.663 C-7.665 103.547 -17.861 98.686 -27.026 90.035 C-37.549 78.881 -41.338 65.764 -41.237 50.7 C-41.257 49.644 -41.277 48.589 -41.297 47.502 C-41.289 34.052 -35.813 22.332 -26.799 12.45 C-19.947 5.867 -9.607 0.026 0 0 Z " fill="#825367" transform="translate(372.7993984222412,701.8629856109619)"/>
<path d="M0 0 C0.994 -0.005 1.988 -0.01 3.013 -0.015 C4.108 -0.016 5.203 -0.016 6.332 -0.017 C7.493 -0.021 8.654 -0.026 9.851 -0.03 C13.08 -0.041 16.309 -0.048 19.538 -0.052 C23.018 -0.058 26.499 -0.07 29.98 -0.081 C38.391 -0.105 46.802 -0.12 55.214 -0.133 C57.59 -0.136 59.967 -0.14 62.344 -0.144 C77.11 -0.17 91.876 -0.192 106.643 -0.204 C110.064 -0.207 113.484 -0.21 116.905 -0.213 C118.181 -0.214 118.181 -0.214 119.482 -0.215 C133.24 -0.228 146.998 -0.261 160.756 -0.303 C174.89 -0.345 189.023 -0.369 203.156 -0.374 C211.088 -0.378 219.02 -0.389 226.952 -0.422 C233.711 -0.45 240.469 -0.461 247.228 -0.45 C250.673 -0.445 254.117 -0.448 257.562 -0.472 C287.737 -0.656 287.737 -0.656 300.201 9.137 C301.022 9.729 301.022 9.729 301.861 10.332 C311.419 17.685 316.954 29.466 319.201 41.137 C320.919 56.073 318.02 71.661 308.951 83.887 C302.492 91.587 295.536 97.308 286.201 101.137 C285.396 101.482 284.591 101.828 283.761 102.183 C278.742 103.528 273.946 103.419 268.771 103.404 C267.614 103.409 266.457 103.414 265.265 103.418 C262.062 103.429 258.859 103.43 255.655 103.428 C252.197 103.427 248.739 103.438 245.281 103.448 C238.508 103.464 231.735 103.47 224.962 103.471 C219.455 103.472 213.947 103.476 208.44 103.483 C192.815 103.5 177.191 103.509 161.566 103.508 C160.724 103.508 159.882 103.508 159.014 103.508 C157.75 103.507 157.75 103.507 156.46 103.507 C142.804 103.507 129.148 103.526 115.492 103.554 C101.46 103.583 87.429 103.596 73.397 103.595 C65.523 103.594 57.65 103.6 49.776 103.621 C43.07 103.639 36.365 103.644 29.66 103.63 C26.242 103.624 22.824 103.623 19.406 103.641 C15.692 103.656 11.979 103.647 8.265 103.631 C6.661 103.647 6.661 103.647 5.026 103.663 C-7.665 103.547 -17.861 98.686 -27.026 90.035 C-37.549 78.881 -41.338 65.764 -41.237 50.7 C-41.257 49.644 -41.277 48.589 -41.297 47.502 C-41.289 34.052 -35.813 22.332 -26.799 12.45 C-19.947 5.867 -9.607 0.026 0 0 Z M-18.799 21.137 C-27.611 33.398 -30.514 45.395 -28.331 60.348 C-25.874 71.725 -20.296 80.363 -10.799 87.137 C-4.745 90.533 1.081 92.254 8.043 92.274 C9.472 92.282 9.472 92.282 10.931 92.289 C11.969 92.29 13.008 92.29 14.079 92.291 C15.188 92.295 16.298 92.3 17.442 92.304 C21.169 92.318 24.896 92.324 28.622 92.33 C31.292 92.338 33.961 92.346 36.63 92.355 C44.646 92.379 52.662 92.394 60.678 92.407 C62.943 92.41 65.209 92.414 67.475 92.418 C81.557 92.444 95.64 92.466 109.722 92.478 C112.982 92.481 116.242 92.484 119.502 92.487 C120.312 92.488 121.122 92.489 121.957 92.489 C135.072 92.502 148.186 92.535 161.301 92.577 C174.779 92.619 188.257 92.643 201.735 92.648 C209.297 92.652 216.859 92.663 224.42 92.696 C230.863 92.724 237.305 92.735 243.747 92.724 C247.03 92.719 250.312 92.724 253.595 92.747 C272.052 93.159 272.052 93.159 289.201 87.137 C290.516 86.407 290.516 86.407 291.858 85.661 C299.907 80.942 304.686 74.031 307.201 65.137 C310.344 52.563 307.929 40.27 302.033 29.008 C296.362 20.121 287.653 15.035 277.602 12.572 C273.037 11.745 268.454 11.86 263.828 11.876 C262.138 11.871 262.138 11.871 260.413 11.865 C256.647 11.854 252.881 11.858 249.115 11.862 C246.411 11.859 243.707 11.853 241.003 11.847 C234.426 11.834 227.849 11.832 221.272 11.835 C215.924 11.836 210.576 11.835 205.229 11.83 C204.467 11.83 203.705 11.829 202.92 11.829 C201.371 11.827 199.823 11.826 198.275 11.825 C183.766 11.814 169.256 11.816 154.747 11.822 C141.485 11.828 128.223 11.816 114.961 11.797 C101.33 11.778 87.7 11.77 74.069 11.773 C66.422 11.775 58.775 11.773 51.127 11.759 C44.617 11.747 38.107 11.745 31.597 11.757 C28.278 11.763 24.959 11.763 21.641 11.752 C18.036 11.742 14.432 11.75 10.827 11.763 C9.788 11.755 8.749 11.748 7.678 11.74 C-2.239 11.814 -11.746 13.688 -18.799 21.137 Z " fill="#905D73" transform="translate(372.7993984222412,701.8629856109619)"/>
</svg>
