<?xml version="1.0" encoding="UTF-8"?>
<!-- Generator: visioncortex VTracer 0.6.4 -->
<svg version="1.1" xmlns="http://www.w3.org/2000/svg" width="1024" height="1024">
<path d="M0 0 C337.92 0 675.84 0 1024 0 C1024 337.92 1024 675.84 1024 1024 C686.08 1024 348.16 1024 0 1024 C0 686.08 0 348.16 0 0 Z " fill="#001E37" transform="translate(0,0)"/>
<path d="M0 0 C0 192.06 0 384.12 0 582 C-280.17 582 -560.34 582 -849 582 C-849 505.44 -849 428.88 -849 350 C-849.343 300.179 -849.343 300.179 -849.777 250.359 C-850.197 204.908 -850.093 159.453 -850 114 C-848.884 114.953 -847.768 115.906 -846.652 116.859 C-846.031 117.39 -845.41 117.921 -844.769 118.468 C-842.737 120.228 -840.792 121.993 -839 124 C-839 124.66 -839 125.32 -839 126 C-838.409 126.26 -837.818 126.521 -837.21 126.789 C-834.854 128.08 -833.45 129.401 -831.645 131.379 C-831.026 132.049 -830.407 132.719 -829.77 133.41 C-829.124 134.12 -828.478 134.831 -827.812 135.562 C-826.475 137.016 -825.137 138.467 -823.797 139.918 C-823.149 140.62 -822.501 141.321 -821.834 142.044 C-818.807 145.272 -815.643 148.345 -812.441 151.398 C-811 153 -811 153 -811 155 C-810.01 155.33 -809.02 155.66 -808 156 C-806.58 157.443 -806.58 157.443 -805.031 159.344 C-802.014 162.9 -798.841 166.249 -795.531 169.531 C-794.8 170.258 -794.8 170.258 -794.053 171 C-792.537 172.502 -791.019 174.001 -789.5 175.5 C-783.636 181.285 -777.82 187.045 -772.466 193.315 C-769.745 196.442 -766.713 199.252 -763.723 202.117 C-762 204 -762 204 -762 206 C-761.423 206.24 -760.845 206.48 -760.25 206.727 C-757.546 208.257 -756.018 210.013 -754 212.375 C-749.811 217.172 -745.399 221.653 -740.811 226.064 C-739.504 227.34 -738.247 228.666 -737 230 C-737 230.66 -737 231.32 -737 232 C-736.34 232 -735.68 232 -735 232 C-733.801 233.223 -733.801 233.223 -732.312 235.062 C-727.865 240.336 -722.928 245.097 -717.98 249.895 C-717.017 250.84 -717.017 250.84 -716.035 251.805 C-715.451 252.372 -714.867 252.939 -714.266 253.523 C-713 255 -713 255 -713 257 C-712.34 257 -711.68 257 -711 257 C-709.766 258.258 -709.766 258.258 -708.25 260.125 C-704.015 265.146 -699.341 269.687 -694.624 274.25 C-694.028 274.836 -693.431 275.421 -692.816 276.023 C-692.274 276.549 -691.732 277.074 -691.174 277.615 C-690 279 -690 279 -690 281 C-689.432 281.231 -688.863 281.461 -688.277 281.699 C-685.404 283.341 -683.74 285.313 -681.562 287.812 C-675.189 294.99 -668.358 301.699 -661.526 308.437 C-657.038 312.882 -652.715 317.376 -648.604 322.173 C-646.042 325.09 -643.276 327.788 -640.5 330.5 C-637.091 333.867 -633.716 337.208 -630.625 340.875 C-627.148 344.982 -623.32 348.717 -619.5 352.5 C-615.122 356.836 -610.856 361.166 -606.895 365.891 C-603.531 369.635 -599.886 373.115 -596.265 376.61 C-594.807 378.037 -593.399 379.515 -592 381 C-592 381.66 -592 382.32 -592 383 C-591.01 383.33 -590.02 383.66 -589 384 C-587.668 385.355 -587.668 385.355 -586.188 387.188 C-582.114 392.01 -577.658 396.399 -573.151 400.811 C-569.712 404.201 -566.505 407.692 -563.394 411.383 C-561.382 413.717 -559.208 415.852 -557 418 C-554.39 420.557 -551.788 423.122 -549.188 425.688 C-548.495 426.364 -547.802 427.04 -547.088 427.736 C-546.434 428.384 -545.779 429.032 -545.105 429.699 C-544.509 430.285 -543.912 430.871 -543.298 431.475 C-542 433 -542 433 -542 435 C-541.34 435 -540.68 435 -540 435 C-540 435.66 -540 436.32 -540 437 C-539.34 437 -538.68 437 -538 437 C-536.766 438.258 -536.766 438.258 -535.25 440.125 C-531.152 444.965 -526.68 449.378 -522.151 453.811 C-518.767 457.147 -515.581 460.557 -512.557 464.224 C-510.478 466.596 -508.244 468.784 -506 471 C-505.021 471.973 -504.043 472.946 -503.065 473.919 C-502.547 474.434 -502.03 474.948 -501.496 475.478 C-499.153 477.808 -496.812 480.141 -494.472 482.473 C-493.245 483.695 -492.018 484.916 -490.789 486.135 C-478.681 498.161 -478.681 498.161 -473.383 504.388 C-471.42 506.676 -469.322 508.811 -467.188 510.938 C-466.439 511.689 -465.69 512.441 -464.918 513.215 C-463.118 515.059 -463.118 515.059 -461 516 C-461 516.99 -461 517.98 -461 519 C-430.57 512.302 -400.781 504.316 -371.71 493.024 C-367.843 491.563 -363.933 490.272 -360 489 C-360 488.34 -360 487.68 -360 487 C-353.649 484.079 -353.649 484.079 -350.293 483.672 C-345.873 482.77 -342.377 480.835 -338.438 478.688 C-337.612 478.244 -336.788 477.8 -335.938 477.343 C-333.285 475.908 -330.642 474.456 -328 473 C-327.133 472.526 -326.265 472.051 -325.372 471.562 C-309.031 462.589 -293.62 452.575 -279 441 C-278.055 440.252 -277.11 439.505 -276.137 438.734 C-259.054 424.894 -242.426 409.454 -229 392 C-227.84 390.6 -227.84 390.6 -226.656 389.172 C-209.747 368.67 -196.422 345.905 -185 322 C-184.387 320.719 -184.387 320.719 -183.761 319.412 C-176.608 304.176 -171.729 287.878 -166.601 271.874 C-166.028 270.088 -165.45 268.303 -164.871 266.518 C-162.626 259.448 -160.911 252.404 -159.5 245.125 C-157.921 237.267 -156.17 229.559 -154.012 221.84 C-153.033 218.126 -152.204 214.407 -151.399 210.653 C-146.519 188.078 -140.025 165.852 -130 145 C-129.532 144.012 -129.532 144.012 -129.054 143.003 C-119.109 122.326 -104.766 103.986 -89.927 86.629 C-86.46 82.574 -83.126 78.43 -79.852 74.219 C-77.706 71.648 -75.394 69.341 -73 67 C-71.081 65.107 -69.165 63.21 -67.25 61.312 C-66.756 60.827 -66.263 60.342 -65.754 59.842 C-63.034 57.182 -63.034 57.182 -61 54 C-60.34 54 -59.68 54 -59 54 C-58.764 53.426 -58.528 52.853 -58.285 52.262 C-56.712 49.493 -54.852 47.887 -52.438 45.812 C-49.012 42.814 -45.732 39.767 -42.562 36.5 C-38.56 32.441 -34.277 28.886 -29.832 25.324 C-25.949 22.137 -22.266 18.752 -18.57 15.352 C-16.306 13.28 -14.011 11.255 -11.688 9.25 C-9.217 7.115 -6.895 4.909 -4.625 2.562 C-2 0 -2 0 0 0 Z " fill="#004454" transform="translate(940,442)"/>
<path d="M0 0 C27.06 0 54.12 0 82 0 C82 337.92 82 675.84 82 1024 C54.94 1024 27.88 1024 0 1024 C0 686.08 0 348.16 0 0 Z " fill="#F7F0E7" transform="translate(942,0)"/>
<path d="M0 0 C26.4 0 52.8 0 80 0 C80 337.92 80 675.84 80 1024 C53.6 1024 27.2 1024 0 1024 C0 686.08 0 348.16 0 0 Z " fill="#DFD7D1" transform="translate(0,0)"/>
<path d="M0 0 C1.087 0.004 1.087 0.004 2.196 0.009 C3.343 0.008 3.343 0.008 4.513 0.006 C7.094 0.005 9.675 0.01 12.256 0.016 C14.099 0.016 15.941 0.016 17.784 0.015 C22.802 0.015 27.82 0.021 32.839 0.028 C38.077 0.034 43.316 0.035 48.554 0.036 C58.481 0.039 68.408 0.047 78.335 0.057 C89.634 0.068 100.932 0.074 112.231 0.079 C135.479 0.089 158.728 0.107 181.977 0.129 C183.109 2.529 184.239 4.93 185.368 7.331 C185.687 8.007 186.006 8.683 186.335 9.379 C188.549 14.099 190.468 18.781 191.852 23.817 C192.052 24.53 192.253 25.242 192.46 25.977 C194.088 32.031 194.861 37.854 194.977 44.129 C195.001 44.774 195.025 45.419 195.05 46.083 C195.634 61.785 194.341 77.596 187.977 92.129 C187.692 92.856 187.407 93.583 187.113 94.332 C182.228 106.297 174.506 119.371 163.977 127.129 C163.255 127.872 162.533 128.614 161.789 129.379 C141.726 148.996 114.485 157.744 86.779 157.478 C59.201 156.737 34.119 145.771 13.977 127.129 C13.217 126.439 12.458 125.75 11.676 125.039 C-2.376 111.697 -10.902 94.549 -16.023 76.129 C-16.219 75.458 -16.415 74.786 -16.617 74.094 C-22.989 49.622 -16.937 23.221 -6.023 1.129 C-4.337 -0.558 -2.251 0.007 0 0 Z " fill="#00545F" transform="translate(675.023453772068,-0.12908130884170532)"/>
<path d="M0 0 C27.39 0 54.78 0 83 0 C83 82.83 83 165.66 83 251 C78.352 247.016 73.88 243.062 69.562 238.75 C69.022 238.221 68.481 237.693 67.924 237.148 C66.575 235.805 65.282 234.407 64 233 C64 232.34 64 231.68 64 231 C63.404 230.743 62.809 230.487 62.195 230.223 C59.803 228.89 58.573 227.566 56.875 225.438 C54.791 222.79 54.791 222.79 52 221 C52 220.34 52 219.68 52 219 C51.098 218.605 51.098 218.605 50.178 218.202 C47.871 216.929 46.789 215.814 45.152 213.773 C41.695 209.688 37.994 205.923 34.191 202.164 C33.576 201.554 32.961 200.945 32.327 200.317 C29.748 197.765 27.165 195.218 24.578 192.674 C22.674 190.8 20.776 188.92 18.879 187.039 C18.288 186.462 17.698 185.885 17.089 185.29 C15.688 183.898 14.338 182.453 13 181 C13 180.34 13 179.68 13 179 C12.34 179 11.68 179 11 179 C9.524 177.502 9.524 177.502 7.821 175.448 C4.349 171.367 0.682 167.583 -3.141 163.832 C-4.471 162.514 -5.802 161.195 -7.133 159.877 C-9.2 157.834 -11.269 155.794 -13.341 153.755 C-15.362 151.764 -17.377 149.767 -19.391 147.77 C-20.009 147.164 -20.628 146.559 -21.266 145.935 C-24.389 142.83 -26.935 139.945 -29 136 C-28.374 135.529 -27.747 135.059 -27.102 134.574 C-25.876 133.64 -25.876 133.64 -24.625 132.688 C-23.813 132.073 -23.001 131.458 -22.164 130.824 C-19.802 129.005 -19.802 129.005 -18 126 C-17.34 126 -16.68 126 -16 126 C-15.67 125.01 -15.34 124.02 -15 123 C-13.684 121.65 -12.348 120.319 -11 119 C-8.187 115.435 -5.587 111.731 -3 108 C-2.459 107.227 -1.917 106.453 -1.359 105.656 C12.614 84.182 14.987 54.824 10.463 30.098 C8.434 20.903 5.196 11.945 0.765 3.646 C0 2 0 2 0 0 Z " fill="#003247" transform="translate(857,0)"/>
<path d="M0 0 C2.97 0 5.94 0 9 0 C9 337.92 9 675.84 9 1024 C6.03 1024 3.06 1024 0 1024 C0 686.08 0 348.16 0 0 Z " fill="#524D49" transform="translate(80,0)"/>
<path d="M0 0 C1.32 0 2.64 0 4 0 C4 337.92 4 675.84 4 1024 C2.68 1024 1.36 1024 0 1024 C0 686.08 0 348.16 0 0 Z " fill="#928E8B" transform="translate(80,0)"/>
<path d="M0 0 C1.65 0 3.3 0 5 0 C5 337.92 5 675.84 5 1024 C4.34 1024 3.68 1024 3 1024 C3.008 1023.069 3.008 1023.069 3.016 1022.12 C3.037 1019.309 3.05 1016.498 3.062 1013.688 C3.071 1012.711 3.079 1011.735 3.088 1010.729 C3.091 1009.791 3.094 1008.853 3.098 1007.887 C3.103 1007.023 3.108 1006.159 3.114 1005.268 C3.093 1002.833 3.093 1002.833 2 1000 C1.685 994.948 1.959 989.957 2.562 984.938 C3.113 980.114 2.696 975.797 2 971 C1.67 971 1.34 971 1 971 C0.973 969.521 0.954 968.042 0.938 966.562 C0.926 965.739 0.914 964.915 0.902 964.066 C1 962 1 962 2 961 C2.365 952.879 2 944.827 1.223 936.742 C0.904 932.815 0.934 928.938 1 925 C1.66 925 2.32 925 3 925 C2.674 924.486 2.348 923.971 2.012 923.441 C0.66 920.181 0.772 917.457 0.812 913.938 C0.819 912.709 0.825 911.481 0.832 910.215 C1 907 1 907 2 904 C1.67 903.67 1.34 903.34 1 903 C0.898 900.032 0.86 897.093 0.875 894.125 C0.876 893.26 0.877 892.396 0.879 891.505 C0.912 886.021 1.238 880.651 1.848 875.199 C2.093 872.786 2.093 872.786 1.5 869.562 C1.051 866.367 1.119 864.124 1.46 860.958 C2.232 852.345 2.144 843.742 2.133 835.102 C2.133 833.295 2.134 831.488 2.136 829.681 C2.137 825.917 2.135 822.154 2.13 818.39 C2.125 813.575 2.128 808.76 2.134 803.945 C2.138 800.224 2.136 796.502 2.134 792.781 C2.133 791.005 2.134 789.229 2.136 787.454 C2.139 784.975 2.135 782.497 2.129 780.018 C2.132 778.929 2.132 778.929 2.136 777.817 C2.119 773.769 1.745 769.975 1 766 C0.914 764.231 0.87 762.459 0.875 760.688 C0.872 759.825 0.87 758.963 0.867 758.074 C1 756 1 756 2 755 C2.14 750.732 2.153 747.119 1 743 C1.33 742.67 1.66 742.34 2 742 C2.088 740 2.107 737.998 2.098 735.996 C2.093 734.174 2.093 734.174 2.088 732.314 C2.08 731.035 2.071 729.756 2.062 728.438 C2.058 727.154 2.053 725.871 2.049 724.549 C2.037 721.366 2.021 718.183 2 715 C1.34 715 0.68 715 0 715 C0.142 712.479 0.289 709.958 0.438 707.438 C0.477 706.733 0.516 706.029 0.557 705.303 C0.761 701.889 1.062 698.607 1.598 695.223 C2.179 692.228 2.179 692.228 1.533 690.282 C0.757 686.96 0.861 683.658 0.871 680.266 C0.869 679.491 0.867 678.717 0.865 677.919 C0.861 675.363 0.864 672.806 0.867 670.25 C0.867 668.472 0.866 666.693 0.864 664.915 C0.863 661.189 0.865 657.464 0.87 653.738 C0.875 648.963 0.872 644.188 0.866 639.413 C0.862 635.742 0.864 632.07 0.866 628.398 C0.867 626.638 0.866 624.877 0.864 623.116 C0.861 620.656 0.865 618.195 0.871 615.734 C0.869 615.007 0.867 614.28 0.864 613.53 C0.886 608.396 0.886 608.396 1.571 606.017 C2.145 603.319 1.653 600.898 1.264 598.196 C0.815 594.463 0.878 590.74 0.902 586.985 C0.904 586.123 0.905 585.26 0.907 584.371 C0.911 582.512 0.917 580.653 0.925 578.794 C0.938 575.852 0.944 572.91 0.949 569.967 C0.96 563.728 0.98 557.489 1 551.25 C1.024 544.004 1.044 536.758 1.056 529.512 C1.062 526.614 1.075 523.716 1.088 520.817 C1.091 519.044 1.095 517.271 1.098 515.497 C1.103 514.692 1.108 513.887 1.113 513.057 C1.146 508.981 1.146 508.981 0.462 504.985 C-0.249 501.928 0.552 499.079 1 496 C0.505 494.515 0.505 494.515 0 493 C0.241 490.989 0.484 488.979 0.738 486.969 C1.325 480.321 1.1 473.607 1.062 466.938 C1.057 465.389 1.053 463.84 1.049 462.291 C1.038 458.527 1.021 454.764 1 451 C0.67 451 0.34 451 0 451 C-0.085 446.302 -0.114 441.785 0.562 437.125 C0.99 434.07 0.725 432.877 0 430 C-0.09 428.294 -0.13 426.584 -0.125 424.875 C-0.128 424.006 -0.13 423.137 -0.133 422.242 C0 420 0 420 1 418 C1.072 415.282 1.093 412.591 1.062 409.875 C1.058 409.121 1.053 408.367 1.049 407.59 C1.037 405.727 1.019 403.863 1 402 C0.67 402 0.34 402 0 402 C-0.027 399.417 -0.047 396.833 -0.062 394.25 C-0.071 393.52 -0.079 392.791 -0.088 392.039 C-0.104 388.513 0.047 385.39 1 382 C0.67 382 0.34 382 0 382 C-0.025 376.822 -0.043 371.644 -0.055 366.467 C-0.06 364.706 -0.067 362.946 -0.075 361.185 C-0.088 358.651 -0.093 356.116 -0.098 353.582 C-0.103 352.799 -0.108 352.015 -0.113 351.208 C-0.114 347.333 0.122 343.774 1 340 C0.911 337.959 0.911 337.959 0.562 335.938 C-0.581 326.837 -0.124 318.289 1.66 309.301 C1.945 306.533 1.893 304.598 1.528 301.895 C0.953 297.039 0.866 292.267 0.886 287.383 C0.886 286.457 0.886 285.531 0.886 284.577 C0.887 281.498 0.895 278.419 0.902 275.34 C0.904 273.123 0.906 270.907 0.907 268.691 C0.91 263.93 0.916 259.17 0.925 254.41 C0.938 246.89 0.944 239.37 0.949 231.85 C0.956 221.315 0.966 210.78 0.979 200.246 C0.981 199.244 0.981 199.244 0.982 198.223 C0.988 193.482 0.994 188.741 1 184 C1.007 178.57 1.014 173.141 1.021 167.711 C1.021 167.042 1.022 166.373 1.023 165.684 C1.037 154.543 1.046 143.402 1.053 132.26 C1.058 124.777 1.068 117.293 1.082 109.809 C1.089 105.169 1.093 100.529 1.095 95.889 C1.097 93.728 1.1 91.568 1.106 89.408 C1.113 86.472 1.114 83.537 1.114 80.602 C1.117 79.735 1.121 78.869 1.124 77.976 C1.489 74.181 1.489 74.181 0 71 C-0.094 68.791 -0.117 66.58 -0.114 64.369 C-0.114 63.676 -0.114 62.984 -0.114 62.27 C-0.113 59.97 -0.105 57.671 -0.098 55.371 C-0.096 53.781 -0.094 52.19 -0.093 50.6 C-0.09 46.406 -0.08 42.212 -0.069 38.018 C-0.058 33.742 -0.054 29.466 -0.049 25.189 C-0.038 16.793 -0.021 8.396 0 0 Z " fill="#C6BFB9" transform="translate(75,0)"/>
<path d="M0 0 C0.33 0 0.66 0 1 0 C1 337.92 1 675.84 1 1024 C0.34 1024 -0.32 1024 -1 1024 C-0.995 1023.38 -0.99 1022.759 -0.984 1022.12 C-0.963 1019.309 -0.95 1016.498 -0.938 1013.688 C-0.929 1012.711 -0.921 1011.735 -0.912 1010.729 C-0.909 1009.791 -0.906 1008.853 -0.902 1007.887 C-0.897 1007.023 -0.892 1006.159 -0.886 1005.268 C-0.907 1002.833 -0.907 1002.833 -2 1000 C-2.094 998.419 -2.13 996.834 -2.125 995.25 C-2.128 994.43 -2.13 993.61 -2.133 992.766 C-2 990 -2 990 -1.5 986.775 C-1.01 983.073 -0.873 979.56 -0.869 975.828 C-0.867 975.136 -0.865 974.444 -0.863 973.732 C-0.858 971.417 -0.86 969.102 -0.861 966.787 C-0.859 965.102 -0.856 963.418 -0.853 961.733 C-0.845 957.088 -0.843 952.444 -0.843 947.799 C-0.841 942.752 -0.834 937.705 -0.827 932.658 C-0.816 923.807 -0.808 914.956 -0.803 906.106 C-0.796 892.945 -0.783 879.784 -0.769 866.623 C-0.745 844.486 -0.726 822.349 -0.709 800.212 C-0.693 778.289 -0.674 756.365 -0.653 734.441 C-0.652 733.76 -0.652 733.079 -0.651 732.378 C-0.645 726.16 -0.639 719.942 -0.633 713.724 C-0.618 698.267 -0.603 682.81 -0.588 667.352 C-0.587 666.296 -0.587 666.296 -0.586 665.219 C-0.554 630.976 -0.526 596.732 -0.497 562.489 C-0.488 550.605 -0.478 538.722 -0.468 526.838 C-0.467 526.101 -0.467 525.364 -0.466 524.604 C-0.437 490.344 -0.406 456.084 -0.374 421.823 C-0.372 419.599 -0.37 417.375 -0.368 415.151 C-0.355 400.411 -0.341 385.672 -0.327 370.933 C-0.3 341.605 -0.273 312.277 -0.246 282.949 C-0.244 281.552 -0.243 280.156 -0.242 278.759 C-0.162 191.775 -0.088 104.792 0 0 Z " fill="#B6AFAA" transform="translate(79,0)"/>
<path d="M0 0 C0.33 0 0.66 0 1 0 C1 145.2 1 290.4 1 440 C0.67 440 0.34 440 0 440 C-0.33 437.03 -0.66 434.06 -1 431 C-1.33 431 -1.66 431 -2 431 C-2.027 429.521 -2.046 428.042 -2.062 426.562 C-2.074 425.739 -2.086 424.915 -2.098 424.066 C-2 422 -2 422 -1 421 C-0.635 412.879 -1 404.827 -1.777 396.742 C-2.096 392.815 -2.066 388.938 -2 385 C-1.34 385 -0.68 385 0 385 C-0.326 384.486 -0.652 383.971 -0.988 383.441 C-2.34 380.181 -2.228 377.457 -2.188 373.938 C-2.181 372.709 -2.175 371.481 -2.168 370.215 C-2 367 -2 367 -1 364 C-1.33 363.67 -1.66 363.34 -2 363 C-2.102 360.032 -2.14 357.093 -2.125 354.125 C-2.124 353.26 -2.123 352.396 -2.121 351.505 C-2.088 346.021 -1.762 340.651 -1.152 335.199 C-0.907 332.786 -0.907 332.786 -1.5 329.562 C-1.949 326.367 -1.881 324.124 -1.54 320.958 C-0.768 312.345 -0.856 303.742 -0.867 295.102 C-0.867 293.295 -0.866 291.488 -0.864 289.681 C-0.863 285.917 -0.865 282.154 -0.87 278.39 C-0.875 273.575 -0.872 268.76 -0.866 263.945 C-0.862 260.224 -0.864 256.502 -0.866 252.781 C-0.867 251.005 -0.866 249.229 -0.864 247.454 C-0.861 244.975 -0.865 242.497 -0.871 240.018 C-0.868 238.929 -0.868 238.929 -0.864 237.817 C-0.881 233.769 -1.255 229.975 -2 226 C-2.086 224.231 -2.13 222.459 -2.125 220.688 C-2.128 219.825 -2.13 218.963 -2.133 218.074 C-2 216 -2 216 -1 215 C-0.86 210.732 -0.847 207.119 -2 203 C-1.67 202.67 -1.34 202.34 -1 202 C-0.912 200 -0.893 197.998 -0.902 195.996 C-0.907 194.174 -0.907 194.174 -0.912 192.314 C-0.925 190.395 -0.925 190.395 -0.938 188.438 C-0.944 186.513 -0.944 186.513 -0.951 184.549 C-0.963 181.366 -0.979 178.183 -1 175 C-1.66 175 -2.32 175 -3 175 C-2.858 172.479 -2.711 169.958 -2.562 167.438 C-2.523 166.733 -2.484 166.029 -2.443 165.303 C-2.239 161.889 -1.938 158.607 -1.402 155.223 C-0.821 152.228 -0.821 152.228 -1.467 150.283 C-2.244 146.956 -2.139 143.647 -2.129 140.25 C-2.131 139.474 -2.133 138.698 -2.135 137.898 C-2.139 135.337 -2.136 132.776 -2.133 130.215 C-2.133 128.434 -2.134 126.653 -2.136 124.873 C-2.137 121.143 -2.135 117.413 -2.13 113.683 C-2.125 108.899 -2.128 104.115 -2.134 99.331 C-2.138 95.655 -2.136 91.979 -2.134 88.303 C-2.133 86.539 -2.134 84.775 -2.136 83.011 C-2.139 80.547 -2.135 78.084 -2.129 75.621 C-2.132 74.524 -2.132 74.524 -2.136 73.406 C-2.123 70.326 -1.982 67.946 -1 65 C-0.883 62.9 -0.823 60.796 -0.795 58.693 C-0.765 56.741 -0.765 56.741 -0.734 54.75 C-0.717 53.329 -0.7 51.909 -0.684 50.488 C-0.663 49.035 -0.642 47.582 -0.621 46.129 C-0.565 42.307 -0.516 38.485 -0.468 34.662 C-0.418 30.761 -0.362 26.86 -0.307 22.959 C-0.199 15.306 -0.098 7.653 0 0 Z " fill="#C0BAB5" transform="translate(78,540)"/>
<path d="M0 0 C0.33 0 0.66 0 1 0 C1.01 0.786 1.021 1.573 1.031 2.383 C1.129 9.812 1.232 17.242 1.339 24.671 C1.394 28.49 1.448 32.309 1.497 36.128 C1.545 39.818 1.598 43.507 1.653 47.196 C1.673 48.6 1.692 50.004 1.709 51.407 C1.733 53.382 1.764 55.356 1.795 57.33 C1.81 58.452 1.826 59.573 1.842 60.729 C1.943 64.006 1.943 64.006 2.502 67.236 C3.005 71.039 3.126 74.659 3.127 78.494 C3.129 79.577 3.129 79.577 3.132 80.681 C3.136 83.082 3.133 85.483 3.129 87.884 C3.131 89.613 3.133 91.341 3.135 93.07 C3.139 97.754 3.137 102.438 3.134 107.122 C3.132 112.033 3.134 116.943 3.136 121.854 C3.138 130.103 3.135 138.352 3.13 146.601 C3.125 156.122 3.127 165.643 3.132 175.164 C3.137 183.351 3.137 191.538 3.135 199.725 C3.133 204.609 3.133 209.493 3.136 214.377 C3.139 218.973 3.137 223.568 3.131 228.164 C3.13 229.845 3.13 231.526 3.133 233.207 C3.143 241.531 3.038 249.725 2 258 C1.34 258 0.68 258 0 258 C0 172.86 0 87.72 0 0 Z " fill="#06182E" transform="translate(89,766)"/>
<path d="M0 0 C0.99 0 1.98 0 3 0 C3 73.26 3 146.52 3 222 C2.34 222.33 1.68 222.66 1 223 C1.001 222.223 1.002 221.445 1.003 220.645 C1.025 201.759 1.041 182.873 1.052 163.988 C1.057 154.855 1.064 145.722 1.075 136.59 C1.085 128.632 1.092 120.675 1.094 112.718 C1.095 108.502 1.098 104.286 1.106 100.07 C1.112 96.107 1.115 92.143 1.113 88.18 C1.113 86.721 1.115 85.262 1.119 83.803 C1.124 81.82 1.122 79.836 1.12 77.853 C1.121 76.74 1.122 75.628 1.123 74.481 C1.281 72.057 1.281 72.057 0 71 C-0.094 68.791 -0.117 66.58 -0.114 64.369 C-0.114 63.676 -0.114 62.984 -0.114 62.27 C-0.113 59.97 -0.105 57.671 -0.098 55.371 C-0.096 53.781 -0.094 52.19 -0.093 50.6 C-0.09 46.406 -0.08 42.212 -0.069 38.018 C-0.058 33.742 -0.054 29.466 -0.049 25.189 C-0.038 16.793 -0.021 8.396 0 0 Z " fill="#CEC6C0" transform="translate(75,0)"/>
<path d="M0 0 C0.33 0 0.66 0 1 0 C1 6.6 1 13.2 1 20 C0.01 20.33 -0.98 20.66 -2 21 C-1.858 18.437 -1.712 15.875 -1.562 13.312 C-1.523 12.591 -1.484 11.87 -1.443 11.127 C-1.218 7.333 -0.872 3.713 0 0 Z " fill="#C8C1BB" transform="translate(77,694)"/>
<path d="M0 0 C3.806 3.221 7.541 6.402 11 10 C10.67 10.66 10.34 11.32 10 12 C7.69 9.69 5.38 7.38 3 5 C2.01 6.32 1.02 7.64 0 9 C0 6.03 0 3.06 0 0 Z " fill="#005B65" transform="translate(90,556)"/>
<path d="M0 0 C0.33 0 0.66 0 1 0 C1 6.6 1 13.2 1 20 C-2 17 -2 17 -2.157 15.099 C-2.057 14.402 -1.958 13.706 -1.855 12.988 C-1.756 12.231 -1.656 11.474 -1.553 10.693 C-1.432 9.908 -1.312 9.122 -1.188 8.312 C-1.079 7.515 -0.97 6.718 -0.857 5.896 C-0.586 3.929 -0.295 1.964 0 0 Z " fill="#002D44" transform="translate(939,692)"/>
<path d="M0 0 C0 3.739 -0.92 4.409 -3.375 7.125 C-4.315 8.181 -4.315 8.181 -5.273 9.258 C-7 11 -7 11 -9 12 C-7.556 8.761 -5.742 6.38 -3.375 3.75 C-2.743 3.044 -2.112 2.337 -1.461 1.609 C-0.979 1.078 -0.497 0.547 0 0 Z " fill="#005A62" transform="translate(712,833)"/>
</svg>
