<svg xmlns="http://www.w3.org/2000/svg" width="1024" height="1024" viewBox="0 0 1080 1080"><style type="text/css"><![CDATA[
.title { font-family: Arial, sans-serif; font-weight: bold; font-size: 180px; fill: url(#grad1); text-anchor: middle; } .subtitle { font-family: Arial, sans-serif; font-style: italic; font-size: 38px; fill: #ffffff; opacity: 0.85; text-anchor: middle; letter-spacing: 0.05em; }
]]></style><defs><linearGradient id="grad1" x1="0" y1="0" x2="0" y2="1"><stop offset="0%" stop-color="#f6a828"/><stop offset="100%" stop-color="#d98d1f"/></linearGradient><style> .title { font-family: Arial, sans-serif; font-weight: bold; font-size: 180px; fill: url(#grad1); text-anchor: middle; } .subtitle { font-family: Arial, sans-serif; font-style: italic; font-size: 38px; fill: #ffffff; opacity: 0.85; text-anchor: middle; letter-spacing: 0.05em; } </style></defs><g id="background-layer" opacity="0.9"><path d="M0 0 C337.92 0 675.84 0 1024 0 C1024 337.92 1024 675.84 1024 1024 C686.08 1024 348.16 1024 0 1024 C0 686.08 0 348.16 0 0 Z " fill="#001E37" transform="translate(0,0)"/><path d="M0 0 C0 192.06 0 384.12 0 582 C-280.17 582 -560.34 582 -849 582 C-849 505.44 -849 428.88 -849 350 C-849.34 300.18 -849.34 300.18 -849.78 250.36 C-850.20 204.91 -850.09 159.45 -850 114 C-848.88 114.95 -847.77 115.91 -846.65 116.86 C-846.03 117.39 -845.41 117.92 -844.77 118.47 C-842.74 120.23 -840.79 121.99 -839 124 C-839 124.66 -839 125.32 -839 126 C-838.41 126.26 -837.82 126.52 -837.21 126.79 C-834.85 128.08 -833.45 129.40 -831.64 131.38 C-831.03 132.05 -830.41 132.72 -829.77 133.41 C-829.12 134.12 -828.48 134.83 -827.81 135.56 C-826.48 137.02 -825.14 138.47 -823.80 139.92 C-823.15 140.62 -822.50 141.32 -821.83 142.04 C-818.81 145.27 -815.64 148.34 -812.44 151.40 C-811 153 -811 153 -811 155 C-810.01 155.33 -809.02 155.66 -808 156 C-806.58 157.44 -806.58 157.44 -805.03 159.34 C-802.01 162.9 -798.84 166.25 -795.53 169.53 C-794.8 170.26 -794.8 170.26 -794.05 171 C-792.54 172.50 -791.02 174.00 -789.5 175.5 C-783.64 181.28 -777.82 187.04 -772.47 193.31 C-769.75 196.44 -766.71 199.25 -763.72 202.12 C-762 204 -762 204 -762 206 C-761.42 206.24 -760.85 206.48 -760.25 206.73 C-757.55 208.26 -756.02 210.01 -754 212.38 C-749.81 217.17 -745.40 221.65 -740.81 226.06 C-739.50 227.34 -738.25 228.67 -737 230 C-737 230.66 -737 231.32 -737 232 C-736.34 232 -735.68 232 -735 232 C-733.80 233.22 -733.80 233.22 -732.31 235.06 C-727.87 240.34 -722.93 245.10 -717.98 249.90 C-717.02 250.84 -717.02 250.84 -716.03 251.81 C-715.45 252.37 -714.87 252.94 -714.27 253.52 C-713 255 -713 255 -713 257 C-712.34 257 -711.68 257 -711 257 C-709.77 258.26 -709.77 258.26 -708.25 260.12 C-704.01 265.15 -699.34 269.69 -694.62 274.25 C-694.03 274.84 -693.43 275.42 -692.82 276.02 C-692.27 276.55 -691.73 277.07 -691.17 277.62 C-690 279 -690 279 -690 281 C-689.43 281.23 -688.86 281.46 -688.28 281.70 C-685.40 283.34 -683.74 285.31 -681.56 287.81 C-675.19 294.99 -668.36 301.70 -661.53 308.44 C-657.04 312.88 -652.72 317.38 -648.60 322.17 C-646.04 325.09 -643.28 327.79 -640.5 330.5 C-637.09 333.87 -633.72 337.21 -630.62 340.88 C-627.15 344.98 -623.32 348.72 -619.5 352.5 C-615.12 356.84 -610.86 361.17 -606.89 365.89 C-603.53 369.63 -599.89 373.12 -596.26 376.61 C-594.81 378.04 -593.40 379.51 -592 381 C-592 381.66 -592 382.32 -592 383 C-591.01 383.33 -590.02 383.66 -589 384 C-587.67 385.36 -587.67 385.36 -586.19 387.19 C-582.11 392.01 -577.66 396.40 -573.15 400.81 C-569.71 404.20 -566.50 407.69 -563.39 411.38 C-561.38 413.72 -559.21 415.85 -557 418 C-554.39 420.56 -551.79 423.12 -549.19 425.69 C-548.50 426.36 -547.80 427.04 -547.09 427.74 C-546.43 428.38 -545.78 429.03 -545.11 429.70 C-544.51 430.29 -543.91 430.87 -543.30 431.48 C-542 433 -542 433 -542 435 C-541.34 435 -540.68 435 -540 435 C-540 435.66 -540 436.32 -540 437 C-539.34 437 -538.68 437 -538 437 C-536.77 438.26 -536.77 438.26 -535.25 440.12 C-531.15 444.96 -526.68 449.38 -522.15 453.81 C-518.77 457.15 -515.58 460.56 -512.56 464.22 C-510.48 466.60 -508.24 468.78 -506 471 C-505.02 471.97 -504.04 472.95 -503.06 473.92 C-502.55 474.43 -502.03 474.95 -501.50 475.48 C-499.15 477.81 -496.81 480.14 -494.47 482.47 C-493.25 483.69 -492.02 484.92 -490.79 486.13 C-478.68 498.16 -478.68 498.16 -473.38 504.39 C-471.42 506.68 -469.32 508.81 -467.19 510.94 C-466.44 511.69 -465.69 512.44 -464.92 513.22 C-463.12 515.06 -463.12 515.06 -461 516 C-461 516.99 -461 517.98 -461 519 C-430.57 512.30 -400.78 504.32 -371.71 493.02 C-367.84 491.56 -363.93 490.27 -360 489 C-360 488.34 -360 487.68 -360 487 C-353.65 484.08 -353.65 484.08 -350.29 483.67 C-345.87 482.77 -342.38 480.83 -338.44 478.69 C-337.61 478.24 -336.79 477.8 -335.94 477.34 C-333.29 475.91 -330.64 474.46 -328 473 C-327.13 472.53 -326.26 472.05 -325.37 471.56 C-309.03 462.59 -293.62 452.57 -279 441 C-278.06 440.25 -277.11 439.50 -276.14 438.73 C-259.05 424.89 -242.43 409.45 -229 392 C-227.84 390.6 -227.84 390.6 -226.66 389.17 C-209.75 368.67 -196.42 345.90 -185 322 C-184.39 320.72 -184.39 320.72 -183.76 319.41 C-176.61 304.18 -171.73 287.88 -166.60 271.87 C-166.03 270.09 -165.45 268.30 -164.87 266.52 C-162.63 259.45 -160.91 252.40 -159.5 245.12 C-157.92 237.27 -156.17 229.56 -154.01 221.84 C-153.03 218.13 -152.20 214.41 -151.40 210.65 C-146.52 188.08 -140.03 165.85 -130 145 C-129.53 144.01 -129.53 144.01 -129.05 143.00 C-119.11 122.33 -104.77 103.99 -89.93 86.63 C-86.46 82.57 -83.13 78.43 -79.85 74.22 C-77.71 71.65 -75.39 69.34 -73 67 C-71.08 65.11 -69.17 63.21 -67.25 61.31 C-66.76 60.83 -66.26 60.34 -65.75 59.84 C-63.03 57.18 -63.03 57.18 -61 54 C-60.34 54 -59.68 54 -59 54 C-58.76 53.43 -58.53 52.85 -58.28 52.26 C-56.71 49.49 -54.85 47.89 -52.44 45.81 C-49.01 42.81 -45.73 39.77 -42.56 36.5 C-38.56 32.44 -34.28 28.89 -29.83 25.32 C-25.95 22.14 -22.27 18.75 -18.57 15.35 C-16.31 13.28 -14.01 11.26 -11.69 9.25 C-9.22 7.12 -6.89 4.91 -4.62 2.56 C-2 0 -2 0 0 0 Z " fill="#004454" transform="translate(940,442)"/><path d="M0 0 C27.06 0 54.12 0 82 0 C82 337.92 82 675.84 82 1024 C54.94 1024 27.88 1024 0 1024 C0 686.08 0 348.16 0 0 Z " fill="#F7F0E7" transform="translate(942,0)"/><path d="M0 0 C26.4 0 52.8 0 80 0 C80 337.92 80 675.84 80 1024 C53.6 1024 27.2 1024 0 1024 C0 686.08 0 348.16 0 0 Z " fill="#DFD7D1" transform="translate(0,0)"/><path d="M0 0 C1.09 0.00 1.09 0.00 2.20 0.01 C3.34 0.01 3.34 0.01 4.51 0.01 C7.09 0.01 9.68 0.01 12.26 0.02 C14.10 0.02 15.94 0.02 17.78 0.01 C22.80 0.01 27.82 0.02 32.84 0.03 C38.08 0.03 43.32 0.04 48.55 0.04 C58.48 0.04 68.41 0.05 78.33 0.06 C89.63 0.07 100.93 0.07 112.23 0.08 C135.48 0.09 158.73 0.11 181.98 0.13 C183.11 2.53 184.24 4.93 185.37 7.33 C185.69 8.01 186.01 8.68 186.34 9.38 C188.55 14.10 190.47 18.78 191.85 23.82 C192.05 24.53 192.25 25.24 192.46 25.98 C194.09 32.03 194.86 37.85 194.98 44.13 C195.00 44.77 195.03 45.42 195.05 46.08 C195.63 61.78 194.34 77.60 187.98 92.13 C187.69 92.86 187.41 93.58 187.11 94.33 C182.23 106.30 174.51 119.37 163.98 127.13 C163.25 127.87 162.53 128.61 161.79 129.38 C141.73 149.00 114.48 157.74 86.78 157.48 C59.20 156.74 34.12 145.77 13.98 127.13 C13.22 126.44 12.46 125.75 11.68 125.04 C-2.38 111.70 -10.90 94.55 -16.02 76.13 C-16.22 75.46 -16.41 74.79 -16.62 74.09 C-22.99 49.62 -16.94 23.22 -6.02 1.13 C-4.34 -0.56 -2.25 0.01 0 0 Z " fill="#00545F" transform="translate(675.023453772068,-0.12908130884170532)"/><path d="M0 0 C27.39 0 54.78 0 83 0 C83 82.83 83 165.66 83 251 C78.35 247.02 73.88 243.06 69.56 238.75 C69.02 238.22 68.48 237.69 67.92 237.15 C66.58 235.81 65.28 234.41 64 233 C64 232.34 64 231.68 64 231 C63.40 230.74 62.81 230.49 62.20 230.22 C59.80 228.89 58.57 227.57 56.88 225.44 C54.79 222.79 54.79 222.79 52 221 C52 220.34 52 219.68 52 219 C51.10 218.60 51.10 218.60 50.18 218.20 C47.87 216.93 46.79 215.81 45.15 213.77 C41.70 209.69 37.99 205.92 34.19 202.16 C33.58 201.55 32.96 200.94 32.33 200.32 C29.75 197.76 27.16 195.22 24.58 192.67 C22.67 190.8 20.78 188.92 18.88 187.04 C18.29 186.46 17.70 185.88 17.09 185.29 C15.69 183.90 14.34 182.45 13 181 C13 180.34 13 179.68 13 179 C12.34 179 11.68 179 11 179 C9.52 177.50 9.52 177.50 7.82 175.45 C4.35 171.37 0.68 167.58 -3.14 163.83 C-4.47 162.51 -5.80 161.19 -7.13 159.88 C-9.2 157.83 -11.27 155.79 -13.34 153.75 C-15.36 151.76 -17.38 149.77 -19.39 147.77 C-20.01 147.16 -20.63 146.56 -21.27 145.94 C-24.39 142.83 -26.93 139.94 -29 136 C-28.37 135.53 -27.75 135.06 -27.10 134.57 C-25.88 133.64 -25.88 133.64 -24.62 132.69 C-23.81 132.07 -23.00 131.46 -22.16 130.82 C-19.80 129.00 -19.80 129.00 -18 126 C-17.34 126 -16.68 126 -16 126 C-15.67 125.01 -15.34 124.02 -15 123 C-13.68 121.65 -12.35 120.32 -11 119 C-8.19 115.44 -5.59 111.73 -3 108 C-2.46 107.23 -1.92 106.45 -1.36 105.66 C12.61 84.18 14.99 54.82 10.46 30.10 C8.43 20.90 5.20 11.95 0.77 3.65 C0 2 0 2 0 0 Z " fill="#003247" transform="translate(857,0)"/><path d="M0 0 C2.97 0 5.94 0 9 0 C9 337.92 9 675.84 9 1024 C6.03 1024 3.06 1024 0 1024 C0 686.08 0 348.16 0 0 Z " fill="#524D49" transform="translate(80,0)"/><path d="M0 0 C1.32 0 2.64 0 4 0 C4 337.92 4 675.84 4 1024 C2.68 1024 1.36 1024 0 1024 C0 686.08 0 348.16 0 0 Z " fill="#928E8B" transform="translate(80,0)"/><path d="M0 0 C1.65 0 3.3 0 5 0 C5 337.92 5 675.84 5 1024 C4.34 1024 3.68 1024 3 1024 C3.01 1023.07 3.01 1023.07 3.02 1022.12 C3.04 1019.31 3.05 1016.50 3.06 1013.69 C3.07 1012.71 3.08 1011.74 3.09 1010.73 C3.09 1009.79 3.09 1008.85 3.10 1007.89 C3.10 1007.02 3.11 1006.16 3.11 1005.27 C3.09 1002.83 3.09 1002.83 2 1000 C1.69 994.95 1.96 989.96 2.56 984.94 C3.11 980.11 2.70 975.80 2 971 C1.67 971 1.34 971 1 971 C0.97 969.52 0.95 968.04 0.94 966.56 C0.93 965.74 0.91 964.91 0.90 964.07 C1 962 1 962 2 961 C2.37 952.88 2 944.83 1.22 936.74 C0.90 932.82 0.93 928.94 1 925 C1.66 925 2.32 925 3 925 C2.67 924.49 2.35 923.97 2.01 923.44 C0.66 920.18 0.77 917.46 0.81 913.94 C0.82 912.71 0.82 911.48 0.83 910.22 C1 907 1 907 2 904 C1.67 903.67 1.34 903.34 1 903 C0.90 900.03 0.86 897.09 0.88 894.12 C0.88 893.26 0.88 892.40 0.88 891.50 C0.91 886.02 1.24 880.65 1.85 875.20 C2.09 872.79 2.09 872.79 1.5 869.56 C1.05 866.37 1.12 864.12 1.46 860.96 C2.23 852.35 2.14 843.74 2.13 835.10 C2.13 833.29 2.13 831.49 2.14 829.68 C2.14 825.92 2.13 822.15 2.13 818.39 C2.12 813.58 2.13 808.76 2.13 803.95 C2.14 800.22 2.14 796.50 2.13 792.78 C2.13 791.00 2.13 789.23 2.14 787.45 C2.14 784.98 2.13 782.50 2.13 780.02 C2.13 778.93 2.13 778.93 2.14 777.82 C2.12 773.77 1.75 769.98 1 766 C0.91 764.23 0.87 762.46 0.88 760.69 C0.87 759.83 0.87 758.96 0.87 758.07 C1 756 1 756 2 755 C2.14 750.73 2.15 747.12 1 743 C1.33 742.67 1.66 742.34 2 742 C2.09 740 2.11 738.00 2.10 736.00 C2.09 734.17 2.09 734.17 2.09 732.31 C2.08 731.03 2.07 729.76 2.06 728.44 C2.06 727.15 2.05 725.87 2.05 724.55 C2.04 721.37 2.02 718.18 2 715 C1.34 715 0.68 715 0 715 C0.14 712.48 0.29 709.96 0.44 707.44 C0.48 706.73 0.52 706.03 0.56 705.30 C0.76 701.89 1.06 698.61 1.60 695.22 C2.18 692.23 2.18 692.23 1.53 690.28 C0.76 686.96 0.86 683.66 0.87 680.27 C0.87 679.49 0.87 678.72 0.86 677.92 C0.86 675.36 0.86 672.81 0.87 670.25 C0.87 668.47 0.87 666.69 0.86 664.91 C0.86 661.19 0.86 657.46 0.87 653.74 C0.88 648.96 0.87 644.19 0.87 639.41 C0.86 635.74 0.86 632.07 0.87 628.40 C0.87 626.64 0.87 624.88 0.86 623.12 C0.86 620.66 0.86 618.20 0.87 615.73 C0.87 615.01 0.87 614.28 0.86 613.53 C0.89 608.40 0.89 608.40 1.57 606.02 C2.15 603.32 1.65 600.90 1.26 598.20 C0.81 594.46 0.88 590.74 0.90 586.99 C0.90 586.12 0.91 585.26 0.91 584.37 C0.91 582.51 0.92 580.65 0.93 578.79 C0.94 575.85 0.94 572.91 0.95 569.97 C0.96 563.73 0.98 557.49 1 551.25 C1.02 544.00 1.04 536.76 1.06 529.51 C1.06 526.61 1.07 523.72 1.09 520.82 C1.09 519.04 1.09 517.27 1.10 515.50 C1.10 514.69 1.11 513.89 1.11 513.06 C1.15 508.98 1.15 508.98 0.46 504.99 C-0.25 501.93 0.55 499.08 1 496 C0.51 494.51 0.51 494.51 0 493 C0.24 490.99 0.48 488.98 0.74 486.97 C1.32 480.32 1.1 473.61 1.06 466.94 C1.06 465.39 1.05 463.84 1.05 462.29 C1.04 458.53 1.02 454.76 1 451 C0.67 451 0.34 451 0 451 C-0.09 446.30 -0.11 441.79 0.56 437.12 C0.99 434.07 0.72 432.88 0 430 C-0.09 428.29 -0.13 426.58 -0.12 424.88 C-0.13 424.01 -0.13 423.14 -0.13 422.24 C0 420 0 420 1 418 C1.07 415.28 1.09 412.59 1.06 409.88 C1.06 409.12 1.05 408.37 1.05 407.59 C1.04 405.73 1.02 403.86 1 402 C0.67 402 0.34 402 0 402 C-0.03 399.42 -0.05 396.83 -0.06 394.25 C-0.07 393.52 -0.08 392.79 -0.09 392.04 C-0.10 388.51 0.05 385.39 1 382 C0.67 382 0.34 382 0 382 C-0.03 376.82 -0.04 371.64 -0.06 366.47 C-0.06 364.71 -0.07 362.95 -0.07 361.19 C-0.09 358.65 -0.09 356.12 -0.10 353.58 C-0.10 352.80 -0.11 352.01 -0.11 351.21 C-0.11 347.33 0.12 343.77 1 340 C0.91 337.96 0.91 337.96 0.56 335.94 C-0.58 326.84 -0.12 318.29 1.66 309.30 C1.95 306.53 1.89 304.60 1.53 301.89 C0.95 297.04 0.87 292.27 0.89 287.38 C0.89 286.46 0.89 285.53 0.89 284.58 C0.89 281.50 0.90 278.42 0.90 275.34 C0.90 273.12 0.91 270.91 0.91 268.69 C0.91 263.93 0.92 259.17 0.93 254.41 C0.94 246.89 0.94 239.37 0.95 231.85 C0.96 221.31 0.97 210.78 0.98 200.25 C0.98 199.24 0.98 199.24 0.98 198.22 C0.99 193.48 0.99 188.74 1 184 C1.01 178.57 1.01 173.14 1.02 167.71 C1.02 167.04 1.02 166.37 1.02 165.68 C1.04 154.54 1.05 143.40 1.05 132.26 C1.06 124.78 1.07 117.29 1.08 109.81 C1.09 105.17 1.09 100.53 1.09 95.89 C1.10 93.73 1.1 91.57 1.11 89.41 C1.11 86.47 1.11 83.54 1.11 80.60 C1.12 79.73 1.12 78.87 1.12 77.98 C1.49 74.18 1.49 74.18 0 71 C-0.09 68.79 -0.12 66.58 -0.11 64.37 C-0.11 63.68 -0.11 62.98 -0.11 62.27 C-0.11 59.97 -0.10 57.67 -0.10 55.37 C-0.10 53.78 -0.09 52.19 -0.09 50.6 C-0.09 46.41 -0.08 42.21 -0.07 38.02 C-0.06 33.74 -0.05 29.47 -0.05 25.19 C-0.04 16.79 -0.02 8.40 0 0 Z " fill="#C6BFB9" transform="translate(75,0)"/><path d="M0 0 C0.33 0 0.66 0 1 0 C1 337.92 1 675.84 1 1024 C0.34 1024 -0.32 1024 -1 1024 C-0.99 1023.38 -0.99 1022.76 -0.98 1022.12 C-0.96 1019.31 -0.95 1016.50 -0.94 1013.69 C-0.93 1012.71 -0.92 1011.74 -0.91 1010.73 C-0.91 1009.79 -0.91 1008.85 -0.90 1007.89 C-0.90 1007.02 -0.89 1006.16 -0.89 1005.27 C-0.91 1002.83 -0.91 1002.83 -2 1000 C-2.09 998.42 -2.13 996.83 -2.12 995.25 C-2.13 994.43 -2.13 993.61 -2.13 992.77 C-2 990 -2 990 -1.5 986.77 C-1.01 983.07 -0.87 979.56 -0.87 975.83 C-0.87 975.14 -0.86 974.44 -0.86 973.73 C-0.86 971.42 -0.86 969.10 -0.86 966.79 C-0.86 965.10 -0.86 963.42 -0.85 961.73 C-0.84 957.09 -0.84 952.44 -0.84 947.80 C-0.84 942.75 -0.83 937.71 -0.83 932.66 C-0.82 923.81 -0.81 914.96 -0.80 906.11 C-0.80 892.95 -0.78 879.78 -0.77 866.62 C-0.74 844.49 -0.73 822.35 -0.71 800.21 C-0.69 778.29 -0.67 756.37 -0.65 734.44 C-0.65 733.76 -0.65 733.08 -0.65 732.38 C-0.65 726.16 -0.64 719.94 -0.63 713.72 C-0.62 698.27 -0.60 682.81 -0.59 667.35 C-0.59 666.30 -0.59 666.30 -0.59 665.22 C-0.55 630.98 -0.53 596.73 -0.50 562.49 C-0.49 550.61 -0.48 538.72 -0.47 526.84 C-0.47 526.10 -0.47 525.36 -0.47 524.60 C-0.44 490.34 -0.41 456.08 -0.37 421.82 C-0.37 419.60 -0.37 417.38 -0.37 415.15 C-0.35 400.41 -0.34 385.67 -0.33 370.93 C-0.3 341.61 -0.27 312.28 -0.25 282.95 C-0.24 281.55 -0.24 280.16 -0.24 278.76 C-0.16 191.78 -0.09 104.79 0 0 Z " fill="#B6AFAA" transform="translate(79,0)"/><path d="M0 0 C0.33 0 0.66 0 1 0 C1 145.2 1 290.4 1 440 C0.67 440 0.34 440 0 440 C-0.33 437.03 -0.66 434.06 -1 431 C-1.33 431 -1.66 431 -2 431 C-2.03 429.52 -2.05 428.04 -2.06 426.56 C-2.07 425.74 -2.09 424.92 -2.10 424.07 C-2 422 -2 422 -1 421 C-0.64 412.88 -1 404.83 -1.78 396.74 C-2.10 392.81 -2.07 388.94 -2 385 C-1.34 385 -0.68 385 0 385 C-0.33 384.49 -0.65 383.97 -0.99 383.44 C-2.34 380.18 -2.23 377.46 -2.19 373.94 C-2.18 372.71 -2.17 371.48 -2.17 370.21 C-2 367 -2 367 -1 364 C-1.33 363.67 -1.66 363.34 -2 363 C-2.10 360.03 -2.14 357.09 -2.12 354.12 C-2.12 353.26 -2.12 352.40 -2.12 351.50 C-2.09 346.02 -1.76 340.65 -1.15 335.20 C-0.91 332.79 -0.91 332.79 -1.5 329.56 C-1.95 326.37 -1.88 324.12 -1.54 320.96 C-0.77 312.35 -0.86 303.74 -0.87 295.10 C-0.87 293.30 -0.87 291.49 -0.86 289.68 C-0.86 285.92 -0.86 282.15 -0.87 278.39 C-0.88 273.57 -0.87 268.76 -0.87 263.94 C-0.86 260.22 -0.86 256.50 -0.87 252.78 C-0.87 251.00 -0.87 249.23 -0.86 247.45 C-0.86 244.97 -0.86 242.50 -0.87 240.02 C-0.87 238.93 -0.87 238.93 -0.86 237.82 C-0.88 233.77 -1.25 229.97 -2 226 C-2.09 224.23 -2.13 222.46 -2.12 220.69 C-2.13 219.82 -2.13 218.96 -2.13 218.07 C-2 216 -2 216 -1 215 C-0.86 210.73 -0.85 207.12 -2 203 C-1.67 202.67 -1.34 202.34 -1 202 C-0.91 200 -0.89 198.00 -0.90 196.00 C-0.91 194.17 -0.91 194.17 -0.91 192.31 C-0.93 190.40 -0.93 190.40 -0.94 188.44 C-0.94 186.51 -0.94 186.51 -0.95 184.55 C-0.96 181.37 -0.98 178.18 -1 175 C-1.66 175 -2.32 175 -3 175 C-2.86 172.48 -2.71 169.96 -2.56 167.44 C-2.52 166.73 -2.48 166.03 -2.44 165.30 C-2.24 161.89 -1.94 158.61 -1.40 155.22 C-0.82 152.23 -0.82 152.23 -1.47 150.28 C-2.24 146.96 -2.14 143.65 -2.13 140.25 C-2.13 139.47 -2.13 138.70 -2.13 137.90 C-2.14 135.34 -2.14 132.78 -2.13 130.22 C-2.13 128.43 -2.13 126.65 -2.14 124.87 C-2.14 121.14 -2.13 117.41 -2.13 113.68 C-2.12 108.90 -2.13 104.11 -2.13 99.33 C-2.14 95.66 -2.14 91.98 -2.13 88.30 C-2.13 86.54 -2.13 84.78 -2.14 83.01 C-2.14 80.55 -2.13 78.08 -2.13 75.62 C-2.13 74.52 -2.13 74.52 -2.14 73.41 C-2.12 70.33 -1.98 67.95 -1 65 C-0.88 62.9 -0.82 60.80 -0.80 58.69 C-0.77 56.74 -0.77 56.74 -0.73 54.75 C-0.72 53.33 -0.7 51.91 -0.68 50.49 C-0.66 49.03 -0.64 47.58 -0.62 46.13 C-0.56 42.31 -0.52 38.48 -0.47 34.66 C-0.42 30.76 -0.36 26.86 -0.31 22.96 C-0.20 15.31 -0.10 7.65 0 0 Z " fill="#C0BAB5" transform="translate(78,540)"/><path d="M0 0 C0.33 0 0.66 0 1 0 C1.01 0.79 1.02 1.57 1.03 2.38 C1.13 9.81 1.23 17.24 1.34 24.67 C1.39 28.49 1.45 32.31 1.50 36.13 C1.54 39.82 1.60 43.51 1.65 47.20 C1.67 48.6 1.69 50.00 1.71 51.41 C1.73 53.38 1.76 55.36 1.79 57.33 C1.81 58.45 1.83 59.57 1.84 60.73 C1.94 64.01 1.94 64.01 2.50 67.24 C3.00 71.04 3.13 74.66 3.13 78.49 C3.13 79.58 3.13 79.58 3.13 80.68 C3.14 83.08 3.13 85.48 3.13 87.88 C3.13 89.61 3.13 91.34 3.13 93.07 C3.14 97.75 3.14 102.44 3.13 107.12 C3.13 112.03 3.13 116.94 3.14 121.85 C3.14 130.10 3.13 138.35 3.13 146.60 C3.12 156.12 3.13 165.64 3.13 175.16 C3.14 183.35 3.14 191.54 3.13 199.72 C3.13 204.61 3.13 209.49 3.14 214.38 C3.14 218.97 3.14 223.57 3.13 228.16 C3.13 229.84 3.13 231.53 3.13 233.21 C3.14 241.53 3.04 249.72 2 258 C1.34 258 0.68 258 0 258 C0 172.86 0 87.72 0 0 Z " fill="#06182E" transform="translate(89,766)"/><path d="M0 0 C0.99 0 1.98 0 3 0 C3 73.26 3 146.52 3 222 C2.34 222.33 1.68 222.66 1 223 C1.00 222.22 1.00 221.44 1.00 220.65 C1.02 201.76 1.04 182.87 1.05 163.99 C1.06 154.85 1.06 145.72 1.07 136.59 C1.08 128.63 1.09 120.67 1.09 112.72 C1.09 108.50 1.10 104.29 1.11 100.07 C1.11 96.11 1.11 92.14 1.11 88.18 C1.11 86.72 1.11 85.26 1.12 83.80 C1.12 81.82 1.12 79.84 1.12 77.85 C1.12 76.74 1.12 75.63 1.12 74.48 C1.28 72.06 1.28 72.06 0 71 C-0.09 68.79 -0.12 66.58 -0.11 64.37 C-0.11 63.68 -0.11 62.98 -0.11 62.27 C-0.11 59.97 -0.10 57.67 -0.10 55.37 C-0.10 53.78 -0.09 52.19 -0.09 50.6 C-0.09 46.41 -0.08 42.21 -0.07 38.02 C-0.06 33.74 -0.05 29.47 -0.05 25.19 C-0.04 16.79 -0.02 8.40 0 0 Z " fill="#CEC6C0" transform="translate(75,0)"/><path d="M0 0 C0.33 0 0.66 0 1 0 C1 6.6 1 13.2 1 20 C0.01 20.33 -0.98 20.66 -2 21 C-1.86 18.44 -1.71 15.88 -1.56 13.31 C-1.52 12.59 -1.48 11.87 -1.44 11.13 C-1.22 7.33 -0.87 3.71 0 0 Z " fill="#C8C1BB" transform="translate(77,694)"/><path d="M0 0 C3.81 3.22 7.54 6.40 11 10 C10.67 10.66 10.34 11.32 10 12 C7.69 9.69 5.38 7.38 3 5 C2.01 6.32 1.02 7.64 0 9 C0 6.03 0 3.06 0 0 Z " fill="#005B65" transform="translate(90,556)"/><path d="M0 0 C0.33 0 0.66 0 1 0 C1 6.6 1 13.2 1 20 C-2 17 -2 17 -2.16 15.10 C-2.06 14.40 -1.96 13.71 -1.85 12.99 C-1.76 12.23 -1.66 11.47 -1.55 10.69 C-1.43 9.91 -1.31 9.12 -1.19 8.31 C-1.08 7.51 -0.97 6.72 -0.86 5.90 C-0.59 3.93 -0.29 1.96 0 0 Z " fill="#002D44" transform="translate(939,692)"/><path d="M0 0 C0 3.74 -0.92 4.41 -3.38 7.12 C-4.32 8.18 -4.32 8.18 -5.27 9.26 C-7 11 -7 11 -9 12 C-7.56 8.76 -5.74 6.38 -3.38 3.75 C-2.74 3.04 -2.11 2.34 -1.46 1.61 C-0.98 1.08 -0.50 0.55 0 0 Z " fill="#005A62" transform="translate(712,833)"/></g><g id="text-layer"><text x="540" y="460" class="title">COMING</text><text x="540" y="660" class="title">SOON</text><text x="540" y="760" class="subtitle">Stay tuned for something</text><text x="540" y="810" class="subtitle">L takeover</text></g></svg>