<?xml version="1.0" encoding="UTF-8"?>
<!-- Generator: visioncortex VTracer 0.6.4 -->
<svg version="1.1" xmlns="http://www.w3.org/2000/svg" width="1024" height="1024">
<path d="M0 0 C337.92 0 675.84 0 1024 0 C1024 337.92 1024 675.84 1024 1024 C686.08 1024 348.16 1024 0 1024 C0 686.08 0 348.16 0 0 Z " fill="#0B0B0A" transform="translate(0,0)"/>
<path d="M0 0 C3.241 1.234 3.806 2.035 6 5 C7.035 9.969 6.786 13.716 4.125 18.062 C0.425 21.436 -2.635 21.472 -7.512 21.395 C-10 21 -10 21 -13.125 18.625 C-15.931 14.421 -15.822 9.844 -15 5 C-12.223 -1.611 -6.275 -1.087 0 0 Z " fill="#FDFCE0" transform="translate(145,77)"/>
<path d="M0 0 C3.626 0.57 5.255 1.924 7.75 4.562 C8.364 5.203 8.977 5.844 9.609 6.504 C10.068 6.998 10.527 7.491 11 8 C13.827 6.712 15.264 5.73 17.5 3.438 C19.86 1.136 20.816 0.354 24 0 C24.33 0.99 24.66 1.98 25 3 C24.495 3.447 23.989 3.895 23.469 4.355 C19.553 7.916 19.553 7.916 17.125 12.5 C18.359 16.025 20.694 17.918 23.469 20.352 C25 22 25 22 25 25 C21.408 24.432 19.867 23.153 17.438 20.5 C15.166 18.031 14.257 17.086 11 16 C10.794 16.536 10.587 17.072 10.375 17.625 C8.474 20.908 6.024 23.692 3 26 C2.01 26 1.02 26 0 26 C-0.438 23.938 -0.438 23.938 0 21 C1.594 19.285 1.594 19.285 3.562 17.5 C6.444 14.978 6.444 14.978 7.25 11.375 C5.653 8.341 3.445 6.384 1 4 C0.188 1.688 0.188 1.688 0 0 Z " fill="#F4DC94" transform="translate(781,191)"/>
<path d="M0 0 C-0.537 3.851 -2.116 5.318 -5.062 7.75 C-5.796 8.364 -6.529 8.977 -7.285 9.609 C-7.851 10.068 -8.417 10.527 -9 11 C-8.433 14.623 -7.109 16.175 -4.438 18.625 C-3.257 19.713 -2.102 20.832 -1 22 C-1 22.66 -1 23.32 -1 24 C-4.381 23.433 -5.753 22.477 -7.938 19.875 C-10.237 17.397 -10.237 17.397 -13.5 16.75 C-16.525 18.262 -18.364 20.189 -20.57 22.723 C-22 24 -22 24 -25 24 C-25.495 21.525 -25.495 21.525 -26 19 C-23.36 16.69 -20.72 14.38 -18 12 C-19.681 8.637 -20.528 7.272 -23.125 4.875 C-24.758 3.367 -24.758 3.367 -26 2 C-26 1.34 -26 0.68 -26 0 C-21.773 0.711 -20.242 2.66 -17.562 5.82 C-16.045 7.245 -16.045 7.245 -13.914 6.777 C-11.716 5.885 -10.623 4.697 -9 3 C-8.34 3 -7.68 3 -7 3 C-6.67 2.01 -6.34 1.02 -6 0 C-3.509 -1.245 -2.589 -0.777 0 0 Z " fill="#EBC681" transform="translate(251,872)"/>
<path d="M0 0 C-0.542 3.794 -2.005 5.192 -4.938 7.562 C-7.53 9.675 -9.117 11.175 -11 14 C-11.66 12.68 -12.32 11.36 -13 10 C-13.736 10.08 -14.472 10.16 -15.23 10.242 C-18.842 9.926 -19.855 8.726 -22.312 6.125 C-23.01 5.406 -23.707 4.686 -24.426 3.945 C-26 2 -26 2 -26 0 C-21.773 0.711 -20.242 2.66 -17.562 5.82 C-16.045 7.245 -16.045 7.245 -13.914 6.777 C-11.716 5.885 -10.623 4.697 -9 3 C-8.34 3 -7.68 3 -7 3 C-6.67 2.01 -6.34 1.02 -6 0 C-3.509 -1.245 -2.589 -0.777 0 0 Z " fill="#D1A162" transform="translate(251,872)"/>
<path d="M0 0 C0.33 0.99 0.66 1.98 1 3 C2.65 3.33 4.3 3.66 6 4 C5.01 4.33 4.02 4.66 3 5 C2.732 5.557 2.464 6.114 2.188 6.688 C0.473 10.025 -2.015 12.722 -5 15 C-5.99 15 -6.98 15 -8 15 C-8.438 12.938 -8.438 12.938 -8 10 C-6.332 8.046 -4.544 6.359 -2.629 4.648 C-0.752 2.992 -0.752 2.992 0 0 Z " fill="#E8BD79" transform="translate(789,202)"/>
<path d="M0 0 C0 0.33 0 0.66 0 1 C-3.3 1.33 -6.6 1.66 -10 2 C-11.526 8.103 -11.842 13.316 -9 19 C-6.03 19.33 -3.06 19.66 0 20 C0 20.33 0 20.66 0 21 C-8.788 21.921 -8.788 21.921 -13.125 18.625 C-15.931 14.421 -15.822 9.844 -15 5 C-12.162 -1.756 -6.348 -0.492 0 0 Z " fill="#EBD385" transform="translate(145,77)"/>
<path d="M0 0 C2.31 0 4.62 0 7 0 C7 0.66 7 1.32 7 2 C7.66 2 8.32 2 9 2 C9 2.99 9 3.98 9 5 C11.31 5 13.62 5 16 5 C16 4.34 16 3.68 16 3 C16.66 3 17.32 3 18 3 C18.33 2.01 18.66 1.02 19 0 C20.98 0 22.96 0 25 0 C24.443 0.392 23.886 0.784 23.312 1.188 C20.872 3.018 20.872 3.018 18.5 5.562 C16.283 7.724 14.743 8.739 12 10 C11.186 9.151 11.186 9.151 10.355 8.285 C9.64 7.552 8.925 6.818 8.188 6.062 C7.48 5.332 6.772 4.601 6.043 3.848 C4.045 1.792 4.045 1.792 1 1 C0.67 1.99 0.34 2.98 0 4 C0 2.68 0 1.36 0 0 Z " fill="#49250F" transform="translate(780,190)"/>
<path d="M0 0 C0.99 1.32 1.98 2.64 3 4 C2.095 5.155 1.176 6.299 0.25 7.438 C-0.516 8.395 -0.516 8.395 -1.297 9.371 C-3.197 11.188 -4.436 11.604 -7 12 C-7.495 9.525 -7.495 9.525 -8 7 C-5.36 4.69 -2.72 2.38 0 0 Z " fill="#DDAA71" transform="translate(233,884)"/>
<path d="M0 0 C1.32 0 2.64 0 4 0 C4 0.66 4 1.32 4 2 C4.66 2 5.32 2 6 2 C8.077 6.399 8.077 6.399 7.75 8.938 C7.502 9.618 7.255 10.299 7 11 C6.752 12.031 6.505 13.062 6.25 14.125 C5 17 5 17 2.375 18.375 C1.199 18.684 1.199 18.684 0 19 C0.495 18.381 0.99 17.763 1.5 17.125 C3.562 12.829 3.779 8.698 3 4 C1.574 1.726 1.574 1.726 0 0 Z " fill="#4A2716" transform="translate(147,78)"/>
<path d="M0 0 C0.255 0.587 0.51 1.173 0.773 1.777 C2.496 4.9 4.931 6.926 7.539 9.316 C9 11 9 11 9 14 C5.374 13.43 3.745 12.076 1.25 9.438 C0.636 8.797 0.023 8.156 -0.609 7.496 C-1.298 6.756 -1.298 6.756 -2 6 C-1.34 5.67 -0.68 5.34 0 5 C0 3.35 0 1.7 0 0 Z " fill="#E5C67C" transform="translate(797,202)"/>
<path d="M0 0 C-0.253 3.421 -1.308 4.308 -3.812 6.812 C-7 9 -7 9 -9.25 9 C-11 8 -11 8 -13 5 C-12.01 4.67 -11.02 4.34 -10 4 C-9.67 4.99 -9.34 5.98 -9 7 C-8.34 6.01 -7.68 5.02 -7 4 C-6.34 4 -5.68 4 -5 4 C-4.67 3.01 -4.34 2.02 -4 1 C-2 0 -2 0 0 0 Z " fill="#251005" transform="translate(245,871)"/>
<path d="M0 0 C3.353 0.576 4.938 1.593 7.25 4.062 C8.031 4.884 8.031 4.884 8.828 5.723 C9.408 6.355 9.408 6.355 10 7 C9.67 7.99 9.34 8.98 9 10 C7.868 9.092 6.745 8.173 5.625 7.25 C4.999 6.74 4.372 6.229 3.727 5.703 C1.917 3.918 0.999 2.321 0 0 Z " fill="#D0AD73" transform="translate(225,872)"/>
<path d="M0 0 C1.32 0.99 2.64 1.98 4 3 C3.65 6.242 3.438 7.615 0.938 9.812 C0.298 10.204 -0.341 10.596 -1 11 C-2.352 7.35 -1.553 5.472 0 2 C0 1.34 0 0.68 0 0 Z " fill="#261208" transform="translate(785,198)"/>
<path d="M0 0 C2.857 1.172 3.844 2.4 5.438 5 C-4.562 5 -4.562 5 -6.562 4 C-3.29 0 -3.29 0 0 0 Z " fill="#23120C" transform="translate(238.5625,888)"/>
<path d="M0 0 C4.59 1.148 5.337 2.29 8 6 C7.397 5.905 6.793 5.809 6.172 5.711 C5.373 5.6 4.573 5.489 3.75 5.375 C2.567 5.201 2.567 5.201 1.359 5.023 C-1.322 4.997 -2.727 5.634 -5 7 C-3.35 4.69 -1.7 2.38 0 0 Z " fill="#3E1E10" transform="translate(792,207)"/>
<path d="M0 0 C2.379 0.176 3.702 0.697 5.379 2.402 C6.621 3.906 7.814 5.451 9 7 C6.188 7.25 6.188 7.25 3 7 C1.125 5.188 1.125 5.188 0 3 C0 2.01 0 1.02 0 0 Z " fill="#E8CB82" transform="translate(781,191)"/>
<path d="M0 0 C1.485 0.99 1.485 0.99 3 2 C3.398 4.277 3.398 4.277 3.375 6.938 C3.383 7.813 3.39 8.688 3.398 9.59 C3 12 3 12 0 15 C0 10.05 0 5.1 0 0 Z " fill="#F3E5B7" transform="translate(148,80)"/>
<path d="M0 0 C1.485 0.99 1.485 0.99 3 2 C4.655 2.385 6.322 2.728 8 3 C8.33 3.99 8.66 4.98 9 6 C6.525 5.01 6.525 5.01 4 4 C4 4.66 4 5.32 4 6 C0.125 4.25 0.125 4.25 -1 2 C-0.67 1.34 -0.34 0.68 0 0 Z " fill="#34291D" transform="translate(244,893)"/>
<path d="M0 0 C2.475 0.495 2.475 0.495 5 1 C5.33 2.65 5.66 4.3 6 6 C4.68 6 3.36 6 2 6 C1.34 4.02 0.68 2.04 0 0 Z " fill="#FDF3AA" transform="translate(234,881)"/>
<path d="M0 0 C0 2.84 -0.403 5.237 -1 8 C-0.01 8 0.98 8 2 8 C2.33 9.65 2.66 11.3 3 13 C-2.841 8.741 -2.841 8.741 -3.562 5.375 C-2.926 2.687 -2.14 1.694 0 0 Z " fill="#512410" transform="translate(801,198)"/>
<path d="M0 0 C0.33 0 0.66 0 1 0 C1.492 7.262 1.492 7.262 -1 11 C-1.66 11.66 -2.32 12.32 -3 13 C-4.32 12.67 -5.64 12.34 -7 12 C-3.25 9 -3.25 9 -1 9 C-0.67 6.03 -0.34 3.06 0 0 Z " fill="#160403" transform="translate(153,86)"/>
<path d="M0 0 C1.32 0.33 2.64 0.66 4 1 C4 2.98 4 4.96 4 7 C2.35 7 0.7 7 -1 7 C-1 6.01 -1 5.02 -1 4 C-0.01 4.33 0.98 4.66 2 5 C1.34 3.35 0.68 1.7 0 0 Z " fill="#392414" transform="translate(804,211)"/>
<path d="M0 0 C0.66 0.99 1.32 1.98 2 3 C0.47 4.204 -1.06 5.409 -2.59 6.613 C-4.272 8.057 -4.272 8.057 -5 11 C-5.99 10.34 -6.98 9.68 -8 9 C-7.506 8.602 -7.013 8.203 -6.504 7.793 C-5.863 7.263 -5.223 6.733 -4.562 6.188 C-3.924 5.665 -3.286 5.143 -2.629 4.605 C-0.745 2.992 -0.745 2.992 0 0 Z " fill="#2E1A0F" transform="translate(251,872)"/>
<path d="M0 0 C1.32 0 2.64 0 4 0 C4 1.98 4 3.96 4 6 C3.01 6 2.02 6 1 6 C0.67 4.02 0.34 2.04 0 0 Z " fill="#252C33" transform="translate(880,787)"/>
<path d="M0 0 C0.33 0 0.66 0 1 0 C1.037 0.592 1.075 1.183 1.113 1.793 C1.514 6.607 2.039 10.008 5 14 C2.525 13.01 2.525 13.01 0 12 C0 8.04 0 4.08 0 0 Z " fill="#522E11" transform="translate(129,83)"/>
<path d="M0 0 C0.66 1.32 1.32 2.64 2 4 C3.32 3.67 4.64 3.34 6 3 C6 3.66 6 4.32 6 5 C4.02 5.33 2.04 5.66 0 6 C-1.125 2.25 -1.125 2.25 0 0 Z " fill="#75533B" transform="translate(224,892)"/>
<path d="M0 0 C0.33 0.66 0.66 1.32 1 2 C0.67 2.66 0.34 3.32 0 4 C0.99 4.33 1.98 4.66 3 5 C2.34 5.66 1.68 6.32 1 7 C0.01 7 -0.98 7 -2 7 C-2.125 4.625 -2.125 4.625 -2 2 C-1.34 1.34 -0.68 0.68 0 0 Z " fill="#BE9064" transform="translate(783,210)"/>
<path d="M0 0 C1.875 0.25 1.875 0.25 4 1 C5.25 3.062 5.25 3.062 6 5 C4.125 4.75 4.125 4.75 2 4 C0.75 1.938 0.75 1.938 0 0 Z " fill="#F1DC99" transform="translate(244,891)"/>
<path d="M0 0 C2.062 1.75 2.062 1.75 4 4 C3.75 6.25 3.75 6.25 3 8 C0.938 6.25 0.938 6.25 -1 4 C-0.75 1.75 -0.75 1.75 0 0 Z " fill="#3B1B0C" transform="translate(242,882)"/>
<path d="M0 0 C1.32 0 2.64 0 4 0 C2.796 2.494 1.546 4.681 0 7 C-0.66 5.35 -1.32 3.7 -2 2 C-1.34 1.34 -0.68 0.68 0 0 Z " fill="#E4AC6E" transform="translate(240,879)"/>
</svg>
