<svg xmlns="http://www.w3.org/2000/svg" viewBox="0 0 1080 1080" width="1080" height="1080">
  <g id="background-layer" opacity="0.9">
    <path d="M0 0 C337.92 0 675.84 0 1024 0 C1024 337.92 1024 675.84 1024 1024 C686.08 1024 348.16 1024 0 1024 C0 686.08 0 348.16 0 0 Z " fill="#FE2E40" transform="translate(0,0)"/>
<path d="M0 0 C337.92 0 675.84 0 1024 0 C1024 337.92 1024 675.84 1024 1024 C686.08 1024 348.16 1024 0 1024 C0 686.08 0 348.16 0 0 Z M171 46 C171 352.24 171 658.48 171 974 C395.4 974 619.8 974 851 974 C852.368 971.264 852.124 969.102 852.123 966.038 C852.125 964.759 852.127 963.48 852.129 962.162 C852.126 960.73 852.123 959.297 852.12 957.865 C852.121 956.353 852.122 954.842 852.123 953.331 C852.125 949.162 852.121 944.994 852.116 940.825 C852.112 936.336 852.113 931.846 852.114 927.357 C852.114 919.573 852.111 911.79 852.106 904.007 C852.098 892.753 852.095 881.5 852.094 870.246 C852.092 851.99 852.085 833.733 852.075 815.477 C852.066 797.739 852.059 780 852.055 762.262 C852.055 761.169 852.054 760.077 852.054 758.951 C852.053 753.469 852.052 747.988 852.05 742.506 C852.04 697.004 852.022 651.502 852 606 C850.879 606.958 849.758 607.916 848.637 608.875 C847.701 609.675 847.701 609.675 846.746 610.491 C844.765 612.203 842.846 613.966 840.949 615.77 C840.256 616.426 839.562 617.083 838.848 617.76 C838.135 618.437 837.422 619.114 836.688 619.812 C831.265 624.941 825.825 630.033 820.25 634.996 C818.679 636.395 817.117 637.805 815.562 639.223 C810.342 643.978 804.995 648.491 799.445 652.859 C796.937 654.929 796.937 654.929 795 657.5 C792.846 660.192 790.581 662.12 787.875 664.25 C784.123 667.255 780.484 670.318 776.938 673.562 C772.136 677.94 767.12 682.002 762 686 C767.381 679.642 773.133 673.721 779.027 667.84 C779.985 666.882 780.942 665.923 781.899 664.965 C783.894 662.969 785.89 660.975 787.887 658.982 C790.427 656.449 792.962 653.911 795.495 651.371 C797.467 649.395 799.442 647.422 801.418 645.449 C802.801 644.066 804.183 642.681 805.565 641.296 C810.024 636.854 814.533 632.541 819.323 628.456 C821.851 626.26 824.16 623.896 826.5 621.5 C829.561 618.398 832.64 615.352 835.938 612.5 C836.864 611.665 836.864 611.665 837.809 610.812 C840 609 840 609 843.16 606.938 C847.713 603.741 851.427 600.953 852.533 595.252 C853.045 588.482 852.664 581.749 852 575 C845.278 580.567 839.233 586.709 833.115 592.924 C828.827 597.254 824.475 601.403 819.851 605.371 C816.928 607.943 814.218 610.714 811.5 613.5 C808.2 616.882 804.872 620.148 801.281 623.223 C795.921 627.854 790.984 632.909 786 637.938 C785.025 638.918 784.05 639.897 783.074 640.877 C780.714 643.249 778.356 645.623 776 648 C776.614 647.234 777.227 646.469 777.859 645.68 C779.332 643.836 780.795 641.984 782.25 640.125 C784.193 637.797 786.266 635.849 788.58 633.893 C793.439 629.682 797.947 625.161 802.469 620.594 C803.348 619.71 804.228 618.827 805.135 617.916 C807.926 615.113 810.713 612.307 813.5 609.5 C817.174 605.799 820.852 602.102 824.531 598.406 C825.362 597.568 826.192 596.729 827.048 595.865 C830.595 592.302 834.15 588.812 837.967 585.537 C838.566 584.999 839.165 584.462 839.782 583.908 C842 582 842 582 844.539 580.211 C849.154 576.521 852.037 573.506 852.918 567.629 C853.395 562.033 853.286 556.439 853.203 550.828 C853.207 548.655 853.216 546.482 853.228 544.309 C853.251 538.337 853.211 532.366 853.161 526.393 C853.122 520.528 853.13 514.663 853.137 508.797 C853.149 496.873 853.116 484.949 853.056 473.026 C852.974 456.903 852.955 440.781 852.946 424.657 C852.894 385.897 852.754 347.136 852.625 308.375 C852.419 221.791 852.212 135.207 852 46 C627.27 46 402.54 46 171 46 Z " fill="#F8F8F8" transform="translate(0,0)"/>
<path d="M0 0 C3.335 3.335 6.25 6.726 9.125 10.438 C9.607 11.057 10.09 11.676 10.586 12.313 C11.582 13.593 12.576 14.873 13.568 16.154 C14.869 17.831 16.176 19.504 17.484 21.176 C22.274 27.335 26.893 33.595 31.438 39.938 C37.7 48.673 44.263 57.118 51.004 65.488 C54.075 69.304 57.113 73.135 60.066 77.043 C65.452 84.168 70.825 91.144 76.906 97.699 C79.116 100.127 81.186 102.634 83.25 105.188 C87.517 110.461 91.936 115.588 96.396 120.698 C96.92 121.299 97.444 121.9 97.984 122.52 C98.446 123.047 98.907 123.574 99.382 124.116 C101 126 101 126 103.201 129.026 C106.181 132.592 109.44 133.725 113.793 135.07 C114.539 135.319 115.285 135.567 116.054 135.823 C118.426 136.609 120.806 137.368 123.188 138.125 C125.544 138.893 127.898 139.667 130.252 140.442 C131.766 140.94 133.28 141.435 134.796 141.929 C140.293 143.728 145.681 145.723 151 148 C151.119 140.66 150.79 133.489 150.062 126.188 C149.202 117.13 148.657 108.102 148.43 99.007 C148.387 97.714 148.387 97.714 148.344 96.395 C148.325 95.64 148.306 94.886 148.287 94.109 C147.964 91.735 147.07 90.125 146 88 C146.375 85.25 146.375 85.25 147 83 C149.697 82.139 151.232 81.734 154 82 C157.4 83.862 160.142 86.401 163 89 C164.355 90.23 164.355 90.23 165.738 91.484 C167.61 93.193 169.476 94.908 171.336 96.629 C174.297 99.264 177.376 101.596 180.637 103.844 C181.312 104.416 181.312 104.416 182 105 C182 105.66 182 106.32 182 107 C182.535 107.235 183.07 107.469 183.621 107.711 C186.686 109.372 189.335 111.473 192.062 113.625 C213.556 130.367 236.322 145.558 259.665 159.589 C264.15 162.299 268.605 165.057 273.062 167.812 C273.919 168.34 274.776 168.867 275.659 169.411 C280.489 172.396 285.229 175.469 289.892 178.71 C292.183 180.112 294.485 181.069 297 182 C296.662 184.86 296.113 185.893 293.988 187.902 C292.664 188.91 292.664 188.91 291.312 189.938 C286.714 193.555 282.426 197.344 278.188 201.375 C273.061 206.216 267.761 210.675 262.18 214.98 C253.454 221.713 245.176 228.846 237.188 236.438 C231.647 241.696 225.812 246.346 219.593 250.779 C215.596 253.658 212.172 256.749 208.743 260.282 C205.97 263.015 202.912 265.339 199.812 267.688 C195.072 271.296 195.072 271.296 190.699 275.332 C189 277 189 277 187 277 C187 277.66 187 278.32 187 279 C188.128 278.697 189.256 278.394 190.418 278.082 C192.008 277.659 193.598 277.236 195.188 276.812 C196.283 276.518 196.283 276.518 197.4 276.217 C214.679 271.633 232.12 267.876 249.635 264.322 C268.176 260.552 286.6 256.607 304.904 251.811 C322.416 247.226 339.935 243.308 357.75 240.125 C358.596 239.974 359.441 239.822 360.312 239.666 C362.744 239.234 365.176 238.807 367.609 238.383 C368.324 238.257 369.038 238.131 369.775 238.002 C374.216 237.241 378.644 236.687 383.131 236.268 C385.087 236.088 385.087 236.088 387 235 C389.207 234.929 391.417 234.916 393.625 234.938 C394.814 234.947 396.002 234.956 397.227 234.965 C398.599 234.982 398.599 234.982 400 235 C397.59 246.202 394.524 256.977 390.761 267.797 C389.518 271.396 388.323 275.011 387.125 278.625 C386.417 280.75 385.708 282.875 385 285 C385.99 285 386.98 285 388 285 C388.235 284.428 388.469 283.855 388.711 283.266 C390.299 280.475 392.193 278.843 394.625 276.75 C401.294 270.887 407.4 264.75 413.199 258.031 C416.294 254.54 419.468 251.053 423 248 C423.66 248 424.32 248 425 248 C431.484 260.055 437.578 272.247 443.438 284.617 C446.525 291.129 449.737 297.574 453 304 C456.425 300.167 457.837 295.607 459.574 290.859 C460.067 289.536 460.067 289.536 460.57 288.186 C461.616 285.376 462.652 282.563 463.688 279.75 C464.396 277.841 465.105 275.932 465.814 274.023 C467.55 269.352 469.277 264.677 471 260 C474 260 474 260 475.543 261.285 C476.086 261.872 476.628 262.458 477.188 263.062 C479.596 265.581 482.027 267.937 484.688 270.188 C488.915 273.82 492.809 277.751 496.7 281.737 C499.647 284.735 502.696 287.407 506 290 C507.017 290.982 508.026 291.975 509 293 C508.867 292.201 508.734 291.402 508.598 290.578 C507.716 285.094 506.925 279.67 506.562 274.125 C506.236 269.588 505.478 265.316 504.5 260.875 C502.673 252.291 502.291 243.753 502 235 C506.044 236.093 509.487 237.754 513.121 239.785 C518.957 243.036 524.938 245.78 531.062 248.438 C532.144 248.91 533.225 249.382 534.339 249.869 C549.84 256.864 549.84 256.864 566 262 C556.829 249.244 556.829 249.244 547 237 C540.195 229.034 534.146 220.478 528 212 C531.263 209.164 534.129 208.259 538.32 207.316 C539.57 207.03 540.821 206.745 542.109 206.45 C543.447 206.154 544.786 205.858 546.125 205.562 C547.484 205.254 548.843 204.944 550.202 204.634 C556.109 203.29 562.024 201.987 567.949 200.727 C568.788 200.547 569.626 200.367 570.49 200.181 C572.003 199.86 573.517 199.546 575.034 199.242 C576.704 198.891 578.355 198.455 580 198 C580.33 197.34 580.66 196.68 581 196 C580.1 195.792 579.2 195.585 578.273 195.371 C569.888 193.383 561.652 191.045 553.438 188.438 C552.047 187.998 552.047 187.998 550.628 187.551 C545.621 185.94 540.795 184.164 536 182 C537.106 180.894 538.213 179.788 539.32 178.684 C540.57 177.431 541.814 176.172 543.055 174.91 C543.8 174.156 544.545 173.402 545.312 172.625 C546.01 171.916 546.707 171.207 547.426 170.477 C548.275 169.659 549.125 168.842 550 168 C550.529 167.442 551.058 166.884 551.603 166.31 C557.421 160.594 563.702 158.679 571.438 156.5 C572.726 156.121 574.014 155.741 575.302 155.358 C579.194 154.211 583.096 153.104 587 152 C589.264 151.349 591.529 150.698 593.793 150.047 C603.747 147.208 613.737 144.512 623.756 141.915 C631.483 139.902 639.158 137.707 646.839 135.524 C653.777 133.571 660.727 131.786 667.788 130.33 C671.728 129.477 674.598 128.118 678 126 C678.99 126 679.98 126 681 126 C681.373 136.283 681.656 146.565 681.829 156.854 C681.912 161.634 682.024 166.409 682.207 171.186 C683.518 206.359 683.518 206.359 675.595 215.212 C672.911 217.631 670.159 219.698 667.107 221.628 C659.707 226.447 653.603 233.273 647.426 239.512 C646.539 240.402 645.652 241.293 644.738 242.211 C641.927 245.034 639.119 247.86 636.312 250.688 C632.603 254.424 628.89 258.156 625.176 261.887 C623.907 263.168 623.907 263.168 622.612 264.475 C621.818 265.273 621.023 266.071 620.204 266.893 C619.511 267.592 618.818 268.29 618.104 269.01 C615.838 271.153 613.441 273.061 611 275 C609.694 276.384 608.42 277.8 607.188 279.25 C606.583 279.956 605.978 280.663 605.355 281.391 C604.908 281.922 604.461 282.453 604 283 C611.198 277.065 617.63 270.425 624.174 263.787 C628.712 259.21 633.288 254.786 638.184 250.594 C641.098 248.036 643.794 245.274 646.5 242.5 C649.821 239.096 653.174 235.812 656.785 232.715 C661.758 228.419 666.329 223.742 670.938 219.062 C672.632 217.343 674.328 215.625 676.027 213.91 C676.767 213.159 677.507 212.407 678.269 211.633 C680 210 680 210 681 210 C681.235 213.666 681.375 217.329 681.5 221 C681.567 222.03 681.634 223.06 681.703 224.121 C681.815 228.531 681.892 231.719 679.315 235.419 C677.301 237.445 675.244 239.234 673 241 C671.746 242.099 670.495 243.203 669.25 244.312 C668.594 244.878 667.938 245.444 667.262 246.027 C660.032 252.333 653.003 258.842 646.328 265.734 C644.433 267.579 642.511 269.287 640.503 271.002 C635.321 275.524 630.485 280.372 625.629 285.238 C624.656 286.21 623.684 287.182 622.711 288.153 C620.69 290.173 618.671 292.194 616.653 294.217 C614.065 296.811 611.472 299.4 608.878 301.988 C606.877 303.986 604.878 305.986 602.879 307.987 C601.46 309.407 600.038 310.826 598.617 312.244 C597.762 313.103 596.907 313.961 596.026 314.845 C595.27 315.601 594.515 316.357 593.737 317.136 C591.936 318.893 591.936 318.893 591 321 C597.265 315.962 603.376 310.816 609.316 305.398 C612.956 302.145 616.691 299.011 620.447 295.893 C623.811 293.081 626.92 290.118 630 287 C632.084 285.02 634.197 283.071 636.312 281.125 C636.889 280.593 637.466 280.062 638.061 279.514 C641.613 276.249 645.211 273.048 648.859 269.891 C651.696 267.386 654.473 264.82 657.25 262.25 C657.802 261.739 658.355 261.228 658.924 260.701 C660.052 259.657 661.179 258.613 662.307 257.568 C665.034 255.042 667.765 252.519 670.5 250 C671.438 249.134 672.377 248.268 673.344 247.375 C675.83 245.152 678.388 243.072 681 241 C681.023 287.592 681.04 334.184 681.051 380.777 C681.052 386.272 681.054 391.767 681.055 397.262 C681.055 398.356 681.055 399.45 681.056 400.577 C681.06 418.314 681.068 436.05 681.077 453.786 C681.086 471.973 681.092 490.159 681.094 508.346 C681.095 519.576 681.1 530.807 681.108 542.037 C681.113 549.728 681.115 557.42 681.114 565.111 C681.113 569.555 681.114 573.999 681.119 578.442 C681.124 582.505 681.124 586.567 681.121 590.629 C681.12 592.105 681.122 593.58 681.125 595.055 C681.129 597.049 681.126 599.044 681.123 601.038 C681.124 602.705 681.124 602.705 681.124 604.405 C681 607 681 607 680 609 C455.6 609 231.2 609 0 609 C0 408.03 0 207.06 0 0 Z " fill="#171E8C" transform="translate(171,365)"/>
<path d="M0 0 C224.73 0 449.46 0 681 0 C681 146.85 681 293.7 681 445 C675.098 447.951 671.658 449.546 665.562 450.812 C658.236 452.415 651.027 454.328 643.812 456.375 C642.202 456.831 642.202 456.831 640.559 457.297 C638.4 457.908 636.24 458.521 634.081 459.133 C629.541 460.411 624.99 461.644 620.438 462.875 C609.82 465.76 599.204 468.66 588.628 471.698 C587.95 471.893 587.271 472.088 586.572 472.289 C585.231 472.674 583.89 473.06 582.55 473.446 C578.827 474.509 575.099 475.474 571.328 476.348 C558.884 479.406 551.392 485.872 542.713 495.172 C540.851 497.159 538.933 499.083 537 501 C558.972 508.089 558.972 508.089 581 515 C580.67 515.99 580.34 516.98 580 518 C577.738 518.844 577.738 518.844 574.742 519.5 C573.101 519.869 573.101 519.869 571.427 520.245 C569.669 520.619 569.669 520.619 567.875 521 C566.69 521.263 565.506 521.525 564.285 521.796 C556.885 523.425 549.464 524.913 542.023 526.344 C537.874 527.244 533.982 528.533 530 530 C530 539.695 547.854 555.847 554.25 563.812 C566 578.461 566 578.461 566 581 C561.05 580.453 556.945 579.38 552.359 577.453 C551.752 577.2 551.144 576.947 550.518 576.686 C548.592 575.882 546.671 575.066 544.75 574.25 C543.478 573.718 542.206 573.187 540.934 572.656 C530.988 568.494 521.141 564.144 511.5 559.312 C510.335 558.731 509.169 558.15 507.969 557.551 C505 556 505 556 502 554 C502.45 558.001 502.911 562.001 503.375 566 C503.564 567.688 503.564 567.688 503.758 569.41 C504.562 576.388 504.562 576.388 506.031 583.246 C507.133 587.517 507.672 591.684 508.125 596.062 C508.211 596.826 508.298 597.59 508.387 598.377 C508.879 602.947 509.085 607.405 509 612 C505.34 610.78 503.59 608.715 501 606 C499.621 604.604 498.239 603.211 496.855 601.82 C496.096 601.056 495.336 600.291 494.553 599.504 C493.772 598.719 492.992 597.934 492.188 597.125 C491.419 596.348 490.65 595.57 489.857 594.77 C481.442 586.28 481.442 586.28 472 579 C471.806 579.52 471.612 580.039 471.413 580.574 C469.395 585.98 467.365 591.381 465.329 596.78 C464.57 598.795 463.815 600.812 463.062 602.829 C461.98 605.729 460.888 608.625 459.793 611.52 C459.458 612.423 459.124 613.326 458.779 614.257 C458.459 615.097 458.139 615.938 457.809 616.804 C457.532 617.543 457.254 618.283 456.968 619.045 C455.926 621.15 454.743 622.444 453 624 C446.774 612.444 440.88 600.772 435.288 588.895 C432.433 582.861 429.407 576.986 426.11 571.18 C425 569 425 569 425 567 C418.475 572.576 412.287 578.297 406.688 584.812 C402.387 589.802 397.689 594.379 393 599 C392.136 599.924 391.273 600.849 390.383 601.801 C388 604 388 604 385 604 C385.601 599.834 386.546 596.044 387.926 592.07 C388.309 590.952 388.692 589.833 389.086 588.681 C389.491 587.507 389.896 586.334 390.312 585.125 C393.698 575.165 396.749 565.279 399 555 C397.042 554.973 395.083 554.954 393.125 554.938 C392.034 554.926 390.944 554.914 389.82 554.902 C387.048 554.803 387.048 554.803 385 556 C383.585 556.252 382.163 556.462 380.738 556.648 C379.443 556.824 379.443 556.824 378.121 557.002 C377.194 557.125 376.267 557.248 375.312 557.375 C368.933 558.242 362.658 559.221 356.375 560.625 C347.654 562.478 338.884 562.723 330 563 C333.191 559.228 336.372 555.488 339.875 552 C340.471 551.402 341.066 550.804 341.68 550.188 C343.659 548.321 345.68 546.556 347.746 544.789 C352.194 540.919 356.191 536.704 360.188 532.375 C366.068 526.046 371.869 519.834 378.547 514.332 C380.128 513.042 380.128 513.042 381 511 C379.774 510.746 378.548 510.492 377.285 510.23 C371.247 508.887 365.357 507.098 359.438 505.312 C357.055 504.6 354.672 503.888 352.289 503.176 C351.085 502.816 349.882 502.456 348.642 502.084 C342.872 500.366 337.093 498.682 331.312 497 C330.273 496.697 329.234 496.395 328.164 496.083 C325.776 495.388 323.388 494.694 321 494 C321 493.34 321 492.68 321 492 C337.613 488.228 354.132 484.527 371.032 482.276 C375.379 481.666 379.692 480.84 384 480 C381.705 475.792 379.225 471.781 376.555 467.801 C375.846 466.742 375.137 465.684 374.407 464.593 C374.021 464.017 373.635 463.441 373.237 462.847 C370.978 459.474 368.728 456.094 366.477 452.715 C365.509 451.264 364.542 449.812 363.574 448.361 C348 425 348 425 348 422 C352.925 423.638 357.848 425.285 362.766 426.945 C378.471 432.232 394.239 437.245 410.085 442.09 C413.07 443.022 416.036 444.002 419 445 C418.992 443.653 418.992 443.653 418.984 442.279 C418.878 421.161 419.154 400.102 420 379 C420.66 379 421.32 379 422 379 C423.438 380.569 424.8 382.209 426.125 383.875 C426.932 384.883 427.739 385.891 428.57 386.93 C429.372 387.943 430.174 388.956 431 390 C432.333 391.667 433.666 393.334 435 395 C435.969 396.212 435.969 396.212 436.957 397.449 C439.194 400.242 441.435 403.032 443.688 405.812 C444.393 406.685 445.098 407.558 445.824 408.457 C448.095 411.111 450.5 413.562 453 416 C453.811 415.31 454.622 414.621 455.457 413.91 C460.829 409.349 466.21 404.809 471.688 400.375 C476.012 396.855 480.165 393.189 484.285 389.434 C487.393 386.648 490.567 383.949 493.75 381.25 C499.36 376.481 504.789 371.547 510.162 366.514 C513.742 363.161 517.365 359.877 521.078 356.672 C524.275 353.891 527.407 351.036 530.551 348.195 C532.743 346.23 534.958 344.298 537.188 342.375 C539.725 340.168 542.141 337.896 544.5 335.5 C546.758 333.207 549.06 331.036 551.5 328.938 C561.193 320.557 570.488 311.695 579.436 302.527 C582.145 299.77 584.924 297.169 587.855 294.648 C593.037 290.169 597.759 285.257 602.527 280.346 C603.546 279.31 603.546 279.31 604.586 278.254 C605.195 277.628 605.804 277.002 606.431 276.358 C608 275 608 275 610 275 C610 274.34 610 273.68 610 273 C611.416 271.607 611.416 271.607 613.406 269.969 C618.379 265.74 622.924 261.15 627.5 256.5 C636.455 247.402 636.455 247.402 640.906 243.594 C646.225 239.028 651.082 233.988 656 229 C661.624 223.295 667.226 217.622 673.344 212.438 C675.041 211.012 675.041 211.012 676.594 209.312 C678 208 678 208 680 208 C680 139.69 680 71.38 680 1 C455.93 1 231.86 1 1 1 C1 105.94 1 210.88 1 319 C0.67 319 0.34 319 0 319 C0 213.73 0 108.46 0 0 Z " fill="#EC1E21" transform="translate(171,46)"/>
<path d="M0 0 C0.373 10.283 0.656 20.565 0.829 30.854 C0.912 35.634 1.024 40.409 1.207 45.186 C2.518 80.359 2.518 80.359 -5.405 89.212 C-8.089 91.631 -10.841 93.698 -13.893 95.628 C-21.293 100.447 -27.397 107.273 -33.574 113.512 C-34.461 114.402 -35.348 115.293 -36.262 116.211 C-39.073 119.034 -41.881 121.86 -44.688 124.688 C-48.397 128.424 -52.11 132.156 -55.824 135.887 C-56.67 136.741 -57.516 137.595 -58.388 138.475 C-59.182 139.273 -59.977 140.071 -60.796 140.893 C-61.835 141.941 -61.835 141.941 -62.896 143.01 C-65.162 145.153 -67.559 147.061 -70 149 C-71.306 150.384 -72.58 151.8 -73.812 153.25 C-74.417 153.956 -75.022 154.663 -75.645 155.391 C-76.092 155.922 -76.539 156.453 -77 157 C-69.802 151.065 -63.37 144.425 -56.826 137.787 C-52.288 133.21 -47.712 128.786 -42.816 124.594 C-39.902 122.036 -37.206 119.274 -34.5 116.5 C-31.179 113.096 -27.826 109.812 -24.215 106.715 C-19.242 102.419 -14.671 97.742 -10.062 93.062 C-8.368 91.343 -6.672 89.625 -4.973 87.91 C-4.233 87.159 -3.493 86.407 -2.731 85.633 C-1 84 -1 84 0 84 C0.235 87.666 0.375 91.329 0.5 95 C0.567 96.03 0.634 97.06 0.703 98.121 C0.815 102.531 0.892 105.719 -1.685 109.419 C-3.699 111.445 -5.756 113.234 -8 115 C-9.254 116.099 -10.505 117.203 -11.75 118.312 C-12.406 118.878 -13.062 119.444 -13.738 120.027 C-20.968 126.333 -27.997 132.842 -34.672 139.734 C-36.567 141.579 -38.489 143.287 -40.497 145.002 C-45.679 149.524 -50.515 154.372 -55.371 159.238 C-56.344 160.21 -57.316 161.182 -58.289 162.153 C-60.31 164.173 -62.329 166.194 -64.347 168.217 C-66.935 170.811 -69.528 173.4 -72.122 175.988 C-74.123 177.986 -76.122 179.986 -78.121 181.987 C-79.54 183.407 -80.962 184.826 -82.383 186.244 C-83.238 187.103 -84.093 187.961 -84.974 188.845 C-86.107 189.979 -86.107 189.979 -87.263 191.136 C-89.064 192.893 -89.064 192.893 -90 195 C-83.735 189.962 -77.624 184.816 -71.684 179.398 C-68.044 176.145 -64.309 173.011 -60.553 169.893 C-57.189 167.081 -54.08 164.118 -51 161 C-48.916 159.02 -46.803 157.071 -44.688 155.125 C-44.111 154.593 -43.534 154.062 -42.939 153.514 C-39.387 150.249 -35.789 147.048 -32.141 143.891 C-29.304 141.386 -26.527 138.82 -23.75 136.25 C-23.198 135.739 -22.645 135.228 -22.076 134.701 C-20.948 133.657 -19.821 132.613 -18.693 131.568 C-15.966 129.042 -13.235 126.519 -10.5 124 C-9.562 123.134 -8.623 122.268 -7.656 121.375 C-5.181 119.161 -2.593 117.075 0 115 C0 235.78 0 356.56 0 481 C-224.4 481 -448.8 481 -680 481 C-680 480.67 -680 480.34 -680 480 C-670.1 479.67 -660.2 479.34 -650 479 C-649.67 478.34 -649.34 477.68 -649 477 C-648.445 477.325 -647.89 477.65 -647.318 477.985 C-644.653 479.152 -642.821 479.248 -639.919 479.243 C-638.886 479.247 -637.853 479.25 -636.789 479.254 C-635.655 479.247 -634.521 479.24 -633.352 479.234 C-631.54 479.235 -631.54 479.235 -629.692 479.237 C-626.33 479.238 -622.968 479.229 -619.606 479.217 C-615.968 479.207 -612.329 479.208 -608.691 479.207 C-602.344 479.205 -595.997 479.195 -589.65 479.181 C-580.325 479.16 -571 479.151 -561.676 479.145 C-546.245 479.135 -530.814 479.117 -515.383 479.094 C-480.584 479.043 -445.785 479.024 -410.986 479.008 C-405.369 479.005 -399.752 479.002 -394.136 478.999 C-330.76 478.964 -267.387 479.093 -204.012 479.482 C-200.984 479.5 -197.957 479.518 -194.929 479.537 C-171.953 479.675 -148.976 479.826 -126 480 C-125.784 478.818 -125.784 478.818 -125.563 477.611 C-124.994 474.973 -124.302 473.661 -122.75 471.5 C-119.815 467.021 -118.09 462.289 -116.246 457.281 C-115.13 454.343 -113.902 451.528 -112.562 448.688 C-110.261 443.727 -108.329 438.663 -106.442 433.536 C-104.391 427.984 -102.215 422.489 -100 417 C-97.245 410.165 -94.578 403.306 -92.017 396.397 C-90.353 391.914 -88.619 387.467 -86.785 383.051 C-85.874 380.806 -85.874 380.806 -85.188 377.562 C-84 375 -84 375 -81 373.75 C-80.38 373.533 -79.76 373.317 -79.121 373.094 C-75.217 371.08 -72.473 367.679 -69.465 364.535 C-67.424 362.436 -65.374 360.553 -63.125 358.688 C-55.512 352.158 -48.564 344.46 -42.758 336.289 C-39.638 332.226 -36.179 328.438 -32.756 324.629 C-29.439 320.88 -26.646 317.074 -24.07 312.781 C-22.451 310.086 -20.628 307.528 -18.82 304.957 C-17.637 302.133 -17.94 300.876 -19 298 C-20.777 295.798 -22.529 293.822 -24.5 291.812 C-25.589 290.667 -26.677 289.521 -27.766 288.375 C-28.309 287.809 -28.852 287.243 -29.412 286.66 C-31.726 284.241 -33.993 281.785 -36.25 279.312 C-36.977 278.525 -37.704 277.737 -38.453 276.926 C-40 275 -40 275 -40 273 C-40.66 273 -41.32 273 -42 273 C-42 272.34 -42 271.68 -42 271 C-42.66 271 -43.32 271 -44 271 C-45.621 269.355 -45.621 269.355 -47.438 267.188 C-49.973 264.175 -49.973 264.175 -52.723 261.363 C-54 260 -54 260 -54 258 C-54.66 258 -55.32 258 -56 258 C-57.517 256.301 -58.965 254.539 -60.375 252.75 C-62.592 249.947 -64.731 247.263 -67.289 244.766 C-69 243 -69 243 -69 241 C-69.99 240.67 -70.98 240.34 -72 240 C-73.824 238.223 -73.824 238.223 -75.688 236.062 C-76.31 235.352 -76.933 234.642 -77.574 233.91 C-79 232 -79 232 -79 230 C-79.66 230 -80.32 230 -81 230 C-81.955 228.619 -82.9 227.231 -83.8 225.814 C-86.012 222.471 -88.59 219.413 -91.125 216.312 C-91.697 215.611 -92.269 214.909 -92.858 214.186 C-97.713 208.268 -102.801 202.617 -108 197 C-110.362 194.358 -112.684 191.683 -115 189 C-115.662 188.236 -115.662 188.236 -116.336 187.457 C-123.293 179.416 -130.162 171.33 -136.621 162.879 C-140.716 157.527 -145.035 152.405 -149.445 147.312 C-152.651 143.602 -155.756 139.835 -158.812 136 C-162.219 131.78 -165.838 128.453 -170 125 C-170 124.34 -170 123.68 -170 123 C-170.66 123 -171.32 123 -172 123 C-173.707 121.374 -175.377 119.709 -177 118 C-177.33 118.99 -177.66 119.98 -178 121 C-179.327 117.019 -179.069 113.15 -179 109 C-174.995 110.082 -171.61 111.717 -168.023 113.746 C-162.133 116.991 -156.104 119.762 -149.938 122.438 C-148.856 122.91 -147.775 123.382 -146.661 123.869 C-131.16 130.864 -131.16 130.864 -115 136 C-124.171 123.244 -124.171 123.244 -134 111 C-140.805 103.034 -146.854 94.478 -153 86 C-149.737 83.164 -146.871 82.259 -142.68 81.316 C-141.43 81.03 -140.179 80.745 -138.891 80.45 C-137.553 80.154 -136.214 79.858 -134.875 79.562 C-133.516 79.254 -132.157 78.944 -130.798 78.634 C-124.891 77.29 -118.976 75.987 -113.051 74.727 C-112.212 74.547 -111.374 74.367 -110.51 74.181 C-108.997 73.86 -107.483 73.546 -105.966 73.242 C-104.296 72.891 -102.645 72.455 -101 72 C-100.67 71.34 -100.34 70.68 -100 70 C-100.9 69.792 -101.8 69.585 -102.727 69.371 C-111.112 67.383 -119.348 65.045 -127.562 62.438 C-128.489 62.145 -129.416 61.852 -130.372 61.551 C-135.379 59.94 -140.205 58.164 -145 56 C-143.894 54.894 -142.787 53.788 -141.68 52.684 C-140.43 51.431 -139.186 50.172 -137.945 48.91 C-137.2 48.156 -136.455 47.402 -135.688 46.625 C-134.99 45.916 -134.293 45.207 -133.574 44.477 C-132.725 43.659 -131.875 42.842 -131 42 C-130.471 41.442 -129.942 40.884 -129.397 40.31 C-123.579 34.594 -117.298 32.679 -109.562 30.5 C-108.274 30.121 -106.986 29.741 -105.698 29.358 C-101.806 28.211 -97.904 27.104 -94 26 C-91.736 25.349 -89.471 24.698 -87.207 24.047 C-77.253 21.208 -67.263 18.512 -57.244 15.915 C-49.517 13.902 -41.842 11.707 -34.161 9.524 C-27.223 7.571 -20.273 5.786 -13.212 4.33 C-8.476 3.304 -4.694 0 0 0 Z " fill="#002A8F" transform="translate(852,491)"/>
<path d="M0 0 C0.66 0 1.32 0 2 0 C3.438 1.569 4.8 3.209 6.125 4.875 C6.932 5.883 7.739 6.891 8.57 7.93 C9.372 8.943 10.174 9.956 11 11 C12.333 12.667 13.666 14.334 15 16 C15.654 16.819 16.307 17.637 16.98 18.48 C22.43 25.279 27.977 31.99 33.625 38.625 C37.895 43.642 42.022 48.746 46 54 C49.09 53.418 50.817 52.558 53.125 50.438 C56 48 56 48 58 48 C58.264 47.406 58.528 46.812 58.8 46.2 C60.047 43.914 61.286 42.547 63.195 40.793 C63.825 40.21 64.454 39.627 65.102 39.027 C65.77 38.42 66.437 37.813 67.125 37.188 C68.151 36.242 68.151 36.242 69.199 35.278 C73.051 31.741 76.94 28.253 80.906 24.844 C84.421 21.749 87.837 18.546 91.258 15.349 C101.31 6 101.31 6 104 6 C103.416 14.425 101.785 22.556 100.062 30.812 C98.336 39.133 96.744 47.425 95.503 55.832 C94.651 61.198 93.512 66.501 92.375 71.812 C92.146 72.899 91.916 73.985 91.68 75.104 C91.123 77.736 90.563 80.368 90 83 C90.653 82.945 91.305 82.889 91.978 82.832 C114.379 80.947 136.514 79.811 159 80 C157.647 83.061 156.168 85.029 153.699 87.277 C153.051 87.874 152.404 88.47 151.736 89.084 C151.06 89.696 150.384 90.307 149.688 90.938 C148.357 92.154 147.028 93.372 145.699 94.59 C145.058 95.177 144.416 95.764 143.755 96.369 C141.442 98.519 139.23 100.764 137 103 C134.328 105.538 131.633 108.05 128.938 110.562 C127.529 111.876 126.122 113.189 124.715 114.504 C124.097 115.08 123.48 115.655 122.844 116.248 C120.861 118.132 118.926 120.059 117 122 C138.972 129.089 138.972 129.089 161 136 C160.67 136.99 160.34 137.98 160 139 C157.738 139.844 157.738 139.844 154.742 140.5 C153.648 140.746 152.554 140.992 151.427 141.245 C150.255 141.494 149.083 141.743 147.875 142 C146.69 142.263 145.506 142.525 144.285 142.796 C136.885 144.425 129.464 145.913 122.023 147.344 C117.874 148.244 113.982 149.533 110 151 C110 160.695 127.854 176.847 134.25 184.812 C146 199.461 146 199.461 146 202 C141.05 201.453 136.945 200.38 132.359 198.453 C131.752 198.2 131.144 197.947 130.518 197.686 C128.592 196.882 126.671 196.066 124.75 195.25 C123.478 194.718 122.206 194.187 120.934 193.656 C110.988 189.494 101.141 185.144 91.5 180.312 C89.752 179.44 89.752 179.44 87.969 178.551 C85 177 85 177 82 175 C82.45 179.001 82.911 183.001 83.375 187 C83.501 188.125 83.628 189.251 83.758 190.41 C84.562 197.388 84.562 197.388 86.031 204.246 C87.133 208.517 87.672 212.684 88.125 217.062 C88.211 217.826 88.298 218.59 88.387 219.377 C88.879 223.947 89.085 228.405 89 233 C85.34 231.78 83.59 229.715 81 227 C79.621 225.604 78.239 224.211 76.855 222.82 C76.096 222.056 75.336 221.291 74.553 220.504 C73.772 219.719 72.992 218.934 72.188 218.125 C71.419 217.348 70.65 216.57 69.857 215.77 C61.442 207.28 61.442 207.28 52 200 C51.806 200.52 51.612 201.039 51.413 201.574 C49.395 206.98 47.365 212.381 45.329 217.78 C44.57 219.795 43.815 221.812 43.062 223.829 C41.98 226.729 40.888 229.625 39.793 232.52 C39.291 233.874 39.291 233.874 38.779 235.257 C38.459 236.097 38.139 236.938 37.809 237.804 C37.532 238.543 37.254 239.283 36.968 240.045 C35.926 242.15 34.743 243.444 33 245 C26.774 233.444 20.88 221.772 15.288 209.895 C12.433 203.861 9.407 197.986 6.11 192.18 C5 190 5 190 5 188 C-1.525 193.576 -7.713 199.297 -13.312 205.812 C-17.613 210.802 -22.311 215.379 -27 220 C-27.864 220.924 -28.727 221.849 -29.617 222.801 C-32 225 -32 225 -35 225 C-34.399 220.834 -33.454 217.044 -32.074 213.07 C-31.691 211.952 -31.308 210.833 -30.914 209.681 C-30.509 208.507 -30.104 207.334 -29.688 206.125 C-26.302 196.165 -23.251 186.279 -21 176 C-22.958 175.973 -24.917 175.954 -26.875 175.938 C-27.966 175.926 -29.056 175.914 -30.18 175.902 C-32.952 175.803 -32.952 175.803 -35 177 C-36.415 177.252 -37.837 177.462 -39.262 177.648 C-40.126 177.765 -40.989 177.882 -41.879 178.002 C-42.806 178.125 -43.733 178.248 -44.688 178.375 C-51.067 179.242 -57.342 180.221 -63.625 181.625 C-72.346 183.478 -81.116 183.723 -90 184 C-86.809 180.228 -83.628 176.488 -80.125 173 C-79.529 172.402 -78.934 171.804 -78.32 171.188 C-76.341 169.321 -74.32 167.556 -72.254 165.789 C-67.806 161.919 -63.809 157.704 -59.812 153.375 C-53.932 147.046 -48.131 140.834 -41.453 135.332 C-39.872 134.042 -39.872 134.042 -39 132 C-40.226 131.746 -41.452 131.492 -42.715 131.23 C-48.753 129.887 -54.643 128.098 -60.562 126.312 C-62.945 125.6 -65.328 124.888 -67.711 124.176 C-68.915 123.816 -70.118 123.456 -71.358 123.084 C-77.128 121.366 -82.907 119.682 -88.688 118 C-89.727 117.697 -90.766 117.395 -91.836 117.083 C-94.224 116.388 -96.612 115.694 -99 115 C-99 114.34 -99 113.68 -99 113 C-82.387 109.228 -65.868 105.527 -48.968 103.276 C-44.621 102.666 -40.308 101.84 -36 101 C-38.295 96.792 -40.775 92.781 -43.445 88.801 C-44.154 87.742 -44.863 86.684 -45.593 85.593 C-45.979 85.017 -46.365 84.441 -46.763 83.847 C-49.022 80.474 -51.272 77.094 -53.523 73.715 C-54.491 72.264 -55.458 70.812 -56.426 69.361 C-72 46 -72 46 -72 43 C-67.075 44.638 -62.152 46.285 -57.234 47.945 C-41.529 53.232 -25.761 58.245 -9.915 63.09 C-6.93 64.022 -3.964 65.002 -1 66 C-1.005 65.102 -1.01 64.204 -1.016 63.279 C-1.122 42.161 -0.846 21.102 0 0 Z " fill="#F4C10D" transform="translate(591,425)"/>
<path d="M0 0 C3.43 1.715 5.325 3.03 8.062 5.562 C15.943 12.698 24.289 19.238 32.667 25.773 C36.69 28.927 40.616 32.176 44.5 35.5 C51.971 41.893 59.718 47.917 67.496 53.93 C76.134 60.612 84.514 67.504 92.582 74.867 C95.615 77.542 98.798 79.979 102.016 82.426 C104.563 84.446 106.776 86.633 109 89 C107.36 93.428 103.97 96.097 100.562 99.188 C99.621 100.052 99.621 100.052 98.661 100.935 C94.113 105.081 89.395 108.971 84.59 112.816 C80.949 115.886 77.661 119.256 74.336 122.66 C71.67 125.331 68.862 127.772 65.996 130.223 C62.936 132.947 60.103 135.889 57.227 138.805 C54.55 141.443 51.74 143.884 48.887 146.328 C47.065 147.942 45.377 149.625 43.688 151.375 C40.044 155.076 36.069 158.288 32.027 161.543 C28.79 164.171 25.611 166.859 22.438 169.562 C20.813 170.937 19.186 172.31 17.559 173.682 C16.055 174.954 14.557 176.233 13.059 177.512 C12.173 178.25 11.287 178.989 10.375 179.75 C9.599 180.405 8.823 181.06 8.023 181.734 C7.356 182.152 6.688 182.57 6 183 C5.01 182.67 4.02 182.34 3 182 C1.139 170.038 0.613 158.163 0.215 146.074 C0.159 135.484 0.159 135.484 -1.531 125.117 C-2.205 122.073 -2.06 119.106 -2 116 C-3.268 116.364 -4.537 116.727 -5.844 117.102 C-23.467 121.923 -41.284 124.503 -59.346 127.044 C-64.704 127.801 -70.04 128.649 -75.374 129.558 C-92.549 132.451 -109.739 133.566 -127.118 134.266 C-135.559 134.62 -143.767 135.215 -152.113 136.595 C-155 137 -155 137 -160 137 C-160 100.37 -160 63.74 -160 26 C-149.875 27.125 -149.875 27.125 -146.551 27.844 C-145.42 28.086 -145.42 28.086 -144.266 28.332 C-143.48 28.505 -142.693 28.678 -141.883 28.855 C-140.613 29.129 -140.613 29.129 -139.317 29.408 C-136.585 29.996 -133.855 30.592 -131.125 31.188 C-129.232 31.598 -127.339 32.007 -125.446 32.417 C-120.801 33.423 -116.158 34.435 -111.515 35.45 C-109.23 35.95 -106.944 36.448 -104.658 36.946 C-83.565 41.55 -83.565 41.55 -73.312 44.188 C-67.557 45.664 -61.807 46.822 -55.962 47.863 C-51.58 48.659 -47.307 49.665 -43 50.812 C-33.045 53.455 -22.87 55.149 -12.742 56.982 C-12.051 57.108 -11.359 57.234 -10.646 57.364 C-8.735 57.712 -6.823 58.056 -4.911 58.399 C-2 59 -2 59 0 60 C0 40.2 0 20.4 0 0 Z " fill="#278CF8" transform="translate(331,461)"/>
<path d="M0 0 C3.335 3.335 6.25 6.726 9.125 10.438 C9.607 11.057 10.09 11.676 10.586 12.313 C11.582 13.593 12.576 14.873 13.568 16.154 C14.869 17.831 16.176 19.504 17.484 21.176 C22.274 27.335 26.893 33.595 31.438 39.938 C37.7 48.673 44.263 57.118 51.004 65.488 C54.075 69.304 57.113 73.135 60.066 77.043 C65.452 84.168 70.825 91.144 76.906 97.699 C79.116 100.127 81.186 102.634 83.25 105.188 C87.517 110.461 91.936 115.588 96.396 120.698 C96.92 121.299 97.444 121.9 97.984 122.52 C98.446 123.047 98.907 123.574 99.382 124.116 C101 126 101 126 103.201 129.026 C106.181 132.592 109.44 133.725 113.793 135.07 C114.539 135.319 115.285 135.567 116.054 135.823 C118.426 136.609 120.806 137.368 123.188 138.125 C125.544 138.893 127.898 139.667 130.252 140.442 C131.766 140.94 133.28 141.435 134.796 141.929 C140.293 143.728 145.681 145.723 151 148 C151.119 140.66 150.79 133.489 150.062 126.188 C149.202 117.13 148.657 108.102 148.43 99.007 C148.387 97.714 148.387 97.714 148.344 96.395 C148.325 95.64 148.306 94.886 148.287 94.109 C147.964 91.735 147.07 90.125 146 88 C146.375 85.25 146.375 85.25 147 83 C149.653 82.226 151.293 81.772 154 82 C156.962 83.674 159.471 85.734 162 88 C161.67 88.66 161.34 89.32 161 90 C160.879 92.093 160.823 94.189 160.795 96.286 C160.785 96.93 160.775 97.574 160.765 98.237 C160.733 100.369 160.708 102.501 160.684 104.633 C160.663 106.11 160.642 107.587 160.621 109.063 C160.565 112.953 160.516 116.843 160.468 120.732 C160.418 124.701 160.362 128.669 160.307 132.637 C160.199 140.424 160.098 148.212 160 156 C134.039 151.761 134.039 151.761 123.188 149.438 C122.243 149.242 121.299 149.047 120.326 148.846 C115.638 147.858 111.014 146.756 106.398 145.469 C101.447 144.089 96.486 143.02 91.438 142.062 C84.774 140.763 78.128 139.411 71.5 137.938 C70.82 137.787 70.14 137.637 69.439 137.483 C63.261 136.099 57.149 134.537 51 133 C25.755 127.555 25.755 127.555 0 122 C0 81.74 0 41.48 0 0 Z " fill="#001F58" transform="translate(171,365)"/>
<path d="M0 0 C8.205 0.386 15.702 2.821 23.5 5.25 C24.842 5.662 26.185 6.073 27.527 6.483 C30.16 7.287 32.791 8.095 35.422 8.905 C39.937 10.287 44.465 11.621 49 12.938 C53.367 14.207 57.694 15.536 62 17 C61.67 17.99 61.34 18.98 61 20 C60.34 20 59.68 20 59 20 C58.745 20.593 58.49 21.186 58.227 21.797 C56.874 24.227 55.517 25.492 53.375 27.25 C46.937 32.71 41.222 38.679 35.711 45.062 C31.173 50.201 26.187 54.755 21 59.223 C17.859 62.014 14.94 64.999 12 68 C15.96 68 19.92 68 24 68 C24 68.33 24 68.66 24 69 C23.143 69.18 23.143 69.18 22.27 69.364 C11.194 71.704 0.161 74.152 -10.812 76.938 C-27.343 81.115 -43.922 84.965 -60.617 88.426 C-61.659 88.642 -62.7 88.858 -63.773 89.08 C-69.012 90.164 -74.252 91.242 -79.494 92.31 C-102.501 96.976 -102.501 96.976 -125.027 103.52 C-127.397 104.097 -129.571 104.08 -132 104 C-132 103.34 -132 102.68 -132 102 C-130.492 100.625 -128.915 99.326 -127.312 98.062 C-126.312 97.262 -125.312 96.461 -124.281 95.637 C-123.746 95.209 -123.211 94.782 -122.66 94.341 C-119.84 92.063 -117.076 89.72 -114.312 87.375 C-113.757 86.905 -113.201 86.434 -112.628 85.95 C-109.719 83.482 -106.843 80.981 -104 78.438 C-101.29 76.038 -98.477 73.835 -95.579 71.667 C-89.967 67.464 -84.762 63.027 -79.688 58.188 C-72.144 50.998 -64.153 44.48 -56 38 C-50.142 33.312 -44.435 28.541 -38.938 23.438 C-24.461 10 -24.461 10 -21 10 C-21 9.01 -21 8.02 -21 7 C-20.161 6.887 -19.322 6.773 -18.457 6.656 C-14.689 5.941 -11.291 4.809 -7.688 3.5 C-6.454 3.057 -5.22 2.613 -3.949 2.156 C-1.154 1.287 -1.154 1.287 0 0 Z " fill="#F01232" transform="translate(490,540)"/>
<path d="M0 0 C2.804 1.297 5.028 2.715 7.348 4.75 C7.953 5.276 8.558 5.802 9.182 6.344 C10.113 7.164 10.113 7.164 11.062 8 C12.302 9.085 13.543 10.168 14.785 11.25 C15.331 11.73 15.876 12.209 16.438 12.703 C18.181 14.196 18.181 14.196 21 16 C21 16.66 21 17.32 21 18 C21.535 18.235 22.07 18.469 22.621 18.711 C25.686 20.372 28.335 22.473 31.062 24.625 C52.556 41.367 75.322 56.558 98.665 70.589 C103.15 73.299 107.605 76.057 112.062 78.812 C113.348 79.604 113.348 79.604 114.659 80.411 C119.489 83.396 124.229 86.469 128.892 89.71 C131.183 91.112 133.485 92.069 136 93 C135.662 95.86 135.113 96.893 132.988 98.902 C132.105 99.574 131.222 100.246 130.312 100.938 C125.714 104.555 121.426 108.344 117.188 112.375 C112.061 117.216 106.761 121.675 101.18 125.98 C92.454 132.713 84.176 139.846 76.188 147.438 C70.647 152.696 64.812 157.346 58.593 161.779 C54.594 164.659 51.165 167.752 47.735 171.287 C44.999 173.989 41.993 176.297 38.938 178.625 C30.993 183.991 30.993 183.991 25 191 C23.206 191.778 23.206 191.778 20.887 192.508 C20.051 192.772 19.215 193.036 18.354 193.309 C17.034 193.713 17.034 193.713 15.688 194.125 C14.819 194.402 13.951 194.679 13.057 194.965 C9.119 196.192 6.179 197 2 197 C2 194.36 2 191.72 2 189 C2.532 188.941 3.065 188.881 3.613 188.82 C7.087 187.626 9.483 185.273 12.188 182.875 C13.358 181.859 14.53 180.845 15.703 179.832 C16.271 179.34 16.839 178.849 17.424 178.342 C19.377 176.679 21.392 175.112 23.438 173.562 C32.767 166.394 41.552 158.653 49.77 150.234 C52.399 147.6 55.177 145.195 58.004 142.777 C60.261 140.767 62.377 138.652 64.5 136.5 C67.785 133.176 71.158 130.054 74.703 127.012 C77.688 124.397 80.592 121.7 83.5 119 C87.641 115.16 91.807 111.364 96.078 107.668 C99.75 104.481 103.37 101.235 107 98 C105.564 94.63 103.825 92.695 101.062 90.312 C100.259 89.618 99.456 88.923 98.629 88.207 C95.011 85.17 91.35 82.189 87.68 79.215 C85.267 77.221 82.939 75.169 80.625 73.062 C75.025 68.025 68.999 63.544 63 59 C57.259 54.637 51.713 50.086 46.228 45.407 C38.152 38.545 29.857 31.936 21.438 25.5 C16.767 21.899 12.324 18.037 7.871 14.174 C7.299 13.678 6.726 13.183 6.137 12.672 C5.595 12.202 5.054 11.732 4.496 11.248 C2.893 9.874 2.893 9.874 0.602 8.336 C-1 7 -1 7 -1.312 3.875 C-1 1 -1 1 0 0 Z " fill="#0236BA" transform="translate(332,454)"/>
<path d="M0 0 C0.33 0 0.66 0 1 0 C1.33 9.9 1.66 19.8 2 30 C2.33 30 2.66 30 3 30 C3.759 44.913 4.144 59.778 4.12 74.71 C4.121 76.788 4.122 78.866 4.123 80.944 C4.125 86.582 4.121 92.219 4.116 97.856 C4.112 103.963 4.113 110.07 4.114 116.176 C4.114 126.733 4.111 137.289 4.106 147.845 C4.1 158.903 4.096 169.962 4.095 181.021 C4.095 181.711 4.095 182.401 4.095 183.113 C4.094 186.618 4.094 190.124 4.094 193.63 C4.092 218.397 4.085 243.164 4.075 267.931 C4.066 291.976 4.059 316.022 4.055 340.068 C4.055 340.81 4.055 341.553 4.055 342.318 C4.053 349.775 4.052 357.232 4.051 364.689 C4.048 379.878 4.045 395.066 4.042 410.255 C4.042 411.302 4.042 411.302 4.042 412.37 C4.033 458.913 4.017 505.457 4 552 C3.34 552 2.68 552 2 552 C2.488 553.766 2.488 553.766 2.985 555.569 C4.467 562.297 4.27 569.046 4.241 575.901 C4.241 577.41 4.243 578.92 4.246 580.429 C4.25 584.559 4.242 588.688 4.232 592.818 C4.223 597.278 4.226 601.738 4.228 606.198 C4.229 613.92 4.223 621.641 4.211 629.363 C4.195 640.527 4.19 651.691 4.187 662.855 C4.183 680.969 4.17 699.083 4.151 717.197 C4.133 734.79 4.118 752.383 4.11 769.977 C4.109 771.062 4.109 772.147 4.108 773.264 C4.106 778.707 4.103 784.15 4.101 789.593 C4.08 834.728 4.045 879.864 4 925 C2.68 925.33 1.36 925.66 0 926 C-0.33 805.55 -0.66 685.1 -1 561 C-4.96 564.96 -8.92 568.92 -13 573 C-16.813 576.375 -16.813 576.375 -18.688 577.969 C-21.974 580.855 -25.132 583.874 -28.312 586.875 C-34.337 592.542 -40.531 597.844 -47 603 C-50.959 606.214 -54.259 609.306 -57.441 613.312 C-60.336 616.447 -63.768 618.977 -67.094 621.637 C-71.547 625.258 -75.758 629.136 -80 633 C-81.495 634.36 -82.995 635.714 -84.5 637.062 C-85.444 637.915 -85.444 637.915 -86.406 638.785 C-88 640 -88 640 -90 640 C-88.453 636.315 -86.216 633.969 -83.402 631.159 C-82.936 630.692 -82.471 630.224 -81.992 629.743 C-80.455 628.203 -78.911 626.67 -77.367 625.137 C-76.29 624.061 -75.214 622.985 -74.137 621.908 C-71.879 619.652 -69.618 617.398 -67.354 615.148 C-64.471 612.282 -61.594 609.409 -58.72 606.534 C-56.495 604.309 -54.267 602.087 -52.038 599.865 C-50.978 598.808 -49.918 597.751 -48.859 596.692 C-43.592 591.433 -38.306 586.239 -32.632 581.413 C-30.116 579.235 -27.825 576.881 -25.5 574.5 C-22.419 571.377 -19.317 568.313 -16 565.438 C-15.381 564.881 -14.763 564.324 -14.125 563.75 C-12 562 -12 562 -9.062 560.125 C-3.115 555.888 -3.115 555.888 -0.514 549.398 C-0.042 542.914 -0.394 536.464 -1 530 C-2.073 531.081 -2.073 531.081 -3.168 532.184 C-5.857 534.891 -8.549 537.594 -11.242 540.297 C-12.401 541.46 -13.558 542.625 -14.715 543.791 C-20.421 549.539 -26.101 555.234 -32.27 560.49 C-35.16 563.013 -37.822 565.755 -40.5 568.5 C-43.8 571.882 -47.128 575.148 -50.719 578.223 C-56.079 582.854 -61.016 587.909 -66 592.938 C-66.975 593.918 -67.95 594.897 -68.926 595.877 C-71.286 598.249 -73.644 600.623 -76 603 C-76.66 602.67 -77.32 602.34 -78 602 C-76.339 600.141 -74.671 598.288 -73 596.438 C-72.542 595.924 -72.085 595.41 -71.613 594.881 C-69.016 592.016 -66.341 589.385 -63.393 586.881 C-58.547 582.671 -54.046 578.153 -49.531 573.594 C-48.652 572.71 -47.772 571.827 -46.865 570.916 C-44.074 568.113 -41.287 565.307 -38.5 562.5 C-34.826 558.799 -31.148 555.102 -27.469 551.406 C-26.638 550.568 -25.808 549.729 -24.952 548.865 C-21.384 545.281 -17.806 541.773 -13.971 538.475 C-13.071 537.667 -13.071 537.667 -12.154 536.844 C-10 535 -10 535 -7.683 533.432 C-3.443 530.14 -0.912 527.087 -0.168 521.722 C0.275 516.135 0.184 510.548 0.12 504.949 C0.128 502.771 0.14 500.594 0.156 498.416 C0.187 492.439 0.163 486.463 0.129 480.486 C0.103 474.038 0.128 467.59 0.147 461.143 C0.175 449.973 0.166 438.805 0.137 427.635 C0.106 415.923 0.094 404.211 0.106 392.498 C0.107 391.77 0.108 391.041 0.108 390.29 C0.112 386.59 0.117 382.89 0.121 379.19 C0.152 352.99 0.141 326.79 0.106 300.59 C0.072 275.139 0.057 249.688 0.067 224.237 C0.068 223.06 0.068 223.06 0.068 221.859 C0.071 213.979 0.075 206.099 0.079 198.218 C0.086 182.166 0.091 166.113 0.095 150.061 C0.095 149.323 0.095 148.584 0.096 147.824 C0.107 98.549 0.058 49.275 0 0 Z " fill="#CAC6CB" transform="translate(852,46)"/>
<path d="M0 0 C1.717 3.433 0.135 7.206 -0.617 10.84 C-0.794 11.718 -0.97 12.596 -1.152 13.5 C-1.528 15.359 -1.906 17.218 -2.288 19.076 C-2.872 21.921 -3.446 24.768 -4.02 27.615 C-4.385 29.419 -4.751 31.223 -5.117 33.027 C-5.29 33.881 -5.463 34.734 -5.641 35.613 C-5.805 36.407 -5.968 37.201 -6.136 38.019 C-6.351 39.066 -6.351 39.066 -6.569 40.134 C-7 42 -7 42 -8 45 C-17.304 45.27 -26.446 44.423 -35.688 43.5 C-37.179 43.355 -38.671 43.21 -40.162 43.066 C-43.775 42.716 -47.388 42.36 -51 42 C-51 41.34 -51 40.68 -51 40 C-49.227 38.547 -49.227 38.547 -46.625 36.75 C-41.287 32.966 -36.096 29.026 -30.938 25 C-29.764 24.085 -29.764 24.085 -28.567 23.151 C-23.744 19.381 -18.945 15.584 -14.18 11.742 C-11.123 9.299 -8.019 6.919 -4.91 4.543 C-3.148 3.12 -1.565 1.634 0 0 Z " fill="#FAAC60" transform="translate(823,886)"/>
<path d="M0 0 C2.438 1.536 4.73 3.227 7 5 C6.67 5.66 6.34 6.32 6 7 C5.879 9.093 5.823 11.189 5.795 13.286 C5.78 14.252 5.78 14.252 5.765 15.237 C5.733 17.369 5.708 19.501 5.684 21.633 C5.663 23.11 5.642 24.587 5.621 26.063 C5.565 29.953 5.516 33.843 5.468 37.732 C5.418 41.701 5.362 45.669 5.307 49.637 C5.199 57.424 5.098 65.212 5 73 C2.061 72.551 -0.876 72.091 -3.812 71.625 C-4.646 71.499 -5.479 71.372 -6.338 71.242 C-7.14 71.113 -7.943 70.984 -8.77 70.852 C-9.508 70.736 -10.246 70.621 -11.007 70.502 C-13 70 -13 70 -16 68 C-15.01 67.01 -15.01 67.01 -14 66 C-14.33 64.35 -14.66 62.7 -15 61 C-11.37 62.32 -7.74 63.64 -4 65 C-3.911 57.648 -4.209 50.499 -4.938 43.188 C-5.798 34.13 -6.343 25.102 -6.57 16.007 C-6.599 15.145 -6.627 14.283 -6.656 13.395 C-6.675 12.64 -6.694 11.886 -6.713 11.109 C-7.036 8.735 -7.93 7.125 -9 5 C-8.625 2.25 -8.625 2.25 -8 0 C-4.529 -1.157 -3.451 -1.098 0 0 Z " fill="#041B4E" transform="translate(326,448)"/>
<path d="M0 0 C-0.2 5.935 -1.028 8.831 -5.302 12.969 C-5.883 13.495 -6.464 14.021 -7.062 14.562 C-7.659 15.129 -8.255 15.696 -8.87 16.28 C-12.403 19.614 -16.017 22.862 -19.723 26.004 C-22.999 28.876 -26.144 31.885 -29.312 34.875 C-35.337 40.542 -41.531 45.844 -48 51 C-51.959 54.214 -55.259 57.306 -58.441 61.312 C-61.336 64.447 -64.768 66.977 -68.094 69.637 C-72.547 73.258 -76.758 77.136 -81 81 C-82.495 82.36 -83.995 83.714 -85.5 85.062 C-86.129 85.631 -86.758 86.199 -87.406 86.785 C-89 88 -89 88 -91 88 C-89.453 84.315 -87.216 81.969 -84.402 79.159 C-83.936 78.692 -83.471 78.224 -82.992 77.743 C-81.455 76.203 -79.911 74.67 -78.367 73.137 C-77.29 72.061 -76.214 70.985 -75.137 69.908 C-72.879 67.652 -70.618 65.398 -68.354 63.148 C-65.471 60.282 -62.594 57.409 -59.72 54.534 C-57.495 52.309 -55.267 50.087 -53.038 47.865 C-51.978 46.808 -50.918 45.751 -49.859 44.692 C-44.592 39.433 -39.306 34.239 -33.632 29.413 C-31.116 27.235 -28.825 24.881 -26.5 22.5 C-22.833 18.783 -19.095 15.219 -15.117 11.836 C-11.429 8.638 -7.887 5.274 -4.32 1.941 C-2 0 -2 0 0 0 Z " fill="#F9F781" transform="translate(853,598)"/>
<path d="M0 0 C0.718 0.325 1.435 0.65 2.175 0.985 C5.08 2.029 7.135 2.248 10.204 2.243 C11.756 2.248 11.756 2.248 13.34 2.254 C14.471 2.247 15.603 2.24 16.768 2.234 C18.581 2.235 18.581 2.235 20.431 2.237 C23.791 2.238 27.15 2.229 30.51 2.217 C34.147 2.207 37.785 2.208 41.423 2.207 C47.767 2.205 54.111 2.195 60.456 2.181 C69.776 2.16 79.097 2.151 88.418 2.145 C103.843 2.135 119.268 2.117 134.692 2.094 C169.479 2.043 204.266 2.024 239.052 2.008 C244.667 2.005 250.282 2.002 255.896 1.999 C319.262 1.964 382.623 2.093 445.988 2.482 C449.016 2.5 452.043 2.518 455.071 2.537 C478.048 2.675 501.024 2.826 524 3 C524 3.33 524 3.66 524 4 C341.18 4 158.36 4 -30 4 C-30 3.67 -30 3.34 -30 3 C-15.15 2.505 -15.15 2.505 0 2 C0 1.34 0 0.68 0 0 Z " fill="#0C36AB" transform="translate(202,968)"/>
<path d="M0 0 C0 3 0 3 -1.187 4.451 C-1.739 4.952 -2.291 5.453 -2.859 5.969 C-3.474 6.534 -4.089 7.099 -4.723 7.681 C-5.726 8.582 -5.726 8.582 -6.75 9.5 C-7.434 10.127 -8.119 10.753 -8.824 11.399 C-10.876 13.274 -12.936 15.139 -15 17 C-22.444 23.727 -29.646 30.601 -36.708 37.725 C-40.355 41.392 -44.039 44.936 -47.992 48.273 C-50.664 50.571 -53.231 52.978 -55.812 55.375 C-59.664 58.941 -63.589 62.341 -67.688 65.625 C-72.044 69.13 -75.977 72.872 -79.879 76.871 C-83.096 80.1 -86.53 83.049 -90 86 C-91.333 87.146 -92.667 88.292 -94 89.438 C-95.485 90.706 -95.485 90.706 -97 92 C-97.66 91.67 -98.32 91.34 -99 91 C-94.9 86.239 -90.924 81.914 -86 78 C-84.918 76.809 -83.858 75.598 -82.812 74.375 C-77.431 68.093 -71.624 62.164 -65.312 56.812 C-61.152 53.262 -57.346 49.383 -53.5 45.5 C-45.919 37.861 -38.007 30.972 -29.652 24.188 C-27.408 22.336 -25.227 20.444 -23.062 18.5 C-18.864 14.777 -14.363 11.493 -9.855 8.156 C-6.434 5.572 -3.208 2.843 0 0 Z " fill="#F4D839" transform="translate(278,872)"/>
<path d="M0 0 C1.339 1.662 2.671 3.33 4 5 C4.577 5.701 5.155 6.403 5.75 7.125 C7 9 7 9 7 12 C-0.628 14.238 -8.216 15.87 -16.062 17.125 C-17.074 17.294 -18.085 17.463 -19.127 17.637 C-25.403 18.663 -31.665 19.452 -38 20 C-34.34 15.492 -29.576 13.782 -24.375 11.562 C-22.57 10.775 -20.765 9.986 -18.961 9.195 C-18.101 8.819 -17.241 8.443 -16.354 8.056 C-12.778 6.452 -9.314 4.655 -5.875 2.777 C-4 2 -4 2 0 2 C0 1.34 0 0.68 0 0 Z " fill="#EA1725" transform="translate(548,514)"/>
<path d="M0 0 C0.33 0 0.66 0 1 0 C0.494 7.384 -0.339 14.637 -1.531 21.941 C-1.949 24.67 -2.251 27.377 -2.5 30.125 C-3 34 -3 34 -5 37 C-5.828 39.555 -6.518 42.13 -7.219 44.723 C-8 47 -8 47 -10 49 C-10 48.34 -10 47.68 -10 47 C-11.32 47 -12.64 47 -14 47 C-14 47.66 -14 48.32 -14 49 C-14.516 48.67 -15.031 48.34 -15.562 48 C-18.78 46.68 -21.557 46.868 -25 47 C-25 46.34 -25 45.68 -25 45 C-27.31 45.66 -29.62 46.32 -32 47 C-32 46.34 -32 45.68 -32 45 C-38.93 44.34 -45.86 43.68 -53 43 C-53 41.68 -53 40.36 -53 39 C-52.34 39 -51.68 39 -51 39 C-50.67 38.01 -50.34 37.02 -50 36 C-48.027 34.627 -46.025 33.296 -44 32 C-43.134 31.134 -43.134 31.134 -42.25 30.25 C-41.837 29.837 -41.425 29.425 -41 29 C-40.34 29 -39.68 29 -39 29 C-39 28.34 -39 27.68 -39 27 C-37.35 26.67 -35.7 26.34 -34 26 C-37.406 29.493 -40.92 32.713 -44.688 35.812 C-45.64 36.603 -46.593 37.393 -47.574 38.207 C-50 40 -50 40 -52 40 C-52 40.66 -52 41.32 -52 42 C-51.099 41.974 -51.099 41.974 -50.18 41.947 C-41.493 41.812 -32.943 42.638 -24.312 43.5 C-22.821 43.645 -21.329 43.79 -19.838 43.934 C-16.225 44.284 -12.612 44.64 -9 45 C-8.891 44.244 -8.782 43.487 -8.67 42.708 C-7.457 34.527 -5.977 26.417 -4.341 18.312 C-3.93 16.277 -3.526 14.241 -3.123 12.205 C-2.865 10.917 -2.606 9.628 -2.34 8.301 C-2.106 7.137 -1.873 5.974 -1.633 4.775 C-1 2 -1 2 0 0 Z " fill="#0B1971" transform="translate(824,886)"/>
<path d="M0 0 C0.495 0.99 0.495 0.99 1 2 C-4.207 8.138 -9.734 13.886 -15.438 19.562 C-16.245 20.374 -17.053 21.185 -17.885 22.021 C-22.177 26.307 -26.551 30.413 -31.149 34.367 C-34.07 36.944 -36.781 39.713 -39.5 42.5 C-42.8 45.882 -46.128 49.148 -49.719 52.223 C-55.079 56.854 -60.016 61.909 -65 66.938 C-65.975 67.918 -66.95 68.897 -67.926 69.877 C-70.286 72.249 -72.644 74.623 -75 77 C-75.66 76.67 -76.32 76.34 -77 76 C-75.339 74.141 -73.671 72.288 -72 70.438 C-71.542 69.924 -71.085 69.41 -70.613 68.881 C-68.016 66.016 -65.341 63.385 -62.393 60.881 C-57.547 56.671 -53.046 52.153 -48.531 47.594 C-47.652 46.71 -46.772 45.827 -45.865 44.916 C-43.074 42.113 -40.287 39.307 -37.5 36.5 C-33.826 32.799 -30.148 29.102 -26.469 25.406 C-25.223 24.148 -25.223 24.148 -23.952 22.865 C-19.663 18.558 -15.308 14.408 -10.686 10.46 C-8.346 8.434 -6.17 6.267 -4 4.062 C-2.855 2.904 -2.855 2.904 -1.688 1.723 C-1.131 1.154 -0.574 0.586 0 0 Z " fill="#EFEF6E" transform="translate(851,572)"/>
<path d="M0 0 C0.961 0.488 0.961 0.488 1.942 0.987 C6.011 2.335 9.668 2.256 13.926 2.211 C14.818 2.21 15.71 2.209 16.63 2.207 C19.596 2.201 22.561 2.18 25.527 2.16 C27.63 2.154 29.732 2.149 31.834 2.144 C37.408 2.131 42.981 2.107 48.555 2.079 C58.379 2.031 68.203 1.997 78.027 1.973 C79.634 1.968 79.634 1.968 81.273 1.964 C104.191 1.908 127.091 2.374 150 3 C150 3.33 150 3.66 150 4 C90.6 4 31.2 4 -30 4 C-30 3.67 -30 3.34 -30 3 C-15.15 2.505 -15.15 2.505 0 2 C0 1.34 0 0.68 0 0 Z " fill="#0F33A7" transform="translate(202,968)"/>
<path d="M0 0 C0 3 0 3 -1.231 4.479 C-1.806 4.997 -2.38 5.514 -2.973 6.047 C-3.618 6.637 -4.263 7.228 -4.928 7.836 C-5.632 8.468 -6.337 9.099 -7.062 9.75 C-8.535 11.097 -10.005 12.446 -11.473 13.797 C-12.226 14.49 -12.979 15.183 -13.754 15.896 C-17.257 19.178 -20.629 22.584 -24 26 C-28.837 30.878 -33.685 35.637 -39 40 C-39.964 40.795 -40.928 41.591 -41.922 42.41 C-44.608 44.615 -47.3 46.812 -50 49 C-50.66 48.67 -51.32 48.34 -52 48 C-51.319 47.505 -50.639 47.01 -49.938 46.5 C-47.546 44.465 -45.699 42.563 -43.688 40.188 C-40.691 36.677 -37.484 33.696 -33.969 30.715 C-32.055 29.048 -30.275 27.312 -28.5 25.5 C-25.516 22.469 -22.392 19.664 -19.172 16.887 C-16.732 14.767 -14.334 12.605 -11.938 10.438 C-8.011 6.893 -4.035 3.421 0 0 Z " fill="#F6E04F" transform="translate(251,640)"/>
<path d="M0 0 C0.33 0 0.66 0 1 0 C1 35.31 1 70.62 1 107 C-6.875 111.5 -6.875 111.5 -11.938 112.25 C-12.895 112.4 -13.853 112.549 -14.84 112.703 C-15.553 112.801 -16.266 112.899 -17 113 C-16.01 112.505 -16.01 112.505 -15 112 C-15 111.34 -15 110.68 -15 110 C-14.361 109.876 -13.721 109.752 -13.062 109.625 C-12.042 109.316 -12.042 109.316 -11 109 C-10.505 108.01 -10.505 108.01 -10 107 C-7.668 106.661 -5.334 106.328 -3 106 C-0.604 103.604 -0.745 103.078 -0.722 99.811 C-0.71 98.933 -0.699 98.056 -0.688 97.151 C-0.686 96.186 -0.683 95.221 -0.681 94.226 C-0.671 93.211 -0.661 92.197 -0.651 91.151 C-0.62 87.786 -0.603 84.42 -0.586 81.055 C-0.567 78.726 -0.548 76.397 -0.527 74.068 C-0.476 67.93 -0.436 61.791 -0.399 55.652 C-0.359 49.392 -0.308 43.131 -0.258 36.871 C-0.161 24.581 -0.077 12.29 0 0 Z " fill="#EA1A37" transform="translate(850,384)"/>
<path d="M0 0 C5.076 1.69 10.15 3.385 15.223 5.086 C27.446 9.179 39.669 13.242 52 17 C52 17.33 52 17.66 52 18 C44.708 17.332 38.188 15.338 31.246 13.084 C26.689 11.652 22.843 10.627 18 11 C18 10.01 18 9.02 18 8 C13.469 7.066 13.469 7.066 9 8 C8.67 8.66 8.34 9.32 8 10 C8.33 10.33 8.66 10.66 9 11 C8.562 13.062 8.562 13.062 8 15 C6.658 13.068 5.327 11.129 4 9.188 C3.258 8.109 2.515 7.03 1.75 5.918 C0 3 0 3 0 0 Z " fill="#E5BB16" transform="translate(519,468)"/>
<path d="M0 0 C1.485 0.99 1.485 0.99 3 2 C2.67 2.66 2.34 3.32 2 4 C2.66 4.33 3.32 4.66 4 5 C3.381 5.144 2.762 5.289 2.125 5.438 C-0.033 5.932 -0.033 5.932 -2 7 C-2.407 9.322 -2.744 11.657 -3 14 C-4.32 13.67 -5.64 13.34 -7 13 C-6.01 12.67 -5.02 12.34 -4 12 C-4.33 11.34 -4.66 10.68 -5 10 C-5.99 9.67 -6.98 9.34 -8 9 C-7.67 9.99 -7.34 10.98 -7 12 C-7.66 12 -8.32 12 -9 12 C-10.075 14.652 -11.095 17.284 -12 20 C-12.869 19.887 -13.738 19.773 -14.633 19.656 C-19.111 20.113 -20.996 22.316 -23.875 25.5 C-24.373 26.025 -24.87 26.549 -25.383 27.09 C-26.603 28.38 -27.803 29.688 -29 31 C-29.66 30.67 -30.32 30.34 -31 30 C-27.714 26.689 -24.424 23.381 -21.131 20.076 C-20.013 18.954 -18.897 17.831 -17.782 16.707 C-12.035 10.916 -6.323 5.171 0 0 Z " fill="#1214A1" transform="translate(251,642)"/>
<path d="M0 0 C3.648 3.506 6.769 7.125 9.812 11.188 C10.998 12.756 10.998 12.756 12.207 14.355 C14 17 14 17 14 19 C8.723 18.461 4.744 17.227 0 15 C0.165 14.402 0.33 13.804 0.5 13.188 C1.237 9.963 0.925 7.052 0.5 3.812 C0.335 2.554 0.17 1.296 0 0 Z " fill="#D5AE18" transform="translate(723,608)"/>
<path d="M0 0 C0.33 0 0.66 0 1 0 C1.025 1.155 1.05 2.31 1.076 3.501 C1.17 7.797 1.27 12.092 1.372 16.388 C1.416 18.245 1.457 20.103 1.497 21.96 C1.555 24.634 1.619 27.307 1.684 29.98 C1.709 31.221 1.709 31.221 1.734 32.487 C1.836 36.453 2.114 40.117 3 44 C3.066 46.103 3.086 48.208 3.062 50.312 C3.053 51.381 3.044 52.45 3.035 53.551 C3.024 54.359 3.012 55.167 3 56 C2.34 56 1.68 56 1 56 C1 51.38 1 46.76 1 42 C0.34 42 -0.32 42 -1 42 C-1.194 37.626 -1.373 33.252 -1.537 28.877 C-1.595 27.394 -1.657 25.91 -1.724 24.426 C-2.096 16.067 -2.291 8.148 0 0 Z " fill="#D5DAD8" transform="translate(853,564)"/>
<path d="M0 0 C0.33 0.66 0.66 1.32 1 2 C-4.293 8.236 -9.908 14.091 -15.688 19.875 C-16.529 20.728 -17.37 21.582 -18.236 22.461 C-19.049 23.276 -19.862 24.09 -20.699 24.93 C-21.43 25.664 -22.16 26.399 -22.913 27.156 C-24.878 28.892 -26.605 29.968 -29 31 C-29 28 -29 28 -26.656 25.328 C-25.612 24.294 -24.56 23.268 -23.5 22.25 C-22.95 21.711 -22.401 21.173 -21.835 20.618 C-18.316 17.194 -14.698 13.916 -10.957 10.734 C-7.128 7.341 -3.579 3.653 0 0 Z " fill="#F7F87C" transform="translate(851,572)"/>
<path d="M0 0 C0.66 0.33 1.32 0.66 2 1 C1.434 6.938 -1.033 10.404 -4.562 15.062 C-6.048 16.976 -6.048 16.976 -7.184 19.141 C-9.617 22.971 -12.517 26.278 -15.5 29.688 C-16.081 30.364 -16.663 31.04 -17.262 31.736 C-19.76 34.609 -21.805 36.87 -25 39 C-23.794 35.567 -22.665 33.452 -20 31 C-19.484 30.278 -18.969 29.556 -18.438 28.812 C-17.726 27.915 -17.726 27.915 -17 27 C-16.34 27 -15.68 27 -15 27 C-14.732 26.274 -14.464 25.549 -14.188 24.801 C-13.013 22.031 -11.661 19.691 -10 17.188 C-9.484 16.397 -8.969 15.607 -8.438 14.793 C-7.963 14.201 -7.489 13.61 -7 13 C-6.34 13 -5.68 13 -5 13 C-4.732 12.031 -4.464 11.061 -4.188 10.062 C-3.796 9.052 -3.404 8.041 -3 7 C-2.01 6.67 -1.02 6.34 0 6 C0 4.02 0 2.04 0 0 Z " fill="#0A1E79" transform="translate(833,789)"/>
<path d="M0 0 C0 0.33 0 0.66 0 1 C-4.82 1.288 -9.639 1.573 -14.459 1.854 C-16.095 1.951 -17.731 2.048 -19.367 2.146 C-21.733 2.287 -24.099 2.425 -26.465 2.562 C-27.184 2.606 -27.903 2.65 -28.644 2.695 C-33.091 2.949 -37.505 3.026 -41.959 2.96 C-44.306 2.963 -44.306 2.963 -47.812 3.562 C-50.691 3.958 -52.312 3.968 -55 3 C-52.63 0.63 -52.061 0.719 -48.828 0.586 C-47.95 0.547 -47.071 0.508 -46.166 0.469 C-45.204 0.438 -44.242 0.407 -43.25 0.375 C-41.759 0.318 -41.759 0.318 -40.238 0.26 C-26.831 -0.192 -13.412 -0.089 0 0 Z " fill="#0D249C" transform="translate(364,862)"/>
<path d="M0 0 C1.32 1.32 2.64 2.64 4 4 C3 7 3 7 0.5 9 C-3.107 13.329 -2.894 17.516 -3 23 C-4.65 23.66 -6.3 24.32 -8 25 C-9.196 21.411 -8.722 20.588 -7.383 17.148 C-7.023 16.215 -6.664 15.282 -6.293 14.32 C-5.908 13.348 -5.522 12.376 -5.125 11.375 C-4.747 10.395 -4.37 9.416 -3.98 8.406 C-1.16 1.16 -1.16 1.16 0 0 Z " fill="#161180" transform="translate(643,624)"/>
<path d="M0 0 C4.739 4.739 3.341 15.121 3.562 21.438 C3.605 22.586 3.647 23.734 3.691 24.917 C3.995 33.616 4.118 42.297 4 51 C3.67 51 3.34 51 3 51 C-0.289 14.884 -0.289 14.884 0 0 Z " fill="#281A83" transform="translate(329,592)"/>
<path d="M0 0 C3.836 1.773 3.836 1.773 5.312 3.812 C6.185 6.588 5.891 8.254 5 11 C4.01 11.495 4.01 11.495 3 12 C3.165 12.701 3.33 13.403 3.5 14.125 C4.024 17.139 4.071 19.947 4 23 C3.34 23.33 2.68 23.66 2 24 C0.089 15.804 -1.624 8.417 0 0 Z " fill="#1B137A" transform="translate(675,609)"/>
<path d="M0 0 C2.125 0.938 2.125 0.938 4 2 C4.33 1.34 4.66 0.68 5 0 C5.66 0.33 6.32 0.66 7 1 C8.666 1.04 10.334 1.044 12 1 C7.369 4.088 2.144 5.089 -3.188 6.562 C-4.855 7.037 -4.855 7.037 -6.557 7.521 C-12.381 9.146 -17.974 10.463 -24 11 C-20.375 8 -20.375 8 -17 8 C-17 7.34 -17 6.68 -17 6 C-15.484 6.062 -15.484 6.062 -13.938 6.125 C-9.905 5.997 -6.767 5.431 -3 4 C-2.67 3.01 -2.34 2.02 -2 1 C-1.34 0.67 -0.68 0.34 0 0 Z " fill="#E71525" transform="translate(818,496)"/>
<path d="M0 0 C6.164 1.666 11.483 4.878 17 8 C16.67 8.66 16.34 9.32 16 10 C13.36 9.01 10.72 8.02 8 7 C7.34 7.66 6.68 8.32 6 9 C4.68 9 3.36 9 2 9 C1.67 9.99 1.34 10.98 1 12 C-0.327 8.019 -0.069 4.15 0 0 Z " fill="#0A1D95" transform="translate(673,600)"/>
<path d="M0 0 C0.33 0 0.66 0 1 0 C1.159 5.221 0.597 10.009 -0.461 15.129 C-0.612 15.882 -0.762 16.634 -0.917 17.41 C-1.235 18.991 -1.557 20.572 -1.881 22.152 C-2.374 24.558 -2.856 26.965 -3.336 29.373 C-3.648 30.917 -3.96 32.46 -4.273 34.004 C-4.416 34.717 -4.559 35.429 -4.706 36.163 C-5.544 40.221 -6.608 44.098 -8 48 C-8.33 48 -8.66 48 -9 48 C-8.442 40.486 -7.125 33.288 -5.5 25.938 C-2.876 14.085 -2.876 14.085 -2 2 C-1.34 2 -0.68 2 0 2 C0 1.34 0 0.68 0 0 Z " fill="#F1D30E" transform="translate(693,434)"/>
<path d="M0 0 C0 6.93 0 13.86 0 21 C-0.33 21 -0.66 21 -1 21 C-1.33 16.05 -1.66 11.1 -2 6 C-2.66 6.66 -3.32 7.32 -4 8 C-4.63 8.304 -5.26 8.608 -5.909 8.921 C-8.204 10.105 -9.648 11.419 -11.453 13.258 C-12.072 13.883 -12.691 14.508 -13.328 15.152 C-14.279 16.129 -14.279 16.129 -15.25 17.125 C-16.225 18.113 -16.225 18.113 -17.219 19.121 C-18.817 20.743 -20.411 22.369 -22 24 C-22.66 23.67 -23.32 23.34 -24 23 C-20.746 19.721 -17.489 16.446 -14.228 13.173 C-13.119 12.059 -12.01 10.943 -10.902 9.827 C-9.313 8.226 -7.721 6.628 -6.129 5.031 C-5.631 4.528 -5.133 4.025 -4.62 3.507 C-1.114 0 -1.114 0 0 0 Z " fill="#07209B" transform="translate(851,576)"/>
<path d="M0 0 C1.959 0.476 3.917 0.956 5.875 1.438 C7.511 1.838 7.511 1.838 9.18 2.246 C12 3 12 3 14 4 C13.67 4.99 13.34 5.98 13 7 C10.418 7.984 10.418 7.984 7.188 8.75 C6.129 9.013 5.071 9.276 3.98 9.547 C1.183 9.972 -0.375 9.941 -3 9 C-2 7 -2 7 0.5 6.062 C1.325 5.712 2.15 5.361 3 5 C3.33 4.01 3.66 3.02 4 2 C2.68 2 1.36 2 0 2 C0 1.34 0 0.68 0 0 Z " fill="#EEC209" transform="translate(738,557)"/>
<path d="M0 0 C0.99 0.33 1.98 0.66 3 1 C0.944 2.8 -1.119 4.59 -3.188 6.375 C-4.055 7.137 -4.055 7.137 -4.939 7.914 C-8.146 10.668 -10.893 12.716 -15 14 C-15 14.66 -15 15.32 -15 16 C-13.931 15.983 -13.931 15.983 -12.84 15.965 C-7.437 15.914 -2.322 16.054 3 17 C3 17.33 3 17.66 3 18 C-3.433 18.095 -9.658 18.153 -16 17 C-16 15.68 -16 14.36 -16 13 C-15.34 13 -14.68 13 -14 13 C-13.67 12.01 -13.34 11.02 -13 10 C-11.027 8.627 -9.025 7.296 -7 6 C-6.423 5.423 -5.845 4.845 -5.25 4.25 C-4.837 3.837 -4.425 3.425 -4 3 C-3.34 3 -2.68 3 -2 3 C-2 2.34 -2 1.68 -2 1 C-1.34 0.67 -0.68 0.34 0 0 Z " fill="#03107B" transform="translate(787,912)"/>
<path d="M0 0 C0 4.716 -2.878 7.624 -6 11 C-9.188 12.812 -9.188 12.812 -12 14 C-13.961 15.611 -14.857 16.647 -15.812 19 C-17.574 21.967 -19.861 22.757 -23 24 C-23.66 23.67 -24.32 23.34 -25 23 C-22.502 20.644 -20.001 18.29 -17.5 15.938 C-16.804 15.281 -16.108 14.624 -15.391 13.947 C-11.183 9.993 -6.914 6.13 -2.549 2.35 C-1.678 1.591 -0.817 0.817 0 0 Z " fill="#E0B313" transform="translate(686,437)"/>
<path d="M0 0 C-0.66 2.31 -1.32 4.62 -2 7 C-2.763 6.918 -3.526 6.835 -4.312 6.75 C-7.12 6.717 -7.12 6.717 -8.812 8.875 C-10.163 10.885 -10.163 10.885 -10 13 C-11.863 14.508 -11.863 14.508 -14.312 16.125 C-15.113 16.664 -15.914 17.203 -16.738 17.758 C-19 19 -19 19 -22 19 C-18.908 15.821 -15.799 12.659 -12.688 9.5 C-11.366 8.141 -11.366 8.141 -10.018 6.754 C-9.17 5.897 -8.322 5.039 -7.449 4.156 C-6.279 2.962 -6.279 2.962 -5.085 1.744 C-3 0 -3 0 0 0 Z " fill="#1B1B9E" transform="translate(258,895)"/>
<path d="M0 0 C0.918 0.476 0.918 0.476 1.855 0.961 C6.313 2.434 10.645 2.467 15.312 2.625 C16.244 2.664 17.175 2.702 18.135 2.742 C20.423 2.836 22.711 2.922 25 3 C25 3.33 25 3.66 25 4 C6.85 4 -11.3 4 -30 4 C-30 3.67 -30 3.34 -30 3 C-15.15 2.505 -15.15 2.505 0 2 C0 1.34 0 0.68 0 0 Z " fill="#1C2BA0" transform="translate(202,968)"/>
<path d="M0 0 C0 4.001 -1.414 4.994 -4 8 C-4.397 8.547 -4.794 9.093 -5.203 9.656 C-6.438 11.312 -6.438 11.312 -9 14 C-11.812 14.375 -11.812 14.375 -14 14 C-14 14.66 -14 15.32 -14 16 C-14.66 16 -15.32 16 -16 16 C-16.33 15.01 -16.66 14.02 -17 13 C-12.25 9 -12.25 9 -10 9 C-8.303 7.508 -8.303 7.508 -6.562 5.625 C-4.412 3.368 -2.623 1.749 0 0 Z " fill="#EBC63F" transform="translate(245,901)"/>
<path d="M0 0 C2.867 3.409 4.508 7.17 6.188 11.25 C6.46 11.9 6.733 12.549 7.014 13.219 C7.681 14.81 8.341 16.405 9 18 C5.696 17.254 4.105 16.745 2 14 C-0.767 8.862 -1.279 5.696 0 0 Z " fill="#1B157B" transform="translate(600,622)"/>
<path d="M0 0 C0.66 0.33 1.32 0.66 2 1 C2.092 4.957 1.789 8.053 1 12 C-2.3 12.66 -5.6 13.32 -9 14 C-10 11 -10 11 -9.062 8.812 C-8.712 8.214 -8.361 7.616 -8 7 C-7.01 8.32 -6.02 9.64 -5 11 C-3.35 7.37 -1.7 3.74 0 0 Z " fill="#1F1778" transform="translate(630,658)"/>
<path d="M0 0 C0.33 0 0.66 0 1 0 C1 4.29 1 8.58 1 13 C-4.94 11.515 -4.94 11.515 -11 10 C-9.68 9.34 -8.36 8.68 -7 8 C-3.697 5.641 -1.499 3.816 0 0 Z " fill="#EE102B" transform="translate(589,478)"/>
<path d="M0 0 C0.66 0 1.32 0 2 0 C2.125 5.75 2.125 5.75 1 8 C0.93 9.707 0.916 11.417 0.938 13.125 C0.958 14.734 0.979 16.342 1 18 C4.3 18.33 7.6 18.66 11 19 C11 19.33 11 19.66 11 20 C6.38 20 1.76 20 -3 20 C-2.418 13.205 -1.46 6.661 0 0 Z " fill="#E4241E" transform="translate(684,488)"/>
<path d="M0 0 C3.887 3.787 7.475 7.751 11 11.875 C11.762 12.755 11.762 12.755 12.539 13.652 C15.938 17.618 19.017 21.712 22 26 C21.01 26 20.02 26 19 26 C18.67 25.01 18.34 24.02 18 23 C17.01 22.67 16.02 22.34 15 22 C14.67 21.01 14.34 20.02 14 19 C12.36 17.307 10.689 15.644 9 14 C7.369 12.148 5.764 10.273 4.188 8.375 C3.002 6.963 3.002 6.963 1.793 5.523 C0 3 0 3 0 0 Z " fill="#E0B616" transform="translate(608,445)"/>
<path d="M0 0 C0 3 0 3 -1.329 4.594 C-1.939 5.152 -2.548 5.71 -3.176 6.285 C-3.839 6.898 -4.502 7.511 -5.186 8.143 C-5.887 8.776 -6.589 9.41 -7.312 10.062 C-8.003 10.7 -8.693 11.337 -9.404 11.994 C-12.196 14.554 -14.841 16.894 -18 19 C-19.32 18.34 -20.64 17.68 -22 17 C-21.082 16.359 -20.164 15.719 -19.219 15.059 C-12.514 10.344 -5.992 5.62 0 0 Z " fill="#E8CE43" transform="translate(278,872)"/>
<path d="M0 0 C0.33 0.66 0.66 1.32 1 2 C1.66 2.33 2.32 2.66 3 3 C1.103 4.66 -0.795 6.32 -2.695 7.977 C-4.22 9.315 -5.736 10.664 -7.242 12.023 C-7.946 12.655 -8.65 13.287 -9.375 13.938 C-10.346 14.817 -10.346 14.817 -11.336 15.715 C-13 17 -13 17 -15 17 C-13.679 14.068 -12.254 12.013 -9.961 9.766 C-9.091 8.905 -9.091 8.905 -8.203 8.027 C-7.6 7.441 -6.997 6.854 -6.375 6.25 C-5.764 5.648 -5.153 5.046 -4.523 4.426 C-3.02 2.946 -1.511 1.472 0 0 Z " fill="#E4E784" transform="translate(777,669)"/>
<path d="M0 0 C0.66 0.33 1.32 0.66 2 1 C1.546 1.577 1.093 2.155 0.625 2.75 C-1.037 4.863 -1.037 4.863 -1.812 7 C-3.918 10.545 -7.554 12.297 -11.188 14.062 C-13.196 15.101 -14.486 16.335 -16 18 C-16.66 17.67 -17.32 17.34 -18 17 C-12.186 11.091 -6.411 5.271 0 0 Z " fill="#0C11A6" transform="translate(214,933)"/>
<path d="M0 0 C0.66 0.33 1.32 0.66 2 1 C2 4 2 4 0.875 5.562 C-1.572 7.439 -4.057 8.15 -7 9 C-7 9.99 -7 10.98 -7 12 C-9.278 14.278 -10.508 14.966 -13.75 15.188 C-14.493 15.126 -15.235 15.064 -16 15 C-12.453 11.342 -8.731 7.971 -4.867 4.648 C-3.176 3.155 -1.575 1.614 0 0 Z " fill="#1317A0" transform="translate(193,952)"/>
<path d="M0 0 C2.64 0 5.28 0 8 0 C8.33 0.99 8.66 1.98 9 3 C6.921 3.7 4.836 4.385 2.75 5.062 C1.59 5.445 0.43 5.828 -0.766 6.223 C-3.801 6.952 -5.157 7.119 -8 6 C-7.34 6 -6.68 6 -6 6 C-5.67 4.35 -5.34 2.7 -5 1 C-3.02 1.99 -1.04 2.98 1 4 C0.67 2.68 0.34 1.36 0 0 Z " fill="#F31722" transform="translate(758,512)"/>
<path d="M0 0 C0.66 1.32 1.32 2.64 2 4 C-2.56 7.8 -2.56 7.8 -5.062 8.938 C-7.247 9.964 -7.247 9.964 -8.938 12.562 C-11 15 -11 15 -13.75 15.812 C-14.492 15.874 -15.235 15.936 -16 16 C-12.213 11.361 -8.304 7.351 -3.734 3.48 C-1.91 1.963 -1.91 1.963 0 0 Z " fill="#0F21A2" transform="translate(813,612)"/>
<path d="M0 0 C0 3 0 3 -1.355 4.613 C-2.262 5.454 -2.262 5.454 -3.188 6.312 C-5.536 8.547 -7.687 10.762 -9.688 13.312 C-11.777 15.741 -13.047 16.906 -16 18 C-16.33 16.68 -16.66 15.36 -17 14 C-16.216 13.753 -15.433 13.505 -14.625 13.25 C-11.531 11.777 -11.434 10.959 -10 8 C-8.349 6.974 -6.68 5.977 -5 5 C-3.296 3.372 -1.62 1.712 0 0 Z " fill="#13159F" transform="translate(201,938)"/>
<path d="M0 0 C0.99 0.33 1.98 0.66 3 1 C-1.021 5.248 -5.132 9.01 -9.867 12.445 C-12.284 14.207 -14.642 16.035 -17 17.875 C-18.145 18.768 -18.145 18.768 -19.312 19.68 C-20.148 20.333 -20.148 20.333 -21 21 C-21 20.01 -21 19.02 -21 18 C-19.68 17.34 -18.36 16.68 -17 16 C-17 15.34 -17 14.68 -17 14 C-15.678 13.096 -14.349 12.2 -12.996 11.344 C-5.5 6.596 -5.5 6.596 0 0 Z " fill="#111B7B" transform="translate(821,885)"/>
<path d="M0 0 C0.33 0 0.66 0 1 0 C1 2.31 1 4.62 1 7 C-4.8 10.867 -10.132 12.056 -17 13 C-16.34 12.67 -15.68 12.34 -15 12 C-15 11.34 -15 10.68 -15 10 C-14.361 9.876 -13.721 9.752 -13.062 9.625 C-12.382 9.419 -11.701 9.212 -11 9 C-10.67 8.34 -10.34 7.68 -10 7 C-7.668 6.661 -5.334 6.328 -3 6 C-0.861 3.861 -0.573 2.867 0 0 Z " fill="#C81535" transform="translate(850,484)"/>
<path d="M0 0 C8.388 0.645 17.412 2.51 24 8 C18.473 7.361 13.376 6.063 8.062 4.438 C7.283 4.204 6.504 3.97 5.701 3.729 C3.799 3.157 1.9 2.579 0 2 C0 1.34 0 0.68 0 0 Z " fill="#D7901A" transform="translate(492,538)"/>
<path d="M0 0 C0 2.667 0 5.333 0 8 C-0.802 7.584 -0.802 7.584 -1.621 7.16 C-4.306 6.711 -4.306 6.711 -6.91 9.309 C-7.973 10.339 -9.023 11.383 -10.062 12.438 C-11.997 14.372 -13.941 16.19 -16 18 C-16.99 18 -17.98 18 -19 18 C-12.861 11.759 -6.712 5.635 0 0 Z " fill="#0D10A3" transform="translate(280,872)"/>
<path d="M0 0 C0 1.65 0 3.3 0 5 C-1.32 5 -2.64 5 -4 5 C-4.33 6.32 -4.66 7.64 -5 9 C-5.66 9 -6.32 9 -7 9 C-7.66 9.825 -8.32 10.65 -9 11.5 C-9.66 12.325 -10.32 13.15 -11 14 C-11.66 14 -12.32 14 -13 14 C-6.538 0 -6.538 0 0 0 Z " fill="#F3CA0D" transform="translate(695,431)"/>
<path d="M0 0 C0 3 0 3 -1.421 4.718 C-2.072 5.33 -2.724 5.943 -3.395 6.574 C-4.103 7.241 -4.811 7.908 -5.541 8.596 C-6.291 9.286 -7.04 9.976 -7.812 10.688 C-8.919 11.74 -8.919 11.74 -10.049 12.814 C-15.617 18 -15.617 18 -19 18 C-14.673 12.504 -9.867 8.264 -4.391 3.918 C-1.994 2.066 -1.994 2.066 0 0 Z " fill="#E8D159" transform="translate(251,640)"/>
<path d="M0 0 C0.66 0 1.32 0 2 0 C2.625 2.812 2.625 2.812 3 6 C2.01 7.485 2.01 7.485 1 9 C0.417 10.548 -0.123 12.112 -0.625 13.688 C-0.885 14.496 -1.146 15.304 -1.414 16.137 C-1.607 16.752 -1.801 17.366 -2 18 C-3.98 18 -5.96 18 -8 18 C-8 17.67 -8 17.34 -8 17 C-6.35 17 -4.7 17 -3 17 C-2.867 16.108 -2.734 15.216 -2.598 14.297 C-2.421 13.126 -2.244 11.956 -2.062 10.75 C-1.888 9.59 -1.714 8.43 -1.535 7.234 C-1.127 4.769 -0.661 2.406 0 0 Z " fill="#1C216D" transform="translate(818,914)"/>
<path d="M0 0 C0.99 0.66 1.98 1.32 3 2 C4.326 2.682 5.658 3.352 7 4 C5.47 5.237 3.94 6.474 2.41 7.711 C0.867 8.967 0.867 8.967 0 11 C-0.99 11 -1.98 11 -3 11 C-2.449 7.051 -1.611 3.651 0 0 Z " fill="#CAA51F" transform="translate(559,639)"/>
<path d="M0 0 C6.332 4.546 10.507 10.74 15 17 C12 17 12 17 9.938 15.25 C8 13 8 13 7.125 11.062 C5.915 8.844 4.858 8.015 2.875 6.5 C1.926 5.675 0.977 4.85 0 4 C0 2.68 0 1.36 0 0 Z " fill="#E2B51A" transform="translate(593,427)"/>
<path d="M0 0 C0.66 0.33 1.32 0.66 2 1 C-3.626 7.491 -9.441 13.449 -16 19 C-16 16 -16 16 -13.625 13.312 C-11 11 -11 11 -9 11 C-9 10.34 -9 9.68 -9 9 C-7.625 7.375 -7.625 7.375 -6 6 C-5.34 6 -4.68 6 -4 6 C-4 5.34 -4 4.68 -4 4 C-3.34 4 -2.68 4 -2 4 C-1.34 2.68 -0.68 1.36 0 0 Z " fill="#0C1D7A" transform="translate(797,839)"/>
<path d="M0 0 C4.682 0.457 6.631 2.191 9.812 5.562 C10.603 6.389 11.393 7.215 12.207 8.066 C12.799 8.704 13.39 9.343 14 10 C13.01 11.485 13.01 11.485 12 13 C12 12.34 12 11.68 12 11 C11.34 11 10.68 11 10 11 C7.875 9.125 7.875 9.125 6 7 C6 6.34 6 5.68 6 5 C5.01 5 4.02 5 3 5 C3 4.01 3 3.02 3 2 C2.01 2 1.02 2 0 2 C0 1.34 0 0.68 0 0 Z " fill="#271A76" transform="translate(649,632)"/>
<path d="M0 0 C-1.189 3.567 -2.347 4.287 -5.312 6.5 C-6.482 7.382 -6.482 7.382 -7.676 8.281 C-8.443 8.848 -9.21 9.416 -10 10 C-10.695 10.588 -11.39 11.176 -12.105 11.781 C-12.731 12.183 -13.356 12.586 -14 13 C-14.99 12.67 -15.98 12.34 -17 12 C-16.67 11.01 -16.34 10.02 -16 9 C-14.02 9.495 -14.02 9.495 -12 10 C-11.67 9.01 -11.34 8.02 -11 7 C-10.34 7 -9.68 7 -9 7 C-9 6.34 -9 5.68 -9 5 C-7.539 3.711 -7.539 3.711 -5.625 2.375 C-4.685 1.706 -4.685 1.706 -3.727 1.023 C-2 0 -2 0 0 0 Z " fill="#1134BA" transform="translate(393,612)"/>
<path d="M0 0 C0.66 0.66 1.32 1.32 2 2 C0.091 3.822 -1.826 5.632 -3.75 7.438 C-4.558 8.212 -4.558 8.212 -5.383 9.002 C-8.205 11.635 -10.21 13.281 -14 14 C-9.727 8.766 -5.184 4.329 0 0 Z " fill="#E5CE57" transform="translate(213,675)"/>
<path d="M0 0 C0.66 0 1.32 0 2 0 C0.691 2.927 -0.662 4.872 -3.039 7.016 C-3.909 7.808 -3.909 7.808 -4.797 8.617 C-5.4 9.156 -6.003 9.695 -6.625 10.25 C-7.542 11.081 -7.542 11.081 -8.477 11.93 C-9.98 13.292 -11.489 14.647 -13 16 C-13.66 15.67 -14.32 15.34 -15 15 C-14.434 14.457 -13.868 13.915 -13.285 13.355 C-12.552 12.64 -11.818 11.925 -11.062 11.188 C-9.966 10.126 -9.966 10.126 -8.848 9.043 C-6.792 7.045 -6.792 7.045 -6 4 C-4.348 3.298 -2.681 2.63 -1 2 C-0.67 1.34 -0.34 0.68 0 0 Z " fill="#091A9D" transform="translate(848,598)"/>
<path d="M0 0 C-2.7 2.7 -5.568 2.978 -9.188 3.688 C-9.835 3.83 -10.483 3.972 -11.15 4.119 C-15.812 5.055 -19.408 4.887 -24 4 C-24 3.67 -24 3.34 -24 3 C-21.126 2.494 -18.251 1.995 -15.375 1.5 C-14.567 1.357 -13.759 1.214 -12.926 1.066 C-8.561 0.321 -4.448 -0.173 0 0 Z " fill="#271C89" transform="translate(311,582)"/>
<path d="M0 0 C-0.99 0 -1.98 0 -3 0 C-3 0.66 -3 1.32 -3 2 C-6.825 4.391 -10.597 4.56 -15 5 C-15 4.34 -15 3.68 -15 3 C-16.32 2.67 -17.64 2.34 -19 2 C-16.585 1.468 -14.169 0.949 -11.75 0.438 C-11.068 0.286 -10.386 0.135 -9.684 -0.021 C-6.182 -0.752 -3.397 -1.322 0 0 Z " fill="#21188E" transform="translate(527,607)"/>
<path d="M0 0 C0.66 0.33 1.32 0.66 2 1 C0.381 2.506 -1.246 4.005 -2.875 5.5 C-4.232 6.753 -4.232 6.753 -5.617 8.031 C-8 10 -8 10 -10 10 C-10 8.02 -10 6.04 -10 4 C-9.443 3.876 -8.886 3.753 -8.312 3.625 C-3.796 2.495 -3.796 2.495 0 0 Z " fill="#14159E" transform="translate(258,886)"/>
<path d="M0 0 C0 3.579 -0.649 4.397 -3 7 C-4.325 7.683 -5.658 8.351 -7 9 C-7.99 10.485 -7.99 10.485 -9 12 C-11.5 13.75 -11.5 13.75 -14 15 C-14.66 14.67 -15.32 14.34 -16 14 C-11.056 8.77 -5.766 4.301 0 0 Z " fill="#071DA2" transform="translate(779,672)"/>
<path d="M0 0 C0 3.112 -0.456 5.942 -1 9 C-1.99 9.33 -2.98 9.66 -4 10 C-4.33 9.34 -4.66 8.68 -5 8 C-6.98 9.98 -8.96 11.96 -11 14 C-11.66 13.67 -12.32 13.34 -13 13 C-8.71 8.71 -4.42 4.42 0 0 Z " fill="#04189C" transform="translate(851,606)"/>
<path d="M0 0 C0.985 0.195 1.97 0.389 2.984 0.59 C4.106 0.824 4.106 0.824 5.25 1.062 C1.723 3.414 0.221 3.277 -3.938 3.188 C-5.024 3.169 -6.111 3.151 -7.23 3.133 C-8.478 3.098 -8.478 3.098 -9.75 3.062 C-9.75 2.072 -9.75 1.082 -9.75 0.062 C-6.219 -1.14 -3.621 -0.733 0 0 Z " fill="#F9CC08" transform="translate(538.75,600.9375)"/>
<path d="M0 0 C3.706 1.469 6.897 3.263 10.312 5.312 C9.982 5.972 9.653 6.633 9.312 7.312 C7.728 6.859 6.145 6.399 4.562 5.938 C3.681 5.682 2.799 5.427 1.891 5.164 C-0.448 4.392 -2.522 3.476 -4.688 2.312 C-4.688 1.653 -4.688 0.992 -4.688 0.312 C-2.688 -0.688 -2.688 -0.688 0 0 Z " fill="#07239F" transform="translate(679.6875,602.6875)"/>
<path d="M0 0 C2.64 0.66 5.28 1.32 8 2 C7.67 2.99 7.34 3.98 7 5 C6.34 5 5.68 5 5 5 C4.34 6.32 3.68 7.64 3 9 C1.352 6.033 0.557 3.344 0 0 Z " fill="#E81526" transform="translate(544,555)"/>
<path d="M0 0 C3.817 1.555 6.192 4.036 9 7 C7.125 7.625 7.125 7.625 5 8 C4.34 7.34 3.68 6.68 3 6 C1.68 6 0.36 6 -1 6 C-1.043 4.334 -1.041 2.666 -1 1 C-0.67 0.67 -0.34 0.34 0 0 Z " fill="#0730B3" transform="translate(332,454)"/>
<path d="M0 0 C0 0.66 0 1.32 0 2 C-2.018 1.967 -4.036 1.935 -6.055 1.902 C-8.082 1.874 -8.082 1.874 -10 3 C-12.34 2.718 -14.675 2.387 -17 2 C-11.718 -1.522 -6.094 -2.031 0 0 Z " fill="#051297" transform="translate(541,606)"/>
<path d="M0 0 C1.65 0 3.3 0 5 0 C5.33 1.32 5.66 2.64 6 4 C3.595 5.203 2.05 5.101 -0.625 5.062 C-1.851 5.049 -1.851 5.049 -3.102 5.035 C-4.041 5.018 -4.041 5.018 -5 5 C-4.67 4.34 -4.34 3.68 -4 3 C-2.68 3 -1.36 3 0 3 C0 2.01 0 1.02 0 0 Z " fill="#061692" transform="translate(547,603)"/>
<path d="M0 0 C-1.561 3.832 -4.029 6.174 -7 9 C-7.598 9.598 -8.196 10.196 -8.812 10.812 C-9.204 11.204 -9.596 11.596 -10 12 C-10.99 11.67 -11.98 11.34 -13 11 C-11.214 9.161 -9.422 7.328 -7.625 5.5 C-7.117 4.975 -6.609 4.451 -6.086 3.91 C-2.227 0 -2.227 0 0 0 Z " fill="#DEA814" transform="translate(543,568)"/>
<path d="M0 0 C0.99 0.33 1.98 0.66 3 1 C-1.29 4.63 -5.58 8.26 -10 12 C-10.33 11.01 -10.66 10.02 -11 9 C-9.88 7.994 -8.754 6.995 -7.625 6 C-6.999 5.443 -6.372 4.886 -5.727 4.312 C-4 3 -4 3 -2 3 C-2 2.34 -2 1.68 -2 1 C-1.34 0.67 -0.68 0.34 0 0 Z " fill="#0F1C7C" transform="translate(787,912)"/>
<path d="M0 0 C0.66 0.66 1.32 1.32 2 2 C1.34 2 0.68 2 0 2 C-1.075 4.652 -2.095 7.284 -3 10 C-4.65 9.67 -6.3 9.34 -8 9 C-7.236 7.87 -6.463 6.747 -5.688 5.625 C-5.258 4.999 -4.829 4.372 -4.387 3.727 C-3 2 -3 2 0 0 Z " fill="#1E2498" transform="translate(242,652)"/>
<path d="M0 0 C-1 1.438 -1 1.438 -3 3 C-5.013 3.319 -7.029 3.633 -9.059 3.816 C-11.111 4.01 -13.022 4.423 -15 5 C-15.33 4.34 -15.66 3.68 -16 3 C-5.626 -0.444 -5.626 -0.444 0 0 Z " fill="#111C97" transform="translate(473,619)"/>
<path d="M0 0 C0.66 0.33 1.32 0.66 2 1 C2 1.99 2 2.98 2 4 C0.137 5.605 0.137 5.605 -2.312 7.188 C-3.113 7.717 -3.914 8.247 -4.738 8.793 C-7 10 -7 10 -10 10 C-6.7 6.7 -3.4 3.4 0 0 Z " fill="#1013A3" transform="translate(246,904)"/>
<path d="M0 0 C0.66 0.99 1.32 1.98 2 3 C-0.533 6.8 -2.812 7.339 -7 9 C-8.34 9.653 -9.677 10.312 -11 11 C-7.638 6.748 -4.252 3.362 0 0 Z " fill="#031BA3" transform="translate(797,656)"/>
<path d="M0 0 C1.959 0.476 3.917 0.956 5.875 1.438 C6.966 1.704 8.056 1.971 9.18 2.246 C12 3 12 3 14 4 C13.67 4.99 13.34 5.98 13 7 C11.608 6.505 11.608 6.505 10.188 6 C7.08 4.85 7.08 4.85 4 5 C4 4.01 4 3.02 4 2 C2.68 2 1.36 2 0 2 C0 1.34 0 0.68 0 0 Z " fill="#C8A61A" transform="translate(738,557)"/>
<path d="M0 0 C0 3 0 3 -2.625 5.918 C-3.742 7.016 -4.868 8.105 -6 9.188 C-6.572 9.746 -7.145 10.305 -7.734 10.881 C-9.15 12.261 -10.574 13.631 -12 15 C-12.33 14.01 -12.66 13.02 -13 12 C-12 10 -12 10 -9.875 8.812 C-6.031 6.389 -3.118 3.28 0 0 Z " fill="#0113A7" transform="translate(782,662)"/>
<path d="M0 0 C0 4.072 -1.644 5.395 -4.266 8.348 C-6.582 10.554 -9.051 11.806 -12 13 C-12 12.34 -12 11.68 -12 11 C-11.34 11 -10.68 11 -10 11 C-9.67 9.35 -9.34 7.7 -9 6 C-8.443 5.938 -7.886 5.876 -7.312 5.812 C-4.05 4.666 -2.313 2.506 0 0 Z " fill="#052F9B" transform="translate(846,613)"/>
<path d="M0 0 C1.212 0.027 1.212 0.027 2.449 0.055 C3.372 0.089 3.372 0.089 4.312 0.125 C3.653 2.435 2.992 4.745 2.312 7.125 C1.982 7.125 1.653 7.125 1.312 7.125 C1.312 5.475 1.312 3.825 1.312 2.125 C0.756 2.496 0.199 2.867 -0.375 3.25 C-2.688 4.125 -2.688 4.125 -5.438 3.25 C-6.18 2.879 -6.923 2.508 -7.688 2.125 C-4.484 -0.011 -3.668 -0.106 0 0 Z " fill="#071097" transform="translate(566.6875,599.875)"/>
<path d="M0 0 C1.65 0 3.3 0 5 0 C7.296 11.522 7.296 11.522 7 17 C5.512 15.918 5.512 15.918 4 14 C3.707 10.863 3.707 10.863 3.812 7.312 C3.84 6.133 3.867 4.954 3.895 3.738 C3.929 2.835 3.964 1.931 4 1 C2.68 0.67 1.36 0.34 0 0 Z " fill="#25329B" transform="translate(324,577)"/>
<path d="M0 0 C5.28 0 10.56 0 16 0 C16.33 0.66 16.66 1.32 17 2 C12.307 2.845 8.668 2.868 4 2 C3.01 2.495 3.01 2.495 2 3 C2 2.34 2 1.68 2 1 C1.34 0.67 0.68 0.34 0 0 Z " fill="#0928A5" transform="translate(376,861)"/>
<path d="M0 0 C0.66 0.33 1.32 0.66 2 1 C0.523 4.452 -1.438 6.65 -4.125 9.25 C-4.849 9.956 -5.574 10.663 -6.32 11.391 C-6.875 11.922 -7.429 12.453 -8 13 C-8 12.01 -8 11.02 -8 10 C-7.361 9.381 -6.721 8.763 -6.062 8.125 C-3.72 5.712 -3.365 4.284 -3 1 C-2.01 1.33 -1.02 1.66 0 2 C0 1.34 0 0.68 0 0 Z " fill="#1024A0" transform="translate(795,647)"/>
<path d="M0 0 C0.66 0 1.32 0 2 0 C2 2.64 2 5.28 2 8 C0.35 8.66 -1.3 9.32 -3 10 C-3.33 9.01 -3.66 8.02 -4 7 C-3.34 6.01 -2.68 5.02 -2 4 C-1.318 2.674 -0.648 1.342 0 0 Z " fill="#1D1676" transform="translate(638,639)"/>
<path d="M0 0 C0.66 0 1.32 0 2 0 C2 0.66 2 1.32 2 2 C6.29 2.33 10.58 2.66 15 3 C15 3.33 15 3.66 15 4 C5.595 4.495 5.595 4.495 -4 5 C-2.68 3.35 -1.36 1.7 0 0 Z " fill="#E29A17" transform="translate(505,604)"/>
<path d="M0 0 C0 0.99 0 1.98 0 3 C-0.99 3 -1.98 3 -3 3 C-2.67 3.99 -2.34 4.98 -2 6 C-3.32 7.32 -4.64 8.64 -6 10 C-6.66 9.67 -7.32 9.34 -8 9 C-7.539 4.853 -4.484 0 0 0 Z " fill="#FBE337" transform="translate(210,933)"/>
<path d="M0 0 C0.66 0 1.32 0 2 0 C0.464 3.681 -1.782 5.988 -4.625 8.75 C-5.851 9.949 -5.851 9.949 -7.102 11.172 C-7.728 11.775 -8.355 12.378 -9 13 C-9.66 12.67 -10.32 12.34 -11 12 C-9.215 9.994 -7.422 7.995 -5.625 6 C-5.117 5.428 -4.609 4.855 -4.086 4.266 C-2.765 2.806 -1.386 1.398 0 0 Z " fill="#E0E279" transform="translate(785,636)"/>
<path d="M0 0 C2.5 2.312 2.5 2.312 5 5 C5 5.99 5 6.98 5 8 C3.35 8.33 1.7 8.66 0 9 C0 6.03 0 3.06 0 0 Z " fill="#081A55" transform="translate(172,367)"/>
<path d="M0 0 C1.274 2.547 0.802 3.428 0.062 6.125 C-0.132 6.849 -0.327 7.574 -0.527 8.32 C-0.683 8.875 -0.839 9.429 -1 10 C-1.99 9.67 -2.98 9.34 -4 9 C-4.25 6.75 -4.25 6.75 -4 4 C-2 1.688 -2 1.688 0 0 Z " fill="#EDB25E" transform="translate(823,886)"/>
<path d="M0 0 C1.32 0.66 2.64 1.32 4 2 C1.688 4.5 1.688 4.5 -1 7 C-1.99 7 -2.98 7 -4 7 C-3.436 3.73 -2.5 2.174 0 0 Z " fill="#F1EF85" transform="translate(782,664)"/>
<path d="M0 0 C1.196 0.454 2.393 0.908 3.625 1.375 C7.059 2.664 10.511 3.866 14 5 C14 5.33 14 5.66 14 6 C8.327 6.293 5.009 6.006 0 3 C0 2.01 0 1.02 0 0 Z " fill="#B89617" transform="translate(706,546)"/>
<path d="M0 0 C-1.5 2.062 -1.5 2.062 -4 4 C-6.824 4.059 -9.202 3.56 -12 3 C-12 2.34 -12 1.68 -12 1 C-7.947 0.018 -4.161 -0.082 0 0 Z " fill="#101B94" transform="translate(443,626)"/>
<path d="M0 0 C0.66 1.32 1.32 2.64 2 4 C0.25 6 0.25 6 -2 8 C-3.32 8 -4.64 8 -6 8 C-4.557 4.634 -2.667 2.49 0 0 Z " fill="#0925A0" transform="translate(806,647)"/>
<path d="M0 0 C0 3.94 -1.462 5.089 -4 8 C-4.66 8.66 -5.32 9.32 -6 10 C-6.66 9.67 -7.32 9.34 -8 9 C-6.417 4.726 -3.494 2.735 0 0 Z " fill="#F9CC42" transform="translate(245,901)"/>
<path d="M0 0 C1.32 0.33 2.64 0.66 4 1 C0.375 5.875 0.375 5.875 -3 7 C-3 5.02 -3 3.04 -3 1 C-2.01 1.33 -1.02 1.66 0 2 C0 1.34 0 0.68 0 0 Z " fill="#1A1799" transform="translate(203,680)"/>
<path d="M0 0 C0.99 0.99 1.98 1.98 3 3 C4.32 2.34 5.64 1.68 7 1 C6.046 2.149 5.086 3.294 4.125 4.438 C3.591 5.076 3.058 5.714 2.508 6.371 C1 8 1 8 -1 9 C-0.67 6.03 -0.34 3.06 0 0 Z " fill="#1A159C" transform="translate(233,648)"/>
<path d="M0 0 C0.66 0.33 1.32 0.66 2 1 C1.546 2.585 1.087 4.168 0.625 5.75 C0.37 6.632 0.115 7.513 -0.148 8.422 C-0.921 10.761 -1.836 12.834 -3 15 C-4.285 11.145 -3.405 9.597 -2.062 5.812 C-1.682 4.726 -1.302 3.639 -0.91 2.52 C-0.61 1.688 -0.309 0.857 0 0 Z " fill="#F3D809" transform="translate(634,640)"/>
<path d="M0 0 C0 3 0 3 -1.875 5.188 C-4 7 -4 7 -6 7 C-6 5.02 -6 3.04 -6 1 C-4.02 0.67 -2.04 0.34 0 0 Z " fill="#F7CD05" transform="translate(590,615)"/>
<path d="M0 0 C0.33 0.66 0.66 1.32 1 2 C-0.762 5.617 -2.643 7.801 -6 10 C-6.66 9.67 -7.32 9.34 -8 9 C-5.36 6.03 -2.72 3.06 0 0 Z " fill="#E3C74B" transform="translate(187,954)"/>
<path d="M0 0 C0.66 0.66 1.32 1.32 2 2 C1.34 2.66 0.68 3.32 0 4 C-0.99 3.67 -1.98 3.34 -3 3 C-2.01 2.01 -1.02 1.02 0 0 Z M-6 6 C-6 9 -6 9 -7.5 10.688 C-7.995 11.121 -8.49 11.554 -9 12 C-9.99 11.67 -10.98 11.34 -12 11 C-10.02 9.35 -8.04 7.7 -6 6 Z " fill="#1A1781" transform="translate(300,683)"/>
<path d="M0 0 C1.65 0.33 3.3 0.66 5 1 C3.867 4.399 2.875 5.053 0 7 C-0.66 6.67 -1.32 6.34 -2 6 C-1.34 4.02 -0.68 2.04 0 0 Z " fill="#181A9A" transform="translate(209,672)"/>
<path d="M0 0 C2.64 0 5.28 0 8 0 C7.67 0.99 7.34 1.98 7 3 C4.688 3.625 4.688 3.625 2 4 C1.01 3.34 0.02 2.68 -1 2 C-0.67 1.34 -0.34 0.68 0 0 Z " fill="#051D94" transform="translate(498,612)"/>
<path d="M0 0 C0.99 0 1.98 0 3 0 C2.67 2.31 2.34 4.62 2 7 C0.35 7 -1.3 7 -3 7 C-1.125 1.125 -1.125 1.125 0 0 Z " fill="#201A77" transform="translate(582,625)"/>
<path d="M0 0 C0.33 1.32 0.66 2.64 1 4 C-1.312 4.688 -1.312 4.688 -4 5 C-5.812 3.562 -5.812 3.562 -7 2 C-4.353 0.539 -3.106 0 0 0 Z " fill="#1A177D" transform="translate(596,616)"/>
<path d="M0 0 C-2.528 2.799 -4.204 4.458 -8 5 C-8.66 4.01 -9.32 3.02 -10 2 C-6.492 0.396 -3.856 -0.22 0 0 Z " fill="#071C9A" transform="translate(484,616)"/>
<path d="M0 0 C0.99 0.33 1.98 0.66 3 1 C3 1.99 3 2.98 3 4 C3.98 5.348 4.98 6.682 6 8 C6 8.66 6 9.32 6 10 C5.34 10 4.68 10 4 10 C2.994 8.337 1.994 6.67 1 5 C0.01 4.34 -0.98 3.68 -2 3 C-2 2.34 -2 1.68 -2 1 C-1.34 0.67 -0.68 0.34 0 0 Z " fill="#C39E18" transform="translate(698,574)"/>
<path d="M0 0 C0.583 0.236 1.165 0.472 1.766 0.715 C-0.605 3.335 -3.107 5.073 -6.234 6.715 C-7.224 6.715 -8.214 6.715 -9.234 6.715 C-8.167 5.513 -7.08 4.329 -5.984 3.152 C-5.381 2.491 -4.778 1.83 -4.156 1.148 C-2.234 -0.285 -2.234 -0.285 0 0 Z " fill="#DDAD12" transform="translate(658.234375,464.28515625)"/>
<path d="M0 0 C0.33 0 0.66 0 1 0 C1.33 4.29 1.66 8.58 2 13 C1.01 12.67 0.02 12.34 -1 12 C-1.027 10.563 -1.046 9.125 -1.062 7.688 C-1.074 6.887 -1.086 6.086 -1.098 5.262 C-1 3 -1 3 0 0 Z " fill="#C8A324" transform="translate(678,645)"/>
<path d="M0 0 C4.827 1.287 5.839 1.786 9 6 C5.7 5.01 2.4 4.02 -1 3 C-0.67 2.01 -0.34 1.02 0 0 Z " fill="#DAB417" transform="translate(711,615)"/>
<path d="M0 0 C-0.33 1.32 -0.66 2.64 -1 4 C-4.375 4.125 -4.375 4.125 -8 4 C-8.66 3.34 -9.32 2.68 -10 2 C-3.375 0 -3.375 0 0 0 Z " fill="#132993" transform="translate(749,564)"/>
<path d="M0 0 C1.32 0.33 2.64 0.66 4 1 C2.717 3.566 1.602 3.885 -1 5 C-2.324 5.368 -3.656 5.712 -5 6 C-3.35 4.02 -1.7 2.04 0 0 Z " fill="#001F9F" transform="translate(716,538)"/>
<path d="M0 0 C-9.41 3.629 -9.41 3.629 -14 2 C-14 1.67 -14 1.34 -14 1 C-12.419 0.635 -10.835 0.283 -9.25 -0.062 C-8.368 -0.26 -7.487 -0.457 -6.578 -0.66 C-4.013 -0.998 -2.429 -0.812 0 0 Z " fill="#DCA716" transform="translate(524,533)"/>
<path d="M0 0 C0.66 0.33 1.32 0.66 2 1 C1.65 4.242 1.438 5.615 -1.062 7.812 C-1.702 8.204 -2.341 8.596 -3 9 C-3 7.68 -3 6.36 -3 5 C-2.34 5 -1.68 5 -1 5 C-0.67 3.35 -0.34 1.7 0 0 Z " fill="#DBB210" transform="translate(714,534)"/>
<path d="M0 0 C0.66 0 1.32 0 2 0 C2 1.65 2 3.3 2 5 C-0.64 5.33 -3.28 5.66 -6 6 C-4 4 -2 2 0 0 Z " fill="#E0AF17" transform="translate(693,431)"/>
<path d="M0 0 C0.33 0.99 0.66 1.98 1 3 C-1.31 4.32 -3.62 5.64 -6 7 C-6.66 6.34 -7.32 5.68 -8 5 C-5.44 2.989 -2.954 1.372 0 0 Z " fill="#221B75" transform="translate(567,643)"/>
<path d="M0 0 C2.102 0.426 2.102 0.426 4 1 C2.88 2.006 1.754 3.005 0.625 4 C-0.315 4.835 -0.315 4.835 -1.273 5.688 C-3 7 -3 7 -5 7 C-3.725 4.156 -2.549 1.862 0 0 Z " fill="#1933B5" transform="translate(375,625)"/>
<path d="M0 0 C0.33 0.99 0.66 1.98 1 3 C-1.64 5.31 -4.28 7.62 -7 10 C-7.66 9.67 -8.32 9.34 -9 9 C-6.03 6.03 -3.06 3.06 0 0 Z " fill="#E1C10E" transform="translate(528,582)"/>
<path d="M0 0 C0.66 0 1.32 0 2 0 C3.343 1.993 4.676 3.994 6 6 C6.99 6.66 7.98 7.32 9 8 C8.67 8.66 8.34 9.32 8 10 C3.792 8.497 2.197 5.767 0 2 C0 1.34 0 0.68 0 0 Z " fill="#0B2597" transform="translate(702,579)"/>
<path d="M0 0 C2.31 0.66 4.62 1.32 7 2 C6.67 3.32 6.34 4.64 6 6 C5.01 6 4.02 6 3 6 C2.01 4.02 1.02 2.04 0 0 Z " fill="#1135B8" transform="translate(461,545)"/>
<path d="M0 0 C4 2 4 2 6 5 C5.625 7.188 5.625 7.188 5 9 C3.68 8.67 2.36 8.34 1 8 C1.99 8 2.98 8 4 8 C2.68 5.36 1.36 2.72 0 0 Z " fill="#D59C16" transform="translate(551,518)"/>
<path d="M0 0 C0.99 0.33 1.98 0.66 3 1 C0.69 3.31 -1.62 5.62 -4 8 C-4.33 7.34 -4.66 6.68 -5 6 C-3.35 4.02 -1.7 2.04 0 0 Z " fill="#FEF137" transform="translate(192,950)"/>
<path d="M0 0 C0.33 0 0.66 0 1 0 C1.25 6.625 1.25 6.625 -1 10 C-2 9 -2 9 -2.062 5.938 C-2.042 4.968 -2.021 3.999 -2 3 C-1.34 3 -0.68 3 0 3 C0 2.01 0 1.02 0 0 Z " fill="#FABA5C" transform="translate(820,897)"/>
<path d="M0 0 C0 3 0 3 -1.312 4.387 C-2.875 5.591 -4.438 6.796 -6 8 C-6.66 7.67 -7.32 7.34 -8 7 C-7.312 5.125 -7.312 5.125 -6 3 C-3.438 1.812 -3.438 1.812 -1 1 C-0.67 0.67 -0.34 0.34 0 0 Z " fill="#0D119C" transform="translate(278,870)"/>
<path d="M0 0 C0.33 0.99 0.66 1.98 1 3 C-0.623 4.709 -2.293 6.374 -4 8 C-4.66 8 -5.32 8 -6 8 C-4.557 4.634 -2.667 2.49 0 0 Z " fill="#D3DC86" transform="translate(768,678)"/>
<path d="M0 0 C1.98 0 3.96 0 6 0 C5.625 1.938 5.625 1.938 5 4 C4.01 4.495 4.01 4.495 3 5 C1.5 3.625 1.5 3.625 0 2 C0 1.34 0 0.68 0 0 Z " fill="#252494" transform="translate(242,641)"/>
<path d="M0 0 C0.99 0.33 1.98 0.66 3 1 C3 1.66 3 2.32 3 3 C4.32 3.33 5.64 3.66 7 4 C7 4.66 7 5.32 7 6 C4.625 5.812 4.625 5.812 2 5 C0.688 2.438 0.688 2.438 0 0 Z " fill="#E9C214" transform="translate(730,621)"/>
<path d="M0 0 C0 4.29 0 8.58 0 13 C-0.33 13 -0.66 13 -1 13 C-1 9.7 -1 6.4 -1 3 C-2.32 2.67 -3.64 2.34 -5 2 C-2 0 -2 0 0 0 Z " fill="#222983" transform="translate(851,491)"/>
<path d="M0 0 C0.66 0.33 1.32 0.66 2 1 C1.67 1.99 1.34 2.98 1 4 C0.34 4 -0.32 4 -1 4 C-1.33 4.66 -1.66 5.32 -2 6 C-4.562 6.625 -4.562 6.625 -7 7 C-4.667 4.667 -2.333 2.333 0 0 Z " fill="#E5B612" transform="translate(647,473)"/>
<path d="M0 0 C0.66 0.33 1.32 0.66 2 1 C-1.465 3.97 -1.465 3.97 -5 7 C-5 5.02 -5 3.04 -5 1 C-4.67 1.66 -4.34 2.32 -4 3 C-3.34 3 -2.68 3 -2 3 C-2 2.34 -2 1.68 -2 1 C-1.34 0.67 -0.68 0.34 0 0 Z " fill="#FDE231" transform="translate(233,914)"/>
<path d="M0 0 C0.66 0.33 1.32 0.66 2 1 C-0.31 3.64 -2.62 6.28 -5 9 C-5.33 8.34 -5.66 7.68 -6 7 C-5.67 6.34 -5.34 5.68 -5 5 C-4.34 5 -3.68 5 -3 5 C-2.536 4.041 -2.536 4.041 -2.062 3.062 C-1 1 -1 1 0 0 Z " fill="#0C1D77" transform="translate(806,829)"/>
<path d="M0 0 C0.33 0 0.66 0 1 0 C1 3.3 1 6.6 1 10 C0.01 10 -0.98 10 -2 10 C-1.542 6.531 -1.109 3.326 0 0 Z " fill="#C89E18" transform="translate(563,625)"/>
<path d="M0 0 C0.33 0.99 0.66 1.98 1 3 C0.34 3 -0.32 3 -1 3 C-1.33 3.66 -1.66 4.32 -2 5 C-2.99 5.33 -3.98 5.66 -5 6 C-4.75 4.125 -4.75 4.125 -4 2 C-1.938 0.75 -1.938 0.75 0 0 Z " fill="#F50B2B" transform="translate(387,619)"/>
<path d="M0 0 C0.66 0 1.32 0 2 0 C2.99 1.98 3.98 3.96 5 6 C4.01 6.495 4.01 6.495 3 7 C2.67 5.68 2.34 4.36 2 3 C0.35 3.66 -1.3 4.32 -3 5 C-1.125 1.125 -1.125 1.125 0 0 Z " fill="#131287" transform="translate(594,613)"/>
<path d="M0 0 C0.66 1.32 1.32 2.64 2 4 C0.35 5.32 -1.3 6.64 -3 8 C-3.66 7.67 -4.32 7.34 -5 7 C-3.35 4.69 -1.7 2.38 0 0 Z " fill="#0A2C9A" transform="translate(813,612)"/>
<path d="M0 0 C0.66 0 1.32 0 2 0 C2.33 2.31 2.66 4.62 3 7 C2.34 7 1.68 7 1 7 C0.34 7.66 -0.32 8.32 -1 9 C-0.67 6.03 -0.34 3.06 0 0 Z " fill="#271E6E" transform="translate(675,609)"/>
<path d="M0 0 C-1.485 1.485 -1.485 1.485 -3 3 C-3.33 2.67 -3.66 2.34 -4 2 C-6.328 1.632 -8.662 1.298 -11 1 C-7.23 -1.564 -4.326 -0.832 0 0 Z " fill="#1F148D" transform="translate(510,611)"/>
<path d="M0 0 C-1.049 2.622 -1.649 3.794 -4.125 5.25 C-4.744 5.497 -5.362 5.745 -6 6 C-6 3 -6 3 -4.688 1.312 C-3 0 -3 0 0 0 Z " fill="#F1F374" transform="translate(828,597)"/>
<path d="M0 0 C0.33 1.32 0.66 2.64 1 4 C-1.31 4 -3.62 4 -6 4 C-4 1 -4 1 -1.875 0.312 C-1.256 0.209 -0.638 0.106 0 0 Z " fill="#F4B661" transform="translate(779,923)"/>
<path d="M0 0 C1.32 0.33 2.64 0.66 4 1 C4 1.66 4 2.32 4 3 C2.125 4.062 2.125 4.062 0 5 C-0.66 4.67 -1.32 4.34 -2 4 C-1.34 2.68 -0.68 1.36 0 0 Z " fill="#201F93" transform="translate(265,878)"/>
<path d="M0 0 C1.32 0.66 2.64 1.32 4 2 C3.67 2.66 3.34 3.32 3 4 C2.34 4 1.68 4 1 4 C1 4.66 1 5.32 1 6 C0.01 6 -0.98 6 -2 6 C-1.34 4.02 -0.68 2.04 0 0 Z " fill="#24249A" transform="translate(218,673)"/>
<path d="M0 0 C2 1 2 1 4 4 C4.66 4.33 5.32 4.66 6 5 C5.67 5.99 5.34 6.98 5 8 C2 7 2 7 0.812 5.125 C0 3 0 3 0 0 Z " fill="#F4CF09" transform="translate(608,636)"/>
<path d="M0 0 C1.32 0.66 2.64 1.32 4 2 C2.68 2 1.36 2 0 2 C-0.33 2.99 -0.66 3.98 -1 5 C-3.062 6.188 -3.062 6.188 -5 7 C-3.707 4.116 -2.341 2.128 0 0 Z " fill="#111187" transform="translate(588,619)"/>
<path d="M0 0 C0.66 0.33 1.32 0.66 2 1 C1.67 2.32 1.34 3.64 1 5 C-0.98 5.33 -2.96 5.66 -5 6 C-3.35 4.02 -1.7 2.04 0 0 Z " fill="#E5B811" transform="translate(515,594)"/>
<path d="M0 0 C0.33 0.66 0.66 1.32 1 2 C1.66 2.33 2.32 2.66 3 3 C1.26 4.74 -1.194 4.372 -3.562 4.562 C-5.08 4.688 -5.08 4.688 -6.629 4.816 C-7.411 4.877 -8.194 4.938 -9 5 C-6 3 -6 3 -3.375 2.5 C-2.591 2.335 -1.808 2.17 -1 2 C-0.67 1.34 -0.34 0.68 0 0 Z " fill="#EACD0D" transform="translate(557,524)"/>
<path d="M0 0 C1.32 0.66 2.64 1.32 4 2 C2.625 4 2.625 4 1 6 C0.34 6 -0.32 6 -1 6 C-1.043 4.334 -1.041 2.666 -1 1 C-0.67 0.67 -0.34 0.34 0 0 Z " fill="#102D98" transform="translate(332,454)"/>
<path d="M0 0 C1.667 0 3.333 0 5 0 C5 1.98 5 3.96 5 6 C3.293 4.719 1.626 3.382 0 2 C0 1.34 0 0.68 0 0 Z " fill="#F7CF0A" transform="translate(673,650)"/>
<path d="M0 0 C-2.762 2.762 -5.207 2.579 -9 3 C-9 2.34 -9 1.68 -9 1 C-6.043 -0.478 -3.258 -0.06 0 0 Z " fill="#091C96" transform="translate(400,635)"/>
<path d="M0 0 C0.99 0.99 1.98 1.98 3 3 C1.68 3.99 0.36 4.98 -1 6 C-1.66 4.68 -2.32 3.36 -3 2 C-2.34 1.67 -1.68 1.34 -1 1 C-0.67 0.67 -0.34 0.34 0 0 Z " fill="#E6BB12" transform="translate(572,631)"/>
<path d="M0 0 C0.66 0.99 1.32 1.98 2 3 C-0.375 4.562 -0.375 4.562 -3 6 C-3.66 5.67 -4.32 5.34 -5 5 C-3.35 3.35 -1.7 1.7 0 0 Z " fill="#1C349B" transform="translate(802,622)"/>
<path d="M0 0 C-1.137 3.412 -2.043 4.119 -5 6 C-5.66 6 -6.32 6 -7 6 C-5.525 2.597 -4.144 0 0 0 Z " fill="#1D31B0" transform="translate(393,612)"/>
<path d="M0 0 C-0.33 0.99 -0.66 1.98 -1 3 C-3.062 3.688 -3.062 3.688 -5 4 C-5 3.34 -5 2.68 -5 2 C-6.32 1.67 -7.64 1.34 -9 1 C-5.942 0.456 -3.112 0 0 0 Z " fill="#2C1788" transform="translate(517,608)"/>
<path d="M0 0 C0.33 0.66 0.66 1.32 1 2 C0.67 2.99 0.34 3.98 0 5 C0.66 5.33 1.32 5.66 2 6 C0.35 6.33 -1.3 6.66 -3 7 C-2.25 2.25 -2.25 2.25 0 0 Z " fill="#E7C30F" transform="translate(509,600)"/>
<path d="M0 0 C1.32 0.33 2.64 0.66 4 1 C4.33 2.65 4.66 4.3 5 6 C3.062 5.25 3.062 5.25 1 4 C0.25 1.875 0.25 1.875 0 0 Z " fill="#06239C" transform="translate(712,592)"/>
<path d="M0 0 C1.32 0.66 2.64 1.32 4 2 C2.71 3.376 1.373 4.708 0 6 C-0.66 6 -1.32 6 -2 6 C-2 5.01 -2 4.02 -2 3 C-1.34 3 -0.68 3 0 3 C0 2.01 0 1.02 0 0 Z " fill="#09239C" transform="translate(842,576)"/>
<path d="M0 0 C0 0.66 0 1.32 0 2 C-3.465 3.485 -3.465 3.485 -7 5 C-7 4.34 -7 3.68 -7 3 C-7.66 2.67 -8.32 2.34 -9 2 C-2.25 0 -2.25 0 0 0 Z " fill="#1A298F" transform="translate(744,522)"/>
<path d="M0 0 C-1.062 1.562 -1.062 1.562 -3 3 C-6.688 2.688 -6.688 2.688 -10 2 C-3.241 -1.621 -3.241 -1.621 0 0 Z " fill="#19298E" transform="translate(775,514)"/>
<path d="M0 0 C0.99 0.33 1.98 0.66 3 1 C3 1.99 3 2.98 3 4 C0.69 4.33 -1.62 4.66 -4 5 C-3.01 4.67 -2.02 4.34 -1 4 C-0.267 1.985 -0.267 1.985 0 0 Z " fill="#F2181F" transform="translate(783,506)"/>
  </g>
  <g id="text-layer">
    <style>
    .coming {
      font-family: 'Arial Black', sans-serif;
      font-weight: 900;
      font-size: 175px;
      fill: #ffffff;
      filter: drop-shadow(2px 2px 2px rgba(0,0,0,0.15));
      text-anchor: middle;
    }
    .soon {
      font-family: 'Arial Black', sans-serif;
      font-weight: 900;
      font-size: 240px;
      fill: #fdb913;
      filter: drop-shadow(2px 2px 2px rgba(0,0,0,0.3));
      text-anchor: middle;
    }
    .stay-tuned {
      font-family: 'Arial Black', sans-serif;
      font-weight: 900;
      font-size: 90px;
      fill: #fdb913;
      text-anchor: middle;
    }
    .small-text {
      font-family: 'Arial', sans-serif;
      font-size: 30px;
      fill: #ffffff;
      letter-spacing: 0.05em;
      text-anchor: middle;
      opacity: 0.7;
    }
  </style>
  <text class="coming" x="540" y="300">COMING</text>
  <text class="soon" x="540" y="540">SOON</text>
  <text class="stay-tuned" x="540" y="830">STAY TUNED</text>
  <text class="small-text" x="540" y="960">erecipes are a g sicssacns ienne celnimte ninerta an eirfsorraser.</text>
  </g>
</svg>