<svg xmlns="http://www.w3.org/2000/svg" viewBox="0 0 1080 1080" width="1080" height="1080">
  <g id="background-layer" opacity="0.9">
    <path d="M0 0 C337.92 0 675.84 0 1024 0 C1024 337.92 1024 675.84 1024 1024 C686.08 1024 348.16 1024 0 1024 C0 686.08 0 348.16 0 0 Z " fill="#161516" transform="translate(0,0)"/>
<path d="M0 0 C109.717 -0.054 219.435 -0.085 581.057 0.326 C592.492 0.36 603.926 0.389 615.36 0.416 C629.905 0.45 644.449 0.49 658.994 0.543 C665.887 0.568 672.781 0.59 679.675 0.603 C685.893 0.616 692.112 0.638 698.33 0.667 C700.574 0.676 702.819 0.682 705.063 0.684 C708.085 0.688 711.106 0.703 714.127 0.722 C715.45 0.719 715.45 0.719 716.8 0.716 C722.772 0.772 722.772 0.772 725 3 C725.249 5.012 725.249 5.012 725.248 7.544 C725.255 8.992 725.255 8.992 725.262 10.468 C725.257 11.538 725.252 12.608 725.246 13.71 C725.248 14.843 725.251 15.977 725.253 17.145 C725.257 20.314 725.253 23.484 725.245 26.654 C725.238 30.093 725.242 33.533 725.246 36.972 C725.25 43.008 725.247 49.044 725.238 55.08 C725.226 64.055 725.226 73.03 725.227 82.006 C725.23 97.101 725.223 112.197 725.211 127.293 C725.2 142.246 725.192 157.199 725.19 172.152 C725.19 173.08 725.189 174.009 725.189 174.966 C725.189 179.682 725.188 184.398 725.187 189.115 C725.183 222.545 725.17 255.975 725.151 289.406 C725.133 321.889 725.118 354.372 725.11 386.855 C725.11 387.856 725.109 388.856 725.109 389.888 C725.106 399.937 725.104 409.987 725.101 420.037 C725.096 440.51 725.091 460.984 725.085 481.457 C725.084 482.399 725.084 483.34 725.084 484.31 C725.065 547.207 725.034 610.103 725 673 C723.761 673.194 723.761 673.194 722.498 673.392 C721.416 673.566 720.334 673.74 719.219 673.919 C717.609 674.175 717.609 674.175 715.966 674.436 C712.533 675.089 709.692 676.204 706.562 677.75 C700.575 680.467 694.575 682.459 688.25 684.25 C687.387 684.496 686.524 684.742 685.635 684.995 C670.735 689.121 656.396 690.189 641 690 C664.504 700.827 664.504 700.827 689.406 699.781 C697.565 695.955 704.455 690.895 711.433 685.248 C713.986 683.215 716.613 681.297 719.25 679.375 C720.142 678.723 721.034 678.07 721.953 677.398 C724 676 724 676 725 676 C725.068 705.904 725.122 735.807 725.153 765.711 C725.157 769.238 725.161 772.766 725.165 776.293 C725.166 776.995 725.166 777.698 725.167 778.421 C725.18 789.804 725.204 801.187 725.231 812.57 C725.259 824.243 725.276 835.916 725.282 847.589 C725.286 854.149 725.295 860.708 725.317 867.267 C725.337 873.435 725.344 879.602 725.339 885.769 C725.34 888.039 725.346 890.309 725.358 892.578 C725.372 895.665 725.369 898.751 725.361 901.838 C725.37 902.747 725.378 903.655 725.387 904.591 C725.369 907.084 725.369 907.084 725 911 C721.179 913.547 718.108 913.275 713.682 913.246 C712.819 913.248 711.956 913.251 711.067 913.253 C708.15 913.258 705.233 913.249 702.316 913.241 C700.214 913.241 698.111 913.243 696.009 913.246 C690.213 913.25 684.416 913.242 678.619 913.232 C672.376 913.224 666.133 913.226 659.889 913.228 C649.066 913.229 638.242 913.223 627.418 913.211 C616.064 913.2 604.709 913.192 593.355 913.19 C592.297 913.19 592.297 913.19 591.217 913.189 C587.635 913.189 584.052 913.188 580.47 913.187 C555.082 913.183 529.693 913.17 504.305 913.151 C479.638 913.133 454.971 913.118 430.303 913.11 C429.543 913.11 428.783 913.109 428 913.109 C420.367 913.106 412.734 913.104 405.102 913.101 C389.552 913.096 374.002 913.091 358.452 913.085 C357.737 913.084 357.022 913.084 356.286 913.084 C308.524 913.065 260.762 913.034 213 913 C214.237 909.841 215.498 906.988 217.328 904.129 C217.791 903.401 218.254 902.674 218.73 901.924 C219.232 901.145 219.733 900.365 220.25 899.562 C220.778 898.735 221.306 897.907 221.85 897.054 C222.981 895.281 224.114 893.509 225.249 891.738 C226.989 889.017 228.72 886.291 230.449 883.562 C236.123 874.612 241.836 865.689 247.625 856.812 C256.121 843.78 264.396 830.616 272.562 817.375 C276.433 811.1 280.348 804.863 284.375 798.688 C290.739 788.924 296.887 779.027 303.047 769.135 C306.256 763.983 309.471 758.835 312.688 753.688 C313.31 752.691 313.933 751.694 314.574 750.668 C318.962 743.648 323.375 736.644 327.8 729.648 C332.076 722.886 336.32 716.105 340.554 709.317 C343.493 704.607 346.434 699.897 349.375 695.188 C350.018 694.157 350.662 693.126 351.325 692.065 C354.769 686.553 358.23 681.053 361.716 675.567 C366.296 668.357 370.762 661.094 375.125 653.75 C379.003 647.226 383.024 640.851 387.286 634.572 C390.954 629.142 394.364 623.57 397.759 617.966 C401.072 612.501 404.451 607.083 407.875 601.688 C412.127 594.985 416.331 588.255 420.5 581.5 C424.63 574.81 428.791 568.141 433 561.5 C438.854 552.26 444.613 542.964 450.359 533.657 C453.612 528.391 456.871 523.129 460.131 517.867 C462.808 513.545 465.481 509.221 468.145 504.891 C474.627 494.365 481.227 483.923 487.908 473.522 C493.216 465.25 498.445 456.932 503.641 448.59 C506.888 443.377 510.151 438.176 513.448 432.994 C519.255 423.862 524.881 414.625 530.477 405.363 C535.79 396.577 541.216 387.873 546.759 379.229 C553.338 368.951 559.696 358.538 566.075 348.135 C569.037 343.311 572.018 338.499 575 333.688 C578.405 328.193 581.805 322.696 585.188 317.188 C587.594 313.273 590.014 309.368 592.453 305.473 C593.276 304.158 594.096 302.842 594.914 301.525 C597.42 297.495 599.972 293.499 602.562 289.523 C603.771 287.641 604.979 285.758 606.188 283.875 C606.777 282.986 607.366 282.097 607.973 281.182 C608.512 280.335 609.051 279.489 609.605 278.617 C610.092 277.871 610.578 277.124 611.079 276.355 C612.816 271.913 611.173 268.201 609.365 264.031 C608.663 262.517 607.954 261.007 607.238 259.5 C606.856 258.68 606.474 257.86 606.08 257.015 C604.831 254.34 603.572 251.67 602.312 249 C601.441 247.138 600.57 245.275 599.7 243.413 C597.536 238.782 595.364 234.155 593.189 229.53 C590.347 223.482 587.517 217.429 584.688 211.375 C583.858 209.605 583.858 209.605 583.012 207.798 C580.068 201.494 577.163 195.174 574.309 188.828 C573.999 188.141 573.69 187.453 573.371 186.745 C571.898 183.466 570.429 180.185 568.968 176.9 C565.818 169.862 562.51 162.942 559.034 156.061 C555.718 149.483 552.586 142.825 549.473 136.149 C542.994 122.26 536.375 108.443 529.668 94.663 C529.012 93.314 528.355 91.966 527.699 90.617 C527.382 89.966 527.065 89.314 526.738 88.643 C523.794 82.589 520.894 76.515 518 70.438 C511.325 56.444 504.369 42.641 497 29 C492.732 28.636 490.879 29.427 487.527 32.031 C482.071 36.044 476.347 39.289 470.396 42.508 C468.506 43.53 466.621 44.56 464.736 45.591 C462.116 47.024 459.494 48.455 456.872 49.885 C450.898 53.144 444.948 56.445 439 59.75 C437.88 60.372 436.76 60.994 435.606 61.635 C428.034 65.847 420.502 70.125 412.99 74.442 C405.864 78.529 398.687 82.521 391.5 86.5 C383.428 90.97 375.377 95.469 367.375 100.062 C352.228 108.755 336.969 117.248 321.696 125.715 C311.542 131.344 301.418 137.015 291.352 142.798 C285.991 145.874 280.602 148.893 275.188 151.875 C268.179 155.737 261.272 159.755 254.375 163.812 C245.324 169.13 236.173 174.216 226.925 179.179 C219.173 183.345 211.502 187.639 203.851 191.987 C196.466 196.18 189.052 200.319 181.625 204.438 C166.054 213.073 150.516 221.766 135 230.5 C109.846 244.66 84.684 258.811 59.276 272.512 C53.903 275.414 48.557 278.354 43.25 281.375 C34.513 286.347 25.629 291.048 16.757 295.773 C9.717 299.514 9.717 299.514 2.785 303.449 C-0 305 -0 305 -2 305 C-2.046 267.011 -2.081 229.023 -2.102 191.034 C-2.105 186.55 -2.107 182.067 -2.11 177.583 C-2.11 176.69 -2.111 175.798 -2.111 174.878 C-2.12 160.42 -2.136 145.961 -2.154 131.503 C-2.173 116.671 -2.184 101.838 -2.188 87.005 C-2.191 77.851 -2.2 68.696 -2.216 59.542 C-2.226 53.267 -2.23 46.991 -2.227 40.716 C-2.226 37.094 -2.228 33.472 -2.238 29.85 C-2.25 25.925 -2.246 21.999 -2.241 18.073 C-2.246 16.927 -2.252 15.781 -2.258 14.6 C-2.252 13.02 -2.252 13.02 -2.246 11.408 C-2.247 10.502 -2.248 9.596 -2.248 8.662 C-1.959 5.556 -1.079 2.917 0 0 Z " fill="#E5270D" transform="translate(150,47)"/>
<path d="M0 0 C4.412 5.723 7.326 12.48 10.508 18.949 C12.4 22.795 14.316 26.628 16.242 30.457 C23.07 44.036 29.784 57.66 36.29 71.396 C37.969 74.934 39.653 78.469 41.339 82.003 C49.717 99.564 58.067 117.128 66.042 134.876 C69.818 143.245 73.77 151.531 77.743 159.807 C83.668 172.155 89.481 184.55 95.218 196.986 C97.264 201.416 99.323 205.839 101.387 210.259 C102.959 213.631 104.525 217.005 106.09 220.379 C106.858 222.032 107.629 223.684 108.402 225.335 C109.489 227.655 110.566 229.979 111.641 232.305 C112.129 233.339 112.129 233.339 112.627 234.394 C114.396 238.249 115.783 241.742 116 246 C115.095 248.323 115.095 248.323 113.641 250.547 C113.108 251.382 112.575 252.217 112.025 253.078 C111.44 253.96 110.854 254.842 110.25 255.75 C109.036 257.64 107.822 259.531 106.609 261.422 C105.998 262.364 105.386 263.305 104.756 264.275 C102.265 268.141 99.88 272.066 97.5 276 C88.307 291.083 78.965 306.073 69.594 321.046 C64.935 328.493 60.309 335.959 55.694 343.433 C52.251 349.001 48.763 354.538 45.25 360.062 C40.263 367.912 35.434 375.853 30.625 383.812 C24.371 394.161 17.977 404.409 11.453 414.59 C7.796 420.301 4.209 426.055 0.625 431.812 C-4.539 440.105 -9.776 448.347 -15.062 456.562 C-20.764 465.432 -26.321 474.376 -31.777 483.398 C-40.776 498.268 -50.067 512.957 -59.372 527.638 C-63.639 534.39 -67.822 541.193 -72 548 C-77.11 556.326 -82.256 564.626 -87.49 572.875 C-91.548 579.271 -95.557 585.696 -99.562 592.125 C-103.938 599.146 -108.354 606.135 -112.875 613.062 C-116.482 618.594 -119.951 624.186 -123.319 629.866 C-128.726 638.952 -134.397 647.877 -140.015 656.833 C-142.612 660.977 -145.202 665.126 -147.791 669.275 C-155.336 681.36 -162.929 693.413 -170.551 705.45 C-175.978 714.02 -181.386 722.598 -186.688 731.246 C-194.578 744.083 -202.566 756.861 -210.794 769.485 C-218.257 780.97 -225.442 792.637 -232.652 804.281 C-238.084 813.039 -243.686 821.677 -249.33 830.299 C-253.29 836.356 -257.207 842.438 -261.062 848.562 C-261.771 849.688 -261.771 849.688 -262.494 850.836 C-263.469 852.386 -264.444 853.936 -265.418 855.486 C-268.438 860.287 -271.466 865.083 -274.5 869.875 C-275.382 871.276 -275.382 871.276 -276.281 872.705 C-278.997 876.989 -281.699 881.133 -285 885 C-286.32 884.67 -287.64 884.34 -289 884 C-289.199 883.197 -289.399 882.395 -289.604 881.568 C-294.392 862.311 -299.229 843.067 -304.108 823.833 C-304.689 821.538 -305.27 819.242 -305.85 816.947 C-313.425 786.96 -321.705 757.207 -330.481 727.552 C-331.346 724.627 -332.208 721.701 -333.069 718.775 C-339.467 697.048 -345.997 675.363 -352.727 653.736 C-354.776 647.109 -356.737 640.464 -358.637 633.793 C-365.426 609.657 -365.426 609.657 -376 587 C-376.69 585.783 -376.69 585.783 -377.395 584.542 C-386.933 567.889 -397.566 552.156 -409.328 537 C-414.659 530.121 -419.821 523.144 -424.901 516.078 C-434.42 502.841 -444.129 489.76 -454.062 476.832 C-456.503 473.655 -458.916 470.46 -461.312 467.25 C-466.057 460.9 -470.873 454.604 -475.683 448.304 C-481.271 440.978 -486.804 433.613 -492.303 426.221 C-492.892 425.432 -493.48 424.644 -494.086 423.832 C-494.602 423.138 -495.118 422.445 -495.65 421.73 C-497.031 419.887 -497.031 419.887 -499 418 C-499.246 415.552 -499.246 415.552 -499.241 412.407 C-499.243 411.217 -499.246 410.028 -499.249 408.803 C-499.238 406.836 -499.238 406.836 -499.227 404.83 C-499.226 403.44 -499.227 402.051 -499.228 400.661 C-499.229 396.883 -499.217 393.104 -499.203 389.325 C-499.19 385.379 -499.189 381.432 -499.187 377.486 C-499.181 370.009 -499.164 362.533 -499.144 355.057 C-499.122 346.547 -499.111 338.037 -499.101 329.527 C-499.08 312.018 -499.045 294.509 -499 277 C-498.083 276.516 -497.166 276.033 -496.221 275.535 C-492.772 273.715 -489.324 271.891 -485.877 270.066 C-484.394 269.282 -482.911 268.498 -481.426 267.716 C-473.833 263.712 -466.29 259.692 -458.967 255.205 C-456.606 253.759 -454.202 252.412 -451.766 251.098 C-450.847 250.602 -449.929 250.105 -448.982 249.594 C-444.506 247.201 -440.022 244.821 -435.536 242.445 C-422.185 235.369 -408.963 228.106 -395.839 220.615 C-390.823 217.761 -385.786 214.943 -380.75 212.125 C-379.716 211.546 -378.682 210.967 -377.616 210.371 C-368.785 205.431 -359.939 200.519 -351.091 195.608 C-340.413 189.679 -329.755 183.712 -319.102 177.738 C-315.964 175.98 -312.826 174.224 -309.688 172.469 C-299.654 166.856 -289.628 161.23 -279.625 155.562 C-271.234 150.808 -262.812 146.111 -254.375 141.438 C-245.542 136.543 -236.747 131.59 -227.992 126.558 C-219.71 121.81 -211.359 117.19 -203.008 112.566 C-196.143 108.76 -189.306 104.911 -182.5 101 C-172.341 95.164 -162.099 89.481 -151.852 83.801 C-136.665 75.381 -121.519 66.893 -106.455 58.255 C-100.314 54.738 -94.141 51.283 -87.948 47.858 C-81.777 44.443 -75.637 40.976 -69.5 37.5 C-62.722 33.662 -55.937 29.839 -49.125 26.062 C-48.426 25.674 -47.726 25.286 -47.006 24.885 C-43.658 23.027 -40.309 21.171 -36.956 19.322 C-33.635 17.491 -30.317 15.652 -27 13.812 C-25.442 12.957 -25.442 12.957 -23.852 12.084 C-18.001 8.832 -12.556 5.386 -7.254 1.292 C-4.563 -0.25 -3.053 -0.491 0 0 Z " fill="#00498C" transform="translate(647,75)"/>
<path d="M0 0 C109.717 -0.054 219.435 -0.085 581.057 0.326 C592.492 0.36 603.926 0.389 615.36 0.416 C629.905 0.45 644.449 0.49 658.994 0.543 C665.887 0.568 672.781 0.59 679.675 0.603 C685.893 0.616 692.112 0.638 698.33 0.667 C700.574 0.676 702.819 0.682 705.063 0.684 C708.085 0.688 711.106 0.703 714.127 0.722 C715.45 0.719 715.45 0.719 716.8 0.716 C722.772 0.772 722.772 0.772 725 3 C725.248 5.871 725.248 5.871 725.246 9.634 C725.248 10.326 725.251 11.019 725.253 11.733 C725.258 14.078 725.249 16.423 725.241 18.768 C725.241 20.457 725.243 22.145 725.246 23.834 C725.25 28.493 725.242 33.151 725.232 37.81 C725.224 42.827 725.226 47.844 725.228 52.861 C725.229 61.56 725.223 70.258 725.211 78.957 C725.195 91.533 725.19 104.11 725.187 116.686 C725.183 137.089 725.17 157.492 725.151 177.895 C725.133 197.718 725.118 217.542 725.11 237.366 C725.109 239.198 725.109 239.198 725.108 241.067 C725.106 247.193 725.103 253.319 725.101 259.445 C725.08 310.296 725.045 361.148 725 412 C715.413 414.034 707.064 414 697 414 C697 447 697 480 697 514 C696.67 514 696.34 514 696 514 C695.67 481.33 695.34 448.66 695 415 C683.718 415.165 672.436 415.33 660.812 415.5 C653.754 415.594 646.695 415.687 639.637 415.77 C638.32 415.785 638.32 415.785 636.977 415.801 C619.494 416.001 602.01 416.143 584.525 416.177 C581.629 416.183 578.732 416.193 575.835 416.208 C559.115 416.288 542.632 415.82 526 414 C530.116 405.598 530.116 405.598 532.559 401.801 C533.02 401.078 533.481 400.355 533.956 399.611 C534.445 398.852 534.934 398.094 535.438 397.312 C536.514 395.626 537.589 393.938 538.664 392.25 C539.216 391.384 539.768 390.517 540.337 389.625 C543.029 385.375 545.671 381.094 548.312 376.812 C552.992 369.232 557.706 361.673 562.438 354.125 C568.011 345.229 573.494 336.282 578.935 327.304 C583.099 320.445 587.354 313.647 591.657 306.875 C596.453 299.317 601.144 291.695 605.746 284.018 C606.611 282.625 607.52 281.258 608.461 279.916 C608.929 279.236 609.397 278.556 609.879 277.855 C610.309 277.258 610.739 276.66 611.182 276.044 C612.598 272.507 611.603 269.557 610.261 266.093 C609.296 263.873 608.277 261.686 607.238 259.5 C606.856 258.68 606.474 257.86 606.08 257.015 C604.831 254.34 603.572 251.67 602.312 249 C601.441 247.138 600.57 245.275 599.7 243.413 C597.536 238.782 595.364 234.155 593.189 229.53 C590.347 223.482 587.517 217.429 584.688 211.375 C583.858 209.605 583.858 209.605 583.012 207.798 C580.068 201.494 577.163 195.174 574.309 188.828 C573.999 188.141 573.69 187.453 573.371 186.745 C571.898 183.466 570.429 180.185 568.968 176.9 C565.818 169.862 562.51 162.942 559.034 156.061 C555.718 149.483 552.586 142.825 549.473 136.149 C542.994 122.26 536.375 108.443 529.668 94.663 C529.012 93.314 528.355 91.966 527.699 90.617 C527.382 89.966 527.065 89.314 526.738 88.643 C523.794 82.589 520.894 76.515 518 70.438 C511.325 56.444 504.369 42.641 497 29 C492.732 28.636 490.879 29.427 487.527 32.031 C482.071 36.044 476.347 39.289 470.396 42.508 C468.506 43.53 466.621 44.56 464.736 45.591 C462.116 47.024 459.494 48.455 456.872 49.885 C450.898 53.144 444.948 56.445 439 59.75 C437.88 60.372 436.76 60.994 435.606 61.635 C428.034 65.847 420.502 70.125 412.99 74.442 C405.864 78.529 398.687 82.521 391.5 86.5 C383.428 90.97 375.377 95.469 367.375 100.062 C352.228 108.755 336.969 117.248 321.696 125.715 C311.542 131.344 301.418 137.015 291.352 142.798 C285.991 145.874 280.602 148.893 275.188 151.875 C268.179 155.737 261.272 159.755 254.375 163.812 C245.324 169.13 236.173 174.216 226.925 179.179 C219.173 183.345 211.502 187.639 203.851 191.987 C196.466 196.18 189.052 200.319 181.625 204.438 C166.054 213.073 150.516 221.766 135 230.5 C109.846 244.66 84.684 258.811 59.276 272.512 C53.903 275.414 48.557 278.354 43.25 281.375 C34.513 286.347 25.629 291.048 16.757 295.773 C9.717 299.514 9.717 299.514 2.785 303.449 C-0 305 -0 305 -2 305 C-2.046 267.011 -2.081 229.023 -2.102 191.034 C-2.105 186.55 -2.107 182.067 -2.11 177.583 C-2.11 176.69 -2.111 175.798 -2.111 174.878 C-2.12 160.42 -2.136 145.961 -2.154 131.503 C-2.173 116.671 -2.184 101.838 -2.188 87.005 C-2.191 77.851 -2.2 68.696 -2.216 59.542 C-2.226 53.267 -2.23 46.991 -2.227 40.716 C-2.226 37.094 -2.228 33.472 -2.238 29.85 C-2.25 25.925 -2.246 21.999 -2.241 18.073 C-2.246 16.927 -2.252 15.781 -2.258 14.6 C-2.252 13.02 -2.252 13.02 -2.246 11.408 C-2.247 10.502 -2.248 9.596 -2.248 8.662 C-1.959 5.556 -1.079 2.917 0 0 Z " fill="#E4270D" transform="translate(150,47)"/>
<path d="M0 0 C3.541 3.496 6.773 7.066 9.812 11 C10.274 11.592 10.736 12.185 11.211 12.795 C20.74 25.065 30.121 37.451 39.417 49.897 C42.921 54.582 46.468 59.234 50.024 63.879 C55.548 71.098 61.031 78.327 66.274 85.752 C73.644 96.184 81.229 106.474 89.062 116.562 C100.065 130.824 109.989 145.396 119 161 C119.846 162.443 120.693 163.886 121.539 165.328 C131.135 181.913 136.65 199.009 142.062 217.312 C142.763 219.658 143.464 222.004 144.166 224.35 C147.01 233.866 149.824 243.391 152.617 252.922 C154.842 260.514 157.146 268.082 159.452 275.65 C166.352 298.294 172.962 321.011 179.378 343.796 C180.258 346.914 181.147 350.029 182.035 353.145 C186.617 369.356 190.776 385.676 194.938 402 C195.221 403.11 195.504 404.22 195.796 405.363 C201.024 425.872 205.997 446.434 211 467 C141.7 467 72.4 467 1 467 C0.202 462.211 -0.14 457.867 -0.123 453.062 C-0.124 452.277 -0.125 451.492 -0.127 450.683 C-0.129 448.047 -0.125 445.412 -0.12 442.777 C-0.121 440.87 -0.122 438.964 -0.123 437.057 C-0.125 431.814 -0.121 426.572 -0.116 421.329 C-0.112 415.677 -0.113 410.025 -0.114 404.372 C-0.114 394.578 -0.111 384.784 -0.106 374.99 C-0.098 360.83 -0.095 346.669 -0.094 332.509 C-0.092 309.535 -0.085 286.561 -0.075 263.587 C-0.066 241.268 -0.059 218.95 -0.055 196.631 C-0.055 195.599 -0.055 195.599 -0.055 194.546 C-0.053 187.637 -0.052 180.728 -0.051 173.819 C-0.04 115.88 -0.023 57.94 0 0 Z " fill="#E3260C" transform="translate(148,493)"/>
<path d="M0 0 C0 86.13 0 172.26 0 261 C-3.96 261.66 -7.92 262.32 -12 263 C-15.452 264.212 -15.452 264.212 -18.438 265.75 C-24.425 268.467 -30.425 270.459 -36.75 272.25 C-37.613 272.496 -38.476 272.742 -39.365 272.995 C-68.368 281.026 -98.651 279.648 -125.25 264.75 C-138.24 257.186 -149.84 248.029 -161 238 C-161.737 237.348 -162.475 236.695 -163.234 236.023 C-185.416 215.217 -202.306 182.358 -212 154 C-212.253 153.286 -212.505 152.572 -212.766 151.836 C-219.66 131.947 -219.583 111.761 -219 91 C-218.972 89.964 -218.945 88.928 -218.917 87.86 C-218.618 77.864 -217.785 68.065 -216.305 58.169 C-215.947 55.624 -215.644 53.075 -215.344 50.523 C-210.883 12.991 -210.883 12.991 -200 2 C-195.08 0.576 -190.991 1.162 -186 2 C-178.233 3.026 -170.533 3.146 -162.707 3.133 C-160.751 3.135 -160.751 3.135 -158.756 3.137 C-155.187 3.14 -151.618 3.135 -148.049 3.129 C-145.802 3.125 -143.555 3.123 -141.307 3.121 C-116.466 3.1 -91.628 2.896 -66.789 2.594 C-64.205 2.563 -61.621 2.533 -59.037 2.503 C-54.932 2.456 -50.828 2.403 -46.723 2.347 C-45.223 2.327 -43.722 2.308 -42.221 2.291 C-25.973 2.669 -25.973 2.669 -10.049 0.466 C-6.779 -0.278 -3.353 0 0 0 Z " fill="#FCC409" transform="translate(875,459)"/>
<path d="M0 0 C0.33 0 0.66 0 1 0 C1.002 1.15 1.002 1.15 1.004 2.324 C1.085 47.742 1.176 93.161 1.28 138.579 C1.293 144.028 1.305 149.477 1.317 154.926 C1.32 156.01 1.322 157.095 1.325 158.213 C1.365 175.797 1.397 193.38 1.427 210.964 C1.459 228.996 1.497 247.027 1.543 265.059 C1.571 276.192 1.593 287.326 1.607 298.46 C1.618 306.086 1.636 313.713 1.659 321.339 C1.673 325.744 1.683 330.15 1.684 334.555 C1.686 338.584 1.696 342.612 1.714 346.641 C1.719 348.102 1.72 349.564 1.718 351.026 C1.716 353.004 1.727 354.983 1.738 356.962 C1.741 358.063 1.743 359.165 1.745 360.3 C1.806 363.222 1.806 363.222 4 366 C4.135 368.635 4.135 368.635 3.977 371.762 C3.925 372.88 3.873 373.998 3.82 375.15 C3.756 376.318 3.691 377.485 3.625 378.688 C3.54 380.456 3.54 380.456 3.453 382.26 C3.312 385.174 3.16 388.087 3 391 C3.66 391.33 4.32 391.66 5 392 C4.34 392 3.68 392 3 392 C3.013 392.764 3.025 393.528 3.038 394.315 C3.713 435.967 4.11 477.614 4.123 519.272 C4.125 522.502 4.129 525.732 4.133 528.961 C4.138 534.072 4.139 539.182 4.134 544.292 C4.133 546.182 4.134 548.072 4.136 549.962 C4.139 552.556 4.135 555.15 4.129 557.744 C4.131 558.498 4.133 559.252 4.136 560.028 C4.119 564.123 3.796 567.982 3 572 C3.66 572.33 4.32 572.66 5 573 C4.34 573 3.68 573 3 573 C3.036 573.767 3.071 574.533 3.108 575.323 C3.265 578.799 3.414 582.274 3.562 585.75 C3.647 587.56 3.647 587.56 3.732 589.406 C3.781 590.566 3.829 591.727 3.879 592.922 C3.95 594.524 3.95 594.524 4.022 596.159 C4.003 598.667 3.745 600.622 3 603 C3.66 603 4.32 603 5 603 C4.814 603.928 4.629 604.856 4.438 605.812 C3.759 609.013 3.759 609.013 5 612 C4.537 616.707 3.815 621.341 3 626 C2.67 626 2.34 626 2 626 C1.67 658.01 1.34 690.02 1 723 C0.67 723 0.34 723 0 723 C-0.33 687.36 -0.66 651.72 -1 615 C-9.052 621.03 -9.052 621.03 -17.066 627.109 C-27.737 635.226 -36.997 641.755 -51 640 C-63.389 637.864 -74.575 633.116 -86 628 C-82.663 626.888 -80.322 626.97 -76.812 627.062 C-55.087 627.174 -31.365 621.998 -12 612 C-7.757 610.803 -4.653 611 0 611 C0 409.37 0 207.74 0 0 Z " fill="#2F1B0F" transform="translate(875,109)"/>
<path d="M0 0 C0.868 0.001 1.736 0.001 2.63 0.002 C5.564 0.005 8.499 0.015 11.433 0.025 C13.548 0.029 15.662 0.032 17.776 0.035 C23.607 0.044 29.438 0.059 35.269 0.076 C41.549 0.093 47.829 0.103 54.109 0.115 C64.997 0.136 75.885 0.16 86.772 0.187 C98.194 0.215 109.615 0.241 121.037 0.265 C122.101 0.267 122.101 0.267 123.187 0.269 C126.79 0.277 130.394 0.284 133.998 0.291 C159.535 0.343 185.073 0.4 210.611 0.459 C235.424 0.517 260.237 0.573 285.05 0.625 C286.196 0.628 286.196 0.628 287.366 0.63 C295.044 0.647 302.722 0.663 310.4 0.679 C326.042 0.712 341.683 0.746 357.324 0.779 C358.043 0.781 358.763 0.782 359.504 0.784 C407.547 0.887 455.591 0.997 503.635 1.107 C501.635 4.107 501.635 4.107 499.853 4.482 C499.127 4.482 498.401 4.481 497.652 4.481 C496.813 4.488 495.973 4.495 495.109 4.502 C494.179 4.495 493.25 4.487 492.293 4.479 C490.814 4.485 490.814 4.485 489.305 4.491 C485.962 4.5 482.619 4.487 479.276 4.475 C476.869 4.477 474.462 4.48 472.055 4.485 C466.799 4.492 461.543 4.489 456.287 4.479 C448.465 4.463 440.643 4.464 432.821 4.469 C419.636 4.476 406.451 4.47 393.265 4.455 C380.129 4.441 366.993 4.432 353.857 4.431 C353.038 4.431 352.219 4.431 351.375 4.431 C348.048 4.431 344.721 4.43 341.394 4.43 C310.987 4.429 280.579 4.413 250.172 4.389 C221.724 4.366 193.277 4.351 164.83 4.348 C163.962 4.348 163.094 4.347 162.199 4.347 C158.698 4.347 155.197 4.346 151.696 4.346 C149.949 4.346 148.203 4.346 146.457 4.345 C144.713 4.345 142.97 4.345 141.227 4.345 C112.996 4.341 84.765 4.33 56.534 4.317 C48.353 4.313 40.173 4.31 31.992 4.308 C10.332 4.301 -11.328 4.291 -32.988 4.269 C-33.72 4.268 -34.452 4.267 -35.206 4.266 C-95.596 4.203 -155.979 3.757 -216.365 3.107 C-216.365 2.777 -216.365 2.447 -216.365 2.107 C-215.311 2.103 -214.258 2.099 -213.172 2.095 C-187.56 1.992 -161.947 1.883 -136.335 1.768 C-123.949 1.713 -111.563 1.659 -99.177 1.61 C-88.384 1.567 -77.592 1.521 -66.799 1.471 C-61.082 1.444 -55.365 1.419 -49.648 1.398 C-44.271 1.379 -38.894 1.355 -33.517 1.327 C-31.54 1.318 -29.562 1.31 -27.585 1.304 C-24.893 1.296 -22.201 1.281 -19.509 1.266 C-18.72 1.265 -17.931 1.264 -17.118 1.263 C-11.29 1.218 -5.886 -0.031 0 0 Z " fill="#170605" transform="translate(370.36523723602295,958.8925695419312)"/>
<path d="M0 0 C0.99 0.33 1.98 0.66 3 1 C3.66 4.63 4.32 8.26 5 12 C9.098 11.363 9.098 11.363 11.375 8.438 C14 6 14 6 16.875 6.062 C21.086 5.978 22.489 4.19 25.387 1.312 C27 0 27 0 30 0 C28.724 3.58 27.255 6.162 24.812 9.062 C21.984 12.621 19.447 16.253 17.062 20.125 C16.476 21.076 15.889 22.028 15.285 23.008 C13.685 26.734 13.455 28.972 14 33 C15.3 35.738 16.969 38.118 18.75 40.562 C19.193 41.196 19.637 41.83 20.094 42.482 C21.786 44.899 23.497 47.301 25.221 49.695 C28 53.666 28 53.666 28 57 C22.069 56.468 17.711 52.72 12.971 49.418 C9.773 47.302 7.798 46.027 3.906 45.895 C0.243 47.288 -2.569 49.348 -5.562 51.812 C-6.114 52.251 -6.665 52.69 -7.232 53.143 C-9.775 55.172 -12.283 57.236 -14.777 59.324 C-17 61 -17 61 -19 61 C-18.532 53.79 -14.345 47.921 -10.861 41.787 C-7.002 34.823 -7.002 34.823 -7 27 C-8.666 24.136 -8.666 24.136 -11.062 21.625 C-11.877 20.69 -12.692 19.756 -13.531 18.793 C-14.346 17.871 -15.161 16.95 -16 16 C-17.37 14.325 -18.726 12.639 -20.062 10.938 C-20.631 10.225 -21.199 9.512 -21.785 8.777 C-23 7 -23 7 -23 5 C-15.518 5.907 -10.893 7.31 -5 12 C-2.889 12.668 -2.889 12.668 -1 13 C-1.012 12.145 -1.023 11.291 -1.035 10.41 C-1.044 9.305 -1.053 8.201 -1.062 7.062 C-1.074 5.96 -1.086 4.858 -1.098 3.723 C-1 1 -1 1 0 0 Z " fill="#03488A" transform="translate(782,114)"/>
<path d="M0 0 C2.458 4.446 2.272 8.956 2.23 13.898 C2.23 14.833 2.23 15.767 2.23 16.73 C2.227 19.945 2.208 23.16 2.188 26.375 C2.179 28.697 2.171 31.019 2.164 33.341 C2.138 39.627 2.099 45.912 2.054 52.197 C2.014 57.898 1.978 63.599 1.945 69.301 C1.87 82.046 1.78 94.791 1.68 107.536 C1.642 112.268 1.609 117 1.579 121.732 C1.542 127.393 1.496 133.053 1.442 138.714 C1.424 140.833 1.408 142.952 1.397 145.071 C1.38 147.998 1.351 150.924 1.319 153.85 C1.317 154.709 1.315 155.568 1.312 156.453 C1.201 164.398 1.201 164.398 -1 168 C-5.724 171.967 -10.774 171.411 -16.624 171.361 C-18.247 171.365 -18.247 171.365 -19.904 171.369 C-23.536 171.373 -27.169 171.357 -30.802 171.341 C-33.404 171.34 -36.005 171.34 -38.607 171.342 C-44.212 171.343 -49.816 171.334 -55.42 171.317 C-63.523 171.293 -71.626 171.285 -79.73 171.281 C-92.876 171.275 -106.023 171.255 -119.17 171.226 C-131.941 171.199 -144.711 171.178 -157.482 171.165 C-158.269 171.164 -159.056 171.163 -159.867 171.162 C-163.817 171.158 -167.766 171.155 -171.716 171.151 C-204.477 171.12 -237.239 171.067 -270 171 C-267.569 168.569 -266.981 168.749 -263.652 168.744 C-262.274 168.735 -262.274 168.735 -260.868 168.725 C-259.343 168.73 -259.343 168.73 -257.788 168.735 C-256.177 168.728 -256.177 168.728 -254.533 168.722 C-250.909 168.709 -247.286 168.711 -243.662 168.713 C-241.074 168.707 -238.486 168.7 -235.898 168.692 C-230.313 168.677 -224.728 168.668 -219.143 168.664 C-211.066 168.659 -202.989 168.64 -194.912 168.618 C-181.806 168.582 -168.7 168.554 -155.593 168.532 C-154.808 168.53 -154.024 168.529 -153.215 168.528 C-146.846 168.517 -140.477 168.506 -134.108 168.496 C-128.541 168.487 -122.974 168.478 -117.407 168.468 C-116.623 168.467 -115.839 168.466 -115.031 168.464 C-101.975 168.442 -88.919 168.412 -75.863 168.376 C-67.803 168.354 -59.743 168.34 -51.683 168.334 C-45.513 168.329 -39.343 168.315 -33.173 168.296 C-30.636 168.29 -28.099 168.288 -25.561 168.289 C-22.111 168.29 -18.662 168.279 -15.212 168.265 C-13.687 168.27 -13.687 168.27 -12.132 168.275 C-11.213 168.269 -10.295 168.263 -9.348 168.256 C-8.551 168.255 -7.754 168.254 -6.932 168.253 C-4.762 168.169 -4.762 168.169 -3 166 C-2.7 163.072 -2.7 163.072 -2.759 159.571 C-2.758 158.904 -2.756 158.237 -2.754 157.549 C-2.751 155.303 -2.762 153.057 -2.773 150.81 C-2.774 149.204 -2.773 147.598 -2.772 145.992 C-2.771 141.622 -2.783 137.252 -2.797 132.883 C-2.81 128.32 -2.811 123.757 -2.813 119.194 C-2.819 110.549 -2.836 101.904 -2.856 93.259 C-2.878 83.418 -2.889 73.578 -2.899 63.738 C-2.92 43.492 -2.955 23.246 -3 3 C-6.3 2.34 -9.6 1.68 -13 1 C-12.67 0.34 -12.34 -0.32 -12 -1 C-7.438 -2.053 -4.062 -2.554 0 0 Z " fill="#7F2324" transform="translate(847,751)"/>
<path d="M0 0 C21.297 -0.047 42.593 -0.082 63.89 -0.104 C73.778 -0.114 83.666 -0.128 93.554 -0.151 C102.172 -0.171 110.79 -0.184 119.408 -0.188 C123.972 -0.191 128.536 -0.197 133.099 -0.211 C137.394 -0.225 141.689 -0.229 145.985 -0.226 C147.561 -0.227 149.138 -0.231 150.714 -0.238 C152.867 -0.248 155.02 -0.246 157.173 -0.241 C158.98 -0.243 158.98 -0.243 160.824 -0.246 C163.962 -0.003 166.173 0.657 169 2 C169.863 43.395 170.294 84.785 170.532 126.188 C170.558 130.554 170.584 134.921 170.61 139.288 C171.102 220.337 171.086 301.388 171 470 C170.67 470 170.34 470 170 470 C169.675 437.542 169.364 405.083 169.062 372.625 C169.051 371.392 169.04 370.158 169.028 368.888 C168.302 290.722 167.777 212.557 167.383 111.973 C167.375 109.93 167.367 107.888 167.359 105.846 C167.324 96.45 167.289 87.053 167.254 77.657 C167.248 75.891 167.248 75.891 167.241 74.089 C167.154 50.393 167.078 26.696 167 3 C111.89 2.67 56.78 2.34 0 2 C0 1.34 0 0.68 0 0 Z " fill="#6C170F" transform="translate(676,91)"/>
<path d="M0 0 C1.588 -0.056 1.588 -0.056 3.209 -0.113 C10.911 -0.201 10.911 -0.201 14.426 2.406 C16.025 6.169 15.978 9.276 15.562 13.25 C15.514 13.932 15.465 14.614 15.414 15.316 C14.953 20.817 14.322 26.372 10.75 30.75 C6.674 33.962 2.214 33.658 -2.75 33.75 C-3.514 33.787 -4.278 33.825 -5.064 33.863 C-8.874 33.923 -10.721 33.825 -13.82 31.469 C-15.933 27.089 -15.859 23.3 -15.75 18.5 C-15.757 17.627 -15.764 16.755 -15.771 15.855 C-15.645 2.92 -12.375 0.164 0 0 Z " fill="#054485" transform="translate(250.3125,792.625)"/>
<path d="M0 0 C0.33 0 0.66 0 1 0 C1 298.32 1 596.64 1 904 C0.67 904 0.34 904 0 904 C-0.33 752.86 -0.66 601.72 -1 446 C-1.66 446 -2.32 446 -3 446 C-3 444.02 -3 442.04 -3 440 C-2.01 440 -1.02 440 0 440 C0 294.8 0 149.6 0 0 Z " fill="#02080E" transform="translate(147,48)"/>
<path d="M0 0 C-1.519 3.926 -3.817 5.629 -7.188 8.062 C-8.274 8.85 -9.359 9.638 -10.445 10.426 C-11.022 10.84 -11.598 11.255 -12.192 11.682 C-14.064 13.047 -15.904 14.446 -17.742 15.855 C-28.506 24.061 -37.845 30.774 -52 29 C-64.389 26.864 -75.575 22.116 -87 17 C-83.663 15.888 -81.322 15.97 -77.812 16.062 C-56.097 16.174 -32.352 11.007 -13 1 C-8.675 -0.252 -4.468 -0.076 0 0 Z " fill="#033D7E" transform="translate(876,720)"/>
<path d="M0 0 C0.66 0.33 1.32 0.66 2 1 C-4.615 5.529 -11.405 9.727 -18.273 13.861 C-29.119 20.389 -39.893 27.022 -50.615 33.751 C-56.451 37.412 -62.303 41.042 -68.188 44.625 C-90.183 58.021 -112.024 71.672 -133.784 85.446 C-140.111 89.448 -146.461 93.413 -152.812 97.375 C-160.63 102.252 -168.422 107.166 -176.188 112.125 C-189.536 120.642 -202.995 128.973 -216.537 137.179 C-225.971 142.898 -235.333 148.71 -244.625 154.657 C-252.73 159.843 -260.887 164.945 -269.058 170.027 C-270.008 170.619 -270.959 171.211 -271.938 171.82 C-273.266 172.645 -273.266 172.645 -274.621 173.485 C-276.631 174.765 -278.565 176.103 -280.5 177.492 C-281.325 177.99 -282.15 178.487 -283 179 C-283.99 178.67 -284.98 178.34 -286 178 C-274.618 170.504 -263.227 163.044 -251.564 155.99 C-246.232 152.763 -240.95 149.464 -235.688 146.125 C-222.245 137.606 -208.736 129.205 -195.062 121.062 C-185.139 115.146 -175.406 108.946 -165.68 102.714 C-161.441 100.003 -157.191 97.312 -152.938 94.625 C-152.148 94.126 -151.358 93.627 -150.544 93.113 C-146.276 90.421 -141.993 87.757 -137.688 85.125 C-132.017 81.654 -126.414 78.081 -120.812 74.5 C-111.545 68.58 -102.204 62.789 -92.829 57.042 C-85.401 52.486 -78.005 47.883 -70.625 43.25 C-62.556 38.188 -54.432 33.232 -46.247 28.36 C-39.581 24.38 -33.013 20.254 -26.46 16.091 C-21.75 13.099 -17.024 10.148 -12.215 7.316 C-10.548 6.326 -8.897 5.308 -7.254 4.277 C-6.345 3.711 -5.436 3.146 -4.5 2.562 C-3.685 2.048 -2.871 1.534 -2.031 1.004 C-1.361 0.673 -0.691 0.341 0 0 Z " fill="#821C0F" transform="translate(785,779)"/>
<path d="M0 0 C0.33 0 0.66 0 1 0 C1 55.11 1 110.22 1 167 C-0.32 167 -1.64 167 -3 167 C-3.026 159.708 -3.043 152.417 -3.055 145.125 C-3.06 142.65 -3.067 140.175 -3.075 137.7 C-3.166 111.307 -3.166 111.307 -2 100 C-1.34 100 -0.68 100 0 100 C0 67 0 34 0 0 Z " fill="#C79414" transform="translate(847,461)"/>
<path d="M0 0 C0.99 0.99 0.99 0.99 2 2 C1.159 2.51 1.159 2.51 0.301 3.031 C-22.046 16.603 -44.347 30.234 -66.373 44.324 C-71.603 47.66 -76.853 50.964 -82.101 54.271 C-82.835 54.733 -83.568 55.195 -84.324 55.672 C-84.964 56.075 -85.605 56.478 -86.264 56.894 C-87.856 57.908 -89.429 58.953 -91 60 C-91.99 59.67 -92.98 59.34 -94 59 C-82.618 51.504 -71.227 44.044 -59.564 36.99 C-54.232 33.763 -48.95 30.464 -43.688 27.125 C-29.211 17.945 -14.607 8.97 0 0 Z " fill="#871C0E" transform="translate(593,898)"/>
<path d="M0 0 C-1.522 4.158 -4.527 6.201 -8 8.688 C-8.82 9.292 -8.82 9.292 -9.656 9.908 C-11.718 11.417 -13.711 12.855 -16 14 C-17.5 12.688 -17.5 12.688 -19 11 C-19 10.01 -19 9.02 -19 8 C-21.97 7.505 -21.97 7.505 -25 7 C-16.948 1.632 -9.544 -0.162 0 0 Z " fill="#073B76" transform="translate(876,720)"/>
<path d="M0 0 C0.33 0 0.66 0 1 0 C2.149 22.5 2.149 22.5 1.938 33.32 C1.9 35.952 1.9 35.952 2.562 38.242 C3 40 3 40 2 42 C1.88 44.062 1.823 46.128 1.795 48.194 C1.775 49.495 1.755 50.796 1.734 52.137 C1.717 53.563 1.7 54.988 1.684 56.414 C1.663 57.869 1.642 59.323 1.621 60.777 C1.565 64.608 1.516 68.438 1.468 72.269 C1.418 76.177 1.362 80.084 1.307 83.992 C1.199 91.661 1.098 99.331 1 107 C0.67 107 0.34 107 0 107 C0 71.69 0 36.38 0 0 Z " fill="#020C11" transform="translate(875,851)"/>
<path d="M0 0 C1.079 0.001 1.079 0.001 2.179 0.003 C11.119 0.014 20.06 0.034 29 0.062 C29 0.392 29 0.723 29 1.062 C12.5 1.392 -4 1.723 -21 2.062 C-21 2.392 -21 2.723 -21 3.062 C-33.031 3.132 -45.037 2.927 -57.062 2.562 C-58.719 2.514 -60.376 2.466 -62.033 2.418 C-66.022 2.302 -70.011 2.183 -74 2.062 C-74 1.733 -74 1.402 -74 1.062 C-49.332 0.215 -24.68 -0.03 0 0 Z " fill="#F6A806" transform="translate(802,461.9375)"/>
<path d="M0 0 C0.66 0.66 1.32 1.32 2 2 C1.413 2.356 0.826 2.712 0.222 3.079 C-13.896 11.649 -27.973 20.282 -42 29 C-42.66 28.34 -43.32 27.68 -44 27 C-33.612 20.626 -23.201 14.294 -12.728 8.062 C-8.405 5.48 -4.159 2.838 0 0 Z " fill="#A52010" transform="translate(593,898)"/>
<path d="M0 0 C0.66 0.33 1.32 0.66 2 1 C2 1.99 2 2.98 2 4 C4.31 4 6.62 4 9 4 C9.33 3.34 9.66 2.68 10 2 C14 7.625 14 7.625 14 11 C9.938 10.422 7.152 9.109 3.688 6.938 C2.804 6.39 1.921 5.842 1.012 5.277 C0.016 4.645 0.016 4.645 -1 4 C-0.67 2.68 -0.34 1.36 0 0 Z " fill="#104684" transform="translate(796,160)"/>
<path d="M0 0 C-1.811 5.433 -4.214 8.038 -9.25 10.75 C-10.611 11.369 -10.611 11.369 -12 12 C-12.66 11.01 -13.32 10.02 -14 9 C-12.237 7.491 -10.464 5.993 -8.688 4.5 C-7.701 3.665 -6.715 2.829 -5.699 1.969 C-3 0 -3 0 0 0 Z " fill="#01498F" transform="translate(812,114)"/>
<path d="M0 0 C0.99 0.33 1.98 0.66 3 1 C3.33 4.63 3.66 8.26 4 12 C2.333 12 0.667 12 -1 12 C-1.027 10.188 -1.046 8.375 -1.062 6.562 C-1.074 5.553 -1.086 4.544 -1.098 3.504 C-1 1 -1 1 0 0 Z M0 13 C2 14 2 14 2 14 Z " fill="#034A8E" transform="translate(782,114)"/>
<path d="M0 0 C0.66 0.33 1.32 0.66 2 1 C-2.625 5 -2.625 5 -6 5 C-6.33 6.32 -6.66 7.64 -7 9 C-10.3 9.66 -13.6 10.32 -17 11 C-13.844 7.494 -10.521 5.41 -6.375 3.188 C-5.228 2.562 -4.08 1.937 -2.898 1.293 C-1.464 0.653 -1.464 0.653 0 0 Z " fill="#094C96" transform="translate(452,183)"/>
<path d="M0 0 C-0.33 2.64 -0.66 5.28 -1 8 C-1.33 8 -1.66 8 -2 8 C-2.495 5.525 -2.495 5.525 -3 3 C-6.3 2.34 -9.6 1.68 -13 1 C-12.67 0.34 -12.34 -0.32 -12 -1 C-7.311 -2.082 -4.309 -2.22 0 0 Z " fill="#C71F09" transform="translate(847,751)"/>
<path d="M0 0 C1.32 0.66 2.64 1.32 4 2 C1.69 5.63 -0.62 9.26 -3 13 C-4.257 9.229 -3.827 6.861 -3 3 C-1.438 1.062 -1.438 1.062 0 0 Z " fill="#0A4B92" transform="translate(595,583)"/>
<path d="M0 0 C-1.275 2.844 -2.451 5.138 -5 7 C-7.188 6.688 -7.188 6.688 -9 6 C-8.25 3.562 -8.25 3.562 -7 1 C-4.505 -0.046 -2.731 0 0 0 Z " fill="#D02A15" transform="translate(795,120)"/>
<path d="M0 0 C3.949 0.628 7.199 1.865 10.812 3.562 C12.276 4.245 12.276 4.245 13.77 4.941 C14.874 5.465 14.874 5.465 16 6 C12.99 6.934 12.133 7.044 9 6 C8.196 5.918 7.391 5.835 6.562 5.75 C3.118 4.742 2 2.889 0 0 Z " fill="#F02206" transform="translate(788,737)"/>
<path d="M0 0 C2.64 0 5.28 0 8 0 C7.375 1.938 7.375 1.938 6 4 C2.875 4.75 2.875 4.75 0 5 C-0.33 4.01 -0.66 3.02 -1 2 C-0.67 1.34 -0.34 0.68 0 0 Z " fill="#113B70" transform="translate(868,720)"/>
<path d="M0 0 C0.33 0 0.66 0 1 0 C1.33 6.93 1.66 13.86 2 21 C0.68 20.67 -0.64 20.34 -2 20 C-1.842 19.42 -1.683 18.84 -1.52 18.243 C-0.719 14.788 -0.628 11.281 -0.438 7.75 C-0.394 7.005 -0.351 6.26 -0.307 5.492 C-0.201 3.662 -0.1 1.831 0 0 Z " fill="#F09C07" transform="translate(873,699)"/>
<path d="M0 0 C3.674 0.306 4.781 0.758 7.312 3.562 C8.148 4.769 8.148 4.769 9 6 C7.312 6.812 7.312 6.812 5 7 C2.25 4.688 2.25 4.688 0 2 C0 1.34 0 0.68 0 0 Z " fill="#B92A1F" transform="translate(752,113)"/>
<path d="M0 0 C4.869 0.596 9.328 1.57 14 3 C14 3.33 14 3.66 14 4 C12.375 4.027 10.75 4.046 9.125 4.062 C8.22 4.074 7.315 4.086 6.383 4.098 C4 4 4 4 2 3 C2 2.34 2 1.68 2 1 C1.34 0.67 0.68 0.34 0 0 Z " fill="#E0180E" transform="translate(769,732)"/>
<path d="M0 0 C-1.25 3.653 -1.671 4.781 -5 7 C-5.33 6.34 -5.66 5.68 -6 5 C-6.99 5 -7.98 5 -9 5 C-3.375 0 -3.375 0 0 0 Z " fill="#234275" transform="translate(812,114)"/>
<path d="M0 0 C1.226 0.014 1.226 0.014 2.477 0.027 C3.416 0.045 3.416 0.045 4.375 0.062 C1.232 2.856 -0.481 3.265 -4.625 3.062 C-6.298 3.36 -7.968 3.684 -9.625 4.062 C-6.41 0.702 -4.653 -0.066 0 0 Z " fill="#072F7E" transform="translate(867.625,720.9375)"/>
<path d="M0 0 C0.66 0 1.32 0 2 0 C0.611 3.356 -0.917 5.073 -4 7 C-4.66 7 -5.32 7 -6 7 C-5.67 5.02 -5.34 3.04 -5 1 C-4.67 1.66 -4.34 2.32 -4 3 C-2.68 2.67 -1.36 2.34 0 2 C0 1.34 0 0.68 0 0 Z " fill="#1E4178" transform="translate(769,168)"/>
<path d="M0 0 C0.66 0.66 1.32 1.32 2 2 C0.761 2.869 -0.492 3.72 -1.75 4.562 C-2.446 5.038 -3.142 5.514 -3.859 6.004 C-6 7 -6 7 -10 6 C-6.7 4.02 -3.4 2.04 0 0 Z " fill="#BC2311" transform="translate(575,909)"/>
<path d="M0 0 C0.66 0 1.32 0 2 0 C2.33 0.99 2.66 1.98 3 3 C1.125 6.188 1.125 6.188 -1 9 C-1.33 9 -1.66 9 -2 9 C-2.25 3.375 -2.25 3.375 0 0 Z " fill="#0E408A" transform="translate(674,457)"/>
<path d="M0 0 C1.562 1.25 1.562 1.25 3 3 C2.688 5.188 2.688 5.188 2 7 C0.062 6.188 0.062 6.188 -2 5 C-2.33 4.01 -2.66 3.02 -3 2 C-2.01 2 -1.02 2 0 2 C0 1.34 0 0.68 0 0 Z " fill="#832E38" transform="translate(810,169)"/>
<path d="M0 0 C2.97 0 5.94 0 9 0 C8.67 0.99 8.34 1.98 8 3 C5.36 2.67 2.72 2.34 0 2 C0 1.34 0 0.68 0 0 Z " fill="#0C4282" transform="translate(795,738)"/>
<path d="M0 0 C2.592 1.589 3.826 2.399 4.688 5.375 C4.791 6.241 4.894 7.107 5 8 C5.186 8.928 5.371 9.856 5.562 10.812 C5.779 11.895 5.779 11.895 6 13 C2.843 9.091 0 5.139 0 0 Z " fill="#F02904" transform="translate(691,162)"/>
<path d="M0 0 C1.562 1.25 1.562 1.25 3 3 C2.688 5.188 2.688 5.188 2 7 C1.34 7 0.68 7 0 7 C-1.625 4.5 -1.625 4.5 -3 2 C-2.34 2 -1.68 2 -1 2 C-0.67 1.34 -0.34 0.68 0 0 Z " fill="#C72817" transform="translate(813,173)"/>
<path d="M0 0 C2.31 0.33 4.62 0.66 7 1 C8 4 8 4 7.062 6.188 C6.537 7.085 6.537 7.085 6 8 C5.907 6.824 5.907 6.824 5.812 5.625 C5.544 4.759 5.276 3.893 5 3 C2.524 1.625 2.524 1.625 0 1 C0 0.67 0 0.34 0 0 Z " fill="#A91D0B" transform="translate(839,751)"/>
<path d="M0 0 C2.884 1.293 4.872 2.659 7 5 C6.67 5.99 6.34 6.98 6 8 C3.333 5.51 1.443 3.366 0 0 Z " fill="#144687" transform="translate(230,601)"/>
<path d="M0 0 C0.33 1.32 0.66 2.64 1 4 C-0.875 4.625 -0.875 4.625 -3 5 C-3.66 4.34 -4.32 3.68 -5 3 C-2.25 0 -2.25 0 0 0 Z " fill="#B9281C" transform="translate(802,116)"/>
<path d="M0 0 C0.99 0 1.98 0 3 0 C3 0.66 3 1.32 3 2 C3.66 2.33 4.32 2.66 5 3 C3.68 3.99 2.36 4.98 1 6 C0.34 5.67 -0.32 5.34 -1 5 C-0.34 4.01 0.32 3.02 1 2 C0.34 1.67 -0.32 1.34 -1 1 C-0.67 0.67 -0.34 0.34 0 0 Z " fill="#B8291E" transform="translate(811,112)"/>
<path d="M0 0 C1.485 0.99 1.485 0.99 3 2 C3.188 4.625 3.188 4.625 3 7 C2.01 7.33 1.02 7.66 0 8 C0 5.36 0 2.72 0 0 Z " fill="#B02720" transform="translate(781,107)"/>
<path d="M0 0 C1.062 1.875 1.062 1.875 2 4 C1.67 4.66 1.34 5.32 1 6 C-1.562 6.625 -1.562 6.625 -4 7 C-2.68 4.69 -1.36 2.38 0 0 Z " fill="#EE2906" transform="translate(683,449)"/>
<path d="M0 0 C0.99 0.33 1.98 0.66 3 1 C2.67 2.32 2.34 3.64 2 5 C1.67 4.34 1.34 3.68 1 3 C0.67 5.31 0.34 7.62 0 10 C-0.33 10 -0.66 10 -1 10 C-1.027 8.521 -1.046 7.042 -1.062 5.562 C-1.074 4.739 -1.086 3.915 -1.098 3.066 C-1 1 -1 1 0 0 Z " fill="#3C3B5E" transform="translate(782,114)"/>
<path d="M0 0 C-0.66 1.32 -1.32 2.64 -2 4 C-6 4 -6 4 -9 3 C-5.928 0.269 -4.096 -0.341 0 0 Z " fill="#14478A" transform="translate(647,75)"/>
<path d="M0 0 C1.65 0 3.3 0 5 0 C5 0.99 5 1.98 5 3 C3.02 3 1.04 3 -1 3 C-0.67 2.01 -0.34 1.02 0 0 Z " fill="#CB2513" transform="translate(569,921)"/>
<path d="M0 0 C1.562 1.812 1.562 1.812 3 4 C2.67 4.99 2.34 5.98 2 7 C0.68 6.34 -0.64 5.68 -2 5 C-2 4.01 -2 3.02 -2 2 C-1.34 2 -0.68 2 0 2 C0 1.34 0 0.68 0 0 Z " fill="#10478D" transform="translate(724,235)"/>
<path d="M0 0 C-0.33 0.99 -0.66 1.98 -1 3 C-4.562 4.688 -4.562 4.688 -8 6 C-6.729 2.186 -4.191 0 0 0 Z " fill="#084B97" transform="translate(493,161)"/>
  </g>
  <g id="text-layer">
    <style>
    .main-text {
      font-family: Impact, Charcoal, sans-serif;
      font-weight: 700;
      fill: #ffc423;
      font-size: 220px;
      filter: drop-shadow(10px 10px 4px #7a2301);
      letter-spacing: -5px;
    }
    .sub-text {
      font-family: Arial, Helvetica, sans-serif;
      font-size: 36px;
      fill: white;
      font-weight: 600;
      letter-spacing: 1px;
    }
    .small-text {
      font-family: Arial, Helvetica, sans-serif;
      font-size: 26px;
      fill: white;
      letter-spacing: 0.6px;
    }
  </style>
  <text class="main-text" x="140" y="470">COMING</text>
  <text class="main-text" x="180" y="750">SOON</text>
  <text class="sub-text" x="160" y="860">DAIDRILL EMAL</text>
  <text class="small-text" x="160" y="900" xml:space="preserve">> Aiuo'tngecmyngaeciapapqgnroav.mornjfruua</text>
  <text class="small-text" x="160" y="940" xml:space="preserve">iiieougrounm eamuea eiirrqhrmnqua .</text>
  </g>
</svg>